<?xml version="1.0" encoding="UTF-8"?> <svg xmlns="http://www.w3.org/2000/svg" id="Layer_1" data-name="Layer 1" viewBox="0 0 400 245"><defs><style>.cls-1{fill:#0166ff;}.cls-2{fill:#fff;}</style></defs><path class="cls-1" d="M4.5,78.06311v82.87378l73.45631-16.57475v-66.299Z"></path><path class="cls-2" d="M26.72524,121.7602l-4.61456,9.98252h-5.368L35.8602,90.30583l19.0233,41.43689h-5.368l-4.52039-9.98252ZM35.766,101.04175l-6.96894,16.10388H43.01747Z"></path><path class="cls-2" d="M46.78447,94.92039h1.41262a12.94564,12.94564,0,0,1,5.65048.94175H60.534c-2.35437-4.42622-8.00485-5.55631-13.84369-5.55631H38.02622l2.44854,5.55631h6.21553v-.94175Z"></path><path class="cls-2" d="M46.78447,103.01942V97.46311H41.32233l2.54271,5.55631Z"></path><path class="cls-2" d="M56.86116,103.01942h4.80291a6.6712,6.6712,0,0,0,.09418-1.31845,11.78588,11.78588,0,0,0-.65922-4.23786h-5.368a6.87978,6.87978,0,0,1,1.13009,4.23786A2.0982,2.0982,0,0,1,56.86116,103.01942Z"></path><path class="cls-2" d="M59.30971,110.1767a9.94825,9.94825,0,0,0-1.78933-.565v-.09417a8.25559,8.25559,0,0,0,3.95534-4.89709H56.767c-1.13009,3.29612-4.52039,4.04952-8.5699,4.04952H46.87864v-4.04952H44.61845L47.067,110.1767Z"></path><path class="cls-2" d="M47.82039,111.87185H61.9466a10.66011,10.66011,0,0,1,3.39029,5.55631H60.15728c-1.41262-3.767-6.21553-4.61457-10.17088-4.61457H48.29125Z"></path><path class="cls-2" d="M58.933,124.49127h5.933a10.60479,10.60479,0,0,0,.84757-4.42622c0-.3767-.09417-.7534-.09417-1.13009H60.534a2.34055,2.34055,0,0,1,.09417.7534A6.42449,6.42449,0,0,1,58.933,124.49127Z"></path><path class="cls-2" d="M56.29612,126.18641l-1.69515.565,1.97767,4.332a11.81326,11.81326,0,0,0,7.4398-4.89708Z"></path><path d="M109.12816,121.7602l-4.80292,9.98252H98.67476L118.734,90.30583l20.05923,41.43689h-5.65049l-4.80291-9.98252Zm9.60582-20.62428-7.4398,16.10388H126.1738Z"></path><path d="M171.66019,98.68738a17.52533,17.52533,0,0,0-11.11262-3.86116,16.24763,16.24763,0,1,0-.09418,32.49029,17.24324,17.24324,0,0,0,11.20679-4.04952v5.65049a23.65751,23.65751,0,0,1-11.01844,2.82524c-11.9602,0-21.84854-9.04078-21.84854-20.5301,0-11.77185,9.98253-20.9068,22.31941-20.9068a22.09328,22.09328,0,0,1,10.64175,2.73107Z"></path><path d="M210.366,98.68738a17.5254,17.5254,0,0,0-11.11263-3.86116,16.24763,16.24763,0,1,0-.09418,32.49029A17.24335,17.24335,0,0,0,210.366,123.267v5.65049a23.65755,23.65755,0,0,1-11.01845,2.82524c-11.96019,0-21.84854-9.04078-21.84854-20.5301,0-11.77185,9.98253-20.9068,22.31942-20.9068a22.09325,22.09325,0,0,1,10.64175,2.73107Z"></path><path d="M217.52331,90.30583h22.50776v4.70873H222.70292v11.5835H239.5602v4.70874H222.70292V127.034h17.32815v4.70874H217.52331Z"></path><path d="M255.099,127.034h12.80778v4.70874H249.91942V90.30583H255.099Z"></path><path d="M310.28545,95.768l-3.20194-5.46213h-6.02718l3.20194,5.46213Z"></path><path d="M330.43884,95.768l3.20194-5.46213h-5.933L324.41166,95.768Z"></path><path d="M353.98253,126.18641h-5.17961v5.55631h5.17961Z"></path><path d="M338.82039,90.30583v4.70873h9.98253v.7534h5.17961v-.7534h10.07671V90.30583Z"></path><path d="M369.89806,90.30583V95.768h5.27379v-.7534H392.5V90.30583Z"></path><path d="M279.49029,94.92039h1.41262a12.94574,12.94574,0,0,1,5.65049.94175H293.334c-2.54273-4.332-8.099-5.55631-14.032-5.55631h-5.08543V95.768h5.17961Z"></path><path d="M279.39611,97.46311H274.2165v5.55631h5.17961Z"></path><path d="M289.75533,103.01942h4.8971a6.6712,6.6712,0,0,0,.09418-1.31845,10.93608,10.93608,0,0,0-.65923-4.14369h-5.46213a6.87986,6.87986,0,0,1,1.13011,4.23786A2.68821,2.68821,0,0,1,289.75533,103.01942Z"></path><path d="M292.01552,110.1767a11.00679,11.00679,0,0,0-1.88349-.565v-.09417a8.4017,8.4017,0,0,0,4.0495-4.89709h-4.8971c-1.13011,3.29612-4.61456,4.04952-8.56991,4.04952h-1.31844v-4.04952h-5.17961v5.46213h17.799v.09418Z"></path><path d="M279.49029,117.42816v-4.61457h3.20194c3.95535,0,8.75824.84758,10.265,4.61457h5.27379a10.81493,10.81493,0,0,0-3.48448-5.55631H274.2165v5.55631Z"></path><path d="M283.53979,127.12815h-4.0495v-.94174h-5.17961v5.55631h9.79417c5.17961,0,10.35922-1.601,12.902-5.55631h-7.81649A14.27451,14.27451,0,0,1,283.53979,127.12815Z"></path><path d="M279.39611,119.02913H274.2165v5.55631h5.17961Z"></path><path d="M291.63883,124.58544h6.12136a10.60461,10.60461,0,0,0,.84757-4.42621c0-.3767-.09419-.7534-.09419-1.1301H293.334a2.34032,2.34032,0,0,1,.09418.7534A6.39,6.39,0,0,1,291.63883,124.58544Z"></path><path d="M326.201,103.01942l3.29611-5.55631h-6.02718l-3.20193,5.55631Z"></path><path d="M314.42913,103.01942l-3.20193-5.55631h-5.933l3.20193,5.55631Z"></path><path d="M322.05729,110.1767l3.20194-5.55631h-5.933l-1.97767,3.39029-1.8835-3.39029h-6.02718l3.29612,5.55631Z"></path><path d="M314.71164,117.42816h5.2738v-3.67282l1.13011-1.88349h-7.4398l1.03592,1.88349v3.67282Z"></path><path d="M319.89126,126.18641h-5.17962v5.55631h5.17962Z"></path><path d="M319.89126,119.02913h-5.17962v5.55631h5.17962Z"></path><path d="M353.98253,97.46311h-5.17961v5.55631h5.17961Z"></path><path d="M353.98253,104.62039h-5.17961v5.55631h5.17961Z"></path><path d="M353.98253,111.87185h-5.17961v5.55631h5.17961Z"></path><path d="M353.98253,119.02913h-5.17961v5.55631h5.17961Z"></path><path d="M375.07767,97.46311h-5.17961v5.55631h5.17961Z"></path><path d="M375.07767,111.87185h-5.17961v5.55631h5.17961Z"></path><path d="M375.17185,127.034v-.84757h-5.27379v5.55631H392.5V127.034Z"></path><path d="M375.07767,119.02913h-5.17961v5.55631h5.17961Z"></path><path d="M392.02913,110.1767v-3.57865H375.17185v-1.97766h-5.27379v5.55631h22.13107Z"></path></svg> 