<svg width="241" height="51" viewBox="0 0 241 51" fill="none" xmlns="http://www.w3.org/2000/svg">
<g clip-path="url(#clip0)">
<path d="M0 0.741943V50.7419L44.4021 40.7229V0.741943H0Z" fill="#CCCCCC"/>
<path d="M13.4539 27.2368L10.7186 33.2482H7.5061L18.9565 8.28003L30.375 33.2482H27.1626L24.4272 27.2368H13.4539ZM18.9247 14.8004L14.6944 24.5014H23.2186L18.9247 14.8004Z" fill="white"/>
<path d="M25.5091 11.0473H26.3679C27.6719 11.0473 28.8488 11.1745 29.7712 11.588H33.7788C32.2839 8.91623 28.9442 8.24829 25.4455 8.24829H20.261L21.7559 11.588H25.5091V11.0473Z" fill="white"/>
<path d="M25.5088 15.9137V12.574H22.2009L23.7276 15.9137H25.5088Z" fill="white"/>
<path d="M31.616 15.9137H34.5104C34.5422 15.6274 34.574 15.373 34.574 15.1185C34.574 14.1325 34.4468 13.3055 34.1923 12.574H30.9799C31.4251 13.1783 31.6796 14.0053 31.6796 15.1503C31.6796 15.4048 31.6478 15.6592 31.616 15.9137Z" fill="white"/>
<path d="M32.9833 20.2395C32.6335 20.0805 32.2836 19.9851 31.9019 19.9215V19.8578C33.047 19.3171 33.8739 18.1721 34.2874 16.9316H31.4248C30.7251 18.9355 28.6894 19.3489 26.3358 19.3489H25.5406V16.9316H24.2047L25.6996 20.2713H32.9833V20.2395Z" fill="white"/>
<path d="M26.145 21.2253H34.6056C35.6234 22.0841 36.3231 23.261 36.673 24.565H33.5242C32.6654 22.3068 29.771 21.7979 27.4173 21.7979H26.3677L26.145 21.2253Z" fill="white"/>
<path d="M32.7606 28.8907H36.3866C36.7046 28.1274 36.8955 27.2368 36.8955 26.219C36.8955 25.9963 36.8637 25.7737 36.8319 25.551H33.7466C33.7784 25.7101 33.7784 25.8691 33.7784 26.0281C33.7784 27.3322 33.3968 28.2546 32.7606 28.8907Z" fill="white"/>
<path d="M31.266 29.9087C30.9162 30.0359 30.5663 30.1631 30.2164 30.2268L31.3933 32.8667C33.2699 32.3896 34.9238 31.4354 35.9098 29.9087H31.266Z" fill="white"/>
<path d="M65.4581 27.5232L62.5637 33.7891H59.1604L71.2787 7.7395L83.397 33.7573H79.9937L77.0993 27.4914H65.4581V27.5232ZM71.2787 14.5461L66.7622 24.6606H75.7634L71.2787 14.5461Z" fill="#CCCCCC"/>
<path d="M104.898 13.5599C103.085 11.9696 100.604 11.1108 98.219 11.1108C92.5256 11.1108 88.1999 15.7864 88.1999 21.3207C88.1999 26.7915 92.4938 31.467 98.1553 31.467C100.636 31.467 103.022 30.5447 104.898 28.8907V32.5485C102.958 33.6617 100.445 34.2978 98.2508 34.2978C91.0307 34.2978 85.051 28.6363 85.051 21.4162C85.051 14.037 91.0625 8.28003 98.537 8.28003C100.763 8.28003 103.022 8.82074 104.93 9.96578V13.5599H104.898Z" fill="#CCCCCC"/>
<path d="M128.244 13.5599C126.431 11.9696 123.95 11.1108 121.565 11.1108C115.872 11.1108 111.546 15.7864 111.546 21.3207C111.546 26.7915 115.84 31.467 121.501 31.467C123.982 31.467 126.368 30.5447 128.244 28.8907V32.5485C126.304 33.6617 123.791 34.2978 121.597 34.2978C114.377 34.2978 108.397 28.6363 108.397 21.4162C108.397 14.037 114.408 8.28003 121.883 8.28003C124.109 8.28003 126.368 8.82074 128.276 9.96578V13.5599H128.244Z" fill="#CCCCCC"/>
<path d="M133.747 8.78906H147.36V11.6517H136.895V18.6173H147.042V21.4799H136.895V30.9265H147.36V33.7573H133.747V8.78906Z" fill="#CCCCCC"/>
<path d="M156.393 30.9265H164.122V33.7573H153.244V8.78906H156.393V30.9265Z" fill="#CCCCCC"/>
<path d="M190.172 12.1288L188.231 8.78906H184.605L186.546 12.1288H190.172Z" fill="#CCCCCC"/>
<path d="M202.353 12.1288L204.294 8.78906H200.668L198.727 12.1288H202.353Z" fill="#CCCCCC"/>
<path d="M216.571 30.4175H213.422V33.7572H216.571V30.4175Z" fill="#CCCCCC"/>
<path d="M207.411 8.78906V11.6517H213.422V12.1288H216.571V11.6517H222.614V8.78906H207.411Z" fill="#CCCCCC"/>
<path d="M227.29 8.78906V12.1288H230.471V11.6517H240.935V8.78906H227.29Z" fill="#CCCCCC"/>
<path d="M171.66 11.588H172.519C173.823 11.588 175.032 11.7153 175.954 12.1288H180.025C178.498 9.48881 175.127 8.78906 171.565 8.78906H168.479V12.1288H171.628V11.588H171.66Z" fill="#CCCCCC"/>
<path d="M171.628 13.1147H168.479V16.4544H171.628V13.1147Z" fill="#CCCCCC"/>
<path d="M177.863 16.4544H180.789C180.821 16.1681 180.853 15.9137 180.853 15.6592C180.853 14.6732 180.725 13.8462 180.471 13.1465H177.195C177.64 13.7508 177.895 14.5778 177.895 15.7228C177.895 15.9773 177.895 16.2317 177.863 16.4544Z" fill="#CCCCCC"/>
<path d="M179.23 20.7801C178.88 20.621 178.498 20.5256 178.117 20.462V20.3984C179.293 19.8577 180.089 18.7126 180.534 17.4722H177.608C176.908 19.476 174.841 19.8895 172.423 19.8895H171.628V17.4722H168.479V20.7801H179.23Z" fill="#CCCCCC"/>
<path d="M171.66 25.1056V22.3384H173.6C175.986 22.3384 178.912 22.8473 179.771 25.1056H182.951C182.601 23.8015 181.87 22.6246 180.852 21.7659H168.479V25.1056H171.66Z" fill="#CCCCCC"/>
<path d="M174.077 30.9899H171.66V30.4492H168.511V33.7889H174.427C177.576 33.7889 180.661 32.8029 182.22 30.4492H177.512C176.463 30.8309 175.254 30.9899 174.077 30.9899Z" fill="#CCCCCC"/>
<path d="M171.628 26.0918H168.479V29.4315H171.628V26.0918Z" fill="#CCCCCC"/>
<path d="M179.007 29.4315H182.697C183.015 28.6681 183.206 27.7776 183.206 26.7597C183.206 26.5371 183.174 26.3144 183.142 26.0918H179.993C180.025 26.2508 180.025 26.4099 180.025 26.5689C180.057 27.8412 179.643 28.7636 179.007 29.4315Z" fill="#CCCCCC"/>
<path d="M199.809 16.4544L201.781 13.1147H198.155L196.215 16.4544H199.809Z" fill="#CCCCCC"/>
<path d="M192.684 16.4544L190.744 13.1147H187.15L189.09 16.4544H192.684Z" fill="#CCCCCC"/>
<path d="M197.264 20.7801L199.236 17.4404H195.61L194.465 19.4761L193.288 17.4404H189.662L191.634 20.7801H197.264Z" fill="#CCCCCC"/>
<path d="M192.875 25.1056H196.024V22.9109L196.692 21.7659H192.207L192.875 22.9109V25.1056Z" fill="#CCCCCC"/>
<path d="M196.024 30.4175H192.875V33.7572H196.024V30.4175Z" fill="#CCCCCC"/>
<path d="M196.024 26.0918H192.875V29.4315H196.024V26.0918Z" fill="#CCCCCC"/>
<path d="M216.571 13.1147H213.422V16.4544H216.571V13.1147Z" fill="#CCCCCC"/>
<path d="M216.571 17.4404H213.422V20.7801H216.571V17.4404Z" fill="#CCCCCC"/>
<path d="M216.571 21.7659H213.422V25.1056H216.571V21.7659Z" fill="#CCCCCC"/>
<path d="M216.571 26.0918H213.422V29.4315H216.571V26.0918Z" fill="#CCCCCC"/>
<path d="M230.439 13.1147H227.29V16.4544H230.439V13.1147Z" fill="#CCCCCC"/>
<path d="M230.439 21.7659H227.29V25.1056H230.439V21.7659Z" fill="#CCCCCC"/>
<path d="M230.471 30.9264V30.4175H227.29V33.7572H240.935V30.9264H230.471Z" fill="#CCCCCC"/>
<path d="M230.439 26.0918H227.29V29.4315H230.439V26.0918Z" fill="#CCCCCC"/>
<path d="M240.617 20.7801V18.6173H230.471V17.4404H227.29V20.7801H236.419H240.617Z" fill="#CCCCCC"/>
</g>
<defs>
<clipPath id="clip0">
<rect width="241" height="50" fill="white" transform="translate(0 0.741943)"/>
</clipPath>
</defs>
</svg>
