<svg width="190" height="51" viewBox="0 0 190 51" fill="none" xmlns="http://www.w3.org/2000/svg">
<g clip-path="url(#clip0)">
<path d="M20.9071 0.741943H0V50.7419L20.9071 0.741943Z" fill="#CCCCCC"/>
<path d="M35.6169 0.741943H56.4968V50.7419L35.6169 0.741943Z" fill="#CCCCCC"/>
<path d="M28.262 19.1702L41.569 50.7419H32.8384L28.8613 40.6902H19.1228L28.262 19.1702Z" fill="#CCCCCC"/>
<path d="M90.6051 32.5387L93.0704 39.6076C93.1521 39.7847 93.2747 39.8664 93.4926 39.8664H98.2324C98.4912 39.8664 98.5321 39.7438 98.4912 39.4851L88.6983 12.2854C88.6574 12.0675 88.6165 12.0266 88.3986 12.0266H82.5147C82.3512 12.0266 82.2559 12.1492 82.2559 12.3263C82.1741 13.7564 82.0516 14.1922 81.8745 14.6145L73.1439 39.4442C73.103 39.7439 73.1984 39.8664 73.4436 39.8664H77.6795C77.9383 39.8664 78.0608 39.7847 78.1562 39.5259L80.4852 32.5387H90.6051ZM81.8337 27.9215C83.114 24.0533 84.8029 19.0955 85.4839 16.2625H85.5247C86.3692 19.2317 88.3578 25.1157 89.2567 27.9215H81.8337Z" fill="#CCCCCC"/>
<path d="M111.081 40.2886C113.628 40.2886 116.338 39.8255 119.09 38.6406C119.308 38.5588 119.348 38.4635 119.348 38.2592C119.267 37.4965 119.171 36.3932 119.171 35.5488V9.94268C119.171 9.77923 119.171 9.69751 118.967 9.69751H114.35C114.173 9.69751 114.091 9.77923 114.091 9.99716V18.6733C113.369 18.5915 112.865 18.5507 112.266 18.5507C104.816 18.5507 100.239 23.4676 100.239 29.6103C100.239 36.7337 104.938 40.2886 111.081 40.2886ZM114.091 35.5488C113.328 35.7939 112.484 35.8893 111.626 35.8893C108.248 35.8893 105.483 33.9824 105.483 29.3516C105.483 25.2519 108.33 22.8274 112.103 22.8274C112.865 22.8274 113.533 22.9092 114.091 23.1271V35.5488Z" fill="#CCCCCC"/>
<path d="M134.079 18.5508C127.718 18.5508 123.782 23.4268 123.782 29.447C123.782 34.827 126.914 40.2887 133.983 40.2887C139.963 40.2887 144.158 35.8894 144.158 29.3108C144.158 23.5086 140.603 18.5508 134.079 18.5508ZM133.82 22.8275C137.416 22.8275 138.941 25.9193 138.941 29.447C138.941 33.8055 136.694 35.9711 134.079 35.9711C130.851 35.9711 128.944 33.2607 128.944 29.3517C128.944 25.3337 130.973 22.8275 133.82 22.8275Z" fill="#CCCCCC"/>
<path d="M148.931 9.69751C148.754 9.69751 148.631 9.77923 148.631 9.99716V38.9811C148.631 39.1037 148.754 39.3216 148.931 39.3624C150.96 39.989 153.085 40.2886 155.278 40.2886C161.557 40.2886 167.659 36.3932 167.659 28.548C167.659 22.8683 163.763 18.5507 157.661 18.5507C156.258 18.5507 154.951 18.7686 153.807 19.15L153.752 10.038C153.752 9.73837 153.671 9.69751 153.371 9.69751H148.931ZM162.442 29.0655C162.442 33.7645 159.228 35.971 155.754 35.971C155.033 35.971 154.392 35.9301 153.807 35.7531V23.3859C154.474 23.1271 155.278 22.9092 156.762 22.9092C160.113 22.9092 162.442 25.0339 162.442 29.0655Z" fill="#CCCCCC"/>
<path d="M184.891 30.5911C186.961 30.5911 188.663 30.5502 189.249 30.414C189.467 30.3732 189.549 30.2914 189.59 30.1144C189.712 29.6513 189.767 28.6843 189.767 27.4993C189.767 23.4677 187.342 18.5508 181.077 18.5508C174.675 18.5508 171.121 23.7673 171.121 29.6513C171.121 34.8679 173.872 40.2887 181.581 40.2887C184.468 40.2887 186.334 39.8256 187.942 39.0629C188.105 38.9812 188.187 38.845 188.187 38.5998V35.0722C188.187 34.8679 188.064 34.827 187.942 34.9087C186.334 35.5897 184.591 35.9302 182.684 35.9302C178.367 35.9302 176.405 33.5467 176.283 30.5911H184.891ZM176.283 26.9409C176.623 24.8706 177.931 22.6232 180.859 22.6232C184.087 22.6232 184.932 25.3337 184.932 26.5595C184.932 26.6004 184.932 26.7774 184.932 26.9C184.754 26.9409 184.21 26.9409 182.602 26.9409H176.283Z" fill="#CCCCCC"/>
</g>
<defs>
<clipPath id="clip0">
<rect width="190" height="50" fill="white" transform="translate(0 0.741943)"/>
</clipPath>
</defs>
</svg>
