<svg width="206" height="72" viewBox="0 0 206 72" fill="none" xmlns="http://www.w3.org/2000/svg">
<path d="M32.0708 12H12V60L32.0708 12Z" fill="#FA0C00"/>
<path d="M46.1921 12H66.2368V60L46.1921 12Z" fill="#FA0C00"/>
<path d="M39.1314 29.6909L51.9061 59.9998H43.5248L39.7067 50.3501H30.3578L39.1314 29.6909Z" fill="#FA0C00"/>
<path d="M98.9819 42.5246L101.349 49.3108C101.427 49.4808 101.545 49.5592 101.754 49.5592H106.304C106.553 49.5592 106.592 49.4416 106.553 49.1931L97.1513 23.0814C97.1121 22.8722 97.0728 22.833 96.8636 22.833H91.215C91.0581 22.833 90.9666 22.9507 90.9666 23.1207C90.8881 24.4936 90.7705 24.912 90.6005 25.3173L82.2191 49.1539C82.1799 49.4416 82.2714 49.5592 82.5068 49.5592H86.5732C86.8217 49.5592 86.9394 49.4808 87.0309 49.2323L89.2668 42.5246H98.9819ZM90.5613 38.0921C91.7904 34.3786 93.4117 29.6192 94.0655 26.8995H94.1047C94.9154 29.7499 96.8244 35.3985 97.6874 38.0921H90.5613Z" fill="#FA0C00"/>
<path d="M118.639 49.9646C121.084 49.9646 123.686 49.5201 126.327 48.3825C126.536 48.3041 126.575 48.2125 126.575 48.0164C126.497 47.2842 126.405 46.2251 126.405 45.4144V20.8325C126.405 20.6756 126.405 20.5972 126.209 20.5972H121.777C121.607 20.5972 121.528 20.6756 121.528 20.8848V29.2139C120.835 29.1354 120.352 29.0962 119.776 29.0962C112.624 29.0962 108.231 33.8165 108.231 39.7135C108.231 46.5519 112.742 49.9646 118.639 49.9646V49.9646ZM121.528 45.4144C120.796 45.6497 119.985 45.7413 119.162 45.7413C115.919 45.7413 113.265 43.9107 113.265 39.4651C113.265 35.5293 115.997 33.2019 119.619 33.2019C120.352 33.2019 120.992 33.2804 121.528 33.4896V45.4144Z" fill="#FA0C00"/>
<path d="M140.716 29.0962C134.61 29.0962 130.831 33.7772 130.831 39.5566C130.831 44.7214 133.839 49.9646 140.625 49.9646C146.365 49.9646 150.392 45.7412 150.392 39.4258C150.392 33.8557 146.98 29.0962 140.716 29.0962ZM140.468 33.2019C143.92 33.2019 145.384 36.17 145.384 39.5566C145.384 43.7407 143.227 45.8197 140.716 45.8197C137.618 45.8197 135.787 43.2177 135.787 39.465C135.787 35.6078 137.735 33.2019 140.468 33.2019V33.2019Z" fill="#FA0C00"/>
<path d="M154.975 20.5972C154.805 20.5972 154.687 20.6756 154.687 20.8848V48.7094C154.687 48.8271 154.805 49.0363 154.975 49.0755C156.923 49.677 158.963 49.9646 161.068 49.9646C167.096 49.9646 172.954 46.2251 172.954 38.6936C172.954 33.2411 169.214 29.0962 163.356 29.0962C162.01 29.0962 160.754 29.3054 159.656 29.6715L159.604 20.9241C159.604 20.6364 159.525 20.5972 159.238 20.5972H154.975ZM167.946 39.1905C167.946 43.7015 164.86 45.8197 161.526 45.8197C160.833 45.8197 160.218 45.7805 159.656 45.6105V33.738C160.297 33.4896 161.068 33.2804 162.493 33.2804C165.71 33.2804 167.946 35.3201 167.946 39.1905Z" fill="#FA0C00"/>
<path d="M189.496 40.6549C191.483 40.6549 193.118 40.6157 193.68 40.4849C193.889 40.4457 193.968 40.3672 194.007 40.1973C194.125 39.7527 194.177 38.8243 194.177 37.6868C194.177 33.8164 191.85 29.0962 185.835 29.0962C179.689 29.0962 176.277 34.1041 176.277 39.7527C176.277 44.7606 178.918 49.9646 186.319 49.9646C189.091 49.9646 190.882 49.5201 192.425 48.7878C192.582 48.7094 192.66 48.5786 192.66 48.3433V44.9567C192.66 44.7606 192.543 44.7214 192.425 44.7998C190.882 45.4536 189.208 45.7805 187.378 45.7805C183.233 45.7805 181.35 43.4923 181.232 40.6549H189.496ZM181.232 37.1507C181.559 35.1632 182.814 33.0057 185.626 33.0057C188.725 33.0057 189.535 35.6078 189.535 36.7846C189.535 36.8238 189.535 36.9938 189.535 37.1114C189.365 37.1507 188.842 37.1507 187.299 37.1507H181.232Z" fill="#FA0C00"/>
</svg>
