<svg width="195" height="51" viewBox="0 0 195 51" fill="none" xmlns="http://www.w3.org/2000/svg">
<path d="M10.878 1.96729L21.2867 23.5892H17.5017L15.6565 19.3783H5.72088L3.87569 23.5892H0.185303L10.5468 1.96729H10.878ZM9.41127 11.1459L7.04564 16.3976H14.3318L12.0135 11.1932L10.736 8.21255H10.6887L9.41127 11.1459Z" fill="#CCCCCC"/>
<path d="M25.7815 1.96729H30.5601C33.2569 1.96729 35.1967 2.53504 36.4742 3.67054C37.7043 4.80604 38.3193 6.36736 38.3193 8.4018C38.3193 10.7201 37.657 12.4707 36.2849 13.7008C34.9128 14.9309 32.9257 15.546 30.2762 15.546H29.1407V23.5418H25.8288V1.96729H25.7815ZM30.3235 12.6599C32.0268 12.6599 33.2569 12.2814 33.9193 11.5244C34.5816 10.7674 34.9601 9.82118 34.9601 8.78031C34.9601 7.6448 34.629 6.69855 33.9666 5.94155C33.3042 5.23186 32.1687 4.85336 30.6074 4.85336H29.0934V12.6599H30.3235Z" fill="#CCCCCC"/>
<path d="M63.0166 6.84057C62.023 5.18463 60.6983 3.85987 59.0423 2.96093C57.3864 2.06199 55.5885 1.58887 53.6014 1.58887C51.6616 1.58887 49.8164 2.06199 48.1604 2.96093C46.5045 3.85987 45.1797 5.13732 44.1862 6.84057C43.1926 8.49651 42.7195 10.4836 42.7195 12.7547C42.7195 14.9783 43.1926 16.9655 44.1862 18.6214C45.1797 20.3247 46.5045 21.6021 48.1604 22.5011C49.8164 23.4 51.6143 23.8731 53.6014 23.8731C55.5412 23.8731 57.3864 23.4 59.0423 22.5011C60.6983 21.6021 62.023 20.2774 63.0166 18.6214C64.0102 16.9182 64.4833 14.9783 64.4833 12.7547C64.4833 10.4836 64.0102 8.54383 63.0166 6.84057ZM53.6487 20.9397C48.6336 20.9397 44.612 16.8709 44.612 11.903C44.612 6.9352 48.6809 2.86631 53.6487 2.86631C58.6165 2.86631 62.6854 6.9352 62.6854 11.903C62.6854 16.8709 58.6638 20.9397 53.6487 20.9397Z" fill="#CCCCCC"/>
<path d="M74.3716 22.3119C72.7156 21.3183 71.4855 19.9935 70.6339 18.2903C69.7823 16.6343 69.3564 14.7891 69.3564 12.7547C69.3564 10.6256 69.8296 8.73313 70.7285 7.02987C71.6748 5.32662 72.9522 4.04918 74.6555 3.05561C76.3587 2.10936 78.2512 1.63623 80.3803 1.63623C81.3265 1.63623 82.2255 1.73086 83.0771 1.96742C83.9287 2.15667 84.5911 2.39323 85.1589 2.67711C85.7266 2.96098 86.0578 3.15024 86.247 3.33949L84.8277 6.27287C83.6449 5.23199 82.0835 4.66424 80.1437 4.66424C78.7716 4.66424 77.5888 4.99543 76.4533 5.6578C75.3651 6.32018 74.5135 7.26643 73.8511 8.49656C73.2361 9.72669 72.9049 11.1461 72.9049 12.802C72.9049 14.2687 73.1888 15.6408 73.7565 16.8709C74.3243 18.101 75.1286 19.0473 76.2168 19.757C77.305 20.4667 78.5824 20.7978 80.0491 20.7978C81.7523 20.7978 83.4556 20.3247 85.0642 19.3312L86.0105 22.1226C85.5847 22.5011 84.7804 22.8796 83.6449 23.2581C82.5094 23.6366 81.3265 23.7785 80.1437 23.7785C77.9673 23.7785 76.0275 23.3054 74.3716 22.3119Z" fill="#CCCCCC"/>
<path d="M100.441 1.96729L110.85 23.5892H107.065L105.219 19.3783H95.331L93.4858 23.5892H89.7954L100.157 1.96729H100.441ZM98.9741 11.1459L96.6084 16.3976H103.895L101.576 11.1932L100.299 8.21255H100.252L98.9741 11.1459Z" fill="#CCCCCC"/>
<path d="M115.344 1.96729H118.656V20.6085H124.854V23.5418H115.344V1.96729Z" fill="#CCCCCC"/>
<path d="M132.85 13.5116L125.375 1.96729H129.301L134.506 10.4836L139.71 1.96729H143.637L136.162 13.5589V23.5892H132.85V13.5116Z" fill="#CCCCCC"/>
<path d="M148.084 1.96729H152.863C155.56 1.96729 157.5 2.53504 158.777 3.67054C160.007 4.80604 160.622 6.36736 160.622 8.4018C160.622 10.7201 159.96 12.4707 158.588 13.7008C157.216 14.9309 155.229 15.546 152.579 15.546H151.396V23.5418H148.084V1.96729ZM152.626 12.6599C154.33 12.6599 155.56 12.2814 156.222 11.5244C156.885 10.7674 157.263 9.82118 157.263 8.78031C157.263 7.6448 156.932 6.69855 156.27 5.94155C155.607 5.23186 154.472 4.85336 152.91 4.85336H151.396V12.6599H152.626Z" fill="#CCCCCC"/>
<path d="M167.483 23.2582C166.347 22.8323 165.496 22.4065 164.975 21.8861L166.537 19.0946C166.962 19.4731 167.578 19.8516 168.476 20.2775C169.328 20.656 170.18 20.8925 170.984 20.8925C172.025 20.8925 172.877 20.656 173.539 20.1355C174.201 19.6624 174.532 18.9527 174.532 18.1011C174.532 17.4387 174.343 16.871 174.012 16.3505C173.681 15.8774 173.208 15.4516 172.735 15.1204C172.214 14.7892 171.504 14.4107 170.558 13.9376C169.423 13.3698 168.666 12.9913 168.287 12.7074C166.395 11.43 165.448 9.67943 165.448 7.40842C165.448 5.56323 166.064 4.14385 167.294 3.15029C168.524 2.15672 170.085 1.68359 171.978 1.68359C174.012 1.68359 175.715 2.25135 177.135 3.43416L175.573 6.13098C175.195 5.75248 174.674 5.42129 174.012 5.13742C173.35 4.85354 172.593 4.7116 171.836 4.7116C170.842 4.7116 170.085 4.94817 169.517 5.37398C168.95 5.79979 168.666 6.46217 168.666 7.3138C168.666 7.92886 168.855 8.4493 169.186 8.92243C169.517 9.39555 169.99 9.82137 170.511 10.1526C171.031 10.4837 171.788 10.9569 172.687 11.43C173.586 11.9031 174.249 12.3289 174.722 12.6128C175.195 12.8967 175.621 13.2279 176.047 13.6064C176.614 14.1268 177.087 14.7419 177.419 15.4043C177.75 16.0666 177.939 16.8709 177.939 17.7226C177.939 19.0473 177.655 20.1355 177.04 21.0818C176.425 21.9807 175.621 22.6904 174.58 23.1635C173.539 23.6367 172.356 23.8732 171.031 23.8732C169.801 23.8732 168.618 23.684 167.483 23.2582Z" fill="#CCCCCC"/>
<path d="M183.475 1.96729H192.937V4.85336H186.739V10.8147H191.754V13.7481H186.739V20.6558H193.931V23.5418H183.522V1.96729H183.475Z" fill="#CCCCCC"/>
<path d="M30.3233 49.564C29.8502 49.3747 29.4717 49.1855 29.2825 48.9962L29.9448 47.8134C30.1341 47.9553 30.3707 48.1446 30.7492 48.2865C31.1277 48.4758 31.4589 48.5231 31.79 48.5231C32.2159 48.5231 32.5944 48.4285 32.8782 48.1919C33.1621 48.0026 33.3041 47.7188 33.3041 47.3403C33.3041 47.0564 33.2094 46.8198 33.0675 46.6306C32.9256 46.4413 32.7363 46.2521 32.4997 46.1101C32.2632 45.9682 31.9793 45.8263 31.6008 45.5897C31.1277 45.3531 30.7965 45.1639 30.6545 45.0693C29.8502 44.5488 29.4717 43.7918 29.4717 42.8456C29.4717 42.0412 29.7556 41.4735 30.276 41.0477C30.7965 40.6219 31.4589 40.4326 32.2632 40.4326C33.1148 40.4326 33.8245 40.6692 34.4396 41.1423L33.7772 42.2778C33.6352 42.0886 33.3987 41.9466 33.1148 41.852C32.8309 41.7101 32.547 41.6627 32.2159 41.6627C31.79 41.6627 31.4589 41.7574 31.2223 41.9466C30.9857 42.1359 30.8911 42.4197 30.8911 42.7509C30.8911 42.9875 30.9857 43.2241 31.1277 43.4606C31.2696 43.6499 31.4589 43.8391 31.6954 43.9811C31.932 44.123 32.2159 44.3123 32.6417 44.5488C33.0202 44.7381 33.3041 44.9273 33.4933 45.0219C33.6826 45.1166 33.8718 45.3058 34.0611 45.4478C34.2976 45.6843 34.4869 45.9209 34.6288 46.2048C34.7707 46.4886 34.8654 46.8198 34.8654 47.1983C34.8654 47.7661 34.7234 48.2392 34.4869 48.6177C34.2503 48.9962 33.8718 49.2801 33.446 49.5167C33.0202 49.7059 32.4997 49.8005 31.932 49.8005C31.3169 49.8478 30.7965 49.7532 30.3233 49.564Z" fill="#CCCCCC"/>
<path d="M52.2763 41.8046H49.958V40.5745H56.014V41.8046H53.6484V49.7058H52.2763V41.8046Z" fill="#CCCCCC"/>
<path d="M72.3371 48.8069C71.8166 48.0972 71.5801 47.1036 71.5801 45.8262V40.5745H72.9521V45.8262C72.9521 46.7724 73.0941 47.4821 73.378 47.9079C73.6618 48.3337 74.135 48.523 74.7973 48.523C75.4597 48.523 75.9328 48.3337 76.2167 47.9079C76.5006 47.4821 76.6425 46.8197 76.6425 45.8262V40.5745H78.0619V45.8262C78.0619 47.1036 77.778 48.1445 77.2576 48.8069C76.7372 49.5166 75.8855 49.8477 74.7973 49.8477C73.6618 49.8477 72.8575 49.4692 72.3371 48.8069Z" fill="#CCCCCC"/>
<path d="M94.3845 40.5745H96.5609C98.4061 40.5745 99.6835 41.0003 100.441 41.8992C101.198 42.7982 101.529 43.7917 101.529 45.0219C101.529 45.8735 101.387 46.6305 101.056 47.3402C100.724 48.0499 100.204 48.6176 99.4943 49.0907C98.7846 49.5166 97.8384 49.7531 96.6555 49.7531H94.3845V40.5745ZM96.7975 48.4757C97.933 48.4757 98.7846 48.1445 99.305 47.4821C99.8255 46.8197 100.062 46.0154 100.062 45.0219C100.062 44.0756 99.7782 43.2713 99.2577 42.6562C98.7373 42.0412 97.8857 41.7573 96.7502 41.7573H95.7093V48.4284H96.7975V48.4757Z" fill="#CCCCCC"/>
<path d="M117.473 40.5745H118.845V49.7058H117.473V40.5745Z" fill="#CCCCCC"/>
<path d="M137.203 49.2327C136.493 48.8542 135.925 48.2864 135.547 47.5767C135.121 46.867 134.932 46.0154 134.932 45.0692C134.932 44.1229 135.121 43.2713 135.547 42.5616C135.973 41.8519 136.54 41.3315 137.203 40.9056C137.865 40.4798 138.669 40.3379 139.474 40.3379C140.278 40.3379 141.082 40.5271 141.745 40.9056C142.454 41.2841 143.022 41.8519 143.401 42.5616C143.779 43.2713 144.016 44.1229 144.016 45.0692C144.016 46.0154 143.826 46.8197 143.401 47.5767C142.975 48.2864 142.407 48.8542 141.745 49.2327C141.035 49.6112 140.278 49.8004 139.474 49.8004C138.669 49.8004 137.912 49.6112 137.203 49.2327ZM141.082 48.1445C141.555 47.8606 141.934 47.4821 142.218 46.9617C142.502 46.4412 142.644 45.8262 142.644 45.1165C142.644 44.4068 142.502 43.7444 142.218 43.224C141.934 42.7035 141.555 42.325 141.082 42.0411C140.609 41.7573 140.089 41.6626 139.521 41.6626C138.953 41.6626 138.433 41.8046 137.96 42.0411C137.487 42.2777 137.108 42.7035 136.824 43.224C136.54 43.7444 136.398 44.3595 136.398 45.1165C136.398 45.8262 136.54 46.4412 136.824 46.9617C137.108 47.4821 137.487 47.8606 137.96 48.1445C138.433 48.4284 138.953 48.5703 139.521 48.5703C140.089 48.5703 140.609 48.4284 141.082 48.1445Z" fill="#CCCCCC"/>
<path d="M160.433 49.564C159.96 49.3747 159.582 49.1855 159.392 48.9962L160.055 47.8134C160.244 47.9553 160.481 48.1446 160.859 48.2865C161.238 48.4758 161.569 48.5231 161.9 48.5231C162.326 48.5231 162.704 48.4285 162.988 48.1919C163.272 47.9553 163.414 47.7188 163.414 47.3403C163.414 47.0564 163.319 46.8198 163.177 46.6306C163.035 46.4413 162.846 46.2521 162.61 46.1101C162.373 45.9682 162.089 45.8263 161.711 45.5897C161.238 45.3531 160.906 45.1639 160.764 45.0693C159.96 44.5488 159.582 43.7918 159.582 42.8456C159.582 42.0412 159.865 41.4735 160.386 41.0477C160.906 40.6219 161.569 40.4326 162.373 40.4326C163.225 40.4326 163.934 40.6692 164.549 41.1423L163.887 42.2778C163.745 42.0886 163.509 41.9466 163.225 41.852C162.941 41.7101 162.657 41.6627 162.326 41.6627C161.9 41.6627 161.569 41.7574 161.332 41.9466C161.096 42.1359 161.001 42.4197 161.001 42.7509C161.001 42.9875 161.096 43.2241 161.238 43.4606C161.379 43.6499 161.569 43.8391 161.805 43.9811C162.042 44.123 162.326 44.3123 162.752 44.5488C163.13 44.7381 163.414 44.9273 163.603 45.0219C163.792 45.1639 163.982 45.3058 164.171 45.4478C164.407 45.6843 164.597 45.9209 164.739 46.2048C164.881 46.4886 164.975 46.8198 164.975 47.1983C164.975 47.7661 164.833 48.2392 164.597 48.6177C164.36 48.9962 163.982 49.2801 163.556 49.5167C163.13 49.7059 162.61 49.8005 162.042 49.8005C161.427 49.8478 160.954 49.7532 160.433 49.564Z" fill="#CCCCCC"/>
</svg>
