<?xml version="1.0" encoding="UTF-8"?> <!-- Generator: Adobe Illustrator 25.2.2, SVG Export Plug-In . SVG Version: 6.00 Build 0) --> <svg xmlns="http://www.w3.org/2000/svg" xmlns:xlink="http://www.w3.org/1999/xlink" version="1.1" id="Layer_1" x="0px" y="0px" viewBox="0 0 400 245" style="enable-background:new 0 0 400 245;" xml:space="preserve"> <style type="text/css"> .st0{fill:#010101;} .st1{enable-background:new ;} .st2{fill:#DB1F26;} .st3{fill:#7A7A7A;} .st4{fill:#EE3275;} .st5{fill:#EE2837;} .st6{fill:#069BCF;} .st7{fill:none;} .st8{clip-path:url(#SVGID_1_);} .st9{fill-rule:evenodd;clip-rule:evenodd;fill:#F4C117;} .st10{clip-path:url(#SVGID_2_);} .st11{fill-rule:evenodd;clip-rule:evenodd;fill:url(#SVGID_3_);} .st12{fill-rule:evenodd;clip-rule:evenodd;fill:url(#SVGID_4_);} .st13{fill-rule:evenodd;clip-rule:evenodd;fill:url(#SVGID_5_);} .st14{fill-rule:evenodd;clip-rule:evenodd;fill:url(#SVGID_6_);} .st15{fill-rule:evenodd;clip-rule:evenodd;fill:url(#SVGID_7_);} .st16{fill-rule:evenodd;clip-rule:evenodd;fill:url(#SVGID_8_);} .st17{clip-path:url(#SVGID_9_);} .st18{fill-rule:evenodd;clip-rule:evenodd;fill:url(#SVGID_10_);} .st19{fill-rule:evenodd;clip-rule:evenodd;fill:url(#SVGID_11_);} .st20{fill-rule:evenodd;clip-rule:evenodd;fill:url(#SVGID_12_);} .st21{fill-rule:evenodd;clip-rule:evenodd;fill:url(#SVGID_13_);} .st22{fill-rule:evenodd;clip-rule:evenodd;fill:url(#SVGID_14_);} .st23{fill-rule:evenodd;clip-rule:evenodd;fill:url(#SVGID_15_);} .st24{fill:#FFFFFF;} .st25{clip-path:url(#SVGID_16_);} .st26{clip-path:url(#SVGID_17_);} .st27{clip-path:url(#SVGID_18_);} .st28{fill-rule:evenodd;clip-rule:evenodd;fill:url(#SVGID_19_);} .st29{fill-rule:evenodd;clip-rule:evenodd;fill:url(#SVGID_20_);} .st30{fill-rule:evenodd;clip-rule:evenodd;fill:url(#SVGID_21_);} .st31{fill-rule:evenodd;clip-rule:evenodd;fill:url(#SVGID_22_);} .st32{fill-rule:evenodd;clip-rule:evenodd;fill:url(#SVGID_23_);} .st33{fill-rule:evenodd;clip-rule:evenodd;fill:url(#SVGID_24_);} .st34{clip-path:url(#SVGID_25_);} .st35{clip-path:url(#SVGID_26_);} .st36{clip-path:url(#SVGID_27_);} .st37{fill-rule:evenodd;clip-rule:evenodd;fill:url(#SVGID_28_);} .st38{fill-rule:evenodd;clip-rule:evenodd;fill:url(#SVGID_29_);} .st39{fill-rule:evenodd;clip-rule:evenodd;fill:url(#SVGID_30_);} .st40{fill-rule:evenodd;clip-rule:evenodd;fill:url(#SVGID_31_);} .st41{fill-rule:evenodd;clip-rule:evenodd;fill:url(#SVGID_32_);} .st42{fill-rule:evenodd;clip-rule:evenodd;fill:url(#SVGID_33_);} .st43{clip-path:url(#SVGID_34_);} .st44{clip-path:url(#SVGID_35_);} .st45{clip-path:url(#SVGID_36_);} .st46{fill-rule:evenodd;clip-rule:evenodd;fill:url(#SVGID_37_);} .st47{fill-rule:evenodd;clip-rule:evenodd;fill:url(#SVGID_38_);} .st48{fill-rule:evenodd;clip-rule:evenodd;fill:url(#SVGID_39_);} .st49{fill-rule:evenodd;clip-rule:evenodd;fill:url(#SVGID_40_);} .st50{fill-rule:evenodd;clip-rule:evenodd;fill:url(#SVGID_41_);} .st51{fill-rule:evenodd;clip-rule:evenodd;fill:url(#SVGID_42_);} .st52{clip-path:url(#SVGID_43_);} .st53{fill-rule:evenodd;clip-rule:evenodd;fill:#FFFFFF;} .st54{fill-rule:evenodd;clip-rule:evenodd;fill:url(#SVGID_44_);} .st55{fill-rule:evenodd;clip-rule:evenodd;fill:url(#SVGID_45_);} .st56{fill-rule:evenodd;clip-rule:evenodd;fill:url(#SVGID_46_);} .st57{fill-rule:evenodd;clip-rule:evenodd;fill:url(#SVGID_47_);} .st58{fill-rule:evenodd;clip-rule:evenodd;fill:url(#SVGID_48_);} .st59{fill-rule:evenodd;clip-rule:evenodd;fill:url(#SVGID_49_);} .st60{fill-rule:evenodd;clip-rule:evenodd;fill:#40464E;} .st61{fill-rule:evenodd;clip-rule:evenodd;fill:#01AFAA;} .st62{fill:#28203B;} .st63{fill-rule:evenodd;clip-rule:evenodd;fill:#010101;} .st64{fill:#F26B3F;} .st65{display:none;fill:#010101;} .st66{fill:#D72027;} .st67{fill:#ED2224;} .st68{fill:#231815;} .st69{display:none;fill-rule:evenodd;clip-rule:evenodd;fill:#323137;} .st70{fill:#3D3D3C;} .st71{fill:#F09877;} </style> <g> <path class="st0" d="M23.4,73.8l21.3,44.3h-7.8l-3.8-8.7H12.9l-3.8,8.7H1.5l21.2-44.3H23.4z M20.4,92.6l-4.8,10.7h14.9l-4.8-10.7 l-2.6-6.1H23L20.4,92.6z"></path> <path class="st0" d="M53.9,73.8h9.8c5.5,0,9.5,1.2,12.1,3.5c2.6,2.3,3.8,5.6,3.8,9.7c0,4.7-1.4,8.4-4.2,10.9 c-2.8,2.5-6.9,3.8-12.3,3.8h-2.3v16.4h-6.8L53.9,73.8z M63.2,95.7c3.5,0,6-0.8,7.4-2.3c2.8-3.3,2.8-8.1,0.1-11.4 c-1.4-1.5-3.7-2.2-6.9-2.2h-3.1v16H63.2z"></path> <path class="st0" d="M130.2,83.8c-1.9-3.3-4.7-6.1-8.1-7.9c-6.9-3.7-15.3-3.7-22.2,0c-3.4,1.8-6.2,4.6-8.1,7.9 c-4,7.5-4,16.6,0,24.1c1.9,3.4,4.7,6.1,8.1,8c6.9,3.7,15.3,3.7,22.2,0c3.4-1.9,6.2-4.6,8.1-8C134.2,100.4,134.2,91.3,130.2,83.8z M111,112.7c-10.2,0-18.5-8.3-18.5-18.5s8.3-18.5,18.5-18.5s18.5,8.3,18.5,18.5v0C129.6,104.4,121.3,112.7,111,112.7z"></path> <path class="st0" d="M153.5,115.4c-3.3-2-5.9-4.8-7.7-8.2c-1.8-3.5-2.7-7.4-2.7-11.4c-0.1-4.1,0.9-8.1,2.9-11.7 c1.9-3.4,4.7-6.2,8-8.1c3.6-2,7.6-3,11.7-2.9c1.9,0,3.7,0.2,5.5,0.6c1.5,0.3,2.9,0.8,4.2,1.4c0.8,0.3,1.6,0.8,2.2,1.4l-2.9,6 c-2.7-2.2-6.1-3.4-9.6-3.2c-5.5-0.1-10.5,3-12.9,7.9c-1.3,2.7-2,5.8-1.9,8.8c0,2.9,0.5,5.7,1.7,8.3c1.1,2.4,2.8,4.5,5,5.9 c2.4,1.5,5.1,2.2,7.9,2.2c3.6,0,7.2-1.1,10.2-3l2,5.7c-1.4,1.1-3.1,1.9-4.8,2.3c-2.3,0.7-4.7,1.1-7.1,1.1 C161.2,118.6,157.1,117.6,153.5,115.4z"></path> <path class="st0" d="M206.9,73.8l21.3,44.3h-7.8l-3.8-8.7h-20.3l-3.8,8.7H185l21.2-44.3H206.9z M203.9,92.6l-4.8,10.7H214 l-4.8-10.7l-2.5-6.1h-0.1L203.9,92.6z"></path> <path class="st0" d="M237.5,73.8h6.8v38.2h12.7v6h-19.5V73.8z"></path> <path class="st0" d="M273.3,97.4L258,73.8h8.1l10.7,17.5l10.7-17.5h8l-15.3,23.7v20.5h-6.8L273.3,97.4z"></path> <path class="st0" d="M304.6,73.8h9.8c5.5,0,9.5,1.2,12.1,3.5c2.6,2.3,3.8,5.6,3.8,9.7c0,4.7-1.4,8.4-4.2,10.9 c-2.8,2.5-6.9,3.8-12.3,3.8h-2.4v16.4h-6.8L304.6,73.8z M313.9,95.7c3.5,0,6-0.8,7.4-2.3c2.8-3.3,2.8-8.1,0.1-11.4 c-1.4-1.5-3.6-2.2-6.9-2.2h-3.1v16H313.9z"></path> <path class="st0" d="M344.3,117.4c-1.9-0.6-3.6-1.5-5.1-2.8l3.2-5.7c1.2,1,2.5,1.8,3.9,2.4c1.6,0.8,3.4,1.2,5.1,1.2 c1.9,0.1,3.7-0.4,5.2-1.5c1.3-1,2.1-2.5,2-4.2c0-1.3-0.4-2.5-1.1-3.5c-0.7-1-1.6-1.8-2.6-2.5c-1-0.7-2.5-1.5-4.5-2.4 c-1.6-0.8-3.2-1.6-4.7-2.5c-3.7-2.3-5.9-6.5-5.8-10.8c0-3.8,1.3-6.7,3.8-8.7c2.7-2.1,6.1-3.2,9.6-3c3.8-0.1,7.5,1.1,10.5,3.5 l-3.2,5.5c-0.9-0.9-2-1.6-3.2-2.1c-1.4-0.6-2.9-0.9-4.4-0.9c-1.7-0.1-3.3,0.4-4.7,1.3c-1.2,1-1.8,2.5-1.7,4c0,1.2,0.4,2.4,1.1,3.3 c0.8,1,1.7,1.9,2.7,2.6c1.1,0.7,2.6,1.6,4.5,2.6c1.9,1,3.3,1.8,4.2,2.4c1,0.6,1.9,1.3,2.7,2.1c1.2,1.1,2.1,2.3,2.8,3.7 c0.7,1.5,1.1,3.1,1.1,4.8c0.1,2.4-0.6,4.8-1.8,6.9c-1.2,1.9-3,3.4-5.1,4.3c-2.3,1-4.8,1.5-7.3,1.4 C349.1,118.7,346.6,118.3,344.3,117.4z"></path> <path class="st0" d="M377.1,73.8h19.4v5.9h-12.7V92H394v6h-10.2v14.1h14.7v6h-21.3L377.1,73.8z"></path> <path class="st0" d="M63.2,171.3c-0.8-0.2-1.5-0.7-2.2-1.2l1.3-2.4c0.5,0.4,1.1,0.7,1.7,1c0.7,0.3,1.4,0.5,2.2,0.5 c0.8,0,1.6-0.2,2.2-0.6c0.6-0.4,0.9-1.1,0.9-1.8c0-0.5-0.1-1.1-0.5-1.5c-0.3-0.4-0.7-0.8-1.1-1.1c-0.4-0.3-1.1-0.6-1.9-1 c-0.7-0.3-1.3-0.7-1.9-1.1c-1.6-1-2.5-2.7-2.5-4.6c-0.1-1.4,0.5-2.8,1.6-3.7c1.2-0.9,2.6-1.3,4-1.3c1.6,0,3.2,0.5,4.5,1.5l-1.4,2.3 c-0.4-0.4-0.9-0.7-1.4-0.9c-0.6-0.2-1.2-0.4-1.9-0.4c-0.7,0-1.4,0.2-2,0.6c-0.5,0.4-0.8,1-0.7,1.7c0,0.5,0.2,1,0.5,1.4 c0.3,0.4,0.7,0.8,1.2,1.1c0.5,0.3,1.1,0.7,1.9,1.1c0.8,0.4,1.3,0.8,1.8,1c0.4,0.2,0.8,0.5,1.1,0.9c0.5,0.4,0.9,1,1.2,1.6 c0.3,0.6,0.5,1.3,0.5,2c0,1-0.2,2-0.8,2.9c-0.5,0.8-1.3,1.4-2.1,1.8c-1,0.4-2,0.6-3.1,0.6C65.2,171.9,64.2,171.7,63.2,171.3z"></path> <path class="st0" d="M108.2,155.4h-4.8v-2.5h12.5v2.5H111v16.2h-2.8L108.2,155.4z"></path> <path class="st0" d="M149.3,169.8c-1.2-1.8-1.7-4-1.6-6.1v-10.7h2.9v10.8c-0.1,1.5,0.2,3,0.9,4.3c1.5,1.6,4,1.7,5.6,0.2 c0.1-0.1,0.1-0.1,0.2-0.2c0.7-1.3,1-2.8,0.9-4.3v-10.7h2.9v10.7c0.1,2.2-0.4,4.3-1.7,6.1c-1.2,1.5-3.1,2.3-5,2.1 C152.1,171.9,150.4,171.2,149.3,169.8z"></path> <path class="st0" d="M194.5,152.9h4.6c3.8,0,6.4,0.9,7.9,2.7c1.5,1.8,2.3,4,2.2,6.4c0,1.6-0.3,3.3-1,4.8c-0.7,1.5-1.8,2.7-3.2,3.6 c-1.8,1-3.8,1.5-5.8,1.4h-4.7V152.9z M199.4,169.1c2.3,0,4-0.7,5.1-2c1.1-1.4,1.7-3.2,1.6-5c0.1-1.8-0.5-3.5-1.6-4.8 c-1.1-1.2-2.8-1.9-5.1-1.9h-2.1v13.7L199.4,169.1z"></path> <path class="st0" d="M241.8,152.9h2.9v18.7h-2.9V152.9z"></path> <path class="st0" d="M282.3,170.7c-1.4-0.8-2.6-2-3.4-3.4c-1.7-3.2-1.7-7,0-10.2c0.8-1.4,2-2.6,3.4-3.4c2.9-1.6,6.5-1.6,9.4,0 c1.4,0.8,2.6,1.9,3.4,3.4c1.7,3.2,1.7,7,0,10.2c-0.8,1.4-2,2.6-3.4,3.4C288.7,172.3,285.2,172.3,282.3,170.7z M290.2,168.5 c1-0.6,1.8-1.4,2.3-2.4c1.1-2.4,1.1-5.2,0-7.6c-0.5-1-1.3-1.8-2.3-2.4c-1-0.5-2.1-0.8-3.2-0.8c-1.1,0-2.2,0.3-3.2,0.8 c-1,0.6-1.8,1.4-2.3,2.4c-0.6,1.2-0.9,2.5-0.8,3.8c0,1.3,0.3,2.6,0.9,3.8c0.5,1,1.3,1.8,2.3,2.4c1,0.6,2.1,0.8,3.2,0.8 C288.1,169.3,289.2,169,290.2,168.5L290.2,168.5z"></path> <path class="st0" d="M329.9,171.3c-0.8-0.2-1.5-0.7-2.2-1.2l1.3-2.4c0.5,0.4,1.1,0.7,1.7,1c0.7,0.3,1.4,0.5,2.2,0.5 c0.8,0,1.6-0.2,2.2-0.6c0.6-0.4,0.9-1.1,0.9-1.8c0-0.5-0.1-1.1-0.5-1.5c-0.3-0.4-0.7-0.8-1.1-1.1c-0.4-0.3-1.1-0.6-1.9-1 c-0.7-0.3-1.3-0.7-2-1.1c-1.6-1-2.5-2.7-2.5-4.6c-0.1-1.4,0.5-2.8,1.6-3.7c1.2-0.9,2.6-1.3,4-1.3c1.6,0,3.2,0.5,4.5,1.5l-1.4,2.3 c-0.4-0.4-0.9-0.7-1.4-0.9c-0.6-0.2-1.2-0.4-1.9-0.4c-0.7,0-1.4,0.2-2,0.6c-0.5,0.4-0.8,1-0.7,1.7c0,0.5,0.2,1,0.5,1.4 c0.3,0.4,0.7,0.8,1.2,1.1c0.5,0.3,1.1,0.7,1.9,1.1s1.3,0.8,1.8,1c0.4,0.2,0.8,0.5,1.1,0.9c0.5,0.4,0.9,1,1.2,1.6 c0.3,0.6,0.5,1.3,0.5,2c0,1-0.2,2-0.8,2.9c-0.5,0.8-1.3,1.4-2.1,1.8c-1,0.4-2,0.6-3.1,0.6C331.9,171.9,330.9,171.7,329.9,171.3z"></path> </g> </svg> 