<?xml version="1.0" encoding="UTF-8"?> <!-- Generator: Adobe Illustrator 25.2.2, SVG Export Plug-In . SVG Version: 6.00 Build 0) --> <svg xmlns="http://www.w3.org/2000/svg" xmlns:xlink="http://www.w3.org/1999/xlink" version="1.1" id="Layer_1" x="0px" y="0px" viewBox="0 0 400 245" style="enable-background:new 0 0 400 245;" xml:space="preserve"> <style type="text/css"> .st0{fill:#010101;} .st1{enable-background:new ;} .st2{fill:#DB1F26;} .st3{fill:#7A7A7A;} .st4{fill:#EE3275;} .st5{fill:#EE2837;} .st6{fill:#069BCF;} .st7{fill:none;} .st8{clip-path:url(#SVGID_1_);} .st9{fill-rule:evenodd;clip-rule:evenodd;fill:#F4C117;} .st10{clip-path:url(#SVGID_2_);} .st11{fill-rule:evenodd;clip-rule:evenodd;fill:url(#SVGID_3_);} .st12{fill-rule:evenodd;clip-rule:evenodd;fill:url(#SVGID_4_);} .st13{fill-rule:evenodd;clip-rule:evenodd;fill:url(#SVGID_5_);} .st14{fill-rule:evenodd;clip-rule:evenodd;fill:url(#SVGID_6_);} .st15{fill-rule:evenodd;clip-rule:evenodd;fill:url(#SVGID_7_);} .st16{fill-rule:evenodd;clip-rule:evenodd;fill:url(#SVGID_8_);} .st17{clip-path:url(#SVGID_9_);} .st18{fill-rule:evenodd;clip-rule:evenodd;fill:url(#SVGID_10_);} .st19{fill-rule:evenodd;clip-rule:evenodd;fill:url(#SVGID_11_);} .st20{fill-rule:evenodd;clip-rule:evenodd;fill:url(#SVGID_12_);} .st21{fill-rule:evenodd;clip-rule:evenodd;fill:url(#SVGID_13_);} .st22{fill-rule:evenodd;clip-rule:evenodd;fill:url(#SVGID_14_);} .st23{fill-rule:evenodd;clip-rule:evenodd;fill:url(#SVGID_15_);} .st24{fill:#FFFFFF;} .st25{clip-path:url(#SVGID_16_);} .st26{clip-path:url(#SVGID_17_);} .st27{clip-path:url(#SVGID_18_);} .st28{fill-rule:evenodd;clip-rule:evenodd;fill:url(#SVGID_19_);} .st29{fill-rule:evenodd;clip-rule:evenodd;fill:url(#SVGID_20_);} .st30{fill-rule:evenodd;clip-rule:evenodd;fill:url(#SVGID_21_);} .st31{fill-rule:evenodd;clip-rule:evenodd;fill:url(#SVGID_22_);} .st32{fill-rule:evenodd;clip-rule:evenodd;fill:url(#SVGID_23_);} .st33{fill-rule:evenodd;clip-rule:evenodd;fill:url(#SVGID_24_);} .st34{clip-path:url(#SVGID_25_);} .st35{clip-path:url(#SVGID_26_);} .st36{clip-path:url(#SVGID_27_);} .st37{fill-rule:evenodd;clip-rule:evenodd;fill:url(#SVGID_28_);} .st38{fill-rule:evenodd;clip-rule:evenodd;fill:url(#SVGID_29_);} .st39{fill-rule:evenodd;clip-rule:evenodd;fill:url(#SVGID_30_);} .st40{fill-rule:evenodd;clip-rule:evenodd;fill:url(#SVGID_31_);} .st41{fill-rule:evenodd;clip-rule:evenodd;fill:url(#SVGID_32_);} .st42{fill-rule:evenodd;clip-rule:evenodd;fill:url(#SVGID_33_);} .st43{clip-path:url(#SVGID_34_);} .st44{clip-path:url(#SVGID_35_);} .st45{clip-path:url(#SVGID_36_);} .st46{fill-rule:evenodd;clip-rule:evenodd;fill:url(#SVGID_37_);} .st47{fill-rule:evenodd;clip-rule:evenodd;fill:url(#SVGID_38_);} .st48{fill-rule:evenodd;clip-rule:evenodd;fill:url(#SVGID_39_);} .st49{fill-rule:evenodd;clip-rule:evenodd;fill:url(#SVGID_40_);} .st50{fill-rule:evenodd;clip-rule:evenodd;fill:url(#SVGID_41_);} .st51{fill-rule:evenodd;clip-rule:evenodd;fill:url(#SVGID_42_);} .st52{clip-path:url(#SVGID_43_);} .st53{fill-rule:evenodd;clip-rule:evenodd;fill:#FFFFFF;} .st54{fill-rule:evenodd;clip-rule:evenodd;fill:url(#SVGID_44_);} .st55{fill-rule:evenodd;clip-rule:evenodd;fill:url(#SVGID_45_);} .st56{fill-rule:evenodd;clip-rule:evenodd;fill:url(#SVGID_46_);} .st57{fill-rule:evenodd;clip-rule:evenodd;fill:url(#SVGID_47_);} .st58{fill-rule:evenodd;clip-rule:evenodd;fill:url(#SVGID_48_);} .st59{fill-rule:evenodd;clip-rule:evenodd;fill:url(#SVGID_49_);} .st60{fill-rule:evenodd;clip-rule:evenodd;fill:#40464E;} .st61{fill-rule:evenodd;clip-rule:evenodd;fill:#01AFAA;} .st62{fill:#28203B;} .st63{fill-rule:evenodd;clip-rule:evenodd;fill:#010101;} .st64{fill:#F26B3F;} .st65{display:none;fill:#010101;} .st66{fill:#D72027;} .st67{fill:#ED2224;} .st68{fill:#231815;} .st69{display:none;fill-rule:evenodd;clip-rule:evenodd;fill:#323137;} .st70{fill:#3D3D3C;} .st71{fill:#F09877;} </style> <g> <path class="st0" d="M124.8,135.7c-2.3,0.1-5.1-0.4-7.2,0.6c-1.4,0.5-2.5,1.5-3.5,2.6c-2.2,2.8-6.1,4-9.5,3.1 c-3.9-1-6.7-4.7-6.7-8.7c-0.2-4.1,2.5-7.9,6.4-9.1c3.5-1.1,7.4,0.1,9.7,2.9c1.2,1.5,2.7,2.6,4.6,3.1c2.1,0.5,4,0.1,6.2,0.2 c0-12.6,0-25.3,0-37.9h-11.2c0,7.4,0,14.8,0,22.2c-3.3-1.1-6.7-1.3-10.1-0.7c-4.5,0.7-8.9,3.2-11.6,6.9c-2.5,3.4-3.7,7.5-3.7,11.8 c-0.1,4.6,1.1,9.2,3.9,12.8c2.7,3.5,6.7,5.7,11,6.6c4.1,0.8,8.5,0.4,12.3-1.3c3.8-1.7,7-4.8,8.7-8.6 C125.2,140.3,124.6,137.9,124.8,135.7z"></path> <path class="st0" d="M214.2,143.2c-2.4-2.6-5-5.1-7.5-7.6c-1.5-1.6-3.1-3.2-4.7-4.8c5-5.2,10-10.4,15.1-15.6c-1.5,0-3.1,0-4.6,0 c-4.9,5-9.8,10.1-14.7,15.1c0-12.6,0-25.2,0-37.8h-3.6c0,19.5,0,39.1,0,58.6c1.2,0,2.4,0,3.6,0c0-5.3,0-10.6,0-15.9 c0.6-0.6,1.3-1.3,1.9-1.9c2.7,2.7,5.4,5.3,8,8.1c3.2,3.2,6.5,6.4,9.6,9.7c1.6,0,3.2,0,4.7,0C219.5,148.4,216.8,145.8,214.2,143.2z"></path> <path class="st0" d="M140,106.6c2-1.3,2.3-4.2,0.7-5.9c-1-1.2-2.7-1.6-4.2-1.1c-2.3,0.8-3.2,3.4-2.2,5.5 C135.3,107.2,138.1,107.9,140,106.6z"></path> <path class="st0" d="M229.1,100.4c-1.9,0.8-2.6,3.4-1.2,5c1.2,1.5,3.6,1.6,4.9,0.2c1.2-1.2,1.1-3.2,0-4.4 C231.8,100.2,230.3,99.9,229.1,100.4z"></path> <path class="st0" d="M326.7,115.2c0-5.1,0-10.1,0-15.2c-1.2,0-2.4,0-3.6,0c0,5.1,0,10.1,0,15.2c-1.3,0-2.6,0-3.9,0 c0,1.1,0,2.2,0,3.4c1.3,0,2.6,0,3.9,0c0,10.8,0,21.7,0,32.5c1.2,0,2.4,0,3.6,0c0-10.8,0-21.7,0-32.5c2.1,0,4.2,0,6.2,0 c0-1.1,0-2.2,0-3.4C330.9,115.2,328.8,115.2,326.7,115.2z"></path> <path class="st0" d="M341.1,100.3c-2,0.6-2.9,3.1-1.8,4.8c1.1,1.8,3.8,2,5.1,0.4c1.1-1.2,1.1-3.1,0-4.3 C343.6,100.3,342.2,99.9,341.1,100.3z"></path> <path class="st0" d="M32.1,116.6c-3.9-2.6-8.8-3.6-13.4-2.6c-3.9,0.8-7.3,2.8-10.2,5.5c-3.5,3.2-5.8,7.4-6.3,12.2v3.2 c0.8,8.5,7.8,16.3,16.4,17.6c4.3,0.6,8.6-0.4,12.3-2.6c0,0.5,0,1.1,0,1.6c3.4,0,6.9,0,10.3,0c0-6.2,0-12.5,0-18.7 C41.1,126.2,37.4,120.1,32.1,116.6z M30.8,148c-0.9-1-1.7-2-2.5-3c-1.5-1.8-3.9-2.9-6.2-2.8c-1.3,0-2.6-0.1-3.8-0.6 c-3.9-1.5-6.5-5.7-5.8-9.9c0.5-3.8,3.6-6.9,7.3-7.7c3.1-0.7,6.5,0.4,8.6,2.7c1.6,1.7,2.5,4,2.5,6.3C30.8,138,30.8,143,30.8,148z"></path> <path class="st0" d="M174.3,114.6c-4.7-1.5-10-1.3-14.5,0.7c-3.8,1.6-6.9,4.6-8.7,8.3c-1.1,2.1-1.6,4.4-2,6.8c1.7,0,3.5,0,5.2,0.1 c2.6,0,4.9-1.1,6.5-3.2c2-2.5,5.4-3.9,8.6-3.3c3,0.5,5.7,2.5,6.9,5.3c1.4,3.2,0.9,7-1.3,9.7c-1.7,2-4.3,3.4-6.9,3.4 c-2.9,0.1-5.7-1.3-7.4-3.5c-1.5-1.9-3.9-3.1-6.4-3.1c-1.8,0-3.5,0-5.2,0c0.5,4.4,2.2,8.5,5.4,11.5c6.9,6.8,19.3,6.9,26.4,0.4 c3-2.7,4.8-6.3,5.5-10.2c0.8-4.6,0.4-9.6-1.6-13.8C182.8,119.4,178.9,116.1,174.3,114.6z"></path> <path class="st0" d="M263.7,114.9c-3.3-0.8-7-0.7-10,1c-2.1,1.1-3.6,2.9-4.8,4.9c0-1.9,0-3.8,0-5.7c-1.2,0-2.4,0-3.6,0 c0,12,0,23.9,0,35.9c1.2,0,2.4,0,3.6,0c0-6.3,0-12.5,0-18.8c0.1-3.5,0.5-7.6,2.5-10.6c1.4-2.1,3.6-3.5,6.1-3.8 c2.3-0.3,4.9-0.1,6.9,1.1c1.6,1,2.5,2.7,2.9,4.5c0.5,2.2,0.5,4.6,0.5,6.9c0,6.9,0,13.8,0,20.7c1.2,0,2.4,0,3.5,0 c0-7.8,0-15.5,0-23.3c-0.1-2.9-0.5-6.1-2-8.7C268.2,117,266.1,115.5,263.7,114.9z"></path> <path class="st0" d="M300.8,114.8c-3.8-0.7-8-0.3-11.5,1.5c-3.3,1.7-6,4.5-7.6,7.8c-1.8,3.8-2.4,8.2-1.7,12.3 c0.6,4,2.3,7.7,5.1,10.5c2.5,2.5,5.8,4.2,9.3,4.6c4,0.5,8.2-0.1,11.7-2.1c3.1-1.7,5.4-4.4,7-7.4c-1-0.6-2-1.2-3-1.8 c-1.5,2.7-3.4,4.9-6.1,6.4c-5.5,3.2-13.2,1.8-17.3-3c-2.5-2.8-3.5-6.6-3.4-10.3c10.3,0,20.7,0,31,0c0.1-4.5-1.2-9.2-3.9-12.7 C308.1,117.7,304.6,115.6,300.8,114.8z M283.3,130.1c0.3-2.1,1-4.1,2.1-5.8c2.9-4.4,8.2-7.1,13.5-6.4c3.5,0.4,6.8,2.4,8.9,5.2 c1.6,2,2.6,4.5,3,7C301.6,130.1,292.5,130.2,283.3,130.1z"></path> <path class="st0" d="M376.3,147.8c-3.8,1.2-8,0.9-11.5-1.1c-5.4-3.1-8.5-9.5-7.6-15.7c0.7-5.1,3.9-9.7,8.5-11.9 c3.8-1.8,8.2-1.8,12.1-0.3c2.6,1,4.7,2.7,6.7,4.8c0-1.6,0-3.2,0-4.8c-6.3-5.3-16.1-5.9-22.9-1.3c-3.2,2.1-5.6,5.2-6.9,8.8 c-1.7,4.7-1.5,10.3,0.5,14.8c1.7,3.8,4.8,7,8.5,8.8c3.6,1.8,7.7,2.2,11.6,1.5c3.5-0.6,6.8-2.3,9.5-4.6c0-1.6,0-3.3,0-4.9 C382.6,144.7,379.8,146.9,376.3,147.8z"></path> <path class="st0" d="M393.7,114.6c-2.3-0.1-4.4,1.7-4.7,3.9c-0.4,2.6,1.7,5.1,4.4,5.1c2,0.1,3.8-1.2,4.5-3.1v-2.9 C397.1,115.9,395.6,114.6,393.7,114.6z M395.4,122.5c-1.9,1.1-4.5,0.3-5.4-1.7c-1.1-2.1,0-4.7,2.2-5.4c2-0.8,4.3,0.4,5,2.4 C397.8,119.6,397,121.6,395.4,122.5z"></path> <path class="st0" d="M70.6,114.9c0,6.7,0,13.3,0,20c0,1.7-0.2,3.8-1.2,5.2c-0.7,1.1-2,1.8-3.3,1.9c-1.5,0.2-3.3,0-4.6-1 c-1.1-0.9-1.5-2.3-1.8-3.6c-0.3-2-0.3-4.1-0.3-6.1c0-5.5,0-11,0-16.5c-3.7,0-7.4,0-11.2,0c0,7.6,0,15.3,0,22.9 c0.1,3.3,0.8,6.8,2.9,9.4c1.5,1.9,3.6,3.3,5.9,4.1c3,1.1,6.4,1.3,9.6,1.1c3.4-0.2,6.7-0.8,9.6-2.8c2.2-1.5,3.7-3.7,4.5-6.1 c0.8-2.4,1-4.8,1-7.3c0-7.1,0-14.2,0-21.3C78.1,114.9,74.3,114.9,70.6,114.9z"></path> <path class="st0" d="M132.3,130.4c3.7,0,7.4,0,11.2,0c0-5.2,0-10.3,0-15.5c-3.7,0-7.4,0-11.2,0 C132.3,120.1,132.3,125.2,132.3,130.4z"></path> <path class="st0" d="M228.5,115.2c0,12,0,23.9,0,35.9c1.2,0,2.4,0,3.6,0c0-12,0-23.9,0-35.9C230.9,115.2,229.7,115.2,228.5,115.2z"></path> <path class="st0" d="M340.2,115.2c0,12,0,23.9,0,35.9c1.2,0,2.4,0,3.6,0c0-12,0-23.9,0-35.9C342.6,115.2,341.4,115.2,340.2,115.2z"></path> <path class="st0" d="M395.2,116.9c-1-0.3-2.3-0.1-3.4-0.2c0,1.7,0,3.3,0,5l0.6,0c0-0.8,0-1.5,0-2.3c0.4,0,0.7,0,1.1,0 c0.5,0.7,0.9,1.5,1.4,2.2l0.8,0.1c-0.5-0.8-1-1.5-1.5-2.3C395.8,119.5,396.4,117.7,395.2,116.9z M392.4,118.8c0-0.5,0-1,0-1.5 c0.7,0,2.7-0.3,2.7,0.9C394.7,119.1,393.3,118.8,392.4,118.8z"></path> <path class="st0" d="M132.3,135.5c0,5.2,0,10.5,0,15.7c3.7,0,7.4,0,11.2,0c0-5.2,0-10.5,0-15.7C139.8,135.5,136,135.5,132.3,135.5z "></path> </g> </svg> 