<svg width="317" height="51" viewBox="0 0 317 51" fill="none" xmlns="http://www.w3.org/2000/svg">
<g clip-path="url(#clip0)">
<path d="M47.4736 19.5315V35.5315C47.4736 39.321 48.2631 42.0052 52.0526 42.0052C55.842 42.0052 56.6315 39.321 56.6315 35.5315V19.5315H65.7894V37.5841C65.7894 47.4262 59.7894 50.4789 51.9999 50.4789C44.2105 50.4789 38.2104 47.4262 38.2104 37.5841V19.5315H47.4736Z" fill="#CCCCCC"/>
<path d="M152.579 34.4789C152.526 24.2683 145.316 18.5315 137 18.5315C129.316 18.5315 122.526 23.4789 121.526 32.2683C123.579 32.2683 125.211 32.2683 125.737 32.2683C128 32.2683 129.947 31.2157 131.211 29.5315C132.632 27.8473 134.684 26.7947 137.053 26.7947C141.263 26.7947 144.684 30.2157 144.684 34.3736V34.4789C144.684 38.6894 141.263 42.0578 137.053 42.0578C134.684 42.0578 132.632 41.0052 131.211 39.321C130 37.6368 128 36.5841 125.737 36.5841C125.158 36.5841 123.579 36.5841 121.526 36.5841C122.526 45.4262 129.316 50.321 137 50.321C145.316 50.4262 152.526 44.6894 152.579 34.4789Z" fill="#CCCCCC"/>
<path d="M189.895 19.7947H187V49.321H189.895V19.7947Z" fill="#CCCCCC"/>
<path d="M188.474 7.37354C187 7.37354 185.842 8.58406 185.842 10.0051C185.842 11.4788 187 12.6367 188.474 12.6367C189.947 12.6367 191.105 11.4788 191.105 10.0051C191.105 8.58406 189.947 7.37354 188.474 7.37354Z" fill="#CCCCCC"/>
<path d="M212.579 19.1631C208.789 19.1631 205.579 21.1105 203.842 24.4262H203.737V19.8473H200.842V49.321H203.737V34.742C203.737 28.742 204.947 21.8473 212.368 21.8473C218.842 21.8473 219.474 26.2157 219.474 31.4789V49.321H222.368V31.4789C222.316 23.8999 220.21 19.1631 212.579 19.1631Z" fill="#CCCCCC"/>
<path d="M257.737 34.7947C257.79 26.321 252.474 19.1631 243.579 19.1631C234.947 19.1631 229.263 26.2684 229.263 34.4789C229.263 42.8473 234.842 49.9526 243.579 49.9526C249.368 49.9526 254.105 47.0578 256.789 41.9526L254.368 40.5315C252.263 44.4789 248.579 47.2157 243.947 47.2157C237.105 47.2157 231.947 42.2157 232.158 34.742H257.737V34.7947ZM243.632 21.8473C249.684 21.8473 254.158 26.6894 254.842 32.1105H232.105C232.632 26.5841 237.632 21.8473 243.632 21.8473Z" fill="#CCCCCC"/>
<path d="M267.895 7.26831H265.053V19.7946H261.79V22.4788H265.053V49.3209H267.895V22.4788H273.105V19.7946H267.895V7.26831Z" fill="#CCCCCC"/>
<path d="M280.632 7.37354C279.158 7.37354 278 8.58406 278 10.0051C278 11.4788 279.158 12.6367 280.632 12.6367C282.105 12.6367 283.263 11.4788 283.263 10.0051C283.21 8.58406 282.105 7.37354 280.632 7.37354Z" fill="#CCCCCC"/>
<path d="M282.053 19.7947H279.158V49.321H282.053V19.7947Z" fill="#CCCCCC"/>
<path d="M305.158 47.2683C298.211 47.2683 293 41.2157 293 34.4789C293 27.7947 298.263 21.8473 305.211 21.8473C309.421 21.8473 312.79 23.5841 315.632 26.6368V22.7947C312.684 20.321 309.158 19.1631 305.368 19.1631C296.684 19.1631 290.158 25.9526 290.158 34.4789C290.158 43.1105 296.526 49.9526 305.263 49.9526C309.211 49.9526 313 48.4789 316 45.8473V41.9526C313.316 45.2157 309.368 47.2683 305.158 47.2683Z" fill="#CCCCCC"/>
<path d="M165 32.5841L177.368 19.7946H173.684L161.526 32.3209V1.00513H158.632V49.3209H161.526V36.2157L163.105 34.5841L177.737 49.3209H181.526L165 32.5841Z" fill="#CCCCCC"/>
<path d="M112.105 6.79468C110.316 6.79468 108.947 8.26836 108.947 9.95257C108.947 11.742 110.316 13.1631 112.105 13.1631C113.895 13.1631 115.263 11.7947 115.263 9.95257C115.263 8.26836 113.895 6.79468 112.105 6.79468Z" fill="#CCCCCC"/>
<path d="M116.79 19.5315H107.579V32.2683C111 32.2683 114.579 32.2157 116.79 32.2157V19.5315Z" fill="#CCCCCC"/>
<path d="M107.579 49.4789H116.79V36.5315C114.579 36.5315 111.053 36.5315 107.579 36.5315V49.4789Z" fill="#CCCCCC"/>
<path d="M101.316 1.00513H92.1579V19.3735C90.4737 18.7946 88.6316 18.5314 86.7895 18.5314C78.4737 18.5314 71.2106 24.2683 71.2106 34.4788V34.5315C71.2106 44.742 78.4737 50.4788 86.7895 50.4788C93.2106 50.4788 99 47.0051 101.316 40.6893V36.6893C99.7369 36.6893 98.5264 36.6893 98.0527 36.6893C95.7895 36.6893 93.8421 37.742 92.579 39.4262C91.1579 41.1104 89.0527 42.163 86.7369 42.163C82.5264 42.163 79.1579 38.742 79.1579 34.5841V34.4262C79.1579 30.2157 82.5264 26.8472 86.7369 26.8472C89.1053 26.8472 91.1579 27.8999 92.579 29.5841C93.7895 31.2683 95.7895 32.3209 98.0527 32.3209C98.5264 32.3209 99.7369 32.3209 101.316 32.3209V32.2683L101.368 32.3209V1.00513H101.316Z" fill="#CCCCCC"/>
<path d="M28.5264 24.1631C23.2106 17.7947 14.1053 15.9526 6.26321 22.4789C-1.52627 29.0578 -1.26311 38.321 4.05268 44.6894C8.84216 50.4263 16.6843 52.4789 23.8422 48.1105V49.5315H32.3685V34.5315C32.4211 30.8473 31.0527 27.1631 28.5264 24.1631ZM21.8422 44.4789C20.4211 42.742 18.3158 41.9526 16.2632 42.0578C14.1053 42.0578 11.9474 41.1105 10.4211 39.321C7.73689 36.1105 8.15794 31.321 11.3685 28.5841L11.4737 28.5315C14.6843 25.8473 19.4737 26.2684 22.1579 29.4789C23.3685 30.9526 23.9474 32.7947 23.8948 34.5841V34.8473C23.8948 34.9526 23.8948 35.0578 23.8948 35.1631V39.1631C23.8948 39.1631 23.8948 39.1631 23.8948 39.2157V47.0052C22.8422 45.6894 22.1053 44.7947 21.8422 44.4789Z" fill="#CCCCCC"/>
</g>
<defs>
<clipPath id="clip0">
<rect width="316.316" height="50" fill="white" transform="translate(0 0.741943)"/>
</clipPath>
</defs>
</svg>
