<svg width="101" height="61" viewBox="0 0 101 61" fill="none" xmlns="http://www.w3.org/2000/svg">
<g clip-path="url(#clip0)">
<path d="M28.4834 22.632C28.4834 23.8517 28.6152 24.8408 28.846 25.566C29.1097 26.2913 29.4394 27.0825 29.9009 27.9397C30.0658 28.2034 30.1317 28.4671 30.1317 28.6979C30.1317 29.0276 29.9339 29.3572 29.5053 29.6869L27.4284 31.0715C27.1317 31.2693 26.835 31.3682 26.5713 31.3682C26.2416 31.3682 25.9119 31.2034 25.5823 30.9067C25.1207 30.4122 24.7251 29.8847 24.3954 29.3572C24.0658 28.7968 23.7361 28.1704 23.3735 27.4122C20.802 30.4452 17.5713 31.9616 13.6812 31.9616C10.9119 31.9616 8.70314 31.1704 7.08775 29.588C5.47237 28.0056 4.64819 25.8957 4.64819 23.2583C4.64819 20.4561 5.6372 18.1814 7.64819 16.4671C9.65918 14.7528 12.3295 13.8957 15.7251 13.8957C16.846 13.8957 17.9998 13.9946 19.2196 14.1594C20.4394 14.3243 21.6922 14.588 23.0108 14.8847V12.4781C23.0108 9.97262 22.4834 8.22537 21.4614 7.20339C20.4064 6.18142 18.6262 5.68691 16.0878 5.68691C14.9339 5.68691 13.7471 5.81878 12.5273 6.11548C11.3075 6.41218 10.1207 6.77482 8.96687 7.23636C8.4394 7.46713 8.0438 7.599 7.81303 7.66493C7.58226 7.73087 7.41742 7.76383 7.28556 7.76383C6.82402 7.76383 6.59325 7.43416 6.59325 6.74185V5.12647C6.59325 4.599 6.65918 4.20339 6.82402 3.97262C6.98885 3.74185 7.28556 3.51109 7.74709 3.28032C8.90094 2.68691 10.2856 2.1924 11.9009 1.7968C13.5163 1.36823 15.2306 1.17043 17.0438 1.17043C20.9669 1.17043 23.835 2.06054 25.6812 3.84076C27.4943 5.62098 28.4174 8.32427 28.4174 11.9506V22.632H28.4834ZM15.0987 27.643C16.1867 27.643 17.3075 27.4452 18.4943 27.0495C19.6812 26.6539 20.7361 25.9287 21.6262 24.9397C22.1537 24.3133 22.5493 23.621 22.7471 22.8298C22.9449 22.0386 23.0768 21.0825 23.0768 19.9616V18.577C22.1207 18.3462 21.0987 18.1484 20.0438 18.0166C18.9889 17.8847 17.9669 17.8188 16.9449 17.8188C14.7361 17.8188 13.1207 18.2473 12.0328 19.1375C10.9449 20.0276 10.4174 21.2803 10.4174 22.9287C10.4174 24.4781 10.813 25.632 11.6372 26.4232C12.4284 27.2473 13.5823 27.643 15.0987 27.643ZM41.5713 31.2034C40.9779 31.2034 40.5823 31.1045 40.3185 30.8737C40.0548 30.6759 39.824 30.2144 39.6262 29.588L31.879 4.10449C31.6812 3.44515 31.5823 3.01658 31.5823 2.78581C31.5823 2.25834 31.846 1.96163 32.3735 1.96163H35.6042C36.2306 1.96163 36.6592 2.06054 36.8899 2.29131C37.1537 2.48911 37.3515 2.95065 37.5493 3.57702L43.0877 25.4012L48.2306 3.57702C48.3954 2.91768 48.5932 2.48911 48.857 2.29131C49.1207 2.0935 49.5823 1.96163 50.1757 1.96163H52.813C53.4394 1.96163 53.868 2.06054 54.1317 2.29131C54.3954 2.48911 54.6262 2.95065 54.7581 3.57702L59.9669 25.6649L65.6702 3.57702C65.868 2.91768 66.0987 2.48911 66.3295 2.29131C66.5932 2.0935 67.0218 1.96163 67.6152 1.96163H70.6812C71.2086 1.96163 71.5053 2.22537 71.5053 2.78581C71.5053 2.95065 71.4724 3.11548 71.4394 3.31328C71.4064 3.51109 71.3405 3.77482 71.2086 4.13746L63.2636 29.621C63.0658 30.2803 62.835 30.7089 62.5713 30.9067C62.3075 31.1045 61.879 31.2364 61.3185 31.2364H58.4834C57.857 31.2364 57.4284 31.1375 57.1647 30.9067C56.9009 30.6759 56.6702 30.2473 56.5383 29.588L51.4284 8.32427L46.3515 29.555C46.1867 30.2144 45.9888 30.643 45.7251 30.8737C45.4614 31.1045 44.9998 31.2034 44.4064 31.2034H41.5713ZM83.9339 32.0935C82.2196 32.0935 80.5053 31.8957 78.857 31.5001C77.2086 31.1045 75.9229 30.6759 75.0658 30.1814C74.5383 29.8847 74.1757 29.555 74.0438 29.2583C73.9119 28.9616 73.846 28.632 73.846 28.3353V26.6539C73.846 25.9616 74.1097 25.632 74.6042 25.632C74.802 25.632 74.9998 25.6649 75.1976 25.7309C75.3954 25.7968 75.6921 25.9287 76.0218 26.0605C77.1427 26.555 78.3625 26.9506 79.6482 27.2144C80.9669 27.4781 82.2526 27.61 83.5713 27.61C85.6482 27.61 87.2636 27.2473 88.3845 26.5221C89.5053 25.7968 90.0987 24.7419 90.0987 23.3902C90.0987 22.4671 89.802 21.7089 89.2086 21.0825C88.6152 20.4561 87.4943 19.8957 85.879 19.3682L81.0987 17.8847C78.6921 17.1265 76.9119 16.0056 75.824 14.5221C74.7361 13.0715 74.1757 11.4561 74.1757 9.74185C74.1757 8.35724 74.4724 7.13746 75.0658 6.08251C75.6592 5.02757 76.4504 4.10449 77.4394 3.37922C78.4284 2.62098 79.5493 2.06054 80.868 1.66493C82.1866 1.26933 83.5713 1.10449 85.0218 1.10449C85.7471 1.10449 86.5053 1.13746 87.2306 1.23636C87.9888 1.33526 88.6812 1.46713 89.3735 1.599C90.0328 1.76383 90.6592 1.92867 91.2526 2.12647C91.846 2.32427 92.3075 2.52207 92.6372 2.71988C93.0987 2.98361 93.4284 3.24735 93.6262 3.54405C93.824 3.80779 93.9229 4.17043 93.9229 4.63196V6.18141C93.9229 6.87372 93.6592 7.23636 93.1647 7.23636C92.9009 7.23636 92.4724 7.10449 91.9119 6.84076C90.0328 5.98361 87.9229 5.55504 85.5823 5.55504C83.7031 5.55504 82.2196 5.85174 81.1976 6.47812C80.1757 7.10449 79.6482 8.06054 79.6482 9.41218C79.6482 10.3353 79.9779 11.1265 80.6372 11.7528C81.2965 12.3792 82.5163 13.0056 84.2636 13.566L88.9449 15.0495C91.3185 15.8078 93.0328 16.8627 94.0548 18.2144C95.0768 19.566 95.5713 21.1155 95.5713 22.8298C95.5713 24.2473 95.2746 25.5331 94.7141 26.6539C94.1207 27.7748 93.3295 28.7638 92.3075 29.555C91.2855 30.3792 90.0658 30.9726 88.6482 31.4012C87.1647 31.8627 85.6152 32.0935 83.9339 32.0935Z" fill="#CCCCCC"/>
<path fill-rule="evenodd" clip-rule="evenodd" d="M90.1648 48.1155C79.3186 56.1265 63.5604 60.3792 50.0109 60.3792C31.0219 60.3792 13.912 53.3573 0.988931 41.6869C-0.0330468 40.7639 0.89003 39.5111 2.10981 40.2364C16.0878 48.3463 33.3296 53.2584 51.1647 53.2584C63.1977 53.2584 76.4175 50.7529 88.5823 45.61C90.3955 44.7858 91.945 46.7968 90.1648 48.1155Z" fill="#CCCCCC"/>
<path fill-rule="evenodd" clip-rule="evenodd" d="M94.6813 42.9728C93.2967 41.1925 85.5165 42.1156 81.989 42.5442C80.9341 42.676 80.7692 41.753 81.7253 41.0607C87.9231 36.709 98.1099 37.9618 99.2967 39.4123C100.484 40.8958 98.967 51.0826 93.1648 55.9618C92.2747 56.72 91.4176 56.3244 91.8132 55.3354C93.1319 52.0717 96.0659 44.72 94.6813 42.9728Z" fill="#CCCCCC"/>
</g>
<defs>
<clipPath id="clip0">
<rect width="100.22" height="60" fill="white" transform="translate(0 0.741943)"/>
</clipPath>
</defs>
</svg>
