<svg width="104" height="72" viewBox="0 0 104 72" fill="none" xmlns="http://www.w3.org/2000/svg">
<path d="M34.6206 29.4328C34.6206 30.4205 34.7274 31.2214 34.9143 31.8088C35.1278 32.3961 35.3948 33.0368 35.7686 33.7309C35.902 33.9445 35.9554 34.158 35.9554 34.3449C35.9554 34.6119 35.7953 34.8788 35.4482 35.1458L33.7663 36.2671C33.5261 36.4272 33.2858 36.5073 33.0722 36.5073C32.8053 36.5073 32.5383 36.3738 32.2713 36.1336C31.8976 35.7331 31.5772 35.306 31.3103 34.8788C31.0433 34.425 30.7763 33.9178 30.4827 33.3038C28.4003 35.7598 25.7841 36.9879 22.6339 36.9879C20.3914 36.9879 18.6028 36.3471 17.2946 35.0657C15.9865 33.7843 15.3191 32.0757 15.3191 29.94C15.3191 27.6708 16.12 25.8288 17.7485 24.4405C19.3769 23.0523 21.5394 22.3582 24.2891 22.3582C25.1968 22.3582 26.1311 22.4383 27.1189 22.5718C28.1067 22.7053 29.1211 22.9188 30.189 23.1591V21.2103C30.189 19.1813 29.7619 17.7664 28.9343 16.9388C28.08 16.1113 26.6384 15.7108 24.5828 15.7108C23.6484 15.7108 22.6873 15.8176 21.6995 16.0579C20.7118 16.2981 19.7507 16.5918 18.8163 16.9655C18.3892 17.1524 18.0688 17.2592 17.8819 17.3126C17.6951 17.366 17.5616 17.3927 17.4548 17.3927C17.0811 17.3927 16.8942 17.1257 16.8942 16.5651V15.257C16.8942 14.8298 16.9476 14.5095 17.0811 14.3226C17.2145 14.1357 17.4548 13.9488 17.8286 13.762C18.7629 13.2814 19.8842 12.881 21.1923 12.5606C22.5004 12.2136 23.8886 12.0534 25.3569 12.0534C28.5338 12.0534 30.8564 12.7742 32.3514 14.2158C33.8197 15.6574 34.5672 17.8465 34.5672 20.7831V29.4328H34.6206ZM23.7819 33.4906C24.6628 33.4906 25.5705 33.3305 26.5316 33.0101C27.4927 32.6897 28.347 32.1024 29.0678 31.3015C29.4949 30.7943 29.8153 30.2337 29.9754 29.5929C30.1356 28.9522 30.2424 28.178 30.2424 27.2704V26.1491C29.4682 25.9622 28.6406 25.8021 27.7863 25.6953C26.932 25.5885 26.1045 25.5351 25.2769 25.5351C23.4882 25.5351 22.1801 25.8821 21.2991 26.6029C20.4181 27.3238 19.991 28.3382 19.991 29.673C19.991 30.9278 20.3113 31.8621 20.9787 32.5029C21.6194 33.1703 22.5538 33.4906 23.7819 33.4906ZM45.2191 36.3738C44.7386 36.3738 44.4182 36.2938 44.2046 36.1069C43.9911 35.9467 43.8042 35.5729 43.644 35.0657L37.3703 14.4294C37.2102 13.8954 37.1301 13.5484 37.1301 13.3615C37.1301 12.9344 37.3436 12.6941 37.7708 12.6941H40.387C40.8943 12.6941 41.2413 12.7742 41.4282 12.9611C41.6418 13.1213 41.802 13.495 41.9621 14.0022L46.4471 31.6753L50.6118 14.0022C50.7453 13.4683 50.9054 13.1213 51.119 12.9611C51.3326 12.8009 51.7063 12.6941 52.1869 12.6941H54.3226C54.8298 12.6941 55.1769 12.7742 55.3904 12.9611C55.604 13.1213 55.7909 13.495 55.8977 14.0022L60.1157 31.8888L64.7342 14.0022C64.8944 13.4683 65.0812 13.1213 65.2681 12.9611C65.4817 12.8009 65.8287 12.6941 66.3093 12.6941H68.792C69.2192 12.6941 69.4595 12.9077 69.4595 13.3615C69.4595 13.495 69.4328 13.6285 69.4061 13.7887C69.3794 13.9488 69.326 14.1624 69.2192 14.4561L62.7853 35.0924C62.6252 35.6263 62.4383 35.9734 62.2247 36.1336C62.0111 36.2938 61.6641 36.4005 61.2103 36.4005H58.9144C58.4071 36.4005 58.0601 36.3204 57.8465 36.1336C57.6329 35.9467 57.4461 35.5996 57.3393 35.0657L53.2013 17.8465L49.0901 35.039C48.9566 35.5729 48.7964 35.92 48.5828 36.1069C48.3693 36.2938 47.9955 36.3738 47.515 36.3738H45.2191ZM79.524 37.0946C78.1358 37.0946 76.7476 36.9345 75.4128 36.6141C74.0779 36.2938 73.0368 35.9467 72.3427 35.5463C71.9155 35.306 71.6219 35.039 71.5151 34.7988C71.4083 34.5585 71.3549 34.2915 71.3549 34.0513V32.6897C71.3549 32.1291 71.5685 31.8621 71.9689 31.8621C72.1291 31.8621 72.2893 31.8888 72.4495 31.9422C72.6096 31.9956 72.8499 32.1024 73.1169 32.2092C74.0245 32.6096 75.0123 32.93 76.0535 33.1436C77.1213 33.3571 78.1625 33.4639 79.2303 33.4639C80.9122 33.4639 82.2203 33.1703 83.128 32.5829C84.0357 31.9956 84.5162 31.1413 84.5162 30.0468C84.5162 29.2993 84.276 28.6853 83.7954 28.178C83.3149 27.6708 82.4072 27.217 81.0991 26.7898L77.2281 25.5885C75.2793 24.9745 73.8377 24.0668 72.9567 22.8654C72.0757 21.6908 71.6219 20.3827 71.6219 18.9945C71.6219 17.8732 71.8621 16.8854 72.3427 16.0312C72.8232 15.1769 73.4639 14.4294 74.2648 13.8421C75.0657 13.228 75.9734 12.7742 77.0412 12.4538C78.1091 12.1335 79.2303 12 80.405 12C80.9923 12 81.6063 12.0267 82.1937 12.1068C82.8077 12.1869 83.3683 12.2937 83.9289 12.4004C84.4628 12.5339 84.9701 12.6674 85.4506 12.8276C85.9311 12.9878 86.3049 13.1479 86.5719 13.3081C86.9456 13.5217 87.2126 13.7353 87.3728 13.9755C87.5329 14.1891 87.613 14.4828 87.613 14.8565V16.1113C87.613 16.6719 87.3995 16.9655 86.999 16.9655C86.7854 16.9655 86.4384 16.8588 85.9845 16.6452C84.4628 15.9511 82.7543 15.604 80.8588 15.604C79.3371 15.604 78.1358 15.8443 77.3082 16.3515C76.4806 16.8588 76.0535 17.6329 76.0535 18.7275C76.0535 19.475 76.3204 20.1157 76.8544 20.6229C77.3883 21.1302 78.3761 21.6374 79.791 22.0913L83.5819 23.2926C85.504 23.9066 86.8922 24.7609 87.7198 25.8554C88.5474 26.95 88.9478 28.2047 88.9478 29.5929C88.9478 30.7409 88.7076 31.7821 88.2537 32.6897C87.7732 33.5974 87.1325 34.3983 86.3049 35.039C85.4773 35.7064 84.4895 36.187 83.3416 36.534C82.1403 36.9078 80.8855 37.0946 79.524 37.0946Z" fill="#252F3E"/>
<path fill-rule="evenodd" clip-rule="evenodd" d="M84.5694 50.0685C75.7863 56.5558 63.0254 59.9996 52.0532 59.9996C36.676 59.9996 22.8206 54.3133 12.3556 44.8627C11.528 44.1152 12.2755 43.1008 13.2633 43.6881C24.5826 50.2554 38.5448 54.2332 52.9876 54.2332C62.7318 54.2332 73.437 52.2043 83.288 48.0396C84.7563 47.3722 86.0111 49.0007 84.5694 50.0685Z" fill="#FF9900"/>
<path fill-rule="evenodd" clip-rule="evenodd" d="M88.2265 45.9042C87.1053 44.4625 80.8049 45.21 77.9484 45.5571C77.0941 45.6639 76.9606 44.9164 77.7348 44.3558C82.7537 40.8318 91.0029 41.8463 91.964 43.0209C92.9251 44.2223 91.697 52.4715 86.9985 56.4225C86.2777 57.0366 85.5836 56.7162 85.9039 55.9153C86.9718 53.2724 89.3478 47.3191 88.2265 45.9042Z" fill="#FF9900"/>
</svg>
