<svg width="54" height="71" viewBox="0 0 54 71" fill="none" xmlns="http://www.w3.org/2000/svg">
<g clip-path="url(#clip0)">
<path d="M0.252271 61.4716C0.252271 61.4085 0.25227 61.3455 0.315333 61.3455C0.882901 61.3455 1.95498 61.3455 3.02705 61.3455C5.86489 61.3455 6.36939 62.6067 6.36939 63.6788C6.36939 64.5617 5.86488 65.3815 4.982 65.6337C5.99101 65.8229 6.74777 66.7058 6.74777 67.7779C6.74777 69.5437 5.23425 70.3635 2.83786 70.3635C1.82885 70.3635 0.819838 70.3635 0.315333 70.3635C0.25227 70.3635 0.189209 70.3004 0.189209 70.3004L0.252271 61.4716ZM1.89191 65.0031H3.15317C4.41443 65.0031 4.79282 64.4986 4.79282 63.8049C4.79282 62.9851 4.22525 62.6067 3.02705 62.6067C2.45948 62.6067 2.01804 62.6067 1.89191 62.6067V65.0031ZM1.89191 68.9761C2.01804 68.9761 2.39641 68.9761 2.96398 68.9761C4.22524 68.9761 5.04506 68.5977 5.04506 67.5887C5.04506 66.7689 4.4775 66.2644 3.15317 66.2644H1.89191V68.9761Z" fill="#CCCCCC"/>
<path d="M12.8649 68.8502C12.8649 69.1655 12.8649 69.4177 12.928 69.733C12.928 69.733 12.9279 69.7961 12.8649 69.7961C11.982 70.2375 10.973 70.4267 9.96399 70.4267C8.45048 70.4267 7.18921 69.7961 7.18921 68.2195C7.18921 66.6429 8.5766 65.8862 11.2253 66.0123V65.8231C11.2253 65.5078 11.0361 64.8141 9.83787 64.8141C9.20724 64.8141 8.51354 65.0033 7.94597 65.2556C7.88291 65.2556 7.81984 65.2556 7.81984 65.1925V64.1204C7.81984 64.0574 7.81984 63.9943 7.88291 63.9943C8.5766 63.679 9.33336 63.4898 10.0901 63.4898C11.4144 63.3637 12.6126 64.3096 12.7388 65.6339C12.7388 65.8231 12.7388 65.9493 12.7388 66.1384V68.8502H12.8649ZM11.2253 67.1475C9.39642 67.0844 8.82885 67.4628 8.82885 68.2195C8.82885 68.724 9.20723 69.2285 10.2162 69.2285C10.5316 69.2285 10.9099 69.1655 11.2253 69.1024V67.1475Z" fill="#CCCCCC"/>
<path d="M18.6036 69.9853C18.6036 70.0484 18.6036 70.1114 18.5405 70.1114C18.036 70.3637 17.4685 70.4268 16.9009 70.4268C14.6306 70.4268 13.5585 68.9132 13.5585 66.9583C13.4955 65.0664 15.009 63.4898 16.9009 63.4268C17.027 63.4268 17.0901 63.4268 17.2162 63.4268C17.7207 63.4268 18.1621 63.4898 18.6036 63.679C18.6667 63.679 18.6667 63.7421 18.6667 63.8051V64.9403C18.6667 65.0033 18.6036 65.0664 18.6036 65.0033C18.2252 64.8141 17.7838 64.7511 17.3423 64.7511C16.2703 64.688 15.3243 65.5709 15.3243 66.643C15.3243 66.7691 15.3243 66.8322 15.3243 66.9583C15.1982 67.9673 15.8919 68.9132 16.9639 69.1024C17.0901 69.1024 17.2162 69.1024 17.2793 69.1024C17.7207 69.1024 18.1621 69.0394 18.5405 68.8502C18.6036 68.8502 18.6036 68.8502 18.6036 68.9132V69.9853Z" fill="#CCCCCC"/>
<path d="M29.8921 70.1745C29.8921 70.2375 29.8921 70.3006 29.829 70.3006C29.4506 70.4898 29.0092 70.5529 28.5677 70.5529C27.4326 70.5529 26.802 69.9853 26.802 68.661V65.0033H25.9191C25.856 65.0033 25.793 64.9402 25.793 64.8772V63.8051C25.793 63.742 25.793 63.679 25.9191 63.679H26.7389C26.7389 63.1114 26.802 62.5438 26.865 61.9763C26.865 61.9132 26.9281 61.8502 26.9912 61.8502L28.3786 61.5979C28.4416 61.5979 28.5047 61.5979 28.5047 61.661C28.4416 62.1024 28.4416 63.0484 28.4416 63.679H29.829C29.8921 63.679 29.8921 63.679 29.8921 63.8051V64.8141C29.8921 64.8772 29.8921 64.9402 29.829 64.9402H28.4416V68.3456C28.4416 68.9763 28.6308 69.2916 29.1984 69.2916C29.3876 69.2916 29.5768 69.2285 29.7659 69.1655C29.829 69.1655 29.829 69.1655 29.829 69.2285L29.8921 70.1745Z" fill="#CCCCCC"/>
<path d="M32.2252 63.6789C32.2883 63.6789 32.3513 63.7419 32.3513 63.805C32.4144 64.0572 32.4774 64.3726 32.4774 64.6248C32.9819 63.9942 33.6756 63.5527 34.4955 63.5527C34.5585 63.5527 34.6216 63.5527 34.6846 63.5527C34.7477 63.5527 34.7477 63.5527 34.7477 63.6789V64.9401C34.7477 65.0032 34.7477 65.0662 34.6216 65.0662C33.8648 65.0032 33.045 65.3185 32.4774 65.8861V70.3005C32.4774 70.3635 32.4774 70.4266 32.3513 70.4266H30.9009C30.8378 70.4266 30.7747 70.4266 30.7747 70.3005V65.6338C30.7747 65.0032 30.7747 64.2464 30.7117 63.7419C30.7117 63.6789 30.7117 63.6789 30.7747 63.6789H32.2252Z" fill="#CCCCCC"/>
<path d="M40.6127 68.9762C40.6127 69.2915 40.6127 69.5438 40.6758 69.796C40.6758 69.796 40.6758 69.8591 40.6127 69.8591C39.7298 70.3005 38.7208 70.4897 37.7118 70.4897C36.1983 70.4897 34.937 69.8591 34.937 68.2825C34.937 66.7059 36.3244 65.9492 38.9731 66.0753V65.8861C38.9731 65.6338 38.7839 64.8771 37.5857 64.8771C36.955 64.8771 36.2613 65.0663 35.6938 65.3185C35.6307 65.3185 35.5676 65.3185 35.5676 65.2555V64.1834C35.5676 64.1203 35.5676 64.0573 35.6307 64.0573C36.3244 63.742 37.0812 63.5528 37.8379 63.5528C39.1622 63.4266 40.3604 64.3726 40.4866 65.76C40.4866 65.8861 40.4866 66.0753 40.4866 66.2014L40.6127 68.9762ZM38.9731 67.2735C37.1442 67.2104 36.5767 67.5888 36.5767 68.3456C36.5767 68.8501 36.955 69.3546 37.964 69.3546C38.2794 69.3546 38.6577 69.2915 38.9731 69.2284V67.2735Z" fill="#CCCCCC"/>
<path d="M46.3514 70.1113C46.3514 70.1744 46.3514 70.2374 46.2883 70.2374C45.7838 70.4897 45.2163 70.5527 44.6487 70.5527C42.3784 70.5527 41.3063 69.0392 41.3063 67.0843C41.2433 65.1924 42.7568 63.6158 44.5856 63.5527C44.7118 63.5527 44.7748 63.5527 44.9009 63.5527C45.4054 63.5527 45.8469 63.6158 46.2883 63.805C46.3514 63.805 46.3514 63.868 46.3514 63.9311V65.0662C46.3514 65.1293 46.2883 65.1924 46.2253 65.1293C45.8469 64.9401 45.4054 64.8771 44.964 64.8771C43.8919 64.814 42.946 65.6969 42.946 66.769C42.946 66.832 42.946 66.9581 42.946 67.0212C42.8199 68.0302 43.5136 69.0392 44.5856 69.1653C44.7118 69.1653 44.8379 69.1653 44.964 69.1653C45.4054 69.1653 45.8469 69.1023 46.2253 68.9131C46.2883 68.9131 46.3514 68.9131 46.3514 68.9762V70.1113Z" fill="#CCCCCC"/>
<path d="M48.4954 67.2734C48.4954 68.3455 49.1891 69.0392 50.5765 69.0392C51.1441 69.0392 51.7747 68.9131 52.2792 68.7239C52.3423 68.7239 52.3423 68.7239 52.3423 68.7869V69.9221C52.3423 69.9851 52.3423 70.0482 52.2792 70.0482C51.6486 70.3004 50.8918 70.4896 50.1981 70.4266C47.6756 70.4266 46.7927 68.7239 46.7927 66.9581C46.7927 65.0032 47.9909 63.4266 50.0089 63.4266C51.5225 63.3635 52.7837 64.4986 52.8468 65.9491C52.8468 66.0752 52.8468 66.1383 52.8468 66.2644C52.8468 66.832 52.7837 67.1473 52.7207 67.1473C52.2162 67.2104 51.7747 67.2734 51.2702 67.2104L48.4954 67.2734ZM50.7026 66.2014C51.2071 66.2014 51.2702 66.1383 51.3333 66.0752V65.9491C51.3333 65.2554 50.8288 64.6878 50.1351 64.6248C50.072 64.6248 50.072 64.6248 50.0089 64.6248C49.1261 64.6248 48.6216 65.3185 48.5585 66.2014H50.7026Z" fill="#CCCCCC"/>
<path d="M21.1893 60.715C21.1893 60.6519 21.1893 60.5889 21.0631 60.5889H19.6127C19.4866 60.5889 19.4866 60.6519 19.4866 60.715V70.2375C19.4866 70.3006 19.4866 70.3636 19.6127 70.3636H21.0631C21.1262 70.3636 21.1893 70.3006 21.1893 70.2375V60.715Z" fill="#CCCCCC"/>
<path d="M25.919 70.3005C25.0361 69.2284 24.0271 67.9672 23.1442 66.9582C23.1442 66.8951 23.1442 66.8951 23.1442 66.832C23.6487 66.2014 24.973 64.4987 25.4145 63.8681C25.4775 63.805 25.4145 63.7419 25.3514 63.7419H23.8379C23.7748 63.7419 23.7118 63.7419 23.7118 63.805L23.0181 64.814L21.3784 67.0212L22.009 67.841C22.6397 68.6609 23.2703 69.4807 23.8379 70.3005C23.8379 70.3636 23.964 70.4266 24.0271 70.3636H25.8559C25.919 70.4266 25.982 70.3636 25.919 70.3005Z" fill="#CCCCCC"/>
<path d="M42.2524 0.931152C41.9371 0.931152 41.6218 1.12034 41.4956 1.43566L18.0992 53.2735C18.0362 53.3996 18.0362 53.5888 18.2254 53.7149C18.2884 53.778 18.3515 53.778 18.4146 53.778H52.5317C52.847 53.778 53.0362 53.5257 53.0362 53.2735V1.56178C53.0362 1.24647 52.7839 1.05728 52.5317 1.05728L42.2524 0.931152Z" fill="#CCCCCC"/>
<path d="M35.1894 1.43566C35.2524 1.30953 35.2524 1.12034 35.0633 0.994215C35.0002 0.931152 34.9371 0.931152 34.8741 0.931152H0.756943C0.441628 0.931152 0.252441 1.1834 0.252441 1.43566V6.10232C0.252441 6.41764 0.504691 6.60683 0.756943 6.66989H32.2885C32.6038 6.66989 32.9191 6.4807 33.0452 6.16539L35.1894 1.43566Z" fill="#CCCCCC"/>
<path d="M24.5946 24.9581C24.7208 24.832 24.6577 24.6428 24.5316 24.5167C24.4685 24.4536 24.4055 24.4536 24.3424 24.4536H0.88292C0.567604 24.4536 0.378418 24.7059 0.378418 24.9581V29.6248C0.378418 29.9401 0.630667 30.1293 0.88292 30.1293H21.7568C22.0721 30.1293 22.3874 29.9401 22.5136 29.6248L24.5946 24.9581Z" fill="#CCCCCC"/>
<path d="M29.892 13.1653C29.9551 12.9761 29.892 12.7869 29.7659 12.7238C29.7028 12.7238 29.6398 12.6608 29.6398 12.7238H0.819936C0.504621 12.7238 0.31543 12.9761 0.31543 13.2914V17.9581C0.31543 18.2734 0.567684 18.4626 0.819936 18.4626H26.9911C27.3064 18.4626 27.5587 18.2734 27.7479 17.9581L29.892 13.1653Z" fill="#CCCCCC"/>
<path d="M19.2974 36.6879C19.3605 36.5617 19.3605 36.3095 19.1713 36.2464C19.1082 36.1833 19.0452 36.1833 18.9821 36.1833H0.819936C0.504621 36.1833 0.31543 36.4356 0.31543 36.6879V41.3545C0.31543 41.6698 0.567684 41.859 0.819936 41.859H16.3965C16.7118 41.859 17.0271 41.6698 17.1533 41.3545L19.2974 36.6879Z" fill="#CCCCCC"/>
<path d="M13.9371 48.4808C14.0632 48.3547 14.0001 48.1655 13.874 48.0394C13.8109 47.9763 13.7479 47.9763 13.6848 47.9763H0.819936C0.504621 47.9763 0.31543 48.2286 0.31543 48.4808V53.1475C0.31543 53.4628 0.567684 53.652 0.819936 53.652H11.0992C11.4145 53.652 11.7298 53.4628 11.856 53.1475L13.9371 48.4808Z" fill="#CCCCCC"/>
</g>
<defs>
<clipPath id="clip0">
<rect width="53.6036" height="70" fill="white" transform="translate(0 0.741943)"/>
</clipPath>
</defs>
</svg>
