<?xml version="1.0" encoding="UTF-8"?> <!-- Generator: Adobe Illustrator 25.2.2, SVG Export Plug-In . SVG Version: 6.00 Build 0) --> <svg xmlns="http://www.w3.org/2000/svg" xmlns:xlink="http://www.w3.org/1999/xlink" version="1.1" id="Layer_1" x="0px" y="0px" viewBox="0 0 400 245" style="enable-background:new 0 0 400 245;" xml:space="preserve"> <style type="text/css"> .st0{fill:#010101;} .st1{enable-background:new ;} .st2{fill:#DB1F26;} .st3{fill:#7A7A7A;} .st4{fill:#EE3275;} .st5{fill:#EE2837;} .st6{fill:#069BCF;} .st7{fill:none;} .st8{clip-path:url(#SVGID_1_);} .st9{fill-rule:evenodd;clip-rule:evenodd;fill:#F4C117;} .st10{clip-path:url(#SVGID_2_);} .st11{fill-rule:evenodd;clip-rule:evenodd;fill:url(#SVGID_3_);} .st12{fill-rule:evenodd;clip-rule:evenodd;fill:url(#SVGID_4_);} .st13{fill-rule:evenodd;clip-rule:evenodd;fill:url(#SVGID_5_);} .st14{fill-rule:evenodd;clip-rule:evenodd;fill:url(#SVGID_6_);} .st15{fill-rule:evenodd;clip-rule:evenodd;fill:url(#SVGID_7_);} .st16{fill-rule:evenodd;clip-rule:evenodd;fill:url(#SVGID_8_);} .st17{clip-path:url(#SVGID_9_);} .st18{fill-rule:evenodd;clip-rule:evenodd;fill:url(#SVGID_10_);} .st19{fill-rule:evenodd;clip-rule:evenodd;fill:url(#SVGID_11_);} .st20{fill-rule:evenodd;clip-rule:evenodd;fill:url(#SVGID_12_);} .st21{fill-rule:evenodd;clip-rule:evenodd;fill:url(#SVGID_13_);} .st22{fill-rule:evenodd;clip-rule:evenodd;fill:url(#SVGID_14_);} .st23{fill-rule:evenodd;clip-rule:evenodd;fill:url(#SVGID_15_);} .st24{fill:#FFFFFF;} .st25{clip-path:url(#SVGID_16_);} .st26{clip-path:url(#SVGID_17_);} .st27{clip-path:url(#SVGID_18_);} .st28{fill-rule:evenodd;clip-rule:evenodd;fill:url(#SVGID_19_);} .st29{fill-rule:evenodd;clip-rule:evenodd;fill:url(#SVGID_20_);} .st30{fill-rule:evenodd;clip-rule:evenodd;fill:url(#SVGID_21_);} .st31{fill-rule:evenodd;clip-rule:evenodd;fill:url(#SVGID_22_);} .st32{fill-rule:evenodd;clip-rule:evenodd;fill:url(#SVGID_23_);} .st33{fill-rule:evenodd;clip-rule:evenodd;fill:url(#SVGID_24_);} .st34{clip-path:url(#SVGID_25_);} .st35{clip-path:url(#SVGID_26_);} .st36{clip-path:url(#SVGID_27_);} .st37{fill-rule:evenodd;clip-rule:evenodd;fill:url(#SVGID_28_);} .st38{fill-rule:evenodd;clip-rule:evenodd;fill:url(#SVGID_29_);} .st39{fill-rule:evenodd;clip-rule:evenodd;fill:url(#SVGID_30_);} .st40{fill-rule:evenodd;clip-rule:evenodd;fill:url(#SVGID_31_);} .st41{fill-rule:evenodd;clip-rule:evenodd;fill:url(#SVGID_32_);} .st42{fill-rule:evenodd;clip-rule:evenodd;fill:url(#SVGID_33_);} .st43{clip-path:url(#SVGID_34_);} .st44{clip-path:url(#SVGID_35_);} .st45{clip-path:url(#SVGID_36_);} .st46{fill-rule:evenodd;clip-rule:evenodd;fill:url(#SVGID_37_);} .st47{fill-rule:evenodd;clip-rule:evenodd;fill:url(#SVGID_38_);} .st48{fill-rule:evenodd;clip-rule:evenodd;fill:url(#SVGID_39_);} .st49{fill-rule:evenodd;clip-rule:evenodd;fill:url(#SVGID_40_);} .st50{fill-rule:evenodd;clip-rule:evenodd;fill:url(#SVGID_41_);} .st51{fill-rule:evenodd;clip-rule:evenodd;fill:url(#SVGID_42_);} .st52{clip-path:url(#SVGID_43_);} .st53{fill-rule:evenodd;clip-rule:evenodd;fill:#FFFFFF;} .st54{fill-rule:evenodd;clip-rule:evenodd;fill:url(#SVGID_44_);} .st55{fill-rule:evenodd;clip-rule:evenodd;fill:url(#SVGID_45_);} .st56{fill-rule:evenodd;clip-rule:evenodd;fill:url(#SVGID_46_);} .st57{fill-rule:evenodd;clip-rule:evenodd;fill:url(#SVGID_47_);} .st58{fill-rule:evenodd;clip-rule:evenodd;fill:url(#SVGID_48_);} .st59{fill-rule:evenodd;clip-rule:evenodd;fill:url(#SVGID_49_);} .st60{fill-rule:evenodd;clip-rule:evenodd;fill:#40464E;} .st61{fill-rule:evenodd;clip-rule:evenodd;fill:#01AFAA;} .st62{fill:#28203B;} .st63{fill-rule:evenodd;clip-rule:evenodd;fill:#010101;} .st64{fill:#F26B3F;} .st65{display:none;fill:#010101;} .st66{fill:#D72027;} .st67{fill:#ED2224;} .st68{fill:#231815;} .st69{display:none;fill-rule:evenodd;clip-rule:evenodd;fill:#323137;} .st70{fill:#3D3D3C;} .st71{fill:#F09877;} </style> <g> <path class="st70" d="M2.1,81.1C3.5,80.9,5,81,6.5,81c14.9,0,29.7,0,44.6,0c1.8,0,3.6-0.1,5.3,0.1c-1,2.9-2.5,5.9-3.8,8.7 c-1.8,0.1-3.7,0.1-5.5,0.1c-14.4,0-28.9,0-43.3,0c-0.8,0-1.5-0.1-2.3-0.1v-8.5L2.1,81.1L2.1,81.1z"></path> <path class="st71" d="M67.4,81c1.8-0.3,3.7-0.1,5.5-0.1c3.8,0.1,7.6-0.1,11.3,0.1c0.3,2.7,0.1,5.3,0.2,8.2c0,22.2,0,44.5-0.1,66.8 c0,2.3,0.1,4.5-0.1,6.8c-15.2,0-30.5,0-45.7,0c-3,0-6,0.1-8.9-0.1c1-3.1,2.7-6.1,4-9.1c6.1-13.4,12.2-26.9,18.4-40.4 c4.5-10.1,9.2-20.2,13.7-30.3C66.1,82.3,66.5,81.1,67.4,81L67.4,81z"></path> <path class="st70" d="M2,99.3c0.9-0.1,1.9-0.1,2.8-0.1c14.4,0.1,28.9-0.1,43.3,0.1c-0.5,1.8-1.4,3.4-2.2,5.2c-0.5,1-0.8,2-1.4,2.9 c-0.4,0.7-1.3,0.7-2,0.7c-12.9,0-25.8,0-38.7,0c-0.8,0-1.6-0.1-2.3-0.4v-8.3L2,99.3L2,99.3z"></path> <path class="st70" d="M5.9,117.4c10.9,0,21.8,0,32.7,0c0.6,0.1,0.9-0.1,1.2,0.5c-0.5,1.6-1.4,3.1-2,4.7c-0.5,1.1-0.9,2.3-1.6,3.3 c-0.3,0.5-0.9,0.3-1.4,0.4c-10.2,0-20.5,0-30.8,0c-0.8,0-1.5-0.1-2.3-0.3v-8.3C3,117.3,4.4,117.5,5.9,117.4L5.9,117.4z"></path> <path class="st70" d="M361,126.3c0,2.5,0,5,0,7.5c-1.7-0.7-3.3-1.2-5.2-1.4c-2.9-0.2-5.8-0.2-8.4,1.4c-3.1,1.7-5,5-5.4,8.4 c-0.1,2.5-0.3,5.1,0.7,7.4c1,3.1,3.5,5.5,6.7,6.4c4,1.2,7.8,0.5,11.6-0.8c0.1,2.4,0,4.8,0.1,7.2c-2.8,1.4-5.7,1.8-8.8,1.9 c-4.5,0.1-8.9-0.8-12.7-3.4c-4-2.8-6.4-7.5-7-12.3c-0.4-2.3-0.5-4.7-0.1-7c0.5-3.2,1.7-6.1,3.6-8.7c2.5-3.4,6.2-5.7,10.2-6.8 C351.1,124.4,356.4,124.4,361,126.3L361,126.3z"></path> <path class="st70" d="M396.6,133c-1.4-2.8-3.6-5.2-6.5-6.5c-6.7-3.3-15.7-2-20.9,3.5c-3.3,3.6-5.3,8.5-5.1,13.4 c0.1,2.5-0.2,4.9,0.5,7.4c1,4,3.3,7.7,6.8,10c3.9,2.7,9.2,3.5,13.8,3.2c1.9-0.2,3.8-0.3,5.6-0.7c1.6-0.3,3-0.9,4.5-1.6 c0-2.4,0-4.8,0-7.2c-4.3,1.6-9.2,2.6-13.8,1.6c-2.4-0.5-4.6-1.6-6.1-3.6c-1.4-1.8-2-4-2-6.3c7.4-0.1,14.7,0,22.1-0.1 c0.7,0,1.4-0.1,2.1-0.3c0.6-0.7,0.7-1.8,0.8-2.7v-3.8C398,137.1,397.7,135.1,396.6,133z M389.4,140.2c-5.3,0.2-10.7,0.1-16,0.1 c0.7-3,1.5-5.7,4.1-7.6c1.9-1.4,4.1-1.2,6.4-1C387.6,132.3,390.3,136.6,389.4,140.2z"></path> <path class="st70" d="M1.6,136c2-0.2,4-0.1,5.9-0.1c8,0,16-0.1,24,0.1c-0.8,2.3-2,4.5-2.9,6.8c-0.3,0.6-0.6,1.3-1.1,1.8 c-0.9,0.2-1.9,0.1-2.8,0.1c-7,0-13.9,0-20.9,0c-0.8,0-1.5-0.1-2.3-0.1L1.6,136L1.6,136z"></path> <g> <path class="st70" d="M217.6,108.3c-3,0-6-0.1-8.9,0.1c-0.3,0.8-0.3,1.8-0.3,2.7c0.1,17.4,0,34.9,0.1,52.3c3.1,0,6.2,0.1,9.3,0 c0.2-1.8,0.1-3.5,0.1-5.3c0-14.9,0-29.7,0-44.6C217.8,111.6,217.8,109.9,217.6,108.3z"></path> <path class="st70" d="M125.9,136.9c2.9-1.2,5.5-3.1,6.8-6.1c1-2.4,1.4-5.1,0.8-7.6c-0.5-3.1-2.2-5.7-4.8-7.5 c-2.9-1.9-6.8-2.7-10.2-3c-2.2-0.3-4.6-0.1-6.9-0.2c-3.8,0.1-7.5-0.1-11.3,0.2c-0.6,0.1-1.1-0.1-1.5,0.5c0,15.9,0,31.8,0,47.7 c0,0.8,0,1.6,0.1,2.4c6.2,0.1,12.5,0.1,18.7,0c3.3-0.3,6.8-0.9,9.8-2.2c3.1-1.2,5.7-3.3,7.2-6.3c2.2-4.4,1.7-10.5-1.9-14.1 C130.9,138.8,128.5,137.7,125.9,136.9z M107.9,120.1c2.2-0.1,4.5-0.1,6.7-0.1c2.2,0.1,4.2,0,6.3,0.8c1.7,0.7,3.1,2,3.5,3.8 c0.5,2.3,0.3,4.9-1.5,6.5c-1.7,1.8-4.4,2.1-6.7,2.3c-2.8,0.1-5.6,0-8.3,0C107.9,129.1,107.9,124.6,107.9,120.1z M124.3,153.5 c-2,1.8-4.9,2.3-7.4,2.6c-3,0.1-6,0-9,0c0-5,0-10.1,0-15.1c3.9,0.1,8.1-0.3,11.9,0.5c1.8,0.4,3.5,1,4.8,2.3 C126.9,146.5,126.9,150.8,124.3,153.5z"></path> <path class="st70" d="M259.3,125.7c-0.1-1.3,0.1-2.5,0.2-3.8c0.1-2.7,0.1-5.4,0.1-8.2c-2.9,0.6-5.8,1-8.7,1.7 c-0.7,3.4-0.6,6.8-1,10.2c-1.8,0-3.5,0-5.3,0c0,2.2,0,4.4,0,6.7c1.8,0,3.5,0.1,5.3,0.3c0,6.9,0,13.8,0,20.7c0,2,0.3,3.9,1,5.7 c0.9,2.3,3.1,4,5.5,4.6c3.6,0.9,7.6,0.5,11-1c0.1-2.1,0.1-4.2,0-6.3c-2,0.3-3.6,1-5.6,0.3c-2.1-0.6-2.7-2.7-2.7-4.7 c0-6.5,0-12.9,0-19.4c2.9,0.1,5.7-0.3,8.5-0.3c0.1-2.2,0.1-4.4,0-6.7C264.9,125.7,262.1,125.7,259.3,125.7z"></path> <path class="st70" d="M170.3,139.4c0.1-3.1-0.8-6.5-2.7-9.1c-1.6-2.2-3.9-3.8-6.5-4.6c-3.4-1.1-7-1.1-10.5-0.5 c-2.5,0.5-5.1,1.1-7.4,2.2c-0.6,0.3-1.1,0.5-1.2,1.2c-0.2,2.1-0.2,4.4,0.2,6.5c4.1-1.9,8.4-3.1,13-2.6c2.2,0.3,4.1,1.2,5.3,3 c0.8,1.2,0.6,2.5,0.7,3.8c-4.2-0.1-8.3-0.1-12.5,0.9c-2.9,0.7-5.9,1.9-8,4.2c-1.8,2-2.6,4.8-2.5,7.6c0.1,3.4,1.4,6.8,4.2,8.9 c3.3,2.4,7.2,3.1,11.2,3.3c4.8,0,9.7-0.8,14.2-2.6c0.9-0.4,2.2-0.7,2.8-1.6c0.1-1.3-0.3-2.6-0.3-3.9 C170.2,150.5,170.3,145,170.3,139.4z M161.2,152.7c0.1,1.3,0.1,2.5-0.1,3.8c-1.3,0.3-2.5,0.6-3.9,0.6c-2.2,0.1-4.1,0.2-6.1-0.6 c-1.7-0.6-3.3-2-3.6-3.8c-0.2-1.3-0.1-2.8,0.6-3.9c0.7-1.2,2.1-2,3.4-2.4c3.1-1,6.6-0.8,9.7-0.8 C161.3,147.9,161,150.3,161.2,152.7z"></path> <path class="st70" d="M188.4,134.3c2.6-1.9,5.6-2.2,8.7-2c2,0.1,3.8,0.7,5.7,1.4c0.1-2.5,0.1-4.9,0.1-7.4c-4-1.8-8.8-2-13-1 c-4,0.8-7.7,2.7-10.5,5.6c-3.5,3.6-5.4,8.8-5.2,13.8c-0.1,4.4,1,8.8,3.7,12.4c2.3,3.3,5.8,5.3,9.6,6.3c3.2,0.7,6.5,0.9,9.7,0.4 c2-0.2,4-0.7,5.8-1.8c-0.1-2.3,0-4.7-0.1-7c-3.2,1-6.3,1.8-9.7,1.3c-2.5-0.5-5-1.4-6.7-3.4c-1.9-2.2-2.7-5.1-2.9-7.9 C183.7,141.1,185.1,136.7,188.4,134.3z"></path> <path class="st70" d="M288.1,126.3c-2.3,1-4.2,2.7-5.9,4.6c-0.4-1.6-0.5-3.5-1.1-5c-2.8-0.3-5.7-0.1-8.5-0.1 c0.1,1.8,0.4,3.6,0.4,5.4c0.1,10.7,0,21.3,0.1,32c3.1,0.3,6.3,0.1,9.5,0.1c0.1-8.3,0-16.6,0-24.8c-0.1-0.7,0.6-1.1,1-1.5 c3.2-2.5,7.6-3.8,11.6-3.7c0-2.8,0.1-5.6,0-8.4C292.7,124.6,290.4,125.2,288.1,126.3z"></path> <path class="st70" d="M229.9,144.8c-0.3-0.4-0.7-0.8-0.9-1.4c0.3-0.6,0.7-1.1,1-1.6c3.4-4.1,6.7-8.3,9.8-12.6 c0.8-1.1,1.6-2.3,2.3-3.5c-2.4-0.1-4.9,0-7.3-0.1c-0.8,0-1.6-0.1-2.4,0.1c-0.4,0.4-0.7,0.8-1,1.3c-3.8,5.9-8.3,11.4-12.5,17 c4.4,5.9,8.9,11.7,13.2,17.5c0.5,0.5,1,1.5,1.8,1.6c1.5,0.1,3.1,0,4.6,0.1c2.2-0.1,4.4,0.1,6.5-0.1c-0.6-0.9-1.2-1.8-1.9-2.5 C238.6,155.3,234.4,149.9,229.9,144.8z"></path> <path class="st70" d="M328.3,153c0-4.4,0-8.8,0-13.2c0.1-3.3-0.8-6.8-2.7-9.5c-1.6-2.3-4.2-3.9-6.8-4.7c-2.7-0.8-5.5-1-8.2-0.7 c-3.7,0.4-7.2,1.3-10.5,3c0,2.4-0.1,4.8,0,7.2c3.6-1.6,7.1-2.7,11.1-2.7c2.4-0.1,5.1,0.5,6.7,2.3c1.2,1.3,1.4,2.9,1.4,4.6 c-2.3,0-4.8-0.1-7.1,0.1c-3.8,0.4-7.9,1-11.2,3.1c-2.5,1.6-4.3,4.1-4.6,7.1c-0.1,2.7-0.3,5.3,1.1,7.8c1.6,3.1,4.5,4.8,7.8,5.8 c3.5,0.9,7,1.1,10.6,0.7c3.8-0.3,7.5-1.4,11-2.8c0.5-0.3,1.4-0.5,1.6-1C328.6,157.6,328.3,155.3,328.3,153z M319.3,156.4 c-2.5,0.8-5.2,0.8-7.8,0.7c-2.2-0.3-4.6-1.2-5.6-3.4c-1.2-2.5-0.2-5.5,2.3-6.8c3.3-1.7,7.6-1.4,11.2-1.4 C319.3,149.1,319.3,152.8,319.3,156.4z"></path> </g> <path class="st70" d="M1.6,154.2c2.2-0.2,4.4-0.1,6.6-0.1c5,0.1,10-0.1,15,0.1c-1,2.9-2.5,5.7-3.8,8.5c-2.2,0.1-4.4,0.1-6.6,0.1 c-3.7-0.1-7.5,0.1-11.2-0.1L1.6,154.2L1.6,154.2z"></path> </g> </svg> 