<?xml version="1.0" encoding="UTF-8"?> <!-- Generator: Adobe Illustrator 25.2.2, SVG Export Plug-In . SVG Version: 6.00 Build 0) --> <svg xmlns="http://www.w3.org/2000/svg" xmlns:xlink="http://www.w3.org/1999/xlink" version="1.1" id="Layer_1" x="0px" y="0px" viewBox="0 0 400 245" style="enable-background:new 0 0 400 245;" xml:space="preserve"> <style type="text/css"> .st0{fill:#010101;} .st1{enable-background:new ;} .st2{fill:#DB1F26;} .st3{fill:#7A7A7A;} .st4{fill:#EE3275;} .st5{fill:#EE2837;} .st6{fill:#069BCF;} .st7{fill:none;} .st8{clip-path:url(#SVGID_1_);} .st9{fill-rule:evenodd;clip-rule:evenodd;fill:#F4C117;} .st10{clip-path:url(#SVGID_2_);} .st11{fill-rule:evenodd;clip-rule:evenodd;fill:url(#SVGID_3_);} .st12{fill-rule:evenodd;clip-rule:evenodd;fill:url(#SVGID_4_);} .st13{fill-rule:evenodd;clip-rule:evenodd;fill:url(#SVGID_5_);} .st14{fill-rule:evenodd;clip-rule:evenodd;fill:url(#SVGID_6_);} .st15{fill-rule:evenodd;clip-rule:evenodd;fill:url(#SVGID_7_);} .st16{fill-rule:evenodd;clip-rule:evenodd;fill:url(#SVGID_8_);} .st17{clip-path:url(#SVGID_9_);} .st18{fill-rule:evenodd;clip-rule:evenodd;fill:url(#SVGID_10_);} .st19{fill-rule:evenodd;clip-rule:evenodd;fill:url(#SVGID_11_);} .st20{fill-rule:evenodd;clip-rule:evenodd;fill:url(#SVGID_12_);} .st21{fill-rule:evenodd;clip-rule:evenodd;fill:url(#SVGID_13_);} .st22{fill-rule:evenodd;clip-rule:evenodd;fill:url(#SVGID_14_);} .st23{fill-rule:evenodd;clip-rule:evenodd;fill:url(#SVGID_15_);} .st24{fill:#FFFFFF;} .st25{clip-path:url(#SVGID_16_);} .st26{clip-path:url(#SVGID_17_);} .st27{clip-path:url(#SVGID_18_);} .st28{fill-rule:evenodd;clip-rule:evenodd;fill:url(#SVGID_19_);} .st29{fill-rule:evenodd;clip-rule:evenodd;fill:url(#SVGID_20_);} .st30{fill-rule:evenodd;clip-rule:evenodd;fill:url(#SVGID_21_);} .st31{fill-rule:evenodd;clip-rule:evenodd;fill:url(#SVGID_22_);} .st32{fill-rule:evenodd;clip-rule:evenodd;fill:url(#SVGID_23_);} .st33{fill-rule:evenodd;clip-rule:evenodd;fill:url(#SVGID_24_);} .st34{clip-path:url(#SVGID_25_);} .st35{clip-path:url(#SVGID_26_);} .st36{clip-path:url(#SVGID_27_);} .st37{fill-rule:evenodd;clip-rule:evenodd;fill:url(#SVGID_28_);} .st38{fill-rule:evenodd;clip-rule:evenodd;fill:url(#SVGID_29_);} .st39{fill-rule:evenodd;clip-rule:evenodd;fill:url(#SVGID_30_);} .st40{fill-rule:evenodd;clip-rule:evenodd;fill:url(#SVGID_31_);} .st41{fill-rule:evenodd;clip-rule:evenodd;fill:url(#SVGID_32_);} .st42{fill-rule:evenodd;clip-rule:evenodd;fill:url(#SVGID_33_);} .st43{clip-path:url(#SVGID_34_);} .st44{clip-path:url(#SVGID_35_);} .st45{clip-path:url(#SVGID_36_);} .st46{fill-rule:evenodd;clip-rule:evenodd;fill:url(#SVGID_37_);} .st47{fill-rule:evenodd;clip-rule:evenodd;fill:url(#SVGID_38_);} .st48{fill-rule:evenodd;clip-rule:evenodd;fill:url(#SVGID_39_);} .st49{fill-rule:evenodd;clip-rule:evenodd;fill:url(#SVGID_40_);} .st50{fill-rule:evenodd;clip-rule:evenodd;fill:url(#SVGID_41_);} .st51{fill-rule:evenodd;clip-rule:evenodd;fill:url(#SVGID_42_);} .st52{clip-path:url(#SVGID_43_);} .st53{fill-rule:evenodd;clip-rule:evenodd;fill:#FFFFFF;} .st54{fill-rule:evenodd;clip-rule:evenodd;fill:url(#SVGID_44_);} .st55{fill-rule:evenodd;clip-rule:evenodd;fill:url(#SVGID_45_);} .st56{fill-rule:evenodd;clip-rule:evenodd;fill:url(#SVGID_46_);} .st57{fill-rule:evenodd;clip-rule:evenodd;fill:url(#SVGID_47_);} .st58{fill-rule:evenodd;clip-rule:evenodd;fill:url(#SVGID_48_);} .st59{fill-rule:evenodd;clip-rule:evenodd;fill:url(#SVGID_49_);} .st60{fill-rule:evenodd;clip-rule:evenodd;fill:#40464E;} .st61{fill-rule:evenodd;clip-rule:evenodd;fill:#01AFAA;} .st62{fill:#28203B;} .st63{fill-rule:evenodd;clip-rule:evenodd;fill:#010101;} .st64{fill:#F26B3F;} .st65{display:none;fill:#010101;} .st66{fill:#D72027;} .st67{fill:#ED2224;} .st68{fill:#231815;} .st69{display:none;fill-rule:evenodd;clip-rule:evenodd;fill:#323137;} .st70{fill:#3D3D3C;} .st71{fill:#F09877;} </style> <rect x="-6.1" y="-267.7" class="st65" width="428.2" height="281.9"></rect> <g> <rect x="84.4" y="6.9" class="st53" width="231.1" height="231.1"></rect> <g> <path class="st63" d="M301.1,20H98.9l-1.3,1.2v202.2l2,1.6h201l1.7-1.9v-202L301.1,20z M295.6,217.7H103.9V26h191.7V217.7z"></path> <rect x="103.9" y="26" class="st69" width="191.7" height="191.7"></rect> <path class="st63" d="M278.4,29.1c-8.1,0-14.7,6.6-14.7,14.7s6.6,14.7,14.7,14.7c8.1,0,14.7-6.6,14.7-14.7S286.5,29.1,278.4,29.1z M278.5,55.8c-6.6,0-11.9-5.3-11.9-11.9S271.9,32,278.5,32s11.9,5.3,11.9,11.9S285.1,55.8,278.5,55.8z"></path> <path class="st63" d="M255.7,61.4c-6.7,0-12.2,5.5-12.2,12.2s5.5,12.2,12.2,12.2s12.2-5.5,12.2-12.2S262.4,61.4,255.7,61.4z M255.8,83c-5.2,0-9.4-4.2-9.4-9.4s4.2-9.4,9.4-9.4c5.2,0,9.4,4.2,9.4,9.4S260.9,83,255.8,83z"></path> <path class="st63" d="M279.5,79.9c-4.7,0-8.6,3.9-8.6,8.6s3.9,8.6,8.6,8.6s8.6-3.9,8.6-8.6S284.2,79.9,279.5,79.9z M279.5,94.4 c-3.2,0-5.8-2.6-5.8-5.8c0-3.2,2.6-5.8,5.8-5.8c3.2,0,5.8,2.6,5.8,5.8C285.4,91.8,282.8,94.4,279.5,94.4z"></path> <path class="st63" d="M267.8,106.5c-2,0-3.7,1.6-3.7,3.7c0,2,1.6,3.7,3.7,3.7c2,0,3.7-1.6,3.7-3.7 C271.5,108.1,269.8,106.5,267.8,106.5z M267.9,111.9c-0.9,0-1.6-0.7-1.6-1.6c0-0.9,0.7-1.6,1.6-1.6s1.6,0.7,1.6,1.6 C269.5,111.1,268.8,111.9,267.9,111.9z"></path> <path class="st63" d="M252.8,132c-3.5,0-27.2,0-27.2,0s-3.2-0.4-3.2,2.5v28.7c0,0,0.1,2.5-3.1,2.5c-3.2,0-38.7,0-38.7,0 s-2.7-0.2-2.7-2.5v-39.9l0,0c0,0,0-39.8,0-42c0-2.2,2.7-2.5,2.7-2.5s35.5,0,38.7,0s3.1,2.5,3.1,2.5V110c0,2.8,3.2,2.5,3.2,2.5 s23.7,0,27.2,0s3.3-2.7,3.3-2.7s0-51.9,0-54s-2.7-2.4-2.7-2.4s-104,0-106.5,0c-2.5,0-3.1,2.5-3.1,2.5v132.9c0,0,0.6,2.5,3.1,2.5 s106.5,0,106.5,0s2.7-0.3,2.7-2.4c0-2.1,0-54,0-54S256.4,132,252.8,132z"></path> <path class="st63" d="M121.6,49.6v-8.3c0,0-0.1-0.7-0.9-1.3c-0.8-0.6-1.2-0.5-1.2-0.5h-5.8c0,0-0.9-0.1-0.9-0.9c0-0.8,0-3.2,0-3.2 s-0.1-0.7,1-0.7c1.1,0,6.9,0,6.9,0s0.9,0.1,0.9-0.7s0-2.6,0-2.6s-0.3-0.8-1.1-0.8s-9.3,0-9.3,0s-1.2,0.1-2.2,0.9 c-0.9,0.8-0.7,1.7-0.7,1.7v16.2c0,0-0.2,1.2,1.1,2.2c1.3,1,2.5,0.7,2.5,0.7h7.1c0,0,1.5,0.3,2.3-0.9 C122,50.2,121.6,49.6,121.6,49.6z M117.2,47.7c0,0.3-0.2,0.5-0.5,0.5h-3.6c-0.3,0-0.5-0.2-0.5-0.5v-3.9c0-0.3,0.2-0.5,0.5-0.5h3.6 c0.3,0,0.5,0.2,0.5,0.5V47.7z"></path> </g> </g> </svg> 