<?xml version="1.0" encoding="UTF-8"?> <!-- Generator: Adobe Illustrator 25.2.2, SVG Export Plug-In . SVG Version: 6.00 Build 0) --> <svg xmlns="http://www.w3.org/2000/svg" xmlns:xlink="http://www.w3.org/1999/xlink" version="1.1" id="Layer_1" x="0px" y="0px" viewBox="0 0 400 245" style="enable-background:new 0 0 400 245;" xml:space="preserve"> <style type="text/css"> .st0{fill:#010101;} .st1{enable-background:new ;} .st2{fill:#DB1F26;} .st3{fill:#7A7A7A;} .st4{fill:#EE3275;} .st5{fill:#EE2837;} .st6{fill:#069BCF;} .st7{fill:none;} .st8{clip-path:url(#SVGID_1_);} .st9{fill-rule:evenodd;clip-rule:evenodd;fill:#F4C117;} .st10{clip-path:url(#SVGID_2_);} .st11{fill-rule:evenodd;clip-rule:evenodd;fill:url(#SVGID_3_);} .st12{fill-rule:evenodd;clip-rule:evenodd;fill:url(#SVGID_4_);} .st13{fill-rule:evenodd;clip-rule:evenodd;fill:url(#SVGID_5_);} .st14{fill-rule:evenodd;clip-rule:evenodd;fill:url(#SVGID_6_);} .st15{fill-rule:evenodd;clip-rule:evenodd;fill:url(#SVGID_7_);} .st16{fill-rule:evenodd;clip-rule:evenodd;fill:url(#SVGID_8_);} .st17{clip-path:url(#SVGID_9_);} .st18{fill-rule:evenodd;clip-rule:evenodd;fill:url(#SVGID_10_);} .st19{fill-rule:evenodd;clip-rule:evenodd;fill:url(#SVGID_11_);} .st20{fill-rule:evenodd;clip-rule:evenodd;fill:url(#SVGID_12_);} .st21{fill-rule:evenodd;clip-rule:evenodd;fill:url(#SVGID_13_);} .st22{fill-rule:evenodd;clip-rule:evenodd;fill:url(#SVGID_14_);} .st23{fill-rule:evenodd;clip-rule:evenodd;fill:url(#SVGID_15_);} .st24{fill:#FFFFFF;} .st25{clip-path:url(#SVGID_16_);} .st26{clip-path:url(#SVGID_17_);} .st27{clip-path:url(#SVGID_18_);} .st28{fill-rule:evenodd;clip-rule:evenodd;fill:url(#SVGID_19_);} .st29{fill-rule:evenodd;clip-rule:evenodd;fill:url(#SVGID_20_);} .st30{fill-rule:evenodd;clip-rule:evenodd;fill:url(#SVGID_21_);} .st31{fill-rule:evenodd;clip-rule:evenodd;fill:url(#SVGID_22_);} .st32{fill-rule:evenodd;clip-rule:evenodd;fill:url(#SVGID_23_);} .st33{fill-rule:evenodd;clip-rule:evenodd;fill:url(#SVGID_24_);} .st34{clip-path:url(#SVGID_25_);} .st35{clip-path:url(#SVGID_26_);} .st36{clip-path:url(#SVGID_27_);} .st37{fill-rule:evenodd;clip-rule:evenodd;fill:url(#SVGID_28_);} .st38{fill-rule:evenodd;clip-rule:evenodd;fill:url(#SVGID_29_);} .st39{fill-rule:evenodd;clip-rule:evenodd;fill:url(#SVGID_30_);} .st40{fill-rule:evenodd;clip-rule:evenodd;fill:url(#SVGID_31_);} .st41{fill-rule:evenodd;clip-rule:evenodd;fill:url(#SVGID_32_);} .st42{fill-rule:evenodd;clip-rule:evenodd;fill:url(#SVGID_33_);} .st43{clip-path:url(#SVGID_34_);} .st44{clip-path:url(#SVGID_35_);} .st45{clip-path:url(#SVGID_36_);} .st46{fill-rule:evenodd;clip-rule:evenodd;fill:url(#SVGID_37_);} .st47{fill-rule:evenodd;clip-rule:evenodd;fill:url(#SVGID_38_);} .st48{fill-rule:evenodd;clip-rule:evenodd;fill:url(#SVGID_39_);} .st49{fill-rule:evenodd;clip-rule:evenodd;fill:url(#SVGID_40_);} .st50{fill-rule:evenodd;clip-rule:evenodd;fill:url(#SVGID_41_);} .st51{fill-rule:evenodd;clip-rule:evenodd;fill:url(#SVGID_42_);} .st52{clip-path:url(#SVGID_43_);} .st53{fill-rule:evenodd;clip-rule:evenodd;fill:#FFFFFF;} .st54{fill-rule:evenodd;clip-rule:evenodd;fill:url(#SVGID_44_);} .st55{fill-rule:evenodd;clip-rule:evenodd;fill:url(#SVGID_45_);} .st56{fill-rule:evenodd;clip-rule:evenodd;fill:url(#SVGID_46_);} .st57{fill-rule:evenodd;clip-rule:evenodd;fill:url(#SVGID_47_);} .st58{fill-rule:evenodd;clip-rule:evenodd;fill:url(#SVGID_48_);} .st59{fill-rule:evenodd;clip-rule:evenodd;fill:url(#SVGID_49_);} .st60{fill-rule:evenodd;clip-rule:evenodd;fill:#40464E;} .st61{fill-rule:evenodd;clip-rule:evenodd;fill:#01AFAA;} .st62{fill:#28203B;} .st63{fill-rule:evenodd;clip-rule:evenodd;fill:#010101;} .st64{fill:#F26B3F;} .st65{display:none;fill:#010101;} .st66{fill:#D72027;} .st67{fill:#ED2224;} .st68{fill:#231815;} .st69{display:none;fill-rule:evenodd;clip-rule:evenodd;fill:#323137;} .st70{fill:#3D3D3C;} .st71{fill:#F09877;} </style> <g> <path class="st67" d="M119.5,100.6h24v7.7h-15.2v8.7h13.1v7.6h-13.1v15.5h-8.9L119.5,100.6z M147.2,126.2v-25.6h8.9v25.5 c0,4.9,2.8,7,6,7c3.1,0,5.9-2.1,5.9-7v-25.5h8.9v25.6c0,9.6-6.2,14.6-14.8,14.6C153.4,140.8,147.2,135.8,147.2,126.2L147.2,126.2z M199.2,108.3v31.8h-8.9v-31.8h-9.7v-7.8h28.3v7.8H199.2z M212.8,126.2v-25.6h8.9v25.5c0,4.9,2.8,7,6,7c3.1,0,5.9-2.1,5.9-7v-25.5 h8.9v25.6c0,9.6-6.2,14.6-14.8,14.6C219,140.8,212.8,135.8,212.8,126.2L212.8,126.2z M268,123.9l7.9,16.2h-10.1l-6.3-13.6h-3.7 v13.6H247v-39.6h13.3c8,0,12.8,4.7,12.8,12.2C273.1,117.6,270.3,121.3,268,123.9z M255.9,118.9h6c1.4-1.7,2.2-3.7,2.2-5.9 c0-2.4-1.2-4.7-4-4.7h-4.2V118.9z M278.9,100.6h24.3v7.7h-15.4v7.8h13.1v7.6h-13.1v8.7h15.5v7.7h-24.4L278.9,100.6z"></path> <path class="st68" d="M341.3,123.5l0.5,5.4h0.3l0.5-6l4.3-22.4h9l-8.7,39.9h-10.3l-4.9-23.8l-0.3-4.7h-0.5l-0.4,4.7l-5,23.8h-10.1 l-8.8-39.9h9.4l4.3,22.9l0.4,5.5h0.4l0.4-5.4l4.8-22.9h9.8L341.3,123.5z M359.6,100.6h24.3v7.7h-15.4v7.8h13.1v7.6h-13.1v8.7H384 v7.7h-24.4V100.6z M388.9,140.1v-39.6h8.7v39.6H388.9z M260.1,153.5l-0.2,0.9c0,0.2-0.1,0.3-0.3,0.3h-5.4l-2.8,17.7 c0,0.2-0.2,0.3-0.3,0.3h-1c-0.2,0-0.3-0.1-0.2-0.3l2.8-17.7h-5.3c-0.2,0-0.3-0.1-0.2-0.3l0.1-0.9c0-0.2,0.1-0.3,0.3-0.3h12.2 C260,153.2,260.1,153.3,260.1,153.5L260.1,153.5z M269.6,162.1c0,0.5-0.1,1-0.2,1.4l-0.3,1.8c0,0.4-0.3,0.6-0.7,0.6c0,0,0,0-0.1,0 H260l-0.2,1.5c-0.1,0.4-0.1,0.7-0.1,1.1c0,2.1,1.2,3.1,3.2,3.1c1.7,0.1,3.3-0.7,4.1-2.2c0.1-0.2,0.3-0.2,0.5-0.1l0.7,0.4 c0.2,0.1,0.2,0.3,0.1,0.5c-1.1,1.9-3.2,3-5.4,2.9c-3.1,0-4.7-1.7-4.7-4.3c0-0.4,0-0.8,0.1-1.1l0.7-4.4c0.3-3.1,2.9-5.4,6-5.3 C267.8,157.9,269.6,159.6,269.6,162.1L269.6,162.1z M268.1,162.3c0-2-1.2-3-3.2-3c-2.3,0-4,1.4-4.4,4.1l-0.2,1.4h7.5l0.2-1.3 C268,163.1,268.1,162.7,268.1,162.3z M283.5,161.2c0.1,0.3,0,0.4-0.2,0.5l-0.9,0.3c-0.1,0.1-0.3,0-0.3-0.1c0,0,0,0,0-0.1 c-0.2-1.5-1.5-2.6-3-2.5c-2.3,0-3.8,1.4-4.3,4.2l-0.6,3.9c-0.1,0.4-0.1,0.7-0.1,1.1c-0.2,1.5,0.9,2.9,2.4,3.1c0.2,0,0.4,0,0.7,0 c1.7,0.1,3.3-0.9,3.9-2.5c0.1-0.2,0.2-0.3,0.4-0.2l0.8,0.3c0.2,0.1,0.2,0.2,0.1,0.4c-0.9,2.1-3,3.5-5.3,3.4c-2.9,0-4.5-1.6-4.5-4.3 c0-0.4,0-0.8,0.1-1.2l0.7-4.2c0.5-3.3,2.5-5.5,5.7-5.5C281.2,157.7,283.1,159.1,283.5,161.2L283.5,161.2z M297.5,161.6 c0,0.4,0,0.8-0.1,1.1l-1.5,9.8c0,0.2-0.1,0.3-0.3,0.3c0,0,0,0,0,0h-0.9c-0.2,0-0.3-0.1-0.3-0.3l1.5-9.5c0.1-0.4,0.1-0.8,0.1-1.1 c0.2-1.2-0.6-2.3-1.8-2.5c-0.2,0-0.4,0-0.6,0c-1.7,0-3.6,1.4-4.7,3.5l-1.5,9.6c0,0.2-0.2,0.3-0.3,0.3h-1c-0.2,0-0.3-0.1-0.2-0.3 l3.1-19.6c0-0.2,0.2-0.3,0.3-0.3h1c0.2,0,0.3,0.1,0.2,0.3l-1.3,7.8c1.1-1.6,2.9-2.6,4.8-2.7c1.8-0.1,3.4,1.2,3.6,3.1 C297.5,161.2,297.5,161.4,297.5,161.6L297.5,161.6z M312.4,161.6c0,0.4,0,0.8-0.1,1.1l-1.5,9.8c0,0.2-0.1,0.3-0.3,0.3c0,0,0,0,0,0 h-0.9c-0.2,0-0.3-0.1-0.3-0.3l1.5-9.5c0.1-0.4,0.1-0.8,0.1-1.1c0.2-1.2-0.6-2.3-1.8-2.5c-0.2,0-0.4,0-0.6,0c-1.7,0-3.6,1.4-4.7,3.5 l-1.5,9.7c0,0.2-0.1,0.3-0.3,0.3c0,0,0,0,0,0h-0.9c-0.2,0-0.3-0.1-0.3-0.3l2.2-14c0-0.2,0.2-0.3,0.3-0.3h0.9c0.2,0,0.3,0.1,0.2,0.3 l-0.3,2.2c1.1-1.6,2.9-2.7,4.8-2.8c1.8-0.1,3.4,1.2,3.6,3.1C312.4,161.2,312.4,161.4,312.4,161.6L312.4,161.6z M327.5,162.2 c0,0.4,0,0.8-0.1,1.2l-0.7,4.2c-0.2,3.2-3,5.6-6.2,5.4c-3.1,0-4.8-1.7-4.8-4.3c0-0.4,0-0.8,0.1-1.2l0.7-4.3 c0.5-3.4,2.6-5.4,6.1-5.4C325.7,157.9,327.5,159.7,327.5,162.2z M318,163.5l-0.6,4c-0.1,0.4-0.1,0.7-0.1,1.1c0,2,1.3,3.1,3.4,3.1 c2.4,0.1,4.4-1.7,4.6-4.1l0.6-3.8c0.1-0.4,0.1-0.8,0.1-1.2c0-2-1.3-3.1-3.4-3.1C320.2,159.3,318.5,160.7,318,163.5z M335,152.8 l-3.1,19.6c0,0.2-0.2,0.3-0.3,0.3h-1c-0.2,0-0.3-0.1-0.2-0.3l3.1-19.6c0-0.2,0.2-0.3,0.3-0.3h1C335,152.6,335.1,152.7,335,152.8z M348.8,162.2c0,0.4,0,0.8-0.1,1.2l-0.7,4.2c-0.2,3.2-3,5.6-6.2,5.4c-3.1,0-4.8-1.7-4.8-4.3c0-0.4,0-0.8,0.1-1.2l0.7-4.3 c0.5-3.4,2.6-5.4,6.1-5.4C347,157.9,348.8,159.7,348.8,162.2z M339.3,163.5l-0.6,4c-0.1,0.4-0.1,0.7-0.1,1.1c0,2,1.3,3.1,3.4,3.1 c2.4,0.1,4.4-1.7,4.6-4.1l0.6-3.8c0.1-0.4,0.1-0.8,0.1-1.2c0-2-1.3-3.1-3.4-3.1C341.5,159.3,339.8,160.7,339.3,163.5L339.3,163.5z M364,159.8l-2,12.6c-0.7,4.1-3.2,6-6.3,6c-1.8,0.1-3.4-0.7-4.6-1.9c-0.1-0.1-0.1-0.3,0-0.4c0,0,0,0,0,0l0.5-0.6 c0.1-0.1,0.3-0.2,0.4-0.1c0,0,0.1,0,0.1,0.1c0.9,1,2.2,1.6,3.6,1.6c2.4,0,4.3-1.3,4.8-4.7l0.4-2.6c-1.1,1.9-3,3.1-5.2,3.3 c-2.4,0-3.7-1.5-3.7-4c0-0.4,0-0.9,0.1-1.3l0.7-4.2c0.5-3.2,2.5-5.3,5.8-5.3c1.8,0,3.6,0.5,5.2,1.2 C364.1,159.4,364.1,159.5,364,159.8L364,159.8z M362.4,160.3c-1.2-0.5-2.5-0.8-3.8-0.8c-2.4,0-3.9,1.5-4.3,4l-0.6,3.9 c-0.1,0.4-0.1,0.8-0.1,1.3c0,1.9,0.9,2.8,2.5,2.8c1.7,0,3.7-1.3,5.1-4L362.4,160.3z M370.6,158.4l-2.2,14c0,0.2-0.2,0.3-0.3,0.3h-1 c-0.2,0-0.3-0.1-0.2-0.3l2.2-14c0-0.2,0.2-0.3,0.3-0.3h1C370.5,158.2,370.6,158.3,370.6,158.4z M371.5,152.9l-0.4,2.6 c0,0.2-0.2,0.3-0.3,0.3h-0.9c-0.2,0-0.3-0.1-0.2-0.3l0.4-2.6c0-0.2,0.2-0.3,0.4-0.3h0.9C371.4,152.6,371.5,152.7,371.5,152.9 L371.5,152.9z M384.9,162.1c0,0.5-0.1,1-0.2,1.4l-0.3,1.8c0,0.4-0.3,0.6-0.7,0.6c0,0,0,0,0,0h-8.3l-0.2,1.5 c-0.1,0.4-0.1,0.7-0.1,1.1c0,2.1,1.2,3.1,3.2,3.1c1.7,0.1,3.3-0.7,4.1-2.2c0.1-0.2,0.3-0.2,0.5-0.1l0.7,0.4 c0.2,0.1,0.2,0.3,0.1,0.5c-1.1,1.9-3.2,3-5.4,2.9c-3.1,0-4.7-1.7-4.7-4.3c0-0.4,0-0.8,0.1-1.1l0.7-4.4c0.3-3.1,2.9-5.4,6-5.3 C383.1,157.9,384.9,159.6,384.9,162.1L384.9,162.1z M383.4,162.3c0-2-1.2-3-3.2-3c-2.3,0-4,1.4-4.4,4.1l-0.2,1.4h7.5l0.2-1.3 C383.3,163.1,383.4,162.7,383.4,162.3z M398,161.1c0,0.2,0,0.3-0.3,0.4l-0.7,0.2c-0.2,0.1-0.3,0-0.4-0.2c-0.1-1.4-1.4-2.5-2.8-2.3 c0,0-0.1,0-0.1,0c-2.7,0-3.5,1.5-3.5,2.7c0,1.4,1.3,1.9,3.1,2.6c2.2,0.9,3.9,1.8,3.9,4c0,2.1-1.5,4.5-5.2,4.5 c-2.6,0-4.5-1.3-4.8-3.4c-0.1-0.3,0-0.4,0.2-0.4l0.7-0.2c0.2-0.1,0.3,0,0.4,0.2c0.2,1.6,1.5,2.5,3.4,2.5c2.7,0,3.7-1.7,3.7-3 c0-1.5-1.3-2.1-3.3-2.8c-2.2-0.9-3.7-1.8-3.7-3.9c0-1.8,1.4-4,5-4C396.1,157.9,397.7,159.2,398,161.1L398,161.1z"></path> <circle class="st67" cx="89.6" cy="157.7" r="5.2"></circle> <circle class="st67" cx="96.1" cy="142.2" r="4.6"></circle> <circle class="st67" cx="98.1" cy="127.1" r="4.2"></circle> <circle class="st67" cx="94.6" cy="113.1" r="3.8"></circle> <circle class="st67" cx="87.2" cy="103.4" r="3.4"></circle> <circle class="st67" cx="77.9" cy="96.7" r="3"></circle> <circle class="st67" cx="68.4" cy="93.7" r="2.7"></circle> <circle class="st67" cx="59.4" cy="95.1" r="2.5"></circle> <circle class="st67" cx="51.7" cy="99.1" r="2.2"></circle> <circle class="st67" cx="46.6" cy="105.1" r="2"></circle> <circle class="st67" cx="46.5" cy="113.1" r="1.8"></circle> <circle class="st67" cx="73.3" cy="71.8" r="5.2"></circle> <circle class="st67" cx="56.7" cy="73.9" r="4.6"></circle> <circle class="st67" cx="42.6" cy="79.8" r="4.2"></circle> <circle class="st67" cx="32.3" cy="89.9" r="3.8"></circle> <circle class="st67" cx="27.6" cy="101.1" r="3.4"></circle> <circle class="st67" cx="26.4" cy="112.5" r="3"></circle> <circle class="st67" cx="28.5" cy="122.2" r="2.7"></circle> <circle class="st67" cx="34.3" cy="129.3" r="2.5"></circle> <circle class="st67" cx="41.6" cy="134" r="2.2"></circle> <circle class="st67" cx="49.3" cy="135.4" r="2"></circle> <circle class="st67" cx="56.3" cy="131.5" r="1.8"></circle> <circle class="st67" cx="7.2" cy="128.9" r="5.2"></circle> <circle class="st67" cx="17.3" cy="142.2" r="4.6"></circle> <circle class="st67" cx="29.4" cy="151.5" r="4.2"></circle> <circle class="st67" cx="43.3" cy="155.4" r="3.8"></circle> <circle class="st67" cx="55.4" cy="153.9" r="3.4"></circle> <circle class="st67" cx="65.8" cy="149.2" r="3"></circle> <circle class="st67" cx="73.2" cy="142.5" r="2.7"></circle> <circle class="st67" cx="76.4" cy="134" r="2.5"></circle> <circle class="st67" cx="76.8" cy="125.3" r="2.2"></circle> <circle class="st67" cx="74.2" cy="117.9" r="2"></circle> <circle class="st67" cx="67.4" cy="113.8" r="1.8"></circle> </g> </svg> 