<?xml version="1.0" encoding="UTF-8"?> <!-- Generator: Adobe Illustrator 25.2.2, SVG Export Plug-In . SVG Version: 6.00 Build 0) --> <svg xmlns="http://www.w3.org/2000/svg" xmlns:xlink="http://www.w3.org/1999/xlink" version="1.1" id="Layer_1" x="0px" y="0px" viewBox="0 0 400 245" style="enable-background:new 0 0 400 245;" xml:space="preserve"> <style type="text/css"> .st0{fill:#010101;} .st1{enable-background:new ;} .st2{fill:#DB1F26;} .st3{fill:#7A7A7A;} .st4{fill:#EE3275;} .st5{fill:#EE2837;} .st6{fill:#069BCF;} .st7{fill:none;} .st8{clip-path:url(#SVGID_1_);} .st9{fill-rule:evenodd;clip-rule:evenodd;fill:#F4C117;} .st10{clip-path:url(#SVGID_2_);} .st11{fill-rule:evenodd;clip-rule:evenodd;fill:url(#SVGID_3_);} .st12{fill-rule:evenodd;clip-rule:evenodd;fill:url(#SVGID_4_);} .st13{fill-rule:evenodd;clip-rule:evenodd;fill:url(#SVGID_5_);} .st14{fill-rule:evenodd;clip-rule:evenodd;fill:url(#SVGID_6_);} .st15{fill-rule:evenodd;clip-rule:evenodd;fill:url(#SVGID_7_);} .st16{fill-rule:evenodd;clip-rule:evenodd;fill:url(#SVGID_8_);} .st17{clip-path:url(#SVGID_9_);} .st18{fill-rule:evenodd;clip-rule:evenodd;fill:url(#SVGID_10_);} .st19{fill-rule:evenodd;clip-rule:evenodd;fill:url(#SVGID_11_);} .st20{fill-rule:evenodd;clip-rule:evenodd;fill:url(#SVGID_12_);} .st21{fill-rule:evenodd;clip-rule:evenodd;fill:url(#SVGID_13_);} .st22{fill-rule:evenodd;clip-rule:evenodd;fill:url(#SVGID_14_);} .st23{fill-rule:evenodd;clip-rule:evenodd;fill:url(#SVGID_15_);} .st24{fill:#FFFFFF;} .st25{clip-path:url(#SVGID_16_);} .st26{clip-path:url(#SVGID_17_);} .st27{clip-path:url(#SVGID_18_);} .st28{fill-rule:evenodd;clip-rule:evenodd;fill:url(#SVGID_19_);} .st29{fill-rule:evenodd;clip-rule:evenodd;fill:url(#SVGID_20_);} .st30{fill-rule:evenodd;clip-rule:evenodd;fill:url(#SVGID_21_);} .st31{fill-rule:evenodd;clip-rule:evenodd;fill:url(#SVGID_22_);} .st32{fill-rule:evenodd;clip-rule:evenodd;fill:url(#SVGID_23_);} .st33{fill-rule:evenodd;clip-rule:evenodd;fill:url(#SVGID_24_);} .st34{clip-path:url(#SVGID_25_);} .st35{clip-path:url(#SVGID_26_);} .st36{clip-path:url(#SVGID_27_);} .st37{fill-rule:evenodd;clip-rule:evenodd;fill:url(#SVGID_28_);} .st38{fill-rule:evenodd;clip-rule:evenodd;fill:url(#SVGID_29_);} .st39{fill-rule:evenodd;clip-rule:evenodd;fill:url(#SVGID_30_);} .st40{fill-rule:evenodd;clip-rule:evenodd;fill:url(#SVGID_31_);} .st41{fill-rule:evenodd;clip-rule:evenodd;fill:url(#SVGID_32_);} .st42{fill-rule:evenodd;clip-rule:evenodd;fill:url(#SVGID_33_);} .st43{clip-path:url(#SVGID_34_);} .st44{clip-path:url(#SVGID_35_);} .st45{clip-path:url(#SVGID_36_);} .st46{fill-rule:evenodd;clip-rule:evenodd;fill:url(#SVGID_37_);} .st47{fill-rule:evenodd;clip-rule:evenodd;fill:url(#SVGID_38_);} .st48{fill-rule:evenodd;clip-rule:evenodd;fill:url(#SVGID_39_);} .st49{fill-rule:evenodd;clip-rule:evenodd;fill:url(#SVGID_40_);} .st50{fill-rule:evenodd;clip-rule:evenodd;fill:url(#SVGID_41_);} .st51{fill-rule:evenodd;clip-rule:evenodd;fill:url(#SVGID_42_);} .st52{clip-path:url(#SVGID_43_);} .st53{fill-rule:evenodd;clip-rule:evenodd;fill:#FFFFFF;} .st54{fill-rule:evenodd;clip-rule:evenodd;fill:url(#SVGID_44_);} .st55{fill-rule:evenodd;clip-rule:evenodd;fill:url(#SVGID_45_);} .st56{fill-rule:evenodd;clip-rule:evenodd;fill:url(#SVGID_46_);} .st57{fill-rule:evenodd;clip-rule:evenodd;fill:url(#SVGID_47_);} .st58{fill-rule:evenodd;clip-rule:evenodd;fill:url(#SVGID_48_);} .st59{fill-rule:evenodd;clip-rule:evenodd;fill:url(#SVGID_49_);} .st60{fill-rule:evenodd;clip-rule:evenodd;fill:#40464E;} .st61{fill-rule:evenodd;clip-rule:evenodd;fill:#01AFAA;} .st62{fill:#28203B;} .st63{fill-rule:evenodd;clip-rule:evenodd;fill:#010101;} .st64{fill:#F26B3F;} .st65{display:none;fill:#010101;} .st66{fill:#D72027;} .st67{fill:#ED2224;} .st68{fill:#231815;} .st69{display:none;fill-rule:evenodd;clip-rule:evenodd;fill:#323137;} .st70{fill:#3D3D3C;} .st71{fill:#F09877;} </style> <rect x="-6.1" y="-2.7" class="st65" width="428.2" height="281.9"></rect> <g> <path class="st0" d="M14.5,88.6c2.6-2.4,5.9-3.6,9.9-3.6c4.1,0,7.7,0.8,10.6,2.5l0.8,0.4v-5.7l-0.4-0.1c-2.9-1.2-6.5-1.8-10.6-1.8 c-5.9,0-10.7,1.7-14.5,5.1c-3.8,3.4-5.7,7.8-5.7,13.1c0,5.2,1.7,9.5,5.2,12.6c3.4,3.1,7.9,4.7,13.5,4.7c4.8,0,9.1-1,12.9-2.9 l0.2-0.1v-16H22.5v4.8h7.9v8.2c-1.6,0.9-4.1,1.3-6.8,1.3c-4,0-7.2-1.1-9.5-3.4c-2.3-2.2-3.5-5.4-3.5-9.5 C10.6,94.2,11.9,91,14.5,88.6z"></path> <path class="st0" d="M78.2,104.6l4,10.1h5.3l-14.7-36h-5.6l-14.7,36h5.1l4-10.1H78.2z M63.3,99.8l6.5-16l6.5,16H63.3z"></path> <polygon class="st0" points="142.6,114.6 142.6,78.7 135.5,78.7 123.6,104.7 111.7,78.7 105,78.7 105,114.6 109.8,114.6 109.8,85.7 121.2,110.9 126,110.9 137.3,85.5 137.3,114.6 "></polygon> <polygon class="st0" points="190.2,82.9 190.2,78.7 164.8,78.7 164.8,114.6 190.7,114.6 190.7,109.9 170.1,109.9 170.1,98.8 189.7,98.8 189.7,94 170.1,94 170.1,82.9 "></polygon> <path class="st0" d="M225.7,100.4c8,0,12.8-4,12.8-10.8c0-6.9-4.8-10.9-12.8-10.9h-13.8v36h5.3v-14.3H225.7z M225.6,82.9 c5.2,0,7.9,2.2,7.9,6.3s-2.7,6.3-7.9,6.3h-8.4V82.9H225.6z"></path> <path class="st0" d="M293.6,96.5c0-10.8-7.8-18.6-18.5-18.6c-10.7,0-18.5,7.8-18.5,18.6c0,10.8,7.8,18.6,18.5,18.6 C285.8,115.1,293.6,107.3,293.6,96.5z M275.1,82.7c7.8,0,13.4,5.8,13.4,13.8c0,8-5.7,13.8-13.4,13.8c-7.8,0-13.4-5.8-13.4-13.8 C261.7,88.5,267.3,82.7,275.1,82.7z"></path> <path class="st0" d="M330.7,82.7c4.4,0,8.3,2,10.5,5.5l0.2,0.4l4.1-2.8l-0.2-0.4c-2.8-4.6-8.4-7.5-14.7-7.5 c-10.7,0-18.5,7.8-18.5,18.6c0,10.8,7.8,18.6,18.5,18.6c6.1,0,11.5-2.7,14.6-7.3l0.2-0.4l-4-3l-0.3,0.4c-2.3,3.5-6.2,5.4-10.6,5.4 c-7.8,0-13.4-5.8-13.4-13.8C317.3,88.5,322.9,82.7,330.7,82.7z"></path> <polygon class="st0" points="365.8,78.7 365.8,114.6 370.6,114.6 370.6,98.8 391.2,98.8 391.2,114.6 396,114.6 396,78.7 391.2,78.7 391.2,94 370.6,94 370.6,78.7 "></polygon> <path class="st66" d="M201.8,153.6c-107.1,0-193.9,29-193.9,29s86.8-22.3,193.9-22.3s193.9,22.3,193.9,22.3 S308.9,153.6,201.8,153.6z"></path> </g> </svg> 