<?xml version="1.0" encoding="UTF-8"?> <!-- Generator: Adobe Illustrator 25.2.2, SVG Export Plug-In . SVG Version: 6.00 Build 0) --> <svg xmlns="http://www.w3.org/2000/svg" xmlns:xlink="http://www.w3.org/1999/xlink" version="1.1" id="Layer_1" x="0px" y="0px" viewBox="0 0 400 245" style="enable-background:new 0 0 400 245;" xml:space="preserve"> <style type="text/css"> .st0{fill:#010101;} .st1{enable-background:new ;} .st2{fill:#DB1F26;} .st3{fill:#7A7A7A;} .st4{fill:#EE3275;} .st5{fill:#EE2837;} .st6{fill:#069BCF;} .st7{fill:none;} .st8{clip-path:url(#SVGID_1_);} .st9{fill-rule:evenodd;clip-rule:evenodd;fill:#F4C117;} .st10{clip-path:url(#SVGID_2_);} .st11{fill-rule:evenodd;clip-rule:evenodd;fill:url(#SVGID_3_);} .st12{fill-rule:evenodd;clip-rule:evenodd;fill:url(#SVGID_4_);} .st13{fill-rule:evenodd;clip-rule:evenodd;fill:url(#SVGID_5_);} .st14{fill-rule:evenodd;clip-rule:evenodd;fill:url(#SVGID_6_);} .st15{fill-rule:evenodd;clip-rule:evenodd;fill:url(#SVGID_7_);} .st16{fill-rule:evenodd;clip-rule:evenodd;fill:url(#SVGID_8_);} .st17{clip-path:url(#SVGID_9_);} .st18{fill-rule:evenodd;clip-rule:evenodd;fill:url(#SVGID_10_);} .st19{fill-rule:evenodd;clip-rule:evenodd;fill:url(#SVGID_11_);} .st20{fill-rule:evenodd;clip-rule:evenodd;fill:url(#SVGID_12_);} .st21{fill-rule:evenodd;clip-rule:evenodd;fill:url(#SVGID_13_);} .st22{fill-rule:evenodd;clip-rule:evenodd;fill:url(#SVGID_14_);} .st23{fill-rule:evenodd;clip-rule:evenodd;fill:url(#SVGID_15_);} .st24{fill:#FFFFFF;} .st25{clip-path:url(#SVGID_16_);} .st26{clip-path:url(#SVGID_17_);} .st27{clip-path:url(#SVGID_18_);} .st28{fill-rule:evenodd;clip-rule:evenodd;fill:url(#SVGID_19_);} .st29{fill-rule:evenodd;clip-rule:evenodd;fill:url(#SVGID_20_);} .st30{fill-rule:evenodd;clip-rule:evenodd;fill:url(#SVGID_21_);} .st31{fill-rule:evenodd;clip-rule:evenodd;fill:url(#SVGID_22_);} .st32{fill-rule:evenodd;clip-rule:evenodd;fill:url(#SVGID_23_);} .st33{fill-rule:evenodd;clip-rule:evenodd;fill:url(#SVGID_24_);} .st34{clip-path:url(#SVGID_25_);} .st35{clip-path:url(#SVGID_26_);} .st36{clip-path:url(#SVGID_27_);} .st37{fill-rule:evenodd;clip-rule:evenodd;fill:url(#SVGID_28_);} .st38{fill-rule:evenodd;clip-rule:evenodd;fill:url(#SVGID_29_);} .st39{fill-rule:evenodd;clip-rule:evenodd;fill:url(#SVGID_30_);} .st40{fill-rule:evenodd;clip-rule:evenodd;fill:url(#SVGID_31_);} .st41{fill-rule:evenodd;clip-rule:evenodd;fill:url(#SVGID_32_);} .st42{fill-rule:evenodd;clip-rule:evenodd;fill:url(#SVGID_33_);} .st43{clip-path:url(#SVGID_34_);} .st44{clip-path:url(#SVGID_35_);} .st45{clip-path:url(#SVGID_36_);} .st46{fill-rule:evenodd;clip-rule:evenodd;fill:url(#SVGID_37_);} .st47{fill-rule:evenodd;clip-rule:evenodd;fill:url(#SVGID_38_);} .st48{fill-rule:evenodd;clip-rule:evenodd;fill:url(#SVGID_39_);} .st49{fill-rule:evenodd;clip-rule:evenodd;fill:url(#SVGID_40_);} .st50{fill-rule:evenodd;clip-rule:evenodd;fill:url(#SVGID_41_);} .st51{fill-rule:evenodd;clip-rule:evenodd;fill:url(#SVGID_42_);} .st52{clip-path:url(#SVGID_43_);} .st53{fill-rule:evenodd;clip-rule:evenodd;fill:#FFFFFF;} .st54{fill-rule:evenodd;clip-rule:evenodd;fill:url(#SVGID_44_);} .st55{fill-rule:evenodd;clip-rule:evenodd;fill:url(#SVGID_45_);} .st56{fill-rule:evenodd;clip-rule:evenodd;fill:url(#SVGID_46_);} .st57{fill-rule:evenodd;clip-rule:evenodd;fill:url(#SVGID_47_);} .st58{fill-rule:evenodd;clip-rule:evenodd;fill:url(#SVGID_48_);} .st59{fill-rule:evenodd;clip-rule:evenodd;fill:url(#SVGID_49_);} .st60{fill-rule:evenodd;clip-rule:evenodd;fill:#40464E;} .st61{fill-rule:evenodd;clip-rule:evenodd;fill:#01AFAA;} .st62{fill:#28203B;} .st63{fill-rule:evenodd;clip-rule:evenodd;fill:#010101;} .st64{fill:#F26B3F;} .st65{display:none;fill:#010101;} .st66{fill:#D72027;} .st67{fill:#ED2224;} .st68{fill:#231815;} .st69{display:none;fill-rule:evenodd;clip-rule:evenodd;fill:#323137;} .st70{fill:#3D3D3C;} .st71{fill:#F09877;} </style> <path class="st63" d="M346.5,105.1c0-4.3-3.5-7.8-7.8-7.8c0,0,0,0,0,0h-0.2c-1.1,0-2,0.9-2,2c0,0,0,0,0,0v5.8c0,1.2,1,2.3,2.3,2.3 l0,0h5.6C345.5,107.3,346.5,106.3,346.5,105.1C346.5,105.1,346.5,105.1,346.5,105.1z M304.2,118.5c-1.3-3.7-4.7-6.2-8.6-6.2h-3.1 c-0.6,0-1,0.4-1,1c0,0.1,0,0.2,0.1,0.4l14.1,37.6c0.3,0.9,1.2,1.5,2.1,1.5h7c0.9,0,1.8-0.6,2.1-1.5l14-37.6c0.2-0.5-0.1-1.1-0.6-1.3 c-0.1,0-0.2-0.1-0.3-0.1h-8c-1,0-1.9,0.6-2.2,1.6l-8.6,25.2L304.2,118.5L304.2,118.5z M386.9,124.7c0-1.3-1-2.3-2.3-2.3H369 c-1.3,0-2.3,1-2.3,2.3v15.7c0,1.3,1,2.3,2.3,2.3h15.7c1.2,0,2.3-1,2.3-2.2c0,0,0,0,0,0V124.7z M397,106.3v41.9c0,2.5-2,4.5-4.5,4.5 c0,0,0,0,0,0h-26.8c-5,0-9.1-4.1-9.1-9.1l0,0v-22.2c0-5,4.1-9.1,9.1-9.1l0,0h21.2V98.2c0-0.6,0.5-1,1-1c0,0,0,0,0,0 C392.9,97.2,397,101.3,397,106.3C397,106.3,397,106.3,397,106.3z M205.2,125.3c0,1.2,1,2.3,2.3,2.3c0,0,0,0,0,0h15.7 c1.3,0,2.3-1,2.3-2.3v-0.5c0-1.3-1-2.3-2.3-2.3h-15.7c-1.3,0-2.3,1-2.3,2.3V125.3z M226.4,137.6h-21.2v0.5c0,2.5,2,4.5,4.5,4.5l0,0 h24.7c0.6,0,1,0.5,1,1v0c0,5-4.1,9.1-9.1,9.1l0,0h-22.2c-5,0-9.1-4-9.1-9c0,0,0,0,0,0v-22.2c0-5,4.1-9.1,9.1-9.1l0,0h22.2 c5,0,9.1,4.1,9.1,9.1v0v7.1C235.5,133.6,231.4,137.6,226.4,137.6L226.4,137.6z M276.8,112.4h-26.7c-2.5,0-4.5,2-4.5,4.5l0,0v26.8 c0,5,4.1,9.1,9.1,9.1l0,0c0.6,0,1-0.5,1-1l0,0v-27c0-1.3,1-2.3,2.3-2.3h15.7c1.3,0,2.3,1,2.3,2.3v18.9c0,5,4.1,9.1,9.1,9.1l0,0 c0.6,0,1-0.4,1-1c0,0,0,0,0,0v-30.3C286,116.4,281.9,112.4,276.8,112.4L276.8,112.4z M174.9,140.4v-15.7c0-1.3-1-2.3-2.3-2.3H157 c-1.3,0-2.3,1-2.3,2.3v15.7c0,1.2,1,2.3,2.2,2.3c0,0,0,0,0,0h15.7C173.9,142.7,174.9,141.6,174.9,140.4z M185,116.9v41.9 c0,5-4.1,9.1-9.1,9.1l0,0h-25.7c-0.3,0-0.5-0.2-0.5-0.5c0,0,0,0,0,0c0-5.3,4.3-9.6,9.6-9.6c0,0,0,0,0,0h15.7v-5.1h-21.2 c-5,0-9.1-4-9.1-9.1c0,0,0,0,0,0v-22.2c0-5,4.1-9.1,9.1-9.1h26.7C182.9,112.4,185,114.4,185,116.9L185,116.9L185,116.9z M344.3,152.7h-5.6c-1.2,0-2.3-1-2.3-2.3l0,0v-35.9c0-1.2,1-2.3,2.3-2.3l0,0h5.6c1.2,0,2.3,1,2.3,2.3c0,0,0,0,0,0v35.9 C346.5,151.7,345.5,152.7,344.3,152.7C344.3,152.7,344.3,152.7,344.3,152.7z"></path> <path class="st64" d="M74.8,132.6h-9.1l-4.6-4.6H33.8l9.1-9.1l-4.6-4.6l-9.1,9.1l-9.1,9.1l9.1,9.1l9.1,9.1l4.6-4.6l-9.1-9.1H52 l7.1,7.1c1.1,1.1,1.1,2.9,0,4l-2.6,2.6l-9.1,9.1l-7.1,7.1c-1.1,1.1-2.9,1.1-4,0l-7.1-7.1l-9.1-9l-9.1-9.1l-7.1-7.1 c-1.1-1.1-1.1-2.9,0-4l7.1-7.1l9.1-9.1l9.1-9.1l7.1-7.1c1.1-1.1,2.9-1.1,4,0l7.1,7.1l18.2,18.2l4.6,4.6L74.8,132.6z M70.3,137.1 l-4.6-4.6h-9.1l4.6,4.6l4.6,4.6 M65.7,141.7L84,159.9l7.1,7.1c1.1,1.1,2.9,1.1,4,0l7.1-7.1l9.1-9.1l9.1-9.1l7.1-7.1 c1.1-1.1,1.1-2.9,0-4l-7.1-7.1l-9-9.1l-9.2-9.1L95.1,98c-1.1-1.1-2.9-1.1-4,0l-7.1,7.1l-9.1,9.1l-2.6,2.6c-1.1,1.1-1.1,2.9,0,4 l7.1,7.1h18.3l-9.1-9.1l4.6-4.6l9.1,9.1l9.1,9.1l-9.1,9.1l-9.1,9.1l-4.6-4.6l9.1-9.1H70.3"></path> </svg> 