<?xml version="1.0" encoding="UTF-8"?> <!-- Generator: Adobe Illustrator 25.2.2, SVG Export Plug-In . SVG Version: 6.00 Build 0) --> <svg xmlns="http://www.w3.org/2000/svg" xmlns:xlink="http://www.w3.org/1999/xlink" version="1.1" id="Layer_1" x="0px" y="0px" viewBox="0 0 400 245" style="enable-background:new 0 0 400 245;" xml:space="preserve"> <style type="text/css"> .st0{fill:#010101;} .st1{enable-background:new ;} .st2{fill:#DB1F26;} .st3{fill:#7A7A7A;} .st4{fill:#EE3275;} .st5{fill:#EE2837;} .st6{fill:#069BCF;} .st7{fill:none;} .st8{clip-path:url(#SVGID_1_);} .st9{fill-rule:evenodd;clip-rule:evenodd;fill:#F4C117;} .st10{clip-path:url(#SVGID_2_);} .st11{fill-rule:evenodd;clip-rule:evenodd;fill:url(#SVGID_3_);} .st12{fill-rule:evenodd;clip-rule:evenodd;fill:url(#SVGID_4_);} .st13{fill-rule:evenodd;clip-rule:evenodd;fill:url(#SVGID_5_);} .st14{fill-rule:evenodd;clip-rule:evenodd;fill:url(#SVGID_6_);} .st15{fill-rule:evenodd;clip-rule:evenodd;fill:url(#SVGID_7_);} .st16{fill-rule:evenodd;clip-rule:evenodd;fill:url(#SVGID_8_);} .st17{clip-path:url(#SVGID_9_);} .st18{fill-rule:evenodd;clip-rule:evenodd;fill:url(#SVGID_10_);} .st19{fill-rule:evenodd;clip-rule:evenodd;fill:url(#SVGID_11_);} .st20{fill-rule:evenodd;clip-rule:evenodd;fill:url(#SVGID_12_);} .st21{fill-rule:evenodd;clip-rule:evenodd;fill:url(#SVGID_13_);} .st22{fill-rule:evenodd;clip-rule:evenodd;fill:url(#SVGID_14_);} .st23{fill-rule:evenodd;clip-rule:evenodd;fill:url(#SVGID_15_);} .st24{fill:#FFFFFF;} .st25{clip-path:url(#SVGID_16_);} .st26{clip-path:url(#SVGID_17_);} .st27{clip-path:url(#SVGID_18_);} .st28{fill-rule:evenodd;clip-rule:evenodd;fill:url(#SVGID_19_);} .st29{fill-rule:evenodd;clip-rule:evenodd;fill:url(#SVGID_20_);} .st30{fill-rule:evenodd;clip-rule:evenodd;fill:url(#SVGID_21_);} .st31{fill-rule:evenodd;clip-rule:evenodd;fill:url(#SVGID_22_);} .st32{fill-rule:evenodd;clip-rule:evenodd;fill:url(#SVGID_23_);} .st33{fill-rule:evenodd;clip-rule:evenodd;fill:url(#SVGID_24_);} .st34{clip-path:url(#SVGID_25_);} .st35{clip-path:url(#SVGID_26_);} .st36{clip-path:url(#SVGID_27_);} .st37{fill-rule:evenodd;clip-rule:evenodd;fill:url(#SVGID_28_);} .st38{fill-rule:evenodd;clip-rule:evenodd;fill:url(#SVGID_29_);} .st39{fill-rule:evenodd;clip-rule:evenodd;fill:url(#SVGID_30_);} .st40{fill-rule:evenodd;clip-rule:evenodd;fill:url(#SVGID_31_);} .st41{fill-rule:evenodd;clip-rule:evenodd;fill:url(#SVGID_32_);} .st42{fill-rule:evenodd;clip-rule:evenodd;fill:url(#SVGID_33_);} .st43{clip-path:url(#SVGID_34_);} .st44{clip-path:url(#SVGID_35_);} .st45{clip-path:url(#SVGID_36_);} .st46{fill-rule:evenodd;clip-rule:evenodd;fill:url(#SVGID_37_);} .st47{fill-rule:evenodd;clip-rule:evenodd;fill:url(#SVGID_38_);} .st48{fill-rule:evenodd;clip-rule:evenodd;fill:url(#SVGID_39_);} .st49{fill-rule:evenodd;clip-rule:evenodd;fill:url(#SVGID_40_);} .st50{fill-rule:evenodd;clip-rule:evenodd;fill:url(#SVGID_41_);} .st51{fill-rule:evenodd;clip-rule:evenodd;fill:url(#SVGID_42_);} .st52{clip-path:url(#SVGID_43_);} .st53{fill-rule:evenodd;clip-rule:evenodd;fill:#FFFFFF;} .st54{fill-rule:evenodd;clip-rule:evenodd;fill:url(#SVGID_44_);} .st55{fill-rule:evenodd;clip-rule:evenodd;fill:url(#SVGID_45_);} .st56{fill-rule:evenodd;clip-rule:evenodd;fill:url(#SVGID_46_);} .st57{fill-rule:evenodd;clip-rule:evenodd;fill:url(#SVGID_47_);} .st58{fill-rule:evenodd;clip-rule:evenodd;fill:url(#SVGID_48_);} .st59{fill-rule:evenodd;clip-rule:evenodd;fill:url(#SVGID_49_);} .st60{fill-rule:evenodd;clip-rule:evenodd;fill:#40464E;} .st61{fill-rule:evenodd;clip-rule:evenodd;fill:#01AFAA;} .st62{fill:#28203B;} .st63{fill-rule:evenodd;clip-rule:evenodd;fill:#010101;} .st64{fill:#F26B3F;} .st65{display:none;fill:#010101;} .st66{fill:#D72027;} .st67{fill:#ED2224;} .st68{fill:#231815;} .st69{display:none;fill-rule:evenodd;clip-rule:evenodd;fill:#323137;} .st70{fill:#3D3D3C;} .st71{fill:#F09877;} </style> <path class="st62" d="M170.2,125.5h-13.9c-0.3,0-0.6,0.3-0.6,0.6v14c0,0.7-0.5,1.2-1.2,1.2h-5.7c-0.7,0-1.2-0.5-1.2-1.2v-35.3 c0-0.7,0.5-1.2,1.2-1.2h5.7c0.7,0,1.2,0.5,1.2,1.2v13.3c0,0.3,0.3,0.6,0.6,0.6c0,0,0,0,0,0h13.9c0.3,0,0.6-0.3,0.6-0.6l0,0v-13.3 c0-0.7,0.5-1.2,1.2-1.2h5.6c0.7,0,1.2,0.5,1.2,1.2v35.3c0,0.7-0.5,1.2-1.2,1.2H172c-0.7,0-1.2-0.5-1.2-1.2v-14 C170.8,125.8,170.5,125.5,170.2,125.5z M224.3,141.4h-5.8c-0.5,0-1-0.3-1.1-0.8l-2.2-6.8c-0.1-0.2-0.3-0.4-0.6-0.4h-12.7 c-0.3,0-0.5,0.2-0.6,0.4l-2.2,6.8c-0.2,0.5-0.6,0.8-1.1,0.8h-5.4c-0.7,0-1.2-0.5-1.2-1.2c0-0.1,0-0.3,0.1-0.4l12.1-35.3 c0.2-0.5,0.6-0.8,1.1-0.8h7.6c0.5,0,1,0.3,1.1,0.8l12.1,35.3c0.2,0.6-0.1,1.3-0.7,1.5C224.6,141.3,224.5,141.4,224.3,141.4 L224.3,141.4z M208.1,111.4l-4.6,14.4c-0.1,0.3,0.1,0.7,0.4,0.8c0.1,0,0.1,0,0.2,0h8.4c0.3,0,0.6-0.3,0.6-0.6c0-0.1,0-0.1,0-0.2 l-4.8-14.4H208.1z M250.3,141.4h-11c-0.7,0-1.2-0.5-1.2-1.2c0,0,0,0,0,0v-35.3c0-0.7,0.5-1.2,1.2-1.2c0,0,0,0,0,0h11.5 c12.5,0,19.3,6.5,19.3,18.4C270.1,135,263.5,141.4,250.3,141.4L250.3,141.4z M249.9,110.4h-3.3c-0.3,0-0.6,0.3-0.6,0.6c0,0,0,0,0,0 v22.9c0,0.3,0.3,0.6,0.6,0.6h3.2c8.6,0,12-3.5,12-12.3C261.9,114.2,258,110.4,249.9,110.4z M285,103.6h21.5c0.7,0,1.2,0.5,1.2,1.2 v4.5c0,0.7-0.5,1.2-1.2,1.2h-14c-0.3,0-0.6,0.3-0.6,0.6c0,0,0,0,0,0v6.8c0,0.3,0.3,0.6,0.6,0.6l0,0h12c0.7,0,1.2,0.5,1.2,1.2 c0,0,0,0,0,0v4.6c0,0.7-0.5,1.2-1.2,1.2c0,0,0,0,0,0h-12c-0.3,0-0.6,0.3-0.6,0.6c0,0,0,0,0,0v7.8c0,0.3,0.3,0.6,0.6,0.6l0,0h14.2 c0.6,0,1.2,0.5,1.2,1.1v4.5c0,0.7-0.5,1.2-1.2,1.2H285c-0.7,0-1.2-0.5-1.2-1.2c0,0,0,0,0,0v-35.3C283.8,104.2,284.3,103.6,285,103.6 z M353.2,141.4h-5.8c-0.5,0-1-0.3-1.1-0.8l-2.2-6.8c-0.1-0.2-0.3-0.4-0.6-0.4h-12.7c-0.3,0-0.5,0.2-0.6,0.4l-2.2,6.8 c-0.2,0.5-0.6,0.8-1.1,0.8h-5.4c-0.7,0-1.2-0.6-1.2-1.2c0-0.1,0-0.2,0.1-0.4l12.1-35.3c0.2-0.5,0.6-0.8,1.1-0.8h7.6 c0.5,0,1,0.3,1.1,0.8l12.1,35.3c0.2,0.6-0.1,1.3-0.7,1.5C353.4,141.3,353.3,141.4,353.2,141.4z M336.9,111.4l-4.7,14.4 c-0.1,0.3,0.1,0.7,0.4,0.8c0.1,0,0.1,0,0.2,0h8.4c0.3,0,0.6-0.3,0.6-0.6c0-0.1,0-0.1,0-0.2l-4.8-14.4H336.9z M374.9,116.8h-0.1v23.3 c0,0.7-0.5,1.2-1.2,1.2h-5.5c-0.7,0-1.2-0.5-1.2-1.2v-35.3c0-0.7,0.5-1.2,1.2-1.2h6.9c0.4,0,0.8,0.2,1,0.5l14.5,22.6h0.2v-21.9 c0-0.7,0.5-1.2,1.2-1.2c0,0,0,0,0,0h5.5c0.7,0,1.2,0.5,1.2,1.2v35.3c0,0.7-0.5,1.2-1.2,1.2h-6c-0.4,0-0.8-0.2-1-0.6L374.9,116.8z M102.7,161.5L55.6,79.8c-1-1.8-3.3-2.4-5.1-1.4c-0.6,0.3-1,0.8-1.4,1.4L2,161.5c-1,1.8-0.4,4,1.4,5.1c0.6,0.3,1.2,0.5,1.9,0.5h94.2 c2.1,0,3.7-1.7,3.7-3.7C103.2,162.7,103,162,102.7,161.5z M15,152.6l14.6-25.3c0.2-0.4,0.8-0.6,1.2-0.3l14.6,8.4 c0.4,0.3,0.5,0.8,0.3,1.2c-0.1,0.1-0.2,0.2-0.3,0.3l-29.3,16.9c-0.4,0.2-1,0-1.2-0.4C14.9,153.2,14.9,152.9,15,152.6z M49.6,159.4 c0,0.5-0.4,0.9-0.9,0.9H19.4c-0.5,0-0.9-0.5-0.8-1c0-0.3,0.2-0.5,0.4-0.7l29.3-16.9c0.4-0.2,1-0.1,1.2,0.4c0.1,0.1,0.1,0.2,0.1,0.4 L49.6,159.4z M49.6,129.8c0,0.5-0.4,0.9-0.9,0.8c-0.1,0-0.3,0-0.4-0.1l-14.6-8.4c-0.4-0.2-0.5-0.8-0.3-1.2l14.6-25.3 c0.3-0.4,0.8-0.5,1.2-0.3c0.2,0.2,0.4,0.4,0.4,0.7V129.8z M55.1,96.1c0.1-0.5,0.5-0.8,1-0.8c0.2,0,0.4,0.1,0.6,0.3L71.4,121 c0.2,0.4,0.1,0.9-0.3,1.2l-14.6,8.4c-0.4,0.2-1,0.1-1.2-0.4c-0.1-0.1-0.1-0.2-0.1-0.4L55.1,96.1z M85.2,160.2H56 c-0.5,0-0.9-0.4-0.9-0.9v-16.9c0-0.5,0.4-0.9,0.9-0.9c0.1,0,0.3,0,0.4,0.1l29.3,16.9c0.4,0.3,0.5,0.8,0.3,1.2 C85.8,160.1,85.5,160.2,85.2,160.2z M88.4,153.8l-29.3-16.9c-0.4-0.3-0.5-0.8-0.3-1.2c0.1-0.1,0.2-0.2,0.3-0.3l14.7-8.4 c0.4-0.2,0.9-0.1,1.2,0.3l14.6,25.3c0.2,0.4,0,1-0.4,1.2C89,153.9,88.7,153.9,88.4,153.8L88.4,153.8z"></path> </svg> 