<svg width="224" height="72" viewBox="0 0 224 72" fill="none" xmlns="http://www.w3.org/2000/svg">
<path d="M89.4179 46.1436H84.7488V25.651H89.4179V33.9544H99.8081V25.651H104.477V46.1417H99.8081V37.5658H89.4179V46.1436ZM112.944 37.9222C112.944 41.5469 114.088 43.0563 117.949 43.0563C121.81 43.0563 122.904 41.5317 122.904 37.9222V25.6491H127.569V38.0365C127.809 39.967 127.35 41.9185 126.273 43.5384C124.444 45.5433 121.789 46.3685 117.93 46.3685C114.071 46.3685 111.382 45.5433 109.56 43.5384C108.538 42.4369 108.287 40.6322 108.287 38.0365V25.6491H112.924L112.944 37.9222ZM142.832 25.6491L152.285 46.1417H147.115L145.076 41.2592H135.432L133.456 46.1417H128.495L137.881 25.6491H142.832ZM136.93 37.6096H143.543L140.176 29.735L136.93 37.6096ZM183.896 25.651L177.035 46.1417H171.318L166.611 30.8651L162.475 46.1627H156.786L149.398 25.672H154.41L159.556 41.425L163.882 25.672H169.384L174.354 41.425L179.143 25.672L183.896 25.651ZM190.194 33.983H203.11V37.5353H190.151C190.175 41.2172 191.751 42.5551 195.43 42.5551H203.091V46.1246H195.212C192.765 46.3532 190.314 45.7186 188.291 44.3274C187.107 43.3616 186.179 42.1203 185.587 40.7121C184.994 39.304 184.757 37.7721 184.894 36.2508C184.894 29.0089 188.201 25.6357 195.338 25.6357H203.089V29.2071H195.428C192.066 29.2052 190.368 30.7432 190.177 33.9677L190.194 33.983ZM207.222 25.651H212.101V46.1436H207.222V25.651Z" fill="#0A0808"/>
<path d="M39.4113 49.4424C39.4799 49.3853 39.5009 49.29 39.4647 49.208C34.6959 38.9743 28.7512 29.331 21.7507 20.473C21.7507 20.473 16.1859 25.752 16.5803 31.05C16.7698 33.5187 17.93 35.8117 19.8068 37.4266C24.6608 42.1586 36.4155 48.1313 39.1502 49.4825C39.236 49.5301 39.3446 49.5129 39.4132 49.4443L39.4113 49.4424ZM37.5951 53.4922C37.577 53.4399 37.543 53.3946 37.4979 53.3625C37.4528 53.3304 37.3989 53.3131 37.3436 53.313V53.3092L17.7714 53.9915C19.8926 57.7763 23.4887 60.715 27.1916 59.8136C29.7606 59.1713 35.5846 55.1102 37.4827 53.7399V53.7342C37.6294 53.6008 37.578 53.4941 37.578 53.4941L37.5951 53.4922ZM37.8905 51.7332C37.9858 51.5807 37.8143 51.4473 37.8143 51.4473L37.8162 51.4397C29.2403 45.6462 12.5611 36.7406 12.5611 36.7406C11.6595 39.5315 11.8498 42.5606 13.0937 45.2167C14.3376 47.8729 16.5425 49.9584 19.2637 51.0528C20.459 51.5265 21.7228 51.8045 23.0066 51.8761C23.3 51.9333 34.6469 51.8818 37.6847 51.8685C37.7705 51.8589 37.8467 51.8075 37.8867 51.7313L37.8905 51.7332ZM39.1903 12.0229C38.3365 12.0991 36.0381 12.6213 36.0381 12.6213C33.0023 13.395 30.582 15.68 29.631 18.6625C29.0938 20.6979 29.103 22.8389 29.6577 24.8696C31.3862 32.5422 39.8992 45.1545 41.7249 47.7997C41.8545 47.9293 41.9612 47.8816 41.9612 47.8816C42.0718 47.8549 42.148 47.752 42.1423 47.6377H42.1461C44.959 19.4839 39.1922 12 39.1922 12L39.1903 12.0229ZM45.666 47.874C45.7728 47.9178 45.8947 47.8721 45.9481 47.7692H45.95C47.8291 45.0516 56.2887 32.5098 58.0077 24.8696C58.5223 22.8342 58.5337 20.7036 58.0401 18.6625C57.566 17.1879 56.7229 15.8589 55.5909 14.8016C54.4589 13.7443 53.0755 12.9938 51.572 12.6213C51.572 12.6213 50.076 12.2439 48.4904 12.021C48.4904 12.021 42.6892 19.4877 45.5098 47.6586H45.5136C45.5155 47.7539 45.5746 47.8397 45.666 47.8721V47.874ZM50.297 53.3302C50.297 53.3302 50.1064 53.3531 50.076 53.4788C50.0531 53.5741 50.0817 53.677 50.1522 53.7456C52.0198 55.0892 57.699 59.0818 60.4433 59.8307C60.4433 59.8307 65.5031 61.5535 69.8958 54.0067L50.3008 53.3207L50.297 53.3302ZM75.11 36.6967C75.11 36.6967 58.4727 45.6233 49.8682 51.4282C49.825 51.4605 49.7927 51.5051 49.7753 51.5561C49.758 51.6071 49.7565 51.6622 49.771 51.7141C49.771 51.7141 49.853 51.8608 49.973 51.8608V51.8647L65.0019 51.8265C66.1573 51.7357 67.2928 51.4736 68.3712 51.049C71.1822 49.9475 73.4444 47.7825 74.6717 45.023C75.8234 42.3921 75.9792 39.4321 75.11 36.6948V36.6967ZM48.296 49.4634C48.3722 49.5206 48.477 49.5282 48.5628 49.4825C51.3642 48.0836 63.0332 42.151 67.8643 37.4438C69.7404 35.8164 70.8991 33.5148 71.0888 31.0385C71.4414 25.5595 65.9433 20.4902 65.9433 20.4902C58.9568 29.325 53.0218 38.9426 48.2579 49.149H48.2636C48.2121 49.2538 48.2331 49.3776 48.3169 49.4615" fill="#E12229"/>
</svg>
