<svg xmlns="http://www.w3.org/2000/svg" role="img" viewBox="-19.88 -19.88 1033.76 256.76"><style>svg {enable-background:new 0 0 994.9 217.6}</style><radialGradient id="a" cx="177.582" cy="25.671" r="211.326" gradientTransform="translate(6.996 1.4) scale(.9856)" gradientUnits="userSpaceOnUse"><stop offset="0" stop-color="#f7bfa4"/><stop offset=".43" stop-color="#e60012"/><stop offset="1" stop-color="#a00000"/></radialGradient><path fill="url(#a)" d="M124.3 169.7s.5-.4.2-1.1C90.6 94.5 44.2 38.3 44.2 38.3s-25.3 24-23.5 48c1 18.2 14.6 28.9 14.6 28.9 22 21.5 75.3 48.6 87.7 54.7.3.1.9.3 1.3-.2z"/><radialGradient id="b" cx="177.581" cy="25.631" r="211.359" gradientTransform="translate(6.996 1.4) scale(.9856)" gradientUnits="userSpaceOnUse"><stop offset="0" stop-color="#f7bfa4"/><stop offset=".43" stop-color="#e60012"/><stop offset="1" stop-color="#a00000"/></radialGradient><path fill="url(#b)" d="M116.1 188.1c-.2-.8-1.1-.8-1.1-.8l-88.8 3.1c9.6 17.2 25.8 30.5 42.7 26.4 11.7-2.9 38.1-21.3 46.8-27.5.6-.7.4-1.2.4-1.2z"/><radialGradient id="c" cx="177.58" cy="25.676" r="211.311" gradientTransform="translate(6.996 1.4) scale(.9856)" gradientUnits="userSpaceOnUse"><stop offset="0" stop-color="#f7bfa4"/><stop offset=".43" stop-color="#e60012"/><stop offset="1" stop-color="#a00000"/></radialGradient><path fill="url(#c)" d="M117.4 180.1c.4-.7-.3-1.3-.3-1.3-39-26.3-114.5-66.7-114.5-66.7-6.9 21.3 2.4 38.4 2.4 38.4 9.6 20.4 28 26.5 28 26.5 8.5 3.5 17 3.7 17 3.7 1.3.2 52.8 0 66.6 0 .5 0 .8-.6.8-.6z"/><radialGradient id="d" cx="177.575" cy="25.681" r="211.315" gradientTransform="translate(6.996 1.4) scale(.9856)" gradientUnits="userSpaceOnUse"><stop offset="0" stop-color="#f7bfa4"/><stop offset=".43" stop-color="#e60012"/><stop offset="1" stop-color="#a00000"/></radialGradient><path fill="url(#d)" d="M123.3 0C119.4.3 109 2.7 109 2.7 85.5 8.8 80 30.1 80 30.1c-4.3 13.4.1 28.2.1 28.2 7.8 34.8 46.4 92 54.7 104 .6.6 1.1.4 1.1.4.9-.3.8-1.1.8-1.1C149.5 33.8 123.3 0 123.3 0z"/><radialGradient id="e" cx="177.62" cy="25.683" r="211.552" gradientTransform="translate(6.996 1.4) scale(.9856)" gradientUnits="userSpaceOnUse"><stop offset="0" stop-color="#f7bfa4"/><stop offset=".43" stop-color="#e60012"/><stop offset="1" stop-color="#a00000"/></radialGradient><path fill="url(#e)" d="M152.7 162.6c.9.3 1.3-.5 1.3-.5 8.5-12.3 46.9-69.2 54.7-103.9 0 0 4.2-16.8.1-28.2 0 0-5.8-21.7-29.3-27.4 0 0-6.8-1.7-14-2.7 0 0-26.3 33.9-13.5 161.6.1.9.7 1.1.7 1.1z"/><radialGradient id="f" cx="177.621" cy="25.681" r="211.541" gradientTransform="translate(6.996 1.4) scale(.9856)" gradientUnits="userSpaceOnUse"><stop offset="0" stop-color="#f7bfa4"/><stop offset=".43" stop-color="#e60012"/><stop offset="1" stop-color="#a00000"/></radialGradient><path fill="url(#f)" d="M173.7 187.3s-.8.1-1 .7c0 0-.2.8.3 1.2 8.5 6.1 34.3 24.1 46.7 27.6 0 0 22.9 7.8 42.9-26.4l-88.9-3.1z"/><radialGradient id="g" cx="177.62" cy="25.687" r="211.538" gradientTransform="translate(6.996 1.4) scale(.9856)" gradientUnits="userSpaceOnUse"><stop offset="0" stop-color="#f7bfa4"/><stop offset=".43" stop-color="#e60012"/><stop offset="1" stop-color="#a00000"/></radialGradient><path fill="url(#g)" d="M286.2 111.9s-75.4 40.5-114.5 66.8c0 0-.7.5-.5 1.3 0 0 .4.7.9.7 14 0 66.8.1 68.2-.2 0 0 6.8-.3 15.3-3.5 0 0 18.8-6 28.6-27.3 0 0 8.7-17.4 2-37.8z"/><radialGradient id="h" cx="177.621" cy="25.69" r="211.535" gradientTransform="translate(6.996 1.4) scale(.9856)" gradientUnits="userSpaceOnUse"><stop offset="0" stop-color="#f7bfa4"/><stop offset=".43" stop-color="#e60012"/><stop offset="1" stop-color="#a00000"/></radialGradient><path fill="url(#h)" d="M164.6 169.7s.6.5 1.2.1c12.7-6.3 65.6-33.2 87.5-54.6 0 0 13.9-11.1 14.6-29 1.6-24.9-23.4-47.9-23.4-47.9s-46.3 56-80.2 130c.1 0-.3.9.3 1.4z"/><g><path fill="#231815" d="M415.7 115.9h-50.3V71.7h-22.2v109.7h22.2v-44.6h50.3v44.6h22.2V71.7h-22.2zm125.4 18.6c0 17.8-8.9 27.4-24.9 27.4-16.2 0-25.1-9.8-25.1-28.1v-62h-22.3v62.7c0 30.9 17.1 48.5 47 48.5 30.2 0 47.5-18 47.5-49.5V71.7H541v62.8zm257.2 12.6l-25-75.4h-18.1l-24.9 75.4-24.2-75.4h-23.7l38.2 109.7H739l25-72.1 24.9 72.1h18.6l38.1-109.7h-23.1zm87.2-12.9H926v-20h-40.5V91.7h58.8V71.8h-80.7v109.5h82.8v-20h-60.9zm87.4-62.5h22v109.5h-22zm-350 0l-48.3 109.6h22.7l10-22.8h50.2l9.8 22.8h23.3L642.5 71.7h-19.6zm-7.3 67l16.8-39.3 16.9 39.3h-33.7z"/></g></svg>