<?xml version="1.0" encoding="UTF-8"?> <!-- Generator: Adobe Illustrator 25.2.2, SVG Export Plug-In . SVG Version: 6.00 Build 0) --> <svg xmlns="http://www.w3.org/2000/svg" xmlns:xlink="http://www.w3.org/1999/xlink" version="1.1" id="Layer_1" x="0px" y="0px" viewBox="0 0 400 245" style="enable-background:new 0 0 400 245;" xml:space="preserve"> <style type="text/css"> .st0{fill:#0A0B0A;} .st1{fill:#F6D70B;} .st2{fill:#D91F27;} .st3{fill:#F36B21;} .st4{fill:#454A7B;} .st5{fill:#676767;} </style> <g id="g10" transform="matrix(1.3333333,0,0,-1.3333333,0,139.56)"> <g id="g12" transform="scale(0.1)"> <path id="path14" class="st0" d="M2897.8,371.7h12.7c6.1,0,10.2,0.9,12.4,2.7c2.2,1.8,3.3,4.2,3.3,7.2c0,1.9-0.5,3.6-1.6,5.2 c-1.1,1.5-2.5,2.7-4.4,3.4c-1.9,0.8-5.4,1.1-10.5,1.1h-11.9V371.7z M2887.3,335.2V400h22.3c7.6,0,13.1-0.6,16.6-1.8 c3.4-1.2,6.1-3.3,8.1-6.3c2-3,3-6.1,3-9.5c0-4.7-1.7-8.8-5.1-12.4c-3.4-3.5-7.9-5.5-13.5-5.9c2.3-1,4.1-2.1,5.5-3.4 c2.6-2.6,5.8-6.9,9.6-12.9l7.9-12.7H2929l-5.7,10.2c-4.5,8-8.2,13.1-10.9,15.1c-1.9,1.5-4.7,2.2-8.4,2.2h-6.2v-27.5H2887.3z M2913.7,418.8c-8.4,0-16.7-2.1-24.7-6.5c-8-4.4-14.3-10.6-18.8-18.6c-4.5-8.1-6.8-16.5-6.8-25.2c0-8.7,2.2-17,6.7-24.9 c4.4-8,10.6-14.2,18.6-18.6c8-4.5,16.3-6.7,25-6.7c8.7,0,17,2.2,25,6.7c8,4.4,14.2,10.6,18.6,18.6c4.4,8,6.6,16.3,6.6,24.9 c0,8.7-2.3,17.1-6.7,25.2c-4.5,8-10.7,14.2-18.8,18.6C2930.4,416.6,2922.1,418.8,2913.7,418.8L2913.7,418.8z M2913.7,428.7 c10.1,0,20-2.6,29.6-7.8c9.7-5.2,17.2-12.6,22.5-22.3c5.4-9.6,8.1-19.7,8.1-30.2c0-10.4-2.7-20.3-8-29.9 c-5.3-9.6-12.7-17-22.2-22.3c-9.5-5.3-19.5-8-30-8c-10.4,0-20.4,2.7-30,8c-9.5,5.3-17,12.7-22.3,22.3c-5.3,9.6-8,19.6-8,29.9 c0,10.5,2.7,20.6,8.1,30.2c5.4,9.7,12.9,17.1,22.5,22.3C2893.8,426.2,2903.6,428.7,2913.7,428.7"></path> <path id="path16" class="st0" d="M1516.7,487.4h53.6v-69.9h-53.6V487.4z M1518.3,259c0,11.4-6.5,17.9-17.9,17.9h-34.1v47.9h57.7 c35,0,49.5-14.6,49.5-49.6V-18c0-12.1,6.5-17.8,17.9-17.8h34.1v-48h-57.7c-34.9,0-49.6,14.7-49.6,49.6L1518.3,259"></path> <path id="path18" class="st0" d="M1961.1,128.2c0,119.4-56.9,156-129.2,156c-79.6,0-125.9-57.7-125.9-155.2 c0-97.5,52.8-160.9,133.3-160.9C1904.2-31.8,1961.1,8,1961.1,128.2 M1826.2,334.6c109.7,0,135.7-69.9,135.7-69.9h1.6v15.4 c0,29.2,13,44.7,46.3,44.7h56.9v-47.9h-33.3c-11.4,0-17.9-5.7-17.9-17.9V-74.1c0-130-95.9-180.4-196.6-180.4 c-46.3,0-93.4,12.2-133.3,32.5l21.1,46.3c0,0,50.4-28.4,110.5-28.4c79.6,0,143,37.4,143,128.4V-40c0,15.5,0.8,29.3,0.8,29.3h-1.7 c-24.4-44.7-65-70.7-128.4-70.7c-109.7,0-182,87-182,209.6S1716.5,334.6,1826.2,334.6"></path> <path id="path20" class="st0" d="M2405.5,121c0,82.8-42.3,164.1-130,164.1c-72.3,0-131.6-60.9-131.6-164.1 c0-100.8,52.8-165,129.2-165C2341.3-44,2405.5,4.7,2405.5,121 M2270.6,334.6c99.1,0,133.2-76.3,133.2-76.3h1.6 c0,0-1.6,13.8-1.6,30.9v132.5c0,11.4-6.5,17.9-17.9,17.9h-34.1v48h57.7c34.9,0,49.5-14.6,49.5-49.6V-18c0-12.1,6.5-17.8,17.9-17.8 h34.1v-48h-56.9c-34.1,0-48.8,15.5-48.8,45.5c0,15.4,1.6,26,1.6,26h-1.6c0,0-33.3-81.3-140.5-81.3c-109.7,0-178,87.8-178,214.6 C2087,250.1,2163.4,334.6,2270.6,334.6"></path> <path id="path22" class="st0" d="M2694.7-46.5c78,0,125.1,81.2,125.1,151.9v18.7h-23.6c-64.2,0-192.6-1.6-192.6-93.4 C2603.7-7.5,2633.8-46.5,2694.7-46.5 M2797.1,168h22.8v4.9c0,85.3-30.9,115.3-105.6,115.3c-20.3,0-79.6-5.7-79.6-35.7v-26h-52.8 v39c0,56.9,97.5,69,133.2,69c129.2,0,160.1-69,160.1-156.8V-18c0-12.2,6.5-17.8,17.9-17.8h34.1v-48H2871 c-34.9,0-48.7,15.5-48.7,48.8c0,17.8,0.8,30,0.8,30h-1.6c0.8,0-33.3-88.6-135.7-88.6c-68.3,0-138.9,39.8-138.9,121.1 C2546.9,163.2,2726.4,168,2797.1,168"></path> <path id="path24" class="st1" d="M705,722.6l-31.4-227c162.2,8.7,292.4-105.6,279.8-278.2C940.3,38,773.5-125.5,586.6-134.9 l-4.1-30c0,0,738.3-194.8,729,377.3c0,0,53.9,511-565.2,511C732.8,723.4,719.1,723.1,705,722.6"></path> <path id="path26" class="st2" d="M52.2,186.4c0,0-197.1-567.8,490.8-653.9L589-135.3c-4-0.2-8-0.4-12.1-0.5 c-185-2.7-296.1,147.4-261.3,319C348.9,348,502.1,480.4,665.4,494.5c3.6,0.3,7.1,0.5,10.6,0.7l2.7,19.8c0,0-59.8,13.1-143,13.1 C373.7,528,122.9,478.5,52.2,186.4"></path> </g> </g> </svg> 