<svg width="138" height="72" viewBox="0 0 138 72" fill="none" xmlns="http://www.w3.org/2000/svg">
<path d="M20.9562 12.6694H12V21.6256H20.9562V12.6694Z" fill="#00AAE8"/>
<path d="M20.733 59.3307V27.0757H12.2549V59.3307H20.733ZM77.0836 59.6494V51.745C75.8405 51.745 74.7888 51.6813 74.0238 51.5538C73.1314 51.4263 72.4621 51.1076 72.0158 50.6614C71.5696 50.2151 71.2828 49.5777 71.1234 48.749C70.9959 47.9522 70.9322 46.9004 70.9322 45.6255V34.3426H77.0836V27.0757H70.9322V14.4861H62.4222V45.6892C62.4222 48.3347 62.6453 50.5657 63.0915 52.3506C63.5378 54.1036 64.3027 55.5378 65.3545 56.6215C66.4063 57.7052 67.8087 58.4701 69.4979 58.9482C71.219 59.4263 73.3864 59.6494 75.968 59.6494H77.0836ZM125.785 59.3307V12H117.275V59.3307H125.785ZM54.231 30.2311C51.8724 27.6813 48.5577 26.4064 44.3505 26.4064C42.3107 26.4064 40.4621 26.8207 38.7728 27.6494C37.1154 28.4781 35.6812 29.6255 34.5656 31.0916L34.0876 31.6972V31.1554V27.0757H25.7051V59.3307H34.1513V42.1514V43.3307C34.1513 43.1394 34.1513 42.9482 34.1513 42.757C34.2469 39.7291 34.98 37.498 36.3824 36.0637C37.8804 34.5339 39.6971 33.7689 41.7688 33.7689C44.223 33.7689 46.1035 34.5339 47.3465 36C48.5577 37.4661 49.1951 39.5378 49.1951 42.1833V42.247V59.2988H57.7688V41.004C57.8007 36.4143 56.5895 32.7809 54.231 30.2311ZM112.876 43.1394C112.876 40.8127 112.462 38.6454 111.665 36.6056C110.837 34.5976 109.689 32.8127 108.255 31.2829C106.789 29.753 105.036 28.5737 102.996 27.7131C100.956 26.8526 98.6931 26.4382 96.2389 26.4382C93.9123 26.4382 91.7131 26.8845 89.6732 27.745C87.6334 28.6374 85.8485 29.8167 84.3505 31.3147C82.8525 32.8127 81.6413 34.5976 80.7808 36.6374C79.8884 38.6773 79.474 40.8765 79.474 43.2032C79.474 45.5299 79.8884 47.7291 80.717 49.7689C81.5457 51.8088 82.725 53.5936 84.1911 55.0916C85.6573 56.5896 87.474 57.8008 89.5776 58.6613C91.6812 59.5538 94.0079 60 96.4939 60C103.697 60 108.159 56.7171 110.837 53.6574L104.717 49.004C103.442 50.5339 100.382 52.6056 96.5577 52.6056C94.1672 52.6056 92.1911 52.0637 90.6931 50.9482C89.1951 49.8645 88.1752 48.3347 87.6334 46.4542L87.5378 46.1673H112.876V43.1394ZM87.6015 40.1753C87.6015 37.8167 90.3107 33.7052 96.1433 33.6733C101.976 33.6733 104.717 37.7849 104.717 40.1434L87.6015 40.1753Z" fill="black"/>
</svg>
