<?xml version="1.0" encoding="UTF-8"?> <!-- Generator: Adobe Illustrator 25.2.2, SVG Export Plug-In . SVG Version: 6.00 Build 0) --> <svg xmlns="http://www.w3.org/2000/svg" xmlns:xlink="http://www.w3.org/1999/xlink" version="1.1" id="Layer_1" x="0px" y="0px" viewBox="0 0 400 245" style="enable-background:new 0 0 400 245;" xml:space="preserve"> <style type="text/css"> .st0{fill:#010101;} .st1{enable-background:new ;} .st2{fill:#DB1F26;} .st3{fill:#7A7A7A;} .st4{fill:#EE3275;} .st5{fill:#EE2837;} .st6{fill:#069BCF;} .st7{fill:none;} .st8{clip-path:url(#SVGID_1_);} .st9{fill-rule:evenodd;clip-rule:evenodd;fill:#F4C117;} .st10{clip-path:url(#SVGID_2_);} .st11{fill-rule:evenodd;clip-rule:evenodd;fill:url(#SVGID_3_);} .st12{fill-rule:evenodd;clip-rule:evenodd;fill:url(#SVGID_4_);} .st13{fill-rule:evenodd;clip-rule:evenodd;fill:url(#SVGID_5_);} .st14{fill-rule:evenodd;clip-rule:evenodd;fill:url(#SVGID_6_);} .st15{fill-rule:evenodd;clip-rule:evenodd;fill:url(#SVGID_7_);} .st16{fill-rule:evenodd;clip-rule:evenodd;fill:url(#SVGID_8_);} .st17{clip-path:url(#SVGID_9_);} .st18{fill-rule:evenodd;clip-rule:evenodd;fill:url(#SVGID_10_);} .st19{fill-rule:evenodd;clip-rule:evenodd;fill:url(#SVGID_11_);} .st20{fill-rule:evenodd;clip-rule:evenodd;fill:url(#SVGID_12_);} .st21{fill-rule:evenodd;clip-rule:evenodd;fill:url(#SVGID_13_);} .st22{fill-rule:evenodd;clip-rule:evenodd;fill:url(#SVGID_14_);} .st23{fill-rule:evenodd;clip-rule:evenodd;fill:url(#SVGID_15_);} .st24{fill:#FFFFFF;} .st25{clip-path:url(#SVGID_16_);} .st26{clip-path:url(#SVGID_17_);} .st27{clip-path:url(#SVGID_18_);} .st28{fill-rule:evenodd;clip-rule:evenodd;fill:url(#SVGID_19_);} .st29{fill-rule:evenodd;clip-rule:evenodd;fill:url(#SVGID_20_);} .st30{fill-rule:evenodd;clip-rule:evenodd;fill:url(#SVGID_21_);} .st31{fill-rule:evenodd;clip-rule:evenodd;fill:url(#SVGID_22_);} .st32{fill-rule:evenodd;clip-rule:evenodd;fill:url(#SVGID_23_);} .st33{fill-rule:evenodd;clip-rule:evenodd;fill:url(#SVGID_24_);} .st34{clip-path:url(#SVGID_25_);} .st35{clip-path:url(#SVGID_26_);} .st36{clip-path:url(#SVGID_27_);} .st37{fill-rule:evenodd;clip-rule:evenodd;fill:url(#SVGID_28_);} .st38{fill-rule:evenodd;clip-rule:evenodd;fill:url(#SVGID_29_);} .st39{fill-rule:evenodd;clip-rule:evenodd;fill:url(#SVGID_30_);} .st40{fill-rule:evenodd;clip-rule:evenodd;fill:url(#SVGID_31_);} .st41{fill-rule:evenodd;clip-rule:evenodd;fill:url(#SVGID_32_);} .st42{fill-rule:evenodd;clip-rule:evenodd;fill:url(#SVGID_33_);} .st43{clip-path:url(#SVGID_34_);} .st44{clip-path:url(#SVGID_35_);} .st45{clip-path:url(#SVGID_36_);} .st46{fill-rule:evenodd;clip-rule:evenodd;fill:url(#SVGID_37_);} .st47{fill-rule:evenodd;clip-rule:evenodd;fill:url(#SVGID_38_);} .st48{fill-rule:evenodd;clip-rule:evenodd;fill:url(#SVGID_39_);} .st49{fill-rule:evenodd;clip-rule:evenodd;fill:url(#SVGID_40_);} .st50{fill-rule:evenodd;clip-rule:evenodd;fill:url(#SVGID_41_);} .st51{fill-rule:evenodd;clip-rule:evenodd;fill:url(#SVGID_42_);} .st52{clip-path:url(#SVGID_43_);} .st53{fill-rule:evenodd;clip-rule:evenodd;fill:#FFFFFF;} .st54{fill-rule:evenodd;clip-rule:evenodd;fill:url(#SVGID_44_);} .st55{fill-rule:evenodd;clip-rule:evenodd;fill:url(#SVGID_45_);} .st56{fill-rule:evenodd;clip-rule:evenodd;fill:url(#SVGID_46_);} .st57{fill-rule:evenodd;clip-rule:evenodd;fill:url(#SVGID_47_);} .st58{fill-rule:evenodd;clip-rule:evenodd;fill:url(#SVGID_48_);} .st59{fill-rule:evenodd;clip-rule:evenodd;fill:url(#SVGID_49_);} .st60{fill-rule:evenodd;clip-rule:evenodd;fill:#40464E;} .st61{fill-rule:evenodd;clip-rule:evenodd;fill:#01AFAA;} .st62{fill:#28203B;} .st63{fill-rule:evenodd;clip-rule:evenodd;fill:#010101;} .st64{fill:#F26B3F;} .st65{display:none;fill:#010101;} .st66{fill:#D72027;} .st67{fill:#ED2224;} .st68{fill:#231815;} .st69{display:none;fill-rule:evenodd;clip-rule:evenodd;fill:#323137;} .st70{fill:#3D3D3C;} .st71{fill:#F09877;} </style> <path class="st7" d="M5.3,43.2h390.5v168.6H5.3L5.3,43.2z"></path> <g> <defs> <rect id="SVGID_63_" x="5.3" y="43.2" width="390.5" height="168.6"></rect> </defs> <clipPath id="SVGID_1_"> <use xlink:href="#SVGID_63_" style="overflow:visible;"></use> </clipPath> <g class="st8"> <path class="st0" d="M0.3-0.4h396.3v214.4H0.3L0.3-0.4z"></path> <path class="st9" d="M359.9,186.6l-4.7,0v-25.1l4.7,0V186.6z"></path> <g> <defs> <rect id="SVGID_65_" x="355.2" y="161.4" width="4.7" height="25.1"></rect> </defs> <clipPath id="SVGID_2_"> <use xlink:href="#SVGID_65_" style="overflow:visible;"></use> </clipPath> <g class="st10"> <linearGradient id="SVGID_3_" gradientUnits="userSpaceOnUse" x1="-209.365" y1="513.8241" x2="-209.199" y2="513.8241" gradientTransform="matrix(245.56 -286.711 -335.505 -287.351 224123.1875 87817.3828)"> <stop offset="0" style="stop-color:#FED900"></stop> <stop offset="0.24" style="stop-color:#FED900"></stop> <stop offset="0.43" style="stop-color:#FDD80D"></stop> <stop offset="0.58" style="stop-color:#FECE11"></stop> <stop offset="0.64" style="stop-color:#F6C01A"></stop> <stop offset="0.72" style="stop-color:#F0B51C"></stop> <stop offset="1" style="stop-color:#EEB11E"></stop> </linearGradient> <path class="st11" d="M320.2,147.7h42.7v50h-42.7V147.7z"></path> <linearGradient id="SVGID_4_" gradientUnits="userSpaceOnUse" x1="-216.9098" y1="507.5198" x2="-216.7438" y2="507.5198" gradientTransform="matrix(129.097 146.466 146.466 -129.097 -46001.8672 97448.9219)"> <stop offset="0" style="stop-color:#EEB11E;stop-opacity:0"></stop> <stop offset="0.32" style="stop-color:#EAA522;stop-opacity:0.15"></stop> <stop offset="0.42" style="stop-color:#DF8226;stop-opacity:0.55"></stop> <stop offset="0.5" style="stop-color:#D25D27"></stop> <stop offset="0.59" style="stop-color:#E48725;stop-opacity:0.56"></stop> <stop offset="0.69" style="stop-color:#F4AF1C;stop-opacity:0.16"></stop> <stop offset="1" style="stop-color:#FBBF12;stop-opacity:0"></stop> </linearGradient> <path class="st12" d="M320.2,147.7h42.7v50h-42.7V147.7z"></path> <radialGradient id="SVGID_5_" cx="-211.2345" cy="514.9081" r="0.166" gradientTransform="matrix(210.942 -184.986 -216.467 -246.841 156371.8906 88182.75)" gradientUnits="userSpaceOnUse"> <stop offset="0" style="stop-color:#D15627"></stop> <stop offset="1.000000e-02" style="stop-color:#D15627"></stop> <stop offset="0.19" style="stop-color:#DD7A26;stop-opacity:0.7"></stop> <stop offset="0.42" style="stop-color:#FDD110;stop-opacity:0"></stop> <stop offset="0.63" style="stop-color:#FDD110;stop-opacity:0.74"></stop> <stop offset="0.82" style="stop-color:#FDD110"></stop> <stop offset="1" style="stop-color:#FDD110"></stop> </radialGradient> <path class="st13" d="M320.2,147.7h42.7v50h-42.7V147.7z"></path> <linearGradient id="SVGID_6_" gradientUnits="userSpaceOnUse" x1="-220.2887" y1="528.9683" x2="-220.1227" y2="528.9683" gradientTransform="matrix(67.9223 -37.8764 -37.8764 -67.9223 35341.9258 27756.2969)"> <stop offset="0" style="stop-color:#EEB11E;stop-opacity:0"></stop> <stop offset="0.27" style="stop-color:#F1B51C;stop-opacity:0.11"></stop> <stop offset="0.5" style="stop-color:#FBC717;stop-opacity:0.5"></stop> <stop offset="0.73" style="stop-color:#FBC115;stop-opacity:0.11"></stop> <stop offset="1" style="stop-color:#FBBF12;stop-opacity:0"></stop> </linearGradient> <path class="st14" d="M320.2,147.7h42.7v50h-42.7V147.7z"></path> <linearGradient id="SVGID_7_" gradientUnits="userSpaceOnUse" x1="-191.3554" y1="562.6851" x2="-191.1894" y2="562.6851" gradientTransform="matrix(5.7954 -31.3383 -31.3383 -5.7954 19085.1055 -2568.5576)"> <stop offset="0" style="stop-color:#EEB11E;stop-opacity:0"></stop> <stop offset="0.5" style="stop-color:#FBC717;stop-opacity:0.2"></stop> <stop offset="0.58" style="stop-color:#FAC216;stop-opacity:0.11"></stop> <stop offset="0.67" style="stop-color:#FCC012;stop-opacity:3.000000e-02"></stop> <stop offset="1" style="stop-color:#FBBF12;stop-opacity:0"></stop> </linearGradient> <path class="st15" d="M320.2,147.7h42.7v50h-42.7V147.7z"></path> <linearGradient id="SVGID_8_" gradientUnits="userSpaceOnUse" x1="-209.3788" y1="513.8391" x2="-209.2128" y2="513.8391" gradientTransform="matrix(245.188 -284.833 -333.307 -286.915 222924.2031 87986.7109)"> <stop offset="0" style="stop-color:#EFAF1E"></stop> <stop offset="0.23" style="stop-color:#F3BB1A;stop-opacity:0.9"></stop> <stop offset="0.52" style="stop-color:#FDD80D;stop-opacity:0.67"></stop> <stop offset="0.73" style="stop-color:#FDD80D;stop-opacity:0"></stop> <stop offset="1" style="stop-color:#EEB11E;stop-opacity:0"></stop> </linearGradient> <path class="st16" d="M320.2,147.6h42.7v50h-42.7V147.6z"></path> </g> </g> <path class="st9" d="M329.2,166.7l-4.7,10.7h9.3L329.2,166.7z M335.7,181.8h-13.1l-2.2,4.7h-5.1l11.3-25.1h5.2l11.3,25.1h-5.2 L335.7,181.8z"></path> <g> <defs> <path id="SVGID_73_" d="M329.2,166.7l-4.7,10.7h9.3L329.2,166.7z M335.7,181.8h-13.1l-2.2,4.7h-5.1l11.3-25.1h5.2l11.3,25.1 h-5.2L335.7,181.8z"></path> </defs> <clipPath id="SVGID_9_"> <use xlink:href="#SVGID_73_" style="overflow:visible;"></use> </clipPath> <g class="st17"> <linearGradient id="SVGID_10_" gradientUnits="userSpaceOnUse" x1="-209.3233" y1="513.6808" x2="-209.1574" y2="513.6697" gradientTransform="matrix(235.89 -298.059 -322.293 -298.724 215230.0625 91254.4922)"> <stop offset="0" style="stop-color:#FED900"></stop> <stop offset="0.24" style="stop-color:#FED900"></stop> <stop offset="0.43" style="stop-color:#FDD80D"></stop> <stop offset="0.58" style="stop-color:#FECE11"></stop> <stop offset="0.64" style="stop-color:#F6C01A"></stop> <stop offset="0.72" style="stop-color:#F0B51C"></stop> <stop offset="1" style="stop-color:#EEB11E"></stop> </linearGradient> <path class="st18" d="M298,147.2h41v52h-41L298,147.2z"></path> <linearGradient id="SVGID_11_" gradientUnits="userSpaceOnUse" x1="-216.59" y1="507.6386" x2="-216.4241" y2="507.6517" gradientTransform="matrix(124.013 152.263 140.698 -134.206 -44257.543 101267.0625)"> <stop offset="0" style="stop-color:#EEB11E;stop-opacity:0"></stop> <stop offset="0.32" style="stop-color:#EAA522;stop-opacity:0.15"></stop> <stop offset="0.42" style="stop-color:#DF8226;stop-opacity:0.55"></stop> <stop offset="0.5" style="stop-color:#D25D27"></stop> <stop offset="0.59" style="stop-color:#E48725;stop-opacity:0.56"></stop> <stop offset="0.69" style="stop-color:#F4AF1C;stop-opacity:0.16"></stop> <stop offset="1" style="stop-color:#FBBF12;stop-opacity:0"></stop> </linearGradient> <path class="st19" d="M298,147.1h41v52h-41L298,147.1z"></path> <radialGradient id="SVGID_12_" cx="-211.1463" cy="514.7166" r="0.166" gradientTransform="matrix(202.635 -192.307 -207.943 -256.611 150146.8906 91634.6641)" gradientUnits="userSpaceOnUse"> <stop offset="0" style="stop-color:#D15627"></stop> <stop offset="1.000000e-02" style="stop-color:#D15627"></stop> <stop offset="0.19" style="stop-color:#DD7A26;stop-opacity:0.7"></stop> <stop offset="0.42" style="stop-color:#FDD110;stop-opacity:0"></stop> <stop offset="0.63" style="stop-color:#FDD110;stop-opacity:0.74"></stop> <stop offset="0.82" style="stop-color:#FDD110"></stop> <stop offset="1" style="stop-color:#FDD110"></stop> </radialGradient> <path class="st20" d="M298,147.2h41v52h-41L298,147.2z"></path> <linearGradient id="SVGID_13_" gradientUnits="userSpaceOnUse" x1="-219.8092" y1="528.2424" x2="-219.6432" y2="528.2318" gradientTransform="matrix(65.2475 -39.3756 -36.3848 -70.6107 33882.8633 28816.377)"> <stop offset="0" style="stop-color:#EEB11E;stop-opacity:0"></stop> <stop offset="0.27" style="stop-color:#F1B51C;stop-opacity:0.11"></stop> <stop offset="0.5" style="stop-color:#FBC717;stop-opacity:0.5"></stop> <stop offset="0.73" style="stop-color:#FBC115;stop-opacity:0.11"></stop> <stop offset="1" style="stop-color:#FBBF12;stop-opacity:0"></stop> </linearGradient> <path class="st21" d="M298,147.2h41v52h-41L298,147.2z"></path> <linearGradient id="SVGID_14_" gradientUnits="userSpaceOnUse" x1="-191.9566" y1="560.6501" x2="-191.7906" y2="560.6451" gradientTransform="matrix(5.5672 -32.5787 -30.1042 -6.0248 18266.2539 -2708.7517)"> <stop offset="0" style="stop-color:#EEB11E;stop-opacity:0"></stop> <stop offset="0.5" style="stop-color:#FBC717;stop-opacity:0.2"></stop> <stop offset="0.58" style="stop-color:#FAC216;stop-opacity:0.11"></stop> <stop offset="0.67" style="stop-color:#FCC012;stop-opacity:3.000000e-02"></stop> <stop offset="1" style="stop-color:#FBBF12;stop-opacity:0"></stop> </linearGradient> <path class="st22" d="M298,147.2h41v52h-41L298,147.2z"></path> <linearGradient id="SVGID_15_" gradientUnits="userSpaceOnUse" x1="-209.3365" y1="513.6953" x2="-209.1706" y2="513.6841" gradientTransform="matrix(235.532 -296.107 -320.182 -298.271 214078.375 91430.5859)"> <stop offset="0" style="stop-color:#EFAF1E"></stop> <stop offset="0.23" style="stop-color:#F3BB1A;stop-opacity:0.9"></stop> <stop offset="0.52" style="stop-color:#FDD80D;stop-opacity:0.67"></stop> <stop offset="0.73" style="stop-color:#FDD80D;stop-opacity:0"></stop> <stop offset="1" style="stop-color:#EEB11E;stop-opacity:0"></stop> </linearGradient> <path class="st23" d="M298,147.1h41v52h-41L298,147.1z"></path> </g> </g> <g> <path class="st24" d="M70.4,161.7l-11.2,12l12.1,12.7v0.3h-5.8L55,175.5v11.1h-4.7v-25.1H55v10.6l9.5-10.6h5.9V161.7z"></path> <path class="st24" d="M95.7,171.9l6.7-10.4h5.7v0.2l-10,14.5v10.4h-4.7v-10.4l-9.7-14.5v-0.2h5.6L95.7,171.9z"></path> <path class="st24" d="M129,165.8h-8v-4.3h20.7v4.3h-8v20.8H129V165.8z"></path> <path class="st24" d="M176.2,186.7v-10.2h-12.3v10.2h-4.7v-25.1h4.7v10.6h12.3v-10.6h4.7v25.1H176.2z"></path> <path class="st24" d="M217.5,186.6h-18.8v-25.1h18.8v4.6h-14.1v5.8H217v4.4h-13.6v5.7h14.1V186.6z"></path> <path class="st24" d="M239.2,165.9v8h7.2c3,0,4.3-2,4.3-4c0-2-1.3-4-4.3-4L239.2,165.9z M256.8,186.6h-5.6l-7.3-8.4h-4.6v8.4 h-4.7v-25.2c4,0,8,0,12,0c5.9,0,9,4,9,8.3c0,3.4-1.6,6.9-6.4,7.9l7.6,8.6V186.6z"></path> <path class="st24" d="M283.1,166.8l-4.7,10.7h9.3L283.1,166.8z M289.6,181.9h-13.1l-2.2,4.7h-5.1l11.3-25.1h5.2l11.3,25.1h-5.2 L289.6,181.9z"></path> </g> <g> <defs> <path id="SVGID_81_" d="M215.9,129.3l-1.1-6.9c-13.7-1.3-27.3-14.1-28.3-27.3c-0.9-12.2,9.6-18,21.9-14.3 c5.6,1.7,10.8,5.1,14.8,9.3l2.9-2.5c-5-5.2-11.4-9.6-18.5-11.9c-15.8-5.1-30.1,1.8-29.4,17.7 C179.1,111.1,197.6,128.2,215.9,129.3L215.9,129.3z"></path> </defs> <clipPath id="SVGID_16_"> <use xlink:href="#SVGID_81_" style="overflow:visible;"></use> </clipPath> <g class="st25"> <g> <defs> <path id="SVGID_83_" d="M202.7,104.6c0.4-0.3,0.8-0.7,1.2-1c0.4-0.3,0.8-0.6,1.2-0.9c0.4-0.3,0.8-0.6,1.1-0.9 c0.4-0.3,0.7-0.6,1.1-0.9c0.4-0.3,0.7-0.6,1.1-0.9c0.4-0.3,0.7-0.6,1.1-0.9c0.3-0.3,0.7-0.6,1-0.9c0.3-0.3,0.7-0.6,1-0.8 c0.3-0.3,0.7-0.5,1-0.8c0.3-0.3,0.7-0.5,1-0.8c0.3-0.3,0.6-0.5,1-0.8c0.3-0.3,0.6-0.5,1-0.8c0.3-0.3,0.6-0.5,0.9-0.8 c0.3-0.3,0.6-0.5,0.9-0.8c0.3-0.3,0.6-0.5,0.9-0.8c0.3-0.3,0.6-0.5,0.9-0.8c0.3-0.2,0.6-0.5,0.9-0.7c0.3-0.2,0.6-0.5,0.9-0.7 c0.3-0.2,0.6-0.5,0.9-0.7c0.3-0.2,0.6-0.5,0.9-0.7c0.3-0.2,0.6-0.5,0.9-0.7c0.3-0.2,0.6-0.5,0.9-0.7c0.3-0.2,0.6-0.5,0.9-0.7 c0.3-0.2,0.6-0.5,0.9-0.7c0.3-0.2,0.6-0.5,0.9-0.7c0.3-0.2,0.6-0.5,0.9-0.8c0.3-0.3,0.6-0.5,0.9-0.8c0.3-0.3,0.6-0.5,0.9-0.8 c0.3-0.3,0.6-0.5,0.9-0.8c0.3-0.3,0.6-0.5,1-0.8c0.3-0.3,0.6-0.5,1-0.8c0.3-0.3,0.7-0.5,1-0.8c0.3-0.3,0.7-0.5,1-0.8 c0.3-0.3,0.7-0.6,1-0.8c0.3-0.3,0.7-0.6,1-0.9c0.3-0.3,0.7-0.6,1.1-0.9c0.4-0.3,0.7-0.6,1.1-0.9c0.4-0.3,0.7-0.6,1.1-0.9 c0.4-0.3,0.7-0.6,1.1-0.9c0.4-0.3,0.8-0.6,1.2-0.9c0.4-0.3,0.8-0.6,1.2-1c-0.7-0.9-1.5-1.7-2.2-2.5c-0.8-0.8-1.5-1.6-2.3-2.3 c-0.8-0.7-1.6-1.5-2.4-2.2c-0.8-0.7-1.7-1.3-2.5-2c-0.8-0.6-1.7-1.2-2.6-1.8c-0.9-0.6-1.8-1.1-2.6-1.6c-0.9-0.5-1.8-1-2.7-1.4 c-0.9-0.4-1.8-0.9-2.7-1.3c-0.9-0.4-1.8-0.8-2.8-1.1c-0.9-0.3-1.9-0.6-2.8-0.9c-0.9-0.3-1.9-0.5-2.8-0.8 c-0.9-0.2-1.9-0.4-2.8-0.6c-0.9-0.2-1.9-0.3-2.8-0.4c-0.9-0.1-1.9-0.2-2.8-0.3c-0.9-0.1-1.9-0.1-2.8-0.1c-0.9,0-1.9,0-2.8,0 c-0.9,0-1.9,0.1-2.8,0.2c-0.9,0.1-1.9,0.2-2.8,0.3c-0.9,0.1-1.8,0.3-2.7,0.5c-0.9,0.2-1.8,0.4-2.7,0.6 c-0.9,0.2-1.8,0.5-2.7,0.7c-0.9,0.3-1.7,0.6-2.6,0.9c-0.9,0.3-1.7,0.7-2.6,1c-0.8,0.4-1.7,0.7-2.5,1.2 c-0.8,0.4-1.6,0.8-2.4,1.3c-0.8,0.5-1.6,0.9-2.4,1.4c-0.8,0.5-1.6,1-2.3,1.5c-0.8,0.5-1.5,1.1-2.2,1.7 c-0.7,0.6-1.5,1.2-2.2,1.8c-0.7,0.6-1.4,1.2-2,1.9c-0.7,0.6-1.3,1.3-1.9,1.9c-0.6,0.7-1.2,1.3-1.8,2c-0.6,0.7-1.1,1.4-1.6,2.1 c-0.5,0.7-1,1.4-1.5,2.1c-0.5,0.7-1,1.4-1.4,2.2c-0.4,0.7-0.9,1.5-1.3,2.2c-0.4,0.7-0.8,1.5-1.2,2.3c-0.4,0.8-0.7,1.5-1,2.3 c-0.3,0.8-0.6,1.5-0.9,2.3c-0.3,0.8-0.6,1.6-0.8,2.4c-0.3,0.8-0.5,1.6-0.7,2.4c-0.2,0.8-0.4,1.6-0.6,2.4 c-0.2,0.8-0.3,1.6-0.5,2.4c-0.1,0.8-0.3,1.6-0.4,2.4c-0.1,0.8-0.2,1.6-0.2,2.4c-0.1,0.8-0.1,1.6-0.1,2.4c0,0.8,0,1.6,0,2.4 c0,0.8,0,1.6,0.1,2.4c0,0.8,0.1,1.6,0.2,2.4c0.1,0.8,0.2,1.6,0.3,2.4c0.1,0.8,0.3,1.6,0.4,2.4c0.2,0.8,0.3,1.6,0.5,2.4 c0.2,0.8,0.4,1.6,0.6,2.3c0.2,0.8,0.5,1.5,0.7,2.3c0.3,0.8,0.6,1.5,0.9,2.3c0.3,0.8,0.6,1.5,1,2.2c0.3,0.7,0.7,1.5,1.1,2.2 c0.4,0.7,0.8,1.5,1.2,2.2c0.4,0.7,0.8,1.4,1.3,2.1c0.4,0.7,0.9,1.4,1.4,2.1c0.5,0.7,1,1.4,1.5,2c0.5,0.7,1.1,1.3,1.6,2 c0.6,0.6,1.1,1.3,1.7,1.9c0.6,0.6,1.2,1.2,1.8,1.8c0.6,0.6,1.2,1.1,1.8,1.7c0.6,0.5,1.3,1.1,1.9,1.6c0.6,0.5,1.3,1,2,1.5 c0.7,0.5,1.3,0.9,2,1.4c0.7,0.4,1.4,0.9,2.1,1.3c0.7,0.4,1.4,0.8,2.1,1.2c0.7,0.4,1.4,0.7,2.2,1.1c0.7,0.3,1.5,0.7,2.2,1 c0.7,0.3,1.5,0.6,2.3,0.9c0.8,0.3,1.5,0.5,2.3,0.8c0.8,0.2,1.5,0.5,2.3,0.7c0.8,0.2,1.6,0.4,2.4,0.6c0.8,0.2,1.6,0.3,2.4,0.4 c0.8,0.1,1.6,0.2,2.4,0.3c0.8,0.1,1.6,0.2,2.4,0.2c0.8,0.1,1.6,0.1,2.4,0.1c0.8,0,1.6,0,2.5,0c0.8,0,1.6-0.1,2.5-0.1 c0.8-0.1,1.6-0.1,2.5-0.2c0.8-0.1,1.6-0.2,2.5-0.3c0.8-0.1,1.6-0.3,2.5-0.5c0.8-0.2,1.6-0.4,2.5-0.6c0.8-0.2,1.6-0.4,2.4-0.7 c0.8-0.3,1.6-0.5,2.4-0.8c0.8-0.3,1.6-0.6,2.4-1c0.8-0.3,1.6-0.7,2.4-1.1c0.8-0.4,1.6-0.8,2.3-1.2c0.8-0.4,1.5-0.9,2.3-1.4 c0.8-0.5,1.5-1,2.3-1.5c0.7-0.5,1.5-1.1,2.2-1.6c0.7-0.6,1.5-1.2,2.2-1.8c0.7-0.6,1.4-1.2,2.1-1.9c0.7-0.6,1.3-1.3,2-2 c0.6-0.7,1.3-1.4,1.8-2.1c0.6-0.7,1.2-1.4,1.7-2.2c0.6-0.7,1.1-1.5,1.6-2.2c0.5-0.8,1-1.5,1.5-2.3c0.5-0.8,0.9-1.6,1.4-2.4 c0.4-0.8,0.9-1.6,1.2-2.5c0.4-0.8,0.8-1.7,1.1-2.5c0.4-0.9,0.7-1.7,1-2.6c0.3-0.9,0.6-1.8,0.9-2.7c0.3-0.9,0.5-1.8,0.7-2.7 c0.2-0.9,0.4-1.8,0.6-2.8c0.2-0.9,0.3-1.9,0.4-2.8c0.1-0.9,0.2-1.9,0.3-2.8c0.1-1,0.1-1.9,0.1-2.9c0-1,0-1.9,0-2.9 c0-1-0.1-1.9-0.2-2.9c-0.1-1-0.2-2-0.4-2.9c-0.1-1-0.3-2-0.5-2.9c-0.2-1-0.4-2-0.7-2.9c-0.3-1-0.6-2-0.9-2.9 c-0.3-1-0.7-1.9-1.1-2.9c-0.4-1-0.8-1.9-1.3-2.9c-0.4-1-0.9-1.9-1.4-2.8c-0.5-0.9-1.1-1.9-1.6-2.8c-0.6-0.9-1.2-1.8-1.9-2.7 c-0.7-0.9-1.3-1.8-2.1-2.7c-0.4,0.3-0.8,0.7-1.2,1c-0.4,0.3-0.8,0.6-1.2,0.9c-0.4,0.3-0.8,0.6-1.1,0.9 c-0.4,0.3-0.7,0.6-1.1,0.9c-0.4,0.3-0.7,0.6-1.1,0.9c-0.4,0.3-0.7,0.6-1.1,0.9c-0.3,0.3-0.7,0.6-1,0.9c-0.3,0.3-0.7,0.6-1,0.8 c-0.3,0.3-0.7,0.5-1,0.8c-0.3,0.3-0.7,0.5-1,0.8c-0.3,0.3-0.6,0.5-1,0.8c-0.3,0.3-0.6,0.5-1,0.8c-0.3,0.3-0.6,0.5-0.9,0.8 c-0.3,0.3-0.6,0.5-0.9,0.8c-0.3,0.3-0.6,0.5-0.9,0.8c-0.3,0.3-0.6,0.5-0.9,0.8c-0.3,0.2-0.6,0.5-0.9,0.7 c-0.3,0.2-0.6,0.5-0.9,0.7c-0.3,0.2-0.6,0.5-0.9,0.7c-0.3,0.2-0.6,0.5-0.9,0.7c-0.3,0.2-0.6,0.5-0.9,0.7 c-0.3,0.2-0.6,0.5-0.9,0.7c-0.3,0.2-0.6,0.5-0.9,0.7c-0.3,0.2-0.6,0.5-0.9,0.7c-0.3,0.2-0.6,0.5-0.9,0.7 c-0.3,0.2-0.6,0.5-0.9,0.8c-0.3,0.3-0.6,0.5-0.9,0.8c-0.3,0.3-0.6,0.5-0.9,0.8c-0.3,0.3-0.6,0.5-0.9,0.8 c-0.3,0.3-0.6,0.5-1,0.8c-0.3,0.3-0.6,0.5-1,0.8c-0.3,0.3-0.7,0.5-1,0.8c-0.3,0.3-0.7,0.5-1,0.8c-0.3,0.3-0.7,0.6-1,0.8 c-0.3,0.3-0.7,0.6-1,0.9c-0.3,0.3-0.7,0.6-1.1,0.9c-0.4,0.3-0.7,0.6-1.1,0.9c-0.4,0.3-0.7,0.6-1.1,0.9 c-0.4,0.3-0.7,0.6-1.1,0.9c-0.4,0.3-0.8,0.6-1.2,0.9C203.5,104,203.1,104.3,202.7,104.6L202.7,104.6z"></path> </defs> <clipPath id="SVGID_17_"> <use xlink:href="#SVGID_83_" style="overflow:visible;"></use> </clipPath> <g class="st26"> <g> <defs> <path id="SVGID_85_" d="M202.7,104.6c0.3-0.3,0.7-0.5,1-0.8c0.3-0.3,0.7-0.5,1-0.8s0.7-0.5,1-0.8c0.3-0.3,0.7-0.5,1-0.8 c0.3-0.3,0.7-0.5,1-0.8c0.3-0.3,0.7-0.5,1-0.8c0.3-0.3,0.7-0.5,1-0.8c0.3-0.3,0.7-0.5,1-0.8c0.3-0.3,0.7-0.5,1-0.8 c0.3-0.3,0.7-0.5,1-0.8c0.3-0.3,0.7-0.5,1-0.8c0.3-0.3,0.7-0.5,1-0.8c0.3-0.3,0.7-0.5,1-0.8c0.3-0.3,0.7-0.5,1-0.8 c0.3-0.3,0.7-0.5,1-0.8c0.3-0.3,0.7-0.5,1-0.8c0.3-0.3,0.7-0.5,1-0.8c0.3-0.3,0.7-0.5,1-0.8c0.3-0.3,0.7-0.5,1-0.8 c0.3-0.3,0.7-0.5,1-0.8c0.3-0.3,0.7-0.5,1-0.8c0.3-0.3,0.7-0.5,1-0.8c0.3-0.3,0.7-0.5,1-0.8c0.3-0.3,0.7-0.5,1-0.8 c0.3-0.3,0.7-0.5,1-0.8c0.3-0.3,0.7-0.5,1-0.8c0.3-0.3,0.7-0.5,1-0.8c0.3-0.3,0.7-0.5,1-0.8c0.3-0.3,0.7-0.5,1-0.8 s0.7-0.5,1-0.8c0.3-0.3,0.7-0.5,1-0.8c0.3-0.3,0.7-0.5,1-0.8c0.3-0.3,0.7-0.5,1-0.8c0.3-0.3,0.7-0.5,1-0.8 c0.3-0.3,0.7-0.5,1-0.8c0.3-0.3,0.7-0.5,1-0.8c0.3-0.3,0.7-0.5,1-0.8c0.3-0.3,0.7-0.5,1-0.8c0.3-0.3,0.7-0.5,1-0.8 c0.3-0.3,0.7-0.5,1-0.8c0.3-0.3,0.7-0.5,1-0.8c-0.3-0.4-0.7-0.8-1.1-1.2c-0.4-0.4-0.7-0.8-1.1-1.2c-0.4-0.4-0.7-0.8-1.1-1.1 c-0.4-0.4-0.7-0.7-1.1-1.1c-0.4-0.4-0.8-0.7-1.1-1.1c-0.4-0.3-0.8-0.7-1.2-1c-0.4-0.3-0.8-0.6-1.2-1 c-0.4-0.3-0.8-0.6-1.2-0.9c-0.4-0.3-0.8-0.6-1.2-0.9c-0.4-0.3-0.8-0.6-1.2-0.8c-0.4-0.3-0.8-0.5-1.2-0.8 c-0.4-0.3-0.8-0.5-1.2-0.8c-0.4-0.2-0.8-0.5-1.2-0.7c-0.4-0.2-0.8-0.5-1.2-0.7c-0.4-0.2-0.8-0.4-1.3-0.6 c-0.4-0.2-0.8-0.4-1.3-0.6c-0.4-0.2-0.8-0.4-1.3-0.6c-0.4-0.2-0.8-0.4-1.3-0.5c-0.4-0.2-0.8-0.3-1.3-0.5 c-0.4-0.2-0.8-0.3-1.3-0.4c-0.4-0.1-0.9-0.3-1.3-0.4c-0.4-0.1-0.9-0.3-1.3-0.4c-0.4-0.1-0.9-0.2-1.3-0.3 c-0.4-0.1-0.9-0.2-1.3-0.3c-0.4-0.1-0.9-0.2-1.3-0.3c-0.4-0.1-0.9-0.2-1.3-0.2c-0.4-0.1-0.9-0.1-1.3-0.2 c-0.4-0.1-0.9-0.1-1.3-0.2c-0.4-0.1-0.9-0.1-1.3-0.1c-0.4,0-0.8-0.1-1.3-0.1c-0.4,0-0.8-0.1-1.3-0.1c-0.4,0-0.8,0-1.3-0.1 c-0.4,0-0.8,0-1.3,0c-0.4,0-0.8,0-1.3,0c-0.4,0-0.8,0-1.3,0c-0.4,0-0.8,0-1.2,0.1c-0.4,0-0.8,0.1-1.2,0.1 c-0.4,0-0.8,0.1-1.2,0.1c-0.4,0-0.8,0.1-1.2,0.2c-0.4,0.1-0.8,0.1-1.2,0.2c-0.4,0.1-0.8,0.1-1.2,0.2 c-0.4,0.1-0.8,0.2-1.2,0.2c-0.4,0.1-0.8,0.2-1.2,0.3c-0.4,0.1-0.8,0.2-1.2,0.3c-0.4,0.1-0.8,0.2-1.2,0.3 c-0.4,0.1-0.8,0.2-1.2,0.3c-0.4,0.1-0.8,0.2-1.2,0.4c-0.4,0.1-0.8,0.3-1.2,0.4c-0.4,0.1-0.8,0.3-1.2,0.4 c-0.4,0.1-0.8,0.3-1.1,0.5c-0.4,0.2-0.8,0.3-1.1,0.5c-0.4,0.2-0.8,0.3-1.1,0.5c-0.4,0.2-0.7,0.4-1.1,0.5 c-0.4,0.2-0.7,0.4-1.1,0.6c-0.4,0.2-0.7,0.4-1.1,0.6c-0.4,0.2-0.7,0.4-1.1,0.6c-0.4,0.2-0.7,0.4-1.1,0.7 c-0.4,0.2-0.7,0.4-1.1,0.7c-0.4,0.2-0.7,0.5-1,0.7c-0.3,0.2-0.7,0.5-1,0.7c-0.3,0.2-0.7,0.5-1,0.8c-0.3,0.3-0.7,0.5-1,0.8 c-0.3,0.3-0.7,0.5-1,0.8c-0.3,0.3-0.7,0.6-1,0.8c-0.3,0.3-0.6,0.6-0.9,0.9c-0.3,0.3-0.6,0.6-0.9,0.9 c-0.3,0.3-0.6,0.6-0.9,0.9c-0.3,0.3-0.6,0.6-0.9,0.9c-0.3,0.3-0.6,0.6-0.8,0.9c-0.3,0.3-0.6,0.6-0.8,0.9 c-0.3,0.3-0.5,0.6-0.8,1c-0.3,0.3-0.5,0.7-0.8,1c-0.3,0.3-0.5,0.7-0.7,1c-0.2,0.3-0.5,0.7-0.7,1c-0.2,0.3-0.5,0.7-0.7,1 c-0.2,0.3-0.5,0.7-0.7,1c-0.2,0.4-0.4,0.7-0.6,1.1c-0.2,0.4-0.4,0.7-0.6,1.1c-0.2,0.4-0.4,0.7-0.6,1.1 c-0.2,0.4-0.4,0.8-0.6,1.2c-0.2,0.4-0.4,0.8-0.6,1.2c-0.2,0.4-0.4,0.8-0.5,1.2c-0.2,0.4-0.3,0.8-0.5,1.2 c-0.2,0.4-0.3,0.8-0.5,1.2c-0.2,0.4-0.3,0.8-0.4,1.2c-0.1,0.4-0.3,0.8-0.4,1.2c-0.1,0.4-0.3,0.8-0.4,1.2 c-0.1,0.4-0.2,0.8-0.4,1.2c-0.1,0.4-0.2,0.8-0.3,1.3c-0.1,0.4-0.2,0.8-0.3,1.3c-0.1,0.4-0.2,0.8-0.3,1.3 c-0.1,0.4-0.2,0.8-0.2,1.3c-0.1,0.4-0.1,0.9-0.2,1.3c-0.1,0.4-0.1,0.9-0.2,1.3c-0.1,0.4-0.1,0.9-0.1,1.3 c0,0.4-0.1,0.9-0.1,1.3c0,0.4-0.1,0.9-0.1,1.3c0,0.4,0,0.9,0,1.3c0,0.4,0,0.9,0,1.3c0,0.4,0,0.9,0,1.3c0,0.4,0,0.9,0.1,1.3 c0,0.4,0.1,0.9,0.1,1.3c0,0.4,0.1,0.9,0.1,1.3c0,0.4,0.1,0.9,0.1,1.3c0.1,0.4,0.1,0.9,0.2,1.3c0.1,0.4,0.1,0.9,0.2,1.3 c0.1,0.4,0.2,0.9,0.2,1.3c0.1,0.4,0.2,0.9,0.3,1.3c0.1,0.4,0.2,0.8,0.3,1.3c0.1,0.4,0.2,0.8,0.3,1.3 c0.1,0.4,0.2,0.8,0.4,1.3c0.1,0.4,0.3,0.8,0.4,1.3c0.1,0.4,0.3,0.8,0.4,1.2c0.2,0.4,0.3,0.8,0.5,1.2 c0.2,0.4,0.3,0.8,0.5,1.2c0.2,0.4,0.4,0.8,0.5,1.2c0.2,0.4,0.4,0.8,0.6,1.2c0.2,0.4,0.4,0.8,0.6,1.2 c0.2,0.4,0.4,0.8,0.6,1.2c0.2,0.4,0.4,0.8,0.7,1.2c0.2,0.4,0.5,0.8,0.7,1.2c0.2,0.4,0.5,0.8,0.7,1.1 c0.2,0.4,0.5,0.8,0.8,1.1c0.3,0.4,0.5,0.7,0.8,1.1c0.3,0.4,0.5,0.7,0.8,1.1c0.3,0.4,0.6,0.7,0.9,1.1 c0.3,0.4,0.6,0.7,0.9,1.1c0.3,0.4,0.6,0.7,0.9,1c0.3,0.3,0.6,0.7,0.9,1c0.3,0.3,0.6,0.7,1,1c0.3,0.3,0.6,0.6,1,1 c0.3,0.3,0.7,0.6,1,0.9c0.3,0.3,0.7,0.6,1,0.9c0.3,0.3,0.7,0.6,1,0.9c0.3,0.3,0.7,0.6,1,0.8c0.4,0.3,0.7,0.5,1.1,0.8 c0.4,0.3,0.7,0.5,1.1,0.8c0.4,0.3,0.7,0.5,1.1,0.7c0.4,0.2,0.7,0.5,1.1,0.7s0.7,0.5,1.1,0.7c0.4,0.2,0.8,0.4,1.1,0.6 c0.4,0.2,0.8,0.4,1.2,0.6c0.4,0.2,0.8,0.4,1.2,0.6c0.4,0.2,0.8,0.4,1.2,0.6c0.4,0.2,0.8,0.4,1.2,0.5 c0.4,0.2,0.8,0.3,1.2,0.5c0.4,0.2,0.8,0.3,1.2,0.5c0.4,0.2,0.8,0.3,1.2,0.4c0.4,0.1,0.8,0.3,1.2,0.4 c0.4,0.1,0.8,0.3,1.2,0.4c0.4,0.1,0.8,0.2,1.2,0.3c0.4,0.1,0.8,0.2,1.3,0.3c0.4,0.1,0.8,0.2,1.3,0.3 c0.4,0.1,0.8,0.2,1.3,0.3c0.4,0.1,0.8,0.2,1.3,0.2c0.4,0.1,0.8,0.1,1.3,0.2c0.4,0.1,0.9,0.1,1.3,0.2c0.4,0,0.9,0.1,1.3,0.1 c0.4,0,0.9,0.1,1.3,0.1c0.4,0,0.9,0.1,1.3,0.1c0.4,0,0.9,0,1.3,0c0.4,0,0.9,0,1.3,0c0.4,0,0.9,0,1.3,0c0.4,0,0.9,0,1.3-0.1 c0.4,0,0.9-0.1,1.3-0.1c0.4,0,0.9-0.1,1.3-0.1c0.4,0,0.9-0.1,1.3-0.1c0.4-0.1,0.9-0.1,1.3-0.2c0.4-0.1,0.9-0.1,1.3-0.2 c0.4-0.1,0.9-0.2,1.3-0.2c0.4-0.1,0.8-0.2,1.3-0.3c0.4-0.1,0.8-0.2,1.3-0.3c0.4-0.1,0.8-0.2,1.3-0.3 c0.4-0.1,0.8-0.2,1.3-0.4c0.4-0.1,0.8-0.3,1.2-0.4s0.8-0.3,1.2-0.4c0.4-0.2,0.8-0.3,1.2-0.5c0.4-0.2,0.8-0.3,1.2-0.5 c0.4-0.2,0.8-0.3,1.2-0.5c0.4-0.2,0.8-0.4,1.2-0.6c0.4-0.2,0.8-0.4,1.2-0.6s0.8-0.4,1.2-0.6c0.4-0.2,0.8-0.4,1.2-0.7 s0.8-0.5,1.2-0.7c0.4-0.2,0.8-0.5,1.1-0.7c0.4-0.2,0.8-0.5,1.1-0.8c0.4-0.3,0.7-0.5,1.1-0.8c0.4-0.3,0.7-0.5,1.1-0.8 c0.3-0.3,0.7-0.5,1-0.8c0.3-0.3,0.7-0.5,1-0.8c0.3-0.3,0.6-0.5,0.9-0.8c0.3-0.3,0.6-0.6,0.9-0.8c0.3-0.3,0.6-0.6,0.9-0.9 c0.3-0.3,0.6-0.6,0.9-0.9c0.3-0.3,0.6-0.6,0.8-0.9c0.3-0.3,0.5-0.6,0.8-0.9c0.3-0.3,0.5-0.6,0.8-0.9 c0.3-0.3,0.5-0.6,0.8-0.9c0.2-0.3,0.5-0.6,0.7-0.9c0.2-0.3,0.5-0.6,0.7-0.9c0.2-0.3,0.5-0.6,0.7-0.9c0.2-0.3,0.4-0.6,0.7-1 c0.2-0.3,0.4-0.6,0.6-1c0.2-0.3,0.4-0.7,0.6-1c0.2-0.3,0.4-0.7,0.6-1c0.2-0.3,0.4-0.7,0.6-1c0.2-0.3,0.4-0.7,0.5-1 c0.2-0.3,0.4-0.7,0.5-1c0.2-0.3,0.3-0.7,0.5-1c0.2-0.3,0.3-0.7,0.5-1c0.2-0.4,0.3-0.7,0.5-1.1c0.1-0.4,0.3-0.7,0.4-1.1 c0.1-0.4,0.3-0.7,0.4-1.1c0.1-0.4,0.3-0.7,0.4-1.1c0.1-0.4,0.2-0.7,0.4-1.1c0.1-0.4,0.2-0.7,0.3-1.1 c0.1-0.4,0.2-0.7,0.3-1.1c0.1-0.4,0.2-0.8,0.3-1.1c0.1-0.4,0.2-0.8,0.3-1.1c0.1-0.4,0.2-0.8,0.2-1.2 c0.1-0.4,0.2-0.8,0.2-1.2c0.1-0.4,0.1-0.8,0.2-1.2c0.1-0.4,0.1-0.8,0.2-1.2c0.1-0.4,0.1-0.8,0.1-1.2s0.1-0.8,0.1-1.2 c0-0.4,0.1-0.8,0.1-1.2c0-0.4,0-0.8,0.1-1.2c0-0.4,0-0.8,0-1.2c0-0.4,0-0.8,0-1.2c0-0.4,0-0.8,0-1.3c0-0.4,0-0.8-0.1-1.3 c0-0.4-0.1-0.8-0.1-1.3c0-0.4-0.1-0.9-0.1-1.3c0-0.4-0.1-0.9-0.1-1.3c-0.1-0.4-0.1-0.9-0.2-1.3c-0.1-0.4-0.1-0.9-0.2-1.3 c-0.1-0.4-0.2-0.9-0.3-1.3c-0.1-0.4-0.2-0.9-0.3-1.3c-0.1-0.4-0.2-0.9-0.3-1.3c-0.1-0.4-0.2-0.9-0.4-1.3 c-0.1-0.4-0.3-0.9-0.4-1.3c-0.1-0.4-0.3-0.9-0.4-1.3c-0.2-0.4-0.3-0.9-0.5-1.3c-0.2-0.4-0.3-0.9-0.5-1.4 c-0.2-0.5-0.4-0.9-0.6-1.4c-0.2-0.5-0.4-0.9-0.6-1.4c-0.2-0.5-0.4-0.9-0.7-1.4c-0.2-0.5-0.5-0.9-0.7-1.4 c-0.2-0.5-0.5-0.9-0.8-1.4c-0.3-0.5-0.5-0.9-0.8-1.4c-0.3-0.5-0.6-0.9-0.9-1.4c-0.3-0.4-0.6-0.9-0.9-1.3 c-0.3-0.4-0.7-0.9-1-1.3c-0.3-0.4-0.7-0.9-1.1-1.3c-0.3,0.3-0.7,0.5-1,0.8c-0.3,0.3-0.7,0.5-1,0.8c-0.3,0.3-0.7,0.5-1,0.8 c-0.3,0.3-0.7,0.5-1,0.8c-0.3,0.3-0.7,0.5-1,0.8c-0.3,0.3-0.7,0.5-1,0.8c-0.3,0.3-0.7,0.5-1,0.8c-0.3,0.3-0.7,0.5-1,0.8 c-0.3,0.3-0.7,0.5-1,0.8c-0.3,0.3-0.7,0.5-1,0.8c-0.3,0.3-0.7,0.5-1,0.8c-0.3,0.3-0.7,0.5-1,0.8c-0.3,0.3-0.7,0.5-1,0.8 c-0.3,0.3-0.7,0.5-1,0.8c-0.3,0.3-0.7,0.5-1,0.8c-0.3,0.3-0.7,0.5-1,0.8c-0.3,0.3-0.7,0.5-1,0.8c-0.3,0.3-0.7,0.5-1,0.8 c-0.3,0.3-0.7,0.5-1,0.8c-0.3,0.3-0.7,0.5-1,0.8c-0.3,0.3-0.7,0.5-1,0.8c-0.3,0.3-0.7,0.5-1,0.8c-0.3,0.3-0.7,0.5-1,0.8 c-0.3,0.3-0.7,0.5-1,0.8c-0.3,0.3-0.7,0.5-1,0.8c-0.3,0.3-0.7,0.5-1,0.8c-0.3,0.3-0.7,0.5-1,0.8c-0.3,0.3-0.7,0.5-1,0.8 c-0.3,0.3-0.7,0.5-1,0.8c-0.3,0.3-0.7,0.5-1,0.8c-0.3,0.3-0.7,0.5-1,0.8c-0.3,0.3-0.7,0.5-1,0.8c-0.3,0.3-0.7,0.5-1,0.8 c-0.3,0.3-0.7,0.5-1,0.8c-0.3,0.3-0.7,0.5-1,0.8c-0.3,0.3-0.7,0.5-1,0.8c-0.3,0.3-0.7,0.5-1,0.8c-0.3,0.3-0.7,0.5-1,0.8 c-0.3,0.3-0.7,0.5-1,0.8c-0.3,0.3-0.7,0.5-1,0.8C203.3,104.1,203,104.4,202.7,104.6L202.7,104.6z"></path> </defs> <clipPath id="SVGID_18_"> <use xlink:href="#SVGID_85_" style="overflow:visible;"></use> </clipPath> <g class="st27"> <linearGradient id="SVGID_19_" gradientUnits="userSpaceOnUse" x1="-208.6844" y1="510.9843" x2="-208.5184" y2="510.9843" gradientTransform="matrix(546.372 -637.932 -746.498 -639.355 495627.8125 193738.1719)"> <stop offset="0" style="stop-color:#FED900"></stop> <stop offset="0.24" style="stop-color:#FED900"></stop> <stop offset="0.43" style="stop-color:#FDD80D"></stop> <stop offset="0.58" style="stop-color:#FECE11"></stop> <stop offset="0.64" style="stop-color:#F6C01A"></stop> <stop offset="0.72" style="stop-color:#F0B51C"></stop> <stop offset="1" style="stop-color:#EEB11E"></stop> </linearGradient> <path class="st28" d="M158,55.1h95.1v111.2H158V55.1z"></path> <linearGradient id="SVGID_20_" gradientUnits="userSpaceOnUse" x1="-210.7315" y1="509.7201" x2="-210.5655" y2="509.7201" gradientTransform="matrix(287.24 325.886 325.886 -287.24 -105400.0391 215168.2656)"> <stop offset="0" style="stop-color:#EEB11E;stop-opacity:0"></stop> <stop offset="0.32" style="stop-color:#EAA522;stop-opacity:0.15"></stop> <stop offset="0.42" style="stop-color:#DF8226;stop-opacity:0.55"></stop> <stop offset="0.5" style="stop-color:#D25D27"></stop> <stop offset="0.59" style="stop-color:#E48725;stop-opacity:0.56"></stop> <stop offset="0.69" style="stop-color:#F4AF1C;stop-opacity:0.16"></stop> <stop offset="1" style="stop-color:#FBBF12;stop-opacity:0"></stop> </linearGradient> <path class="st29" d="M157.9,55H253v111.2h-95.1V55z"></path> <radialGradient id="SVGID_21_" cx="-209.6925" cy="511.2373" r="0.166" gradientTransform="matrix(469.345 -411.593 -481.64 -549.22 344881.5625 194551.1719)" gradientUnits="userSpaceOnUse"> <stop offset="0" style="stop-color:#D15627"></stop> <stop offset="1.000000e-02" style="stop-color:#D15627"></stop> <stop offset="0.19" style="stop-color:#DD7A26;stop-opacity:0.7"></stop> <stop offset="0.42" style="stop-color:#FDD110;stop-opacity:0"></stop> <stop offset="0.63" style="stop-color:#FDD110;stop-opacity:0.74"></stop> <stop offset="0.82" style="stop-color:#FDD110"></stop> <stop offset="1" style="stop-color:#FDD110"></stop> </radialGradient> <path class="st30" d="M158,55.1h95.1v111.2H158V55.1z"></path> <linearGradient id="SVGID_22_" gradientUnits="userSpaceOnUse" x1="-211.6003" y1="514.9824" x2="-211.4343" y2="514.9824" gradientTransform="matrix(151.127 -84.275 -84.275 -151.127 75589.6172 60102.7188)"> <stop offset="0" style="stop-color:#EEB11E;stop-opacity:0"></stop> <stop offset="0.27" style="stop-color:#F1B51C;stop-opacity:0.11"></stop> <stop offset="0.5" style="stop-color:#FBC717;stop-opacity:0.5"></stop> <stop offset="0.73" style="stop-color:#FBC115;stop-opacity:0.11"></stop> <stop offset="1" style="stop-color:#FBBF12;stop-opacity:0"></stop> </linearGradient> <path class="st31" d="M157.9,55H253v111.2h-95.1V55z"></path> <linearGradient id="SVGID_23_" gradientUnits="userSpaceOnUse" x1="-204.122" y1="524.5893" x2="-203.956" y2="524.5893" gradientTransform="matrix(12.8948 -69.7277 -69.7277 -12.8948 39418.1992 -7370.02)"> <stop offset="0" style="stop-color:#EEB11E;stop-opacity:0"></stop> <stop offset="0.5" style="stop-color:#FBC717;stop-opacity:0.2"></stop> <stop offset="0.58" style="stop-color:#FAC216;stop-opacity:0.11"></stop> <stop offset="0.67" style="stop-color:#FCC012;stop-opacity:3.000000e-02"></stop> <stop offset="1" style="stop-color:#FBBF12;stop-opacity:0"></stop> </linearGradient> <path class="st32" d="M157.9,55H253v111.2h-95.1V55z"></path> <linearGradient id="SVGID_24_" gradientUnits="userSpaceOnUse" x1="-208.6868" y1="510.9882" x2="-208.5209" y2="510.9882" gradientTransform="matrix(545.542 -633.754 -741.608 -638.385 492959.875 194114.8906)"> <stop offset="0" style="stop-color:#EFAF1E"></stop> <stop offset="0.23" style="stop-color:#F3BB1A;stop-opacity:0.9"></stop> <stop offset="0.52" style="stop-color:#FDD80D;stop-opacity:0.67"></stop> <stop offset="0.73" style="stop-color:#FDD80D;stop-opacity:0"></stop> <stop offset="1" style="stop-color:#EEB11E;stop-opacity:0"></stop> </linearGradient> <path class="st33" d="M157.9,54.9H253v111.2h-95.1V54.9z"></path> </g> </g> </g> </g> </g> </g> <g> <defs> <path id="SVGID_93_" d="M201.3,89.9l-5.3-5.3c-7.8,4.8-6.8,17.1,2.9,26.4c9.4,9,21.8,10.3,27.4,3.9c4.9-5.7,2.8-15.9-4.5-23.5 l-3.2,2.7c5,5.2,6.4,12.1,2.8,15.8c-3.8,4-12,2.9-17.9-2.9C197.3,101.1,196.5,93.2,201.3,89.9L201.3,89.9z"></path> </defs> <clipPath id="SVGID_25_"> <use xlink:href="#SVGID_93_" style="overflow:visible;"></use> </clipPath> <g class="st34"> <g> <defs> <path id="SVGID_95_" d="M202.7,104.6c0.4-0.3,0.8-0.7,1.2-1c0.4-0.3,0.8-0.6,1.2-0.9c0.4-0.3,0.8-0.6,1.1-0.9 c0.4-0.3,0.7-0.6,1.1-0.9c0.4-0.3,0.7-0.6,1.1-0.9c0.4-0.3,0.7-0.6,1.1-0.9c0.3-0.3,0.7-0.6,1-0.9c0.3-0.3,0.7-0.6,1-0.8 c0.3-0.3,0.7-0.5,1-0.8c0.3-0.3,0.7-0.5,1-0.8c0.3-0.3,0.6-0.5,1-0.8c0.3-0.3,0.6-0.5,1-0.8c0.3-0.3,0.6-0.5,0.9-0.8 c0.3-0.3,0.6-0.5,0.9-0.8c0.3-0.3,0.6-0.5,0.9-0.8c0.3-0.3,0.6-0.5,0.9-0.8c0.3-0.2,0.6-0.5,0.9-0.7c0.3-0.2,0.6-0.5,0.9-0.7 c0.3-0.2,0.6-0.5,0.9-0.7c0.3-0.2,0.6-0.5,0.9-0.7c0.3-0.2,0.6-0.5,0.9-0.7c0.3-0.2,0.6-0.5,0.9-0.7c0.3-0.2,0.6-0.5,0.9-0.7 c0.3-0.2,0.6-0.5,0.9-0.7c0.3-0.2,0.6-0.5,0.9-0.7c0.3-0.2,0.6-0.5,0.9-0.8c0.3-0.3,0.6-0.5,0.9-0.8c0.3-0.3,0.6-0.5,0.9-0.8 c0.3-0.3,0.6-0.5,0.9-0.8c0.3-0.3,0.6-0.5,1-0.8c0.3-0.3,0.6-0.5,1-0.8c0.3-0.3,0.7-0.5,1-0.8c0.3-0.3,0.7-0.5,1-0.8 c0.3-0.3,0.7-0.6,1-0.8c0.3-0.3,0.7-0.6,1-0.9c0.3-0.3,0.7-0.6,1.1-0.9c0.4-0.3,0.7-0.6,1.1-0.9c0.4-0.3,0.7-0.6,1.1-0.9 c0.4-0.3,0.7-0.6,1.1-0.9c0.4-0.3,0.8-0.6,1.2-0.9c0.4-0.3,0.8-0.6,1.2-1c-0.7-0.9-1.5-1.7-2.2-2.5c-0.8-0.8-1.5-1.6-2.3-2.3 c-0.8-0.7-1.6-1.5-2.4-2.2c-0.8-0.7-1.7-1.3-2.5-2c-0.8-0.6-1.7-1.2-2.6-1.8c-0.9-0.6-1.8-1.1-2.6-1.6c-0.9-0.5-1.8-1-2.7-1.4 c-0.9-0.4-1.8-0.9-2.7-1.3c-0.9-0.4-1.8-0.8-2.8-1.1c-0.9-0.3-1.9-0.6-2.8-0.9c-0.9-0.3-1.9-0.5-2.8-0.8 c-0.9-0.2-1.9-0.4-2.8-0.6c-0.9-0.2-1.9-0.3-2.8-0.4c-0.9-0.1-1.9-0.2-2.8-0.3c-0.9-0.1-1.9-0.1-2.8-0.1c-0.9,0-1.9,0-2.8,0 c-0.9,0-1.9,0.1-2.8,0.2c-0.9,0.1-1.9,0.2-2.8,0.3c-0.9,0.1-1.8,0.3-2.7,0.5c-0.9,0.2-1.8,0.4-2.7,0.6 c-0.9,0.2-1.8,0.5-2.7,0.7c-0.9,0.3-1.7,0.6-2.6,0.9c-0.9,0.3-1.7,0.7-2.6,1c-0.8,0.4-1.7,0.7-2.5,1.2 c-0.8,0.4-1.6,0.8-2.4,1.3c-0.8,0.5-1.6,0.9-2.4,1.4c-0.8,0.5-1.6,1-2.3,1.5c-0.8,0.5-1.5,1.1-2.2,1.7 c-0.7,0.6-1.5,1.2-2.2,1.8c-0.7,0.6-1.4,1.2-2,1.9c-0.7,0.6-1.3,1.3-1.9,1.9c-0.6,0.7-1.2,1.3-1.8,2c-0.6,0.7-1.1,1.4-1.6,2.1 c-0.5,0.7-1,1.4-1.5,2.1c-0.5,0.7-1,1.4-1.4,2.2c-0.4,0.7-0.9,1.5-1.3,2.2c-0.4,0.7-0.8,1.5-1.2,2.3c-0.4,0.8-0.7,1.5-1,2.3 c-0.3,0.8-0.6,1.5-0.9,2.3c-0.3,0.8-0.6,1.6-0.8,2.4c-0.3,0.8-0.5,1.6-0.7,2.4c-0.2,0.8-0.4,1.6-0.6,2.4 c-0.2,0.8-0.3,1.6-0.5,2.4c-0.1,0.8-0.3,1.6-0.4,2.4c-0.1,0.8-0.2,1.6-0.2,2.4c-0.1,0.8-0.1,1.6-0.1,2.4c0,0.8,0,1.6,0,2.4 c0,0.8,0,1.6,0.1,2.4c0,0.8,0.1,1.6,0.2,2.4c0.1,0.8,0.2,1.6,0.3,2.4c0.1,0.8,0.3,1.6,0.4,2.4c0.2,0.8,0.3,1.6,0.5,2.4 c0.2,0.8,0.4,1.6,0.6,2.3c0.2,0.8,0.5,1.5,0.7,2.3c0.3,0.8,0.6,1.5,0.9,2.3c0.3,0.8,0.6,1.5,1,2.2c0.3,0.7,0.7,1.5,1.1,2.2 c0.4,0.7,0.8,1.5,1.2,2.2c0.4,0.7,0.8,1.4,1.3,2.1c0.4,0.7,0.9,1.4,1.4,2.1c0.5,0.7,1,1.4,1.5,2c0.5,0.7,1.1,1.3,1.6,2 c0.6,0.6,1.1,1.3,1.7,1.9c0.6,0.6,1.2,1.2,1.8,1.8c0.6,0.6,1.2,1.1,1.8,1.7c0.6,0.5,1.3,1.1,1.9,1.6c0.6,0.5,1.3,1,2,1.5 c0.7,0.5,1.3,0.9,2,1.4c0.7,0.4,1.4,0.9,2.1,1.3c0.7,0.4,1.4,0.8,2.1,1.2c0.7,0.4,1.4,0.7,2.2,1.1c0.7,0.3,1.5,0.7,2.2,1 c0.7,0.3,1.5,0.6,2.3,0.9c0.8,0.3,1.5,0.5,2.3,0.8c0.8,0.2,1.5,0.5,2.3,0.7c0.8,0.2,1.6,0.4,2.4,0.6c0.8,0.2,1.6,0.3,2.4,0.4 c0.8,0.1,1.6,0.2,2.4,0.3c0.8,0.1,1.6,0.2,2.4,0.2c0.8,0.1,1.6,0.1,2.4,0.1c0.8,0,1.6,0,2.5,0c0.8,0,1.6-0.1,2.5-0.1 c0.8-0.1,1.6-0.1,2.5-0.2c0.8-0.1,1.6-0.2,2.5-0.3c0.8-0.1,1.6-0.3,2.5-0.5c0.8-0.2,1.6-0.4,2.5-0.6c0.8-0.2,1.6-0.4,2.4-0.7 c0.8-0.3,1.6-0.5,2.4-0.8c0.8-0.3,1.6-0.6,2.4-1c0.8-0.3,1.6-0.7,2.4-1.1c0.8-0.4,1.6-0.8,2.3-1.2c0.8-0.4,1.5-0.9,2.3-1.4 c0.8-0.5,1.5-1,2.3-1.5c0.7-0.5,1.5-1.1,2.2-1.6c0.7-0.6,1.5-1.2,2.2-1.8c0.7-0.6,1.4-1.2,2.1-1.9c0.7-0.6,1.3-1.3,2-2 c0.6-0.7,1.3-1.4,1.8-2.1c0.6-0.7,1.2-1.4,1.7-2.2c0.6-0.7,1.1-1.5,1.6-2.2c0.5-0.8,1-1.5,1.5-2.3c0.5-0.8,0.9-1.6,1.4-2.4 c0.4-0.8,0.9-1.6,1.2-2.5c0.4-0.8,0.8-1.7,1.1-2.5c0.4-0.9,0.7-1.7,1-2.6c0.3-0.9,0.6-1.8,0.9-2.7c0.3-0.9,0.5-1.8,0.7-2.7 c0.2-0.9,0.4-1.8,0.6-2.8c0.2-0.9,0.3-1.9,0.4-2.8c0.1-0.9,0.2-1.9,0.3-2.8c0.1-1,0.1-1.9,0.1-2.9c0-1,0-1.9,0-2.9 c0-1-0.1-1.9-0.2-2.9c-0.1-1-0.2-2-0.4-2.9c-0.1-1-0.3-2-0.5-2.9c-0.2-1-0.4-2-0.7-2.9c-0.3-1-0.6-2-0.9-2.9 c-0.3-1-0.7-1.9-1.1-2.9c-0.4-1-0.8-1.9-1.3-2.9c-0.4-1-0.9-1.9-1.4-2.8c-0.5-0.9-1.1-1.9-1.6-2.8c-0.6-0.9-1.2-1.8-1.9-2.7 c-0.7-0.9-1.3-1.8-2.1-2.7c-0.4,0.3-0.8,0.7-1.2,1c-0.4,0.3-0.8,0.6-1.2,0.9c-0.4,0.3-0.8,0.6-1.1,0.9 c-0.4,0.3-0.7,0.6-1.1,0.9c-0.4,0.3-0.7,0.6-1.1,0.9c-0.4,0.3-0.7,0.6-1.1,0.9c-0.3,0.3-0.7,0.6-1,0.9c-0.3,0.3-0.7,0.6-1,0.8 c-0.3,0.3-0.7,0.5-1,0.8c-0.3,0.3-0.7,0.5-1,0.8c-0.3,0.3-0.6,0.5-1,0.8c-0.3,0.3-0.6,0.5-1,0.8c-0.3,0.3-0.6,0.5-0.9,0.8 c-0.3,0.3-0.6,0.5-0.9,0.8c-0.3,0.3-0.6,0.5-0.9,0.8c-0.3,0.3-0.6,0.5-0.9,0.8c-0.3,0.2-0.6,0.5-0.9,0.7 c-0.3,0.2-0.6,0.5-0.9,0.7c-0.3,0.2-0.6,0.5-0.9,0.7c-0.3,0.2-0.6,0.5-0.9,0.7c-0.3,0.2-0.6,0.5-0.9,0.7 c-0.3,0.2-0.6,0.5-0.9,0.7c-0.3,0.2-0.6,0.5-0.9,0.7c-0.3,0.2-0.6,0.5-0.9,0.7c-0.3,0.2-0.6,0.5-0.9,0.7 c-0.3,0.2-0.6,0.5-0.9,0.8c-0.3,0.3-0.6,0.5-0.9,0.8c-0.3,0.3-0.6,0.5-0.9,0.8c-0.3,0.3-0.6,0.5-0.9,0.8 c-0.3,0.3-0.6,0.5-1,0.8c-0.3,0.3-0.6,0.5-1,0.8c-0.3,0.3-0.7,0.5-1,0.8c-0.3,0.3-0.7,0.5-1,0.8c-0.3,0.3-0.7,0.6-1,0.8 c-0.3,0.3-0.7,0.6-1,0.9c-0.3,0.3-0.7,0.6-1.1,0.9c-0.4,0.3-0.7,0.6-1.1,0.9c-0.4,0.3-0.7,0.6-1.1,0.9 c-0.4,0.3-0.7,0.6-1.1,0.9c-0.4,0.3-0.8,0.6-1.2,0.9C203.5,104,203.1,104.3,202.7,104.6L202.7,104.6z"></path> </defs> <clipPath id="SVGID_26_"> <use xlink:href="#SVGID_95_" style="overflow:visible;"></use> </clipPath> <g class="st35"> <g> <defs> <path id="SVGID_97_" d="M202.7,104.6c0.3-0.3,0.7-0.5,1-0.8c0.3-0.3,0.7-0.5,1-0.8s0.7-0.5,1-0.8c0.3-0.3,0.7-0.5,1-0.8 c0.3-0.3,0.7-0.5,1-0.8c0.3-0.3,0.7-0.5,1-0.8c0.3-0.3,0.7-0.5,1-0.8c0.3-0.3,0.7-0.5,1-0.8c0.3-0.3,0.7-0.5,1-0.8 c0.3-0.3,0.7-0.5,1-0.8c0.3-0.3,0.7-0.5,1-0.8c0.3-0.3,0.7-0.5,1-0.8c0.3-0.3,0.7-0.5,1-0.8c0.3-0.3,0.7-0.5,1-0.8 c0.3-0.3,0.7-0.5,1-0.8c0.3-0.3,0.7-0.5,1-0.8c0.3-0.3,0.7-0.5,1-0.8c0.3-0.3,0.7-0.5,1-0.8c0.3-0.3,0.7-0.5,1-0.8 c0.3-0.3,0.7-0.5,1-0.8c0.3-0.3,0.7-0.5,1-0.8c0.3-0.3,0.7-0.5,1-0.8c0.3-0.3,0.7-0.5,1-0.8c0.3-0.3,0.7-0.5,1-0.8 c0.3-0.3,0.7-0.5,1-0.8c0.3-0.3,0.7-0.5,1-0.8c0.3-0.3,0.7-0.5,1-0.8c0.3-0.3,0.7-0.5,1-0.8c0.3-0.3,0.7-0.5,1-0.8 s0.7-0.5,1-0.8c0.3-0.3,0.7-0.5,1-0.8c0.3-0.3,0.7-0.5,1-0.8c0.3-0.3,0.7-0.5,1-0.8c0.3-0.3,0.7-0.5,1-0.8 c0.3-0.3,0.7-0.5,1-0.8c0.3-0.3,0.7-0.5,1-0.8c0.3-0.3,0.7-0.5,1-0.8c0.3-0.3,0.7-0.5,1-0.8c0.3-0.3,0.7-0.5,1-0.8 c0.3-0.3,0.7-0.5,1-0.8c0.3-0.3,0.7-0.5,1-0.8c-0.3-0.4-0.7-0.8-1.1-1.2c-0.4-0.4-0.7-0.8-1.1-1.2c-0.4-0.4-0.7-0.8-1.1-1.1 c-0.4-0.4-0.7-0.7-1.1-1.1c-0.4-0.4-0.8-0.7-1.1-1.1c-0.4-0.3-0.8-0.7-1.2-1c-0.4-0.3-0.8-0.6-1.2-1 c-0.4-0.3-0.8-0.6-1.2-0.9c-0.4-0.3-0.8-0.6-1.2-0.9c-0.4-0.3-0.8-0.6-1.2-0.8c-0.4-0.3-0.8-0.5-1.2-0.8 c-0.4-0.3-0.8-0.5-1.2-0.8c-0.4-0.2-0.8-0.5-1.2-0.7c-0.4-0.2-0.8-0.5-1.2-0.7c-0.4-0.2-0.8-0.4-1.3-0.6 c-0.4-0.2-0.8-0.4-1.3-0.6c-0.4-0.2-0.8-0.4-1.3-0.6c-0.4-0.2-0.8-0.4-1.3-0.5c-0.4-0.2-0.8-0.3-1.3-0.5 c-0.4-0.2-0.8-0.3-1.3-0.4c-0.4-0.1-0.9-0.3-1.3-0.4c-0.4-0.1-0.9-0.3-1.3-0.4c-0.4-0.1-0.9-0.2-1.3-0.3 c-0.4-0.1-0.9-0.2-1.3-0.3c-0.4-0.1-0.9-0.2-1.3-0.3c-0.4-0.1-0.9-0.2-1.3-0.2c-0.4-0.1-0.9-0.1-1.3-0.2 c-0.4-0.1-0.9-0.1-1.3-0.2c-0.4-0.1-0.9-0.1-1.3-0.1c-0.4,0-0.8-0.1-1.3-0.1c-0.4,0-0.8-0.1-1.3-0.1c-0.4,0-0.8,0-1.3-0.1 c-0.4,0-0.8,0-1.3,0c-0.4,0-0.8,0-1.3,0c-0.4,0-0.8,0-1.3,0c-0.4,0-0.8,0-1.2,0.1c-0.4,0-0.8,0.1-1.2,0.1 c-0.4,0-0.8,0.1-1.2,0.1c-0.4,0-0.8,0.1-1.2,0.2c-0.4,0.1-0.8,0.1-1.2,0.2c-0.4,0.1-0.8,0.1-1.2,0.2 c-0.4,0.1-0.8,0.2-1.2,0.2c-0.4,0.1-0.8,0.2-1.2,0.3c-0.4,0.1-0.8,0.2-1.2,0.3c-0.4,0.1-0.8,0.2-1.2,0.3 c-0.4,0.1-0.8,0.2-1.2,0.3c-0.4,0.1-0.8,0.2-1.2,0.4c-0.4,0.1-0.8,0.3-1.2,0.4c-0.4,0.1-0.8,0.3-1.2,0.4 c-0.4,0.1-0.8,0.3-1.1,0.5c-0.4,0.2-0.8,0.3-1.1,0.5c-0.4,0.2-0.8,0.3-1.1,0.5c-0.4,0.2-0.7,0.4-1.1,0.5 c-0.4,0.2-0.7,0.4-1.1,0.6c-0.4,0.2-0.7,0.4-1.1,0.6c-0.4,0.2-0.7,0.4-1.1,0.6c-0.4,0.2-0.7,0.4-1.1,0.7 c-0.4,0.2-0.7,0.4-1.1,0.7c-0.4,0.2-0.7,0.5-1,0.7c-0.3,0.2-0.7,0.5-1,0.7c-0.3,0.2-0.7,0.5-1,0.8c-0.3,0.3-0.7,0.5-1,0.8 c-0.3,0.3-0.7,0.5-1,0.8c-0.3,0.3-0.7,0.6-1,0.8c-0.3,0.3-0.6,0.6-0.9,0.9c-0.3,0.3-0.6,0.6-0.9,0.9 c-0.3,0.3-0.6,0.6-0.9,0.9c-0.3,0.3-0.6,0.6-0.9,0.9c-0.3,0.3-0.6,0.6-0.8,0.9c-0.3,0.3-0.6,0.6-0.8,0.9 c-0.3,0.3-0.5,0.6-0.8,1c-0.3,0.3-0.5,0.7-0.8,1c-0.3,0.3-0.5,0.7-0.7,1c-0.2,0.3-0.5,0.7-0.7,1c-0.2,0.3-0.5,0.7-0.7,1 c-0.2,0.3-0.5,0.7-0.7,1c-0.2,0.4-0.4,0.7-0.6,1.1c-0.2,0.4-0.4,0.7-0.6,1.1c-0.2,0.4-0.4,0.7-0.6,1.1 c-0.2,0.4-0.4,0.8-0.6,1.2c-0.2,0.4-0.4,0.8-0.6,1.2c-0.2,0.4-0.4,0.8-0.5,1.2c-0.2,0.4-0.3,0.8-0.5,1.2 c-0.2,0.4-0.3,0.8-0.5,1.2c-0.2,0.4-0.3,0.8-0.4,1.2c-0.1,0.4-0.3,0.8-0.4,1.2c-0.1,0.4-0.3,0.8-0.4,1.2 c-0.1,0.4-0.2,0.8-0.4,1.2c-0.1,0.4-0.2,0.8-0.3,1.3c-0.1,0.4-0.2,0.8-0.3,1.3c-0.1,0.4-0.2,0.8-0.3,1.3 c-0.1,0.4-0.2,0.8-0.2,1.3c-0.1,0.4-0.1,0.9-0.2,1.3c-0.1,0.4-0.1,0.9-0.2,1.3c-0.1,0.4-0.1,0.9-0.1,1.3 c0,0.4-0.1,0.9-0.1,1.3c0,0.4-0.1,0.9-0.1,1.3c0,0.4,0,0.9,0,1.3c0,0.4,0,0.9,0,1.3c0,0.4,0,0.9,0,1.3c0,0.4,0,0.9,0.1,1.3 c0,0.4,0.1,0.9,0.1,1.3c0,0.4,0.1,0.9,0.1,1.3c0,0.4,0.1,0.9,0.1,1.3c0.1,0.4,0.1,0.9,0.2,1.3c0.1,0.4,0.1,0.9,0.2,1.3 c0.1,0.4,0.2,0.9,0.2,1.3c0.1,0.4,0.2,0.9,0.3,1.3c0.1,0.4,0.2,0.8,0.3,1.3c0.1,0.4,0.2,0.8,0.3,1.3 c0.1,0.4,0.2,0.8,0.4,1.3c0.1,0.4,0.3,0.8,0.4,1.3c0.1,0.4,0.3,0.8,0.4,1.2c0.2,0.4,0.3,0.8,0.5,1.2 c0.2,0.4,0.3,0.8,0.5,1.2c0.2,0.4,0.4,0.8,0.5,1.2c0.2,0.4,0.4,0.8,0.6,1.2c0.2,0.4,0.4,0.8,0.6,1.2 c0.2,0.4,0.4,0.8,0.6,1.2c0.2,0.4,0.4,0.8,0.7,1.2c0.2,0.4,0.5,0.8,0.7,1.2c0.2,0.4,0.5,0.8,0.7,1.1 c0.2,0.4,0.5,0.8,0.8,1.1c0.3,0.4,0.5,0.7,0.8,1.1c0.3,0.4,0.5,0.7,0.8,1.1c0.3,0.4,0.6,0.7,0.9,1.1 c0.3,0.4,0.6,0.7,0.9,1.1c0.3,0.4,0.6,0.7,0.9,1c0.3,0.3,0.6,0.7,0.9,1c0.3,0.3,0.6,0.7,1,1c0.3,0.3,0.6,0.6,1,1 c0.3,0.3,0.7,0.6,1,0.9c0.3,0.3,0.7,0.6,1,0.9c0.3,0.3,0.7,0.6,1,0.9c0.3,0.3,0.7,0.6,1,0.8c0.4,0.3,0.7,0.5,1.1,0.8 c0.4,0.3,0.7,0.5,1.1,0.8c0.4,0.3,0.7,0.5,1.1,0.7c0.4,0.2,0.7,0.5,1.1,0.7s0.7,0.5,1.1,0.7c0.4,0.2,0.8,0.4,1.1,0.6 c0.4,0.2,0.8,0.4,1.2,0.6c0.4,0.2,0.8,0.4,1.2,0.6c0.4,0.2,0.8,0.4,1.2,0.6c0.4,0.2,0.8,0.4,1.2,0.5 c0.4,0.2,0.8,0.3,1.2,0.5c0.4,0.2,0.8,0.3,1.2,0.5c0.4,0.2,0.8,0.3,1.2,0.4c0.4,0.1,0.8,0.3,1.2,0.4 c0.4,0.1,0.8,0.3,1.2,0.4c0.4,0.1,0.8,0.2,1.2,0.3c0.4,0.1,0.8,0.2,1.3,0.3c0.4,0.1,0.8,0.2,1.3,0.3 c0.4,0.1,0.8,0.2,1.3,0.3c0.4,0.1,0.8,0.2,1.3,0.2c0.4,0.1,0.8,0.1,1.3,0.2c0.4,0.1,0.9,0.1,1.3,0.2c0.4,0,0.9,0.1,1.3,0.1 c0.4,0,0.9,0.1,1.3,0.1c0.4,0,0.9,0.1,1.3,0.1c0.4,0,0.9,0,1.3,0c0.4,0,0.9,0,1.3,0c0.4,0,0.9,0,1.3,0c0.4,0,0.9,0,1.3-0.1 c0.4,0,0.9-0.1,1.3-0.1c0.4,0,0.9-0.1,1.3-0.1c0.4,0,0.9-0.1,1.3-0.1c0.4-0.1,0.9-0.1,1.3-0.2c0.4-0.1,0.9-0.1,1.3-0.2 c0.4-0.1,0.9-0.2,1.3-0.2c0.4-0.1,0.8-0.2,1.3-0.3c0.4-0.1,0.8-0.2,1.3-0.3c0.4-0.1,0.8-0.2,1.3-0.3 c0.4-0.1,0.8-0.2,1.3-0.4c0.4-0.1,0.8-0.3,1.2-0.4s0.8-0.3,1.2-0.4c0.4-0.2,0.8-0.3,1.2-0.5c0.4-0.2,0.8-0.3,1.2-0.5 c0.4-0.2,0.8-0.3,1.2-0.5c0.4-0.2,0.8-0.4,1.2-0.6c0.4-0.2,0.8-0.4,1.2-0.6s0.8-0.4,1.2-0.6c0.4-0.2,0.8-0.4,1.2-0.7 s0.8-0.5,1.2-0.7c0.4-0.2,0.8-0.5,1.1-0.7c0.4-0.2,0.8-0.5,1.1-0.8c0.4-0.3,0.7-0.5,1.1-0.8c0.4-0.3,0.7-0.5,1.1-0.8 c0.3-0.3,0.7-0.5,1-0.8c0.3-0.3,0.7-0.5,1-0.8c0.3-0.3,0.6-0.5,0.9-0.8c0.3-0.3,0.6-0.6,0.9-0.8c0.3-0.3,0.6-0.6,0.9-0.9 c0.3-0.3,0.6-0.6,0.9-0.9c0.3-0.3,0.6-0.6,0.8-0.9c0.3-0.3,0.5-0.6,0.8-0.9c0.3-0.3,0.5-0.6,0.8-0.9 c0.3-0.3,0.5-0.6,0.8-0.9c0.2-0.3,0.5-0.6,0.7-0.9c0.2-0.3,0.5-0.6,0.7-0.9c0.2-0.3,0.5-0.6,0.7-0.9c0.2-0.3,0.4-0.6,0.7-1 c0.2-0.3,0.4-0.6,0.6-1c0.2-0.3,0.4-0.7,0.6-1c0.2-0.3,0.4-0.7,0.6-1c0.2-0.3,0.4-0.7,0.6-1c0.2-0.3,0.4-0.7,0.5-1 c0.2-0.3,0.4-0.7,0.5-1c0.2-0.3,0.3-0.7,0.5-1c0.2-0.3,0.3-0.7,0.5-1c0.2-0.4,0.3-0.7,0.5-1.1c0.1-0.4,0.3-0.7,0.4-1.1 c0.1-0.4,0.3-0.7,0.4-1.1c0.1-0.4,0.3-0.7,0.4-1.1c0.1-0.4,0.2-0.7,0.4-1.1c0.1-0.4,0.2-0.7,0.3-1.1 c0.1-0.4,0.2-0.7,0.3-1.1c0.1-0.4,0.2-0.8,0.3-1.1c0.1-0.4,0.2-0.8,0.3-1.1c0.1-0.4,0.2-0.8,0.2-1.2 c0.1-0.4,0.2-0.8,0.2-1.2c0.1-0.4,0.1-0.8,0.2-1.2c0.1-0.4,0.1-0.8,0.2-1.2c0.1-0.4,0.1-0.8,0.1-1.2s0.1-0.8,0.1-1.2 c0-0.4,0.1-0.8,0.1-1.2c0-0.4,0-0.8,0.1-1.2c0-0.4,0-0.8,0-1.2c0-0.4,0-0.8,0-1.2c0-0.4,0-0.8,0-1.3c0-0.4,0-0.8-0.1-1.3 c0-0.4-0.1-0.8-0.1-1.3c0-0.4-0.1-0.9-0.1-1.3c0-0.4-0.1-0.9-0.1-1.3c-0.1-0.4-0.1-0.9-0.2-1.3c-0.1-0.4-0.1-0.9-0.2-1.3 c-0.1-0.4-0.2-0.9-0.3-1.3c-0.1-0.4-0.2-0.9-0.3-1.3c-0.1-0.4-0.2-0.9-0.3-1.3c-0.1-0.4-0.2-0.9-0.4-1.3 c-0.1-0.4-0.3-0.9-0.4-1.3c-0.1-0.4-0.3-0.9-0.4-1.3c-0.2-0.4-0.3-0.9-0.5-1.3c-0.2-0.4-0.3-0.9-0.5-1.4 c-0.2-0.5-0.4-0.9-0.6-1.4c-0.2-0.5-0.4-0.9-0.6-1.4c-0.2-0.5-0.4-0.9-0.7-1.4c-0.2-0.5-0.5-0.9-0.7-1.4 c-0.2-0.5-0.5-0.9-0.8-1.4c-0.3-0.5-0.5-0.9-0.8-1.4c-0.3-0.5-0.6-0.9-0.9-1.4c-0.3-0.4-0.6-0.9-0.9-1.3 c-0.3-0.4-0.7-0.9-1-1.3c-0.3-0.4-0.7-0.9-1.1-1.3c-0.3,0.3-0.7,0.5-1,0.8c-0.3,0.3-0.7,0.5-1,0.8c-0.3,0.3-0.7,0.5-1,0.8 c-0.3,0.3-0.7,0.5-1,0.8c-0.3,0.3-0.7,0.5-1,0.8c-0.3,0.3-0.7,0.5-1,0.8c-0.3,0.3-0.7,0.5-1,0.8c-0.3,0.3-0.7,0.5-1,0.8 c-0.3,0.3-0.7,0.5-1,0.8c-0.3,0.3-0.7,0.5-1,0.8c-0.3,0.3-0.7,0.5-1,0.8c-0.3,0.3-0.7,0.5-1,0.8c-0.3,0.3-0.7,0.5-1,0.8 c-0.3,0.3-0.7,0.5-1,0.8c-0.3,0.3-0.7,0.5-1,0.8c-0.3,0.3-0.7,0.5-1,0.8c-0.3,0.3-0.7,0.5-1,0.8c-0.3,0.3-0.7,0.5-1,0.8 c-0.3,0.3-0.7,0.5-1,0.8c-0.3,0.3-0.7,0.5-1,0.8c-0.3,0.3-0.7,0.5-1,0.8c-0.3,0.3-0.7,0.5-1,0.8c-0.3,0.3-0.7,0.5-1,0.8 c-0.3,0.3-0.7,0.5-1,0.8c-0.3,0.3-0.7,0.5-1,0.8c-0.3,0.3-0.7,0.5-1,0.8c-0.3,0.3-0.7,0.5-1,0.8c-0.3,0.3-0.7,0.5-1,0.8 c-0.3,0.3-0.7,0.5-1,0.8c-0.3,0.3-0.7,0.5-1,0.8c-0.3,0.3-0.7,0.5-1,0.8c-0.3,0.3-0.7,0.5-1,0.8c-0.3,0.3-0.7,0.5-1,0.8 c-0.3,0.3-0.7,0.5-1,0.8c-0.3,0.3-0.7,0.5-1,0.8c-0.3,0.3-0.7,0.5-1,0.8c-0.3,0.3-0.7,0.5-1,0.8c-0.3,0.3-0.7,0.5-1,0.8 c-0.3,0.3-0.7,0.5-1,0.8c-0.3,0.3-0.7,0.5-1,0.8C203.3,104.1,203,104.4,202.7,104.6L202.7,104.6z"></path> </defs> <clipPath id="SVGID_27_"> <use xlink:href="#SVGID_97_" style="overflow:visible;"></use> </clipPath> <g class="st36"> <linearGradient id="SVGID_28_" gradientUnits="userSpaceOnUse" x1="-208.6917" y1="510.9755" x2="-208.5257" y2="510.9755" gradientTransform="matrix(546.372 -637.932 -746.498 -639.355 495624.6562 193725.7656)"> <stop offset="0" style="stop-color:#FED900"></stop> <stop offset="0.24" style="stop-color:#FED900"></stop> <stop offset="0.43" style="stop-color:#FDD80D"></stop> <stop offset="0.58" style="stop-color:#FECE11"></stop> <stop offset="0.64" style="stop-color:#F6C01A"></stop> <stop offset="0.72" style="stop-color:#F0B51C"></stop> <stop offset="1" style="stop-color:#EEB11E"></stop> </linearGradient> <path class="st37" d="M157.5,53.1h95.1v111.2h-95.1V53.1z"></path> <linearGradient id="SVGID_29_" gradientUnits="userSpaceOnUse" x1="-210.7096" y1="509.7089" x2="-210.5436" y2="509.7089" gradientTransform="matrix(287.24 325.886 325.886 -287.24 -105403.2109 215155.8594)"> <stop offset="0" style="stop-color:#EEB11E;stop-opacity:0"></stop> <stop offset="0.32" style="stop-color:#EAA522;stop-opacity:0.15"></stop> <stop offset="0.42" style="stop-color:#DF8226;stop-opacity:0.55"></stop> <stop offset="0.5" style="stop-color:#D25D27"></stop> <stop offset="0.59" style="stop-color:#E48725;stop-opacity:0.56"></stop> <stop offset="0.69" style="stop-color:#F4AF1C;stop-opacity:0.16"></stop> <stop offset="1" style="stop-color:#FBBF12;stop-opacity:0"></stop> </linearGradient> <path class="st38" d="M157.4,52.9h95.1v111.2h-95.1V52.9z"></path> <radialGradient id="SVGID_30_" cx="-209.7003" cy="511.2243" r="0.166" gradientTransform="matrix(469.345 -411.593 -481.64 -549.22 344878.4062 194538.7656)" gradientUnits="userSpaceOnUse"> <stop offset="0" style="stop-color:#D15627"></stop> <stop offset="1.000000e-02" style="stop-color:#D15627"></stop> <stop offset="0.19" style="stop-color:#DD7A26;stop-opacity:0.7"></stop> <stop offset="0.42" style="stop-color:#FDD110;stop-opacity:0"></stop> <stop offset="0.63" style="stop-color:#FDD110;stop-opacity:0.74"></stop> <stop offset="0.82" style="stop-color:#FDD110"></stop> <stop offset="1" style="stop-color:#FDD110"></stop> </radialGradient> <path class="st39" d="M157.5,53.1h95.1v111.2h-95.1V53.1z"></path> <linearGradient id="SVGID_31_" gradientUnits="userSpaceOnUse" x1="-211.6161" y1="514.9228" x2="-211.4501" y2="514.9228" gradientTransform="matrix(151.127 -84.275 -84.275 -151.127 75586.4531 60090.3125)"> <stop offset="0" style="stop-color:#EEB11E;stop-opacity:0"></stop> <stop offset="0.27" style="stop-color:#F1B51C;stop-opacity:0.11"></stop> <stop offset="0.5" style="stop-color:#FBC717;stop-opacity:0.5"></stop> <stop offset="0.73" style="stop-color:#FBC115;stop-opacity:0.11"></stop> <stop offset="1" style="stop-color:#FBBF12;stop-opacity:0"></stop> </linearGradient> <path class="st40" d="M157.4,53h95.1v111.2h-95.1V53z"></path> <linearGradient id="SVGID_32_" gradientUnits="userSpaceOnUse" x1="-204.2586" y1="524.5261" x2="-204.0927" y2="524.5261" gradientTransform="matrix(12.8948 -69.7277 -69.7277 -12.8948 39415.0312 -7382.4238)"> <stop offset="0" style="stop-color:#EEB11E;stop-opacity:0"></stop> <stop offset="0.5" style="stop-color:#FBC717;stop-opacity:0.2"></stop> <stop offset="0.58" style="stop-color:#FAC216;stop-opacity:0.11"></stop> <stop offset="0.67" style="stop-color:#FCC012;stop-opacity:3.000000e-02"></stop> <stop offset="1" style="stop-color:#FBBF12;stop-opacity:0"></stop> </linearGradient> <path class="st41" d="M157.4,53h95.1v111.2h-95.1V53z"></path> <linearGradient id="SVGID_33_" gradientUnits="userSpaceOnUse" x1="-208.6942" y1="510.9792" x2="-208.5282" y2="510.9792" gradientTransform="matrix(545.542 -633.754 -741.608 -638.385 492956.6875 194102.4844)"> <stop offset="0" style="stop-color:#EFAF1E"></stop> <stop offset="0.23" style="stop-color:#F3BB1A;stop-opacity:0.9"></stop> <stop offset="0.52" style="stop-color:#FDD80D;stop-opacity:0.67"></stop> <stop offset="0.73" style="stop-color:#FDD80D;stop-opacity:0"></stop> <stop offset="1" style="stop-color:#EEB11E;stop-opacity:0"></stop> </linearGradient> <path class="st42" d="M157.4,52.8h95.1V164h-95.1V52.8z"></path> </g> </g> </g> </g> </g> </g> <g> <defs> <path id="SVGID_105_" d="M209.8,101.6l-4.1,3.5h0c4.2,4.2,10.1,5.1,12.9,2.3c2.7-2.7,1.7-7.8-2-11.6c-3.8-3.9-9.4-5.3-12.6-2.9 l5.2,5.2c0.9-0.8,2.6-0.4,3.8,0.8c1.2,1.2,1.4,2.8,0.6,3.6C212.8,103.1,211,102.8,209.8,101.6L209.8,101.6z"></path> </defs> <clipPath id="SVGID_34_"> <use xlink:href="#SVGID_105_" style="overflow:visible;"></use> </clipPath> <g class="st43"> <g> <defs> <path id="SVGID_107_" d="M202.7,104.6c0.4-0.3,0.8-0.7,1.2-1c0.4-0.3,0.8-0.6,1.2-0.9c0.4-0.3,0.8-0.6,1.1-0.9 c0.4-0.3,0.7-0.6,1.1-0.9c0.4-0.3,0.7-0.6,1.1-0.9c0.4-0.3,0.7-0.6,1.1-0.9c0.3-0.3,0.7-0.6,1-0.9c0.3-0.3,0.7-0.6,1-0.8 c0.3-0.3,0.7-0.5,1-0.8c0.3-0.3,0.7-0.5,1-0.8c0.3-0.3,0.6-0.5,1-0.8c0.3-0.3,0.6-0.5,1-0.8c0.3-0.3,0.6-0.5,0.9-0.8 c0.3-0.3,0.6-0.5,0.9-0.8c0.3-0.3,0.6-0.5,0.9-0.8c0.3-0.3,0.6-0.5,0.9-0.8c0.3-0.2,0.6-0.5,0.9-0.7c0.3-0.2,0.6-0.5,0.9-0.7 c0.3-0.2,0.6-0.5,0.9-0.7c0.3-0.2,0.6-0.5,0.9-0.7c0.3-0.2,0.6-0.5,0.9-0.7c0.3-0.2,0.6-0.5,0.9-0.7c0.3-0.2,0.6-0.5,0.9-0.7 c0.3-0.2,0.6-0.5,0.9-0.7c0.3-0.2,0.6-0.5,0.9-0.7c0.3-0.2,0.6-0.5,0.9-0.8c0.3-0.3,0.6-0.5,0.9-0.8c0.3-0.3,0.6-0.5,0.9-0.8 c0.3-0.3,0.6-0.5,0.9-0.8c0.3-0.3,0.6-0.5,1-0.8c0.3-0.3,0.6-0.5,1-0.8c0.3-0.3,0.7-0.5,1-0.8c0.3-0.3,0.7-0.5,1-0.8 c0.3-0.3,0.7-0.6,1-0.8c0.3-0.3,0.7-0.6,1-0.9c0.3-0.3,0.7-0.6,1.1-0.9c0.4-0.3,0.7-0.6,1.1-0.9c0.4-0.3,0.7-0.6,1.1-0.9 c0.4-0.3,0.7-0.6,1.1-0.9c0.4-0.3,0.8-0.6,1.2-0.9c0.4-0.3,0.8-0.6,1.2-1c-0.7-0.9-1.5-1.7-2.2-2.5c-0.8-0.8-1.5-1.6-2.3-2.3 c-0.8-0.7-1.6-1.5-2.4-2.2c-0.8-0.7-1.7-1.3-2.5-2c-0.8-0.6-1.7-1.2-2.6-1.8c-0.9-0.6-1.8-1.1-2.6-1.6c-0.9-0.5-1.8-1-2.7-1.4 c-0.9-0.4-1.8-0.9-2.7-1.3c-0.9-0.4-1.8-0.8-2.8-1.1c-0.9-0.3-1.9-0.6-2.8-0.9c-0.9-0.3-1.9-0.5-2.8-0.8 c-0.9-0.2-1.9-0.4-2.8-0.6c-0.9-0.2-1.9-0.3-2.8-0.4c-0.9-0.1-1.9-0.2-2.8-0.3c-0.9-0.1-1.9-0.1-2.8-0.1c-0.9,0-1.9,0-2.8,0 c-0.9,0-1.9,0.1-2.8,0.2c-0.9,0.1-1.9,0.2-2.8,0.3c-0.9,0.1-1.8,0.3-2.7,0.5c-0.9,0.2-1.8,0.4-2.7,0.6 c-0.9,0.2-1.8,0.5-2.7,0.7c-0.9,0.3-1.8,0.6-2.6,0.9c-0.9,0.3-1.7,0.7-2.6,1c-0.8,0.4-1.7,0.7-2.5,1.2 c-0.8,0.4-1.6,0.8-2.4,1.3c-0.8,0.5-1.6,0.9-2.4,1.4c-0.8,0.5-1.6,1-2.3,1.5c-0.8,0.5-1.5,1.1-2.2,1.7 c-0.7,0.6-1.5,1.2-2.2,1.8c-0.7,0.6-1.4,1.2-2,1.9c-0.7,0.6-1.3,1.3-1.9,1.9c-0.6,0.7-1.2,1.3-1.8,2c-0.6,0.7-1.1,1.4-1.6,2.1 c-0.5,0.7-1,1.4-1.5,2.1c-0.5,0.7-1,1.4-1.4,2.2c-0.4,0.7-0.9,1.5-1.3,2.2c-0.4,0.7-0.8,1.5-1.2,2.3c-0.4,0.8-0.7,1.5-1,2.3 c-0.3,0.8-0.6,1.5-0.9,2.3c-0.3,0.8-0.6,1.6-0.8,2.4c-0.3,0.8-0.5,1.6-0.7,2.4c-0.2,0.8-0.4,1.6-0.6,2.4 c-0.2,0.8-0.3,1.6-0.5,2.4c-0.1,0.8-0.3,1.6-0.4,2.4c-0.1,0.8-0.2,1.6-0.2,2.4c-0.1,0.8-0.1,1.6-0.1,2.4c0,0.8,0,1.6,0,2.4 c0,0.8,0,1.6,0.1,2.4c0,0.8,0.1,1.6,0.2,2.4c0.1,0.8,0.2,1.6,0.3,2.4c0.1,0.8,0.3,1.6,0.4,2.4c0.2,0.8,0.3,1.6,0.5,2.4 c0.2,0.8,0.4,1.6,0.6,2.3c0.2,0.8,0.5,1.5,0.7,2.3c0.3,0.8,0.6,1.5,0.9,2.3c0.3,0.8,0.6,1.5,1,2.2c0.3,0.7,0.7,1.5,1.1,2.2 c0.4,0.7,0.8,1.5,1.2,2.2c0.4,0.7,0.8,1.4,1.3,2.1c0.4,0.7,0.9,1.4,1.4,2.1c0.5,0.7,1,1.4,1.5,2c0.5,0.7,1.1,1.3,1.6,2 c0.6,0.6,1.1,1.3,1.7,1.9c0.6,0.6,1.2,1.2,1.8,1.8c0.6,0.6,1.2,1.1,1.8,1.7c0.6,0.5,1.3,1.1,1.9,1.6c0.6,0.5,1.3,1,2,1.5 c0.7,0.5,1.3,0.9,2,1.4c0.7,0.4,1.4,0.9,2.1,1.3c0.7,0.4,1.4,0.8,2.1,1.2c0.7,0.4,1.4,0.7,2.2,1.1c0.7,0.3,1.5,0.7,2.2,1 c0.7,0.3,1.5,0.6,2.3,0.9c0.8,0.3,1.5,0.5,2.3,0.8c0.8,0.2,1.5,0.5,2.3,0.7c0.8,0.2,1.6,0.4,2.4,0.6c0.8,0.2,1.6,0.3,2.4,0.4 c0.8,0.1,1.6,0.2,2.4,0.3c0.8,0.1,1.6,0.2,2.4,0.2c0.8,0.1,1.6,0.1,2.4,0.1c0.8,0,1.6,0,2.5,0c0.8,0,1.6-0.1,2.5-0.1 c0.8-0.1,1.6-0.1,2.5-0.2c0.8-0.1,1.6-0.2,2.5-0.3c0.8-0.1,1.6-0.3,2.5-0.5c0.8-0.2,1.6-0.4,2.5-0.6c0.8-0.2,1.6-0.4,2.4-0.7 c0.8-0.3,1.6-0.5,2.4-0.8c0.8-0.3,1.6-0.6,2.4-1c0.8-0.3,1.6-0.7,2.4-1.1c0.8-0.4,1.6-0.8,2.3-1.2c0.8-0.4,1.5-0.9,2.3-1.4 c0.8-0.5,1.5-1,2.3-1.5c0.7-0.5,1.5-1.1,2.2-1.6c0.7-0.6,1.5-1.2,2.2-1.8c0.7-0.6,1.4-1.2,2.1-1.9c0.7-0.6,1.3-1.3,2-2 c0.6-0.7,1.3-1.4,1.8-2.1c0.6-0.7,1.2-1.4,1.7-2.2c0.6-0.7,1.1-1.5,1.6-2.2c0.5-0.8,1-1.5,1.5-2.3c0.5-0.8,0.9-1.6,1.4-2.4 c0.4-0.8,0.9-1.6,1.2-2.5c0.4-0.8,0.8-1.7,1.1-2.5c0.4-0.9,0.7-1.7,1-2.6c0.3-0.9,0.6-1.8,0.9-2.7c0.3-0.9,0.5-1.8,0.7-2.7 c0.2-0.9,0.4-1.8,0.6-2.8c0.2-0.9,0.3-1.9,0.4-2.8c0.1-0.9,0.2-1.9,0.3-2.8c0.1-1,0.1-1.9,0.1-2.9c0-1,0-1.9,0-2.9 s-0.1-1.9-0.2-2.9c-0.1-1-0.2-2-0.4-2.9c-0.1-1-0.3-2-0.5-2.9c-0.2-1-0.4-2-0.7-2.9c-0.3-1-0.6-2-0.9-2.9 c-0.3-1-0.7-1.9-1.1-2.9c-0.4-1-0.8-1.9-1.3-2.9c-0.4-1-0.9-1.9-1.4-2.8c-0.5-0.9-1.1-1.9-1.6-2.8c-0.6-0.9-1.2-1.8-1.9-2.7 s-1.3-1.8-2.1-2.7c-0.4,0.3-0.8,0.7-1.2,1c-0.4,0.3-0.8,0.6-1.2,0.9c-0.4,0.3-0.8,0.6-1.1,0.9c-0.4,0.3-0.7,0.6-1.1,0.9 c-0.4,0.3-0.7,0.6-1.1,0.9c-0.4,0.3-0.7,0.6-1.1,0.9c-0.3,0.3-0.7,0.6-1,0.9c-0.3,0.3-0.7,0.6-1,0.8c-0.3,0.3-0.7,0.5-1,0.8 c-0.3,0.3-0.7,0.5-1,0.8c-0.3,0.3-0.6,0.5-1,0.8c-0.3,0.3-0.6,0.5-1,0.8c-0.3,0.3-0.6,0.5-0.9,0.8c-0.3,0.3-0.6,0.5-0.9,0.8 c-0.3,0.3-0.6,0.5-0.9,0.8c-0.3,0.3-0.6,0.5-0.9,0.8c-0.3,0.2-0.6,0.5-0.9,0.7c-0.3,0.2-0.6,0.5-0.9,0.7 c-0.3,0.2-0.6,0.5-0.9,0.7c-0.3,0.2-0.6,0.5-0.9,0.7c-0.3,0.2-0.6,0.5-0.9,0.7c-0.3,0.2-0.6,0.5-0.9,0.7 c-0.3,0.2-0.6,0.5-0.9,0.7c-0.3,0.2-0.6,0.5-0.9,0.7c-0.3,0.2-0.6,0.5-0.9,0.7c-0.3,0.2-0.6,0.5-0.9,0.8 c-0.3,0.3-0.6,0.5-0.9,0.8c-0.3,0.3-0.6,0.5-0.9,0.8c-0.3,0.3-0.6,0.5-0.9,0.8c-0.3,0.3-0.6,0.5-1,0.8c-0.3,0.3-0.6,0.5-1,0.8 c-0.3,0.3-0.7,0.5-1,0.8c-0.3,0.3-0.7,0.5-1,0.8c-0.3,0.3-0.7,0.6-1,0.8c-0.3,0.3-0.7,0.6-1,0.9c-0.3,0.3-0.7,0.6-1.1,0.9 c-0.4,0.3-0.7,0.6-1.1,0.9c-0.4,0.3-0.7,0.6-1.1,0.9c-0.4,0.3-0.7,0.6-1.1,0.9c-0.4,0.3-0.8,0.6-1.2,0.9 C203.5,104,203.1,104.3,202.7,104.6L202.7,104.6z"></path> </defs> <clipPath id="SVGID_35_"> <use xlink:href="#SVGID_107_" style="overflow:visible;"></use> </clipPath> <g class="st44"> <g> <defs> <path id="SVGID_109_" d="M202.7,104.6c0.3-0.3,0.7-0.5,1-0.8c0.3-0.3,0.7-0.5,1-0.8s0.7-0.5,1-0.8c0.3-0.3,0.7-0.5,1-0.8 c0.3-0.3,0.7-0.5,1-0.8c0.3-0.3,0.7-0.5,1-0.8c0.3-0.3,0.7-0.5,1-0.8c0.3-0.3,0.7-0.5,1-0.8c0.3-0.3,0.7-0.5,1-0.8 c0.3-0.3,0.7-0.5,1-0.8c0.3-0.3,0.7-0.5,1-0.8c0.3-0.3,0.7-0.5,1-0.8c0.3-0.3,0.7-0.5,1-0.8c0.3-0.3,0.7-0.5,1-0.8 c0.3-0.3,0.7-0.5,1-0.8c0.3-0.3,0.7-0.5,1-0.8c0.3-0.3,0.7-0.5,1-0.8c0.3-0.3,0.7-0.5,1-0.8c0.3-0.3,0.7-0.5,1-0.8 c0.3-0.3,0.7-0.5,1-0.8c0.3-0.3,0.7-0.5,1-0.8c0.3-0.3,0.7-0.5,1-0.8c0.3-0.3,0.7-0.5,1-0.8c0.3-0.3,0.7-0.5,1-0.8 c0.3-0.3,0.7-0.5,1-0.8c0.3-0.3,0.7-0.5,1-0.8c0.3-0.3,0.7-0.5,1-0.8c0.3-0.3,0.7-0.5,1-0.8c0.3-0.3,0.7-0.5,1-0.8 s0.7-0.5,1-0.8c0.3-0.3,0.7-0.5,1-0.8c0.3-0.3,0.7-0.5,1-0.8c0.3-0.3,0.7-0.5,1-0.8c0.3-0.3,0.7-0.5,1-0.8 c0.3-0.3,0.7-0.5,1-0.8c0.3-0.3,0.7-0.5,1-0.8c0.3-0.3,0.7-0.5,1-0.8c0.3-0.3,0.7-0.5,1-0.8c0.3-0.3,0.7-0.5,1-0.8 c0.3-0.3,0.7-0.5,1-0.8c0.3-0.3,0.7-0.5,1-0.8c-0.4-0.4-0.7-0.9-1.1-1.3c-0.4-0.4-0.7-0.8-1.1-1.2c-0.4-0.4-0.7-0.8-1.1-1.1 c-0.4-0.4-0.7-0.7-1.1-1.1c-0.4-0.4-0.7-0.7-1.1-1c-0.4-0.3-0.7-0.7-1.1-1c-0.4-0.3-0.7-0.6-1.1-0.9 c-0.4-0.3-0.7-0.6-1.1-0.9c-0.4-0.3-0.7-0.5-1.1-0.8c-0.4-0.3-0.7-0.5-1.1-0.8c-0.4-0.2-0.7-0.5-1.1-0.7 c-0.4-0.2-0.7-0.5-1.1-0.7c-0.4-0.2-0.7-0.4-1.1-0.6c-0.4-0.2-0.7-0.4-1.1-0.6c-0.4-0.2-0.7-0.4-1.1-0.6 c-0.4-0.2-0.7-0.4-1.1-0.5c-0.4-0.2-0.7-0.3-1.1-0.5c-0.4-0.2-0.7-0.3-1.1-0.5c-0.4-0.2-0.7-0.3-1.1-0.5 c-0.4-0.1-0.7-0.3-1.1-0.4c-0.4-0.1-0.7-0.3-1.1-0.4c-0.4-0.1-0.7-0.3-1.1-0.4c-0.4-0.1-0.7-0.2-1.1-0.4 c-0.4-0.1-0.7-0.2-1.1-0.3c-0.4-0.1-0.7-0.2-1.1-0.3c-0.4-0.1-0.7-0.2-1.1-0.3c-0.4-0.1-0.7-0.2-1.1-0.3 c-0.4-0.1-0.7-0.2-1.1-0.2c-0.4-0.1-0.7-0.1-1.1-0.2c-0.4-0.1-0.8-0.1-1.1-0.2c-0.4-0.1-0.8-0.1-1.1-0.2 c-0.4-0.1-0.8-0.1-1.2-0.1c-0.4,0-0.9-0.1-1.3-0.1c-0.4,0-0.9-0.1-1.3-0.1c-0.4,0-0.9,0-1.3-0.1c-0.4,0-0.9,0-1.3,0 c-0.4,0-0.9,0-1.3,0c-0.4,0-0.9,0-1.3,0c-0.4,0-0.9,0-1.3,0.1c-0.4,0-0.9,0.1-1.3,0.1c-0.4,0-0.9,0.1-1.3,0.1 c-0.4,0.1-0.9,0.1-1.3,0.2c-0.4,0.1-0.9,0.1-1.3,0.2c-0.4,0.1-0.9,0.2-1.3,0.2c-0.4,0.1-0.9,0.2-1.3,0.3 c-0.4,0.1-0.9,0.2-1.3,0.3c-0.4,0.1-0.9,0.2-1.3,0.3c-0.4,0.1-0.9,0.2-1.3,0.4c-0.4,0.1-0.9,0.3-1.3,0.4 c-0.4,0.1-0.9,0.3-1.3,0.4c-0.4,0.2-0.9,0.3-1.3,0.5c-0.4,0.2-0.8,0.3-1.3,0.5c-0.4,0.2-0.8,0.4-1.3,0.5 c-0.4,0.2-0.8,0.4-1.2,0.6c-0.4,0.2-0.8,0.4-1.2,0.6c-0.4,0.2-0.8,0.4-1.2,0.6c-0.4,0.2-0.8,0.5-1.2,0.7 c-0.4,0.2-0.8,0.5-1.2,0.7c-0.4,0.2-0.8,0.5-1.2,0.8c-0.4,0.3-0.8,0.5-1.2,0.8c-0.4,0.3-0.8,0.5-1.1,0.8 c-0.4,0.3-0.8,0.6-1.1,0.9c-0.4,0.3-0.7,0.6-1.1,0.9c-0.4,0.3-0.7,0.6-1.1,0.9c-0.4,0.3-0.7,0.6-1.1,0.9 c-0.3,0.3-0.7,0.6-1,1c-0.3,0.3-0.7,0.7-1,1c-0.3,0.3-0.7,0.7-1,1c-0.3,0.3-0.6,0.7-0.9,1c-0.3,0.3-0.6,0.7-0.9,1.1 c-0.3,0.4-0.6,0.7-0.9,1.1c-0.3,0.4-0.6,0.7-0.8,1.1c-0.3,0.4-0.5,0.7-0.8,1.1c-0.3,0.4-0.5,0.7-0.8,1.1 c-0.3,0.4-0.5,0.8-0.7,1.1c-0.2,0.4-0.5,0.8-0.7,1.2c-0.2,0.4-0.5,0.8-0.7,1.2c-0.2,0.4-0.4,0.8-0.7,1.2 c-0.2,0.4-0.4,0.8-0.6,1.2c-0.2,0.4-0.4,0.8-0.6,1.2c-0.2,0.4-0.4,0.8-0.6,1.2c-0.2,0.4-0.4,0.8-0.5,1.2 c-0.2,0.4-0.3,0.8-0.5,1.2c-0.2,0.4-0.3,0.8-0.5,1.3c-0.1,0.4-0.3,0.8-0.4,1.3c-0.1,0.4-0.3,0.8-0.4,1.3 c-0.1,0.4-0.2,0.9-0.4,1.3c-0.1,0.4-0.2,0.9-0.3,1.3c-0.1,0.4-0.2,0.9-0.3,1.3c-0.1,0.4-0.2,0.9-0.3,1.3 c-0.1,0.4-0.2,0.9-0.2,1.3c-0.1,0.4-0.1,0.9-0.2,1.3c-0.1,0.4-0.1,0.9-0.2,1.3c0,0.4-0.1,0.9-0.1,1.3c0,0.4-0.1,0.9-0.1,1.3 c0,0.4,0,0.9-0.1,1.3c0,0.4,0,0.9,0,1.3c0,0.4,0,0.9,0,1.3c0,0.4,0,0.9,0,1.3c0,0.4,0,0.9,0.1,1.3c0,0.4,0.1,0.9,0.1,1.3 s0.1,0.9,0.1,1.3c0.1,0.4,0.1,0.9,0.2,1.3c0.1,0.4,0.1,0.9,0.2,1.3c0.1,0.4,0.2,0.9,0.2,1.3c0.1,0.4,0.2,0.9,0.3,1.3 c0.1,0.4,0.2,0.9,0.3,1.3c0.1,0.4,0.2,0.9,0.3,1.3c0.1,0.4,0.2,0.9,0.4,1.3c0.1,0.4,0.3,0.9,0.4,1.3 c0.1,0.4,0.3,0.9,0.4,1.3c0.2,0.4,0.3,0.8,0.5,1.3c0.2,0.4,0.3,0.8,0.5,1.3c0.2,0.4,0.4,0.8,0.5,1.3 c0.2,0.4,0.4,0.8,0.6,1.2c0.2,0.4,0.4,0.8,0.6,1.2c0.2,0.4,0.4,0.8,0.7,1.2c0.2,0.4,0.5,0.8,0.7,1.2 c0.2,0.4,0.5,0.8,0.7,1.2c0.2,0.4,0.5,0.8,0.8,1.2c0.3,0.4,0.5,0.8,0.8,1.2c0.3,0.4,0.5,0.8,0.8,1.2 c0.3,0.4,0.6,0.8,0.9,1.1c0.3,0.4,0.6,0.7,0.9,1.1c0.3,0.4,0.6,0.7,0.9,1.1c0.3,0.4,0.6,0.7,1,1.1c0.3,0.4,0.6,0.7,1,1 c0.3,0.3,0.7,0.7,1,1c0.3,0.3,0.7,0.7,1,1c0.3,0.3,0.7,0.6,1,0.9c0.4,0.3,0.7,0.6,1.1,0.9c0.4,0.3,0.7,0.6,1.1,0.9 c0.4,0.3,0.7,0.6,1.1,0.8c0.4,0.3,0.7,0.5,1.1,0.8c0.4,0.3,0.8,0.5,1.1,0.8c0.4,0.3,0.8,0.5,1.1,0.7 c0.4,0.2,0.8,0.5,1.2,0.7c0.4,0.2,0.8,0.5,1.2,0.7c0.4,0.2,0.8,0.4,1.2,0.7c0.4,0.2,0.8,0.4,1.2,0.6 c0.4,0.2,0.8,0.4,1.2,0.6c0.4,0.2,0.8,0.4,1.2,0.6c0.4,0.2,0.8,0.4,1.2,0.5c0.4,0.2,0.8,0.3,1.3,0.5 c0.4,0.2,0.8,0.3,1.3,0.5c0.4,0.1,0.8,0.3,1.3,0.4c0.4,0.1,0.9,0.3,1.3,0.4c0.4,0.1,0.9,0.2,1.3,0.4 c0.4,0.1,0.9,0.2,1.3,0.3c0.4,0.1,0.9,0.2,1.3,0.3c0.4,0.1,0.9,0.2,1.3,0.3c0.4,0.1,0.9,0.2,1.3,0.2 c0.4,0.1,0.9,0.1,1.3,0.2c0.4,0.1,0.9,0.1,1.3,0.2c0.4,0,0.9,0.1,1.3,0.1c0.4,0,0.9,0.1,1.3,0.1c0.4,0,0.9,0,1.3,0.1 c0.4,0,0.9,0,1.3,0c0.4,0,0.9,0,1.3,0c0.4,0,0.9,0,1.3,0c0.4,0,0.9,0,1.3-0.1c0.4,0,0.9-0.1,1.3-0.1c0.4,0,0.9-0.1,1.3-0.1 c0.4-0.1,0.9-0.1,1.3-0.2c0.4-0.1,0.9-0.1,1.3-0.2s0.9-0.2,1.3-0.2c0.4-0.1,0.9-0.2,1.3-0.3c0.4-0.1,0.9-0.2,1.3-0.3 c0.4-0.1,0.9-0.2,1.3-0.4c0.4-0.1,0.9-0.3,1.3-0.4c0.4-0.1,0.9-0.3,1.3-0.4c0.4-0.1,0.9-0.3,1.3-0.5 c0.4-0.2,0.9-0.3,1.3-0.5c0.4-0.2,0.8-0.3,1.3-0.5c0.4-0.2,0.8-0.4,1.3-0.6c0.4-0.2,0.8-0.4,1.2-0.6 c0.4-0.2,0.8-0.4,1.2-0.6c0.4-0.2,0.8-0.4,1.2-0.7c0.4-0.2,0.8-0.5,1.2-0.7c0.4-0.2,0.8-0.5,1.2-0.7 c0.4-0.3,0.8-0.5,1.2-0.8c0.4-0.3,0.8-0.5,1.2-0.8c0.4-0.3,0.8-0.6,1.2-0.8c0.4-0.3,0.8-0.6,1.1-0.9 c0.4-0.3,0.7-0.6,1.1-0.9c0.4-0.3,0.7-0.6,1.1-0.9c0.4-0.3,0.7-0.6,1.1-1c0.3-0.3,0.7-0.7,1-1c0.3-0.3,0.7-0.7,1-1 c0.3-0.3,0.6-0.7,1-1c0.3-0.3,0.6-0.7,0.9-1c0.3-0.4,0.6-0.7,0.9-1.1c0.3-0.4,0.6-0.7,0.9-1.1c0.3-0.4,0.6-0.7,0.8-1.1 c0.3-0.4,0.5-0.7,0.8-1.1c0.3-0.4,0.5-0.8,0.8-1.1c0.3-0.4,0.5-0.8,0.7-1.2c0.2-0.4,0.5-0.8,0.7-1.2 c0.2-0.4,0.5-0.8,0.7-1.2c0.2-0.4,0.4-0.8,0.6-1.2c0.2-0.4,0.4-0.8,0.6-1.2c0.2-0.4,0.4-0.8,0.6-1.2 c0.2-0.4,0.4-0.8,0.5-1.2c0.2-0.4,0.3-0.8,0.5-1.2c0.2-0.4,0.3-0.8,0.5-1.3c0.2-0.4,0.3-0.8,0.4-1.3 c0.1-0.4,0.3-0.9,0.4-1.3c0.1-0.4,0.3-0.9,0.4-1.3c0.1-0.4,0.2-0.9,0.3-1.3c0.1-0.4,0.2-0.9,0.3-1.3 c0.1-0.4,0.2-0.9,0.3-1.3c0.1-0.4,0.2-0.9,0.2-1.3c0.1-0.4,0.1-0.9,0.2-1.3c0.1-0.4,0.1-0.9,0.2-1.3 c0.1-0.4,0.1-0.9,0.1-1.3c0-0.4,0.1-0.9,0.1-1.3c0-0.4,0.1-0.9,0.1-1.3c0-0.4,0-0.9,0-1.3c0-0.4,0-0.9,0-1.3 c0-0.4,0-0.9,0-1.3c0-0.4,0-0.9-0.1-1.3c0-0.4-0.1-0.9-0.1-1.3c0-0.4-0.1-0.9-0.1-1.3c0-0.4-0.1-0.8-0.1-1.2 c-0.1-0.4-0.1-0.8-0.2-1.1c-0.1-0.4-0.1-0.8-0.2-1.1c-0.1-0.4-0.1-0.7-0.2-1.1c-0.1-0.4-0.1-0.7-0.2-1.1 c-0.1-0.4-0.2-0.7-0.3-1.1c-0.1-0.4-0.2-0.7-0.3-1.1c-0.1-0.4-0.2-0.7-0.3-1.1c-0.1-0.4-0.2-0.7-0.3-1.1 c-0.1-0.4-0.2-0.7-0.4-1.1c-0.1-0.4-0.3-0.7-0.4-1.1c-0.1-0.4-0.3-0.7-0.4-1.1c-0.1-0.4-0.3-0.7-0.5-1.1 c-0.2-0.4-0.3-0.8-0.5-1.1c-0.2-0.4-0.3-0.8-0.5-1.1c-0.2-0.4-0.4-0.8-0.6-1.2c-0.2-0.4-0.4-0.8-0.6-1.2 c-0.2-0.4-0.4-0.8-0.7-1.2c-0.2-0.4-0.5-0.8-0.7-1.2c-0.2-0.4-0.5-0.8-0.8-1.2c-0.3-0.4-0.5-0.8-0.8-1.2 c-0.3-0.4-0.6-0.8-0.9-1.3c-0.3-0.4-0.6-0.9-1-1.3c-0.3-0.4-0.7-0.9-1-1.3c-0.3,0.3-0.7,0.5-1,0.8c-0.3,0.3-0.7,0.5-1,0.8 c-0.3,0.3-0.7,0.5-1,0.8c-0.3,0.3-0.7,0.5-1,0.8c-0.3,0.3-0.7,0.5-1,0.8c-0.3,0.3-0.7,0.5-1,0.8c-0.3,0.3-0.7,0.5-1,0.8 c-0.3,0.3-0.7,0.5-1,0.8c-0.3,0.3-0.7,0.5-1,0.8c-0.3,0.3-0.7,0.5-1,0.8c-0.3,0.3-0.7,0.5-1,0.8c-0.3,0.3-0.7,0.5-1,0.8 c-0.3,0.3-0.7,0.5-1,0.8c-0.3,0.3-0.7,0.5-1,0.8c-0.3,0.3-0.7,0.5-1,0.8c-0.3,0.3-0.7,0.5-1,0.8c-0.3,0.3-0.7,0.5-1,0.8 c-0.3,0.3-0.7,0.5-1,0.8c-0.3,0.3-0.7,0.5-1,0.8c-0.3,0.3-0.7,0.5-1,0.8c-0.3,0.3-0.7,0.5-1,0.8c-0.3,0.3-0.7,0.5-1,0.8 c-0.3,0.3-0.7,0.5-1,0.8c-0.3,0.3-0.7,0.5-1,0.8c-0.3,0.3-0.7,0.5-1,0.8c-0.3,0.3-0.7,0.5-1,0.8c-0.3,0.3-0.7,0.5-1,0.8 c-0.3,0.3-0.7,0.5-1,0.8c-0.3,0.3-0.7,0.5-1,0.8c-0.3,0.3-0.7,0.5-1,0.8c-0.3,0.3-0.7,0.5-1,0.8c-0.3,0.3-0.7,0.5-1,0.8 c-0.3,0.3-0.7,0.5-1,0.8c-0.3,0.3-0.7,0.5-1,0.8c-0.3,0.3-0.7,0.5-1,0.8c-0.3,0.3-0.7,0.5-1,0.8c-0.3,0.3-0.7,0.5-1,0.8 c-0.3,0.3-0.7,0.5-1,0.8c-0.3,0.3-0.7,0.5-1,0.8c-0.3,0.3-0.7,0.5-1,0.8C203.3,104.1,203,104.4,202.7,104.6L202.7,104.6z"></path> </defs> <clipPath id="SVGID_36_"> <use xlink:href="#SVGID_109_" style="overflow:visible;"></use> </clipPath> <g class="st45"> <linearGradient id="SVGID_37_" gradientUnits="userSpaceOnUse" x1="-208.7078" y1="510.9843" x2="-208.5418" y2="510.9843" gradientTransform="matrix(546.372 -637.932 -746.498 -639.355 495643.0938 193720.1719)"> <stop offset="0" style="stop-color:#FED900"></stop> <stop offset="0.24" style="stop-color:#FED900"></stop> <stop offset="0.43" style="stop-color:#FDD80D"></stop> <stop offset="0.58" style="stop-color:#FECE11"></stop> <stop offset="0.64" style="stop-color:#F6C01A"></stop> <stop offset="0.72" style="stop-color:#F0B51C"></stop> <stop offset="1" style="stop-color:#EEB11E"></stop> </linearGradient> <path class="st46" d="M160.5,52.2h95.1v111.2h-95.1V52.2z"></path> <linearGradient id="SVGID_38_" gradientUnits="userSpaceOnUse" x1="-210.7249" y1="509.6753" x2="-210.559" y2="509.6753" gradientTransform="matrix(287.24 325.886 325.886 -287.24 -105384.7734 215150.2656)"> <stop offset="0" style="stop-color:#EEB11E;stop-opacity:0"></stop> <stop offset="0.32" style="stop-color:#EAA522;stop-opacity:0.15"></stop> <stop offset="0.42" style="stop-color:#DF8226;stop-opacity:0.55"></stop> <stop offset="0.5" style="stop-color:#D25D27"></stop> <stop offset="0.59" style="stop-color:#E48725;stop-opacity:0.56"></stop> <stop offset="0.69" style="stop-color:#F4AF1C;stop-opacity:0.16"></stop> <stop offset="1" style="stop-color:#FBBF12;stop-opacity:0"></stop> </linearGradient> <path class="st47" d="M160.4,52h95.1v111.2h-95.1L160.4,52z"></path> <radialGradient id="SVGID_39_" cx="-209.7237" cy="511.2333" r="0.166" gradientTransform="matrix(469.345 -411.593 -481.64 -549.22 344896.8438 194533.1719)" gradientUnits="userSpaceOnUse"> <stop offset="0" style="stop-color:#D15627"></stop> <stop offset="1.000000e-02" style="stop-color:#D15627"></stop> <stop offset="0.19" style="stop-color:#DD7A26;stop-opacity:0.7"></stop> <stop offset="0.42" style="stop-color:#FDD110;stop-opacity:0"></stop> <stop offset="0.63" style="stop-color:#FDD110;stop-opacity:0.74"></stop> <stop offset="0.82" style="stop-color:#FDD110"></stop> <stop offset="1" style="stop-color:#FDD110"></stop> </radialGradient> <path class="st48" d="M160.5,52.2h95.1v111.2h-95.1V52.2z"></path> <linearGradient id="SVGID_40_" gradientUnits="userSpaceOnUse" x1="-211.7068" y1="514.9425" x2="-211.5408" y2="514.9425" gradientTransform="matrix(151.127 -84.275 -84.275 -151.127 75604.8828 60084.7266)"> <stop offset="0" style="stop-color:#EEB11E;stop-opacity:0"></stop> <stop offset="0.27" style="stop-color:#F1B51C;stop-opacity:0.11"></stop> <stop offset="0.5" style="stop-color:#FBC717;stop-opacity:0.5"></stop> <stop offset="0.73" style="stop-color:#FBC115;stop-opacity:0.11"></stop> <stop offset="1" style="stop-color:#FBBF12;stop-opacity:0"></stop> </linearGradient> <path class="st49" d="M160.4,52.1h95.1v111.2h-95.1L160.4,52.1z"></path> <linearGradient id="SVGID_41_" gradientUnits="userSpaceOnUse" x1="-204.3627" y1="524.7273" x2="-204.1967" y2="524.7273" gradientTransform="matrix(12.8948 -69.7277 -69.7277 -12.8948 39433.4609 -7388.0112)"> <stop offset="0" style="stop-color:#EEB11E;stop-opacity:0"></stop> <stop offset="0.5" style="stop-color:#FBC717;stop-opacity:0.2"></stop> <stop offset="0.58" style="stop-color:#FAC216;stop-opacity:0.11"></stop> <stop offset="0.67" style="stop-color:#FCC012;stop-opacity:3.000000e-02"></stop> <stop offset="1" style="stop-color:#FBBF12;stop-opacity:0"></stop> </linearGradient> <path class="st50" d="M160.4,52h95.1v111.2h-95.1L160.4,52z"></path> <linearGradient id="SVGID_42_" gradientUnits="userSpaceOnUse" x1="-208.7104" y1="510.988" x2="-208.5444" y2="510.988" gradientTransform="matrix(545.542 -633.754 -741.608 -638.385 492975.125 194096.8906)"> <stop offset="0" style="stop-color:#EFAF1E"></stop> <stop offset="0.23" style="stop-color:#F3BB1A;stop-opacity:0.9"></stop> <stop offset="0.52" style="stop-color:#FDD80D;stop-opacity:0.67"></stop> <stop offset="0.73" style="stop-color:#FDD80D;stop-opacity:0"></stop> <stop offset="1" style="stop-color:#EEB11E;stop-opacity:0"></stop> </linearGradient> <path class="st51" d="M160.4,51.9h95.1v111.2h-95.1L160.4,51.9z"></path> </g> </g> </g> </g> </g> </g> <g> <defs> <path id="SVGID_117_" d="M230.4,83.9c-13.8-14.7-35.9-22.9-51.5-16.4c-9.4,3.9-14.6,12.3-14.6,22.9l9.3,1.9 c-0.3-8.6,3.6-15.6,10.9-19.2c12.6-6,31.3,0.5,43.2,13c11.4,12,15.4,28.4,8.3,38.5c-8.6,12.2-30.6,11.8-48.1-4.4l-6,5.1 c22,20,48.9,19.4,58.7,3.9C248.5,117.1,243.5,97.9,230.4,83.9L230.4,83.9z"></path> </defs> <clipPath id="SVGID_43_"> <use xlink:href="#SVGID_117_" style="overflow:visible;"></use> </clipPath> <g class="st52"> <path class="st53" d="M161.5,63.8h85.2v80.7h-85.2L161.5,63.8z"></path> <linearGradient id="SVGID_44_" gradientUnits="userSpaceOnUse" x1="-208.67" y1="510.9864" x2="-208.5041" y2="510.9864" gradientTransform="matrix(546.372 -637.932 -746.498 -639.355 495620.25 193750.7031)"> <stop offset="0" style="stop-color:#FED900"></stop> <stop offset="0.24" style="stop-color:#FED900"></stop> <stop offset="0.43" style="stop-color:#FDD80D"></stop> <stop offset="0.58" style="stop-color:#FECE11"></stop> <stop offset="0.64" style="stop-color:#F6C01A"></stop> <stop offset="0.72" style="stop-color:#F0B51C"></stop> <stop offset="1" style="stop-color:#EEB11E"></stop> </linearGradient> <path class="st54" d="M156.7,57.2h95.1v111.2h-95.1L156.7,57.2z"></path> <linearGradient id="SVGID_45_" gradientUnits="userSpaceOnUse" x1="-210.7399" y1="509.7469" x2="-210.5739" y2="509.7469" gradientTransform="matrix(287.24 325.886 325.886 -287.24 -105407.6016 215180.7969)"> <stop offset="0" style="stop-color:#EEB11E;stop-opacity:0"></stop> <stop offset="0.32" style="stop-color:#EAA522;stop-opacity:0.15"></stop> <stop offset="0.42" style="stop-color:#DF8226;stop-opacity:0.55"></stop> <stop offset="0.5" style="stop-color:#D25D27"></stop> <stop offset="0.59" style="stop-color:#E48725;stop-opacity:0.56"></stop> <stop offset="0.69" style="stop-color:#F4AF1C;stop-opacity:0.16"></stop> <stop offset="1" style="stop-color:#FBBF12;stop-opacity:0"></stop> </linearGradient> <path class="st55" d="M156.6,57.1h95.1v111.2h-95.1V57.1z"></path> <radialGradient id="SVGID_46_" cx="-209.6739" cy="511.2424" r="0.166" gradientTransform="matrix(469.345 -411.593 -481.64 -549.22 344874 194563.7031)" gradientUnits="userSpaceOnUse"> <stop offset="0" style="stop-color:#D15627"></stop> <stop offset="1.000000e-02" style="stop-color:#D15627"></stop> <stop offset="0.19" style="stop-color:#DD7A26;stop-opacity:0.7"></stop> <stop offset="0.42" style="stop-color:#FDD110;stop-opacity:0"></stop> <stop offset="0.63" style="stop-color:#FDD110;stop-opacity:0.74"></stop> <stop offset="0.82" style="stop-color:#FDD110"></stop> <stop offset="1" style="stop-color:#FDD110"></stop> </radialGradient> <path class="st56" d="M156.7,57.2h95.1v111.2h-95.1L156.7,57.2z"></path> <linearGradient id="SVGID_47_" gradientUnits="userSpaceOnUse" x1="-211.539" y1="515.0175" x2="-211.3731" y2="515.0175" gradientTransform="matrix(151.127 -84.275 -84.275 -151.127 75582.0547 60115.25)"> <stop offset="0" style="stop-color:#EEB11E;stop-opacity:0"></stop> <stop offset="0.27" style="stop-color:#F1B51C;stop-opacity:0.11"></stop> <stop offset="0.5" style="stop-color:#FBC717;stop-opacity:0.5"></stop> <stop offset="0.73" style="stop-color:#FBC115;stop-opacity:0.11"></stop> <stop offset="1" style="stop-color:#FBBF12;stop-opacity:0"></stop> </linearGradient> <path class="st57" d="M156.6,57.1h95.1v111.2h-95.1V57.1z"></path> <linearGradient id="SVGID_48_" gradientUnits="userSpaceOnUse" x1="-203.9608" y1="524.5286" x2="-203.7948" y2="524.5286" gradientTransform="matrix(12.8948 -69.7277 -69.7277 -12.8948 39410.6289 -7357.4868)"> <stop offset="0" style="stop-color:#EEB11E;stop-opacity:0"></stop> <stop offset="0.5" style="stop-color:#FBC717;stop-opacity:0.2"></stop> <stop offset="0.58" style="stop-color:#FAC216;stop-opacity:0.11"></stop> <stop offset="0.67" style="stop-color:#FCC012;stop-opacity:3.000000e-02"></stop> <stop offset="1" style="stop-color:#FBBF12;stop-opacity:0"></stop> </linearGradient> <path class="st58" d="M156.6,57.1h95.1v111.2h-95.1V57.1z"></path> <linearGradient id="SVGID_49_" gradientUnits="userSpaceOnUse" x1="-208.6724" y1="510.9903" x2="-208.5065" y2="510.9903" gradientTransform="matrix(545.542 -633.754 -741.608 -638.385 492952.3125 194127.4219)"> <stop offset="0" style="stop-color:#EFAF1E"></stop> <stop offset="0.23" style="stop-color:#F3BB1A;stop-opacity:0.9"></stop> <stop offset="0.52" style="stop-color:#FDD80D;stop-opacity:0.67"></stop> <stop offset="0.73" style="stop-color:#FDD80D;stop-opacity:0"></stop> <stop offset="1" style="stop-color:#EEB11E;stop-opacity:0"></stop> </linearGradient> <path class="st59" d="M156.6,56.9h95.1v111.2h-95.1V56.9z"></path> </g> </g> </g> </g> </svg> 