<?xml version="1.0" encoding="utf-8"?>
<!-- Generator: Adobe Illustrator 25.3.1, SVG Export Plug-In . SVG Version: 6.00 Build 0)  -->
<svg version="1.1" id="Layer_1" xmlns="http://www.w3.org/2000/svg" xmlns:xlink="http://www.w3.org/1999/xlink" x="0px" y="0px"
	 viewBox="0 0 176 72" style="enable-background:new 0 0 176 72;" xml:space="preserve">
<style type="text/css">
	.st0{fill:#232121;}
	.st1{fill:none;}
</style>
<g>
	<path class="st0" d="M48.9,55.2l0.2,1.4l3.9,0.2l0.2-1.2L49.5,56l-0.1-0.8H48.9 M46.5,51.9l0.3,2.8l2.8-0.2c-0.4-0.5-0.7-1-1.2-1.4
		C47.8,52.5,47.1,52.2,46.5,51.9 M49.5,49.6l0.4,3.8c0,0.5,0.5,0.9,0.7,1.3c0.9-1.1,1.1-2.6,0.8-4L49.5,49.6 M45.8,35.7l2.6,16.5
		l0.9,0.8l-0.4-4.4c1.8,0.8,3.6,1.9,5,3.2L56.4,36c-1.3,0.8-2.6,1.9-2.8,3.5c0,0.3-0.2,0.7-0.6,0.7c-1,0-2.1,0-3.1,0
		c-0.6-0.1-0.5-0.8-0.7-1.3C48.5,37.5,47.2,36.4,45.8,35.7 M41.7,32.6l5.7,18.7c0-0.6-0.1-1.2-0.2-1.8l-2.4-14.3
		C43.6,34.5,42.6,33.6,41.7,32.6 M62.8,30.5L62,32.9c1.5,0.7,3,1.6,4.6,1.9C65.7,33.1,64.2,31.8,62.8,30.5 M43.8,20.7
		c0.6,0.5,1.2,0.9,1.8,1.4c3.1,2.4,6.4,4.7,9.7,6.9c0.9-1.6,1.4-3.4,1.6-5.2c2.4,0.6,4.9,1.3,7.2,2.2c-0.1,0.5-0.2,0.9-0.3,1.4
		c1.3,0,2.7,0,4-0.4c-0.2-0.3-0.6-0.5-0.9-0.7c-2.4-1.2-5-1.9-7.5-2.7C54.2,22.2,49,21.3,43.8,20.7 M41.8,19.1l1.6,0.1
		c0.2-1.2,0.6-2.4,1.2-3.5C43.4,16.7,42.5,17.8,41.8,19.1 M46.8,14.5c-1.4,1.3-2.1,3.1-2.4,4.9c4.2,0.5,8.4,1.2,12.5,2.2
		c-0.2-2.3-1-4.7-2.7-6.3c-1.1-1.1-2.7-1.7-4.3-1.6C48.8,13.8,47.7,14,46.8,14.5 M36.4,13.5c1.1,1.7,2.6,3,4,4.3
		c0.5-0.7,1-1.4,1.6-2c-1.2-0.6-2.4-1.2-3.7-1.7C37.7,13.9,37,13.6,36.4,13.5 M42.9,15c2-1.8,4.7-3,7.4-3.3c3-0.3,6,0.5,8.4,2.3
		c2.4,1.7,4.1,4.1,5,6.9c0.3,0.9,0.4,1.8,0.5,2.7c1.3,0.5,2.6,0.9,3.8,1.6c0.6,0.4,1.4,0.9,1.5,1.7c0.1,0.7-0.6,1.3-1.2,1.4
		c-1.5,0.5-3.2,0.4-4.8,0.3l-0.2,0.7c1.4,1.3,2.9,2.6,4,4.1c0.3,0.5,0.7,1,0.6,1.6c0,0.5-0.5,0.9-1,0.9c-0.8,0.1-1.6-0.2-2.4-0.5
		c-1.7-0.6-3.2-1.4-4.8-2.3c-4.5-2.5-8.8-5.4-12.9-8.4c-1.8-1.4-3.6-2.7-5.4-4.2c-0.3-0.3-0.7-0.2-1-0.2c-1.7,0-3.4-0.2-5,0.3
		c0.2,0.2,0.5,0.4,0.8,0.6c0.8,0.4,1.7,0.9,2.6,1.2c0.1-0.4,0.2-0.9,0.3-1.3c0.7,0,1.3,0.1,2,0.1c-0.5,2.1-0.4,4.3,0.4,6.2
		c0.6,1.4,1.5,2.7,2.7,3.7c-0.4-2.7-0.9-5.5-1-8.2c0.3,0.2,0.6,0.5,1,0.8c0.2,2.6,0.6,5.2,1,7.8c0,0.1,0,0.3,0.1,0.4
		c1.3,1,3,1.3,4.6,1.1c1.7-0.2,3.1-1.1,4.2-2.3c1.8,1.2,3.7,2.3,5.5,3.4c-0.7,0.6-1.4,1-2.2,1.5l-2.3,14c-0.1,0.8-0.3,1.6-0.3,2.4
		l5.8-17.4c0.3,0.1,0.6,0.3,0.8,0.4l-6.2,18.2c0.5,0.7,0.9,1.4,1.3,2.2c-0.7,0.1-1.4,0.1-2.1,0.2L54,56.9c0.5,0,1,0.1,1.4,0
		c0.8-0.1,1.5-0.4,2.3-0.4c-0.2,0.2-0.5,0.3-0.8,0.4c-0.5,0.2-0.9,0.3-1.3,0.5c-0.3,0.5-0.5,1.1-0.9,1.4c-0.5,0.2-1.1,0.3-1.6,0.4
		c-1.5,0.3-2.9,0.6-4.4,0.8c-0.3,0-0.6,0.1-0.9,0c-0.3-0.2-0.4-0.6-0.6-0.9c-0.5,0-1-0.2-1.2-0.6c-0.5-0.7-0.6-1.6-0.6-2.5
		c0.6,0,1.2,0,1.7,0.1c0.2,0.1,0.4,0.3,0.6,0.4c0.2,0,0.4,0,0.6,0c-0.1-0.4-0.3-0.9-0.4-1.3c-0.6,0.1-1.2,0.1-1.7,0.1l-0.5-4.7
		c0.3,0.1,0.6,0.2,0.9,0.3l-6.8-21.5c-0.8-1.8-1.2-3.8-1.1-5.8c-1-0.4-2-0.8-2.9-1.3c-0.5-0.3-1.1-0.6-1.5-1.1
		c-0.3-0.3-0.4-0.9-0.1-1.3c0.3-0.5,0.9-0.7,1.4-0.8c1.3-0.3,2.7-0.3,4-0.3c-1.4-1.3-2.9-2.6-4-4.2c-0.4-0.5-0.8-1.2-0.7-1.8
		s0.7-0.9,1.2-0.9c0.8,0,1.5,0.3,2.2,0.5C39.9,13.2,41.4,14.1,42.9,15"/>
	<path class="st1" d="M96.9,36.9l1-2.6l1,2.6H96.9"/>
	<path class="st0" d="M80.7,32.2h1.5v7.4h-0.6l-4.2-4.3v4.3h-1.5v-7.4c0.4,0,0.7,0.1,0.9,0.4l3.9,4.1L80.7,32.2 M87.7,32.2h1.5v7.4
		h-1.5V32.2z M96.9,36.9h2l-1-2.6L96.9,36.9 M97.1,32.2h1.5l2.8,7.4h-1.6l-0.4-1.1h-3.1l-0.4,1.1h-1.6L97.1,32.2 M106.5,32.2h0.6
		l4.2,4.4v-4.4h1.5v7.4h-0.6l-4.2-4.4v4.4c-0.5,0-1,0-1.5,0V32.2 M118,32.2h6.2v1.5c-0.8,0-1.5,0-2.3,0v5.9h-1.5v-5.9
		c-0.8,0-1.5,0-2.3,0L118,32.2 M129.2,32.2h1.5v7.4h-1.5V32.2 M137.2,33c1.4-1.1,3.5-0.9,4.8,0.2l-1,1.1c-0.7-0.5-1.7-0.8-2.6-0.4
		c-1.4,0.7-1.4,3-0.1,3.8c0.9,0.4,1.9,0.2,2.7-0.3l1,1.1c-1.3,1.2-3.5,1.4-4.9,0.2C135.4,37.4,135.4,34.4,137.2,33"/>
</g>
</svg>
