<?xml version="1.0" encoding="UTF-8"?> <!-- Generator: Adobe Illustrator 25.2.2, SVG Export Plug-In . SVG Version: 6.00 Build 0) --> <svg xmlns="http://www.w3.org/2000/svg" xmlns:xlink="http://www.w3.org/1999/xlink" version="1.1" id="Layer_1" x="0px" y="0px" viewBox="0 0 400 245" style="enable-background:new 0 0 400 245;" xml:space="preserve"> <style type="text/css"> .st0{fill:#E81D25;} .st1{fill:#F05323;} .st2{fill:none;} .st3{fill:#231F20;} .st4{fill:url(#SVGID_1_);} .st5{fill:url(#SVGID_2_);} .st6{fill:url(#SVGID_3_);} .st7{fill:url(#SVGID_4_);} .st8{fill:url(#SVGID_5_);} .st9{fill:url(#SVGID_6_);} .st10{fill:url(#SVGID_7_);} .st11{fill:url(#SVGID_8_);} </style> <g id="surface1"> <path class="st1" d="M119.8,234.7l-12.1-12.4l0-0.1h-1.6v20.8h4.3v-12.4l11.9,12.3l0.1,0.1h1.7v-20.8h-4.3V234.7"></path> <path class="st1" d="M139.7,242.9h4.3v-20.8h-4.3V242.9"></path> <path class="st1" d="M171.3,235.3l-5.6,0.1l2.8-7.3L171.3,235.3z M178.7,242.9l-8-20.6l0-0.1h-4.2l-7.9,20.5l-0.1,0.3h4.6l1.2-3.1 h8.7l1.2,3.1L178.7,242.9"></path> <path class="st1" d="M209.3,242.9h1.7v-20.8h-4.3v12.5l-12.1-12.4l-0.1-0.1H193v20.8h4.3v-12.4L209.3,242.9L209.3,242.9"></path> <path class="st1" d="M243.1,222.1h-17.5v4.2h6.6v16.6h4.3v-16.6h6.6V222.1"></path> <path class="st1" d="M257.5,242.9h4.3v-20.8h-4.3V242.9"></path> <path class="st1" d="M290.9,236.9c-1.3,1-2.8,1.6-4.5,1.6c-1.7,0-3.1-0.5-4.2-1.6c-1-1.1-1.6-2.5-1.6-4.4c0-1.7,0.5-3.1,1.6-4.2 c1-1.1,2.4-1.6,4.2-1.7c1.7,0,3.2,0.5,4.5,1.6l0.1,0.1l2.9-3.3l-0.1-0.1c-2-1.8-4.5-2.8-7.4-2.8c-2.8,0-5.2,1-7.1,3 c-1.9,2-2.9,4.5-2.9,7.4c0,3,1,5.5,2.9,7.4c1.9,2,4.3,3,7.2,3c2.9,0,5.3-0.9,7.4-2.8l0.1-0.1l-2.9-3.3L290.9,236.9"></path> <path class="st1" d="M246,70l1-3.3c1.1-2.8,1.9-5.8,2.5-8.8c14.7,8.1,19.8,13.1,20.9,15C267.5,74,258.9,73.2,246,70z M215.2,60.7 c-5.5-1.9-11.3-4.1-17.4-6.5c-9.6-3.8-18.2-7.6-25.8-11.2c7.8-2.4,16.6-4.9,26.2-7.4c5.9-1.5,11.5-2.8,16.8-3.9c0,0,0,0.1,0,0.1 c9.3-2,19.6-3.9,29-5.2c0,0,0,0,0,0c14.2-1.9,23.7-2,27.1-0.9c-2.2,2.1-9.1,6.5-22.5,11.9c-0.4-1.3-0.8-2.6-1.2-3.9 c-8.9,0.1-18.4,1.4-30.5,4.5c0.5,2.7,0.9,5.5,0.9,8.4C217.6,51.7,216.8,56.4,215.2,60.7z M163.6,39c-0.9-0.4-1.7-0.9-2.6-1.3 c1.8-8.1,5.8-15.1,11.3-19.8c-2.6,6.9-2.9,15.3-2.9,19.3C167.4,37.7,165.5,38.3,163.6,39z M154.1,33.9 c-11.4-6.4-18.2-11.5-19.8-14.2c2-0.3,8-0.3,25.1,3.9C157.2,26.8,155.4,30.2,154.1,33.9z M179.8,13.2c2.9-1.2,5.9-1.8,9.1-1.8 c9.5,0,17.9,5.7,23.2,14.4c-5.2,1.1-10.4,2.4-15.5,3.6c-8.1,2-15.9,4.2-23.3,6.4C173.4,28.8,174.7,17.4,179.8,13.2z M176.2,91.2 l6.4,49.4c-0.8-0.4-1.5-0.7-2.2-1l-17.5-59.1C166.6,84.7,171.1,88.4,176.2,91.2z M180.5,93.3L180.5,93.3c5.9,2,9.4,6.9,10.4,11.7 c0,0.7,0.1,1.4,0.3,2c0,0.1,0,0.2,0,0.2h0.1c0.4,1.2,1.2,2.1,2.6,2.1h13.6c1.4,0,2.2-0.8,2.6-2.1h0.1c0-0.1,0-0.2,0-0.3 c0.2-0.6,0.3-1.3,0.3-2c1.1-4.8,4.5-9.7,10.4-11.7l0,0c0.1,0,0.2-0.1,0.3-0.1l-5.6,44.4c-11-8.5-24-14-24.4-14.2l2.4,24.8 c-0.7-0.8-1.5-1.6-2.4-2.3c-1.3-1.1-2.8-2.1-4.3-3L180.5,93.3C180.4,93.3,180.4,93.3,180.5,93.3z M211.5,171.4 c-7-0.2-14.4-0.6-21-0.9c-0.3-1.5-0.7-5.9-1.3-9.5l5.6-0.4l0.3,2.6c0,0.4,0.1,1.6,0.1,1.6l0,0l0,0.1l17.3-1.6 C212,166.6,211.7,170.5,211.5,171.4z M195.1,129.4c2.6,1.3,4.9,2.3,9,5.2c4.1,2.9,5.2,4,5.2,4c1.7,10-3.4,16.1-8.3,19.3 c-0.2-0.2-0.3-0.5-0.4-0.6c-0.1-0.1-1.2-2.1-3.2-4.8c0,0,0,0,0-0.1l-0.9-8.6L195.1,129.4L195.1,129.4z M177.5,157.7l-2-15.7 c2.8,0.6,7.2,2.7,8.8,3.7c0.4,0.2,0.7,0.4,1,0.7c1.1,0.7,2.1,1.5,3,2.3c0.5,0.4,0.9,0.9,1.3,1.3c1.9,1.9,3.5,3.8,4.7,5.4 c0.3,0.4,0.7,0.9,0.9,1.3L177.5,157.7z M250.1,50.9c0-0.4,0-0.8,0-1.1c0-1.9-0.2-3.8-0.4-5.7c30.2-12,28.8-18,28.3-19.9 c-0.2-1-0.9-2.4-2.7-3.5c-5-3-18.8-2.5-35.6-0.1c-9-11.3-23.2-18.6-39.1-18.6c-14.7,0-27.8,6.2-36.9,15.9 c-29.8-7.6-34.1-4.9-35.8-1.5c-0.5,1-0.9,2.6-0.1,4.7c1.9,5.1,11.4,11.9,24.3,19c-0.2,1-0.4,1.9-0.5,2.9c-2.8,1-5.4,2.1-7.9,3.1 c-20.9,8.7-22.8,13.6-22,17.2c0.4,1.8,1.5,6.2,16.4,6.2c4.3,0,9.9-0.4,16.9-1.3c0.1,0.3,0.2,0.6,0.4,0.9l20.1,68.4 c-3-1.2-5.1-1.6-5.1-1.6l3,26l0.2,0l0,0.1l9.6-0.6l2.3,8.9c-1.6-0.1-0.5-0.1-1.2-0.2c-0.3,0-1.2-0.6-1.6-1c-1-0.7-1.1-1.5-2.5-1.5 l-9.6-0.4c0,0-0.1,1.3-0.1,1.7c-0.2,4.9,2.1,14.4,8.3,15.2c0.5,0.1,1.2,0.1,2.1,0.2c2.1,5.5,3.7,5.6,4.4,5.6c0.2,0,0.4,0,0.6,0 c3.9-0.1,12.6-1.8,21.7-3.6c2.6-0.5,14.1-2.4,16.3-3.7c3-1.9,4.9-7.4,5.3-7.9c1.1-0.6,9.9-3.7,10.7-4c0.9-0.4,1.2-0.5,1-1 c-0.3-0.7-0.5-0.4-1.7-0.2c-0.3,0.1-9.8,1.9-10.8,2.2c-0.3,0-0.4,0-0.5,0c-0.1,0-0.2,0-1.1,0c-1.3,0-7.7-0.1-10.9-0.2l2.4-8.7 l15.8-1.5l-0.1-0.1l0.2,0c0,0-0.8-1.6-1.1-2.1c-0.1-0.2-2.2-4.6-6.3-10c0,0-1.4-1.7-3.3-3.8l18.4-62.4c-0.1,0-0.2,0-0.3-0.1 c-1.1-0.3-2.3-0.6-3.5-0.9l-17.7,60c-0.5-0.5-1-1-1.5-1.5l6.3-49.6c4.4-2.5,8.4-5.6,11.9-9.2C234,81,230.6,80,227,78.9v0 c-1.3-0.4-2.5-0.8-3.8-1.2v0c-4.8-1.5-9.8-3.2-15-5c-5.1,5.7-11.9,9.2-19.3,9.2c-3.6,0-7.1-0.8-10.2-2.3l-2.5-19.5 c-1.4-0.6-2.8-1.2-4.2-1.8l2.4,18.8c-6.6-4.7-11.5-12.5-13.4-21.8c-3.3,1.1-6.3,2.1-8.9,3c0.2,1.3,0.6,2.6,0.9,3.9 c-15.8,2-22.5,0.8-24.4-0.2c2.4-3.1,14.6-9.3,34.6-16.1c3.5,1.7,7.2,3.5,11,5.2c-0.1,0-0.1,0-0.2,0.1c0.4,0.2,0.7,0.3,1.1,0.5 l0-0.1c6.7,3,13.6,6,20.4,8.7c6,2.4,49.8,19.4,70.6,19.4c5.2,0,9-1.1,10.4-3.8C277.6,73.5,280.7,67.4,250.1,50.9"></path> </g> </svg> 