<?xml version="1.0" encoding="UTF-8"?> <!-- Generator: Adobe Illustrator 25.2.2, SVG Export Plug-In . SVG Version: 6.00 Build 0) --> <svg xmlns="http://www.w3.org/2000/svg" xmlns:xlink="http://www.w3.org/1999/xlink" version="1.1" id="Layer_1" x="0px" y="0px" viewBox="0 0 400 245" style="enable-background:new 0 0 400 245;" xml:space="preserve"> <style type="text/css"> .st0{fill:#0A0B0A;} .st1{fill:#F6D70B;} .st2{fill:#D91F27;} .st3{fill:#F36B21;} .st4{fill:#454A7B;} .st5{fill:#676767;} </style> <g> <path class="st4" d="M34.4,67.2c11.9,0,23.8,0,35.8,0c-7.8,14.2-15.7,28.5-23.6,42.7c-1,1.8-1.9,3.6-2.7,5.5 c-2.6,6.3-2.3,13.7,0.4,19.9c1.7,3.9,4.5,7.2,7.8,9.9c-6.6,10.9-13.1,21.8-19.6,32.6c-9.9-17.9-19.9-35.7-29.7-53.6 C13.3,105.2,23.8,86.2,34.4,67.2L34.4,67.2z"></path> <path class="st4" d="M76.5,67.2c7.1,0,14.1,0,21.2,0c10.6,19,21.1,38,31.6,57c-9.9,17.9-19.8,35.8-29.7,53.6 C93,166.9,86.5,156,80,145.2c7-5.3,10.7-13.7,10-22.4c-0.7-9.3-6.7-17.9-15.5-21.3c-5.4-2.1-11.4-2-16.8,0 C63.9,90,70.2,78.6,76.5,67.2L76.5,67.2z"></path> <g> <path class="st4" d="M169.8,72.1c-4.4-3.8-10.9-4.6-16.4-3.2c-4,1.1-7.4,3.9-9.4,7.5c-2.7,4.8-3.2,10.7-2.7,16.1 c0.5,4.9,2.3,9.9,6.2,13.2c4.3,3.7,10.5,4.6,15.9,3.3c4.1-1,7.6-3.6,9.7-7.3c2.8-4.7,3.4-10.7,2.9-16.1 C175.4,80.6,173.7,75.6,169.8,72.1z M166.1,99.8c-3.5,4.5-11.2,4.6-14.9,0.2c-2.4-2.8-3.1-6.5-3.3-10.1c-0.1-3.5,0.3-7.5,2.1-10.7 c1.3-2.3,3.4-4,5.9-4.6c3.4-0.7,7-0.1,9.5,2.3c2.9,2.9,3.7,7.1,3.8,11C169.4,92.1,168.7,96.6,166.1,99.8z"></path> <path class="st4" d="M212.1,70.7c-5.7-3.7-13.8-3.3-18.7,1.7c0-1.1,0-2.2,0-3.3c-2.2,0-4.5,0-6.7,0c0,18.3,0,36.7,0,55 c2.2-1,4.4-2.1,6.6-3c0.2-5.4,0-10.8,0.1-16.2c5,6,14.6,5.9,20.2,0.8c3.6-3.2,5.4-8,6-12.7c0.6-4.7,0.3-9.7-1.3-14.2 C217.1,75.7,215.1,72.7,212.1,70.7z M212.9,91.3c-0.2,3.2-1.1,6.8-3.3,9.2c-2.8,3.1-7.7,3.6-11.3,1.7c-2-1-3.4-2.5-4.8-4.1 c0-5.8,0-11.7,0-17.5c-0.1-1.2,0.8-2,1.5-2.8c2.6-2.9,6.9-3.9,10.6-2.9c2.5,0.8,4.5,2.7,5.6,5C212.9,83.4,213.1,87.4,212.9,91.3z"></path> <path class="st4" d="M238,69.8c-5,2.3-8,6.9-9.2,12.1c-1.3,5.6-1,12,1.3,17.3c1.7,3.9,4.7,7.3,8.7,8.9c6.6,2.7,14.5,1.2,19.6-3.7 c-1.3-1.5-2.7-3-4.1-4.5c-3.6,3.3-8.8,4.7-13.4,2.3c-4-2.2-5.6-6.4-6.1-10.8c8.9,0,17.9,0,26.8,0c0.6-6.2,0.2-13-3.9-18 C253.1,67.9,244.4,67,238,69.8z M234.8,85.8c0.3-3.6,1.2-7,4.1-9.4c3.7-2.9,10.1-3,13.4,0.7c2.2,2.5,2.7,5.5,2.8,8.7 C248.3,85.8,241.6,85.8,234.8,85.8z"></path> <path class="st4" d="M303,85.6c-0.1-4.5-0.7-9.8-3.8-13.3c-3.2-3.7-8.8-4.5-13.4-3.7c-3,0.5-5.3,2.3-7.3,4.6c0-1.3,0-2.6,0-3.9 c-2.2,0-4.5,0-6.7,0c0,13.2-0.1,26.3,0.1,39.5c2.2,0,4.5,0,6.7,0c0-8.1,0-16.2,0-24.3c0.1-2.9,0.6-6,3-8c3.3-2.6,9.5-2.7,12.3,0.6 c2,2.3,2.3,5.2,2.3,8.1c0,7.9,0,15.8,0,23.6c2.2,0,4.5,0,6.7,0C303,101,303,93.3,303,85.6z"></path> </g> <path class="st5" d="M320,119.8c1.7-0.7,3.6-0.1,4.8,1.2c1.4,1.7,1.3,4.2-0.3,5.8c-1.8,1.7-4.8,1.6-6.3-0.5 C316.5,124.1,317.4,120.8,320,119.8L320,119.8z"></path> <path class="st5" d="M396,140.1c-1.5,1.3-3.1,2.6-4.6,3.9c-3.4-3.5-8.9-4.9-13.3-2.7c-2.6,1.5-2.6,4.9-0.3,6.6 c4.5,3.3,10.6,4,15.1,7.5c2.6,1.9,4,4.6,4.4,7.8v2.2c-0.4,3.6-2.3,6.7-5.6,8.3c-7.5,3.6-17.4,1.7-22.8-4.8c1.6-1.4,3.2-2.8,4.9-4.1 c3.7,4.1,9.3,6,14.5,3.6c2.4-1.2,3.1-4.2,1.8-6.4c-1.5-2.3-4.4-3.5-6.9-4.5c-4-1.6-8.7-3.2-11.6-6.7c-3.5-4.3-2.7-11.1,2-14.2 C380.4,132.3,390.7,133.8,396,140.1L396,140.1z"></path> <g> <path class="st5" d="M216.6,138.5c0-6.5,0-13.1,0-19.6c-2.3,1.1-4.6,2.1-6.8,3.3c0.1,17.5,0,35,0.1,52.4c2.2,0,4.5,0,6.7,0 c0-1.1,0-2.2,0-3.3c1.9,1.7,3.8,3.2,6.3,3.8c5.2,1.3,11.3,0,15-4c3.7-4,4.9-9.7,5-14.9c0.2-5.9-0.9-12.4-4.9-16.9 C232.6,133,222.4,132.4,216.6,138.5z M235.4,161c-0.8,3-2.3,5.9-5.2,7.4c-4.7,2.3-10.8,0.3-13.4-4.2c-0.3-1.6-0.1-3.3-0.1-4.9 c0.1-4.6-0.2-9.2,0.1-13.7c2.8-4.5,9-6.5,13.8-4c3.2,1.7,4.5,5.2,5.1,8.6C236.2,153.7,236.2,157.4,235.4,161z"></path> <path class="st5" d="M302.7,168.8c-1.9-1-1.9-3.3-2-5.2c0-7.5,0-15.1,0-22.6c3.2,0,6.5,0,9.7,0c0-2,0-3.9,0-5.9 c-3.2,0-6.5,0-9.7,0c0-5.4,0-10.9,0-16.3c-2.3,1.1-4.5,2.1-6.7,3.2c0,4.4,0,8.7,0,13.1c-2.1,0-4.3,0-6.4,0c0,2,0,3.9,0,5.9 c2.1,0,4.3,0,6.4,0c0,8.4,0,16.7,0,25.1c0,3.3,0.9,6.9,4.1,8.5c3.6,1.7,8.3,0.8,11.8-0.8c0.3-2.2,0.5-4.4,0.8-6.5 C308.4,168.6,305.5,170,302.7,168.8z"></path> <path class="st5" d="M152.2,135.7c-1.9,1.1-3.2,2.8-4.4,4.6c0-1.7,0-3.4,0-5.1c-2.2,0-4.5,0-6.7,0c0,13.1,0,26.3,0,39.4 c2.2,0,4.5,0,6.7,0c0.1-7.6,0-15.3,0-22.9c0.1-3.7,1.2-7.5,4.5-9.6c3.2-1.9,6.8-1.4,10,0.4c0.3-2.1,0.7-4.3,0.9-6.4 C160,133.8,155.7,133.6,152.2,135.7z"></path> <path class="st5" d="M195.9,138.5c-4-3.7-9.5-4.8-14.8-4c-4.7,0.7-8.8,3.5-11.2,7.6c-3.1,5.2-3.6,12.1-2.7,17.9 c0.9,5.6,3.5,10.8,8.7,13.6c6.6,3.4,15.9,2.5,20.9-3.3c4-4.5,5.1-10.8,4.9-16.7C201.6,148,200.1,142.4,195.9,138.5z M191.8,165.8 c-3.5,4.5-11.1,4.6-14.8,0.3c-2.4-2.7-3.2-6.5-3.4-10.1c-0.1-3.6,0.3-7.6,2.1-10.7c1.3-2.3,3.4-4.1,6-4.7c3.4-0.7,7-0.1,9.5,2.5 c2.8,2.9,3.7,7.2,3.8,11.1C195.1,158.2,194.4,162.6,191.8,165.8z"></path> <path class="st5" d="M277.7,138.5c-4-3.7-9.5-4.8-14.8-4c-4.7,0.7-8.8,3.5-11.2,7.6c-3.1,5.2-3.6,12.1-2.7,17.9 c0.9,5.6,3.5,10.8,8.7,13.6c6.6,3.4,15.9,2.5,20.9-3.3c4-4.5,5.1-10.8,4.9-16.7C283.4,148,281.9,142.4,277.7,138.5z M273.6,165.8 c-3.5,4.4-11.1,4.6-14.8,0.3c-2.4-2.7-3.2-6.5-3.4-10.1c-0.1-3.7,0.3-7.9,2.3-11.1c1.3-2.1,3.3-3.7,5.8-4.3c3.4-0.8,7-0.1,9.5,2.5 c2.8,2.9,3.7,7.2,3.8,11.1C276.9,158.2,276.2,162.7,273.6,165.8z"></path> <path class="st5" d="M357.6,163.3c-0.7,1.5-1.3,2.9-2.6,3.9c-3.4,2.8-9.2,2.5-12-1c-2.2-2.6-2.9-6.2-3.1-9.6 c-0.2-4.1,0.1-9.2,2.5-12.6c2.6-4,9-4.9,12.5-1.7c1.1,0.9,1.5,2.3,2.4,3.2c2.1-0.7,4.1-1.5,6.1-2.2c-1-2.3-2.2-4.4-4.2-6 c-6.8-5.3-18.4-3.8-23,3.8c-2.8,4.3-3.5,9.9-3.4,14.9c0.2,5,1.3,10.4,4.7,14.3c2.6,3.1,6.5,4.9,10.5,5.1c4.4,0.2,9-0.9,12.2-4.1 c1.7-1.7,2.7-3.8,3.5-6C361.8,164.7,359.7,164,357.6,163.3z"></path> <path class="st5" d="M318.2,135.2c0.1,13.1-0.1,26.3,0.1,39.4c2.2,0,4.4,0,6.7,0c0-13.1,0-26.3,0-39.4 C322.7,135.1,320.4,135.1,318.2,135.2z"></path> </g> </g> </svg> 