<?xml version="1.0" encoding="UTF-8"?> <!-- Generator: Adobe Illustrator 25.2.2, SVG Export Plug-In . SVG Version: 6.00 Build 0) --> <svg xmlns="http://www.w3.org/2000/svg" xmlns:xlink="http://www.w3.org/1999/xlink" version="1.1" id="Layer_1" x="0px" y="0px" viewBox="0 0 400 245" style="enable-background:new 0 0 400 245;" xml:space="preserve"> <style type="text/css"> .st0{fill:#010101;} .st1{enable-background:new ;} .st2{fill:#DB1F26;} .st3{fill:#7A7A7A;} .st4{fill:#EE3275;} .st5{fill:#EE2837;} .st6{fill:#069BCF;} .st7{fill:none;} .st8{clip-path:url(#SVGID_1_);} .st9{fill-rule:evenodd;clip-rule:evenodd;fill:#F4C117;} .st10{clip-path:url(#SVGID_2_);} .st11{fill-rule:evenodd;clip-rule:evenodd;fill:url(#SVGID_3_);} .st12{fill-rule:evenodd;clip-rule:evenodd;fill:url(#SVGID_4_);} .st13{fill-rule:evenodd;clip-rule:evenodd;fill:url(#SVGID_5_);} .st14{fill-rule:evenodd;clip-rule:evenodd;fill:url(#SVGID_6_);} .st15{fill-rule:evenodd;clip-rule:evenodd;fill:url(#SVGID_7_);} .st16{fill-rule:evenodd;clip-rule:evenodd;fill:url(#SVGID_8_);} .st17{clip-path:url(#SVGID_9_);} .st18{fill-rule:evenodd;clip-rule:evenodd;fill:url(#SVGID_10_);} .st19{fill-rule:evenodd;clip-rule:evenodd;fill:url(#SVGID_11_);} .st20{fill-rule:evenodd;clip-rule:evenodd;fill:url(#SVGID_12_);} .st21{fill-rule:evenodd;clip-rule:evenodd;fill:url(#SVGID_13_);} .st22{fill-rule:evenodd;clip-rule:evenodd;fill:url(#SVGID_14_);} .st23{fill-rule:evenodd;clip-rule:evenodd;fill:url(#SVGID_15_);} .st24{fill:#FFFFFF;} .st25{clip-path:url(#SVGID_16_);} .st26{clip-path:url(#SVGID_17_);} .st27{clip-path:url(#SVGID_18_);} .st28{fill-rule:evenodd;clip-rule:evenodd;fill:url(#SVGID_19_);} .st29{fill-rule:evenodd;clip-rule:evenodd;fill:url(#SVGID_20_);} .st30{fill-rule:evenodd;clip-rule:evenodd;fill:url(#SVGID_21_);} .st31{fill-rule:evenodd;clip-rule:evenodd;fill:url(#SVGID_22_);} .st32{fill-rule:evenodd;clip-rule:evenodd;fill:url(#SVGID_23_);} .st33{fill-rule:evenodd;clip-rule:evenodd;fill:url(#SVGID_24_);} .st34{clip-path:url(#SVGID_25_);} .st35{clip-path:url(#SVGID_26_);} .st36{clip-path:url(#SVGID_27_);} .st37{fill-rule:evenodd;clip-rule:evenodd;fill:url(#SVGID_28_);} .st38{fill-rule:evenodd;clip-rule:evenodd;fill:url(#SVGID_29_);} .st39{fill-rule:evenodd;clip-rule:evenodd;fill:url(#SVGID_30_);} .st40{fill-rule:evenodd;clip-rule:evenodd;fill:url(#SVGID_31_);} .st41{fill-rule:evenodd;clip-rule:evenodd;fill:url(#SVGID_32_);} .st42{fill-rule:evenodd;clip-rule:evenodd;fill:url(#SVGID_33_);} .st43{clip-path:url(#SVGID_34_);} .st44{clip-path:url(#SVGID_35_);} .st45{clip-path:url(#SVGID_36_);} .st46{fill-rule:evenodd;clip-rule:evenodd;fill:url(#SVGID_37_);} .st47{fill-rule:evenodd;clip-rule:evenodd;fill:url(#SVGID_38_);} .st48{fill-rule:evenodd;clip-rule:evenodd;fill:url(#SVGID_39_);} .st49{fill-rule:evenodd;clip-rule:evenodd;fill:url(#SVGID_40_);} .st50{fill-rule:evenodd;clip-rule:evenodd;fill:url(#SVGID_41_);} .st51{fill-rule:evenodd;clip-rule:evenodd;fill:url(#SVGID_42_);} .st52{clip-path:url(#SVGID_43_);} .st53{fill-rule:evenodd;clip-rule:evenodd;fill:#FFFFFF;} .st54{fill-rule:evenodd;clip-rule:evenodd;fill:url(#SVGID_44_);} .st55{fill-rule:evenodd;clip-rule:evenodd;fill:url(#SVGID_45_);} .st56{fill-rule:evenodd;clip-rule:evenodd;fill:url(#SVGID_46_);} .st57{fill-rule:evenodd;clip-rule:evenodd;fill:url(#SVGID_47_);} .st58{fill-rule:evenodd;clip-rule:evenodd;fill:url(#SVGID_48_);} .st59{fill-rule:evenodd;clip-rule:evenodd;fill:url(#SVGID_49_);} .st60{fill-rule:evenodd;clip-rule:evenodd;fill:#40464E;} .st61{fill-rule:evenodd;clip-rule:evenodd;fill:#01AFAA;} .st62{fill:#28203B;} .st63{fill-rule:evenodd;clip-rule:evenodd;fill:#010101;} .st64{fill:#F26B3F;} .st65{display:none;fill:#010101;} .st66{fill:#D72027;} .st67{fill:#ED2224;} .st68{fill:#231815;} .st69{display:none;fill-rule:evenodd;clip-rule:evenodd;fill:#323137;} .st70{fill:#3D3D3C;} .st71{fill:#F09877;} </style> <g> <g> <path class="st0" d="M191.4,28.3c-7.4,7.2-15.3,14-23,20.8c-11.9,10.5-23.9,20.9-36.5,30.6c-4.6,3.5-9.5,7.2-14.6,9.9 c-1.5,0.7-3.3,1.7-4.9,1.6c-2.3-0.8-2.7-3.8-2.9-5.8c-0.5-6.8,0.9-13.9,1.9-20.6c1.8-10.8,4.9-21.4,7.2-32 c-1.3,5.2-3.3,10.3-4.9,15.5c-3.6,10.3-7.5,20.9-12.7,30.6c-2.1,3.5-4.4,7.7-7.8,10.1c-2.3,1.8-5.4,1.3-7.7-0.1 c-3.8-2.2-7-6.1-9.6-9.7c-4.1-6-7.6-12.5-10.4-19.2c0.1,1.9,0.8,3.5,1.3,5.4c2.3,7.8,4,15.7,4.6,23.9c0.2,4,0.2,8.3-1.4,12.1 c-1.9,4-6.4,6-10.5,7c-7,1.5-14.6,1.6-21.7,0.4c0.7,1.2,2.3,1.7,3.4,2.5c5.4,3.5,10.7,7.4,15.2,11.9c1.6,1.8,3.5,4.1,3.8,6.6 c0.3,2.4-2.1,4.4-3.8,5.8c-5.4,3.9-12.1,6.5-18.4,8.9c-2.4,1-4.9,1.4-7.2,2.7c6.6-0.3,13.3,0.1,19.7,1.3c2.4,0.5,5.7,1.3,7.1,3.5 c1.1,2.5-1.3,4.4-2.5,6.2c-11.5,14.1-23.7,27.6-35.8,41.3c-4.9,5.2-9.6,10.7-14.5,15.9c-1.5,1.5-2.2,3.2-4,4.2v0.3h0.9 c-0.1-0.8,1-1.5,1.5-2.1c12.9-12.3,26.2-24.3,40.1-35.5c5.2-4.1,10.6-8.2,16.5-11.5c2-1,4.4-2.3,6.7-2.2c1.9,0.5,2.6,2.5,2.8,4.2 c0.4,4.2-0.7,8.8-1.7,12.9c-2.8,11.2-7.2,21.5-11.5,32.1c2.7-4.6,4.9-9.4,7.6-14.1c4.2-7.4,8.6-14.8,13.6-21.6 c2.1-2.7,4-5.2,6.6-7.2c1.2-0.9,2.3-1.6,3.8-1.5c5.1,0.1,9.1,4.1,11.8,8.1c3.1,4.2,4.7,9,7,13.5c-1.3-6-2.1-12.1-2.5-18.3 c-0.1-3.3-0.1-7.2,1.2-10.3c1.2-2.6,4.6-2.6,7-2.3c5.1,0.9,10.1,3.1,14.4,5.8c-1.3-1.7-3-3-4.2-4.8c-3.6-5-5.2-11.5-3.9-17.6 c1.1-5.3,3.3-10.5,7.2-14.4c6-6.2,14.5-10.4,22.4-13.5c8.2-3.3,16.6-5.4,25.1-7.3c-4.8,0.1-9.7,0.5-14.5,0.1 c-6.4-0.4-13.5-0.7-19.6-3c-2.4-0.9-5.2-2.3-5.8-5c-0.3-1.9,0.9-4,1.7-5.7c3.4-6.2,7.9-12,12.2-17.6c13-16.5,26.8-32.5,40.7-48.2 c2.1-2.6,5-4.9,6.5-8h-0.1C193.7,26.4,192.5,27.3,191.4,28.3z M120.7,121.2c-0.5,7.3-5,14-11.6,17.1c-5.6,2.8-11.2,1.7-17.2,1.9 c0,9,0.1,18.1-0.1,27.1c-4.5-0.1-9-0.1-13.5,0c-0.1-22.6-0.1-45.3,0-67.9c7.4,0.1,14.9,0,22.4,0c3.6,0,7,1.1,10.1,2.9 C117.1,106.1,121.1,113.6,120.7,121.2z"></path> <path class="st0" d="M237.5,63.2c1.8-0.9,2.9-3,2.3-5c-0.6-2.3-3.3-3.8-5.6-2.9c-2.1,0.7-3.1,2.7-2.7,4.8 C231.8,62.8,235.2,64.5,237.5,63.2z"></path> <path class="st0" d="M173.7,79.2c-2.5-1.6-5.6-1.9-8.5-1.3c-5.8,1.5-9.7,7.5-8.4,13.4c1.2,5.2,5.9,9,11.3,8.9 c5.2-0.1,9.8-3.8,10.9-9C180,86.5,177.9,81.6,173.7,79.2z"></path> <path class="st0" d="M210,112.6c3.3-2.7,3.4-8.1,0.1-10.9c-2.1-1.9-5.2-2.6-7.8-1.4c-4.2,1.8-5.9,7.2-3.1,11 C201.6,114.9,206.8,115.6,210,112.6z"></path> <path class="st0" d="M100.5,113.1c-2.9-0.1-5.8,0-8.8,0c0,4.6,0,9.2,0,13.7c2.9,0,5.8,0.1,8.8,0c3.6-0.1,6.6-3.3,6.5-6.9 C107.1,116.3,104.1,113.2,100.5,113.1z"></path> <path class="st0" d="M148.9,130.4c-3.6-1.1-7.3-1.2-10.9-0.2c-9.2,2.5-15.3,12.1-13.5,21.5c1.5,9.1,9.9,16.1,19.2,15.7 c9.6-0.1,17.9-8.1,18.4-17.6C162.7,141.2,157,133,148.9,130.4z M153.6,153c-2.2,5.3-8.6,8.2-14.1,6.2c-4.6-1.5-7.9-6-7.8-10.9 c-0.1-5,3.4-9.6,8.2-10.9c3.6-1.1,7.6-0.2,10.4,2.1C154.3,142.8,155.7,148.5,153.6,153z"></path> <path class="st0" d="M208.6,157.1c-4.4-3.8-4.9-11-1.4-15.5c3.6-4.6,10.7-5.8,15.5-2.5c1.6-1.9,3.1-3.7,4.8-5.4 c-7.2-5.8-18.2-5.3-24.9,1.3c-6.3,5.9-7.6,16-3.1,23.3c3.3,5.6,9.9,9.4,16.5,9.2c4.4,0.1,8.4-1.7,11.9-4.4 c-1.7-1.7-3.3-3.5-4.8-5.4C218.7,160.9,212.7,160.7,208.6,157.1z"></path> <path class="st0" d="M258.4,131.8c-3.8-2.1-8.4-2.7-12.5-1.9c-9.2,1.7-16,10.5-15.2,19.8c0.5,9.6,8.8,17.6,18.4,17.6 c9,0.3,17.2-6.2,18.9-15C269.8,144.3,265.7,135.6,258.4,131.8z M260.2,152.3c-1.9,5.5-8.2,8.8-13.8,7.2c-4.9-1.3-8.5-6-8.4-11.1 c0-4.9,3.4-9.4,8-10.9c3.4-1.1,7.2-0.4,10.1,1.7C260.3,142.2,262,147.6,260.2,152.3z"></path> <path class="st0" d="M338.1,129.6c-2.5,0-5,0-7.6,0c0,7,0,14.1,0,21.2c-7-7-13.9-14.3-20.9-21.2c-0.7,0-1.5,0-2.3,0 c0,12.6-0.1,25.3,0.1,37.9c2.5-0.1,4.9-0.1,7.4,0c0.2-7.4,0-14.7,0.1-22.1c7.1,7.4,14.1,14.7,21.3,22.1c0.6,0,1.3,0,1.9,0 C338.2,154.8,338,142.2,338.1,129.6z"></path> <path class="st0" d="M180.8,130.2c-4.6,0-9.4,0-14,0c0.1,12.4-0.1,24.9,0.1,37.3c2.5-0.1,5-0.1,7.4,0c0.1-5,0-9.9,0.1-14.9 c4.4-0.1,8.9,0.8,12.7-1.9c3.9-2.7,5.7-7.6,4.4-12.1C190.2,133.7,185.6,130,180.8,130.2z M184.3,141.8c-0.1,1.7-1.4,2.9-2.9,3.3 c-2.4,0.2-4.8,0.1-7.2,0.1c0-2.5-0.1-5,0.1-7.6c2.1,0,4.2,0,6.4,0C182.8,137.6,184.7,139.6,184.3,141.8z"></path> <path class="st0" d="M300.2,139.8c-0.8-5.2-5.4-9.4-10.7-9.5c-4.8-0.1-9.5,0.1-14.3-0.1c-0.1,12.4-0.1,24.9,0,37.3 c2.5-0.1,4.9-0.1,7.4,0c0.1-5-0.1-9.9,0.1-14.9c1.2,0.1,2.4,0.1,3.6,0.1c2.1,4.3,4,8.6,6,13c0.3,0.6,0.6,1.6,1.2,2 c2.5,0,5.1-0.1,7.6,0.1c-2.3-5.4-4.9-10.6-7.3-15.9C298.3,149.5,301,144.8,300.2,139.8z M289.5,145.2c-2.3,0.1-4.6,0-7,0.1 c0-2.5,0-5,0-7.6c2.3,0.1,4.6-0.1,7,0.1c1.5,0.1,2.9,1.4,3.2,2.8C293.5,142.6,291.7,145.1,289.5,145.2z"></path> </g> <g> <path class="st6" d="M362.8,146.3c-0.1-2.1-0.1-4.2-0.1-6.4c-2.8,0.1-5.6,0.1-8.4,0.1c0-3.7,0-7.4,0-11.1c3.9,0,7.9,0,11.8,0.1 c0-2.1,0-4.2,0-6.4c-6.8-0.1-13.5,0-20.4,0c0,15-0.1,30,0.1,45c2.8,0,5.6,0,8.4,0c0.1-7,0-14.1,0.1-21.1 C357.2,146.4,360.1,146.6,362.8,146.3z"></path> <path class="st6" d="M399,122.9v-0.3c-2.7-0.2-5.4,0-8.1-0.1c-2.1,4.8-4.3,9.7-6.2,14.7l-0.6-0.3c-2.1-4.8-4.3-9.6-6.4-14.3 c-2.7,0-5.4,0.1-8.2-0.1c3.4,7.6,6.9,15.1,10.4,22.6c-3.5,7.5-7,15-10.4,22.5c2.7-0.1,5.4-0.1,8.1-0.1c2.1-4.8,4.2-9.7,6.2-14.6 c1.1,1.3,1.7,3.3,2.5,4.8c1.5,3.3,3,6.6,4.6,9.9c2.7-0.2,5.4,0,8-0.1v-0.2c-3.7-7.2-6.8-14.8-10.3-22.2c2.4-5.3,4.8-10.5,7.2-15.8 C396.9,127.1,397.7,124.9,399,122.9z"></path> <path class="st6" d="M200.3,177.1c-0.7,0-1.5,0-2.2,0.1c-0.1,4.2,0,8.4-0.1,12.5c0.7-0.1,1.5-0.1,2.3-0.1 C200.3,185.4,200.4,181.2,200.3,177.1z"></path> <path class="st6" d="M210.9,179.4c0-0.7,0-1.5,0-2.3c-0.7,0-1.5,0-2.3,0c-0.1,0.7-0.1,1.5,0,2.3 C209.4,179.4,210.1,179.4,210.9,179.4z"></path> <path class="st6" d="M277.3,177.1c-0.7,0-1.5,0-2.2,0.1c-0.1,0.7-0.1,1.5-0.1,2.3c0.7,0,1.5,0,2.3,0 C277.3,178.7,277.3,177.9,277.3,177.1z"></path> <path class="st6" d="M308.4,177.1c-0.1,4.1,0,8.3-0.1,12.4c0.8,0,1.6,0.1,2.4,0.1c0.1-1.8,0.1-3.6,0.1-5.4c1.7,0,3.4,0.1,5,0.1 c-0.1-0.7-0.1-1.5,0-2.1c-1.7,0.1-3.4,0.1-5,0c0-1-0.1-1.9-0.1-2.9c2-0.1,4-0.1,6,0c0-0.7,0-1.5,0-2.2 C313.9,177.2,311.2,177.1,308.4,177.1z"></path> <path class="st6" d="M328.4,177c-0.9,0.1-1.8,0.1-2.7,0.1c-0.8,1.3-1.5,2.7-2.3,4c-1-1.3-1.7-2.7-2.7-4c-0.9,0-1.8,0-2.7,0 c1.2,2,2.5,4,3.8,5.9c-1.3,2.3-2.9,4.4-4.2,6.6c1-0.1,2.1-0.1,3.1-0.2c0.9-1.5,1.7-2.9,2.7-4.2c0.9,1.5,1.7,2.9,2.7,4.3 c1,0,1.9,0,2.9,0.1c-1.3-2.1-2.8-4.1-4-6.3C325.4,181.3,327.8,179.2,328.4,177z"></path> <path class="st6" d="M354.9,177.1c-0.1,4.1,0.1,8.3-0.1,12.4c0.8,0.1,1.6,0.1,2.4,0.1c0.1-4.1,0-8.3,0.1-12.5 C356.5,177.1,355.8,177.1,354.9,177.1z"></path> <path class="st6" d="M378.1,177.1c-0.7,0-1.5,0-2.2,0.1c0,0.7-0.1,1.5-0.1,2.3c0.7,0,1.5,0,2.3,0 C378.1,178.7,378.1,177.9,378.1,177.1z"></path> <path class="st6" d="M173.6,184.2c0.9-0.4,1.8-0.6,2.5-1.3c1.4-1.8,0.5-5.1-1.9-5.5c-2.5-0.3-5-0.1-7.4-0.1c0,4.2,0,8.3,0,12.5 c0.8-0.1,1.7-0.1,2.5-0.1c-0.1-1.8-0.1-3.5,0.1-5.3c3,0,3.9,3.4,5.5,5.4c1,0,2,0.1,3,0.1C176.5,187.7,175.5,185.7,173.6,184.2z M169.2,182.5c0-1.1,0-2.2,0-3.3c2.1,0.3,4.4-0.9,5.3,1.7C173.4,183.2,171.3,182.2,169.2,182.5z"></path> <path class="st6" d="M205.2,187.7c0.1-1.7-0.3-3.5,0.1-5.2l1.5-0.1l0.1-1.8c-0.5-0.1-1.1-0.1-1.7-0.1c0-1.1,0-2.1,0-3.1 c-0.7,0.5-1.5,0.9-2.1,1.4c-0.1,0.5-0.2,0.9-0.3,1.4c-0.5,0.5-0.9,1-1.3,1.5c0.5,0.5,0.9,0.9,1.4,1.3c0.1,1.9-0.1,3.8,0.1,5.6 c0.7,1.7,2.6,1.4,4,0.9c0-0.5-0.1-1.1-0.1-1.7C206.4,187.8,205.8,187.7,205.2,187.7z"></path> <path class="st6" d="M271.8,187.7c-0.1-1.7-0.1-3.4-0.1-5.2l1.5-0.1v-1.9l-1.5-0.1c0-1.1,0-2.2,0-3.3c-0.8,0.5-1.5,1-2.3,1.5 c-0.1,0.7-0.1,1.3-0.2,1.9c-1-0.1-2-0.3-3-0.4c-0.5,0.4-0.9,0.8-1.3,1.3c-0.3-0.3-0.6-0.7-0.9-1.1c-0.5,0-0.9,0.1-1.5,0.1 c-0.1,3,0,6-0.1,9c0.8,0,1.5,0.1,2.3,0.1c0.1-2.1-0.4-5,0.7-6.9c0.6-0.2,1.3-0.3,2.1-0.1l0.4-1.1c2.9,1.3,0.5,5.3,1.9,7.6 c1.3,0.9,4.4,1.2,3.4-1.4L271.8,187.7z"></path> <path class="st6" d="M289.3,189.7c0.8,0,1.6,0,2.3,0c0-4.1,0-8.3,0-12.4c-0.8,0-1.6-0.1-2.4-0.1 C289.3,181.3,289.3,185.5,289.3,189.7z"></path> <path class="st6" d="M372.5,182.6l1.5-0.1v-1.9h-1.5c0-1.1,0-2.1,0-3.3c-0.8,0.5-1.6,1-2.3,1.5c-0.1,0.5-0.1,1-0.1,1.5 c-1.5,0.6-1.5,1.9,0.1,2.5c0,1.9-0.1,3.6,0.1,5.5c0.4,1.9,2.3,1.7,3.8,1.4l0.1-1.9h-1.6C372.5,186,372.5,184.3,372.5,182.6z"></path> <path class="st6" d="M185.1,181.2c-1.9-1.6-4.9-1.1-6.1,1.2c-1.2,2.2-0.8,6,1.8,7c2.5,0.9,4.4,0,5.9-2.1c-0.5-0.4-1.2-0.6-2-0.5 c-1,0.3-1.3,1.6-2.5,1.2c-1.1-0.5-1.3-1.2-1.5-2.3c2,0,4,0,6,0C186.5,184,186.5,182.5,185.1,181.2z M184.3,184.4 c-1.1,0-2.3,0-3.4,0.1c0-1.1,0.1-1.8,1.3-2.1C183.3,181.7,184.5,183.2,184.3,184.4z"></path> <path class="st6" d="M195.6,182.1c-0.8-1.9-3.2-1.8-4.8-1.6c-1.5,0.3-2,1.2-2.7,2.4c0.7,0.2,1.3,0.3,1.9,0.5 c0.9-1.5,3.4-1.8,3.4,0.3c-1.4,0.8-3.8,0.6-4.9,1.9c-1.3,1.3-0.7,3.3,0.8,4c1.5,0.7,2.6,0.1,3.9-0.5c0.9,0.5,1.7,0.7,2.8,0.8 C195.4,187.2,196,184.6,195.6,182.1z M192,188.2c-1.1,0.5-2.3-1.2-1.4-2.1c0.9-0.4,2-0.7,3-0.9C193.5,186.5,193.5,187.7,192,188.2 z"></path> <path class="st6" d="M208.6,180.9c-0.1,2.9,0,5.8,0,8.8c0.8,0,1.5,0,2.3,0c0-3,0-6,0-9C210.3,180.7,208.8,180.2,208.6,180.9z"></path> <path class="st6" d="M223.2,180.4c-1.2-0.1-1.7,0.8-2.7,1.4c-1.9-1.9-3.1-1.7-5.2-0.3c-0.6-1.5-1.1-0.9-2.3-0.8c0,3,0,6,0,9 c0.8,0,1.6,0,2.4,0c0.1-2-0.1-4,0.1-6c0.1-1.3,2.3-2.3,2.8-0.5c0.2,2.2,0.1,4.4,0.1,6.6c0.8,0,1.5,0,2.3,0c0-1.9-0.1-3.8,0.1-5.8 c0.1-0.8,0.9-1.7,1.7-1.7c1.2,0.1,1.2,1.2,1.2,2.1c0.1,1.8,0,3.6,0,5.4c0.8,0,1.5,0,2.3,0c0-2.3,0.1-4.5-0.1-6.8 C225.9,181.3,224.8,180.3,223.2,180.4z"></path> <path class="st6" d="M236.2,185.8c-0.1-1.5-0.2-2.9-1.1-4c-1.5-1.9-4.7-1.9-6.2,0.1c-1.3,1.8-1.3,4.4-0.3,6.3 c1.7,2.5,6.7,2.2,7.3-1.1c-0.7-0.1-1.4-0.1-2.1-0.2c-0.5,0.5-0.9,0.9-1.3,1.4c-1.7-0.3-2-0.9-2.5-2.5 C232,185.7,234.1,185.7,236.2,185.8z M230,184.1c0.3-1.1,0.8-1.5,1.7-2.1c1.3,0.5,1.9,0.9,1.9,2.4 C232.6,184.4,231.1,184.6,230,184.1z"></path> <path class="st6" d="M248.4,180.4c-1.5-0.3-2.3,0.4-3.4,1.1c-0.5-1.4-1-1-2.3-1c-0.1,4-0.1,8.1,0,12.1c0.2,0.4,0.9,0.5,2.2,0.4 c0-1.5,0.1-3,0.1-4.5c1.2,0.7,2,1.5,3.5,1.1C252.3,188.7,252.3,181.4,248.4,180.4z M247.1,188c-2.9-0.3-3-5.4,0-6 C249.6,182.7,249.7,187.6,247.1,188z"></path> <path class="st6" d="M255.1,180.5c-1.3,0.3-1.8,1.3-2.4,2.4c1.2,0.5,2.1,0.3,2.7-0.3c1.1-1,2.7-0.4,2.8,1.1 c-1.5,0.4-3.1,0.6-4.4,1.2c-1.9,1.1-1.5,4,0.6,4.7c1.5,0.5,2.5-0.1,3.7-0.7c0.7,0.6,1.7,0.9,2.7,0.8c-0.8-2.7-0.2-5.3-0.7-7.9 C259.3,180.1,256.6,180.3,255.1,180.5z M256.9,188.1c-1,0.7-1.8-0.3-2.2-1.1c0.3-1.2,2.3-1.3,3.3-1.7 C258.1,186.4,258.2,187.5,256.9,188.1z"></path> <path class="st6" d="M275.2,180.6c-0.1,3,0,6-0.1,9c0.7-0.1,1.5-0.1,2.3-0.1c-0.1-3,0-6-0.1-9 C276.6,180.6,275.9,180.6,275.2,180.6z"></path> <path class="st6" d="M282.4,187.4c-1-1.4-1.1-5,1.2-5.3c0.9,0,1.3,0.9,2,1.5c0.7-0.1,1.3-0.3,2-0.4c-0.9-3.4-5.6-3.8-7.4-1.2 c-1.5,2.1-1.1,6.2,1.5,7.4c2.5,1.1,5.6,0,5.9-2.9c-0.7-0.1-1.3-0.2-2.1-0.3C284.8,187.7,283.9,188.6,282.4,187.4z"></path> <path class="st6" d="M301.7,185.8c-0.2-1.3-0.2-2.9-1.1-4c-1.3-1.7-3.9-1.9-5.5-0.7c-2.1,1.7-2.2,4.8-0.9,7.1 c1.8,2.5,6.6,2.1,7.3-1.1c-0.7-0.1-1.4-0.2-2.1-0.3c-0.5,0.5-0.9,0.9-1.3,1.4c-1.7-0.3-2.1-0.8-2.5-2.4 C297.6,185.7,299.7,185.7,301.7,185.8z M297.5,182.1c1.3,0.3,1.7,1,1.9,2.3c-1.1,0-2.3,0-3.4,0 C295.6,183.2,296.4,182.4,297.5,182.1z"></path> <path class="st6" d="M341.3,184.8c-1.3-0.8-3.1-0.9-4.5-1.5c-1.2-1.3,1.8-1.6,2.3-0.9c1.1,0.9,1.6,0.7,2.9,0.4 c-0.7-2.7-3.6-2.7-5.8-2.2c-1.5,0.5-2.3,2.1-1.7,3.6c1,1.7,3.4,1.7,5.1,2.3c0.7,1-0.1,1.6-1.1,1.6c-1.3,0.2-1.7-0.7-2.6-1.5 c-0.7,0.1-1.4,0.3-2.1,0.4c1.1,2.9,5,3.4,7.4,1.9C342.6,188.1,342.7,185.6,341.3,184.8z"></path> <path class="st6" d="M346.9,180.6c-2.5,0.8-3.6,3.8-2.7,6.2c0.7,2.9,4.4,3.8,6.7,2.4c2.5-1.5,2.9-5.4,0.9-7.4 C350.6,180.4,348.6,180.1,346.9,180.6z M348.2,187.9c-2.3-0.5-2.7-4.4-0.6-5.4c1.3-0.7,2.8,0.3,3,1.7 C351,185.8,350.1,188.1,348.2,187.9z"></path> <path class="st6" d="M365.4,180.6c-0.1,2.1,0.2,4.3-0.3,6.3c-0.5,1.3-2.1,1.8-3,0.5c-0.4-2.3,0-4.5-0.3-6.8 c-0.7,0.1-1.5,0.1-2.2,0.1c0.1,2.5-0.2,5.1,0.3,7.6c1.2,2.1,3.3,2,5.2,0.7c1,0.5,1.3,1.1,2.6,0.6c0.1-3,0-6,0-8.9 C366.8,180.6,366.1,180.6,365.4,180.6z"></path> <path class="st6" d="M375.8,189.6c0.7,0,1.5,0,2.3,0c0.1-3,0-6,0-9.1c-0.7,0-1.5-0.1-2.2,0C375.7,183.6,375.9,186.6,375.8,189.6z"></path> <path class="st6" d="M383.3,180.5c-3.4,0.9-4.3,5.2-2.3,7.8c1.5,1.7,4.3,2.1,6.2,0.7c2.4-1.7,2.7-5.4,0.5-7.4 C386.5,180.4,384.9,180.2,383.3,180.5z M384.4,187.9c-2.5-0.3-2.8-4.7-0.5-5.6C387.4,181.4,387.7,188,384.4,187.9z"></path> <path class="st6" d="M393.3,181.5c-0.3-0.9-1.1-1.3-2.4-0.9c0,3,0,6,0,9c0.8,0,1.5,0,2.3,0c0.1-1.9-0.1-3.8,0.1-5.8 c0-1,1-1.3,1.7-1.9c0.5,0.3,1,0.6,1.5,0.9c0.3,2.2,0.1,4.4,0.1,6.6c0.8,0.1,1.6,0.1,2.4,0.1v-7.3 C397.8,179.8,395.4,180,393.3,181.5z"></path> </g> </g> </svg> 