<?xml version="1.0" encoding="UTF-8"?> <!-- Generator: Adobe Illustrator 25.2.2, SVG Export Plug-In . SVG Version: 6.00 Build 0) --> <svg xmlns="http://www.w3.org/2000/svg" xmlns:xlink="http://www.w3.org/1999/xlink" version="1.1" id="Layer_1" x="0px" y="0px" viewBox="0 0 400 245" style="enable-background:new 0 0 400 245;" xml:space="preserve"> <style type="text/css"> .st0{fill:#010101;} .st1{enable-background:new ;} .st2{fill:#DB1F26;} .st3{fill:#7A7A7A;} .st4{fill:#EE3275;} .st5{fill:#EE2837;} .st6{fill:#069BCF;} .st7{fill:none;} .st8{clip-path:url(#SVGID_1_);} .st9{fill-rule:evenodd;clip-rule:evenodd;fill:#F4C117;} .st10{clip-path:url(#SVGID_2_);} .st11{fill-rule:evenodd;clip-rule:evenodd;fill:url(#SVGID_3_);} .st12{fill-rule:evenodd;clip-rule:evenodd;fill:url(#SVGID_4_);} .st13{fill-rule:evenodd;clip-rule:evenodd;fill:url(#SVGID_5_);} .st14{fill-rule:evenodd;clip-rule:evenodd;fill:url(#SVGID_6_);} .st15{fill-rule:evenodd;clip-rule:evenodd;fill:url(#SVGID_7_);} .st16{fill-rule:evenodd;clip-rule:evenodd;fill:url(#SVGID_8_);} .st17{clip-path:url(#SVGID_9_);} .st18{fill-rule:evenodd;clip-rule:evenodd;fill:url(#SVGID_10_);} .st19{fill-rule:evenodd;clip-rule:evenodd;fill:url(#SVGID_11_);} .st20{fill-rule:evenodd;clip-rule:evenodd;fill:url(#SVGID_12_);} .st21{fill-rule:evenodd;clip-rule:evenodd;fill:url(#SVGID_13_);} .st22{fill-rule:evenodd;clip-rule:evenodd;fill:url(#SVGID_14_);} .st23{fill-rule:evenodd;clip-rule:evenodd;fill:url(#SVGID_15_);} .st24{fill:#FFFFFF;} .st25{clip-path:url(#SVGID_16_);} .st26{clip-path:url(#SVGID_17_);} .st27{clip-path:url(#SVGID_18_);} .st28{fill-rule:evenodd;clip-rule:evenodd;fill:url(#SVGID_19_);} .st29{fill-rule:evenodd;clip-rule:evenodd;fill:url(#SVGID_20_);} .st30{fill-rule:evenodd;clip-rule:evenodd;fill:url(#SVGID_21_);} .st31{fill-rule:evenodd;clip-rule:evenodd;fill:url(#SVGID_22_);} .st32{fill-rule:evenodd;clip-rule:evenodd;fill:url(#SVGID_23_);} .st33{fill-rule:evenodd;clip-rule:evenodd;fill:url(#SVGID_24_);} .st34{clip-path:url(#SVGID_25_);} .st35{clip-path:url(#SVGID_26_);} .st36{clip-path:url(#SVGID_27_);} .st37{fill-rule:evenodd;clip-rule:evenodd;fill:url(#SVGID_28_);} .st38{fill-rule:evenodd;clip-rule:evenodd;fill:url(#SVGID_29_);} .st39{fill-rule:evenodd;clip-rule:evenodd;fill:url(#SVGID_30_);} .st40{fill-rule:evenodd;clip-rule:evenodd;fill:url(#SVGID_31_);} .st41{fill-rule:evenodd;clip-rule:evenodd;fill:url(#SVGID_32_);} .st42{fill-rule:evenodd;clip-rule:evenodd;fill:url(#SVGID_33_);} .st43{clip-path:url(#SVGID_34_);} .st44{clip-path:url(#SVGID_35_);} .st45{clip-path:url(#SVGID_36_);} .st46{fill-rule:evenodd;clip-rule:evenodd;fill:url(#SVGID_37_);} .st47{fill-rule:evenodd;clip-rule:evenodd;fill:url(#SVGID_38_);} .st48{fill-rule:evenodd;clip-rule:evenodd;fill:url(#SVGID_39_);} .st49{fill-rule:evenodd;clip-rule:evenodd;fill:url(#SVGID_40_);} .st50{fill-rule:evenodd;clip-rule:evenodd;fill:url(#SVGID_41_);} .st51{fill-rule:evenodd;clip-rule:evenodd;fill:url(#SVGID_42_);} .st52{clip-path:url(#SVGID_43_);} .st53{fill-rule:evenodd;clip-rule:evenodd;fill:#FFFFFF;} .st54{fill-rule:evenodd;clip-rule:evenodd;fill:url(#SVGID_44_);} .st55{fill-rule:evenodd;clip-rule:evenodd;fill:url(#SVGID_45_);} .st56{fill-rule:evenodd;clip-rule:evenodd;fill:url(#SVGID_46_);} .st57{fill-rule:evenodd;clip-rule:evenodd;fill:url(#SVGID_47_);} .st58{fill-rule:evenodd;clip-rule:evenodd;fill:url(#SVGID_48_);} .st59{fill-rule:evenodd;clip-rule:evenodd;fill:url(#SVGID_49_);} .st60{fill-rule:evenodd;clip-rule:evenodd;fill:#40464E;} .st61{fill-rule:evenodd;clip-rule:evenodd;fill:#01AFAA;} .st62{fill:#28203B;} .st63{fill-rule:evenodd;clip-rule:evenodd;fill:#010101;} .st64{fill:#F26B3F;} .st65{display:none;fill:#010101;} .st66{fill:#D72027;} .st67{fill:#ED2224;} .st68{fill:#231815;} .st69{display:none;fill-rule:evenodd;clip-rule:evenodd;fill:#323137;} .st70{fill:#3D3D3C;} .st71{fill:#F09877;} </style> <g> <path class="st5" d="M83.3,129.7c8.2,0,20-1.7,20-11.4c0-0.7,0-1.5-0.2-2.2l-4.9-21.1c-1.1-4.6-2.1-6.7-10.3-10.8 c-6.3-3.2-20.1-8.6-24.2-8.6c-3.8,0-4.9,4.9-9.4,4.9c-4.4,0-7.6-3.7-11.7-3.7c-3.9,0-6.5,2.7-8.4,8.2c0,0-5.5,15.5-6.2,17.7 c-0.1,0.4-0.2,0.8-0.1,1.3C27.9,110,51.6,129.7,83.3,129.7 M104.5,122.2c1.1,5.3,1.1,5.9,1.1,6.6c0,9.1-10.3,14.2-23.8,14.2 c-30.5,0-57.2-17.9-57.2-29.7c0-1.6,0.3-3.3,1-4.8c-11,0.6-25.2,2.5-25.2,15c0,20.5,48.6,45.8,87.2,45.8c29.5,0,37-13.4,37-23.9 C124.6,137.3,117.5,127.8,104.5,122.2"></path> <path class="st0" d="M104.5,122.2c1.1,5.3,1.1,5.9,1.1,6.6c0,9.1-10.3,14.2-23.8,14.2c-30.5,0-57.2-17.9-57.2-29.7 c0-1.6,0.3-3.3,1-4.8l2.4-5.9c-0.1,0.4-0.2,0.8-0.1,1.3c0,6,23.7,25.7,55.4,25.7c8.2,0,20-1.7,20-11.4c0-0.7,0-1.5-0.2-2.2 L104.5,122.2z"></path> <path class="st0" d="M378.2,135.7c0,7.7,4.7,11.5,13.2,11.5c2.6-0.1,5.2-0.4,7.8-1.1v-9c-1.6,0.5-3.3,0.8-5,0.8 c-3.5,0-4.8-1.1-4.8-4.4v-13.8h10.1v-9.3h-10.1V98.8l-11.1,2.4v9.3h-7.3v9.3h7.3L378.2,135.7z M343.7,135.9c0-2.4,2.4-3.6,6-3.6 c2.2,0,4.4,0.3,6.6,0.8v4.7c-2.1,1.2-4.5,1.8-6.9,1.7C345.8,139.6,343.7,138.2,343.7,135.9 M347.1,147.4c3.5,0.1,7.1-0.9,10-2.8 v2.2h11v-23.2c0-8.8-6-13.7-15.9-13.7c-5.9,0.1-11.6,1.4-16.9,4l4,8.2c4.3-1.8,7.8-2.9,11-2.9c4.6,0,6.9,1.8,6.9,5.4v1.8 c-2.7-0.7-5.5-1-8.2-1c-9.3,0-15,3.9-15,10.9C333.9,142.5,339,147.4,347.1,147.4 M286.8,146.8h11.8V128h19.8v18.8h11.8v-48h-11.8 v18.4h-19.8V98.8h-11.8V146.8z M241.9,128.6c0-5.1,4.1-9.2,9.2-9.2c0.1,0,0.2,0,0.4,0c2.8-0.1,5.6,0.9,7.7,2.8v12.7 c-2.1,1.9-4.8,3-7.7,2.9c-5.1,0.2-9.4-3.8-9.5-8.9C241.9,128.8,241.9,128.7,241.9,128.6 M259.2,146.8h11V96.4l-11.1,2.4v13.6 c-8.9-5.2-20.4-2.2-25.6,6.7c-5.2,8.9-2.2,20.4,6.7,25.6c2.8,1.6,6,2.5,9.2,2.5c3.5,0,6.9-1.1,9.7-3.2L259.2,146.8z M208.9,118.9 c3.5,0,6.6,2.4,7.6,5.8h-15.2C202.2,121.2,205.3,118.8,208.9,118.9 M190.2,128.7c0,10.6,8.6,18.8,19.8,18.8 c5.6,0.2,11-1.8,15.2-5.5l-7.3-6.5c-1.9,1.9-4.6,2.9-7.3,2.7c-3.9,0.1-7.4-2.2-8.9-5.8h25.9v-2.7c0-11.5-7.7-19.8-18.3-19.8 c-10.3-0.2-18.8,8-18.9,18.3C190.2,128.4,190.2,128.5,190.2,128.7 M171,108.9c3.9,0,6.1,2.5,6.1,5.4c0,2.9-2.2,5.4-6.1,5.4h-11.7 v-10.8L171,108.9z M147.6,146.8h11.8v-17.5h9l9.1,17.5h13.2L180,127.6c5.5-2.2,9.1-7.6,9.1-13.5c0-8.6-6.8-15.3-16.9-15.3h-24.6 V146.8z"></path> </g> </svg> 