<?xml version="1.0" encoding="UTF-8"?> <!-- Generator: Adobe Illustrator 25.2.2, SVG Export Plug-In . SVG Version: 6.00 Build 0) --> <svg xmlns="http://www.w3.org/2000/svg" xmlns:xlink="http://www.w3.org/1999/xlink" version="1.1" id="Layer_1" x="0px" y="0px" viewBox="0 0 400 245" style="enable-background:new 0 0 400 245;" xml:space="preserve"> <style type="text/css"> .st0{fill:#0A0B0A;} .st1{fill:#F6D70B;} .st2{fill:#D91F27;} .st3{fill:#F36B21;} .st4{fill:#454A7B;} .st5{fill:#676767;} </style> <path class="st3" d="M218.7,64c2.6-6.7,11.1-6.7,17.9-6.7h1.3v-9.4c0,0-26.5,0.6-34.7,0.6S170,47.8,170,47.8v9.4h1.3 c6.8,0,15.3,0,17.9,6.7c1.9,9.5,2.6,19.3,2.2,29v59.3c0.4,9.7-0.3,19.4-2.2,29c-2.6,6.8-11.1,6.8-17.9,6.8H170v9.3 c0,0,21.3-1,33.3-1c13.5,0,34.6,0.9,34.6,0.9V188h-1.3c-6.8,0-15.3,0-17.9-6.8c-1.8-9.6-2.5-19.3-2.1-29V93 C216.3,83.2,217,73.5,218.7,64z M258,48.1v38.7h9.2v-1.2c0.8-25.2,10.5-26.2,32.2-26.2h2.2c5.4,0,10.5,0,12.5,1.9 c0.7,0.8,1,1.8,1,2.8v101.6c0,15.1-2.1,21.3-23.4,22.2h-1.2v9.3c0,0,24.8-0.9,39.2-0.9c10.9,0,35.4,0.9,35.4,0.9v-9.1h-1.3 c-21.2-0.9-23.4-7.1-23.4-22.2V64.3c0-0.9,0.3-1.9,1-2.5c2.5-2.5,9.2-2.3,14.6-2.3h3c21.2,0,28,6,29.3,26.3v1.1h9.3V48.1 c0,0-53.8,0.4-69.8,0.4S258,48.1,258,48.1z M149.5,188c-8.3-0.2-16.1-4.3-20.9-11.1l-44.2-50.6c23.2-3,37.5-18.4,37.5-40.5 c1-12.6-5.5-24.7-16.6-30.9c-11-5.3-23.2-7.7-35.5-7.1c-4.7,0-15.8,0.5-28.2,0.5S2.3,47.8,2.3,47.8v9.4h1.9c7.1,0,14.9,0,17,6.7 c1.6,9.1,2.2,18.3,1.9,27.4v60.9c0.1,8-0.1,16-0.8,23.9c-0.2,1.7-0.6,3.5-1.1,5.1C19.1,188,10.5,188,3.6,188H2.3v9.3 c0,0,20.7-1,34.5-1c12,0,32.5,0.9,32.5,1V188h-1.9c-6.9,0-14.8,0-17-6.7c-0.5-1.7-0.9-3.4-1.1-5.1c-0.7-7.4-1-14.9-0.9-22.3V129 c8.3,0,9,1,13.2,6c0.8,1,1.7,2,2.8,3.2l36.8,45.6l10.8,13.5c0,0,12-0.5,17.6-0.5c8.4,0,20.7,0.5,20.7,0.5v-9.1L149.5,188z M48.5,118.8V64.6c0-2.2,0-5.1,1.7-6c4.6-0.3,9.3-0.3,13.9,0C83,58.6,94,69.7,94,89c0,14.1-3.8,22.1-12,26.2S48.5,118.8,48.5,118.8z "></path> </svg> 