<?xml version="1.0" encoding="UTF-8"?> <svg xmlns="http://www.w3.org/2000/svg" id="Layer_1" data-name="Layer 1" viewBox="0 0 400 245"><defs><style>.cls-1{fill:#f3632a;}.cls-2{fill:#100f0d;}.cls-3{fill:#231f20;}</style></defs><path class="cls-1" d="M28.6773,132.13225a7.16541,7.16541,0,0,0,5.61677-7.14594c0-2.899-2.73211-7.58316-9.51407-7.42307-8.39116.19936-13.67189,6.23674-13.84935,13.69908-.22579,9.39853,8.56485,15.57486,17.58732,15.68813,13.24675.16462,21.10478-8.52483,21.08741-21.24977a23.51241,23.51241,0,0,0-23.1633-23.09911A30.10962,30.10962,0,0,0,7.679,107.86794v8.53314a22.79574,22.79574,0,0,1,17.30338-7.80291c10.07741.10119,17.85162,7.70247,17.89693,16.29375.043,8.213-3.3974,14.25864-12.6819,15.74854-5.06249.81254-12.98546-2.15669-12.63281-9.80479a6.16079,6.16079,0,0,1,6.77289-6.01095c-3.44346,4.61544,1.11535,7.997,4.33906,7.30829"></path><path class="cls-1" d="M75.47286,132.59893l12.26883,6.27525V121.38881l-9.84708.96809,9.84708-5.4612V81.14716H67.94935c.842,2.80158,3.59,4.80272,3.59,9.49065,0,6.47537-7.65717,7.95167-7.80065,14.59166-.13743,6.41646,4.67888,8.02115,4.8216,13.38418.14046,5.2845-2.14234,7.66094-2.14234,7.66094s1.26412-1.60544.72494-5.51255c-1.09723-7.95318-8.62677-8.55126-8.83519-15.52275-.182-6.08722,4.14046-7.43591,4.07929-12.86238-.06645-5.986-5.50727-8.077-6.13253-11.229H7.67976V99.76222a37.22408,37.22408,0,0,1,18.76307-4.85331c19.44875.01208,31.79461,13.60015,31.78932,30.74269-.00529,17.74287-12.33982,28.9326-29.03153,29.11837-9.54956.10723-16.94695-3.96149-21.52086-9.48084v15.92072H60.268l6.1499-22.71022,5.41438,22.71022H87.74169V146.27762L75.47286,132.59893"></path><path class="cls-2" d="M101.29049,152.44639l4.20917-4.98244c6.27147,5.66963,12.28545,8.50595,20.61922,8.50595,8.07475,0,13.4008-4.29678,13.4008-10.22466v-.17142c0-5.58353-3.007-8.7627-15.63527-11.42533-13.832-3.007-20.18879-7.47442-20.18879-17.354v-.17217c0-9.44913,8.33377-16.407,19.75911-16.407a31.377,31.377,0,0,1,21.13348,7.38682l-3.95242,5.24071c-5.58354-4.552-11.16858-6.52823-17.35322-6.52823-7.8165,0-12.7997,4.29451-12.7997,9.70814v.17142c0,5.66962,3.09232,8.84727,16.32246,11.68359,13.40154,2.92015,19.58618,7.81651,19.58618,17.00888v.17217c0,10.30923-8.59053,17.00888-20.53162,17.00888-9.536,0-17.35322-3.17765-24.56938-9.62054m52.37607-35.65264h6.61507v44.41458h-6.61507Zm-.42891-17.00963h7.55824v7.30224h-7.559V99.78488M206.5335,139.0456v-.17218c0-10.22314-7.818-17.09647-16.0657-17.09647-8.59053,0-15.63451,6.35756-15.63451,17.09647v.17218c0,10.48064,7.30225,17.181,15.63451,17.181C198.71549,156.22664,206.5335,149.268,206.5335,139.0456Zm-38.48594.08457V138.958c0-14.5169,10.566-23.10742,21.21805-23.10742,8.24768,0,13.57372,4.46668,17.01038,9.44912V98.4966h6.61508v62.71249H206.276v-8.93337c-3.60883,5.32529-8.84953,9.87881-17.01038,9.87881-10.65208,0-21.21805-8.41911-21.21805-23.02436m87.14142-2.5758c-.68719-8.07552-5.326-15.12026-14.17558-15.12026-7.73041,0-13.57373,6.44365-14.43232,15.12026Zm-35.30755,2.5758V138.958c0-12.7997,9.01945-23.10742,21.30414-23.10742,13.14481,0,20.70306,10.47989,20.70306,23.45252a17.52557,17.52557,0,0,1-.08458,2.14763h-35.223c.94545,9.62054,7.73267,15.03418,15.63525,15.03418,6.10082,0,10.39532-2.492,14.00265-6.27148l4.12384,3.69342c-4.46742,4.984-9.8788,8.333-18.29716,8.333-12.20012,0-22.16426-9.3638-22.16426-23.10969m50.415-38.05626h45.78819v12.02643H283.525v12.80121H312.2182V137.928H283.525V161.2091H270.29558V101.07391m105.47934,0L355.673,130.45432l20.96053,30.75477H361.16967L347.682,140.59062l-13.57373,20.61847H319.07414L340.037,130.62574l-20.102-29.55183h15.46235l12.54294,19.50161L360.74,101.07391h15.03493"></path><path class="cls-3" d="M385.19766,106.30329h.80573a2.71854,2.71854,0,0,0,.69776-.07552,1.11772,1.11772,0,0,0,.44553-.21672.753.753,0,0,0,.2326-.35492,1.61,1.61,0,0,0,.068-.48934,1.63942,1.63942,0,0,0-.05967-.46592.68412.68412,0,0,0-.20918-.327.99372.99372,0,0,0-.40324-.19709,2.53334,2.53334,0,0,0-.6381-.06721h-.93939Zm0,1.06475V110.036h-1.468v-7.05532h2.40739a3.49021,3.49021,0,0,1,2.09174.50595,1.74913,1.74913,0,0,1,.66981,1.49065,2.03809,2.03809,0,0,1-.38663,1.24372,2.11135,2.11135,0,0,1-1.18406.74533.93868.93868,0,0,1,.26506.23258,2.05572,2.05572,0,0,1,.20013.32019l1.61,2.51689H387.9917a.47428.47428,0,0,1-.44327-.22956l-1.3487-2.2088a.61238.61238,0,0,0-.17369-.16991.58185.58185,0,0,0-.2998-.05965Zm-3.85124-.8435a5.03843,5.03843,0,0,0,.37531,1.94525,4.921,4.921,0,0,0,1.02927,1.57071,4.86067,4.86067,0,0,0,1.54352,1.05267,4.71054,4.71054,0,0,0,1.90523.38663,4.93637,4.93637,0,0,0,1.31093-.17368,4.79508,4.79508,0,0,0,2.15744-1.2626,4.88274,4.88274,0,0,0,.76271-1.00132,5.13461,5.13461,0,0,0,.48782-1.1886,5.02208,5.02208,0,0,0,.17369-1.329,5.10926,5.10926,0,0,0-.66227-2.53351,4.92979,4.92979,0,0,0-1.74741-1.78366,4.84949,4.84949,0,0,0-2.48291-.67887,4.66679,4.66679,0,0,0-1.90523.39192,4.84632,4.84632,0,0,0-1.54352,1.06475,4.9719,4.9719,0,0,0-1.02927,1.58581A5.08948,5.08948,0,0,0,381.34642,106.52454Zm-.93866,0a5.74515,5.74515,0,0,1,.78988-2.92769,5.83029,5.83029,0,0,1,3.46311-2.67246,5.7962,5.7962,0,0,1,3.078.00075,5.91466,5.91466,0,0,1,1.3887.58826A5.791,5.791,0,0,1,392,106.52454a5.62786,5.62786,0,0,1-.20919,1.53823,5.869,5.869,0,0,1-.58447,1.38493,5.79348,5.79348,0,0,1-10.79782-2.92316"></path></svg> 