<?xml version="1.0" encoding="UTF-8"?> <!-- Generator: Adobe Illustrator 25.2.2, SVG Export Plug-In . SVG Version: 6.00 Build 0) --> <svg xmlns="http://www.w3.org/2000/svg" xmlns:xlink="http://www.w3.org/1999/xlink" version="1.1" id="Layer_1" x="0px" y="0px" viewBox="0 0 400 245" style="enable-background:new 0 0 400 245;" xml:space="preserve"> <style type="text/css"> .st0{fill:#010101;} .st1{enable-background:new ;} .st2{fill:#DB1F26;} .st3{fill:#7A7A7A;} .st4{fill:#EE3275;} .st5{fill:#EE2837;} .st6{fill:#069BCF;} .st7{fill:none;} .st8{clip-path:url(#SVGID_1_);} .st9{fill-rule:evenodd;clip-rule:evenodd;fill:#F4C117;} .st10{clip-path:url(#SVGID_2_);} .st11{fill-rule:evenodd;clip-rule:evenodd;fill:url(#SVGID_3_);} .st12{fill-rule:evenodd;clip-rule:evenodd;fill:url(#SVGID_4_);} .st13{fill-rule:evenodd;clip-rule:evenodd;fill:url(#SVGID_5_);} .st14{fill-rule:evenodd;clip-rule:evenodd;fill:url(#SVGID_6_);} .st15{fill-rule:evenodd;clip-rule:evenodd;fill:url(#SVGID_7_);} .st16{fill-rule:evenodd;clip-rule:evenodd;fill:url(#SVGID_8_);} .st17{clip-path:url(#SVGID_9_);} .st18{fill-rule:evenodd;clip-rule:evenodd;fill:url(#SVGID_10_);} .st19{fill-rule:evenodd;clip-rule:evenodd;fill:url(#SVGID_11_);} .st20{fill-rule:evenodd;clip-rule:evenodd;fill:url(#SVGID_12_);} .st21{fill-rule:evenodd;clip-rule:evenodd;fill:url(#SVGID_13_);} .st22{fill-rule:evenodd;clip-rule:evenodd;fill:url(#SVGID_14_);} .st23{fill-rule:evenodd;clip-rule:evenodd;fill:url(#SVGID_15_);} .st24{fill:#FFFFFF;} .st25{clip-path:url(#SVGID_16_);} .st26{clip-path:url(#SVGID_17_);} .st27{clip-path:url(#SVGID_18_);} .st28{fill-rule:evenodd;clip-rule:evenodd;fill:url(#SVGID_19_);} .st29{fill-rule:evenodd;clip-rule:evenodd;fill:url(#SVGID_20_);} .st30{fill-rule:evenodd;clip-rule:evenodd;fill:url(#SVGID_21_);} .st31{fill-rule:evenodd;clip-rule:evenodd;fill:url(#SVGID_22_);} .st32{fill-rule:evenodd;clip-rule:evenodd;fill:url(#SVGID_23_);} .st33{fill-rule:evenodd;clip-rule:evenodd;fill:url(#SVGID_24_);} .st34{clip-path:url(#SVGID_25_);} .st35{clip-path:url(#SVGID_26_);} .st36{clip-path:url(#SVGID_27_);} .st37{fill-rule:evenodd;clip-rule:evenodd;fill:url(#SVGID_28_);} .st38{fill-rule:evenodd;clip-rule:evenodd;fill:url(#SVGID_29_);} .st39{fill-rule:evenodd;clip-rule:evenodd;fill:url(#SVGID_30_);} .st40{fill-rule:evenodd;clip-rule:evenodd;fill:url(#SVGID_31_);} .st41{fill-rule:evenodd;clip-rule:evenodd;fill:url(#SVGID_32_);} .st42{fill-rule:evenodd;clip-rule:evenodd;fill:url(#SVGID_33_);} .st43{clip-path:url(#SVGID_34_);} .st44{clip-path:url(#SVGID_35_);} .st45{clip-path:url(#SVGID_36_);} .st46{fill-rule:evenodd;clip-rule:evenodd;fill:url(#SVGID_37_);} .st47{fill-rule:evenodd;clip-rule:evenodd;fill:url(#SVGID_38_);} .st48{fill-rule:evenodd;clip-rule:evenodd;fill:url(#SVGID_39_);} .st49{fill-rule:evenodd;clip-rule:evenodd;fill:url(#SVGID_40_);} .st50{fill-rule:evenodd;clip-rule:evenodd;fill:url(#SVGID_41_);} .st51{fill-rule:evenodd;clip-rule:evenodd;fill:url(#SVGID_42_);} .st52{clip-path:url(#SVGID_43_);} .st53{fill-rule:evenodd;clip-rule:evenodd;fill:#FFFFFF;} .st54{fill-rule:evenodd;clip-rule:evenodd;fill:url(#SVGID_44_);} .st55{fill-rule:evenodd;clip-rule:evenodd;fill:url(#SVGID_45_);} .st56{fill-rule:evenodd;clip-rule:evenodd;fill:url(#SVGID_46_);} .st57{fill-rule:evenodd;clip-rule:evenodd;fill:url(#SVGID_47_);} .st58{fill-rule:evenodd;clip-rule:evenodd;fill:url(#SVGID_48_);} .st59{fill-rule:evenodd;clip-rule:evenodd;fill:url(#SVGID_49_);} .st60{fill-rule:evenodd;clip-rule:evenodd;fill:#40464E;} .st61{fill-rule:evenodd;clip-rule:evenodd;fill:#01AFAA;} .st62{fill:#28203B;} .st63{fill-rule:evenodd;clip-rule:evenodd;fill:#010101;} .st64{fill:#F26B3F;} .st65{display:none;fill:#010101;} .st66{fill:#D72027;} .st67{fill:#ED2224;} .st68{fill:#231815;} .st69{display:none;fill-rule:evenodd;clip-rule:evenodd;fill:#323137;} .st70{fill:#3D3D3C;} .st71{fill:#F09877;} </style> <g> <path class="st4" d="M387,186.7c6.1,0,11,4.9,11,10.8s-4.9,11-10.8,11c-6.1,0-11-4.9-11-10.8C376.2,191.6,381.1,186.9,387,186.7z M387,207c5.2,0,9.5-4.2,9.5-9.5c0-5.2-4.2-9.5-9.5-9.5s-9.5,4.2-9.5,9.5C377.6,202.9,381.8,207.1,387,207z M390.2,203.4l-4.1-5.9 h-1.5v5.9h-1.5v-11.8h4.1c1-0.2,2,0.2,2.7,0.8c0.5,0.5,0.8,1.4,0.8,2.2c0,1.7-1.4,3-3,3l3.9,5.9L390.2,203.4L390.2,203.4z M387.2,196.3c1.2,0,1.5-0.2,1.9-0.5c0.5-0.7,0.5-1.5,0-2.2c-0.3-0.3-0.7-0.5-1.9-0.5h-2.5v3.4h2.5 C387.2,196.5,387.2,196.3,387.2,196.3z M121,43.6v28.4H77.5v136.7H45.5V71.9H2V43.6H121z M315,94.2v26h14.5v88.5H360V94.2H315 L315,94.2z M344.7,34.1c-10.8,0.2-19.4,9.3-19.1,20.1c0.2,10.8,9.3,19.4,20.1,19.1c10.6-0.2,19.1-8.9,19.1-19.6 c0-10.8-8.8-19.6-19.6-19.6H344.7L344.7,34.1z"></path> <path class="st4" d="M277.1,72.6c3.7-4.4,9.6-6.6,17.2-6.6c3,0,6.2,0.5,9.1,1.2l4.7-26.2c-5.9-1.5-12.2-2.2-18.2-2.2 c-15.5,0-27.7,5.6-35.6,13.5c-7.9,7.9-12.3,18.9-12.3,37.3v4.7h-57.7v9.1c-9.5-7.6-21.3-11.6-33.4-11.5c-31.1-0.2-56,25.8-56,59.6 c0,14.7,5.1,28.9,14.7,40c11,12.3,26.7,19.4,43.2,19.2c11.6,0.2,23-3.9,31.7-11.5v9.1H214v-88.3h28.4v88.5h30.7v-88.5h27.2v-26 h-27.2v-3.5C272.8,80,274.4,75.8,277.1,72.6z M183.3,168.5c-6.4,8.9-16.7,14.2-27.7,14.2c-17.2,0-30.2-13.2-30.2-31.1 c0.2-16.5,11.6-31.4,29.5-31.4c11.1,0,21.6,5.2,28.4,14.2C183.3,134.4,183.3,168.5,183.3,168.5z"></path> </g> </svg> 