<?xml version="1.0" encoding="UTF-8"?> <svg xmlns="http://www.w3.org/2000/svg" xmlns:xlink="http://www.w3.org/1999/xlink" version="1.1" id="Layer_1" x="0px" y="0px" width="1000px" height="189.486px" viewBox="0 0 1000 189.486" xml:space="preserve"> <g> <polygon fill="#265EAC" points="918.945,58.881 876.208,58.881 893.02,82.992 914.683,82.992 896.464,186.713 934.417,186.713 952.661,82.992 1000,82.992 925.267,22.869 "></polygon> <polygon fill="#265EAC" points="177.143,0 4.709,0 0,27.159 66.949,27.159 38.9,186.72 76.854,186.72 104.909,27.159 172.434,27.159 "></polygon> <path fill="#265EAC" d="M205.211,56.004c-48.243,0-79.126,30.365-85.256,65.642c-6.796,39.169,17.271,67.841,65.96,67.841 c21.754,0,42.106-4.092,58.643-13.282l5.135-29.215c-16.153,11.573-36.711,18.04-54.126,18.04 c-24.272,0-43.568-10.105-40.533-33.286h100.295c1.208-2.753,2.656-7.572,3.7-13.584C263.889,90.172,253.969,56.004,205.211,56.004 M224.885,109.208h-66.008c3.968-13.075,16.791-31.152,40.136-31.152C224.417,78.056,227.102,97.369,224.885,109.208"></path> <path fill="#265EAC" d="M372.833,56.011c-23.689,0-41.434,9.819-49.801,19.745h-0.885l-33.409-19.745 c-1.229,11.079-2.869,26.123-5.437,40.889l-15.603,89.813h37.953l13.2-75.214c0.632-3.692,1.888-7.605,3.521-10.262 c5.67-9.868,17.566-18.956,32.647-18.956c20.71,0,26.346,13.973,23.167,32.308l-12.692,72.124h37.96l13.365-75.927 C423.836,70.364,398.98,56.011,372.833,56.011"></path> <path fill="#265EAC" d="M828.128,56.011c-23.702,0-41.425,9.819-49.794,19.745h-0.884l-33.41-19.745 c-1.229,11.079-2.877,26.123-5.444,40.889l-15.588,89.813h37.939l13.207-75.214c0.625-3.692,1.882-7.605,3.508-10.262 c5.676-9.868,17.571-18.956,32.641-18.956c20.735,0,26.365,13.973,23.188,32.308l-12.686,72.124h37.953l13.345-75.927 C879.123,70.364,854.274,56.011,828.128,56.011"></path> <path fill="#265EAC" d="M660.507,56.004c-48.243,0-79.118,30.365-85.249,65.642c-6.796,39.169,17.271,67.841,65.953,67.841 c21.753,0,42.113-4.092,58.643-13.282l5.142-29.215c-16.151,11.573-36.704,18.04-54.14,18.04 c-24.259,0-43.533-10.105-40.521-33.286h100.309c1.188-2.753,2.643-7.572,3.706-13.584 C719.183,90.172,709.258,56.004,660.507,56.004 M680.18,109.208h-66c3.96-13.075,16.783-31.152,40.121-31.152 C679.72,78.056,682.404,97.369,680.18,109.208"></path> <path fill="#265EAC" d="M432.746,121.082c-6.885,39.678,20.896,68.391,67.916,68.391c18.699,0,41.021-5.376,49.479-8.512 l6.137-34.165c-13.186,14.183-31.062,17.128-43.747,17.128c-25.83,0-45.387-15.04-40.836-41.249 c3.947-23.435,26.14-41.445,55.073-41.445c11.779,0,27.767,3.945,37.844,17.207l5.883-34.752 c-8.162-3.133-21.225-7.605-40.563-7.605C477.172,56.079,439.398,82.813,432.746,121.082"></path> </g> </svg> 