<?xml version="1.0" encoding="UTF-8"?> <!-- Generator: Adobe Illustrator 25.2.2, SVG Export Plug-In . SVG Version: 6.00 Build 0) --> <svg xmlns="http://www.w3.org/2000/svg" xmlns:xlink="http://www.w3.org/1999/xlink" version="1.1" id="Layer_1" x="0px" y="0px" viewBox="0 0 400 245" style="enable-background:new 0 0 400 245;" xml:space="preserve"> <style type="text/css"> .st0{fill:#DD2427;} .st1{fill:#59595A;} .st2{fill:#7B7C7C;} </style> <g> <path class="st0" d="M31.6,3.1c0.9-0.1,1.9,0,2.8,0c40.2,0,80.5,0,120.7,0c3.5-0.1,6.9,0.8,10,2.4c6.6,3.5,11.1,10.6,11.2,18.1 c0,35.6,0,71.2,0,106.8c10.5,0,20.9,0,31.4,0c10.4,0,20.7,0,31.1,0c0.2,10.2,0,20.4,0.1,30.6c-0.1,0.2-0.1,0.4-0.2,0.6 c-1.2,0-2.3,0-3.5,0c-22.6,0-45.3,0-67.9,0c-3.9,0.1-7.9-0.8-11.3-2.7c-2-1.3-4.1-2.7-5.6-4.6c-3.3-3.8-5.2-8.8-5.3-13.9 c0-35.4,0-70.8,0-106.3c-10.3,0-20.6,0-30.9,0c-10.4,0-20.8,0-31.1,0c-16.7,0-33.4,0-50,0c-0.5,0-1,0-1.5,0 C31.6,23.9,31.5,13.5,31.6,3.1L31.6,3.1z"></path> <path class="st1" d="M228.3,3.1c13.6,0,27.2,0,40.8,0c0,10.4,0,20.7,0,31.1c10.2,0.1,20.4,0,30.6,0c0,15.1,0,30.2,0,45.2 c0,0.9,0.1,1.7,0.1,2.6c0,26.3,0,52.6,0.1,78.9c-10.4,0.1-20.8,0-31.2,0.1c0-28.1-0.1-56.2-0.1-84.2c0-1-0.1-2-0.1-3 c0-13.2,0-26.4,0-39.7c-10.2,0-20.3,0-30.5,0c0,2.5,0,5,0.1,7.5c0.1,13.8,0.2,27.6,0.3,41.3c0.1,13.8,0.2,27.6,0.2,41.3 c0,1,0.1,2,0.1,3c0.1,10.8,0.2,21.7,0.2,32.5c0,0.4-0.1,0.8-0.2,1.2c-0.1-10.2,0.1-20.4-0.1-30.6c-10.4,0-20.7,0-31.1,0 c0-3.2,0-6.4-0.1-9.6c-0.1-14.8-0.2-29.5-0.3-44.3c0-1-0.1-2-0.1-3c-0.1-11.2-0.2-22.3-0.2-33.5c-0.3-5-0.1-10.1-0.2-15.1 c-0.1-3.1,0.5-6.4,1.7-9.3c1.3-2.5,2.7-4.8,4.7-6.7C217.2,5.1,222.8,3,228.3,3.1L228.3,3.1z"></path> <path class="st0" d="M269.1,3.1c23.5,0,47,0,70.5,0c3.1-0.1,6.3,0.6,9.1,2c2.5,1.1,4.5,2.8,6.5,4.7c1.6,1.7,2.8,3.7,3.8,5.7 c1.3,2.8,1.9,5.9,1.9,8.9c0,45.1,0,90.2,0,135.3c-10.4,0-20.8,0-31.2,0c0-41.8,0-83.6,0-125.4c-10,0-19.9,0-29.9,0 c-10.2,0-20.4,0-30.6,0C269.1,23.8,269,13.5,269.1,3.1L269.1,3.1z"></path> <path class="st1" d="M83.1,34.2c10.4,0,20.8,0,31.1,0c0,42.7,0,85.4,0,128.1c-10.4,0-20.8,0-31.1,0C83.1,119.6,83.1,76.9,83.1,34.2 L83.1,34.2z"></path> <path class="st2" d="M28.8,184.9c1-0.1,2,0,2.9,0c110.6,0,221.1,0,331.7,0c0.1,0.9,0.2,1.8-0.2,2.7c-4-0.1-8,0-12,0 c-106.6,0-213.3,0-319.9,0c-0.8-0.1-1.8,0.2-2.5-0.1C28.6,186.6,28.7,185.7,28.8,184.9L28.8,184.9z"></path> <path class="st2" d="M245,210.5c3,0,6,0.6,8.5,2.2c2.1,1.5,3.7,3.8,3.5,6.4c-1.7,0-3.3,0-5,0c-0.1-1.4-0.4-2.8-1.5-3.8 c-1.5-1.4-3.6-1.7-5.5-1.7c-1.9,0.1-4,0.4-5.3,2c-0.9,1-1,2.3-0.7,3.6c0.4,1.1,1.3,1.9,2.3,2.4c2.8,1.5,5.7,1.8,8.9,2.9 c2.3,0.8,4.7,1.9,6,4.2c1,1.5,0.9,3.2,0.7,5c-0.4,1.8-1.7,3.2-3.2,4.2c-2.3,1.5-5.4,1.9-8.1,2c-3.7,0-7.8-0.9-10.6-3.4 c-1.5-1.4-2.3-3.2-2.4-5.3c1.7,0,3.4,0,5.1,0c0.2,0.9,0.2,1.8,0.7,2.6c0.7,1.3,2,2,3.4,2.5c2.2,0.6,4.6,0.7,6.8,0.1 c1.5-0.4,2.8-1.4,3.2-3c0.5-1.7-0.1-3.6-1.7-4.5c-2.3-1.4-5.3-1.9-7.8-2.7c-2.5-0.8-5.2-1.8-7.1-3.8c-1.6-1.7-2-4.3-1.2-6.4 c0.6-1.5,1.9-2.8,3.3-3.6C239.7,211,242.5,210.5,245,210.5L245,210.5z"></path> <path class="st2" d="M352,210.5c3.3,0.1,6.7,0.6,9.3,2.8c2,1.7,2.9,4.2,3.1,6.8c-1.7,0-3.5,0-5.2,0c-0.2-2.3-0.9-4.5-3-5.6 c-2.1-0.9-4.6-1-6.8-0.5c-2.1,0.4-3.9,1.8-4.8,3.8c-0.8,1.7-1,3.6-0.9,5.5c0,1.9,0,3.7,0,5.6c0.1,2.3,0.8,4.6,2.5,6.2 c1.7,1.6,4.3,1.9,6.5,1.7c1.9-0.2,3.7-0.4,5-1.9c1.2-1.4,1.2-2.9,1.7-4.5c1.7,0.1,3.3,0,5,0c-0.2,2.3-0.8,4.4-2.5,6.1 c-2.1,2.3-5,3.1-8,3.4c-3,0.3-6.5,0.1-9.3-1.3c-2.7-1.3-4.9-3.8-5.7-6.8c-0.8-2.8-0.5-5.3-0.5-8.1c-0.1-2.1,0.1-4.1,1-6.1 c0.9-2.1,2.5-3.8,4.4-5C346.2,211,349.2,210.5,352,210.5L352,210.5z"></path> <path class="st2" d="M289.5,210.9c1.6,0,3.3,0,4.9,0c0.1,9.5,0,19,0,28.5c-1.7,0-3.3,0-5,0C289.4,229.9,289.4,220.4,289.5,210.9 L289.5,210.9z"></path> <path class="st2" d="M303.7,210.9c1.7,0,3.4,0,5,0c5.3,7.3,10.5,14.6,15.9,21.9c0-7.3,0-14.6,0-21.9c1.7,0,3.4,0,5,0 c0.2,1.8-0.1,3.6,0,5.4c0.2,2.6-0.2,5.2,0,7.9c-0.1,3.5-0.1,7-0.1,10.5c0,1.6,0.2,3.2,0,4.8c-1.7,0-3.4,0-5,0 c-5.2-7.2-10.5-14.5-15.8-21.7c-0.1,7.2,0,14.4,0,21.7c-1.7,0.1-3.4,0-5,0.1C303.6,229.9,303.7,220.4,303.7,210.9L303.7,210.9z"></path> <g> <path class="st2" d="M182.4,236.2c0-3.3,0-6.6,0-9.9c4.6,0,9.3,0,13.9,0c0-0.9,0.3-2.5-0.1-3.2c-4.6-0.1-9.2,0-13.8,0c0-3,0-6,0-9 c5.3,0,10.7,0,16,0c0.1-1.1,0.1-2.1,0-3.2c-7,0-14.1,0-21.1,0c0,9.5,0,19,0,28.5c7.1,0.1,14.3,0,21.4,0c0-1.1,0-2.1,0-3.2 C193.3,236.2,187.8,236.2,182.4,236.2z"></path> <path class="st2" d="M51,214.1c-2.3-2.4-5.8-3.2-9.1-3.2c-4.4,0-8.9,0-13.3,0c0,9.5,0,19,0,28.5c1.7,0,3.4,0,5,0 c0-3.7,0-7.4,0-11.1c3.5-0.1,7.1,0.2,10.6-0.2c2.5-0.3,4.9-1,6.7-2.8C53.9,222.4,54,217,51,214.1z M46.5,223.5 c-1.4,1.3-3.5,1.6-5.3,1.6c-2.5,0-5.1,0-7.6,0c0-3.7,0-7.4,0-11.1c2.9,0,5.7,0,8.6,0c2.3,0,4.7,1.3,5.5,3.6 C48.5,219.6,48.2,222.1,46.5,223.5z"></path> <path class="st2" d="M65.5,210.9c-3.9,8.7-7.8,17.4-11.7,26.1c-0.4,0.8-0.7,1.6-1,2.4c1.7,0,3.4,0,5.1,0c1-2.2,1.9-4.5,2.8-6.7 c0.2-0.5,0.4-0.9,1-0.8c4.2,0,8.4,0,12.6,0c1.2,2.4,2.1,5,3.2,7.5c1.7,0,3.4,0,5.2,0c-4.2-9.5-8.5-19-12.8-28.5 C68.4,210.9,66.9,210.9,65.5,210.9z M62.3,228.9c1.7-4.2,3.4-8.4,5.2-12.6c0.3,0.2,0.5,0.7,0.6,1c1.6,3.9,3.3,7.7,4.8,11.6 C69.4,228.9,65.9,228.9,62.3,228.9z"></path> <path class="st2" d="M104.9,227.1c1.7-0.8,3.3-1.5,4.5-3.1c2.6-3.2,1.9-8.7-1.5-11c-2.4-1.7-5.7-2.1-8.5-2.1 c-3.8,0-7.6-0.1-11.4,0c0.1,9.5,0,19,0,28.5c1.7,0,3.4,0,5.1,0c0-3.8,0-7.6,0-11.4c2.3-0.2,4.6,0,6.9-0.1 c2.4,3.8,4.7,7.7,7.1,11.5c1.8,0,3.7,0,5.5,0c-0.5-1.2-1.2-2.1-1.9-3.2C108.7,233.2,106.7,230.2,104.9,227.1z M98.7,224.7 c-1.9,0-3.8,0.1-5.7-0.1c0.1-3.5-0.1-7,0.1-10.6c2.5,0,5,0,7.5,0c1.9,0.1,3.9,1,4.8,2.7c0.9,1.9,0.8,4.4-0.8,6 C103,224.4,100.9,224.8,98.7,224.7z"></path> <path class="st2" d="M112.7,210.9c0,1.1-0.1,2.1,0.2,3.2c3.4-0.1,6.8,0,10.2,0c0,8.4,0,16.9,0,25.3c1.7,0.1,3.3,0,5,0 c0-7.1,0-14.1,0-21.2c0-1.4-0.1-2.8,0.1-4.2c2.9,0,5.9,0,8.8,0c0.5,0,1.1,0.1,1.5-0.1c0.1-1,0-2,0.1-3 C130,210.9,121.4,210.9,112.7,210.9z"></path> <path class="st2" d="M169.8,230.7c0.1-1.5-0.1-3,0.1-4.6c-0.2-3.2,0.2-6.3-0.1-9.5c-0.2-1.7,0.2-3.3,0.1-4.9 c0-0.4-0.1-0.7-0.3-0.8c-1.6-0.1-3.2,0-4.8,0c0,7.3,0,14.6,0,21.9c-5.4-7.3-10.6-14.6-15.9-21.9c-1.7,0-3.4,0-5,0c0,9,0,18,0,27.1 c0,0.5,0,1,0.1,1.5c1.7-0.1,3.4,0.1,5-0.1c0-7.2-0.1-14.4,0-21.6c0.9,1,1.6,2.2,2.4,3.3c4.5,6.1,8.9,12.3,13.4,18.4 c1.7,0,3.3,0,5,0C170.3,236.5,169.6,233.5,169.8,230.7z"></path> <path class="st2" d="M227.7,236.2c-1.9-3-3.9-6.1-5.8-9.1c2.3-0.9,4.4-2.1,5.5-4.5c1.4-3.1,0.6-7.4-2.2-9.5 c-2.4-1.8-5.8-2.2-8.7-2.3c-3.7,0-7.5-0.1-11.2,0l-0.2,0c0.1,9.5,0,19,0,28.5c1.7,0,3.4,0,5,0c0-3.8,0-7.6,0-11.5 c2.3-0.1,4.6,0,6.9,0c2.4,3.8,4.7,7.7,7.1,11.5c1.8,0,3.7,0,5.5,0C229.1,238.3,228.3,237.3,227.7,236.2z M219.4,224.3 c-1.5,0.6-3,0.4-4.6,0.5c-1.6,0-3.1,0.1-4.7-0.1c0.1-3.5,0-7.1,0.1-10.6c2.4,0,4.9,0,7.3,0c1.8,0.1,3.7,0.8,4.8,2.4 c0.8,1.2,0.8,2.6,0.7,4C222.6,222.3,221,223.7,219.4,224.3z"></path> </g> <path class="st0" d="M264.2,233.5c0.9,0.7,1.9,1.3,2.7,2.1c-1.6,2.1-3.1,4.2-4.6,6.3c-1-0.6-1.9-1.3-2.8-2 C261.1,237.8,262.6,235.5,264.2,233.5L264.2,233.5z"></path> <path class="st0" d="M366.6,234.9c1.7-1,4.1-0.2,4.7,1.8c0.6,1.9-0.8,4.1-2.8,4.1c-1.5,0.2-2.8-0.8-3.2-2.2 C364.7,237.2,365.4,235.6,366.6,234.9L366.6,234.9z"></path> </g> </svg> 