<svg version="1.1" xmlns="http://www.w3.org/2000/svg" xmlns:xlink="http://www.w3.org/1999/xlink" width="887.0097086806684" height="429.5018460218488"><style xmlns="http://www.w3.org/1999/xhtml"></style><defs/><g transform="translate(0,0)"><path fill="none" stroke="none" stroke-dasharray="undefined"/><g><rect fill="#000000" stroke="none" x="0" y="0" width="887.0097086806684" height="429.5018460218488"/></g><g data-width="400" data-height="50" data-layerId="LsZ1cnA3mei8" transform="translate(0,0) matrix(1,0,0,1,250,210)"><g><g transform="translate(0,0) scale(4,0.5)"><g><path fill="#6aa84f" stroke="#333333" stroke-dasharray="1.7976931348623157e+308" d="M 2.5 0 L 97.5 0 Q 100 0 100 20 L 100 80 Q 100 100 97.5 100 L 2.5 100 Q 0 100 0 80 L 0 20 Q 0 0 2.5 0 Z" stroke-miterlimit="10" stroke-width="2"/><g transform="scale(0.25,2)"/></g></g></g></g><g transform="matrix(1,0,0,1,266,219)"><g><g><rect fill="rgb(0,0,0)" stroke="none" x="0" y="0" width="368" height="32" fill-opacity="0"/></g></g><g><g><rect fill="rgb(0,0,0)" stroke="none" x="0" y="0" width="368" height="16" fill-opacity="0"/></g></g><g><g><rect fill="rgb(0,0,0)" stroke="none" x="99.98999786376953" y="0" width="168" height="16" fill-opacity="0"/></g></g><g><g><rect fill="rgb(0,0,0)" stroke="none" x="99.98999786376953" y="0" width="168" height="16" fill-opacity="0"/></g><text fill="rgb(255, 255, 255)" stroke="none" font-family="Arial" font-size="14px" font-style="normal" font-weight="700" text-decoration="" line-height="16.5px" x="99.98999786376953" y="14" data-layerId="LsZ1cnA3mei8">Render</text><text fill="rgb(255, 255, 255)" stroke="none" font-family="Arial" font-size="14px" font-style="normal" font-weight="700" text-decoration="" line-height="16.5px" x="152.09999084472656" y="14" data-layerId="LsZ1cnA3mei8">Pipeline</text><text fill="rgb(255, 255, 255)" stroke="none" font-family="Arial" font-size="14px" font-style="normal" font-weight="700" text-decoration="" line-height="16.5px" x="209.6599884033203" y="14" data-layerId="LsZ1cnA3mei8">Interface</text></g><g><g><rect fill="rgb(0,0,0)" stroke="none" x="0" y="16" width="368" height="16" fill-opacity="0"/></g></g><g><g><rect fill="rgb(0,0,0)" stroke="none" x="167.6699981689453" y="16" width="33" height="16" fill-opacity="0"/></g></g><g><g><rect fill="rgb(0,0,0)" stroke="none" x="167.6699981689453" y="16" width="33" height="16" fill-opacity="0"/></g><text fill="rgb(255, 255, 255)" stroke="none" font-family="Arial" font-size="14px" font-style="normal" font-weight="700" text-decoration="" line-height="16.5px" x="167.6699981689453" y="30" data-layerId="LsZ1cnA3mei8">(</text><text fill="rgb(255, 255, 255)" stroke="none" font-family="Arial" font-size="14px" font-style="normal" font-weight="700" text-decoration="" line-height="16.5px" x="172.3300018310547" y="30" data-layerId="LsZ1cnA3mei8">RPI</text><text fill="rgb(255, 255, 255)" stroke="none" font-family="Arial" font-size="14px" font-style="normal" font-weight="700" text-decoration="" line-height="16.5px" x="195.6599884033203" y="30" data-layerId="LsZ1cnA3mei8">)</text></g></g><g data-width="520" data-height="50" data-layerId="LsZ1cnA3mei8" transform="translate(0,0) matrix(1,0,0,1,130,270)"><g><g transform="translate(0,0) scale(5.2,0.5)"><g><path fill="#ec9e21" stroke="#333333" data-layerId="LsZ1cnA3mei8" stroke-dasharray="1.7976931348623157e+308" d="M 1.923076923076923 0 L 98.07692307692308 0 Q 100 0 100 20 L 100 80 Q 100 100 98.07692307692308 100 L 1.923076923076923 100 Q 0 100 0 80 L 0 20 Q 0 0 1.923076923076923 0 Z" stroke-miterlimit="10" stroke-width="2"/><g transform="scale(0.1923076923076923,2)"/></g></g></g></g><g transform="matrix(1,0,0,1,148,279)"><g><g><rect fill="rgb(0,0,0)" stroke="none" x="0" y="0" width="483" height="32" fill-opacity="0"/></g></g><g><g><rect fill="rgb(0,0,0)" stroke="none" x="0" y="0" width="483" height="16" fill-opacity="0"/></g></g><g><g><rect fill="rgb(0,0,0)" stroke="none" x="142.02999877929688" y="0" width="199" height="16" fill-opacity="0"/></g><text fill="rgb(255, 255, 255)" stroke="none" font-family="Arial" font-size="14px" font-style="normal" font-weight="700" text-decoration="" line-height="16.5px" x="142.02999877929688" y="14" data-layerId="LsZ1cnA3mei8">Rendering</text><text fill="rgb(255, 255, 255)" stroke="none" font-family="Arial" font-size="14px" font-style="normal" font-weight="700" text-decoration="" line-height="16.5px" x="215.12998962402344" y="14" data-layerId="LsZ1cnA3mei8">Hardware</text><text fill="rgb(255, 255, 255)" stroke="none" font-family="Arial" font-size="14px" font-style="normal" font-weight="700" text-decoration="" line-height="16.5px" x="282.80999755859375" y="14" data-layerId="LsZ1cnA3mei8">Interface</text></g><g><g><rect fill="rgb(0,0,0)" stroke="none" x="0" y="16" width="483" height="16" fill-opacity="0"/></g></g><g><g><rect fill="rgb(0,0,0)" stroke="none" x="224.87998962402344" y="16" width="34" height="16" fill-opacity="0"/></g><text fill="rgb(255, 255, 255)" stroke="none" font-family="Arial" font-size="14px" font-style="normal" font-weight="700" text-decoration="" line-height="16.5px" x="224.87998962402344" y="30" data-layerId="LsZ1cnA3mei8">(</text><text fill="rgb(255, 255, 255)" stroke="none" font-family="Arial" font-size="14px" font-style="normal" font-weight="700" text-decoration="" line-height="16.5px" x="229.5399932861328" y="30" data-layerId="LsZ1cnA3mei8">RHI</text><text fill="rgb(255, 255, 255)" stroke="none" font-family="Arial" font-size="14px" font-style="normal" font-weight="700" text-decoration="" line-height="16.5px" x="253.63999938964844" y="30" data-layerId="LsZ1cnA3mei8">)</text></g></g><g data-width="94.54545454545455" data-height="50" data-layerId="LsZ1cnA3mei8" transform="translate(0,0) matrix(1,0,0,1,130,330)"><g><g transform="translate(0,0) scale(0.9454545454545454,0.5)"><g><path fill="#e06666" stroke="#333333" data-layerId="LsZ1cnA3mei8" stroke-dasharray="1.7976931348623157e+308" d="M 10.576923076923077 0 L 89.42307692307692 0 Q 100 0 100 20 L 100 80 Q 100 100 89.42307692307692 100 L 10.576923076923077 100 Q 0 100 0 80 L 0 20 Q 0 0 10.576923076923077 0 Z" stroke-miterlimit="10" stroke-width="2"/><g transform="scale(1.0576923076923077,2)"/></g></g></g></g><g transform="matrix(1,0,0,1,140,347)"><g><g><rect fill="rgb(0,0,0)" stroke="none" x="0" y="0" width="75" height="16" fill-opacity="0"/></g></g><g><g><rect fill="rgb(0,0,0)" stroke="none" x="0" y="0" width="75" height="16" fill-opacity="0"/></g></g><g><g><rect fill="rgb(0,0,0)" stroke="none" x="19.869998931884766" y="0" width="35" height="16" fill-opacity="0"/></g><text fill="rgb(255, 255, 255)" stroke="none" font-family="Arial" font-size="14px" font-style="normal" font-weight="700" text-decoration="" line-height="16.5px" x="19.869998931884766" y="14" data-layerId="LsZ1cnA3mei8">DX12</text></g></g><g data-width="94.54545454545455" data-height="50" data-layerId="LsZ1cnA3mei8" transform="translate(0,0) matrix(1,0,0,1,342.72727272727275,330)"><g><g transform="translate(0,0) scale(0.9454545454545454,0.5)"><g><path fill="#e06666" stroke="#333333" data-layerId="LsZ1cnA3mei8" stroke-dasharray="1.7976931348623157e+308" d="M 10.576923076923077 0 L 89.42307692307692 0 Q 100 0 100 20 L 100 80 Q 100 100 89.42307692307692 100 L 10.576923076923077 100 Q 0 100 0 80 L 0 20 Q 0 0 10.576923076923077 0 Z" stroke-miterlimit="10" stroke-width="2"/><g transform="scale(1.0576923076923077,2)"/></g></g></g></g><g transform="matrix(1,0,0,1,353,347)"><g><g><rect fill="rgb(0,0,0)" stroke="none" x="0" y="0" width="75" height="16" fill-opacity="0"/></g></g><g><g><rect fill="rgb(0,0,0)" stroke="none" x="0" y="0" width="75" height="16" fill-opacity="0"/></g></g><g><g><rect fill="rgb(0,0,0)" stroke="none" x="14.6899995803833" y="0" width="45" height="16" fill-opacity="0"/></g><text fill="rgb(255, 255, 255)" stroke="none" font-family="Arial" font-size="14px" font-style="normal" font-weight="700" text-decoration="" line-height="16.5px" x="14.6899995803833" y="14" data-layerId="LsZ1cnA3mei8">Vulkan</text></g></g><g data-width="94.54545454545455" data-height="50" data-layerId="LsZ1cnA3mei8" transform="translate(0,0) matrix(1,0,0,1,236.36363636363623,330)"><g><g transform="translate(0,0) scale(0.9454545454545454,0.5)"><g><path fill="#e06666" stroke="#333333" data-layerId="LsZ1cnA3mei8" stroke-dasharray="1.7976931348623157e+308" d="M 10.576923076923077 0 L 89.42307692307692 0 Q 100 0 100 20 L 100 80 Q 100 100 89.42307692307692 100 L 10.576923076923077 100 Q 0 100 0 80 L 0 20 Q 0 0 10.576923076923077 0 Z" stroke-miterlimit="10" stroke-width="2"/><g transform="scale(1.0576923076923077,2)"/></g></g></g></g><g transform="matrix(1,0,0,1,246,347)"><g><g><rect fill="rgb(0,0,0)" stroke="none" x="0" y="0" width="75" height="16" fill-opacity="0"/></g></g><g><g><rect fill="rgb(0,0,0)" stroke="none" x="0" y="0" width="75" height="16" fill-opacity="0"/></g></g><g><g><rect fill="rgb(0,0,0)" stroke="none" x="19.489999771118164" y="0" width="36" height="16" fill-opacity="0"/></g><text fill="rgb(255, 255, 255)" stroke="none" font-family="Arial" font-size="14px" font-style="normal" font-weight="700" text-decoration="" line-height="16.5px" x="19.489999771118164" y="14" data-layerId="LsZ1cnA3mei8">Metal</text></g></g><g data-width="94.54545454545455" data-height="50" data-layerId="LsZ1cnA3mei8" transform="translate(0,0) matrix(1,0,0,1,449.0909090909091,330)"><g><g transform="translate(0,0) scale(0.9454545454545454,0.5)"><g><path fill="#e06666" stroke="#333333" data-layerId="LsZ1cnA3mei8" stroke-dasharray="1.7976931348623157e+308" d="M 10.576923076923077 0 L 89.42307692307692 0 Q 100 0 100 20 L 100 80 Q 100 100 89.42307692307692 100 L 10.576923076923077 100 Q 0 100 0 80 L 0 20 Q 0 0 10.576923076923077 0 Z" stroke-miterlimit="10" stroke-width="2"/><g transform="scale(1.0576923076923077,2)"/></g></g></g></g><g transform="matrix(1,0,0,1,459,347)"><g><g><rect fill="rgb(0,0,0)" stroke="none" x="0" y="0" width="75" height="16" fill-opacity="0"/></g></g><g><g><rect fill="rgb(0,0,0)" stroke="none" x="0" y="0" width="75" height="16" fill-opacity="0"/></g></g><g><g><rect fill="rgb(0,0,0)" stroke="none" x="21.43000030517578" y="0" width="32" height="16" fill-opacity="0"/></g><text fill="rgb(255, 255, 255)" stroke="none" font-family="Arial" font-size="14px" font-style="normal" font-weight="700" text-decoration="" line-height="16.5px" x="21.43000030517578" y="14" data-layerId="LsZ1cnA3mei8">Gnm</text></g></g><g data-width="94.54545454545455" data-height="50" data-layerId="LsZ1cnA3mei8" transform="translate(0,0) matrix(1,0,0,1,555.4545454545455,330)"><g><g transform="translate(0,0) scale(0.9454545454545454,0.5)"><g><path fill="#e06666" stroke="#333333" data-layerId="LsZ1cnA3mei8" stroke-dasharray="1.7976931348623157e+308" d="M 10.576923076923077 0 L 89.42307692307692 0 Q 100 0 100 20 L 100 80 Q 100 100 89.42307692307692 100 L 10.576923076923077 100 Q 0 100 0 80 L 0 20 Q 0 0 10.576923076923077 0 Z" stroke-miterlimit="10" stroke-width="2"/><g transform="scale(1.0576923076923077,2)"/></g></g></g></g><g transform="matrix(1,0,0,1,565,347)"><g><g><rect fill="rgb(0,0,0)" stroke="none" x="0" y="0" width="75" height="16" fill-opacity="0"/></g></g><g><g><rect fill="rgb(0,0,0)" stroke="none" x="0" y="0" width="75" height="16" fill-opacity="0"/></g></g><g><g><rect fill="rgb(0,0,0)" stroke="none" x="31.53999900817871" y="0" width="12" height="16" fill-opacity="0"/></g><text fill="rgb(255, 255, 255)" stroke="none" font-family="Arial" font-size="14px" font-style="normal" font-weight="700" text-decoration="" line-height="16.5px" x="31.53999900817871" y="14" data-layerId="LsZ1cnA3mei8">...</text></g></g><g data-width="119.99999999999999" data-height="40" data-layerId="LsZ1cnA3mei8" transform="translate(0,0) matrix(1,0,0,1,250,120)"><g><g transform="translate(0,0) scale(1.2,0.4)"><g><path fill="#4e8df2" stroke="#333333" data-layerId="LsZ1cnA3mei8" stroke-dasharray="1.7976931348623157e+308" d="M 8.333333333333334 0 L 91.66666666666667 0 Q 100 0 100 25 L 100 75 Q 100 100 91.66666666666667 100 L 8.333333333333334 100 Q 0 100 0 75 L 0 25 Q 0 0 8.333333333333334 0 Z" stroke-miterlimit="10" stroke-width="2"/><g transform="scale(0.8333333333333334,2.5)"/></g></g></g></g><g transform="matrix(1,0,0,1,260,127)"><g><g><rect fill="rgb(0,0,0)" stroke="none" x="0" y="0" width="99" height="27" fill-opacity="0"/></g></g><g><g><rect fill="rgb(0,0,0)" stroke="none" x="0" y="0" width="99" height="13" fill-opacity="0"/></g></g><g><g><rect fill="rgb(0,0,0)" stroke="none" x="20.689998626708984" y="0" width="58" height="13" fill-opacity="0"/></g></g><g><g><rect fill="rgb(0,0,0)" stroke="none" x="20.689998626708984" y="0" width="58" height="13" fill-opacity="0"/></g><text fill="rgb(255, 255, 255)" stroke="none" font-family="Arial" font-size="12px" font-style="normal" font-weight="normal" text-decoration="" line-height="14px" x="20.689998626708984" y="11" data-layerId="LsZ1cnA3mei8">Post</text><text fill="rgb(255, 255, 255)" stroke="none" font-family="Arial" font-size="12px" font-style="normal" font-weight="normal" text-decoration="" line-height="14px" x="48.029998779296875" y="11" data-layerId="LsZ1cnA3mei8">Effect</text></g><g><g><rect fill="rgb(0,0,0)" stroke="none" x="0" y="13.4399995803833" width="99" height="13" fill-opacity="0"/></g></g><g><g><rect fill="rgb(0,0,0)" stroke="none" x="0.23999999463558197" y="13.4399995803833" width="99" height="13" fill-opacity="0"/></g></g><g><g><rect fill="rgb(0,0,0)" stroke="none" x="0.23999999463558197" y="13.4399995803833" width="99" height="13" fill-opacity="0"/></g><text fill="rgb(255, 255, 255)" stroke="none" font-family="Arial" font-size="12px" font-style="normal" font-weight="normal" text-decoration="" line-height="14px" x="0.23999999463558197" y="24.4399995803833" data-layerId="LsZ1cnA3mei8">Feature</text><text fill="rgb(255, 255, 255)" stroke="none" font-family="Arial" font-size="12px" font-style="normal" font-weight="normal" text-decoration="" line-height="14px" x="44.91999816894531" y="24.4399995803833" data-layerId="LsZ1cnA3mei8">Processor</text></g></g><g data-width="119.99999999999999" data-height="40" data-layerId="LsZ1cnA3mei8" transform="translate(0,0) matrix(1,0,0,1,390,120)"><g><g transform="translate(0,0) scale(1.2,0.4)"><g><path fill="#4e8df2" stroke="#333333" data-layerId="LsZ1cnA3mei8" stroke-dasharray="1.7976931348623157e+308" d="M 8.333333333333334 0 L 91.66666666666667 0 Q 100 0 100 25 L 100 75 Q 100 100 91.66666666666667 100 L 8.333333333333334 100 Q 0 100 0 75 L 0 25 Q 0 0 8.333333333333334 0 Z" stroke-miterlimit="10" stroke-width="2"/><g transform="scale(0.8333333333333334,2.5)"/></g></g></g></g><g transform="matrix(1,0,0,1,400,127)"><g><g><rect fill="rgb(0,0,0)" stroke="none" x="0" y="0" width="99" height="27" fill-opacity="0"/></g></g><g><g><rect fill="rgb(0,0,0)" stroke="none" x="0" y="0" width="99" height="13" fill-opacity="0"/></g></g><g><g><rect fill="rgb(0,0,0)" stroke="none" x="22.920000076293945" y="0" width="53" height="13" fill-opacity="0"/></g><text fill="rgb(255, 255, 255)" stroke="none" font-family="Arial" font-size="12px" font-style="normal" font-weight="normal" text-decoration="" line-height="14px" x="22.920000076293945" y="11" data-layerId="LsZ1cnA3mei8">AuxGeom</text></g><g><g><rect fill="rgb(0,0,0)" stroke="none" x="0" y="13.4399995803833" width="99" height="13" fill-opacity="0"/></g></g><g><g><rect fill="rgb(0,0,0)" stroke="none" x="0.23999999463558197" y="13.4399995803833" width="99" height="13" fill-opacity="0"/></g><text fill="rgb(255, 255, 255)" stroke="none" font-family="Arial" font-size="12px" font-style="normal" font-weight="normal" text-decoration="" line-height="14px" x="0.23999999463558197" y="24.4399995803833" data-layerId="LsZ1cnA3mei8">Feature</text><text fill="rgb(255, 255, 255)" stroke="none" font-family="Arial" font-size="12px" font-style="normal" font-weight="normal" text-decoration="" line-height="14px" x="44.91999816894531" y="24.4399995803833" data-layerId="LsZ1cnA3mei8">Processor</text></g></g><g data-width="119.99999999999999" data-height="40" data-layerId="LsZ1cnA3mei8" transform="translate(0,0) matrix(1,0,0,1,320,160)"><g><g transform="translate(0,0) scale(1.2,0.4)"><g><path fill="#4e8df2" stroke="#333333" data-layerId="LsZ1cnA3mei8" stroke-dasharray="1.7976931348623157e+308" d="M 8.333333333333334 0 L 91.66666666666667 0 Q 100 0 100 25 L 100 75 Q 100 100 91.66666666666667 100 L 8.333333333333334 100 Q 0 100 0 75 L 0 25 Q 0 0 8.333333333333334 0 Z" stroke-miterlimit="10" stroke-width="2"/><g transform="scale(0.8333333333333334,2.5)"/></g></g></g></g><g transform="matrix(1,0,0,1,330,167)"><g><g><rect fill="rgb(0,0,0)" stroke="none" x="0" y="0" width="99" height="27" fill-opacity="0"/></g></g><g><g><rect fill="rgb(0,0,0)" stroke="none" x="0" y="0" width="99" height="13" fill-opacity="0"/></g></g><g><g><rect fill="rgb(0,0,0)" stroke="none" x="34.91999816894531" y="0" width="29" height="13" fill-opacity="0"/></g><text fill="rgb(255, 255, 255)" stroke="none" font-family="Arial" font-size="12px" font-style="normal" font-weight="normal" text-decoration="" line-height="14px" x="34.91999816894531" y="11" data-layerId="LsZ1cnA3mei8">Mesh</text></g><g><g><rect fill="rgb(0,0,0)" stroke="none" x="0" y="13.4399995803833" width="99" height="13" fill-opacity="0"/></g></g><g><g><rect fill="rgb(0,0,0)" stroke="none" x="0.23999999463558197" y="13.4399995803833" width="99" height="13" fill-opacity="0"/></g><text fill="rgb(255, 255, 255)" stroke="none" font-family="Arial" font-size="12px" font-style="normal" font-weight="normal" text-decoration="" line-height="14px" x="0.23999999463558197" y="24.4399995803833" data-layerId="LsZ1cnA3mei8">Feature</text><text fill="rgb(255, 255, 255)" stroke="none" font-family="Arial" font-size="12px" font-style="normal" font-weight="normal" text-decoration="" line-height="14px" x="44.91999816894531" y="24.4399995803833" data-layerId="LsZ1cnA3mei8">Processor</text></g></g><g data-width="119.99999999999999" data-height="40" data-layerId="LsZ1cnA3mei8" transform="translate(0,0) matrix(1,0,0,1,460,160)"><g><g transform="translate(0,0) scale(1.2,0.4)"><g><path fill="#4e8df2" stroke="#333333" data-layerId="LsZ1cnA3mei8" stroke-dasharray="1.7976931348623157e+308" d="M 8.333333333333334 0 L 91.66666666666667 0 Q 100 0 100 25 L 100 75 Q 100 100 91.66666666666667 100 L 8.333333333333334 100 Q 0 100 0 75 L 0 25 Q 0 0 8.333333333333334 0 Z" stroke-miterlimit="10" stroke-width="2"/><g transform="scale(0.8333333333333334,2.5)"/></g></g></g></g><g transform="matrix(1,0,0,1,470,167)"><g><g><rect fill="rgb(0,0,0)" stroke="none" x="0" y="0" width="99" height="27" fill-opacity="0"/></g></g><g><g><rect fill="rgb(0,0,0)" stroke="none" x="0" y="0" width="99" height="27" fill-opacity="0"/></g></g><g><g><rect fill="rgb(0,0,0)" stroke="none" x="0.23999999463558197" y="0" width="99" height="27" fill-opacity="0"/></g><text fill="rgb(255, 255, 255)" stroke="none" font-family="Arial" font-size="12px" font-style="normal" font-weight="normal" text-decoration="" line-height="14px" x="7.919999599456787" y="11" data-layerId="LsZ1cnA3mei8">Particle</text><text fill="rgb(255, 255, 255)" stroke="none" font-family="Arial" font-size="12px" font-style="normal" font-weight="normal" text-decoration="" line-height="14px" x="51.2599983215332" y="11" data-layerId="LsZ1cnA3mei8">System</text><text fill="rgb(255, 255, 255)" stroke="none" font-family="Arial" font-size="12px" font-style="normal" font-weight="normal" text-decoration="" line-height="14px" x="0.23999999463558197" y="24.4399995803833" data-layerId="LsZ1cnA3mei8">Feature</text><text fill="rgb(255, 255, 255)" stroke="none" font-family="Arial" font-size="12px" font-style="normal" font-weight="normal" text-decoration="" line-height="14px" x="44.91999816894531" y="24.4399995803833" data-layerId="LsZ1cnA3mei8">Processor</text></g></g><g data-width="119.99999999999999" data-height="40" data-layerId="LsZ1cnA3mei8" transform="translate(0,0) matrix(1,0,0,1,530,120)"><g><g transform="translate(0,0) scale(1.2,0.4)"><g><path fill="#4e8df2" stroke="#333333" data-layerId="LsZ1cnA3mei8" stroke-dasharray="1.7976931348623157e+308" d="M 8.333333333333334 0 L 91.66666666666667 0 Q 100 0 100 25 L 100 75 Q 100 100 91.66666666666667 100 L 8.333333333333334 100 Q 0 100 0 75 L 0 25 Q 0 0 8.333333333333334 0 Z" stroke-miterlimit="10" stroke-width="2"/><g transform="scale(0.8333333333333334,2.5)"/></g></g></g></g><g transform="matrix(1,0,0,1,540,127)"><g><g><rect fill="rgb(0,0,0)" stroke="none" x="0" y="0" width="99" height="27" fill-opacity="0"/></g></g><g><g><rect fill="rgb(0,0,0)" stroke="none" x="0" y="0" width="99" height="13" fill-opacity="0"/></g></g><g><g><rect fill="rgb(0,0,0)" stroke="none" x="44.59000015258789" y="0" width="10" height="13" fill-opacity="0"/></g><text fill="rgb(255, 255, 255)" stroke="none" font-family="Arial" font-size="12px" font-style="normal" font-weight="normal" text-decoration="" line-height="14px" x="44.59000015258789" y="11" data-layerId="LsZ1cnA3mei8">...</text></g><g><g><rect fill="rgb(0,0,0)" stroke="none" x="0" y="13.4399995803833" width="99" height="13" fill-opacity="0"/></g></g><g><g><rect fill="rgb(0,0,0)" stroke="none" x="0.23999999463558197" y="13.4399995803833" width="99" height="13" fill-opacity="0"/></g><text fill="rgb(255, 255, 255)" stroke="none" font-family="Arial" font-size="12px" font-style="normal" font-weight="normal" text-decoration="" line-height="14px" x="0.23999999463558197" y="24.4399995803833" data-layerId="LsZ1cnA3mei8">Feature</text><text fill="rgb(255, 255, 255)" stroke="none" font-family="Arial" font-size="12px" font-style="normal" font-weight="normal" text-decoration="" line-height="14px" x="44.91999816894531" y="24.4399995803833" data-layerId="LsZ1cnA3mei8">Processor</text></g></g><g data-width="130" data-height="40" data-layerId="LsZ1cnA3mei8" transform="translate(0,0) matrix(1,0,0,1,730,140)"><g><g transform="translate(0,0) scale(1.3,0.4)"><g><path fill="#3c78d8" stroke="#333333" data-layerId="LsZ1cnA3mei8" stroke-dasharray="1.7976931348623157e+308" d="M 7.692307692307692 0 L 92.3076923076923 0 Q 100 0 100 25 L 100 75 Q 100 100 92.3076923076923 100 L 7.692307692307692 100 Q 0 100 0 75 L 0 25 Q 0 0 7.692307692307692 0 Z" stroke-miterlimit="10" stroke-width="2"/><g transform="scale(0.7692307692307692,2.5)"/></g></g></g></g><g data-width="130" data-height="40" data-layerId="LsZ1cnA3mei8" transform="translate(0,0) matrix(1,0,0,1,720,130)"><g><g transform="translate(0,0) scale(1.3,0.4)"><g><path fill="#3c78d8" stroke="#333333" data-layerId="LsZ1cnA3mei8" stroke-dasharray="1.7976931348623157e+308" d="M 7.692307692307692 0 L 92.3076923076923 0 Q 100 0 100 25 L 100 75 Q 100 100 92.3076923076923 100 L 7.692307692307692 100 Q 0 100 0 75 L 0 25 Q 0 0 7.692307692307692 0 Z" stroke-miterlimit="10" stroke-width="2"/><g transform="scale(0.7692307692307692,2.5)"/></g></g></g></g><g data-width="130" data-height="40" data-layerId="LsZ1cnA3mei8" transform="translate(0,0) matrix(1,0,0,1,710,120)"><g><g transform="translate(0,0) scale(1.3,0.4)"><g><path fill="#3c78d8" stroke="#333333" data-layerId="LsZ1cnA3mei8" stroke-dasharray="1.7976931348623157e+308" d="M 7.692307692307692 0 L 92.3076923076923 0 Q 100 0 100 25 L 100 75 Q 100 100 92.3076923076923 100 L 7.692307692307692 100 Q 0 100 0 75 L 0 25 Q 0 0 7.692307692307692 0 Z" stroke-miterlimit="10" stroke-width="2"/><g transform="scale(0.7692307692307692,2.5)"/></g></g></g></g><g transform="matrix(1,0,0,1,721,127)"><g><g><rect fill="rgb(0,0,0)" stroke="none" x="0" y="0" width="109" height="27" fill-opacity="0"/></g></g><g><g><rect fill="rgb(0,0,0)" stroke="none" x="0" y="0" width="109" height="13" fill-opacity="0"/></g></g><g><g><rect fill="rgb(0,0,0)" stroke="none" x="25.049999237060547" y="0" width="59" height="13" fill-opacity="0"/></g></g><g><g><rect fill="rgb(0,0,0)" stroke="none" x="25.049999237060547" y="0" width="59" height="13" fill-opacity="0"/></g><text fill="rgb(255, 255, 255)" stroke="none" font-family="Arial" font-size="12px" font-style="normal" font-weight="normal" text-decoration="" line-height="14px" x="25.049999237060547" y="11" data-layerId="LsZ1cnA3mei8">Third</text><text fill="rgb(255, 255, 255)" stroke="none" font-family="Arial" font-size="12px" font-style="normal" font-weight="normal" text-decoration="" line-height="14px" x="55.71999740600586" y="11" data-layerId="LsZ1cnA3mei8">Party</text></g><g><g><rect fill="rgb(0,0,0)" stroke="none" x="0" y="13.4399995803833" width="109" height="13" fill-opacity="0"/></g></g><g><g><rect fill="rgb(0,0,0)" stroke="none" x="2.0399999618530273" y="13.4399995803833" width="105" height="13" fill-opacity="0"/></g></g><g><g><rect fill="rgb(0,0,0)" stroke="none" x="2.0399999618530273" y="13.4399995803833" width="105" height="13" fill-opacity="0"/></g><text fill="rgb(255, 255, 255)" stroke="none" font-family="Arial" font-size="12px" font-style="normal" font-weight="normal" text-decoration="" line-height="14px" x="2.0399999618530273" y="24.4399995803833" data-layerId="LsZ1cnA3mei8">Feature</text><text fill="rgb(255, 255, 255)" stroke="none" font-family="Arial" font-size="12px" font-style="normal" font-weight="normal" text-decoration="" line-height="14px" x="46.71999740600586" y="24.4399995803833" data-layerId="LsZ1cnA3mei8">Processors</text></g></g><g data-width="90" data-height="40" data-layerId="LsZ1cnA3mei8" transform="translate(0,0) matrix(1,0,0,1,450,30)"><g><g transform="translate(0,0) scale(0.9,0.4)"><g><path fill="#2f8a9e" stroke="#333333" data-layerId="LsZ1cnA3mei8" stroke-dasharray="1.7976931348623157e+308" d="M 11.11111111111111 0 L 88.88888888888889 0 Q 100 0 100 25 L 100 75 Q 100 100 88.88888888888889 100 L 11.11111111111111 100 Q 0 100 0 75 L 0 25 Q 0 0 11.11111111111111 0 Z" stroke-miterlimit="10" stroke-width="2"/><g transform="scale(1.1111111111111112,2.5)"/></g></g></g></g><g transform="matrix(1,0,0,1,460,37)"><g><g><rect fill="rgb(0,0,0)" stroke="none" x="0" y="0" width="70" height="27" fill-opacity="0"/></g></g><g><g><rect fill="rgb(0,0,0)" stroke="none" x="0" y="0" width="70" height="27" fill-opacity="0"/></g></g><g><g><rect fill="rgb(0,0,0)" stroke="none" x="4.179999828338623" y="0" width="62" height="27" fill-opacity="0"/></g><text fill="rgb(255, 255, 255)" stroke="none" font-family="Arial" font-size="12px" font-style="normal" font-weight="normal" text-decoration="" line-height="14px" x="6.289999961853027" y="11" data-layerId="LsZ1cnA3mei8">Post</text><text fill="rgb(255, 255, 255)" stroke="none" font-family="Arial" font-size="12px" font-style="normal" font-weight="normal" text-decoration="" line-height="14px" x="33.630001068115234" y="11" data-layerId="LsZ1cnA3mei8">Effect</text><text fill="rgb(255, 255, 255)" stroke="none" font-family="Arial" font-size="12px" font-style="normal" font-weight="normal" text-decoration="" line-height="14px" x="4.179999828338623" y="24.4399995803833" data-layerId="LsZ1cnA3mei8">Component</text></g></g><g data-width="90" data-height="40" data-layerId="LsZ1cnA3mei8" transform="translate(0,0) matrix(1,0,0,1,350,30)"><g><g transform="translate(0,0) scale(0.9,0.4)"><g><path fill="#2f8a9e" stroke="#333333" data-layerId="LsZ1cnA3mei8" stroke-dasharray="1.7976931348623157e+308" d="M 11.11111111111111 0 L 88.88888888888889 0 Q 100 0 100 25 L 100 75 Q 100 100 88.88888888888889 100 L 11.11111111111111 100 Q 0 100 0 75 L 0 25 Q 0 0 11.11111111111111 0 Z" stroke-miterlimit="10" stroke-width="2"/><g transform="scale(1.1111111111111112,2.5)"/></g></g></g></g><g transform="matrix(1,0,0,1,360,37)"><g><g><rect fill="rgb(0,0,0)" stroke="none" x="0" y="0" width="70" height="27" fill-opacity="0"/></g></g><g><g><rect fill="rgb(0,0,0)" stroke="none" x="0" y="0" width="70" height="27" fill-opacity="0"/></g></g><g><g><rect fill="rgb(0,0,0)" stroke="none" x="4.179999828338623" y="0" width="62" height="27" fill-opacity="0"/></g><text fill="rgb(255, 255, 255)" stroke="none" font-family="Arial" font-size="12px" font-style="normal" font-weight="normal" text-decoration="" line-height="14px" x="15.1899995803833" y="11" data-layerId="LsZ1cnA3mei8">Particle</text><text fill="rgb(255, 255, 255)" stroke="none" font-family="Arial" font-size="12px" font-style="normal" font-weight="normal" text-decoration="" line-height="14px" x="4.179999828338623" y="24.4399995803833" data-layerId="LsZ1cnA3mei8">Component</text></g></g><g data-width="90" data-height="40" data-layerId="LsZ1cnA3mei8" transform="translate(0,0) matrix(1,0,0,1,250,30)"><g><g transform="translate(0,0) scale(0.9,0.4)"><g><path fill="#2f8a9e" stroke="#333333" data-layerId="LsZ1cnA3mei8" stroke-dasharray="1.7976931348623157e+308" d="M 11.11111111111111 0 L 88.88888888888889 0 Q 100 0 100 25 L 100 75 Q 100 100 88.88888888888889 100 L 11.11111111111111 100 Q 0 100 0 75 L 0 25 Q 0 0 11.11111111111111 0 Z" stroke-miterlimit="10" stroke-width="2"/><g transform="scale(1.1111111111111112,2.5)"/></g></g></g></g><g transform="matrix(1,0,0,1,260,37)"><g><g><rect fill="rgb(0,0,0)" stroke="none" x="0" y="0" width="70" height="27" fill-opacity="0"/></g></g><g><g><rect fill="rgb(0,0,0)" stroke="none" x="0" y="0" width="70" height="13" fill-opacity="0"/></g></g><g><g><rect fill="rgb(0,0,0)" stroke="none" x="20.520000457763672" y="0" width="29" height="13" fill-opacity="0"/></g></g><g><g><rect fill="rgb(0,0,0)" stroke="none" x="20.520000457763672" y="0" width="29" height="13" fill-opacity="0"/></g><text fill="rgb(255, 255, 255)" stroke="none" font-family="Arial" font-size="12px" font-style="normal" font-weight="normal" text-decoration="" line-height="14px" x="20.520000457763672" y="11" data-layerId="LsZ1cnA3mei8">Mesh</text></g><g><g><rect fill="rgb(0,0,0)" stroke="none" x="0" y="13.4399995803833" width="70" height="13" fill-opacity="0"/></g></g><g><g><rect fill="rgb(0,0,0)" stroke="none" x="4.179999828338623" y="13.4399995803833" width="61" height="13" fill-opacity="0"/></g></g><g><g><rect fill="rgb(0,0,0)" stroke="none" x="4.179999828338623" y="13.4399995803833" width="61" height="13" fill-opacity="0"/></g><text fill="rgb(255, 255, 255)" stroke="none" font-family="Arial" font-size="12px" font-style="normal" font-weight="normal" text-decoration="" line-height="14px" x="4.179999828338623" y="24.4399995803833" data-layerId="LsZ1cnA3mei8">Component</text></g></g><g data-width="90" data-height="40" data-layerId="LsZ1cnA3mei8" transform="translate(0,0) matrix(1,0,0,1,550,30)"><g><g transform="translate(0,0) scale(0.9,0.4)"><g><path fill="#2f8a9e" stroke="#333333" data-layerId="LsZ1cnA3mei8" stroke-dasharray="1.7976931348623157e+308" d="M 11.11111111111111 0 L 88.88888888888889 0 Q 100 0 100 25 L 100 75 Q 100 100 88.88888888888889 100 L 11.11111111111111 100 Q 0 100 0 75 L 0 25 Q 0 0 11.11111111111111 0 Z" stroke-miterlimit="10" stroke-width="2"/><g transform="scale(1.1111111111111112,2.5)"/></g></g></g></g><g transform="matrix(1,0,0,1,560,37)"><g><g><rect fill="rgb(0,0,0)" stroke="none" x="0" y="0" width="70" height="27" fill-opacity="0"/></g></g><g><g><rect fill="rgb(0,0,0)" stroke="none" x="0" y="0" width="70" height="27" fill-opacity="0"/></g></g><g><g><rect fill="rgb(0,0,0)" stroke="none" x="4.179999828338623" y="0" width="62" height="27" fill-opacity="0"/></g><text fill="rgb(255, 255, 255)" stroke="none" font-family="Arial" font-size="12px" font-style="normal" font-weight="normal" text-decoration="" line-height="14px" x="30.189998626708984" y="11" data-layerId="LsZ1cnA3mei8">...</text><text fill="rgb(255, 255, 255)" stroke="none" font-family="Arial" font-size="12px" font-style="normal" font-weight="normal" text-decoration="" line-height="14px" x="4.179999828338623" y="24.4399995803833" data-layerId="LsZ1cnA3mei8">Component</text></g></g><g data-width="150" data-height="75" data-layerId="LsZ1cnA3mei8" transform="translate(0,0) matrix(1,0,0,1,14.500015258788949,110)"><g><g transform="translate(0,0) scale(1.5,0.75)"><g><path fill="#000000" stroke="rgb(0,0,0)" data-layerId="LsZ1cnA3mei8" stroke-dasharray="1.7976931348623157e+308" d="M 0 0 L 100 0 Q 100 0 100 0 L 100 100 Q 100 100 100 100 L 0 100 Q 0 100 0 100 L 0 0 Q 0 0 0 0 Z" stroke-opacity="0" stroke-miterlimit="10" stroke-width="0"/><g transform="scale(0.6666666666666666,1.3333333333333333)"/></g></g></g></g><g transform="matrix(1,0,0,1,26,137)"><g><g><rect fill="rgb(0,0,0)" stroke="none" x="0" y="0" width="128" height="20" fill-opacity="0"/></g></g><g><g><rect fill="rgb(0,0,0)" stroke="none" x="0" y="0" width="128" height="20" fill-opacity="0"/></g></g><g><g><rect fill="rgb(0,0,0)" stroke="none" x="41" y="0" width="46" height="20" fill-opacity="0"/></g></g><g><g><rect fill="rgb(0,0,0)" stroke="none" x="41" y="0" width="46" height="20" fill-opacity="0"/></g><text fill="rgb(255, 255, 255)" stroke="none" font-family="Arial" font-size="18px" font-style="normal" font-weight="700" text-decoration="" line-height="20.5px" x="41" y="16" data-layerId="LsZ1cnA3mei8">Atom</text></g></g><g data-width="150" data-height="75" data-layerId="LsZ1cnA3mei8" transform="translate(0,0) matrix(1,0,0,1,14.500015258788949,10)"><g><g transform="translate(0,0) scale(1.5,0.75)"><g><path fill="#000000" stroke="rgb(0,0,0)" data-layerId="LsZ1cnA3mei8" stroke-dasharray="1.7976931348623157e+308" d="M 0 0 L 100 0 Q 100 0 100 0 L 100 100 Q 100 100 100 100 L 0 100 Q 0 100 0 100 L 0 0 Q 0 0 0 0 Z" stroke-opacity="0" stroke-miterlimit="10" stroke-width="0"/><g transform="scale(0.6666666666666666,1.3333333333333333)"/></g></g></g></g><g transform="matrix(1,0,0,1,26,27)"><g><g><rect fill="rgb(0,0,0)" stroke="none" x="0" y="0" width="128" height="41" fill-opacity="0"/></g></g><g><g><rect fill="rgb(0,0,0)" stroke="none" x="0" y="0" width="128" height="20" fill-opacity="0"/></g></g><g><g><rect fill="rgb(0,0,0)" stroke="none" x="39.48999786376953" y="0" width="49" height="20" fill-opacity="0"/></g></g><g><g><rect fill="rgb(0,0,0)" stroke="none" x="39.48999786376953" y="0" width="49" height="20" fill-opacity="0"/></g><text fill="rgb(255, 255, 255)" stroke="none" font-family="Arial" font-size="18px" font-style="normal" font-weight="700" text-decoration="" line-height="20.5px" x="39.48999786376953" y="16" data-layerId="LsZ1cnA3mei8">O3DE</text></g><g><g><rect fill="rgb(0,0,0)" stroke="none" x="0" y="20.479999542236328" width="128" height="20" fill-opacity="0"/></g></g><g><g><rect fill="rgb(0,0,0)" stroke="none" x="9.010000228881836" y="20.479999542236328" width="110" height="20" fill-opacity="0"/></g></g><g><g><rect fill="rgb(0,0,0)" stroke="none" x="9.010000228881836" y="20.479999542236328" width="110" height="20" fill-opacity="0"/></g><text fill="rgb(255, 255, 255)" stroke="none" font-family="Arial" font-size="18px" font-style="normal" font-weight="700" text-decoration="" line-height="20.5px" x="9.010000228881836" y="36.47999954223633" data-layerId="LsZ1cnA3mei8">Components</text></g></g><g data-layerId="LsZ1cnA3mei8" transform="matrix(1,0,0,1,10,84.49999237060547)"><g transform="translate(0,0)"><path fill="none" stroke="none" stroke-dasharray="undefined"/><g transform="translate(-26.5,-100.99999237060547) translate(16.5,16.5) matrix(1,0,0,1,0,0)"><g><g><path fill="none" stroke="#ffffff" stroke-dasharray="undefined" d="M 26.5 100.99999237060547 L 850.5097086806684 100.99999237060547" stroke-miterlimit="10" stroke-width="5"/></g></g></g></g></g><g data-layerId="LsZ1cnA3mei8" transform="matrix(1,0,0,1,665.5096934218793,101.49999237060547)"><g transform="translate(0,0)"><path fill="none" stroke="none" stroke-dasharray="undefined"/><g transform="translate(142.00001525878906,-117.99999237060547) translate(-807.5097086806684,16.5) matrix(1,0,0,1,0,0)"><g><g><path fill="none" stroke="#ffffff" stroke-dasharray="undefined" d="M 682.0096934218793 393.0018460218488 L 682.0096934218793 117.99999237060547" stroke-miterlimit="10" stroke-width="5"/></g></g></g></g></g><g data-width="110.00000000000001" data-height="50" data-layerId="LsZ1cnA3mei8" transform="translate(0,0) matrix(1,0,0,1,130,210)"><g><g transform="translate(0,0) scale(1.1,0.5)"><g><path fill="#418723" stroke="#333333" data-layerId="LsZ1cnA3mei8" stroke-dasharray="1.7976931348623157e+308" d="M 9.09090909090909 0 L 90.9090909090909 0 Q 100 0 100 20 L 100 80 Q 100 100 90.9090909090909 100 L 9.09090909090909 100 Q 0 100 0 80 L 0 20 Q 0 0 9.09090909090909 0 Z" stroke-miterlimit="10" stroke-width="2"/><g transform="scale(0.9090909090909091,2)"/></g></g></g></g><g transform="matrix(1,0,0,1,140,222)"><g><g><rect fill="rgb(0,0,0)" stroke="none" x="0" y="0" width="90" height="27" fill-opacity="0"/></g></g><g><g><rect fill="rgb(0,0,0)" stroke="none" x="0" y="0" width="90" height="27" fill-opacity="0"/></g></g><g><g><rect fill="rgb(0,0,0)" stroke="none" x="7.789999961853027" y="0" width="74" height="27" fill-opacity="0"/></g></g><g><g><rect fill="rgb(0,0,0)" stroke="none" x="7.789999961853027" y="0" width="74" height="27" fill-opacity="0"/></g><text fill="rgb(255, 255, 255)" stroke="none" font-family="Arial" font-size="12px" font-style="normal" font-weight="700" text-decoration="" line-height="14px" x="7.789999961853027" y="11" data-layerId="LsZ1cnA3mei8">Shader</text><text fill="rgb(255, 255, 255)" stroke="none" font-family="Arial" font-size="12px" font-style="normal" font-weight="700" text-decoration="" line-height="14px" x="51.79999923706055" y="11" data-layerId="LsZ1cnA3mei8">Build</text><text fill="rgb(255, 255, 255)" stroke="none" font-family="Arial" font-size="12px" font-style="normal" font-weight="700" text-decoration="" line-height="14px" x="23.44999885559082" y="24.4399995803833" data-layerId="LsZ1cnA3mei8">System</text></g></g></g></svg>