<?xml version="1.0" encoding="utf-8"?>
<!-- Generator: Adobe Illustrator 24.1.2, SVG Export Plug-In . SVG Version: 6.00 Build 0)  -->
<svg version="1.0" id="Layer_1" xmlns="http://www.w3.org/2000/svg" xmlns:xlink="http://www.w3.org/1999/xlink" x="0px" y="0px"
	 viewBox="0 0 411 118" style="enable-background:new 0 0 411 118;" xml:space="preserve">
<style type="text/css">
	.st0{filter:url(#Adobe_OpacityMaskFilter);}
	.st1{fill-rule:evenodd;clip-rule:evenodd;fill:#FFFFFF;}
	.st2{mask:url(#mask-2_1_);fill-rule:evenodd;clip-rule:evenodd;fill:#1E70EB;}
	.st3{fill-rule:evenodd;clip-rule:evenodd;fill:#1E70EB;}
	.st4{filter:url(#Adobe_OpacityMaskFilter_1_);}
	.st5{mask:url(#mask-4_1_);fill-rule:evenodd;clip-rule:evenodd;fill:#1E70EB;}
	.st6{filter:url(#Adobe_OpacityMaskFilter_2_);}
	.st7{mask:url(#mask-4_2_);fill-rule:evenodd;clip-rule:evenodd;fill:#1E70EB;}
	.st8{filter:url(#Adobe_OpacityMaskFilter_3_);}
	.st9{mask:url(#mask-4_3_);fill-rule:evenodd;clip-rule:evenodd;fill:#1E70EB;}
	.st10{filter:url(#Adobe_OpacityMaskFilter_4_);}
	.st11{mask:url(#mask-4_4_);fill-rule:evenodd;clip-rule:evenodd;fill:#1E70EB;}
	.st12{filter:url(#Adobe_OpacityMaskFilter_5_);}
	.st13{mask:url(#mask-4_5_);fill-rule:evenodd;clip-rule:evenodd;fill:#1E70EB;}
</style>
<g id="Page-1">
	<g id="Group-12">
		<g id="Group-3" transform="translate(147.000000, 5.148000)">
			<g id="Clip-2">
			</g>
			<defs>
				<filter id="Adobe_OpacityMaskFilter" filterUnits="userSpaceOnUse" x="6" y="5.7" width="67.7" height="100.5">
					<feColorMatrix  type="matrix" values="1 0 0 0 0  0 1 0 0 0  0 0 1 0 0  0 0 0 1 0"/>
				</filter>
			</defs>
			<mask maskUnits="userSpaceOnUse" x="6" y="5.7" width="67.7" height="100.5" id="mask-2_1_">
				<g class="st0">
					<polygon id="path-1_1_" class="st1" points="6,5.7 73.7,5.7 73.7,106.1 6,106.1 					"/>
				</g>
			</mask>
			<path id="Fill-1" class="st2" d="M70.8,28.9c0,6.1-1.9,11.3-5.5,15.6c-3.7,4.3-8.9,7.2-15.6,8.8v0.4c7.9,1,13.9,3.4,17.9,7.2
				c4.1,3.8,6.1,8.9,6.1,15.4c0,9.4-3.4,16.7-10.2,22c-6.8,5.2-16.6,7.9-29.2,7.9c-10.6,0-20-1.8-28.2-5.3V83.3
				c3.8,1.9,8,3.5,12.5,4.7s9,1.8,13.5,1.8c6.8,0,11.9-1.2,15.1-3.5c3.3-2.3,4.9-6,4.9-11.2c0-4.6-1.9-7.8-5.6-9.8
				c-3.7-1.9-9.7-2.9-17.9-2.9H21V46.6h7.6c7.6,0,13.1-1,16.6-3c3.5-2,5.2-5.4,5.2-10.2c0-7.4-4.6-11.1-13.9-11.1
				c-3.2,0-6.5,0.5-9.8,1.6s-7,2.9-11.1,5.5L6.1,15.3C15.1,8.9,25.7,5.7,38,5.7c10.1,0,18.1,2.1,24,6.2
				C67.9,15.9,70.8,21.6,70.8,28.9"/>
		</g>
		<path id="Fill-4" class="st3" d="M296,60.6c0-21.6-9.5-32.4-28.6-32.4H256v65.4h9.1C285.7,93.7,296,82.7,296,60.6 M318.1,60.1
			c0,16.5-4.7,29.2-14.1,38c-9.4,8.8-23,13.2-40.8,13.2h-28.5V10.8h31.5c16.4,0,29.1,4.3,38.2,13C313.5,32.5,318.1,44.6,318.1,60.1"
			/>
		<g id="Clip-7">
		</g>
		<defs>
			<filter id="Adobe_OpacityMaskFilter_1_" filterUnits="userSpaceOnUse" x="46.9" y="14.3" width="24.8" height="24.8">
				<feColorMatrix  type="matrix" values="1 0 0 0 0  0 1 0 0 0  0 0 1 0 0  0 0 0 1 0"/>
			</filter>
		</defs>
		<mask maskUnits="userSpaceOnUse" x="46.9" y="14.3" width="24.8" height="24.8" id="mask-4_1_">
			<g class="st4">
				<polygon id="path-3_1_" class="st1" points="20.5,111.3 390.1,111.3 390.1,5.9 20.5,5.9 				"/>
			</g>
		</mask>
		<polygon id="Fill-6" class="st5" points="46.9,39 71.6,39 71.6,14.3 46.9,14.3 		"/>
		<defs>
			<filter id="Adobe_OpacityMaskFilter_2_" filterUnits="userSpaceOnUse" x="26.8" y="5.9" width="9.9" height="9.9">
				<feColorMatrix  type="matrix" values="1 0 0 0 0  0 1 0 0 0  0 0 1 0 0  0 0 0 1 0"/>
			</filter>
		</defs>
		<mask maskUnits="userSpaceOnUse" x="26.8" y="5.9" width="9.9" height="9.9" id="mask-4_2_">
			<g class="st6">
				<polygon id="path-3_2_" class="st1" points="20.5,111.3 390.1,111.3 390.1,5.9 20.5,5.9 				"/>
			</g>
		</mask>
		<polygon id="Fill-8" class="st7" points="26.8,15.8 36.7,15.8 36.7,5.9 26.8,5.9 		"/>
		<defs>
			<filter id="Adobe_OpacityMaskFilter_3_" filterUnits="userSpaceOnUse" x="20.5" y="29.5" width="16.2" height="16.2">
				<feColorMatrix  type="matrix" values="1 0 0 0 0  0 1 0 0 0  0 0 1 0 0  0 0 0 1 0"/>
			</filter>
		</defs>
		<mask maskUnits="userSpaceOnUse" x="20.5" y="29.5" width="16.2" height="16.2" id="mask-4_3_">
			<g class="st8">
				<polygon id="path-3_3_" class="st1" points="20.5,111.3 390.1,111.3 390.1,5.9 20.5,5.9 				"/>
			</g>
		</mask>
		<polygon id="Fill-9" class="st9" points="20.5,45.7 36.7,45.7 36.7,29.5 20.5,29.5 		"/>
		<defs>
			<filter id="Adobe_OpacityMaskFilter_4_" filterUnits="userSpaceOnUse" x="332.2" y="10.8" width="57.9" height="100.5">
				<feColorMatrix  type="matrix" values="1 0 0 0 0  0 1 0 0 0  0 0 1 0 0  0 0 0 1 0"/>
			</filter>
		</defs>
		<mask maskUnits="userSpaceOnUse" x="332.2" y="10.8" width="57.9" height="100.5" id="mask-4_4_">
			<g class="st10">
				<polygon id="path-3_4_" class="st1" points="20.5,111.3 390.1,111.3 390.1,5.9 20.5,5.9 				"/>
			</g>
		</mask>
		<polygon id="Fill-10" class="st11" points="390.1,111.3 332.2,111.3 332.2,10.8 390.1,10.8 390.1,28.3 353.5,28.3 353.5,50.3 
			387.5,50.3 387.5,67.8 353.5,67.8 353.5,93.7 390.1,93.7 		"/>
		<defs>
			<filter id="Adobe_OpacityMaskFilter_5_" filterUnits="userSpaceOnUse" x="45.5" y="10.8" width="100.5" height="100.5">
				<feColorMatrix  type="matrix" values="1 0 0 0 0  0 1 0 0 0  0 0 1 0 0  0 0 0 1 0"/>
			</filter>
		</defs>
		<mask maskUnits="userSpaceOnUse" x="45.5" y="10.8" width="100.5" height="100.5" id="mask-4_5_">
			<g class="st12">
				<polygon id="path-3_5_" class="st1" points="20.5,111.3 390.1,111.3 390.1,5.9 20.5,5.9 				"/>
			</g>
		</mask>
		<path id="Fill-11" class="st13" d="M95.7,10.8c-4.8,0-9.5,0.7-13.9,2v19.6c4.2-2,8.9-3.2,13.9-3.2c17.6,0,31.8,14.2,31.8,31.8
			c0,17.6-14.2,31.8-31.8,31.8S63.9,78.6,63.9,61c0-4.2,0.8-8.2,2.3-11.8H46.9C46,53,45.5,57,45.5,61c0,27.7,22.5,50.2,50.2,50.2
			s50.2-22.5,50.2-50.2S123.5,10.8,95.7,10.8"/>
	</g>
</g>
</svg>
