<?xml version="1.0" encoding="UTF-8"?>
<svg width="406px" height="124px" viewBox="0 0 406 124" version="1.1" xmlns="http://www.w3.org/2000/svg" xmlns:xlink="http://www.w3.org/1999/xlink">
    <title>Branding / Open 3D Engine / Logo / Default</title>
    <g id="Branding-/-Open-3D-Engine-/-Logo-/-Default" stroke="none" stroke-width="1" fill="none" fill-rule="evenodd">
        <g id="Open-3D-Engine-Logo" fill="#1E70EB">
            <polygon id="Fill-12" points="405.8459 121.5125 341.5449 121.5125 341.5449 9.8645 405.8459 9.8645 405.8459 29.2615 365.2189 29.2615 365.2189 53.7755 403.0209 53.7755 403.0209 73.1725 365.2189 73.1725 365.2189 101.9625 405.8459 101.9625"></polygon>
            <path d="M304.7541,65.4515 C304.7541,41.5135 294.1831,29.5445 273.0411,29.5445 L260.4621,29.5445 L260.4621,102.1195 L270.6021,102.1195 C293.3691,102.1195 304.7541,89.8985 304.7541,65.4515 M329.3021,64.8415 C329.3021,83.1895 324.0801,97.2415 313.6361,106.9985 C303.1921,116.7565 288.1091,121.6355 268.3911,121.6355 L236.8291,121.6355 L236.8291,10.1815 L271.8211,10.1815 C290.0151,10.1815 304.1451,14.9845 314.2071,24.5895 C324.2711,34.1955 329.3021,47.6125 329.3021,64.8415" id="Fill-6"></path>
            <path d="M221.3088,35.1102 C221.3088,42.0732 219.1998,47.9932 214.9808,52.8732 C210.7618,57.7522 204.8418,61.1062 197.2188,62.9352 L197.2188,63.3932 C206.2138,64.5122 213.0238,67.2432 217.6498,71.5882 C222.2738,75.9332 224.5858,81.7922 224.5858,89.1602 C224.5858,99.8842 220.6988,108.2322 212.9228,114.2032 C205.1468,120.1752 194.0418,123.1612 179.6078,123.1612 C167.5128,123.1612 156.7878,121.1542 147.4378,117.1382 L147.4378,97.0892 C151.7568,99.2752 156.5098,101.0522 161.6928,102.4242 C166.8768,103.7972 172.0098,104.4832 177.0928,104.4832 C184.8688,104.4832 190.6108,103.1632 194.3218,100.5192 C198.0308,97.8772 199.8868,93.6332 199.8868,87.7882 C199.8868,82.5532 197.7518,78.8442 193.4828,76.6572 C189.2138,74.4732 182.4028,73.3802 173.0528,73.3802 L164.5898,73.3802 L164.5898,55.3122 L173.2048,55.3122 C181.8448,55.3122 188.1588,54.1822 192.1488,51.9202 C196.1388,49.6582 198.1338,45.7832 198.1338,40.2942 C198.1338,31.8582 192.8468,27.6392 182.2768,27.6392 C178.6178,27.6392 174.8938,28.2492 171.1078,29.4682 C167.3218,30.6882 163.1158,32.7982 158.4918,35.7962 L147.5898,19.5582 C157.7538,12.2392 169.8758,8.5802 183.9538,8.5802 C195.4908,8.5802 204.5998,10.9202 211.2838,15.5942 C217.9658,20.2702 221.3088,26.7762 221.3088,35.1102" id="Fill-3"></path>
            <path d="M125.6369,25.7376 C114.7929,14.7256 100.3839,8.6206 85.0629,8.5466 L84.7819,8.5466 C79.3439,8.5466 74.0169,9.3216 68.9139,10.7956 L68.9139,31.9306 C73.7339,29.6636 79.0049,28.4336 84.4509,28.3746 C84.5979,28.3726 84.7439,28.3726 84.8899,28.3726 C94.6719,28.3726 103.9059,32.1576 110.9339,39.0586 C118.1719,46.1646 122.1889,55.6006 122.2469,65.6316 C122.3049,75.6516 118.4039,85.1236 111.2599,92.3026 L111.2599,92.3016 C104.1959,99.4006 94.8299,103.3266 84.8729,103.3586 L84.7669,103.3586 C74.8769,103.3586 65.5089,99.4956 58.3869,92.4816 C51.2749,85.4756 47.3249,76.1056 47.2659,66.0956 C47.2389,61.3156 48.1099,56.6736 49.7839,52.3526 L29.0749,52.3526 C24.5589,71.0226 29.5289,91.5436 44.0169,106.1236 C54.8639,117.0396 69.2529,123.0896 84.5339,123.1606 L84.8049,123.1606 L84.8089,123.1606 C99.9799,123.1606 114.2879,117.2466 125.0949,106.5086 C135.9249,95.7476 141.9449,81.4286 142.0459,66.1876 C142.1459,50.9506 136.3189,36.5856 125.6369,25.7376" id="Fill-1"></path>
            <polygon id="Fill-8" points="29.214 38.334 56.761 38.334 56.761 10.787 29.214 10.787"></polygon>
            <polygon id="Fill-10" points="6.616 11.388 18.005 11.388 18.005 -0.001 6.616 -0.001"></polygon>
            <polygon id="Fill-11" points="0 45.608 17.867 45.608 17.867 27.74 0 27.74"></polygon>
        </g>
    </g>
</svg>