<?xml version="1.0" encoding="utf-8"?>
<!-- Generator: Adobe Illustrator 25.2.3, SVG Export Plug-In . SVG Version: 6.00 Build 0)  -->
<svg version="1.1" id="Layer_1" xmlns="http://www.w3.org/2000/svg" xmlns:xlink="http://www.w3.org/1999/xlink" x="0px" y="0px"
	 viewBox="0 0 395 395" style="enable-background:new 0 0 395 395;" xml:space="preserve">
<style type="text/css">
	.st0{fill-rule:evenodd;clip-rule:evenodd;fill:#FFFFFF;}
</style>
<g id="Group-11">
	<g id="Clip-2">
	</g>
	<g id="Clip-9">
	</g>
</g>
<path class="st0" d="M284.6,0.3H110C49.5,0.3,0,49.8,0,110.3V285c0,60.5,49.5,110,110,110h174.6c60.5,0,110-49.5,110-110V110.3
	C394.6,49.8,345.1,0.3,284.6,0.3z M156,84.2l12.6,60l-59.9,12.6l-12.6-60L156,84.2z M68,148.6l-38.9-10l10-38.8l38.8,9.9L68,148.6z
	 M84.7,90.7H60.2V66.2h24.5V90.7z M220.4,327c-68.6,0-124.3-55.6-124.3-124.3c0-10.1,1.2-19.9,3.5-29.3h47.6
	c-3.6,9.1-5.6,18.9-5.6,29.3c0,43.5,35.3,78.8,78.8,78.8s78.8-35.3,78.8-78.8s-35.3-78.8-78.8-78.8c-12.4,0-24,2.9-34.4,7.9V83.2
	c11-3.1,22.5-4.8,34.4-4.8c68.7,0,124.3,55.7,124.3,124.3S289,327,220.4,327z"/>
</svg>
