<svg width="289" height="99" viewBox="0 0 289 99" fill="none" xmlns="http://www.w3.org/2000/svg">
<path d="M158.219 16.8193H185.889C207.874 16.8193 223.158 30.7972 223.158 51.9469C223.158 73.0966 207.901 86.9618 185.889 86.9618H158.219V16.8193ZM185.804 74.3341C200.02 74.3341 208.295 64.1249 208.295 51.9751C208.295 39.2908 200.555 29.5035 185.804 29.5035H172.772V74.3341H185.804Z" fill="white"/>
<path d="M233.067 17.8037H287.535V30.291H247.62V45.1408H287.507V57.6562H247.62V73.5466H287.507V86.1466H233.067V17.8037Z" fill="white"/>
<path d="M143.609 54.9563C140.935 52.5938 137.107 50.9907 132.209 50.1751C136.262 48.9657 139.499 47.0532 141.892 44.4658C144.735 41.4283 146.142 37.6596 146.142 33.3284C146.142 28.0973 143.863 23.963 139.359 21.038C134.94 18.1693 128.859 16.7068 121.287 16.7068C113.574 16.7068 106.678 18.3099 100.739 21.4317C103.075 25.1723 104.961 29.1941 106.396 33.4409C108.817 32.0628 111.069 31.0503 113.124 30.4597C115.517 29.7285 117.909 29.391 120.217 29.391C126.748 29.391 129.929 31.6972 129.929 36.4502C129.929 39.5721 128.747 41.6814 126.354 42.9752C123.849 44.297 119.823 44.972 114.334 44.972H109.015C109.296 47.2501 109.436 49.5845 109.436 51.9469C109.436 53.6625 109.352 55.3781 109.211 57.0375H114.222C120.189 57.0375 124.552 57.6843 127.227 58.9499C129.817 60.1874 131.055 62.2124 131.055 65.1655C131.055 68.5123 129.957 70.8748 127.705 72.3654C125.397 73.8841 121.737 74.6716 116.839 74.6716C113.602 74.6716 110.281 74.2497 106.988 73.4341C106.481 73.2935 105.974 73.181 105.468 73.0404C103.919 77.0063 101.921 80.775 99.5841 84.2618C105.186 86.1743 111.519 87.1305 118.5 87.1305C127.959 87.1305 135.362 85.2743 140.485 81.6188C145.664 77.9063 148.31 72.6467 148.31 66.0092C148.31 61.4249 146.734 57.6843 143.609 54.9563Z" fill="white"/>
<path d="M98.3351 52.111C98.3351 50.5076 98.2502 48.8481 98.0813 47.2167C97.4058 40.6348 95.379 34.3904 92.0574 28.6805C88.7913 23.0268 84.2589 18.02 78.9946 14.1947C73.6175 10.2849 67.6211 7.61273 61.1742 6.26261C54.7837 4.91246 48.0553 4.91246 41.6648 6.26261C35.1898 7.64085 29.1934 10.313 23.8445 14.1947C18.58 18.02 14.0475 23.0549 10.7818 28.6805C7.45989 34.4186 5.43292 40.6348 4.75727 47.2167C4.58836 48.8762 4.50391 50.5076 4.50391 52.111C4.50391 57.0614 5.26401 61.9276 6.78423 66.5968C8.83936 72.8693 12.105 78.5512 16.553 83.4735C21.0011 88.3957 26.2937 92.2492 32.3464 94.9492C38.371 97.65 44.7897 99 51.4336 99C58.0774 99 64.4962 97.65 70.5207 94.9492C76.5452 92.2492 81.8658 88.3957 86.3142 83.4735C90.7618 78.5512 94.0278 72.8693 96.0831 66.5968C97.5747 61.9276 98.3351 57.0614 98.3351 52.111ZM96.5613 46.1479L85.2445 41.113L91.4381 30.3963C94.1119 35.2905 95.8294 40.6067 96.5613 46.1479ZM74.2931 52.111C74.2931 64.7403 64.0457 75.0068 51.3772 75.0068C38.7088 75.0068 28.4614 64.7684 28.4614 52.111C28.4614 39.4535 38.7088 29.2149 51.3772 29.2149C64.0457 29.2149 74.2931 39.4535 74.2931 52.111ZM16.0463 52.111C16.0463 52.8141 16.0744 53.5173 16.1026 54.2205L6.72793 47.4136L17.285 42.7163C16.4967 45.6978 16.0463 48.8481 16.0463 52.111ZM20.0158 68.3688L8.69861 65.9779L16.4404 57.3709C17.0316 61.2806 18.2421 64.9935 20.0158 68.3688ZM86.3142 57.3709L94.0556 65.9779L82.7388 68.3688C84.5126 64.9935 85.7512 61.2806 86.3142 57.3709ZM85.4412 42.7163L95.9983 47.4136L86.6234 54.2205C86.652 53.5173 86.6797 52.8141 86.6797 52.111C86.7083 48.8481 86.2856 45.6978 85.4412 42.7163ZM84.4563 39.6785C83.0766 36.0218 81.1062 32.6465 78.6568 29.665H84.2311H90.2551L84.4563 39.6785ZM78.4316 22.6892L79.135 15.9948C83.527 19.3702 87.3275 23.5893 90.2273 28.3148H77.8401L78.4316 22.6892ZM77.1082 21.9298L76.5452 27.3303C73.8427 24.5738 70.6615 22.2674 67.1707 20.5234L71.7313 18.4982L77.756 15.8261L77.1082 21.9298ZM77.193 14.5603L71.309 17.1762L65.8756 19.5952L65.7067 19.1171L62.0188 7.8096C67.4803 9.13163 72.5759 11.3819 77.193 14.5603ZM64.2991 19.2296C60.7801 17.8513 56.9514 17.0075 52.982 16.8386L60.7238 8.23155L64.2991 19.2296ZM59.6822 7.33146L51.3772 16.5293L43.0723 7.33146C48.5339 6.31886 54.2206 6.31886 59.6822 7.33146ZM42.0589 8.23155L49.8007 16.8386C45.8313 17.0075 42.0026 17.8513 38.4835 19.2296L42.0589 8.23155ZM40.7357 7.8096L37.0196 19.2858L36.907 19.6233L36.7944 19.5671L25.5899 14.5884C30.2068 11.3819 35.2742 9.13163 40.7357 7.8096ZM31.5581 18.7514L35.5839 20.5234C32.093 22.2674 28.94 24.5738 26.2092 27.3303L25.7869 23.2237L24.9987 15.7979L31.5581 18.7514ZM23.6192 15.9948L24.9142 28.3148H12.5273C15.427 23.5893 19.2275 19.3702 23.6192 15.9948ZM24.0978 29.6931C21.6486 32.6747 19.6779 36.05 18.2984 39.7066L12.5273 29.6931H24.0978ZM11.3167 30.3963L17.5102 41.113L6.19304 46.1479C6.92499 40.6067 8.64231 35.2905 11.3167 30.3963ZM5.7989 52.111C5.7989 50.9296 5.85521 49.7482 5.93967 48.5387L6.50271 48.9606L15.9618 55.8238L7.68508 65.0216C6.44641 60.8587 5.7989 56.4989 5.7989 52.111ZM8.41704 67.3281L20.5506 69.8877L16.7219 81.6735C13.0621 77.3978 10.2751 72.588 8.41704 67.3281ZM18.0169 82.1235L21.5923 71.1254C23.6756 74.3882 26.3218 77.3138 29.3341 79.704L18.0169 82.1235ZM18.3266 83.445L30.4602 80.8575L31.7552 93.1777C26.6878 90.7867 22.1835 87.5235 18.3266 83.445ZM31.9241 81.561C35.1335 83.67 38.6807 85.2735 42.4812 86.2583L33.1346 93.0652L31.9241 81.561ZM33.9511 94.1902L43.9733 86.9048L44.9867 88.677L50.1667 97.65C44.5644 97.4812 39.1029 96.3277 33.9511 94.1902ZM45.6061 86.9333C47.4922 87.2423 49.4348 87.411 51.4054 87.411C53.3761 87.411 55.3186 87.2423 57.2047 86.9333L51.3772 96.9465L45.6061 86.9333ZM52.5878 97.6215L53.6012 95.85L58.7813 86.877L68.8035 94.1618C63.6516 96.3278 58.1901 97.4813 52.5878 97.6215ZM69.648 93.0652L60.3015 86.2583C64.102 85.2735 67.6773 83.67 70.8585 81.561L69.648 93.0652ZM70.9993 93.2055L72.2943 80.886L84.4278 83.4735C80.571 87.5235 76.0671 90.7868 70.9993 93.2055ZM73.4204 79.704C76.4611 77.2853 79.0787 74.3882 81.1625 71.1254L84.7378 82.1235L73.4204 79.704ZM86.0327 81.6735L82.2036 69.8877L94.3371 67.3281C92.4793 72.588 89.6921 77.3978 86.0327 81.6735ZM95.0975 65.0216L86.7923 55.8238L96.815 48.5387C96.8991 49.7482 96.9554 50.9296 96.9554 52.111C96.9554 56.4989 96.3361 60.8587 95.0975 65.0216Z" fill="white"/>
</svg>
