<svg fill="none" height="212" viewBox="0 0 211 212" width="211" xmlns="http://www.w3.org/2000/svg"><path d="m211 105.468c0-3.608-.19-7.3431-.569-11.015-1.52-14.8136-6.078-28.8676-13.548-41.7188-7.343-12.7246-17.536-23.9931-29.374-32.6028-12.092-8.7995-25.576-14.81367-40.073-17.85237-14.371-3.038707-29.5012-3.038707-43.8715 0-14.5606 3.102-28.0449 9.11617-40.0731 17.85237-11.8382 8.6097-22.0306 19.9415-29.3741 32.6028-7.47016 12.9145-12.02819 26.9052-13.547495 41.7188-.379906 3.7352-.569805 7.407-.569805 11.015 0 11.142 1.70931 22.095 5.12783 32.603 4.62133 14.117 11.96487 26.906 21.96737 37.984 10.0023 11.079 21.9039 19.752 35.5148 25.829 13.5475 6.077 27.9811 9.116 42.922 9.116 14.939 0 29.373-3.039 42.922-9.116 13.547-6.077 25.512-14.75 35.515-25.829 10.001-11.078 17.345-23.867 21.967-37.984 3.355-10.508 5.064-21.461 5.064-32.603zm-3.988-13.4206-25.449-11.3318 13.927-24.1198c6.014 11.0154 9.876 22.9803 11.522 35.4516zm-50.076 13.4206c0 28.425-23.043 51.532-51.531 51.532-28.4875 0-51.5313-23.044-51.5313-51.532 0-28.4875 23.0438-51.531 51.5313-51.531 28.488 0 51.531 23.0435 51.531 51.531zm-130.9805 0c0 1.583.0635 3.165.1268 4.748l-21.08107-15.3199 23.73987-10.572c-1.7726 6.7104-2.7856 13.8008-2.7856 21.1439zm8.9263 36.591-25.44915-5.381 17.40925-19.372c1.3295 8.8 4.0516 17.156 8.0399 24.753zm149.0872-24.753 17.409 19.372-25.45 5.381c3.988-7.597 6.774-15.953 8.041-24.753zm-1.963-32.9819 23.739 10.572-21.081 15.3199c.064-1.583.127-3.165.127-4.748.063-7.3431-.886-14.4335-2.785-21.1439zm-2.216-6.8372c-3.102-8.2298-7.533-15.8266-13.041-22.537h12.534 13.548zm-13.547-38.237 1.583-15.0669c9.875 7.5968 18.421 17.0927 24.942 27.7282h-27.855zm-2.976-1.7093-1.266 12.1549c-6.077-6.2041-13.231-11.3952-21.082-15.3202l10.257-4.558 13.547-6.0142zm.19-16.5862-13.231 5.8875-12.218 5.4443-.38-1.0762-8.293-25.44917c12.281 2.97542 23.74 8.03997 34.122 15.19357zm-28.995 10.5089c-7.913-3.102-16.523-5.0013-25.448-5.3811l17.409-19.37177zm-10.381-26.77868-18.676 20.70118-18.6755-20.70118c12.2815-2.27898 25.0695-2.27898 37.3515 0zm-39.6301 2.02581 17.4091 19.37177c-8.9267.3798-17.5363 2.2791-25.4494 5.3811zm-2.9752-.9496-8.3569 25.82907-.2532.7597-.2533-.1267-25.1958-11.2052c10.3821-7.2169 21.7773-12.28145 34.0592-15.25687zm-20.6384 24.62627 9.0529 3.9882c-7.8501 3.925-14.9403 9.1161-21.081 15.3202l-.9496-9.2428-1.7726-16.7129zm-17.8523-6.2041 2.9121 27.7282h-27.8548c6.5205-10.6355 15.0669-20.1314 24.9427-27.7282zm1.0763 30.8302c-5.5078 6.7104-9.9392 14.3072-13.0412 22.537l-12.9778-22.537zm-28.7412 1.5826 13.9275 24.1198-25.44918 11.3318c1.64591-12.4713 5.50763-24.4362 11.52168-35.4516zm-12.40798 48.8722c0-2.658.1266-5.317.3165-8.0395l1.26611.9496 21.27087 15.4459-18.61196 20.702c-2.78552-9.369-4.24152-19.182-4.24152-29.058zm5.88743 34.249 27.28505 5.761-8.6096 26.525c-8.2299-9.622-14.4972-20.448-18.67545-32.286zm21.58755 33.299 8.0398-24.753c4.6847 7.344 10.6355 13.928 17.4093 19.309zm.6963 2.976 27.285-5.824 2.9122 27.728c-11.3952-5.381-21.5242-12.725-30.1972-21.904zm30.577-4.242c7.2169 4.748 15.1934 8.356 23.7395 10.572l-21.0173 15.32zm4.5581 28.424 22.5372-16.396 2.2786 3.989 11.6487 20.194c-12.5977-.379-24.8791-2.975-36.4645-7.787zm26.209-16.333c4.2412.697 8.6095 1.077 13.0405 1.077 4.432 0 8.8-.38 13.042-1.077l-13.105 22.537zm15.6995 24.057 2.279-3.988 11.648-20.195 22.537 16.397c-11.585 4.874-23.866 7.47-36.464 7.786zm38.364-10.256-21.018-15.32c8.547-2.216 16.586-5.824 23.74-10.572zm3.039.317 2.912-27.729 27.284 5.825c-8.672 9.116-18.801 16.46-30.196 21.904zm5.444-30.387c6.837-5.444 12.724-11.965 17.409-19.309l8.04 24.753zm28.362 4.431-8.611-26.525 27.286-5.761c-4.179 11.838-10.446 22.664-18.675 32.286zm20.384-37.477-18.675-20.702 22.537-16.3955c.189 2.7225.316 5.3815.316 8.0395 0 9.876-1.393 19.689-4.178 29.058z" fill="#000"/></svg>