<svg width="211" height="212" viewBox="0 0 211 212" fill="none" xmlns="http://www.w3.org/2000/svg">
<path d="M211 105.468C211 101.86 210.81 98.1249 210.431 94.453C208.911 79.6394 204.353 65.5854 196.883 52.7342C189.54 40.0096 179.347 28.7411 167.509 20.1314C155.417 11.3319 141.933 5.31773 127.436 2.27903C113.065 -0.759677 97.9348 -0.759677 83.5645 2.27903C69.0039 5.38103 55.5196 11.3952 43.4914 20.1314C31.6532 28.7411 21.4608 40.0729 14.1173 52.7342C6.64714 65.6487 2.08911 79.6394 0.569805 94.453C0.189899 98.1882 0 101.86 0 105.468C0 116.61 1.70931 127.563 5.12783 138.071C9.74916 152.188 17.0927 164.977 27.0952 176.055C37.0975 187.134 48.9991 195.807 62.61 201.884C76.1575 207.961 90.5911 211 105.532 211C120.471 211 134.905 207.961 148.454 201.884C162.001 195.807 173.966 187.134 183.969 176.055C193.97 164.977 201.314 152.188 205.936 138.071C209.291 127.563 211 116.61 211 105.468ZM207.012 92.0474L181.563 80.7156L195.49 56.5958C201.504 67.6112 205.366 79.5761 207.012 92.0474ZM156.936 105.468C156.936 133.893 133.893 157 105.405 157C76.9175 157 53.8737 133.956 53.8737 105.468C53.8737 76.9805 76.9175 53.937 105.405 53.937C133.893 53.937 156.936 76.9805 156.936 105.468ZM25.9555 105.468C25.9555 107.051 26.019 108.633 26.0823 110.216L5.00123 94.8961L28.7411 84.3241C26.9685 91.0345 25.9555 98.1249 25.9555 105.468ZM34.8818 142.059L9.43265 136.678L26.8419 117.306C28.1714 126.106 30.8935 134.462 34.8818 142.059ZM183.969 117.306L201.378 136.678L175.928 142.059C179.916 134.462 182.702 126.106 183.969 117.306ZM182.006 84.3241L205.745 94.8961L184.664 110.216C184.728 108.633 184.791 107.051 184.791 105.468C184.854 98.1249 183.905 91.0345 182.006 84.3241ZM179.79 77.4869C176.688 69.2571 172.257 61.6603 166.749 54.9499H179.283H192.831L179.79 77.4869ZM166.243 39.2499L167.826 24.183C177.701 31.7798 186.247 41.2757 192.768 51.9112H164.913L166.243 39.2499ZM163.267 37.5406L162.001 49.6955C155.924 43.4914 148.77 38.3003 140.919 34.3753L151.176 29.8173L164.723 23.8031L163.267 37.5406ZM163.457 20.9544L150.226 26.8419L138.008 32.2862L137.628 31.21L129.335 5.76083C141.616 8.73625 153.075 13.8008 163.457 20.9544ZM134.462 31.4633C126.549 28.3613 117.939 26.462 109.014 26.0822L126.423 6.71043L134.462 31.4633ZM124.081 4.68462L105.405 25.3858L86.7295 4.68462C99.011 2.40564 111.799 2.40564 124.081 4.68462ZM84.4509 6.71043L101.86 26.0822C92.9333 26.462 84.3237 28.3613 76.4106 31.4633L84.4509 6.71043ZM81.4757 5.76083L73.1188 31.5899L72.8656 32.3496L72.6123 32.2229L47.4165 21.0177C57.7986 13.8008 69.1938 8.73625 81.4757 5.76083ZM60.8373 30.3871L69.8902 34.3753C62.0401 38.3003 54.9499 43.4914 48.8092 49.6955L47.8596 40.4527L46.087 23.7398L60.8373 30.3871ZM42.985 24.183L45.8971 51.9112H18.0423C24.5628 41.2757 33.1092 31.7798 42.985 24.183ZM44.0613 55.0132C38.5535 61.7236 34.1221 69.3204 31.0201 77.5502L18.0423 55.0132H44.0613ZM15.3201 56.5958L29.2476 80.7156L3.79842 92.0474C5.44433 79.5761 9.30605 67.6112 15.3201 56.5958ZM2.91212 105.468C2.91212 102.81 3.03872 100.151 3.22862 97.4285L4.49473 98.3781L25.7656 113.824L7.15364 134.526C4.36812 125.157 2.91212 115.344 2.91212 105.468ZM8.79955 139.717L36.0846 145.478L27.475 172.003C19.2451 162.381 12.9778 151.555 8.79955 139.717ZM30.3871 173.016L38.4269 148.263C43.1116 155.607 49.0624 162.191 55.8362 167.572L30.3871 173.016ZM31.0834 175.992L58.3684 170.168L61.2806 197.896C49.8854 192.515 39.7564 185.171 31.0834 175.992ZM61.6604 171.75C68.8773 176.498 76.8538 180.106 85.3999 182.322L64.3826 197.642L61.6604 171.75ZM66.2185 200.174L88.7557 183.778L91.0343 187.767L102.683 207.961C90.0853 207.582 77.8039 204.986 66.2185 200.174ZM92.4275 183.841C96.6687 184.538 101.037 184.918 105.468 184.918C109.9 184.918 114.268 184.538 118.51 183.841L105.405 206.378L92.4275 183.841ZM108.127 207.898L110.406 203.91L122.054 183.715L144.591 200.112C133.006 204.986 120.725 207.582 108.127 207.898ZM146.491 197.642L125.473 182.322C134.02 180.106 142.059 176.498 149.213 171.75L146.491 197.642ZM149.53 197.959L152.442 170.23L179.726 176.055C171.054 185.171 160.925 192.515 149.53 197.959ZM154.974 167.572C161.811 162.128 167.698 155.607 172.383 148.263L180.423 173.016L154.974 167.572ZM183.336 172.003L174.725 145.478L202.011 139.717C197.832 151.555 191.565 162.381 183.336 172.003ZM203.72 134.526L185.045 113.824L207.582 97.4285C207.771 100.151 207.898 102.81 207.898 105.468C207.898 115.344 206.505 125.157 203.72 134.526Z" fill="black"/>
</svg>
