<svg xmlns="http://www.w3.org/2000/svg" role="img" viewBox="-7.99 70.25 415.74 104.24"><title>O3DECon_WebGraphics_Logo-White.svg</title><style>svg {enable-background:new 0 0 400 245}</style><style>.st6{fill-rule:evenodd;clip-rule:evenodd;fill:#fff}</style><g><path d="M372.7,81.3H233.2v61.1h139.5V81.3z M264,125.5c2.9,0,6.4-0.7,10.6-2.2v7.4c-3.4,1.4-7.2,2.1-11.4,2.1 c-6,0-10.7-1.8-13.9-5.5c-3.2-3.7-4.8-8.9-4.8-15.8c0-4.3,0.8-8.1,2.4-11.3c1.6-3.2,3.8-5.7,6.8-7.5c2.9-1.7,6.4-2.6,10.3-2.6 c4,0,8.1,1,12.2,2.9l-2.8,7.2c-1.6-0.7-3.1-1.4-4.7-1.9c-1.6-0.5-3.1-0.8-4.6-0.8c-3.3,0-5.9,1.2-7.7,3.7c-1.8,2.5-2.7,6-2.7,10.4 C253.6,120.8,257,125.5,264,125.5z M313.6,127.2c-3.4,3.7-8.3,5.5-14.7,5.5s-11.2-1.8-14.7-5.5c-3.4-3.7-5.1-9-5.1-15.9 c0-6.9,1.7-12.2,5.1-15.8c3.4-3.6,8.3-5.5,14.7-5.5c6.4,0,11.3,1.8,14.6,5.5c3.4,3.7,5.1,9,5.1,15.8 C318.8,118.3,317.1,123.6,313.6,127.2z M361.9,132.2h-11.2l-18.1-31.4h-0.3c0.4,5.5,0.5,9.5,0.5,11.9v19.5H325V90.7h11.1l18,31.1 h0.2c-0.3-5.4-0.4-9.2-0.4-11.4V90.7h7.9V132.2z" class="st6"/><path d="M299.1,97.4c-3.5,0-6.1,1.2-7.9,3.5c-1.8,2.4-2.7,5.9-2.7,10.5c0,4.6,0.9,8.1,2.6,10.5 c1.8,2.3,4.4,3.5,7.9,3.5c7,0,10.5-4.7,10.5-14C309.5,102.1,306,97.4,299.1,97.4z" class="st6"/><path d="M378.9 128.9H394V144H378.9z" class="st6" transform="matrix(.08283 -.9966 .9966 .08283 218.429 510.188)"/><path d="M378.9 149.4H385.09999999999997V155.6H378.9z" class="st6" transform="rotate(-53.33 381.945 152.475)"/><path d="M362.9 149.4H372.7V159.20000000000002H362.9z" class="st6" transform="rotate(-9.599 367.842 154.337)"/><path d="M389 155.6H398.8V165.4H389z" class="st6" transform="rotate(-16.458 393.874 160.469)"/><path d="M108.2 110.6v-.2c4.1-1 7.2-2.8 9.5-5.4 2.2-2.6 3.4-5.7 3.4-9.5 0-4.4-1.8-7.9-5.3-10.4-3.6-2.5-8.4-3.7-14.5-3.7-7.5 0-13.9 1.9-19.4 5.8l5.8 8.6c2.5-1.6 4.7-2.7 6.7-3.4 2-.6 4-1 5.9-1 5.6 0 8.4 2.2 8.4 6.7 0 2.9-1.1 5-3.2 6.2-2.1 1.2-5.5 1.8-10.1 1.8h-4.6v9.6h4.5c5 0 8.6.6 10.9 1.7 2.3 1.2 3.4 3.1 3.4 5.9 0 3.1-1 5.4-3 6.8-2 1.4-5 2.1-9.2 2.1-2.7 0-5.4-.4-8.2-1.1-2.8-.7-5.3-1.7-7.6-2.8v10.7c5 2.1 10.7 3.2 17.1 3.2 7.7 0 13.6-1.6 17.7-4.8 4.1-3.2 6.2-7.6 6.2-13.3 0-3.9-1.2-7-3.7-9.4C116.6 112.7 113 111.2 108.2 110.6zM150.4 81.5h-19.1v61h17.3c10.8 0 19-2.7 24.8-8 5.7-5.3 8.6-13 8.6-23.1 0-9.4-2.8-16.8-8.3-22C168.1 84.1 160.4 81.5 150.4 81.5zM149.7 131.8h-5.5V92h6.9c11.6 0 17.3 6.5 17.3 19.6C168.4 125.1 162.2 131.8 149.7 131.8zM190.4 142.4L225.5 142.4 225.5 131.8 203.3 131.8 203.3 116 224 116 224 105.4 203.3 105.4 203.3 92 225.5 92 225.5 81.5 190.4 81.5zM46.9 81.5c-2.9 0-5.7.4-8.4 1.2v11.9c2.5-1.2 5.4-1.9 8.4-1.9 10.7 0 19.3 8.6 19.3 19.3s-8.6 19.3-19.3 19.3c-10.7 0-19.3-8.6-19.3-19.3 0-2.5.5-5 1.4-7.2H17.3c-.6 2.3-.9 4.7-.9 7.2 0 16.8 13.6 30.5 30.5 30.5 16.8 0 30.5-13.6 30.5-30.5C77.4 95.1 63.7 81.5 46.9 81.5z" class="st6"/><path d="M17.8 84.3H32.8V99.3H17.8z" class="st6" transform="rotate(-11.875 25.304 91.754)"/><path d="M7.6 78.4H13.6V84.4H7.6z" class="st6"/><path d="M1.1 87.8H10.9V97.6H1.1z" class="st6" transform="rotate(-75.587 5.985 92.673)"/></g></svg>