<?xml version="1.0" encoding="utf-8"?>
<!-- Generator: Adobe Illustrator 25.4.1, SVG Export Plug-In . SVG Version: 6.00 Build 0)  -->
<svg version="1.1" id="Layer_1" xmlns="http://www.w3.org/2000/svg" xmlns:xlink="http://www.w3.org/1999/xlink" x="0px" y="0px"
	 viewBox="0 0 715.309 112.066" style="enable-background:new 0 0 715.309 112.066;" xml:space="preserve">
<style type="text/css">
	.st0{fill-rule:evenodd;clip-rule:evenodd;fill:#FFFFFF;}
	.st1{fill:#FFFFFF;}
	.st2{fill:#E73800;}
	.st3{fill:#3D3D3D;}
	.st4{fill:#727272;}
	.st5{fill:#00D2FF;}
</style>
<g>
	<path class="st0" d="M187.562,39.686c0,5.744-1.74,10.629-5.221,14.654c-3.48,4.025-8.364,6.792-14.654,8.302v0.377
		c7.422,0.923,13.04,3.176,16.856,6.761c3.815,3.585,5.723,8.418,5.723,14.497c0,8.849-3.207,15.735-9.622,20.661
		c-6.416,4.927-15.577,7.39-27.485,7.39c-9.979,0-18.827-1.656-26.541-4.969V90.818c3.563,1.804,7.484,3.27,11.761,4.402
		c4.277,1.133,8.512,1.698,12.704,1.698c6.415,0,11.153-1.088,14.214-3.27c3.061-2.18,4.592-5.68,4.592-10.503
		c0-4.318-1.761-7.378-5.283-9.183c-3.523-1.802-9.142-2.704-16.856-2.704h-6.981V56.353h7.107c7.128,0,12.337-0.933,15.629-2.799
		c3.291-1.866,4.937-5.063,4.937-9.592c0-6.96-4.361-10.44-13.082-10.44c-3.019,0-6.091,0.503-9.214,1.509
		c-3.124,1.007-6.594,2.748-10.409,5.221l-8.993-13.397c8.385-6.038,18.385-9.057,30-9.057c9.518,0,17.033,1.93,22.547,5.787
		C184.804,27.442,187.562,32.81,187.562,39.686"/>
	<path class="st0" d="M261.093,64.675c0-20.302-8.966-30.454-26.897-30.454h-10.669v61.555h8.599
		C251.437,95.776,261.093,85.41,261.093,64.675L261.093,64.675z M281.913,64.158c0,15.562-4.429,27.479-13.288,35.756
		c-8.857,8.276-21.649,12.414-38.374,12.414h-26.768v-94.53h29.679c15.43,0,27.414,4.074,35.949,12.221
		S281.913,49.545,281.913,64.158L281.913,64.158L281.913,64.158z"/>
	<polyline class="st0" points="349.64,112.328 295.198,112.328 295.198,17.798 349.64,17.798 349.64,34.221 315.242,34.221 
		315.242,54.977 347.247,54.977 347.247,71.399 315.242,71.399 315.242,95.776 349.64,95.776 349.64,112.328 	"/>
	<path class="st0" d="M72.71,17.798c-4.533,0-8.911,0.652-13.062,1.844V38.12c3.948-1.917,8.379-2.995,13.062-2.995
		c16.535,0,29.938,13.404,29.938,29.938c0,16.534-13.403,29.939-29.938,29.939c-16.534,0-29.937-13.405-29.937-29.939
		c0-3.936,0.766-7.689,2.147-11.132H26.777c-0.863,3.571-1.331,7.296-1.331,11.132c0,26.104,21.161,47.265,47.264,47.265
		c26.104,0,47.266-21.161,47.266-47.265C119.976,38.96,98.814,17.798,72.71,17.798"/>
	<polyline class="st0" points="53.023,42.792 30.237,47.582 25.447,24.797 48.232,20.006 53.023,42.792 	"/>
	<rect x="11.806" y="13.137" class="st1" width="9.314" height="9.313"/>
	<polyline class="st0" points="14.761,44.463 0,40.67 3.793,25.91 18.554,29.703 14.761,44.463 	"/>
</g>
<g>
	<polygon class="st1" points="488.188,36.651 525.765,36.651 525.765,93.213 507.041,93.213 507.041,74.358 488.188,74.358 
		488.188,112.066 544.62,112.066 544.62,17.798 488.188,17.798 	"/>
	<path class="st1" d="M555.672,112.066h18.592V74.228h18.853v37.838h19.115V17.798h-56.56V112.066z M574.264,36.914h18.853v18.722
		h-18.853V36.914z"/>
	<polygon class="st1" points="640.025,36.783 640.025,17.798 621.434,17.798 621.434,112.066 640.025,112.066 640.025,55.636 
		659.14,55.636 659.14,36.783 	"/>
	<polygon class="st1" points="696.847,17.798 696.847,36.783 677.994,36.783 677.994,55.636 696.847,55.636 696.847,112.066 
		715.309,112.066 715.309,17.798 	"/>
	<rect x="659.14" y="55.636" class="st1" width="18.853" height="18.592"/>
</g>
<g>
	<rect x="417.554" y="39.368" width="6.694" height="23.893"/>
	<polygon class="st2" points="441.173,5.548 435.625,5.548 435.625,0 406.175,0 406.175,5.548 400.628,5.548 400.628,34.997 
		406.175,34.997 406.175,40.545 435.625,40.545 435.625,34.997 441.173,34.997 	"/>
	<polygon class="st3" points="452.678,84.081 452.678,75.499 443.684,75.499 443.684,66.912 435.625,66.912 435.625,61.135 
		406.175,61.135 406.175,66.912 397.669,66.912 397.669,75.499 388.453,75.499 388.453,84.081 369.832,84.081 369.832,112.328 
		406.175,112.328 435.625,112.328 471.968,112.328 471.968,84.081 	"/>
	<rect x="428.932" y="5.548" class="st1" width="6.694" height="6.694"/>
	<polygon class="st4" points="428.92,61.135 428.92,66.912 414.719,66.912 414.719,82.933 407.013,82.933 407.013,112.328 
		471.969,112.328 471.969,84.081 452.678,84.081 452.678,75.499 443.88,75.499 443.88,66.912 435.526,66.912 435.526,61.135 	"/>
	<rect x="452.678" y="75.499" class="st5" width="8.587" height="8.587"/>
	<rect x="417.648" y="98.205" width="7" height="7"/>
</g>
</svg>
