<svg width="298" height="99" viewBox="0 0 298 99" fill="none" xmlns="http://www.w3.org/2000/svg">
<g clip-path="url(#clip0_23_29)">
<path d="M161.903 11.9009H191.027C214.166 11.9009 230.254 26.6551 230.254 48.9793C230.254 71.3036 214.195 85.9392 191.027 85.9392H161.903V11.9009ZM190.938 72.6098C205.9 72.6098 214.61 61.8336 214.61 49.009C214.61 35.6204 206.463 25.2895 190.938 25.2895H177.221V72.6098H190.938Z" fill="black"/>
<path d="M240.682 12.9399H298.01V26.1208H256V41.7953H297.981V55.0058H256V71.7786H297.981V85.0785H240.682V12.9399Z" fill="black"/>
<path d="M146.527 52.1559C143.712 49.6622 139.683 47.9701 134.528 47.1092C138.794 45.8326 142.201 43.8139 144.72 41.0828C147.712 37.8766 149.193 33.8987 149.193 29.3269C149.193 23.8052 146.793 19.4413 142.053 16.354C137.401 13.3259 131.002 11.7822 123.033 11.7822C114.914 11.7822 107.656 13.4743 101.405 16.7695C103.863 20.7179 105.848 24.963 107.36 29.4457C109.908 27.991 112.278 26.9224 114.441 26.2989C116.959 25.527 119.477 25.1708 121.907 25.1708C128.78 25.1708 132.128 27.6051 132.128 32.6221C132.128 35.9173 130.883 38.1439 128.366 39.5094C125.728 40.9047 121.492 41.6172 115.714 41.6172H110.115C110.411 44.0217 110.56 46.4857 110.56 48.9794C110.56 50.7903 110.47 52.6011 110.322 54.3526H115.596C121.877 54.3526 126.469 55.0354 129.284 56.3714C132.009 57.6775 133.313 59.815 133.313 62.932C133.313 66.4647 132.158 68.9584 129.787 70.5318C127.358 72.1349 123.507 72.9661 118.352 72.9661C114.944 72.9661 111.448 72.5208 107.982 71.6599C107.448 71.5115 106.915 71.3927 106.382 71.2443C104.753 75.4301 102.649 79.4081 100.189 83.0889C106.086 85.108 112.752 86.1172 120.099 86.1172C130.054 86.1172 137.846 84.1579 143.238 80.2985C148.689 76.38 151.474 70.8286 151.474 63.8226C151.474 58.9838 149.815 55.0354 146.527 52.1559Z" fill="black"/>
<path d="M98.0053 49.4852C98.0053 47.7921 97.9169 46.0396 97.7408 44.3169C97.0349 37.3664 94.9178 30.7723 91.4478 24.7426C88.0375 18.7723 83.303 13.4852 77.8045 9.44556C72.1882 5.31684 65.925 2.49505 59.1913 1.0693C52.5165 -0.356435 45.4888 -0.356435 38.814 1.0693C32.0509 2.52476 25.7878 5.34654 20.2009 9.44556C14.7022 13.4852 9.96818 18.802 6.55721 24.7426C3.08748 30.802 0.970349 37.3664 0.264642 44.3169C0.0882144 46.0693 0 47.7921 0 49.4852C0 54.7129 0.793922 59.8515 2.38177 64.7822C4.5283 71.406 7.93923 77.4059 12.5852 82.6043C17.2311 87.8018 22.7592 91.8712 29.0811 94.723C35.3736 97.5741 42.0779 99 49.0174 99C55.9568 99 62.6611 97.5741 68.9537 94.723C75.2462 91.8712 80.8034 87.8018 85.4495 82.6043C90.0956 77.4059 93.5067 71.406 95.6532 64.7822C97.2117 59.8515 98.0053 54.7129 98.0053 49.4852ZM96.1528 43.1881L84.3324 37.8713L90.8016 26.5544C93.5943 31.7228 95.3887 37.3367 96.1528 43.1881ZM72.8938 49.4852C72.8938 62.8218 62.1906 73.6633 48.9585 73.6633C35.7265 73.6633 25.0232 62.8515 25.0232 49.4852C25.0232 36.1188 35.7265 25.307 48.9585 25.307C62.1906 25.307 72.8938 36.1188 72.8938 49.4852ZM12.0559 49.4852C12.0559 50.2277 12.0853 50.9703 12.1147 51.7129L2.32296 44.5248L13.3497 39.5644C12.5264 42.7129 12.0559 46.0396 12.0559 49.4852ZM16.2019 66.6535L4.38128 64.1287L12.4676 55.0396C13.085 59.1683 14.3494 63.0891 16.2019 66.6535ZM85.4495 55.0396L93.5361 64.1287L81.7149 66.6535C83.5675 63.0891 84.8615 59.1683 85.4495 55.0396ZM84.538 39.5644L95.5648 44.5248L85.773 51.7129C85.8025 50.9703 85.832 50.2277 85.832 49.4852C85.8614 46.0396 85.42 42.7129 84.538 39.5644ZM83.5085 36.3565C82.0679 32.4951 80.0098 28.9307 77.4516 25.7822H83.2735H89.5665L83.5085 36.3565ZM77.2163 18.4158L77.9515 11.3465C82.5388 14.9109 86.5084 19.3663 89.537 24.3565H76.5988L77.2163 18.4158ZM75.8343 17.6139L75.2462 23.3168C72.4234 20.406 69.1007 17.9703 65.4545 16.1287L70.218 13.9901L76.5106 11.1683L75.8343 17.6139ZM75.9225 9.83166L69.777 12.5941L64.1019 15.1485L63.9255 14.6435L60.0735 2.70297C65.778 4.09901 71.1002 6.47525 75.9225 9.83166ZM62.4552 14.7623C58.7797 13.307 54.7807 12.4159 50.6347 12.2376L58.7209 3.14851L62.4552 14.7623ZM57.6329 2.19802L48.9585 11.9109L40.2843 2.19802C45.9887 1.12871 51.9284 1.12871 57.6329 2.19802ZM39.2256 3.14851L47.3119 12.2376C43.1659 12.4159 39.1668 13.307 35.4913 14.7623L39.2256 3.14851ZM37.8436 2.70297L33.9623 14.8218L33.8447 15.1782L33.727 15.1188L22.024 9.86136C26.8464 6.47525 32.1391 4.09901 37.8436 2.70297ZM28.2577 14.2574L32.4626 16.1287C28.8164 17.9703 25.5231 20.406 22.6709 23.3168L22.2298 18.9802L21.4065 11.1386L28.2577 14.2574ZM19.9657 11.3465L21.3183 24.3565H8.38033C11.4089 19.3663 15.3786 14.9109 19.9657 11.3465ZM20.4656 25.8119C17.9074 28.9604 15.8491 32.5248 14.4082 36.3862L8.38033 25.8119H20.4656ZM7.1159 26.5544L13.5849 37.8713L1.76427 43.1881C2.52879 37.3367 4.32247 31.7228 7.1159 26.5544ZM1.35261 49.4852C1.35261 48.2376 1.41142 46.9901 1.49963 45.7129L2.08772 46.1584L11.9676 53.406L3.32272 63.1188C2.02892 58.7228 1.35261 54.1188 1.35261 49.4852ZM4.08723 65.5544L16.7606 68.2575L12.7616 80.7034C8.93896 76.1882 6.02793 71.1089 4.08723 65.5544ZM14.1142 81.1784L17.8485 69.5643C20.0245 73.0099 22.7886 76.099 25.9348 78.6238L14.1142 81.1784ZM14.4376 82.574L27.111 79.8419L28.4636 92.8516C23.1708 90.3271 18.466 86.8813 14.4376 82.574ZM28.64 80.5844C31.9921 82.8119 35.6971 84.5053 39.6667 85.5448L29.9045 92.7327L28.64 80.5844ZM30.7572 93.9207L41.2252 86.2274L42.2837 88.0988L47.6942 97.5741C41.8427 97.396 36.1382 96.1785 30.7572 93.9207ZM42.9306 86.2577C44.9007 86.5843 46.9297 86.7623 48.988 86.7623C51.0463 86.7623 53.0752 86.5843 55.0453 86.2577L48.9585 96.8316L42.9306 86.2577ZM50.223 97.5445L51.2815 95.6731L56.6919 86.1979L67.16 93.8911C61.779 96.1785 56.0744 97.396 50.223 97.5445ZM68.0421 92.7327L58.2798 85.5448C62.2494 84.5053 65.9838 82.8119 69.3065 80.5844L68.0421 92.7327ZM69.4535 92.8812L70.8062 79.8714L83.4798 82.6043C79.4511 86.8813 74.7464 90.3271 69.4535 92.8812ZM71.9823 78.6238C75.158 76.0693 77.8927 73.0099 80.0688 69.5643L83.8033 81.1784L71.9823 78.6238ZM85.1555 80.7034L81.1564 68.2575L93.8302 65.5544C91.8892 71.1089 88.9785 76.1882 85.1555 80.7034ZM94.6238 63.1188L85.9491 53.406L96.4173 45.7129C96.5058 46.9901 96.5647 48.2376 96.5647 49.4852C96.5647 54.1188 95.9178 58.7228 94.6238 63.1188Z" fill="black"/>
</g>
<defs>
<clipPath id="clip0_23_29">
<rect width="298" height="99" fill="white"/>
</clipPath>
</defs>
</svg>
