<svg width="148" height="46" viewBox="0 0 148 46" fill="none" xmlns="http://www.w3.org/2000/svg">
<path d="M60.0221 4.60956C56.6343 4.56153 53.2747 5.2358 50.1646 6.58805C49.9535 6.68217 49.7646 6.81985 49.6095 6.99195C49.4545 7.16405 49.337 7.36682 49.2646 7.58736C49.1937 7.80586 49.1703 8.03702 49.1957 8.2654C49.2212 8.49378 49.295 8.71416 49.4122 8.91143C50.1783 10.2114 50.8362 11.5728 51.379 12.982C51.5055 13.2988 51.7237 13.5702 52.0053 13.7608C52.2869 13.9515 52.6189 14.0526 52.9583 14.0513C53.2236 14.0508 53.4852 13.9892 53.7232 13.8714C54.4813 13.4838 55.2736 13.1677 56.0898 12.9271H56.0961H56.1022C57.1978 12.5978 58.3349 12.4295 59.4783 12.4274C63.1636 12.4274 63.6368 13.895 63.6368 15.1753C63.6897 15.6975 63.583 16.2236 63.3312 16.6833C63.0794 17.143 62.6945 17.5145 62.2275 17.7484C60.4028 18.4631 58.4452 18.7699 56.4908 18.6477H54.7948C54.5627 18.647 54.3331 18.6939 54.1197 18.7854C53.9062 18.8769 53.7133 19.0111 53.5531 19.1799C53.396 19.3465 53.2759 19.5447 53.2005 19.7615C53.1252 19.9784 53.0962 20.2088 53.116 20.4376C53.1867 21.2345 53.223 22.0527 53.223 22.8683C53.223 23.3679 53.2067 23.8862 53.1769 24.4133C53.1645 24.6387 53.199 24.8642 53.2781 25.0754C53.3572 25.2866 53.4793 25.4789 53.6365 25.64C53.7961 25.8028 53.9863 25.9321 54.1961 26.0202C54.4058 26.1084 54.6308 26.1536 54.8581 26.1533H56.4302C58.5583 26.0299 60.6897 26.3269 62.7043 27.0276C63.1781 27.2119 63.58 27.5452 63.8505 27.9777C64.121 28.4102 64.2455 28.9189 64.2055 29.4283C64.2646 29.9961 64.1699 30.5696 63.9314 31.0877C63.6929 31.6058 63.3195 32.0493 62.8507 32.3712C61.2732 33.1577 59.5165 33.5093 57.7598 33.3903C56.1393 33.3845 54.5255 33.1867 52.9511 32.8009C52.8089 32.7629 52.6623 32.7435 52.5151 32.7434C52.1898 32.7411 51.8708 32.8344 51.5975 33.0119C51.3242 33.1894 51.1085 33.4435 50.9767 33.7427C50.4046 35.0629 49.7315 36.3365 48.9638 37.5522C48.8279 37.7655 48.745 38.0086 48.7216 38.2609C48.6983 38.5132 48.7353 38.7675 48.8298 39.0024C48.9261 39.242 49.0764 39.4558 49.2688 39.6271C49.4612 39.7983 49.6906 39.9223 49.9387 39.9892C52.7653 40.7466 55.6806 41.1163 58.6055 41.0884C63.5722 41.0884 67.4883 40.1203 70.2262 38.2155C71.5927 37.305 72.7051 36.0582 73.4577 34.5935C74.2102 33.1288 74.5782 31.4948 74.5262 29.8468C74.5687 28.7011 74.352 27.5606 73.8924 26.5114C73.4327 25.4622 72.7422 24.5317 71.8728 23.7902C70.7719 22.8797 69.4979 22.2044 68.129 21.8054C69.2226 21.2699 70.2145 20.5458 71.0595 19.6658C71.8308 18.8658 72.4364 17.9196 72.8414 16.8822C73.2463 15.8449 73.4426 14.737 73.4185 13.6228C73.4451 12.2604 73.1065 10.9158 72.4382 9.73051C71.7698 8.54521 70.7962 7.56286 69.6202 6.88659C66.6926 5.24053 63.3649 4.45342 60.0149 4.61459L60.0221 4.60956Z" fill="#101010"/>
<path d="M93.114 4.66694H80.5173C79.9336 4.65926 79.3708 4.88462 78.9519 5.29361C78.533 5.7026 78.292 6.26183 78.2822 6.84898V38.8149C78.292 39.4021 78.533 39.9613 78.9519 40.3703C79.3708 40.7793 79.9336 41.0046 80.5173 40.9969H93.114C98.2921 41.1879 103.353 39.4194 107.299 36.0407C109.048 34.323 110.438 32.271 111.386 30.005C112.335 27.7391 112.824 25.3051 112.824 22.8463C112.824 20.3875 112.335 17.9536 111.386 15.6877C110.438 13.4217 109.048 11.3695 107.299 9.65189C103.36 6.2576 98.2959 4.47813 93.1128 4.66694H93.114ZM87.6978 33.2004C87.6349 33.2014 87.5723 33.1899 87.5138 33.1665C87.4553 33.1432 87.402 33.1085 87.3568 33.0644C87.3116 33.0203 87.2753 32.9677 87.2504 32.9096C87.2254 32.8515 87.2122 32.7891 87.2113 32.7257V12.9319C87.2122 12.8686 87.2254 12.8061 87.2504 12.748C87.2753 12.6899 87.3116 12.6373 87.3568 12.5932C87.402 12.5492 87.4553 12.5144 87.5138 12.4911C87.5723 12.4678 87.6349 12.4562 87.6978 12.4572H93.057C94.5146 12.3826 95.9719 12.6082 97.3398 13.12C98.7077 13.6318 99.9575 14.4192 101.012 15.4338C102.768 17.4832 103.725 20.1031 103.706 22.8082C103.688 25.5132 102.696 28.1199 100.913 30.1451C99.8786 31.1644 98.6485 31.9607 97.2977 32.4851C95.9469 33.0096 94.5039 33.2513 93.057 33.1954L87.6978 33.2004Z" fill="#101010"/>
<path d="M145.064 4.66687H118.996C118.49 4.6612 118.003 4.85751 117.641 5.21272C117.279 5.56793 117.072 6.05301 117.065 6.56165V39.1146C117.074 39.623 117.282 40.1072 117.645 40.4612C118.008 40.8152 118.496 41.0101 119.001 41.0031H145.069C145.574 41.0101 146.062 40.8152 146.425 40.4612C146.788 40.1072 146.996 39.623 147.005 39.1146V34.9565C146.996 34.4481 146.788 33.9637 146.425 33.6097C146.062 33.2557 145.574 33.0608 145.069 33.0678H126.592C126.542 33.0688 126.493 33.06 126.447 33.0416C126.401 33.0232 126.359 32.9957 126.323 32.9608C126.288 32.9259 126.26 32.8843 126.241 32.8383C126.221 32.7924 126.211 32.743 126.212 32.6932V26.8526C126.211 26.8027 126.221 26.7534 126.241 26.7074C126.26 26.6615 126.288 26.6199 126.323 26.585C126.359 26.5501 126.401 26.5225 126.447 26.5042C126.493 26.4858 126.542 26.4768 126.592 26.4778H145.069C145.574 26.4848 146.062 26.2901 146.425 25.9361C146.788 25.582 146.996 25.0977 147.005 24.5893V20.4874C146.996 19.979 146.788 19.4947 146.425 19.1406C146.062 18.7866 145.574 18.5917 145.069 18.5988H126.592C126.542 18.5998 126.493 18.5909 126.447 18.5725C126.401 18.5541 126.359 18.5266 126.323 18.4917C126.288 18.4568 126.26 18.4152 126.241 18.3693C126.221 18.3233 126.211 18.274 126.212 18.2241V12.9131C126.211 12.8632 126.221 12.8139 126.241 12.7679C126.26 12.7219 126.288 12.6804 126.323 12.6455C126.359 12.6106 126.401 12.583 126.447 12.5647C126.493 12.5463 126.542 12.5374 126.592 12.5384H145.069C145.574 12.5454 146.062 12.3505 146.425 11.9965C146.788 11.6425 146.996 11.1582 147.005 10.6497V6.56165C146.996 6.05323 146.788 5.56887 146.425 5.21485C146.062 4.86084 145.574 4.6661 145.069 4.67312L145.064 4.66687Z" fill="#101010"/>
<path d="M23 0C10.3185 0 0 10.3185 0 23C0 35.6815 10.3185 46 23 46C35.6815 46 46 35.6815 46 23C46 10.3185 35.6815 0 23 0ZM33.005 23C33.005 28.5164 28.5164 33.005 23 33.005C17.4836 33.005 12.995 28.5164 12.995 23C12.995 17.4836 17.4836 12.995 23 12.995C28.5164 12.995 33.005 17.4836 33.005 23ZM19.688 39.7331C20.7605 39.945 21.8669 40.0587 23 40.0587C24.1331 40.0587 25.2407 39.945 26.312 39.7331L26.3435 39.7561L23.0012 45.5461L19.6577 39.7549L19.688 39.7331ZM39.146 17.5042C38.4197 15.3749 37.283 13.4344 35.8304 11.776L35.8364 11.7227H42.5294L39.1823 17.5199L39.146 17.5042ZM35.5011 11.408C33.9976 9.78832 32.1855 8.46158 30.1578 7.51979L30.1445 7.47742L36.2516 4.75858L35.5532 11.408H35.5011ZM30.0465 7.17721L27.9995 0.876421C30.9544 1.54342 33.6914 2.78905 36.0882 4.48742L30.0477 7.17721H30.0465ZM29.7572 7.30553L29.7196 7.32247C27.7259 6.46421 25.5361 5.97879 23.2385 5.94611L23.2118 5.91705L27.6908 0.944211L29.7584 7.30674L29.7572 7.30553ZM22.7615 5.94611C20.4627 5.97758 18.2717 6.46421 16.2767 7.32247L16.2404 7.30674L18.3092 0.943L22.7882 5.91705L22.7615 5.94611ZM15.9523 7.17721L9.91058 4.48742C12.3062 2.78784 15.0444 1.54342 17.9993 0.875211L15.9511 7.17721H15.9523ZM15.8543 7.47863L15.8409 7.51979C13.8133 8.46158 12.0012 9.78832 10.4977 11.408H10.4444L9.74595 4.75858L15.8543 7.47863ZM10.1672 11.7772C8.71579 13.4344 7.58032 15.3737 6.854 17.503L6.81889 17.5187L3.473 11.7227H10.1624L10.1684 11.7772H10.1672ZM6.52958 17.6471L0.475737 20.3429C0.831632 17.3105 1.78553 14.4609 3.22 11.9128L6.53079 17.6471H6.52958ZM6.68816 17.9206L6.70389 17.9485C6.20758 19.5452 5.94005 21.2411 5.94005 22.9988C5.94005 23.5205 5.96789 24.0362 6.01389 24.5458L5.98605 24.5761L0.572579 20.6443L6.68816 17.9218V17.9206ZM6.06474 25.0228C6.33347 27.2841 7.04405 29.4097 8.11053 31.3115L8.096 31.3563L1.55674 29.9666L6.03084 24.9974L6.06474 25.0216V25.0228ZM7.99795 31.6577L5.95458 37.9452C4.00805 35.7287 2.48884 33.1321 1.51921 30.2813L7.99674 31.6577H7.99795ZM8.30784 31.7231L8.35384 31.7327C9.499 33.6454 11.0061 35.3171 12.7819 36.6499L12.7868 36.6935L6.24026 38.0844L8.30784 31.7218V31.7231ZM13.1766 36.9319C14.9694 38.1994 17.0139 39.1291 19.2219 39.6302L19.2425 39.6653L13.8291 43.5983L13.1294 36.9416L13.1766 36.9319ZM19.4011 39.9401L22.7131 45.6768C19.6372 45.6381 16.7065 44.9868 14.0397 43.8356L19.4011 39.9401ZM26.5989 39.9401L31.9591 43.8344C29.2923 44.9856 26.3628 45.6368 23.2869 45.6756L26.5989 39.9401ZM26.7575 39.6665L26.7781 39.6302C28.9848 39.1291 31.0294 38.1994 32.821 36.9332L32.8682 36.9428L32.1685 43.5983L26.7563 39.6665H26.7575ZM33.2156 36.6511C34.9927 35.3171 36.501 33.6442 37.6462 31.7303L37.6909 31.7206L39.7585 38.0856L33.2108 36.6935L33.2156 36.6499V36.6511ZM38.0008 31.6553L44.4808 30.2777C43.5112 33.1297 41.9919 35.7263 40.0442 37.9439L38.0008 31.6553ZM37.9028 31.3538L37.8883 31.3103C38.9547 29.4073 39.6653 27.2816 39.9341 25.0204L39.9692 24.9949L44.4433 29.9629L37.9028 31.3526V31.3538ZM39.9861 24.5434C40.0321 24.0338 40.0599 23.5193 40.0599 22.9976C40.0599 21.2411 39.7924 19.5452 39.2973 17.9497L39.3131 17.9218L45.4262 20.6443L40.0139 24.5761L39.9861 24.5446V24.5434ZM39.4716 17.6471L42.7824 11.9128C44.2157 14.4609 45.1708 17.3105 45.5255 20.3429L39.4716 17.6471ZM42.4919 11.4068H35.8703L36.5627 4.82274C38.9438 6.60463 40.9618 8.84411 42.4919 11.4068ZM27.439 0.752947L23.0012 5.68221L18.5622 0.752947C19.9979 0.467263 21.4808 0.314737 23 0.314737C24.5192 0.314737 26.0021 0.467263 27.439 0.754158V0.752947ZM9.43726 4.82637L10.1297 11.4092H3.50932C5.03942 8.84653 7.05616 6.60705 9.43726 4.82637ZM0.414 20.9179L5.77542 24.8134L1.33763 29.7414C0.673053 27.6109 0.314737 25.346 0.314737 23C0.314737 22.2979 0.351053 21.6043 0.414 20.9179ZM6.348 38.3858L12.8195 37.0106L13.5119 43.5995C10.7906 42.3406 8.35989 40.5623 6.348 38.387V38.3858ZM32.4857 43.5995L33.1781 37.0106L39.6508 38.3858C37.6389 40.5611 35.2069 42.3406 32.4857 43.5983V43.5995ZM44.6636 29.7414L40.2258 24.8134L45.586 20.9191C45.6489 21.6055 45.6853 22.2991 45.6853 23.0012C45.6853 25.3472 45.3269 27.6109 44.6636 29.7414Z" fill="black"/>
</svg>
