<svg width="256px" height="212px" viewBox="0 0 256 212" fill="none" xmlns="http://www.w3.org/2000/svg">
<path d="M233 105.468C233 101.86 232.81 98.1249 232.431 94.453C230.911 79.6394 226.353 65.5854 218.883 52.7342C211.54 40.0096 201.347 28.7411 189.509 20.1314C177.417 11.3319 163.933 5.31773 149.436 2.27903C135.065 -0.759677 119.935 -0.759677 105.564 2.27903C91.0039 5.38103 77.5196 11.3952 65.4914 20.1314C53.6532 28.7411 43.4608 40.0729 36.1173 52.7342C28.6471 65.6487 24.0891 79.6394 22.5698 94.453C22.1899 98.1882 22 101.86 22 105.468C22 116.61 23.7093 127.563 27.1278 138.071C31.7492 152.188 39.0927 164.977 49.0952 176.055C59.0975 187.134 70.9991 195.807 84.61 201.884C98.1575 207.961 112.591 211 127.532 211C142.471 211 156.905 207.961 170.454 201.884C184.001 195.807 195.966 187.134 205.969 176.055C215.97 164.977 223.314 152.188 227.936 138.071C231.291 127.563 233 116.61 233 105.468ZM229.012 92.0474L203.563 80.7156L217.49 56.5958C223.504 67.6112 227.366 79.5761 229.012 92.0474ZM178.936 105.468C178.936 133.893 155.893 157 127.405 157C98.9175 157 75.8737 133.956 75.8737 105.468C75.8737 76.9805 98.9175 53.937 127.405 53.937C155.893 53.937 178.936 76.9805 178.936 105.468ZM47.9555 105.468C47.9555 107.051 48.019 108.633 48.0823 110.216L27.0012 94.8961L50.7411 84.3241C48.9685 91.0345 47.9555 98.1249 47.9555 105.468ZM56.8818 142.059L31.4327 136.678L48.8419 117.306C50.1714 126.106 52.8935 134.462 56.8818 142.059ZM205.969 117.306L223.378 136.678L197.928 142.059C201.916 134.462 204.702 126.106 205.969 117.306ZM204.006 84.3241L227.745 94.8961L206.664 110.216C206.728 108.633 206.791 107.051 206.791 105.468C206.854 98.1249 205.905 91.0345 204.006 84.3241ZM201.79 77.4869C198.688 69.2571 194.257 61.6603 188.749 54.9499H201.283H214.831L201.79 77.4869ZM188.243 39.2499L189.826 24.183C199.701 31.7798 208.247 41.2757 214.768 51.9112H186.913L188.243 39.2499ZM185.267 37.5406L184.001 49.6955C177.924 43.4914 170.77 38.3003 162.919 34.3753L173.176 29.8173L186.723 23.8031L185.267 37.5406ZM185.457 20.9544L172.226 26.8418L160.008 32.2862L159.628 31.21L151.335 5.76083C163.616 8.73625 175.075 13.8008 185.457 20.9544ZM156.462 31.4633C148.549 28.3613 139.939 26.462 131.014 26.0822L148.423 6.71043L156.462 31.4633ZM146.081 4.68462L127.405 25.3858L108.729 4.68462C121.011 2.40564 133.799 2.40564 146.081 4.68462ZM106.451 6.71043L123.86 26.0822C114.933 26.462 106.324 28.3613 98.4106 31.4633L106.451 6.71043ZM103.476 5.76083L95.1188 31.5899L94.8656 32.3496L94.6123 32.2229L69.4165 21.0177C79.7986 13.8008 91.1938 8.73625 103.476 5.76083ZM82.8373 30.3871L91.8902 34.3753C84.0401 38.3003 76.9499 43.4914 70.8092 49.6955L69.8596 40.4527L68.087 23.7398L82.8373 30.3871ZM64.985 24.183L67.8971 51.9112H40.0423C46.5628 41.2757 55.1092 31.7798 64.985 24.183ZM66.0613 55.0132C60.5535 61.7236 56.1221 69.3204 53.0201 77.5502L40.0423 55.0132H66.0613ZM37.3201 56.5958L51.2476 80.7156L25.7984 92.0474C27.4443 79.5761 31.3061 67.6112 37.3201 56.5958ZM24.9121 105.468C24.9121 102.81 25.0387 100.151 25.2286 97.4285L26.4947 98.3781L47.7656 113.824L29.1536 134.526C26.3681 125.157 24.9121 115.344 24.9121 105.468ZM30.7995 139.717L58.0846 145.478L49.475 172.003C41.2451 162.381 34.9778 151.555 30.7995 139.717ZM52.3871 173.016L60.4269 148.263C65.1116 155.607 71.0624 162.191 77.8362 167.572L52.3871 173.016ZM53.0834 175.992L80.3684 170.168L83.2806 197.896C71.8854 192.515 61.7564 185.171 53.0834 175.992ZM83.6604 171.75C90.8773 176.498 98.8538 180.106 107.4 182.322L86.3826 197.642L83.6604 171.75ZM88.2185 200.174L110.756 183.778L113.034 187.767L124.683 207.961C112.085 207.582 99.8039 204.986 88.2185 200.174ZM114.428 183.841C118.669 184.538 123.037 184.918 127.468 184.918C131.9 184.918 136.268 184.538 140.51 183.841L127.405 206.378L114.428 183.841ZM130.127 207.898L132.406 203.91L144.054 183.715L166.591 200.112C155.006 204.986 142.725 207.582 130.127 207.898ZM168.491 197.642L147.473 182.322C156.02 180.106 164.059 176.498 171.213 171.75L168.491 197.642ZM171.53 197.959L174.442 170.23L201.726 176.055C193.054 185.171 182.925 192.515 171.53 197.959ZM176.974 167.572C183.811 162.128 189.698 155.607 194.383 148.263L202.423 173.016L176.974 167.572ZM205.336 172.003L196.725 145.478L224.011 139.717C219.832 151.555 213.565 162.381 205.336 172.003ZM225.72 134.526L207.045 113.824L229.582 97.4285C229.771 100.151 229.898 102.81 229.898 105.468C229.898 115.344 228.505 125.157 225.72 134.526Z" fill="white"/>
</svg>
