<svg viewBox="0 0 716 113" fill="none" xmlns="http://www.w3.org/2000/svg">
<g clip-path="url(#clip0_39_354)">
<path d="M488 27.853H525.577V84.415H506.853V65.56H488V103.268H544.432V9H488V27.853Z" fill="white"/>
<path d="M555.484 103.268H574.076V65.43H592.929V103.268H612.044V9H555.484V103.268ZM574.076 28.116H592.929V46.838H574.076V28.116Z" fill="white"/>
<path d="M639.837 27.985V9H621.246V103.268H639.837V46.838H658.952V27.985H639.837Z" fill="white"/>
<path d="M696.659 9V27.985H677.806V46.838H696.659V103.268H715.121V9H696.659Z" fill="white"/>
<path d="M677.805 46.838H658.952V65.43H677.805V46.838Z" fill="white"/>
<path d="M421.416 39.368H414.722V63.261H421.416V39.368Z" fill="black"/>
<path d="M438.341 5.548H432.793V0H403.343V5.548H397.796V34.997H403.343V40.545H432.793V34.997H438.341V5.548Z" fill="#E73800"/>
<path d="M449.846 84.081V75.499H440.852V66.912H432.793V61.135H403.343V66.912H394.837V75.499H385.621V84.081H367V112.328H403.343H432.793H469.136V84.081H449.846Z" fill="#3D3D3D"/>
<path d="M432.794 5.54797H426.1V12.242H432.794V5.54797Z" fill="white"/>
<path d="M426.088 61.135V66.912H411.887V82.933H404.181V112.328H469.137V84.081H449.846V75.499H441.048V66.912H432.694V61.135H426.088Z" fill="#727272"/>
<path d="M458.587 76H450V84.587H458.587V76Z" fill="#00D2FF"/>
<path d="M421.816 98.205H414.816V105.205H421.816V98.205Z" fill="black"/>
<path d="M184 14H216.81C242.877 14 261 30.7394 261 56.0674C261 81.3953 242.91 98 216.81 98H184V14ZM216.709 82.8773C233.565 82.8773 243.377 70.6512 243.377 56.101C243.377 40.911 234.199 29.1901 216.709 29.1901H201.255V82.8773H216.709Z" fill="white"/>
<path d="M272 15H337V29.9827H289.367V47.8H336.967V62.8165H289.367V81.8823H336.967V97H272V15Z" fill="white"/>
<path d="M165.405 59.623C162.221 56.8051 157.664 54.893 151.834 53.9201C156.659 52.4776 160.513 50.1965 163.36 47.1102C166.745 43.4872 168.42 38.992 168.42 33.8259C168.42 27.5863 165.706 22.655 160.345 19.1661C155.084 15.7444 147.847 14 138.833 14C129.653 14 121.444 15.9121 114.374 19.6358C117.155 24.0974 119.4 28.8946 121.109 33.9601C123.991 32.3163 126.671 31.1086 129.116 30.4042C131.965 29.5319 134.813 29.1294 137.56 29.1294C145.334 29.1294 149.12 31.8802 149.12 37.5495C149.12 41.2732 147.713 43.7891 144.865 45.3323C141.883 46.9089 137.092 47.7141 130.557 47.7141H124.225C124.56 50.4313 124.728 53.2157 124.728 56.0335C124.728 58.0799 124.627 60.1262 124.46 62.1054H130.424C137.527 62.1054 142.721 62.877 145.903 64.3866C148.987 65.8626 150.461 68.278 150.461 71.8003C150.461 75.7923 149.154 78.6102 146.473 80.3882C143.726 82.1997 139.37 83.139 133.539 83.139C129.687 83.139 125.732 82.6358 121.813 81.6629C121.209 81.4952 120.606 81.361 120.003 81.1933C118.16 85.9233 115.782 90.4185 113 94.5783C119.668 96.8594 127.207 98 135.517 98C146.775 98 155.588 95.7859 161.685 91.4249C167.851 86.9968 171 80.7236 171 72.8067C171 67.3387 169.124 62.877 165.405 59.623Z" fill="white"/>
<path d="M112 55.9833C112 54.0679 111.899 52.0853 111.697 50.1363C110.891 42.2731 108.471 34.8132 104.506 27.9917C100.609 21.2374 95.1987 15.256 88.9147 10.6859C82.496 6.01501 75.3393 2.82269 67.6437 1.20972C60.0157 -0.40324 51.9845 -0.40324 44.3565 1.20972C36.6278 2.85629 29.4702 6.04861 23.0856 10.6859C16.8017 15.256 11.3916 21.271 7.49354 27.9917C3.52841 34.8468 1.10896 42.2731 0.302483 50.1363C0.100862 52.1189 0 54.0679 0 55.9833C0 61.8975 0.907345 67.7109 2.72193 73.2891C5.17496 80.7826 9.07292 87.5705 14.3822 93.4511C19.6916 99.3317 26.009 103.935 33.2338 107.162C40.425 110.387 48.0865 112 56.0169 112C63.9473 112 71.6089 110.387 78.7995 107.162C85.9915 103.935 92.3417 99.3317 97.6513 93.4511C102.961 87.5705 106.858 80.7826 109.312 73.2891C111.093 67.7109 112 61.8975 112 55.9833ZM109.883 48.8594L96.3742 42.8444L103.767 30.0415C106.96 35.8885 109.009 42.2395 109.883 48.8594ZM83.3025 55.9833C83.3025 71.0712 71.0713 83.3365 55.9497 83.3365C40.8282 83.3365 28.5965 71.1048 28.5965 55.9833C28.5965 40.8618 40.8282 28.6301 55.9497 28.6301C71.0713 28.6301 83.3025 40.8618 83.3025 55.9833ZM13.7774 55.9833C13.7774 56.8234 13.8111 57.6635 13.8446 58.5036L2.65465 50.3715L15.256 44.7598C14.3151 48.3217 13.7774 52.0853 13.7774 55.9833ZM18.5155 75.4061L5.00693 72.5498L14.2479 62.2671C14.9535 66.938 16.3984 71.3737 18.5155 75.4061ZM97.6513 62.2671L106.893 72.5498L93.3835 75.4061C95.5014 71.3737 96.9796 66.938 97.6513 62.2671ZM96.6095 44.7598L109.212 50.3715L98.0213 58.5036C98.0545 57.6635 98.0887 56.8234 98.0887 55.9833C98.1219 52.0853 97.6181 48.3217 96.6095 44.7598ZM95.434 41.1306C93.7868 36.7621 91.4347 32.7297 88.5115 29.1678H95.1644H102.356L95.434 41.1306ZM88.243 20.8341L89.0827 12.8365C94.3248 16.8689 98.861 21.9094 102.322 27.5548H87.5371L88.243 20.8341ZM86.6632 19.9268L85.9915 26.3787C82.7656 23.0856 78.9685 20.3301 74.8013 18.2467L80.2445 15.8272L87.4365 12.6349L86.6632 19.9268ZM86.7638 11.1227L79.7407 14.2479L73.2557 17.1378L73.0536 16.5665L68.6518 3.05791C75.1703 4.63727 81.2532 7.32554 86.7638 11.1227ZM71.3737 16.7009C67.1732 15.0543 62.6032 14.0462 57.8651 13.8446L67.106 3.56196L71.3737 16.7009ZM65.8627 2.48665L55.9497 13.475L46.0366 2.48665C52.5558 1.27693 59.3436 1.27693 65.8627 2.48665ZM44.8269 3.56196L54.0679 13.8446C49.3298 14.0462 44.7597 15.0543 40.5593 16.7009L44.8269 3.56196ZM43.2476 3.05791L38.812 16.7681L38.6775 17.1714L38.5431 17.1042L25.169 11.1563C30.6799 7.32554 36.7285 4.63727 43.2476 3.05791ZM32.2929 16.1297L37.0982 18.2467C32.9313 20.3301 29.1678 23.0856 25.9083 26.3787L25.4042 21.4726L24.4632 12.6013L32.2929 16.1297ZM22.8167 12.8365L24.3625 27.5548H9.57703C13.0382 21.9094 17.5746 16.8689 22.8167 12.8365ZM23.388 29.2014C20.4645 32.7633 18.1123 36.7958 16.4657 41.1642L9.57703 29.2014H23.388ZM8.13199 30.0415L15.5248 42.8444L2.0162 48.8594C2.88986 42.2395 4.93975 35.8885 8.13199 30.0415ZM1.54579 55.9833C1.54579 54.572 1.61296 53.1606 1.71383 51.7157L2.38586 52.2197L13.6766 60.419L3.7972 71.4073C2.31869 66.434 1.54579 61.2254 1.54579 55.9833ZM4.67085 74.1628L19.1539 77.2207L14.5838 91.3005C10.2155 86.1928 6.88868 80.4466 4.67085 74.1628ZM16.1296 91.8382L20.3972 78.6992C22.884 82.5972 26.0426 86.092 29.6382 88.9483L16.1296 91.8382ZM16.4993 93.4175L30.9824 90.326L32.5281 105.044C26.4794 102.188 21.103 98.29 16.4993 93.4175ZM32.7297 91.1661C36.5605 93.6864 40.7945 95.6017 45.331 96.7779L34.1747 104.91L32.7297 91.1661ZM35.1491 106.254L47.112 97.5507L48.3217 99.6678L54.5047 110.387C47.8176 110.186 41.2986 108.808 35.1491 106.254ZM49.0609 97.5843C51.3125 97.954 53.631 98.1556 55.9833 98.1556C58.3355 98.1556 60.6542 97.954 62.9056 97.5843L55.9497 109.547L49.0609 97.5843ZM57.3947 110.354L58.6044 108.236L64.7873 97.5171L76.7501 106.22C70.6008 108.808 64.0817 110.186 57.3947 110.354ZM77.7588 104.91L66.6019 96.7779C71.1384 95.6017 75.4056 93.6864 79.2027 91.1661L77.7588 104.91ZM79.3717 105.078L80.9173 90.3596L95.3998 93.4511C90.7962 98.29 85.4203 102.188 79.3717 105.078ZM82.2607 88.9483C85.8899 86.0584 89.0153 82.5972 91.5021 78.6992L95.7698 91.8382L82.2607 88.9483ZM97.3154 91.3005L92.745 77.2207L107.229 74.1628C105.01 80.4466 101.684 86.1928 97.3154 91.3005ZM108.136 71.4073L98.2224 60.419L110.186 51.7157C110.287 53.1606 110.354 54.572 110.354 55.9833C110.354 61.2254 109.615 66.434 108.136 71.4073Z" fill="white"/>
</g>
<defs>
<clipPath id="clip0_39_354">
<rect width="715.309" height="112.066" fill="white"/>
</clipPath>
</defs>
</svg>
