<?xml version="1.0" encoding="UTF-8"?>
<svg width="411px" height="118px" viewBox="0 0 411 118" version="1.1" xmlns="http://www.w3.org/2000/svg" xmlns:xlink="http://www.w3.org/1999/xlink">
    <title>Group 12</title>
    <defs>
        <polygon id="path-1" points="0.1947 0.3512 75.3697 0.3512 75.3697 112 0.1947 112"></polygon>
        <polygon id="path-3" points="0 117.148 410.605 117.148 410.605 0 0 0"></polygon>
    </defs>
    <g id="Page-1" stroke="none" stroke-width="1" fill="none" fill-rule="evenodd">
        <g id="Group-12">
            <g id="Group-3" transform="translate(147.000000, 5.148000)">
                <mask id="mask-2" fill="white">
                    <use xlink:href="#path-1"></use>
                </mask>
                <g id="Clip-2"></g>
                <path d="M72.1757,26.2022 C72.1757,32.9872 70.1197,38.7562 66.0107,43.5102 C61.8997,48.2642 56.1307,51.5332 48.7017,53.3162 L48.7017,53.7622 C57.4677,54.8522 64.1037,57.5132 68.6107,61.7472 C73.1157,65.9812 75.3697,71.6892 75.3697,78.8692 C75.3697,89.3192 71.5817,97.4542 64.0047,103.2712 C56.4277,109.0912 45.6067,112.0002 31.5427,112.0002 C19.7557,112.0002 9.3057,110.0452 0.1947,106.1322 L0.1947,86.5952 C4.4037,88.7252 9.0347,90.4582 14.0857,91.7952 C19.1367,93.1322 24.1387,93.8012 29.0917,93.8012 C36.6687,93.8012 42.2637,92.5142 45.8797,89.9372 C49.4937,87.3632 51.3017,83.2282 51.3017,77.5322 C51.3017,72.4312 49.2217,68.8172 45.0627,66.6862 C40.9027,64.5572 34.2657,63.4932 25.1547,63.4932 L16.9087,63.4932 L16.9087,45.8882 L25.3027,45.8882 C33.7207,45.8882 39.8737,44.7862 43.7617,42.5822 C47.6497,40.3792 49.5937,36.6022 49.5937,31.2532 C49.5937,23.0342 44.4427,18.9222 34.1427,18.9222 C30.5767,18.9222 26.9487,19.5162 23.2597,20.7052 C19.5707,21.8942 15.4717,23.9502 10.9667,26.8712 L0.3437,11.0482 C10.2477,3.9172 22.0587,0.3512 35.7767,0.3512 C47.0177,0.3512 55.8947,2.6312 62.4067,7.1852 C68.9187,11.7422 72.1757,18.0812 72.1757,26.2022" id="Fill-1" fill="#000000" mask="url(#mask-2)"></path>
            </g>
            <path d="M306.0233,60.8658 C306.0233,36.8868 295.4333,24.8968 274.2543,24.8968 L261.6543,24.8968 L261.6543,97.5978 L271.8103,97.5978 C294.6183,97.5978 306.0233,85.3548 306.0233,60.8658 M330.6133,60.2548 C330.6133,78.6348 325.3823,92.7108 314.9193,102.4858 C304.4583,112.2608 289.3493,117.1478 269.5963,117.1478 L237.9803,117.1478 L237.9803,5.4998 L273.0333,5.4998 C291.2573,5.4998 305.4123,10.3108 315.4933,19.9328 C325.5733,29.5548 330.6133,42.9958 330.6133,60.2548" id="Fill-4" fill="#000000"></path>
            <mask id="mask-4" fill="white">
                <use xlink:href="#path-3"></use>
            </mask>
            <g id="Clip-7"></g>
            <polygon id="Fill-6" fill="#000000" mask="url(#mask-4)" points="29.299 36.876 56.799 36.876 56.799 9.376 29.299 9.376"></polygon>
            <polygon id="Fill-8" fill="#000000" mask="url(#mask-4)" points="7 11 18 11 18 0 7 0"></polygon>
            <polygon id="Fill-9" fill="#000000" mask="url(#mask-4)" points="0 44.24 18 44.24 18 26.24 0 26.24"></polygon>
            <polygon id="Fill-10" fill="#000000" mask="url(#mask-4)" points="410.6054 117.1481 346.3044 117.1481 346.3044 5.5001 410.6054 5.5001 410.6054 24.8971 369.9784 24.8971 369.9784 49.4111 407.7804 49.4111 407.7804 68.8081 369.9784 68.8081 369.9784 97.5981 410.6054 97.5981"></polygon>
            <path d="M83.5253,5.4996 C78.1713,5.4996 72.9993,6.2696 68.0973,7.6766 L68.0973,29.5006 C72.7603,27.2366 77.9933,25.9646 83.5253,25.9646 C103.0533,25.9646 118.8843,41.7956 118.8843,61.3236 C118.8843,80.8526 103.0533,96.6836 83.5253,96.6836 C63.9973,96.6836 48.1663,80.8526 48.1663,61.3236 C48.1663,56.6756 49.0713,52.2416 50.7013,48.1756 L29.2733,48.1756 C28.2543,52.3936 27.7013,56.7926 27.7013,61.3236 C27.7013,92.1546 52.6943,117.1476 83.5253,117.1476 C114.3563,117.1476 139.3493,92.1546 139.3493,61.3236 C139.3493,30.4926 114.3563,5.4996 83.5253,5.4996" id="Fill-11" fill="#000000" mask="url(#mask-4)"></path>
        </g>
    </g>
</svg>