<?xml version="1.0" encoding="UTF-8"?>
<svg width="411px" height="118px" viewBox="0 0 411 118" version="1.1" xmlns="http://www.w3.org/2000/svg" xmlns:xlink="http://www.w3.org/1999/xlink">
    <title>Group 11</title>
    <defs>
        <polygon id="path-1" points="0 117.148 410.605 117.148 410.605 0 0 0"></polygon>
    </defs>
    <g id="Page-1" stroke="none" stroke-width="1" fill="none" fill-rule="evenodd">
        <g id="Group-11">
            <path d="M219.1762,31.3505 C219.1762,38.1355 217.1202,43.9045 213.0102,48.6585 C208.8992,53.4125 203.1302,56.6815 195.7022,58.4635 L195.7022,58.9095 C204.4672,60.0005 211.1032,62.6605 215.6102,66.8945 C220.1152,71.1295 222.3692,76.8375 222.3692,84.0175 C222.3692,94.4685 218.5812,102.6015 211.0042,108.4195 C203.4272,114.2385 192.6072,117.1475 178.5422,117.1475 C166.7562,117.1475 156.3062,115.1925 147.1952,111.2795 L147.1952,91.7425 C151.4042,93.8735 156.0342,95.6055 161.0862,96.9425 C166.1372,98.2795 171.1382,98.9485 176.0912,98.9485 C183.6682,98.9485 189.2642,97.6615 192.8792,95.0855 C196.4932,92.5115 198.3022,88.3765 198.3022,82.6805 C198.3022,77.5805 196.2222,73.9655 192.0622,71.8355 C187.9022,69.7065 181.2652,68.6415 172.1542,68.6415 L163.9082,68.6415 L163.9082,51.0355 L172.3022,51.0355 C180.7212,51.0355 186.8742,49.9345 190.7622,47.7295 C194.6492,45.5265 196.5932,41.7495 196.5932,36.4015 C196.5932,28.1815 191.4422,24.0705 181.1422,24.0705 C177.5772,24.0705 173.9482,24.6645 170.2602,25.8535 C166.5702,27.0415 162.4712,29.0985 157.9662,32.0185 L147.3432,16.1965 C157.2472,9.0655 169.0592,5.4995 182.7772,5.4995 C194.0182,5.4995 202.8952,7.7785 209.4072,12.3335 C215.9182,16.8905 219.1762,23.2295 219.1762,31.3505" id="Fill-1" fill="#FFFFFF"></path>
            <path d="M306.0229,60.8657 C306.0229,36.8867 295.4329,24.8967 274.2539,24.8967 L261.6539,24.8967 L261.6539,97.5977 L271.8109,97.5977 C294.6189,97.5977 306.0229,85.3547 306.0229,60.8657 M330.6139,60.2547 C330.6139,78.6357 325.3819,92.7107 314.9199,102.4857 C304.4579,112.2607 289.3489,117.1477 269.5959,117.1477 L237.9809,117.1477 L237.9809,5.4997 L273.0329,5.4997 C291.2579,5.4997 305.4129,10.3107 315.4929,19.9327 C325.5739,29.5547 330.6139,42.9957 330.6139,60.2547" id="Fill-3" fill="#FFFFFF"></path>
            <mask id="mask-2" fill="white">
                <use xlink:href="#path-1"></use>
            </mask>
            <g id="Clip-6"></g>
            <polygon id="Fill-5" fill="#FFFFFF" mask="url(#mask-2)" points="29.299 36.876 56.799 36.876 56.799 9.376 29.299 9.376"></polygon>
            <polygon id="Fill-7" fill="#FFFFFF" mask="url(#mask-2)" points="7 10.999 18 10.999 18 -0.001 7 -0.001"></polygon>
            <polygon id="Fill-8" fill="#FFFFFF" mask="url(#mask-2)" points="0 44.24 18 44.24 18 26.24 0 26.24"></polygon>
            <polygon id="Fill-9" fill="#FFFFFF" mask="url(#mask-2)" points="410.6049 117.1479 346.3039 117.1479 346.3039 5.4999 410.6049 5.4999 410.6049 24.8969 369.9779 24.8969 369.9779 49.4109 407.7799 49.4109 407.7799 68.8079 369.9779 68.8079 369.9779 97.5979 410.6049 97.5979"></polygon>
            <path d="M83.5253,5.4995 C78.1713,5.4995 72.9993,6.2695 68.0973,7.6765 L68.0973,29.5015 C72.7603,27.2365 77.9933,25.9645 83.5253,25.9645 C103.0533,25.9645 118.8843,41.7955 118.8843,61.3235 C118.8843,80.8525 103.0533,96.6835 83.5253,96.6835 C63.9973,96.6835 48.1663,80.8525 48.1663,61.3235 C48.1663,56.6755 49.0713,52.2415 50.7013,48.1765 L29.2733,48.1765 C28.2543,52.3945 27.7013,56.7935 27.7013,61.3235 C27.7013,92.1545 52.6943,117.1475 83.5253,117.1475 C114.3563,117.1475 139.3493,92.1545 139.3493,61.3235 C139.3493,30.4935 114.3563,5.4995 83.5253,5.4995" id="Fill-10" fill="#FFFFFF" mask="url(#mask-2)"></path>
        </g>
    </g>
</svg>