<svg viewBox="0 0 395 395" fill="none" xmlns="http://www.w3.org/2000/svg">
<path fill-rule="evenodd" clip-rule="evenodd" d="M100 0C44.7715 0 0 44.7715 0 100V295C0 350.228 44.7715 395 100 395H295C350.228 395 395 350.228 395 295V100C395 44.7715 350.228 0 295 0H100Z" fill="white"/>
<path fill-rule="evenodd" clip-rule="evenodd" d="M100 0C44.7715 0 0 44.7715 0 100V295C0 350.228 44.7715 395 100 395H295C350.228 395 395 350.228 395 295V100C395 44.7715 350.228 0 295 0H100ZM350.171 181.427C350.724 186.769 351 192.204 351 197.454C351 213.665 348.513 229.6 343.631 244.89C336.907 265.431 326.223 284.037 311.669 300.156C297.116 316.275 279.707 328.894 259.996 337.736C240.285 346.579 219.284 351 197.546 351C175.808 351 154.807 346.579 135.096 337.736C115.293 328.894 97.976 316.275 83.4227 300.156C68.8695 284.037 58.1848 265.431 51.4608 244.89C46.4869 229.6 44 213.665 44 197.454C44 192.204 44.2763 186.861 44.829 181.427C47.0396 159.873 53.6715 139.517 64.5404 120.727C75.225 102.305 90.0546 85.8176 107.279 73.2907C124.78 60.5797 144.399 51.8293 165.584 47.3159C186.493 42.8947 208.507 42.8947 229.416 47.3159C250.509 51.7372 270.128 60.4876 287.721 73.2907C304.945 85.8176 319.775 102.213 330.46 120.727C341.329 139.425 347.96 159.873 350.171 181.427ZM308.169 161.439L345.197 177.927C342.802 159.781 337.184 142.373 328.433 126.346L308.169 161.439ZM197.362 272.431C238.811 272.431 272.339 238.811 272.339 197.454C272.339 156.005 238.811 122.477 197.362 122.477C155.913 122.477 122.385 156.005 122.385 197.454C122.385 238.903 155.913 272.431 197.362 272.431ZM81.949 204.362C81.8569 202.059 81.7648 199.757 81.7648 197.454C81.7648 186.769 83.2385 176.453 85.8176 166.689L51.2766 182.072L81.949 204.362ZM57.7243 242.864L94.7522 250.693C88.9493 239.64 84.9886 227.482 83.0543 214.678L57.7243 242.864ZM336.999 242.864L311.669 214.678C309.827 227.482 305.774 239.64 299.971 250.693L336.999 242.864ZM343.355 182.072L308.814 166.689C311.577 176.453 312.959 186.769 312.867 197.454C312.867 199.757 312.775 202.059 312.683 204.362L343.355 182.072ZM286.616 123.951C294.629 133.714 301.077 144.767 305.59 156.742L324.565 123.951H304.853H286.616ZM288.182 79.1857L285.879 101.108L283.945 119.53H324.473C314.985 104.055 302.551 90.2388 288.182 79.1857ZM279.707 116.306L281.55 98.6208L283.668 78.6331L263.957 87.3834L249.035 94.0153C260.457 99.7261 270.865 107.279 279.707 116.306ZM262.575 83.0543L281.826 74.4882C266.72 64.0798 250.048 56.7111 232.179 52.3819L244.245 89.4098L244.798 90.9757L262.575 83.0543ZM202.612 81.949C215.599 82.5016 228.126 85.2649 239.64 89.7783L227.942 53.7636L202.612 81.949ZM197.362 80.9358L224.534 50.8161C206.665 47.5002 188.059 47.5002 170.19 50.8161L197.362 80.9358ZM192.204 81.949L166.874 53.7636L155.176 89.7783C166.689 85.2649 179.216 82.5016 192.204 81.949ZM150.386 89.9625L162.545 52.3819C144.675 56.7111 128.096 64.0798 112.99 74.5803L149.649 90.8836L150.018 91.0678L150.386 89.9625ZM145.689 94.0153L132.517 88.2124L111.056 78.541L113.635 102.858L115.016 116.306C123.951 107.279 134.267 99.7261 145.689 94.0153ZM110.779 119.53L106.542 79.1857C92.1731 90.2388 79.7384 104.055 70.2511 119.53H110.779ZM89.1335 156.834C93.6469 144.86 100.095 133.806 108.108 124.043H70.2511L89.1335 156.834ZM86.5545 161.439L66.2904 126.346C57.5401 142.373 51.9214 159.781 49.5266 177.927L86.5545 161.439ZM48.6976 185.756C48.4212 189.717 48.237 193.585 48.237 197.454C48.237 211.823 50.3555 226.1 54.4083 239.732L81.4884 209.612L50.5398 187.138L48.6976 185.756ZM96.5023 255.667L56.8032 247.285C62.8824 264.509 72.0012 280.26 83.9754 294.261L96.5023 255.667ZM99.9103 259.72L88.2124 295.734L125.24 287.813C115.385 279.984 106.726 270.404 99.9103 259.72ZM128.925 291.59L89.2256 300.064C101.845 313.419 116.582 324.104 133.162 331.933L128.925 291.59ZM168.255 309.275C155.821 306.051 144.215 300.8 133.714 293.892L137.675 331.565L168.255 309.275ZM173.137 311.393L140.346 335.249C157.202 342.25 175.071 346.026 193.401 346.579L176.453 317.196L173.137 311.393ZM197.454 313.051C191.006 313.051 184.651 312.498 178.479 311.485L197.362 344.276L216.428 311.485C210.257 312.498 203.902 313.051 197.454 313.051ZM204.638 340.684L201.323 346.487C219.652 346.026 237.521 342.25 254.377 335.157L221.587 311.301L204.638 340.684ZM226.56 309.275L257.141 331.565L261.101 293.892C250.693 300.8 238.995 306.051 226.56 309.275ZM265.799 291.682L261.562 332.026C278.142 324.104 292.879 313.419 305.498 300.156L265.799 291.682ZM294.813 259.72C287.997 270.404 279.431 279.892 269.483 287.813L306.511 295.734L294.813 259.72ZM298.221 255.667L310.748 294.261C322.723 280.26 331.841 264.509 337.921 247.285L298.221 255.667ZM313.235 209.612L340.407 239.732C344.46 226.1 346.487 211.823 346.487 197.454C346.487 193.585 346.302 189.717 346.026 185.756L313.235 209.612Z" fill="black"/>
</svg>
