<svg viewBox="0 0 496 105" fill="none" xmlns="http://www.w3.org/2000/svg">
<path fill-rule="evenodd" clip-rule="evenodd" d="M488 14H308V92H488V14ZM347.742 70.4255C351.484 70.4255 356 69.5319 361.419 67.617V77.0638C357.032 78.8511 352.129 79.7447 346.71 79.7447C338.968 79.7447 332.903 77.4468 328.774 72.7234C324.645 68 322.581 61.3617 322.581 52.5532C322.581 47.0638 323.613 42.2128 325.677 38.1277C327.742 34.0426 330.581 30.8511 334.452 28.5532C338.194 26.383 342.71 25.234 347.742 25.234C352.903 25.234 358.194 26.5106 363.484 28.9362L359.871 38.1277C357.806 37.234 355.871 36.3404 353.806 35.7021C351.742 35.0638 349.806 34.6809 347.871 34.6809C343.613 34.6809 340.258 36.2128 337.935 39.4043C335.613 42.5957 334.452 47.0638 334.452 52.6808C334.323 64.4255 338.71 70.4255 347.742 70.4255ZM411.742 72.5957C407.355 77.3191 401.032 79.617 392.774 79.617C384.516 79.617 378.323 77.3191 373.806 72.5957C369.419 67.8723 367.226 61.1064 367.226 52.2979C367.226 43.4894 369.419 36.7234 373.806 32.1277C378.194 27.5319 384.516 25.1064 392.774 25.1064C401.032 25.1064 407.355 27.4043 411.613 32.1277C416 36.8511 418.194 43.617 418.194 52.2979C418.452 61.234 416.258 68 411.742 72.5957ZM474.065 78.9787H459.613L436.258 38.8936H435.871C436.387 45.9149 436.516 51.0213 436.516 54.0851V78.9787H426.452V26H440.774L464 65.7021H464.258C463.871 58.8085 463.742 53.9574 463.742 51.1489V26H473.935V78.9787H474.065Z" fill="white"/>
<path fill-rule="evenodd" clip-rule="evenodd" d="M392.629 34C388.129 34 384.786 35.5429 382.471 38.5C380.157 41.5857 379 46.0857 379 52C379 57.9143 380.157 62.4143 382.343 65.5C384.657 68.4571 388 70 392.5 70C401.5 70 406 63.9571 406 52C406 40.0429 401.5 34 392.629 34Z" fill="white"/>
<path d="M163 15H192.4C215.76 15 232 30.1451 232 53.0609C232 75.9767 215.789 91 192.4 91H163V15ZM192.311 77.3176C207.414 77.3176 216.208 66.2559 216.208 53.0915C216.208 39.348 207.984 28.7433 192.311 28.7433H178.463V77.3176H192.311Z" fill="white"/>
<path d="M242 16H300V29.7037H257.497V45.9999H299.97V59.7345H257.497V77.1729H299.97V91H242V16Z" fill="white"/>
<path d="M147.079 56.8212C144.28 54.2381 140.273 52.4852 135.147 51.5935C139.39 50.2712 142.778 48.1801 145.282 45.3511C148.258 42.0299 149.731 37.9094 149.731 33.1738C149.731 27.4541 147.345 22.9338 142.63 19.7357C138.005 16.5991 131.641 15 123.716 15C115.643 15 108.425 16.7529 102.208 20.1661C104.653 24.2561 106.627 28.6534 108.13 33.2967C110.664 31.7899 113.021 30.6829 115.171 30.0372C117.676 29.2377 120.18 28.8687 122.596 28.8687C129.431 28.8687 132.761 31.3902 132.761 36.5871C132.761 40.0004 131.524 42.3068 129.019 43.7213C126.397 45.1665 122.184 45.9046 116.438 45.9046H110.87C111.165 48.3954 111.312 50.9476 111.312 53.5308C111.312 55.4066 111.224 57.2824 111.076 59.0967H116.321C122.567 59.0967 127.133 59.804 129.932 61.1878C132.642 62.5408 133.939 64.7548 133.939 67.9837C133.939 71.6429 132.79 74.226 130.433 75.8558C128.018 77.5164 124.187 78.3775 119.061 78.3775C115.672 78.3775 112.196 77.9162 108.749 77.0243C108.218 76.8706 107.688 76.7476 107.158 76.5939C105.537 80.9297 103.445 85.0503 101 88.8634C106.863 90.9545 113.492 92 120.799 92C130.699 92 138.447 89.9704 143.81 85.9729C149.23 81.9138 152 76.1633 152 68.9061C152 63.8938 150.35 59.804 147.079 56.8212Z" fill="white"/>
<path d="M100 53.4845C100 51.7231 99.91 49.8998 99.73 48.1074C99.0099 40.8761 96.8498 34.0156 93.3094 27.7423C89.829 21.5307 84.9985 16.03 79.388 11.8272C73.6573 7.53165 67.2667 4.59586 60.396 3.11252C53.5854 1.62916 46.4146 1.62916 39.604 3.11252C32.7033 4.62676 26.3127 7.56255 20.6121 11.8272C15.0015 16.03 10.171 21.5616 6.69067 27.7423C3.15032 34.0465 0.990102 40.8761 0.270026 48.1074C0.0900127 49.9307 0 51.7231 0 53.4845C0 58.9235 0.810077 64.2697 2.43024 69.3996C4.62046 76.2911 8.10081 82.5335 12.8413 87.9415C17.5818 93.3495 23.2223 97.5832 29.6729 100.55C36.0936 103.517 42.9342 105 50.015 105C57.0958 105 63.9364 103.517 70.3571 100.55C76.7777 97.5832 82.4482 93.3495 87.1887 87.9415C91.9292 82.5335 95.4095 76.2911 97.5997 69.3996C99.1899 64.2697 100 58.9235 100 53.4845ZM98.1099 46.9331L86.0486 41.4015L92.6492 29.6273C95.4995 35.0045 97.3298 40.8452 98.1099 46.9331ZM74.3774 53.4845C74.3774 67.3601 63.4564 78.6397 49.955 78.6397C36.4536 78.6397 25.5326 67.391 25.5326 53.4845C25.5326 39.5781 36.4536 28.3294 49.955 28.3294C63.4564 28.3294 74.3774 39.5781 74.3774 53.4845ZM12.3013 53.4845C12.3013 54.2572 12.3313 55.0297 12.3613 55.8023L2.37024 48.3237L13.6214 43.1629C12.7813 46.4387 12.3013 49.8998 12.3013 53.4845ZM16.5317 71.3466L4.47045 68.7198L12.7213 59.2635C13.3513 63.559 14.6414 67.6382 16.5317 71.3466ZM87.1887 59.2635L95.4395 68.7198L83.3783 71.3466C85.2686 67.6382 86.5887 63.559 87.1887 59.2635ZM86.2586 43.1629L97.5097 48.3237L87.5187 55.8023C87.5487 55.0297 87.5787 54.2572 87.5787 53.4845C87.6087 49.8998 87.1587 46.4387 86.2586 43.1629ZM85.2085 39.8253C83.7383 35.8079 81.6382 32.0996 79.028 28.8239H84.9685H91.3891L85.2085 39.8253ZM78.7878 21.1599L79.5379 13.805C84.2185 17.5133 88.2689 22.1489 91.3591 27.3406H78.1578L78.7878 21.1599ZM77.3777 20.3255L76.7777 26.2589C73.8974 23.2304 70.5071 20.6964 66.7867 18.7804L71.6472 16.5553L78.0678 13.6196L77.3777 20.3255ZM77.4677 12.2289L71.1972 15.1029L65.4065 17.7605L65.2265 17.2352L61.2962 4.81218C67.1167 6.26462 72.5473 8.73687 77.4677 12.2289ZM63.7264 17.3588C59.976 15.8446 55.8956 14.9175 51.6651 14.7321L59.916 5.27572L63.7264 17.3588ZM58.8059 4.28683L49.955 14.3922L41.1041 4.28683C46.9247 3.17432 52.9853 3.17432 58.8059 4.28683ZM40.024 5.27572L48.2749 14.7321C44.0444 14.9175 39.964 15.8446 36.2136 17.3588L40.024 5.27572ZM38.6138 4.81218L34.6535 17.4206L34.5335 17.7914L34.4135 17.7296L22.4723 12.2598C27.3927 8.73687 32.7933 6.26462 38.6138 4.81218ZM28.833 16.8335L33.1233 18.7804C29.403 20.6964 26.0426 23.2304 23.1323 26.2589L22.6823 21.747L21.8422 13.5887L28.833 16.8335ZM20.3721 13.805L21.7522 27.3406H8.55086C11.6412 22.1489 15.6915 17.5133 20.3721 13.805ZM20.8821 28.8548C18.2718 32.1305 16.1717 35.8388 14.7014 39.8562L8.55086 28.8548H20.8821ZM7.26073 29.6273L13.8614 41.4015L1.80018 46.9331C2.58026 40.8452 4.41044 35.0045 7.26073 29.6273ZM1.38014 53.4845C1.38014 52.1866 1.44014 50.8887 1.53015 49.5599L2.13022 50.0234L12.2113 57.5637L3.39035 67.6691C2.07021 63.0954 1.38014 58.3055 1.38014 53.4845ZM4.17042 70.2031L17.1017 73.0153L13.0213 85.9637C9.12091 81.2665 6.15062 75.9821 4.17042 70.2031ZM14.4014 86.4582L18.2118 74.375C20.4321 77.9598 23.2523 81.1738 26.4627 83.8005L14.4014 86.4582ZM14.7315 87.9106L27.6628 85.0676L29.0429 98.6031C23.6423 95.9763 18.8419 92.3915 14.7315 87.9106ZM29.2229 85.8401C32.6432 88.1578 36.4236 89.9193 40.4741 91.0009L30.5131 98.4795L29.2229 85.8401ZM31.3831 99.7156L42.0642 91.7117L43.1444 93.6585L48.6649 103.517C42.6942 103.331 36.8737 102.064 31.3831 99.7156ZM43.8044 91.7426C45.8146 92.0825 47.8847 92.2679 49.985 92.2679C52.0853 92.2679 54.1554 92.0825 56.1656 91.7426L49.955 102.744L43.8044 91.7426ZM51.2451 103.486L52.3253 101.539L57.8458 91.6808L68.5268 99.6847C63.0363 102.064 57.2158 103.331 51.2451 103.486ZM69.4269 98.4795L59.4659 91.0009C63.5164 89.9193 67.3268 88.1578 70.7171 85.8401L69.4269 98.4795ZM70.8671 98.634L72.2472 85.0985L85.1785 87.9415C81.0681 92.3915 76.2677 95.9763 70.8671 98.634ZM73.4473 83.8005C76.6877 81.1429 79.478 77.9598 81.6982 74.375L85.5086 86.4582L73.4473 83.8005ZM86.8887 85.9637L82.8083 73.0153L95.7396 70.2031C93.7594 75.9821 90.7891 81.2665 86.8887 85.9637ZM96.5496 67.6691L87.6987 57.5637L98.3799 49.5599C98.4699 50.8887 98.5299 52.1866 98.5299 53.4845C98.5299 58.3055 97.8697 63.0954 96.5496 67.6691Z" fill="white"/>
</svg>
