<svg viewBox="0 0 395 395" fill="none" xmlns="http://www.w3.org/2000/svg">
<rect width="395" height="395" rx="100" fill="url(#paint0_linear_3_2)"/>
<path d="M350.76 197.059C350.76 191.803 350.483 186.363 349.93 181.016C347.717 159.44 341.079 138.972 330.199 120.254C319.503 101.722 304.659 85.3098 287.417 72.7703C269.806 59.9542 250.167 51.195 229.053 46.7693C208.123 42.3436 186.087 42.3436 165.157 46.7693C143.95 51.2872 124.311 60.0464 106.793 72.7703C89.5511 85.3098 74.7066 101.814 64.0111 120.254C53.1312 139.064 46.4927 159.44 44.2798 181.016C43.7266 186.456 43.45 191.803 43.45 197.059C43.45 213.286 45.9395 229.237 50.9184 244.543C57.6491 265.104 68.3446 283.729 82.9126 299.864C97.4805 316 114.815 328.631 134.638 337.483C154.369 346.334 175.391 350.76 197.151 350.76C218.911 350.76 239.933 346.334 259.664 337.483C279.395 328.631 296.822 316 311.39 299.864C325.958 283.729 336.653 265.104 343.384 244.543C348.271 229.237 350.76 213.286 350.76 197.059ZM344.951 177.512L307.886 161.008L328.17 125.879C336.93 141.922 342.554 159.348 344.951 177.512ZM272.019 197.059C272.019 238.458 238.458 272.112 196.967 272.112C155.476 272.112 121.914 238.55 121.914 197.059C121.914 155.568 155.476 122.006 196.967 122.006C238.458 122.006 272.019 155.568 272.019 197.059ZM81.2529 197.059C81.2529 199.364 81.3451 201.669 81.4373 203.974L50.734 181.661L85.3098 166.263C82.7281 176.037 81.2529 186.363 81.2529 197.059ZM94.2534 250.352L57.1881 242.515L82.5437 214.301C84.48 227.117 88.4447 239.288 94.2534 250.352ZM311.39 214.301L336.745 242.515L299.68 250.352C305.489 239.288 309.546 227.117 311.39 214.301ZM308.531 166.263L343.107 181.661L312.404 203.974C312.496 201.669 312.588 199.364 312.588 197.059C312.68 186.363 311.297 176.037 308.531 166.263ZM305.304 156.306C300.786 144.319 294.332 133.255 286.311 123.482H304.567H324.298L305.304 156.306ZM285.573 100.615L287.878 78.6712C302.262 89.7355 314.709 103.566 324.206 119.056H283.637L285.573 100.615ZM281.24 98.1259L279.395 115.829C270.544 106.793 260.125 99.2323 248.692 93.5158L263.629 86.8772L283.36 78.118L281.24 98.1259ZM281.516 73.9689L262.246 82.5437L244.451 90.4731L243.898 88.9057L231.819 51.8404C249.706 56.1739 266.395 63.5501 281.516 73.9689ZM239.288 89.2745C227.762 84.7566 215.223 81.9905 202.222 81.4373L227.578 53.2234L239.288 89.2745ZM224.166 50.273L196.967 80.4231L169.767 50.273C187.654 46.9537 206.279 46.9537 224.166 50.273ZM166.448 53.2234L191.803 81.4373C178.803 81.9905 166.263 84.7566 154.738 89.2745L166.448 53.2234ZM162.114 51.8404L149.944 89.4589L149.575 90.5653L149.206 90.3809L112.509 74.0611C127.631 63.5501 144.227 56.1739 162.114 51.8404ZM132.056 87.7071L145.241 93.5158C133.808 99.2323 123.482 106.793 114.538 115.829L113.155 102.367L110.573 78.0258L132.056 87.7071ZM106.055 78.6712L110.297 119.056H69.7276C79.2245 103.566 91.6718 89.7355 106.055 78.6712ZM107.623 123.574C99.6012 133.347 93.147 144.411 88.6291 156.398L69.7276 123.574H107.623ZM65.7629 125.879L86.0474 161.008L48.9821 177.512C51.3794 159.348 57.0037 141.922 65.7629 125.879ZM47.6913 197.059C47.6913 193.186 47.8757 189.314 48.1523 185.349L49.9964 186.732L80.9763 209.23L53.8689 239.38C49.812 225.734 47.6913 211.442 47.6913 197.059ZM56.2661 246.94L96.0053 255.331L83.4658 293.963C71.4795 279.949 62.3515 264.182 56.2661 246.94ZM87.7071 295.439L99.4167 259.388C106.24 270.083 114.907 279.672 124.772 287.509L87.7071 295.439ZM88.7213 299.772L128.46 291.29L132.702 331.674C116.105 323.837 101.353 313.141 88.7213 299.772ZM133.255 293.595C143.766 300.51 155.383 305.765 167.831 308.992L137.22 331.305L133.255 293.595ZM139.894 334.993L172.718 311.113L176.037 316.922L193.002 346.334C174.654 345.781 156.767 342.001 139.894 334.993ZM178.065 311.205C184.243 312.219 190.605 312.773 197.059 312.773C203.513 312.773 209.875 312.219 216.053 311.205L196.967 344.029L178.065 311.205ZM200.931 346.242L204.251 340.433L221.216 311.021L254.04 334.901C237.167 342.001 219.28 345.781 200.931 346.242ZM256.806 331.305L226.195 308.992C238.642 305.765 250.352 300.51 260.771 293.595L256.806 331.305ZM261.232 331.766L265.473 291.382L305.212 299.864C292.58 313.142 277.828 323.837 261.232 331.766ZM269.161 287.509C279.119 279.58 287.694 270.083 294.517 259.388L306.226 295.439L269.161 287.509ZM310.468 293.963L297.928 255.331L337.667 246.94C331.582 264.182 322.454 279.949 310.468 293.963ZM340.157 239.38L312.957 209.23L345.781 185.349C346.058 189.314 346.242 193.186 346.242 197.059C346.242 211.442 344.214 225.734 340.157 239.38Z" fill="white"/>
<defs>
<linearGradient id="paint0_linear_3_2" x1="0" y1="0" x2="395" y2="395" gradientUnits="userSpaceOnUse">
<stop stop-color="#1E70EB"/>
<stop offset="0.994792" stop-color="#0F3876"/>
</linearGradient>
</defs>
</svg>
