<svg width="374" height="133" viewBox="0 0 374 133" fill="none" xmlns="http://www.w3.org/2000/svg">
<g clip-path="url(#clip0_36_129)">
<path d="M134.74 118.536C140.131 118.536 143.664 121.659 143.664 125.749C143.664 129.839 140.094 132.963 134.74 132.963C129.348 132.963 125.816 129.839 125.816 125.749C125.816 121.659 129.311 118.536 134.74 118.536ZM134.74 119.614C130.278 119.614 127.452 122.217 127.452 125.749C127.452 129.282 130.278 131.884 134.74 131.884C139.165 131.884 142.028 129.282 142.028 125.749C141.991 122.217 139.127 119.614 134.74 119.614Z" fill="white"/>
<path d="M150.32 118.759H157.198C160.731 118.759 162.739 120.655 162.739 122.849C162.739 125.042 160.694 126.939 157.198 126.939H151.881V132.739H150.32V118.759ZM157.05 119.837H151.881V125.823H157.05C159.467 125.823 161.103 124.596 161.103 122.811C161.103 121.064 159.467 119.837 157.05 119.837Z" fill="white"/>
<path d="M168.837 118.759H180.512V119.837H170.398V125.005H180.289V126.084H170.398V131.624H180.512V132.702H168.837V118.759Z" fill="white"/>
<path d="M188.73 120.655V132.703H187.168V118.722H188.767L200.294 130.62V118.722H201.856V132.703H200.294L188.73 120.655Z" fill="white"/>
<path d="M218.774 129.951C219.777 131.066 221.599 131.884 223.942 131.884C226.768 131.884 228.59 130.769 228.59 128.91C228.59 126.902 226.396 126.084 223.645 126.084C222.901 126.084 222.194 126.084 221.934 126.121V125.005C222.194 125.043 222.901 125.043 223.645 125.043C226.061 125.043 228.292 124.262 228.292 122.365C228.292 120.618 226.247 119.651 223.868 119.651C221.785 119.651 220.298 120.283 218.922 121.436L217.918 120.692C219.183 119.502 221.228 118.573 223.942 118.573C227.14 118.573 229.891 119.874 229.891 122.254C229.891 124.373 227.512 125.303 225.95 125.526C227.549 125.638 230.189 126.716 230.189 128.984C230.189 131.252 227.883 133 223.979 133C220.967 133 218.774 131.921 217.732 130.657L218.774 129.951Z" fill="white"/>
<path d="M236.845 118.759H242.72C248.446 118.759 252.015 121.919 252.015 125.749C252.015 129.616 248.446 132.739 242.72 132.739H236.845V118.759ZM242.72 131.624C247.591 131.624 250.342 129.021 250.342 125.749C250.342 122.477 247.591 119.837 242.72 119.837H238.406V131.624H242.72Z" fill="white"/>
<path d="M268.599 118.759H280.275V119.837H270.161V125.005H280.052V126.084H270.161V131.624H280.275V132.702H268.599V118.759Z" fill="white"/>
<path d="M288.492 120.655V132.703H286.93V118.722H288.529L300.056 130.62V118.722H301.617V132.703H300.093L288.492 120.655Z" fill="white"/>
<path d="M317.606 118.536C320.655 118.536 322.849 119.465 324.522 120.915L323.332 121.547C322.031 120.358 319.948 119.614 317.606 119.614C313.293 119.614 309.946 122.105 309.946 125.749C309.946 129.356 313.293 131.922 317.606 131.922C320.06 131.922 321.994 130.992 322.998 130.211V126.865H316.007V125.786H324.559V130.657C322.886 132.033 320.469 133 317.569 133C312.4 133 308.236 130.062 308.236 125.749C308.236 121.436 312.4 118.536 317.606 118.536Z" fill="white"/>
<path d="M331.327 118.759H332.889V132.739H331.327V118.759Z" fill="white"/>
<path d="M341.813 120.655V132.703H340.251V118.722H341.85L353.377 130.62V118.722H354.938V132.703H353.377L341.813 120.655Z" fill="white"/>
<path d="M362.301 118.759H373.976V119.837H363.862V125.005H373.753V126.084H363.862V131.624H373.976V132.702H362.301V118.759Z" fill="white"/>
<path d="M203.194 14.9062H239.745C268.785 14.9062 288.976 33.3862 288.976 61.3479C288.976 89.3096 268.822 107.641 239.745 107.641H203.194V14.9062ZM239.634 90.9457C258.411 90.9457 269.343 77.4482 269.343 61.3851C269.343 44.6155 259.118 31.6758 239.634 31.6758H222.418V90.9457H239.634Z" fill="white"/>
<path d="M302.064 16.2076H374.013V32.7169H321.288V52.3496H373.976V68.8961H321.288V89.9045H373.976V106.563H302.064V16.2076Z" fill="white"/>
<path d="M183.896 65.3266C180.363 62.2032 175.307 60.0838 168.837 59.0055C174.191 57.4066 178.467 54.8781 181.628 51.4573C185.383 47.4415 187.242 42.459 187.242 36.7328C187.242 29.8167 184.23 24.3508 178.281 20.4838C172.443 16.6911 164.412 14.7576 154.41 14.7576C144.221 14.7576 135.112 16.877 127.266 21.0043C130.352 25.9497 132.843 31.2669 134.74 36.8815C137.938 35.0595 140.912 33.721 143.627 32.9401C146.787 31.9733 149.948 31.5271 152.997 31.5271C161.623 31.5271 165.825 34.5762 165.825 40.8601C165.825 44.9874 164.263 47.7762 161.103 49.4866C157.793 51.2342 152.476 52.1266 145.225 52.1266H138.198C138.57 55.1384 138.756 58.2246 138.756 61.348C138.756 63.6162 138.644 65.8843 138.458 68.0781H145.077C152.959 68.0781 158.723 68.9333 162.255 70.6066C165.676 72.2426 167.312 74.9198 167.312 78.824C167.312 83.2488 165.862 86.3722 162.887 88.3429C159.838 90.3508 155.005 91.3919 148.535 91.3919C144.259 91.3919 139.871 90.8342 135.521 89.7559C134.851 89.57 134.182 89.4212 133.513 89.2353C131.468 94.4781 128.828 99.4607 125.741 104.071C133.141 106.6 141.507 107.864 150.728 107.864C163.222 107.864 173.001 105.41 179.768 100.576C186.61 95.668 190.105 88.7147 190.105 79.9395C190.105 73.8787 188.023 68.9333 183.896 65.3266Z" fill="white"/>
<path d="M123 61.9814C123 59.8608 122.889 57.6658 122.668 55.508C121.782 46.8023 119.125 38.5431 114.77 30.9907C110.49 23.5128 104.548 16.8905 97.6472 11.8308C90.5986 6.65947 82.7381 3.12511 74.2871 1.33933C65.91 -0.446445 57.09 -0.446445 48.7129 1.33933C40.225 3.16232 32.3645 6.69667 25.3528 11.8308C18.4518 16.8905 12.5104 23.55 8.22952 30.9907C3.87489 38.5803 1.21782 46.8023 0.332134 55.508C0.110712 57.703 0 59.8608 0 61.9814C0 68.5293 0.996399 74.9655 2.9892 81.1413C5.68317 89.4378 9.964 96.9529 15.7948 103.464C21.6256 109.974 28.5635 115.071 36.4977 118.643C44.3951 122.214 52.8092 124 61.5185 124C70.2277 124 78.6418 122.214 86.5392 118.643C94.4365 115.071 101.411 109.974 107.242 103.464C113.073 96.9529 117.354 89.4378 120.048 81.1413C122.004 74.9655 123 68.5293 123 61.9814ZM120.675 54.0942L105.84 47.4347L113.959 33.2601C117.464 39.7336 119.716 46.7651 120.675 54.0942ZM91.4842 61.9814C91.4842 78.6859 78.0513 92.2652 61.4446 92.2652C44.838 92.2652 31.405 78.7231 31.405 61.9814C31.405 45.2397 44.838 31.6976 61.4446 31.6976C78.0513 31.6976 91.4842 45.2397 91.4842 61.9814ZM15.1305 61.9814C15.1305 62.9115 15.1674 63.8416 15.2043 64.7717L2.91539 55.7684L16.7543 49.5554C15.721 53.499 15.1305 57.6658 15.1305 61.9814ZM20.3339 83.4852L5.49865 80.3228L15.6472 68.9385C16.4221 74.1098 18.009 79.0207 20.3339 83.4852ZM107.242 68.9385L117.391 80.3228L102.555 83.4852C104.88 79.0207 106.504 74.1098 107.242 68.9385ZM106.098 49.5554L119.937 55.7684L107.648 64.7717C107.685 63.8416 107.722 62.9115 107.722 61.9814C107.759 57.6658 107.205 53.499 106.098 49.5554ZM104.806 45.5374C102.998 40.7009 100.415 36.2364 97.2043 32.2928H104.511H112.409L104.806 45.5374ZM96.9091 23.0663L97.8317 14.2118C103.589 18.6763 108.571 24.2568 112.372 30.5071H96.1341L96.9091 23.0663ZM95.1746 22.0618L94.4365 29.2049C90.8938 25.559 86.7237 22.5083 82.1476 20.2016L88.126 17.523L96.0234 13.9886L95.1746 22.0618ZM95.2853 12.3144L87.5725 15.7744L80.45 18.9739L80.2286 18.3414L75.3942 3.38554C82.5536 5.13411 89.2331 8.11041 95.2853 12.3144ZM78.3834 18.4902C73.7705 16.6673 68.7516 15.5512 63.5482 15.3279L73.6967 3.94359L78.3834 18.4902ZM72.3312 2.75308L61.4446 14.9187L50.5581 2.75308C57.7174 1.41374 65.1719 1.41374 72.3312 2.75308ZM49.2295 3.94359L59.378 15.3279C54.1746 15.5512 49.1557 16.6673 44.5428 18.4902L49.2295 3.94359ZM47.495 3.38554L42.6238 18.5647L42.4762 19.0111L42.3285 18.9367L27.6409 12.3516C33.6931 8.11041 40.3357 5.13411 47.495 3.38554ZM35.4644 17.8578L40.7417 20.2016C36.1656 22.5083 32.0324 25.559 28.4527 29.2049L27.8992 23.7732L26.8659 13.9514L35.4644 17.8578ZM25.0576 14.2118L26.7552 30.5071H10.5176C14.3186 24.2568 19.3006 18.6763 25.0576 14.2118ZM25.685 32.33C22.4744 36.2736 19.8911 40.7381 18.0828 45.5746L10.5176 32.33H25.685ZM8.93069 33.2601L17.0495 47.4347L2.21422 54.0942C3.17372 46.7651 5.42484 39.7336 8.93069 33.2601ZM1.69757 61.9814C1.69757 60.4188 1.77138 58.8563 1.88209 57.2565L2.62016 57.8146L15.0198 66.8923L4.17012 79.0579C2.54636 73.5518 1.69757 67.7852 1.69757 61.9814ZM5.12961 82.1086L21.0351 85.4942L16.0162 101.083C11.2187 95.4276 7.56526 89.0657 5.12961 82.1086ZM17.7138 101.678L22.4005 87.1311C25.1314 91.4468 28.6004 95.3159 32.5491 98.4783L17.7138 101.678ZM18.1197 103.426L34.0252 100.004L35.7228 116.299C29.0801 113.137 23.1755 108.821 18.1197 103.426ZM35.9442 100.934C40.1512 103.724 44.8011 105.845 49.7831 107.147L37.5311 116.15L35.9442 100.934ZM38.6013 117.638L51.739 108.002L53.0675 110.346L59.8578 122.214C52.514 121.991 45.3546 120.466 38.6013 117.638ZM53.8794 108.04C56.3519 108.449 58.8983 108.672 61.4816 108.672C64.0648 108.672 66.6112 108.449 69.0837 108.04L61.4446 121.284L53.8794 108.04ZM63.0315 122.177L64.36 119.833L71.1503 107.965L84.288 117.601C77.5347 120.466 70.3753 121.991 63.0315 122.177ZM85.3951 116.15L73.1431 107.147C78.1251 105.845 82.8119 103.724 86.982 100.934L85.3951 116.15ZM87.1665 116.336L88.8641 100.041L104.77 103.464C99.7138 108.821 93.8092 113.137 87.1665 116.336ZM90.3402 98.4783C94.3258 95.2787 97.7579 91.4468 100.489 87.1311L105.176 101.678L90.3402 98.4783ZM106.873 101.083L101.854 85.4942L117.76 82.1086C115.324 89.0657 111.671 95.4276 106.873 101.083ZM118.756 79.0579L107.869 66.8923L121.007 57.2565C121.118 58.8563 121.192 60.4188 121.192 61.9814C121.192 67.7852 120.38 73.5518 118.756 79.0579Z" fill="white"/>
</g>
<defs>
<clipPath id="clip0_36_129">
<rect width="374" height="133" fill="white"/>
</clipPath>
</defs>
</svg>
