<svg width="298" height="99" viewBox="0 0 298 99" fill="none" xmlns="http://www.w3.org/2000/svg">
<g clip-path="url(#clip0_1_34)">
<path d="M81.4955 67.9174L83.852 75.1972L86.2376 82.5364C90.8319 77.4372 94.3658 71.3952 96.5458 64.7048L89.0057 66.2963L81.4955 67.9174Z" fill="#1E70EB"/>
<path d="M57.1676 85.6012L53.3387 92.2329L49.4805 98.923C56.6374 98.923 63.4704 97.3902 69.5965 94.6498L63.3526 90.1107L57.1676 85.6012Z" fill="#1E70EB"/>
<path d="M71.1869 79.3528L70.3918 86.9867L69.5966 94.649C75.9583 91.8197 81.6131 87.6642 86.2375 82.5357L78.6973 80.9443L71.1869 79.3528Z" fill="#1E70EB"/>
<path d="M17.4655 67.9177L9.95512 66.3262L2.41528 64.7346C4.59476 71.3955 8.12906 77.467 12.7236 82.5661L15.1093 75.2271L17.4655 67.9177Z" fill="#4B8DEF"/>
<path d="M86.2367 53.299L91.3616 58.9873L96.5153 64.7346C98.0766 59.9304 98.9305 54.7727 98.9305 49.438C98.9305 47.6991 98.8425 45.9602 98.6656 44.2507L92.422 48.7896L86.2367 53.299Z" fill="#4B8DEF"/>
<path d="M84.6169 38.0023L91.6265 41.1265L98.6656 44.2506C97.9294 37.177 95.7206 30.5456 92.3035 24.6804L88.4454 31.3709L84.6169 38.0023Z" fill="#4B8DEF"/>
<path d="M27.7443 79.3531L20.2339 80.9447L12.6941 82.5365C17.2887 87.665 22.973 91.7908 29.3348 94.6498L28.5395 86.9867L27.7443 79.3531Z" fill="#4B8DEF"/>
<path d="M41.7931 85.6012L35.5786 90.1107L29.3347 94.6498C35.4902 97.391 42.2938 98.923 49.4507 98.923L45.6219 92.2625L41.7931 85.6012Z" fill="#4B8DEF"/>
<path d="M57.1672 85.6012L63.3523 90.1107L69.5962 94.6498L70.3914 86.9867L71.1866 79.3531C67.0632 82.3298 62.3214 84.5113 57.1672 85.6012Z" fill="#4B8DEF"/>
<path d="M81.4952 67.9176C78.9033 72.3975 75.369 76.2879 71.2163 79.3237V79.3532L78.7266 80.9448L86.2663 82.5364L83.8807 75.1975L81.4952 67.9176Z" fill="#4B8DEF"/>
<path d="M64.5015 15.6322L62.1453 8.32285L59.7597 0.984009L54.6055 6.7018L49.4807 12.4196C54.8411 12.449 59.9069 13.5691 64.5015 15.6322Z" fill="#D2E2FB"/>
<path d="M49.4509 12.4491L44.3262 6.73128L39.172 1.01349L36.7864 8.35227L34.4302 15.6321C39.0247 13.5985 44.12 12.4491 49.4509 12.4491Z" fill="#D2E2FB"/>
<path d="M22.0012 24.6805C25.4472 20.849 29.6884 17.7543 34.4302 15.6322L27.4205 12.5081L20.3813 9.38391L21.1766 17.047L22.0012 24.6805Z" fill="#D2E2FB"/>
<path d="M22.0014 24.6803L14.3437 24.6509H6.6272L10.4855 31.3413L14.3143 37.9727C15.9342 32.9918 18.5849 28.4824 22.0014 24.6803Z" fill="#D2E2FB"/>
<path d="M0.265259 44.2506L6.50918 48.7895L12.7236 53.2989C12.6058 52.0316 12.5175 50.7347 12.5175 49.4379C12.5175 45.4591 13.1655 41.598 14.3141 38.0023L7.30439 41.1265L0.265259 44.2506Z" fill="#D2E2FB"/>
<path d="M22.0012 24.6805L21.206 17.047L20.4108 9.38391C14.8148 13.4512 10.1319 18.668 6.65649 24.6805H14.3731H22.0012Z" fill="#A5C6F7"/>
<path d="M7.30439 41.097L14.3141 37.9728L10.4853 31.3414L6.62698 24.6804C3.23995 30.5456 1.00157 37.177 0.265259 44.2506L7.30439 41.097Z" fill="#A5C6F7"/>
<path d="M34.4302 15.6321L36.7864 8.35227L39.172 1.01349C32.2802 2.48714 25.8889 5.37551 20.3813 9.38382L27.4205 12.508L34.4302 15.6321Z" fill="#A5C6F7"/>
<path d="M49.4801 12.4196L54.6048 6.73127L59.759 0.984008C56.4308 0.276652 53.0144 -0.0770264 49.4801 -0.0770264C45.9458 -0.0770264 42.4999 0.306122 39.2012 0.984008L44.3554 6.73127L49.4801 12.4196Z" fill="#A5C6F7"/>
<path d="M84.6169 38.0023L88.4462 31.3709L92.3043 24.6804H84.5873H76.9301V24.7099C80.3759 28.4825 82.9972 33.0214 84.6169 38.0023Z" fill="#A5C6F7"/>
<path d="M64.5011 15.6322C69.243 17.7543 73.4841 20.849 76.93 24.6805H76.9595L77.7547 17.047L78.5499 9.38391L71.5108 12.5081L64.5011 15.6322Z" fill="#A5C6F7"/>
<path d="M12.7236 53.2988L7.56946 58.9872L2.41528 64.705L9.95512 66.2965L17.4655 67.8881C14.9325 63.5261 13.2538 58.5745 12.7236 53.2988Z" fill="#A5C6F7"/>
<path d="M27.7444 79.3532C23.5621 76.2879 20.0573 72.3975 17.4655 67.9176L15.1093 75.1975L12.7236 82.5364L20.2634 80.9448L27.7444 79.3532Z" fill="#A5C6F7"/>
<path d="M12.694 53.299L6.47954 48.7896L0.265072 44.2507C0.0883574 45.9602 0 47.6696 0 49.438C0 54.7727 0.854124 59.9304 2.4151 64.7346L7.56928 58.9873L12.694 53.299Z" fill="#78A9F3"/>
<path d="M76.9299 24.6805H84.5874H92.3044C88.8289 18.668 84.1161 13.4512 78.5498 9.38391L77.7546 17.047L76.9299 24.6805Z" fill="#78A9F3"/>
<path d="M64.5011 15.6323L71.5107 12.5082L78.5498 9.38397C73.0422 5.34616 66.6511 2.45779 59.7592 0.984131L62.1448 8.32296L64.5011 15.6323Z" fill="#78A9F3"/>
<path d="M57.1672 85.6012C54.6932 86.1322 52.1014 86.3972 49.4801 86.3972C46.8588 86.3972 44.267 86.1322 41.793 85.6012L45.6218 92.2329L49.4801 98.923L53.3383 92.2329L57.1672 85.6012Z" fill="#78A9F3"/>
<path d="M81.4949 67.9177L89.0049 66.3261L96.545 64.7345L91.3617 58.9873L86.2368 53.299C85.6774 58.5746 84.028 63.5262 81.4949 67.9177Z" fill="#78A9F3"/>
<path d="M86.4135 49.4379C86.4135 50.7348 86.3543 52.0316 86.2071 53.2989L92.4219 48.7895L98.6656 44.2506L91.6265 41.1265L84.6169 38.0023C85.7949 41.598 86.4135 45.4296 86.4135 49.4379Z" fill="#78A9F3"/>
<path d="M27.744 79.3531L28.5392 86.9867L29.3344 94.6498L35.5783 90.1107L41.7928 85.6012C36.6387 84.5113 31.8673 82.3298 27.744 79.3531Z" fill="#78A9F3"/>
<path d="M161.223 12.5964H190.175C213.177 12.5964 229.17 27.2446 229.17 49.4084C229.17 71.5722 213.177 86.1026 190.175 86.1026H161.223V12.5964ZM190.057 72.8396C204.931 72.8396 213.59 62.1408 213.59 49.4084C213.59 36.116 205.49 25.8594 190.057 25.8594H176.42V72.8396H190.057Z" fill="black"/>
<path d="M239.536 12.5964H298V26.0362H255.176V42.0106H298V55.4504H255.176V72.5448H298V86.1026H239.536V12.5964Z" fill="black"/>
<path d="M145.908 52.5619C143.11 50.0861 139.104 48.4061 133.98 47.5514C138.22 46.2841 141.608 44.2799 144.111 41.5683C147.086 38.3853 148.558 34.4358 148.558 29.897C148.558 24.415 146.173 20.0824 141.461 17.0173C136.836 14.0109 130.475 12.4784 122.552 12.4784C114.482 12.4784 107.266 14.1584 101.051 17.4298C103.496 21.3498 105.47 25.5644 106.972 30.0149C109.504 28.5707 111.86 27.5097 114.011 26.8907C116.514 26.1244 119.017 25.7708 121.432 25.7708C128.266 25.7708 131.594 28.1875 131.594 33.1685C131.594 36.4401 130.357 38.6505 127.853 40.0063C125.232 41.3915 121.02 42.0989 115.277 42.0989H109.711C110.005 44.4862 110.153 46.9324 110.153 49.4082C110.153 51.2061 110.064 53.0039 109.917 54.7429H115.159C121.404 54.7429 125.968 55.4208 128.766 56.747C131.476 58.0439 132.772 60.1659 132.772 63.2606C132.772 66.7679 131.623 69.2437 129.267 70.8057C126.852 72.3973 123.023 73.2225 117.898 73.2225C114.512 73.2225 111.036 72.7804 107.59 71.9257C107.06 71.7783 106.53 71.6604 105.999 71.5131C104.38 75.6688 102.288 79.6182 99.8445 83.2732C105.705 85.2768 112.332 86.2795 119.636 86.2795C129.532 86.2795 137.279 84.3343 142.639 80.5024C148.058 76.612 150.826 71.1005 150.826 64.1448C150.826 59.3406 149.177 55.4208 145.908 52.5619Z" fill="black"/>
<path d="M49.4802 12.4194C29.0697 12.4194 12.5175 28.9834 12.5175 49.4083C12.5175 69.8332 29.0697 86.3972 49.4802 86.3972C69.8908 86.3972 86.4432 69.8332 86.4432 49.4083C86.4432 28.9834 69.8908 12.4194 49.4802 12.4194ZM49.4802 73.3994C36.2561 73.3994 25.5059 62.6712 25.5059 49.4083C25.5059 36.1453 36.2266 25.4171 49.4802 25.4171C62.7339 25.4171 73.4545 36.1453 73.4545 49.4083C73.4545 62.6712 62.7044 73.3994 49.4802 73.3994Z" fill="black"/>
</g>
<defs>
<clipPath id="clip0_1_34">
<rect width="298" height="99" fill="white"/>
</clipPath>
</defs>
</svg>
