<svg width="298" height="120" viewBox="0 0 298 120" fill="none" xmlns="http://www.w3.org/2000/svg">
<path d="M218.249 28.8305C211.298 22.3261 201.75 18.8872 190.549 18.8872H165.307C163.427 18.8872 161.826 20.4885 161.826 22.4553V87.7689C161.826 89.7357 163.427 91.337 165.307 91.337H190.549C201.758 91.337 211.306 87.9179 218.247 81.4513C225.276 74.9033 228.991 65.8143 228.991 55.1677C228.991 44.5212 225.276 35.4063 218.249 28.8305ZM206.057 69.8512C202.251 73.8464 196.881 75.9562 190.525 75.9562H179.934C179.183 75.9562 178.574 75.3463 178.574 74.5953V35.6288C178.574 34.8779 179.183 34.268 179.934 34.268H190.525C203.51 34.268 211.576 42.2762 211.576 55.1677C211.576 60.9012 209.617 66.1162 206.057 69.8492V69.8512Z" fill="white"/>
<path d="M257.883 34.2699H295.272C296.78 34.2699 298 33.0481 298 31.5422V22.2069C298 20.3772 296.512 18.8892 294.209 18.8892H242.939C241.443 18.8892 239.844 20.4904 239.844 22.4572V87.7689C239.844 89.7357 241.445 91.3369 242.939 91.3369H294.209C296.51 91.3369 298 89.8489 298 88.0192V78.6838C298 77.176 296.778 75.9562 295.272 75.9562H257.883C257.132 75.9562 256.522 75.3463 256.522 74.5953V63.9785C256.522 63.2276 257.132 62.6177 257.883 62.6177H294.843C296.351 62.6177 297.571 61.3959 297.571 59.89V49.9646C297.571 48.4567 296.349 47.2369 294.843 47.2369H257.883C257.132 47.2369 256.522 46.627 256.522 45.876V35.6288C256.522 34.8779 257.132 34.2679 257.883 34.2679V34.2699Z" fill="white"/>
<path d="M146.217 57.3213C144.61 55.8849 142.619 54.7069 140.269 53.8009C139.599 53.5427 139.524 52.6308 140.14 52.2613C141.844 51.2401 143.334 50.0342 144.598 48.6495C147.637 45.3636 149.177 41.1459 149.177 36.3938C149.177 30.6503 146.707 26.1147 141.834 22.9103C137.213 19.8746 130.925 18.335 123.146 18.335C116.069 18.335 109.781 19.6839 104.087 22.3421C102.707 22.9877 101.904 24.6347 102.532 26.3055C102.584 26.4465 102.655 26.5776 102.729 26.7088C104.231 29.3411 105.542 32.1502 106.622 35.0607C107.065 36.2527 108.214 37.0533 109.481 37.0533C109.966 37.0533 110.453 36.9341 110.888 36.7096C112.577 35.8375 114.152 35.1859 115.594 34.7667C117.778 34.0912 119.838 33.7475 122.081 33.7475C129.485 33.7475 130.435 36.8408 130.435 39.5347C130.435 42.2286 129.523 44.0106 127.574 45.0775C125.265 46.3092 121.449 46.935 116.228 46.935H112.894C112.652 46.935 112.408 46.9589 112.171 47.0185C110.604 47.4217 109.712 48.8661 109.837 50.3203C109.978 51.9474 110.049 53.6162 110.049 55.279C110.049 56.2982 110.018 57.369 109.958 58.4577C109.91 59.302 110.214 60.1384 110.79 60.7543C111.369 61.3721 112.181 61.7257 113.022 61.7257H116.117C121.838 61.7257 126.002 62.3317 128.488 63.5217C130.608 64.5468 131.553 66.1103 131.553 68.5877C131.553 71.526 130.681 73.3398 128.81 74.5934C126.743 75.9701 123.255 76.6973 118.721 76.6973C115.624 76.6973 112.616 76.292 109.442 75.4953C109.177 75.4218 108.903 75.3841 108.629 75.3841C107.403 75.3841 106.303 76.1251 105.826 77.2694C104.719 79.9256 103.382 82.546 101.852 85.0591C101.34 85.8995 101.253 86.9127 101.616 87.8305C101.974 88.7385 102.764 89.408 103.694 89.6762C108.774 91.1423 114.263 91.8853 120.374 91.8853C130.065 91.8853 137.68 89.9344 143.004 86.0863C148.531 82.0772 151.332 76.5681 151.332 69.438C151.332 64.3978 149.61 60.3192 146.217 57.3193V57.3213Z" fill="white"/>
<path d="M48.5661 6.54614C21.7878 6.54614 0 28.3339 0 55.1122C0 81.8905 21.7878 103.678 48.5661 103.678C75.3443 103.678 97.1321 81.8905 97.1321 55.1122C97.1321 28.3339 75.3443 6.54614 48.5661 6.54614ZM69.6923 55.1122C69.6923 66.76 60.2159 76.2384 48.5661 76.2384C36.9162 76.2384 27.4398 66.762 27.4398 55.1122C27.4398 43.4624 36.9162 33.986 48.5661 33.986C60.2159 33.986 69.6923 43.4624 69.6923 55.1122V55.1122ZM41.573 90.447C43.8358 90.894 46.1741 91.1344 48.5661 91.1344C50.958 91.1344 53.2963 90.894 55.5591 90.447L55.6247 90.4947L48.5661 102.721L41.5074 90.4927L41.571 90.447H41.573ZM82.6592 43.5101C81.1235 39.0122 78.7256 34.9157 75.6582 31.4132L75.6701 31.302H89.8013L82.7327 43.5438L82.6573 43.5101H82.6592ZM74.9629 30.6384C71.7902 27.2174 67.9619 24.4162 63.6806 22.4295L63.6508 22.3401L76.5463 16.5987L75.0702 30.6404H74.9609L74.9629 30.6384ZM63.4462 21.7044L59.1232 8.3997C65.3633 9.81024 71.1425 12.4386 76.2026 16.0245L63.4462 21.7044V21.7044ZM62.8363 21.9766L62.7588 22.0123C58.5471 20.2005 53.9241 19.1734 49.0727 19.1078L49.017 19.0462L58.4736 8.54473L62.8383 21.9786L62.8363 21.9766ZM48.0654 19.1058C43.212 19.1734 38.585 20.1985 34.3733 22.0123L34.2978 21.9786L38.6645 8.54076L48.123 19.0443L48.0674 19.1058H48.0654ZM33.6859 21.7064L20.9295 16.0265C25.9896 12.4386 31.7688 9.80825 38.0109 8.3997L33.6879 21.7064H33.6859ZM33.4793 22.3421L33.4515 22.4295C29.1702 24.4182 25.3439 27.2194 22.1692 30.6384H22.056L20.5799 16.5987L33.4773 22.3421H33.4793ZM21.4699 31.4192C18.4045 34.9197 16.0086 39.0142 14.4729 43.5081L14.3974 43.5418L7.33279 31.304H21.458L21.4699 31.4192V31.4192ZM13.7875 43.814L1.00327 49.5038C1.75423 43.1008 3.76871 37.0832 6.79639 31.7033L13.7875 43.812V43.814ZM14.1212 44.3921L14.155 44.4517C13.108 47.8231 12.5438 51.4051 12.5438 55.1162C12.5438 56.2188 12.6014 57.3075 12.6988 58.3842L12.6412 58.4478L1.20789 50.1396L14.1212 44.3902V44.3921ZM12.8061 59.3875C13.3742 64.1615 14.8742 68.6493 17.1271 72.6684L17.0953 72.7637L3.28595 69.8294L12.7325 59.3378L12.8041 59.3895L12.8061 59.3875ZM16.8887 73.3975L12.5756 86.6744C8.46717 81.9938 5.25672 76.5106 3.21045 70.491L16.8887 73.3975V73.3975ZM17.5423 73.5365L17.6376 73.5564C20.0554 77.5953 23.238 81.1256 26.9889 83.9407L26.9988 84.0321L13.1756 86.9704L17.5403 73.5365H17.5423ZM27.8233 84.5367C31.6079 87.2127 35.9269 89.1756 40.5896 90.2345L40.6333 90.31L29.202 98.6162L27.7239 84.5586L27.8253 84.5367H27.8233ZM40.9671 90.8881L47.9601 103.001C41.4657 102.919 35.2772 101.545 29.645 99.1129L40.9671 90.8881V90.8881ZM56.167 90.8881L67.4871 99.1129C61.8549 101.545 55.6684 102.919 49.176 103.001L56.169 90.8901L56.167 90.8881ZM56.5008 90.31L56.5445 90.2325C61.2032 89.1736 65.5203 87.2128 69.3049 84.5387L69.4042 84.5606L67.9261 98.6142L56.4988 90.312L56.5008 90.31ZM70.1373 83.9427C73.8901 81.1276 77.0747 77.5953 79.4945 73.5524L79.5878 73.5326L83.9545 86.9724L70.1273 84.0341L70.1373 83.9427V83.9427ZM80.2415 73.3935L93.9236 70.485C91.8774 76.5066 88.6669 81.9918 84.5565 86.6724L80.2415 73.3935V73.3935ZM80.0348 72.7578L80.005 72.6644C82.2579 68.6474 83.7579 64.1575 84.326 59.3835L84.3996 59.3299L93.8462 69.8215L80.0348 72.7578V72.7578ZM84.4333 58.3763C84.5307 57.2995 84.5883 56.2128 84.5883 55.1122C84.5883 51.4031 84.0241 47.8231 82.9771 44.4517L83.0109 44.3921L95.9202 50.1396L84.4929 58.4418L84.4333 58.3763ZM83.3466 43.814L90.3377 31.7053C93.3654 37.0852 95.3799 43.1048 96.1308 49.5058L83.3466 43.814ZM89.7238 30.6365H75.7417L77.2019 16.7338C82.2301 20.4945 86.4915 25.2248 89.7218 30.6365H89.7238ZM57.9391 8.13746L48.568 18.5456L39.1969 8.13746C42.2286 7.53352 45.3616 7.21168 48.568 7.21168C51.7745 7.21168 54.9075 7.53352 57.9411 8.13746H57.9391ZM19.9283 16.7377L21.3885 30.6384H7.41027C10.6406 25.2268 14.9 20.4985 19.9263 16.7377H19.9283ZM0.874133 50.7177L12.1942 58.9425L2.82305 69.3486C1.42047 64.8488 0.663547 60.0689 0.663547 55.1142C0.663547 53.6321 0.741027 52.166 0.874133 50.7177V50.7177ZM13.406 87.6002L27.0703 84.6956L28.5325 98.6083C22.7871 95.9521 17.6535 92.1933 13.406 87.6002V87.6002ZM68.5956 98.6103L70.0578 84.6976L83.7241 87.6021C79.4766 92.1953 74.3411 95.9521 68.5956 98.6083V98.6103ZM94.309 69.3467L84.9379 58.9405L96.256 50.7177C96.3891 52.166 96.4666 53.6321 96.4666 55.1142C96.4666 60.0689 95.7097 64.8488 94.3071 69.3467H94.309Z" fill="white"/>
</svg>
