<?xml version="1.0" encoding="UTF-8"?>
<svg width="350px" height="99px" viewBox="0 0 350 99" version="1.1" xmlns="http://www.w3.org/2000/svg" xmlns:xlink="http://www.w3.org/1999/xlink">
    <title>O3DE-Logo-REV-Mono</title>
    <g id="O3DE-Logo-REV-Mono" stroke="none" stroke-width="1" fill="none" fill-rule="evenodd">
        <g id="O3DE-Logo-with-WorkMark-REV-Mono" transform="translate(-0.060000, 0.000000)" fill="#FFFFFF">
            <path d="M187.562,26.549 C187.562,32.293 185.822,37.178 182.341,41.203 C178.861,45.228 173.977,47.995 167.687,49.505 L167.687,49.882 C175.109,50.805 180.727,53.058 184.543,56.643 C188.358,60.228 190.266,65.061 190.266,71.14 C190.266,79.989 187.059,86.875 180.644,91.801 C174.228,96.728 165.067,99.191 153.159,99.191 C143.18,99.191 134.332,97.535 126.618,94.222 L126.618,77.681 C130.181,79.485 134.102,80.951 138.379,82.083 C142.656,83.216 146.891,83.781 151.083,83.781 C157.498,83.781 162.236,82.693 165.297,80.511 C168.358,78.331 169.889,74.831 169.889,70.008 C169.889,65.69 168.128,62.63 164.606,60.825 C161.083,59.023 155.464,58.121 147.75,58.121 L140.769,58.121 L140.769,43.216 L147.876,43.216 C155.004,43.216 160.213,42.283 163.505,40.417 C166.796,38.551 168.442,35.354 168.442,30.825 C168.442,23.865 164.081,20.385 155.36,20.385 C152.341,20.385 149.269,20.888 146.146,21.894 C143.022,22.901 139.552,24.642 135.737,27.115 L126.744,13.718 C135.129,7.68 145.129,4.661 156.744,4.661 C166.262,4.661 173.777,6.591 179.291,10.448 C184.804,14.305 187.562,19.673 187.562,26.549" id="Fill-19"></path>
            <path d="M261.093,51.538 C261.093,31.236 252.127,21.084 234.196,21.084 L223.527,21.084 L223.527,82.639 L232.126,82.639 C251.437,82.639 261.093,72.273 261.093,51.538 Z M281.913,51.021 C281.913,66.583 277.484,78.5 268.625,86.777 C259.768,95.053 246.976,99.191 230.251,99.191 L203.483,99.191 L203.483,4.661 L233.162,4.661 C248.592,4.661 260.576,8.735 269.111,16.882 C277.646,25.029 281.913,36.408 281.913,51.021 L281.913,51.021 Z" id="Fill-20"></path>
            <polyline id="Fill-21" points="349.64 99.191 295.198 99.191 295.198 4.661 349.64 4.661 349.64 21.084 315.242 21.084 315.242 41.84 347.247 41.84 347.247 58.262 315.242 58.262 315.242 82.639 349.64 82.639 349.64 99.191"></polyline>
            <path d="M72.71,4.661 C68.177,4.661 63.799,5.313 59.648,6.505 L59.648,24.983 C63.596,23.066 68.027,21.988 72.71,21.988 C89.245,21.988 102.648,35.392 102.648,51.926 C102.648,68.46 89.245,81.865 72.71,81.865 C56.176,81.865 42.773,68.46 42.773,51.926 C42.773,47.99 43.539,44.237 44.92,40.794 L26.777,40.794 C25.914,44.365 25.446,48.09 25.446,51.926 C25.446,78.03 46.607,99.191 72.71,99.191 C98.814,99.191 119.976,78.03 119.976,51.926 C119.976,25.823 98.814,4.661 72.71,4.661" id="Fill-22"></path>
            <g id="Group-27">
                <polyline id="Fill-23" points="53.023 29.655 30.237 34.445 25.447 11.66 48.232 6.869 53.023 29.655"></polyline>
                <polygon id="Fill-25" points="11.806 9.313 21.12 9.313 21.12 0 11.806 0"></polygon>
                <polyline id="Fill-26" points="14.761 31.326 0 27.533 3.793 12.773 18.554 16.566 14.761 31.326"></polyline>
            </g>
        </g>
    </g>
</svg>