<svg width="298" height="99" viewBox="0 0 298 99" fill="none" xmlns="http://www.w3.org/2000/svg">
<path d="M81.4955 67.9944L83.852 75.2742L86.2376 82.6134C90.8319 77.5142 94.3658 71.4722 96.5458 64.7819L89.0057 66.3733L81.4955 67.9944Z" fill="#1E70EB"/>
<path d="M57.1675 85.6782L53.3386 92.3099L49.4803 99C56.6373 99 63.4703 97.4672 69.5964 94.7268L63.3525 90.1877L57.1675 85.6782Z" fill="#1E70EB"/>
<path d="M71.1869 79.4298L70.3918 87.0637L69.5966 94.726C75.9583 91.8967 81.6131 87.7412 86.2375 82.6127L78.6973 81.0214L71.1869 79.4298Z" fill="#1E70EB"/>
<path d="M17.4655 67.9947L9.95512 66.4032L2.41528 64.8116C4.59476 71.4725 8.12906 77.544 12.7236 82.6431L15.1093 75.3041L17.4655 67.9947Z" fill="#4B8DEF"/>
<path d="M86.2367 53.3759L91.3616 59.0642L96.5153 64.8115C98.0766 60.0073 98.9305 54.8496 98.9305 49.5149C98.9305 47.776 98.8425 46.0371 98.6656 44.3276L92.422 48.8665L86.2367 53.3759Z" fill="#4B8DEF"/>
<path d="M84.6169 38.0793L91.6265 41.2035L98.6656 44.3276C97.9294 37.2541 95.7206 30.6226 92.3035 24.7574L88.4454 31.4479L84.6169 38.0793Z" fill="#4B8DEF"/>
<path d="M27.7443 79.4302L20.2339 81.0217L12.6941 82.6135C17.2887 87.742 22.973 91.8678 29.3348 94.7268L28.5395 87.0637L27.7443 79.4302Z" fill="#4B8DEF"/>
<path d="M41.7931 85.6782L35.5786 90.1877L29.3347 94.7268C35.4902 97.468 42.2938 99 49.4507 99L45.6219 92.3395L41.7931 85.6782Z" fill="#4B8DEF"/>
<path d="M57.1674 85.6782L63.3524 90.1877L69.5963 94.7268L70.3915 87.0637L71.1867 79.4302C67.0634 82.4069 62.3216 84.5883 57.1674 85.6782Z" fill="#4B8DEF"/>
<path d="M81.4952 67.9946C78.9033 72.4745 75.369 76.365 71.2163 79.4008V79.4302L78.7266 81.0218L86.2663 82.6134L83.8807 75.2745L81.4952 67.9946Z" fill="#4B8DEF"/>
<path d="M64.5013 15.7092L62.1452 8.39988L59.7595 1.06104L54.6053 6.77882L49.4806 12.4966C54.8409 12.5261 59.9068 13.6461 64.5013 15.7092Z" fill="#D2E2FB"/>
<path d="M49.4511 12.5261L44.3263 6.8083L39.1721 1.09052L36.7865 8.4293L34.4303 15.7091C39.0249 13.6755 44.1202 12.5261 49.4511 12.5261Z" fill="#D2E2FB"/>
<path d="M22.0012 24.7575C25.4472 20.926 29.6884 17.8314 34.4302 15.7092L27.4205 12.5851L20.3813 9.46094L21.1766 17.124L22.0012 24.7575Z" fill="#D2E2FB"/>
<path d="M22.0014 24.7574L14.3437 24.7279H6.6272L10.4855 31.4183L14.3143 38.0498C15.9342 33.0689 18.5849 28.5595 22.0014 24.7574Z" fill="#D2E2FB"/>
<path d="M0.265259 44.3275L6.50918 48.8664L12.7236 53.3758C12.6058 52.1085 12.5175 50.8116 12.5175 49.5148C12.5175 45.536 13.1655 41.6749 14.3141 38.0792L7.30439 41.2034L0.265259 44.3275Z" fill="#D2E2FB"/>
<path d="M22.0012 24.7575L21.206 17.124L20.4108 9.46094C14.8148 13.5283 10.1319 18.745 6.65649 24.7575H14.3731H22.0012Z" fill="#A5C6F7"/>
<path d="M7.30439 41.174L14.3141 38.0498L10.4853 31.4184L6.62698 24.7574C3.23995 30.6226 1.00157 37.2541 0.265259 44.3276L7.30439 41.174Z" fill="#A5C6F7"/>
<path d="M34.4302 15.7091L36.7864 8.4293L39.172 1.09052C32.2802 2.56417 25.8889 5.45253 20.3813 9.46084L27.4205 12.585L34.4302 15.7091Z" fill="#A5C6F7"/>
<path d="M49.4802 12.4966L54.6049 6.80829L59.7591 1.06103C56.4309 0.353678 53.0145 0 49.4802 0C45.9459 0 42.5 0.383148 39.2013 1.06103L44.3555 6.80829L49.4802 12.4966Z" fill="#A5C6F7"/>
<path d="M84.6169 38.0793L88.4462 31.4479L92.3043 24.7574H84.5873H76.9301V24.7869C80.3759 28.5595 82.9972 33.0984 84.6169 38.0793Z" fill="#A5C6F7"/>
<path d="M64.501 15.7092C69.2429 17.8314 73.484 20.926 76.9299 24.7575H76.9594L77.7546 17.124L78.5498 9.46094L71.5107 12.5851L64.501 15.7092Z" fill="#A5C6F7"/>
<path d="M12.7236 53.3757L7.56946 59.0641L2.41528 64.7819L9.95512 66.3734L17.4655 67.965C14.9325 63.603 13.2538 58.6514 12.7236 53.3757Z" fill="#A5C6F7"/>
<path d="M27.7444 79.4302C23.5621 76.365 20.0573 72.4745 17.4655 67.9946L15.1093 75.2745L12.7236 82.6134L20.2634 81.0218L27.7444 79.4302Z" fill="#A5C6F7"/>
<path d="M12.694 53.376L6.47954 48.8666L0.265072 44.3278C0.0883574 46.0372 0 47.7467 0 49.515C0 54.8497 0.854124 60.0074 2.4151 64.8116L7.56928 59.0643L12.694 53.376Z" fill="#78A9F3"/>
<path d="M76.9298 24.7575H84.5873H92.3043C88.8287 18.745 84.116 13.5283 78.5497 9.46094L77.7545 17.124L76.9298 24.7575Z" fill="#78A9F3"/>
<path d="M64.5011 15.7093L71.5107 12.5852L78.5498 9.461C73.0422 5.42318 66.6511 2.53482 59.7592 1.06116L62.1448 8.39998L64.5011 15.7093Z" fill="#78A9F3"/>
<path d="M57.1673 85.6782C54.6933 86.2092 52.1015 86.4742 49.4802 86.4742C46.8589 86.4742 44.2671 86.2092 41.7931 85.6782L45.622 92.3099L49.4802 99L53.3385 92.3099L57.1673 85.6782Z" fill="#78A9F3"/>
<path d="M81.4949 67.9946L89.0049 66.403L96.545 64.8114L91.3617 59.0642L86.2368 53.3759C85.6774 58.6516 84.028 63.6031 81.4949 67.9946Z" fill="#78A9F3"/>
<path d="M86.4135 49.5149C86.4135 50.8118 86.3543 52.1086 86.2071 53.376L92.4219 48.8665L98.6656 44.3277L91.6265 41.2035L84.6169 38.0793C85.7949 41.6751 86.4135 45.5066 86.4135 49.5149Z" fill="#78A9F3"/>
<path d="M27.7441 79.4302L28.5394 87.0637L29.3345 94.7268L35.5784 90.1877L41.7929 85.6782C36.6388 84.5883 31.8674 82.4069 27.7441 79.4302Z" fill="#78A9F3"/>
<path d="M161.223 12.6735H190.174C213.177 12.6735 229.17 27.3216 229.17 49.4854C229.17 71.6492 213.177 86.1796 190.174 86.1796H161.223V12.6735ZM190.057 72.9166C204.931 72.9166 213.589 62.2178 213.589 49.4854C213.589 36.193 205.49 25.9364 190.057 25.9364H176.42V72.9166H190.057Z" fill="white"/>
<path d="M239.536 12.6735H298V26.1132H255.176V42.0877H298V55.5274H255.176V72.6218H298V86.1796H239.536V12.6735Z" fill="white"/>
<path d="M145.908 52.6389C143.11 50.1631 139.104 48.4831 133.98 47.6284C138.22 46.3611 141.608 44.3569 144.111 41.6453C147.086 38.4623 148.558 34.5129 148.558 29.974C148.558 24.492 146.173 20.1594 141.461 17.0943C136.836 14.088 130.475 12.5554 122.552 12.5554C114.482 12.5554 107.266 14.2354 101.051 17.5069C103.496 21.4268 105.47 25.6414 106.972 30.0919C109.504 28.6477 111.86 27.5867 114.011 26.9678C116.514 26.2015 119.017 25.8478 121.432 25.8478C128.266 25.8478 131.594 28.2645 131.594 33.2455C131.594 36.5171 130.357 38.7275 127.853 40.0833C125.232 41.4685 121.02 42.1759 115.277 42.1759H109.711C110.005 44.5632 110.153 47.0095 110.153 49.4852C110.153 51.2831 110.064 53.0809 109.917 54.8199H115.159C121.404 54.8199 125.968 55.4978 128.766 56.824C131.476 58.1209 132.772 60.2429 132.772 63.3376C132.772 66.8449 131.623 69.3207 129.267 70.8827C126.852 72.4743 123.023 73.2995 117.898 73.2995C114.512 73.2995 111.036 72.8574 107.59 72.0027C107.06 71.8553 106.53 71.7374 105.999 71.5901C104.38 75.7458 102.288 79.6952 99.8445 83.3502C105.705 85.3538 112.332 86.3565 119.636 86.3565C129.532 86.3565 137.279 84.4113 142.639 80.5794C148.058 76.689 150.826 71.1775 150.826 64.2218C150.826 59.4177 149.177 55.4978 145.908 52.6389Z" fill="white"/>
<path d="M49.4802 12.4965C29.0697 12.4965 12.5175 29.0604 12.5175 49.4853C12.5175 69.9102 29.0697 86.4742 49.4802 86.4742C69.8908 86.4742 86.4432 69.9102 86.4432 49.4853C86.4432 29.0604 69.8908 12.4965 49.4802 12.4965ZM49.4802 73.4764C36.2561 73.4764 25.5059 62.7482 25.5059 49.4853C25.5059 36.2224 36.2266 25.4941 49.4802 25.4941C62.7339 25.4941 73.4545 36.2224 73.4545 49.4853C73.4545 62.7482 62.7044 73.4764 49.4802 73.4764Z" fill="white"/>
</svg>
