<svg id="Layer_1" data-name="Layer 1" xmlns="http://www.w3.org/2000/svg" viewBox="0 0 405.8459 123.1622"><defs><style>.cls-1{fill:#fff;}.cls-1,.cls-2{fill-rule:evenodd;}.cls-2{fill:#1e70eb;}</style></defs><g id="Branding-_-Open-3D-Engine-_-Logo-_-Default" data-name="Branding-/-Open-3D-Engine-/-Logo-/-Default"><g id="Open-3D-Engine-Logo"><polygon id="Fill-12" class="cls-1" points="405.846 121.513 341.545 121.513 341.545 9.866 405.846 9.866 405.846 29.262 365.219 29.262 365.219 53.777 403.021 53.777 403.021 73.174 365.219 73.174 365.219 101.964 405.846 101.964 405.846 121.513"/><path id="Fill-6" class="cls-1" d="M304.7541,65.4515q0-35.907-31.713-35.907h-12.579V102.12h10.14q34.1505,0,34.152-36.668m24.548-.61q0,27.522-15.666,42.157-15.666,14.637-45.245,14.637h-31.562V10.1815h34.992q27.291,0,42.386,14.408t15.095,40.252" transform="translate(0 0.001)"/><path id="Fill-3" class="cls-1" d="M221.3088,35.11a26.2264,26.2264,0,0,1-6.328,17.763q-6.3285,7.3185-17.762,10.062v.458q13.4925,1.6785,20.431,8.195,6.936,6.5175,6.936,17.572,0,16.086-11.663,25.043t-33.315,8.958q-18.1425,0-32.17-6.023V97.0892a72.6474,72.6474,0,0,0,14.255,5.335,59.9568,59.9568,0,0,0,15.4,2.059q11.664,0,17.229-3.964t5.565-12.731q0-7.8525-6.404-11.131-6.4035-3.276-20.43-3.277H164.59V55.3122h8.615q12.96,0,18.944-3.392t5.985-11.626q0-12.654-15.857-12.655a36.3145,36.3145,0,0,0-11.169,1.829,54.5779,54.5779,0,0,0-12.616,6.328L147.59,19.5582Q162.8358,8.58,183.9538,8.58q17.3055,0,27.33,7.014,10.023,7.014,10.025,19.516" transform="translate(0 0.001)"/><path id="Fill-1" class="cls-2" d="M125.6369,25.7376a56.9851,56.9851,0,0,0-40.574-17.191h-.281a57.1152,57.1152,0,0,0-15.868,2.249v21.135a37.3749,37.3749,0,0,1,15.537-3.556c.147-.002.293-.002.439-.002a36.9467,36.9467,0,0,1,26.044,10.686,37.3576,37.3576,0,0,1,.326,53.244v-.001a37.163,37.163,0,0,1-26.387,11.057h-.106a37.4954,37.4954,0,0,1-34.983-51.006H29.0749a57.3323,57.3323,0,0,0,55.459,70.808h.275a57.3655,57.3655,0,0,0,57.237-56.973,56.744,56.744,0,0,0-16.409-40.45" transform="translate(0 0.001)"/><polygon id="Fill-8" class="cls-2" points="29.214 38.335 56.761 38.335 56.761 10.788 29.214 10.788 29.214 38.335"/><polygon id="Fill-10" class="cls-2" points="6.616 11.389 18.005 11.389 18.005 0 6.616 0 6.616 11.389"/><polygon id="Fill-11" class="cls-2" points="0 45.609 17.867 45.609 17.867 27.741 0 27.741 0 45.609"/></g></g></svg>