<svg id="Layer_1" data-name="Layer 1" xmlns="http://www.w3.org/2000/svg" viewBox="0 0 210.69 112.09"><defs><style>.cls-1,.cls-8{fill:#c83232;}.cls-2,.cls-4,.cls-6{fill:none;stroke-miterlimit:10;stroke-width:3px;}.cls-2{stroke:#c83232;}.cls-3,.cls-7{fill:#3232c8;}.cls-4{stroke:#3232c8;}.cls-5,.cls-9{fill:#32c832;}.cls-6{stroke:#32c832;}.cls-7,.cls-8,.cls-9{isolation:isolate;font-size:7px;font-family:SegoeUI-Bold, Segoe UI;font-weight:700;}</style></defs><polygon class="cls-1" points="79.59 91.11 71.3 86.41 70.28 93.14 79.59 91.11"/><line class="cls-2" x1="74.02" y1="90.17" x2="41.71" y2="85.45"/><polygon class="cls-3" points="42.25 34.33 38.85 46.62 45.65 46.62 42.25 34.33"/><line class="cls-4" x1="42.15" y1="42.13" x2="42.35" y2="87.23"/><polygon class="cls-5" points="16.71 104.3 24.83 102.51 20.79 97.05 16.71 104.3"/><line class="cls-6" x1="20.64" y1="101.51" x2="42.89" y2="84.79"/><circle class="cls-5" cx="42.45" cy="84.79" r="2.5"/><polygon class="cls-1" points="201.49 91.17 193.2 86.47 192.17 93.19 201.49 91.17"/><line class="cls-2" x1="195.92" y1="90.22" x2="163.61" y2="85.51"/><polygon class="cls-5" points="164.15 34.38 160.75 46.68 167.55 46.68 164.15 34.38"/><line class="cls-6" x1="164.05" y1="42.18" x2="164.25" y2="87.28"/><polygon class="cls-3" points="138.61 104.36 146.73 102.57 142.69 97.11 138.61 104.36"/><line class="cls-4" x1="142.54" y1="101.57" x2="164.79" y2="84.84"/><circle class="cls-3" cx="164.35" cy="84.84" r="2.5"/><text class="cls-7" transform="translate(35.75 32.48)">+Z</text><text class="cls-8" transform="translate(79.45 95.23)">+X</text><text class="cls-9" transform="translate(7.05 109.08)">-Y</text><text class="cls-7" transform="translate(127.65 109.08)">+Z</text><text class="cls-8" transform="translate(201.15 95.23)">+X</text><text class="cls-9" transform="translate(157.85 32.48)">+Y</text><path d="M43.39,12.3a3.76,3.76,0,0,1-.14,1,2.23,2.23,0,0,1-.44.82,1.81,1.81,0,0,1-.74.52,3.05,3.05,0,0,1-2.12,0,1.88,1.88,0,0,1-.74-.52,2.22,2.22,0,0,1-.43-.82,3.46,3.46,0,0,1-.15-1,3.37,3.37,0,0,1,.26-1.36,1.93,1.93,0,0,1,.78-.89A2.64,2.64,0,0,1,41,9.73a2.58,2.58,0,0,1,1.34.32,1.91,1.91,0,0,1,.78.9A3.29,3.29,0,0,1,43.39,12.3Zm-3.65,0a2.66,2.66,0,0,0,.14.9,1,1,0,0,0,.41.58,1.36,1.36,0,0,0,1.45,0,1,1,0,0,0,.41-.58,2.67,2.67,0,0,0,.13-.9A2.28,2.28,0,0,0,42,11.07a1.06,1.06,0,0,0-1-.46,1.19,1.19,0,0,0-.73.21,1.09,1.09,0,0,0-.41.58A2.66,2.66,0,0,0,39.74,12.3Z" transform="translate(-38.63 -9.49)"/><path d="M47.38,10.93a1.16,1.16,0,0,1-.15.6,1.15,1.15,0,0,1-.38.41,1.8,1.8,0,0,1-.55.24v0a1.56,1.56,0,0,1,.91.37,1,1,0,0,1,.31.78,1.47,1.47,0,0,1-.21.78,1.4,1.4,0,0,1-.66.55,2.84,2.84,0,0,1-1.14.2,4.49,4.49,0,0,1-.77-.07,3,3,0,0,1-.68-.2v-.9a3.26,3.26,0,0,0,.68.25,3.11,3.11,0,0,0,.65.08,1.24,1.24,0,0,0,.8-.2.69.69,0,0,0,.23-.55.56.56,0,0,0-.11-.35.63.63,0,0,0-.37-.22,2.68,2.68,0,0,0-.73-.08h-.38v-.81h.39a2.12,2.12,0,0,0,.7-.08.62.62,0,0,0,.33-.24.68.68,0,0,0,.09-.35.54.54,0,0,0-.17-.42.79.79,0,0,0-.54-.15,1.51,1.51,0,0,0-.44.06,1.6,1.6,0,0,0-.35.15,2.32,2.32,0,0,0-.28.16l-.49-.73a2.79,2.79,0,0,1,.69-.35,2.91,2.91,0,0,1,.94-.14,2.14,2.14,0,0,1,1.23.31A1,1,0,0,1,47.38,10.93Z" transform="translate(-38.63 -9.49)"/><path d="M52.58,12.26a2.78,2.78,0,0,1-.33,1.41,2,2,0,0,1-.93.85,3.49,3.49,0,0,1-1.48.29H48.43v-5H50a3,3,0,0,1,1.36.28,2,2,0,0,1,.9.82A2.7,2.7,0,0,1,52.58,12.26Zm-1.1,0a2.17,2.17,0,0,0-.17-.91,1.09,1.09,0,0,0-.48-.53,1.67,1.67,0,0,0-.78-.17h-.56v3.25h.45a1.48,1.48,0,0,0,1.16-.41A1.79,1.79,0,0,0,51.48,12.29Z" transform="translate(-38.63 -9.49)"/><path d="M56.49,14.81H53.61v-5h2.88v.87H54.67v1.1h1.69v.86H54.67v1.29h1.82Z" transform="translate(-38.63 -9.49)"/><path d="M60.82,14.88a2.07,2.07,0,0,1-1-.21,1.4,1.4,0,0,1-.61-.64,2.56,2.56,0,0,1-.2-1.11,2.43,2.43,0,0,1,.23-1.15,1.53,1.53,0,0,1,.66-.65,2.17,2.17,0,0,1,1-.2,2.82,2.82,0,0,1,.69.07,2.63,2.63,0,0,1,.5.18l-.31.81-.45-.16a1.65,1.65,0,0,0-.43-.06.79.79,0,0,0-.45.12.81.81,0,0,0-.27.39,1.93,1.93,0,0,0-.09.64,1.91,1.91,0,0,0,.09.63.71.71,0,0,0,.72.49A1.89,1.89,0,0,0,62,13.7v.89a1.59,1.59,0,0,1-.5.22A2.89,2.89,0,0,1,60.82,14.88Z" transform="translate(-38.63 -9.49)"/><path d="M66.34,12.89a2.49,2.49,0,0,1-.13.85,1.68,1.68,0,0,1-.37.62,1.6,1.6,0,0,1-.59.39,2.34,2.34,0,0,1-.77.13,2.17,2.17,0,0,1-.74-.13,1.69,1.69,0,0,1-.59-.39,1.85,1.85,0,0,1-.38-.62,2.48,2.48,0,0,1-.14-.85,2.39,2.39,0,0,1,.23-1.08,1.65,1.65,0,0,1,.64-.67,2.08,2.08,0,0,1,1-.22,2,2,0,0,1,1,.22,1.68,1.68,0,0,1,.65.67A2.27,2.27,0,0,1,66.34,12.89Zm-2.64,0a2.25,2.25,0,0,0,.08.63.73.73,0,0,0,.26.39.84.84,0,0,0,.9,0,.72.72,0,0,0,.25-.39,1.93,1.93,0,0,0,.08-.63,1.93,1.93,0,0,0-.08-.63.75.75,0,0,0-.25-.38.81.81,0,0,0-.46-.12.67.67,0,0,0-.6.28A1.6,1.6,0,0,0,63.7,12.89Z" transform="translate(-38.63 -9.49)"/><path d="M70.67,12.89a2.77,2.77,0,0,1-.12.85,1.7,1.7,0,0,1-.38.62,1.6,1.6,0,0,1-.59.39,2.26,2.26,0,0,1-.77.13,2.21,2.21,0,0,1-.74-.13,1.65,1.65,0,0,1-.58-.39,1.72,1.72,0,0,1-.39-.62,2.49,2.49,0,0,1-.13-.85,2.39,2.39,0,0,1,.22-1.08,1.61,1.61,0,0,1,.65-.67,2,2,0,0,1,1-.22,1.93,1.93,0,0,1,1,.22,1.7,1.7,0,0,1,.66.67A2.39,2.39,0,0,1,70.67,12.89Zm-2.64,0a2.25,2.25,0,0,0,.08.63.79.79,0,0,0,.26.39.73.73,0,0,0,.45.13.69.69,0,0,0,.45-.13.79.79,0,0,0,.26-.39,2.52,2.52,0,0,0,0-1.26.76.76,0,0,0-.26-.38.77.77,0,0,0-.45-.12.65.65,0,0,0-.6.28A1.51,1.51,0,0,0,68,12.89Z" transform="translate(-38.63 -9.49)"/><path d="M73.67,10.92h.18L74,11l-.08,1-.14,0h-.17a1.74,1.74,0,0,0-.39,0,.91.91,0,0,0-.34.17.64.64,0,0,0-.23.3,1,1,0,0,0-.09.45v2h-1V11h.78l.16.64h0a1.59,1.59,0,0,1,.28-.36A1.33,1.33,0,0,1,73.2,11,1.19,1.19,0,0,1,73.67,10.92Z" transform="translate(-38.63 -9.49)"/><path d="M75.92,14.88a1.29,1.29,0,0,1-1-.5,2.39,2.39,0,0,1-.4-1.48,2.33,2.33,0,0,1,.41-1.48,1.28,1.28,0,0,1,1.06-.5,1.43,1.43,0,0,1,.48.07,1.25,1.25,0,0,1,.36.2,1.42,1.42,0,0,1,.26.29h0c0-.08,0-.19,0-.33a3.15,3.15,0,0,1,0-.44V9.49h1v5.32h-.8l-.2-.5h0a1.37,1.37,0,0,1-.25.29,1.33,1.33,0,0,1-.35.2A1.44,1.44,0,0,1,75.92,14.88Zm.37-.83a.67.67,0,0,0,.6-.26,1.4,1.4,0,0,0,.19-.77v-.11a1.77,1.77,0,0,0-.17-.85.68.68,0,0,0-.64-.3.61.61,0,0,0-.54.3,1.57,1.57,0,0,0-.19.86,1.49,1.49,0,0,0,.19.84A.66.66,0,0,0,76.29,14.05Z" transform="translate(-38.63 -9.49)"/><path d="M79.67,9.49a.77.77,0,0,1,.4.11.43.43,0,0,1,.16.4.44.44,0,0,1-.16.4.77.77,0,0,1-.4.11.78.78,0,0,1-.41-.11.44.44,0,0,1-.16-.4.43.43,0,0,1,.16-.4A.78.78,0,0,1,79.67,9.49Zm.52,1.5v3.82h-1V11Z" transform="translate(-38.63 -9.49)"/><path d="M83.45,10.92a1.4,1.4,0,0,1,1,.33,1.36,1.36,0,0,1,.38,1.07v2.49h-1V12.58a1.05,1.05,0,0,0-.14-.62.54.54,0,0,0-.47-.21.67.67,0,0,0-.65.32,2,2,0,0,0-.18.94v1.8h-1V11h.8l.14.49h0a1.23,1.23,0,0,1,.31-.33A1.38,1.38,0,0,1,83,11,1.75,1.75,0,0,1,83.45,10.92Z" transform="translate(-38.63 -9.49)"/><path d="M87.45,10.91a1.81,1.81,0,0,1,1.17.33,1.24,1.24,0,0,1,.42,1v2.55h-.73l-.2-.52h0a1.5,1.5,0,0,1-.34.33,1,1,0,0,1-.39.19,1.73,1.73,0,0,1-.54.07,1.48,1.48,0,0,1-.61-.13,1,1,0,0,1-.42-.4,1.4,1.4,0,0,1-.15-.68,1,1,0,0,1,.42-.9,2.54,2.54,0,0,1,1.29-.32l.66,0v-.17a.54.54,0,0,0-.16-.44.64.64,0,0,0-.44-.14,2,2,0,0,0-.54.08,3.82,3.82,0,0,0-.53.2L86,11.25a3.42,3.42,0,0,1,.68-.25A3.48,3.48,0,0,1,87.45,10.91ZM88,13h-.4a1.19,1.19,0,0,0-.71.18.55.55,0,0,0-.19.44.37.37,0,0,0,.14.34.57.57,0,0,0,.36.1.85.85,0,0,0,.57-.19.73.73,0,0,0,.23-.57Z" transform="translate(-38.63 -9.49)"/><path d="M91.72,14.05a1.86,1.86,0,0,0,.33,0l.32-.08v.77a2.49,2.49,0,0,1-.41.13,3.1,3.1,0,0,1-.54.05,1.75,1.75,0,0,1-.62-.11.88.88,0,0,1-.42-.39,1.5,1.5,0,0,1-.16-.77V11.77h-.5v-.44L90.3,11l.3-.81h.66V11h1.07v.78H91.26v1.84a.42.42,0,0,0,.13.33A.49.49,0,0,0,91.72,14.05Z" transform="translate(-38.63 -9.49)"/><path d="M94.72,10.92a1.89,1.89,0,0,1,.92.2,1.4,1.4,0,0,1,.59.59,2,2,0,0,1,.21.94v.51H94a1,1,0,0,0,.27.69.89.89,0,0,0,.68.25,2.76,2.76,0,0,0,.67-.07,3.2,3.2,0,0,0,.63-.23v.81a2.57,2.57,0,0,1-.59.2,3.3,3.3,0,0,1-.75.07,2.19,2.19,0,0,1-1-.22,1.48,1.48,0,0,1-.69-.64,2.16,2.16,0,0,1-.26-1.1,2.46,2.46,0,0,1,.23-1.11,1.48,1.48,0,0,1,.64-.67A1.89,1.89,0,0,1,94.72,10.92Zm0,.74a.68.68,0,0,0-.5.19,1,1,0,0,0-.24.61h1.47a.91.91,0,0,0-.09-.41.62.62,0,0,0-.24-.29A.7.7,0,0,0,94.73,11.66Z" transform="translate(-38.63 -9.49)"/><path d="M101.77,13.67a1.08,1.08,0,0,1-.73,1.07,2.58,2.58,0,0,1-.9.14,4.44,4.44,0,0,1-.69-.05,3.13,3.13,0,0,1-.57-.18v-.86a3.43,3.43,0,0,0,.66.23,2.64,2.64,0,0,0,.63.09.83.83,0,0,0,.44-.09.29.29,0,0,0,.13-.23.35.35,0,0,0,0-.18.8.8,0,0,0-.23-.17c-.12-.07-.3-.15-.55-.26a4,4,0,0,1-.59-.3,1,1,0,0,1-.34-.36,1.2,1.2,0,0,1-.11-.54.91.91,0,0,1,.41-.8,2,2,0,0,1,1.1-.26,3,3,0,0,1,.68.07,2.67,2.67,0,0,1,.67.23l-.32.75c-.19-.08-.37-.15-.53-.2a1.51,1.51,0,0,0-.51-.08.79.79,0,0,0-.35.06.2.2,0,0,0-.12.19.25.25,0,0,0,.06.16.75.75,0,0,0,.24.16c.11.06.28.13.5.22a5.07,5.07,0,0,1,.57.28,1.16,1.16,0,0,1,.37.36A1.12,1.12,0,0,1,101.77,13.67Z" transform="translate(-38.63 -9.49)"/><path d="M102,11h1.15l.72,2.15a1.29,1.29,0,0,1,0,.21c0,.07,0,.14,0,.21a1.94,1.94,0,0,1,0,.24h0l.06-.35a1.81,1.81,0,0,1,.09-.31L104.9,11H106L104.4,15.3A2.33,2.33,0,0,1,104,16a1.66,1.66,0,0,1-.55.4,1.6,1.6,0,0,1-.67.13l-.3,0-.23,0V15.6l.18,0h.23a.76.76,0,0,0,.38-.09.88.88,0,0,0,.26-.25,1.35,1.35,0,0,0,.17-.34l.06-.19Z" transform="translate(-38.63 -9.49)"/><path d="M109.23,13.67a1.05,1.05,0,0,1-.73,1.07,2.58,2.58,0,0,1-.9.14,4.44,4.44,0,0,1-.69-.05,3.13,3.13,0,0,1-.57-.18v-.86A3.43,3.43,0,0,0,107,14a2.64,2.64,0,0,0,.63.09.83.83,0,0,0,.44-.09.27.27,0,0,0,.13-.23.35.35,0,0,0,0-.18.67.67,0,0,0-.23-.17c-.12-.07-.3-.15-.55-.26a4,4,0,0,1-.59-.3,1.06,1.06,0,0,1-.34-.36,1.2,1.2,0,0,1-.11-.54.91.91,0,0,1,.41-.8,2,2,0,0,1,1.1-.26,3,3,0,0,1,.68.07,2.67,2.67,0,0,1,.67.23l-.32.75a5.09,5.09,0,0,0-.53-.2,1.51,1.51,0,0,0-.51-.08.79.79,0,0,0-.35.06.19.19,0,0,0-.11.19.25.25,0,0,0,.06.16.68.68,0,0,0,.23.16,5,5,0,0,0,.51.22,5.83,5.83,0,0,1,.56.28,1.16,1.16,0,0,1,.37.36A1,1,0,0,1,109.23,13.67Z" transform="translate(-38.63 -9.49)"/><path d="M111.65,14.05a1.86,1.86,0,0,0,.34,0l.32-.08v.77a2.35,2.35,0,0,1-.42.13,2.92,2.92,0,0,1-.54.05,1.66,1.66,0,0,1-.61-.11.9.9,0,0,1-.43-.39,1.61,1.61,0,0,1-.16-.77V11.77h-.49v-.44l.57-.35.3-.81h.67V11h1.07v.78H111.2v1.84a.42.42,0,0,0,.12.33A.52.52,0,0,0,111.65,14.05Z" transform="translate(-38.63 -9.49)"/><path d="M114.66,10.92a1.88,1.88,0,0,1,.91.2,1.4,1.4,0,0,1,.59.59,2,2,0,0,1,.21.94v.51H113.9a1,1,0,0,0,.27.69.9.9,0,0,0,.69.25,2.81,2.81,0,0,0,.67-.07,3.36,3.36,0,0,0,.62-.23v.81a2.42,2.42,0,0,1-.59.2,3.3,3.3,0,0,1-.75.07,2.25,2.25,0,0,1-1-.22,1.58,1.58,0,0,1-.69-.64,2.16,2.16,0,0,1-.25-1.1,2.34,2.34,0,0,1,.23-1.11,1.52,1.52,0,0,1,.63-.67A1.93,1.93,0,0,1,114.66,10.92Zm0,.74a.68.68,0,0,0-.5.19,1,1,0,0,0-.23.61h1.46a1.07,1.07,0,0,0-.08-.41.76.76,0,0,0-.24-.29A.73.73,0,0,0,114.66,11.66Z" transform="translate(-38.63 -9.49)"/><path d="M121.7,10.92a1.36,1.36,0,0,1,1,.33,1.47,1.47,0,0,1,.33,1.07v2.49h-1V12.58a1.05,1.05,0,0,0-.14-.62.47.47,0,0,0-.43-.21.64.64,0,0,0-.59.29,1.77,1.77,0,0,0-.17.85v1.92h-1V12.58a1.44,1.44,0,0,0-.07-.46.57.57,0,0,0-.18-.28.58.58,0,0,0-.33-.09.74.74,0,0,0-.46.14.84.84,0,0,0-.23.43,2.77,2.77,0,0,0-.07.69v1.8h-1V11H118l.14.49h.06a1.17,1.17,0,0,1,.29-.33,1.38,1.38,0,0,1,.39-.18,1.58,1.58,0,0,1,.43-.05,1.67,1.67,0,0,1,.71.13.9.9,0,0,1,.45.43h.1a1,1,0,0,1,.48-.43A1.59,1.59,0,0,1,121.7,10.92Z" transform="translate(-38.63 -9.49)"/><path d="M54.15,23.21h-.57V17.89h.57Z" transform="translate(-38.63 -9.49)"/><path d="M56.79,19.39a1.46,1.46,0,0,1,.82.22,1.3,1.3,0,0,1,.52.59,1.91,1.91,0,0,1,.19.89v.35H55.73a1.46,1.46,0,0,0,.33,1,1.15,1.15,0,0,0,.89.34,2.93,2.93,0,0,0,.63-.06,3.91,3.91,0,0,0,.57-.2V23a2.65,2.65,0,0,1-.56.19,3.23,3.23,0,0,1-.66.06,2,2,0,0,1-.94-.22,1.58,1.58,0,0,1-.63-.65,2.26,2.26,0,0,1-.22-1.05,2.62,2.62,0,0,1,.2-1.05,1.62,1.62,0,0,1,.58-.68A1.58,1.58,0,0,1,56.79,19.39Zm0,.47a.92.92,0,0,0-.72.3,1.34,1.34,0,0,0-.32.83h2a1.73,1.73,0,0,0-.1-.59.84.84,0,0,0-.31-.4A1,1,0,0,0,56.78,19.86Z" transform="translate(-38.63 -9.49)"/><path d="M61,19.91H60v3.3h-.56v-3.3h-.67v-.28l.67-.19V19.2a1.71,1.71,0,0,1,.14-.77A1,1,0,0,1,60,18a1.45,1.45,0,0,1,.65-.14,1.64,1.64,0,0,1,.4,0,1.26,1.26,0,0,1,.31.09l-.14.44L61,18.35a1.53,1.53,0,0,0-.3,0,.55.55,0,0,0-.48.21,1.14,1.14,0,0,0-.16.66v.27H61Z" transform="translate(-38.63 -9.49)"/><path d="M62.84,22.81l.29,0,.24-.06v.44a1.1,1.1,0,0,1-.27.08l-.35,0a1.33,1.33,0,0,1-.54-.11.87.87,0,0,1-.39-.35,1.48,1.48,0,0,1-.14-.69V19.91h-.53v-.28l.53-.22.23-.82h.34v.87h1.1v.45h-1.1v2.2a.75.75,0,0,0,.16.53A.58.58,0,0,0,62.84,22.81Z" transform="translate(-38.63 -9.49)"/><path d="M63.81,21.58v-.5h1.7v.5Z" transform="translate(-38.63 -9.49)"/><path d="M67,17.89v1.59a2.44,2.44,0,0,1,0,.27,2,2,0,0,1,0,.26h0a1,1,0,0,1,.29-.33,1.44,1.44,0,0,1,.41-.21,1.57,1.57,0,0,1,.49-.07,1.82,1.82,0,0,1,.75.14,1,1,0,0,1,.45.45,1.61,1.61,0,0,1,.16.78v2.44H69v-2.4a1,1,0,0,0-.22-.71.86.86,0,0,0-.65-.23,1.21,1.21,0,0,0-.67.16.89.89,0,0,0-.35.47,2.28,2.28,0,0,0-.11.75v2h-.57V17.89Z" transform="translate(-38.63 -9.49)"/><path d="M72.08,19.4a1.43,1.43,0,0,1,1,.3,1.24,1.24,0,0,1,.33,1v2.55H73l-.11-.56h0a2.25,2.25,0,0,1-.33.35,1.39,1.39,0,0,1-.4.21,2.11,2.11,0,0,1-.55.07,1.43,1.43,0,0,1-.6-.12.89.89,0,0,1-.42-.37,1.13,1.13,0,0,1-.15-.61,1,1,0,0,1,.44-.86A2.63,2.63,0,0,1,72.2,21l.64,0v-.23a.91.91,0,0,0-.21-.68.81.81,0,0,0-.58-.19,2,2,0,0,0-.56.08,3.89,3.89,0,0,0-.51.21l-.17-.44a3.2,3.2,0,0,1,.58-.22A2.5,2.5,0,0,1,72.08,19.4Zm.76,2-.58,0a1.78,1.78,0,0,0-1,.23.65.65,0,0,0-.29.57.56.56,0,0,0,.19.47.84.84,0,0,0,.52.15,1.23,1.23,0,0,0,.82-.27,1.06,1.06,0,0,0,.32-.83Z" transform="translate(-38.63 -9.49)"/><path d="M76.34,19.39a1.41,1.41,0,0,1,1,.33,1.4,1.4,0,0,1,.34,1.05v2.44h-.56v-2.4a1,1,0,0,0-.21-.71.9.9,0,0,0-.66-.23,1,1,0,0,0-.87.35,1.76,1.76,0,0,0-.26,1v2h-.57V19.46H75l.09.54h0a1.18,1.18,0,0,1,.3-.33,1.5,1.5,0,0,1,.42-.21A1.85,1.85,0,0,1,76.34,19.39Z" transform="translate(-38.63 -9.49)"/><path d="M80.19,23.28a1.44,1.44,0,0,1-1.13-.49,2.19,2.19,0,0,1-.41-1.44,2.19,2.19,0,0,1,.42-1.46,1.43,1.43,0,0,1,1.13-.5,1.62,1.62,0,0,1,.52.08,1.07,1.07,0,0,1,.38.21,1.27,1.27,0,0,1,.27.3h0c0-.07,0-.17,0-.29s0-.22,0-.3v-1.5h.57v5.32h-.46l-.08-.54h0a1.3,1.3,0,0,1-.26.31,1.47,1.47,0,0,1-.39.22A1.69,1.69,0,0,1,80.19,23.28Zm.09-.48a1,1,0,0,0,.85-.34,1.67,1.67,0,0,0,.25-1v-.1a2.06,2.06,0,0,0-.24-1.1.92.92,0,0,0-.86-.38.85.85,0,0,0-.78.4,1.91,1.91,0,0,0-.26,1.09,1.82,1.82,0,0,0,.26,1.07A.88.88,0,0,0,80.28,22.8Z" transform="translate(-38.63 -9.49)"/><path d="M84.58,19.39a1.44,1.44,0,0,1,.82.22,1.32,1.32,0,0,1,.53.59,2,2,0,0,1,.18.89v.35H83.52a1.51,1.51,0,0,0,.33,1,1.15,1.15,0,0,0,.89.34,2.93,2.93,0,0,0,.63-.06,3.91,3.91,0,0,0,.57-.2V23a2.65,2.65,0,0,1-.56.19,3.23,3.23,0,0,1-.66.06,2,2,0,0,1-.94-.22,1.58,1.58,0,0,1-.63-.65,2.39,2.39,0,0,1-.22-1.05,2.46,2.46,0,0,1,.21-1.05,1.53,1.53,0,0,1,.57-.68A1.58,1.58,0,0,1,84.58,19.39Zm0,.47a.93.93,0,0,0-.73.3,1.34,1.34,0,0,0-.32.83h2a1.52,1.52,0,0,0-.1-.59.84.84,0,0,0-.31-.4A.91.91,0,0,0,84.58,19.86Z" transform="translate(-38.63 -9.49)"/><path d="M88.4,23.28a1.42,1.42,0,0,1-1.12-.49,2.13,2.13,0,0,1-.42-1.44,2.14,2.14,0,0,1,.43-1.46,1.41,1.41,0,0,1,1.12-.5,1.58,1.58,0,0,1,.52.08,1.22,1.22,0,0,1,.39.21,1.93,1.93,0,0,1,.27.3h0c0-.07,0-.17,0-.29s0-.22,0-.3v-1.5h.56v5.32H89.7l-.09-.54h0a1.14,1.14,0,0,1-.27.31,1.47,1.47,0,0,1-.39.22A1.64,1.64,0,0,1,88.4,23.28Zm.09-.48a1,1,0,0,0,.85-.34,1.67,1.67,0,0,0,.25-1v-.1a2.17,2.17,0,0,0-.23-1.1.93.93,0,0,0-.87-.38.85.85,0,0,0-.78.4,2,2,0,0,0-.26,1.09,1.9,1.9,0,0,0,.26,1.07A.88.88,0,0,0,88.49,22.8Z" transform="translate(-38.63 -9.49)"/><path d="M92,22.39l0,.08a4.58,4.58,0,0,1-.16.54c-.06.19-.13.38-.2.57s-.15.36-.23.53H91c0-.18.09-.37.14-.58s.09-.4.12-.59.07-.38.09-.55Z" transform="translate(-38.63 -9.49)"/><path d="M98.12,23.21H94.65v-.44l2.69-4h-2.6v-.52h3.31v.44l-2.69,4h2.76Z" transform="translate(-38.63 -9.49)"/><path d="M103.9,19.46v3.75h-.46l-.09-.53h0a.94.94,0,0,1-.3.33,1.2,1.2,0,0,1-.41.2,2,2,0,0,1-.49.07,1.67,1.67,0,0,1-.75-.15.92.92,0,0,1-.45-.44,1.73,1.73,0,0,1-.15-.77V19.46h.57v2.42a1,1,0,0,0,.21.69.82.82,0,0,0,.65.23,1.24,1.24,0,0,0,.66-.15.86.86,0,0,0,.36-.47,2.28,2.28,0,0,0,.11-.75v-2Z" transform="translate(-38.63 -9.49)"/><path d="M106.86,19.39a1.39,1.39,0,0,1,1.12.49,2.13,2.13,0,0,1,.42,1.44,2.64,2.64,0,0,1-.2,1.08,1.33,1.33,0,0,1-.53.65,1.49,1.49,0,0,1-.82.23,1.74,1.74,0,0,1-.53-.08,1.38,1.38,0,0,1-.38-.21,1.45,1.45,0,0,1-.27-.29h0c0,.08,0,.19,0,.32s0,.23,0,.32v1.54h-.57V19.46h.47l.07.56h0a1.35,1.35,0,0,1,.27-.32,1.09,1.09,0,0,1,.38-.22A1.45,1.45,0,0,1,106.86,19.39Zm-.1.48a1.18,1.18,0,0,0-.63.15.88.88,0,0,0-.34.45,2.56,2.56,0,0,0-.12.75v.11a2.57,2.57,0,0,0,.11.8.92.92,0,0,0,.34.5,1.07,1.07,0,0,0,.65.17.91.91,0,0,0,.58-.18,1.2,1.2,0,0,0,.35-.53,2.55,2.55,0,0,0,.11-.77,1.85,1.85,0,0,0-.26-1.06A.87.87,0,0,0,106.76,19.87Z" transform="translate(-38.63 -9.49)"/><path d="M50.8,31.21l.29,0,.24-.06v.44a1.2,1.2,0,0,1-.28.08,2,2,0,0,1-.34,0,1.33,1.33,0,0,1-.54-.11.87.87,0,0,1-.39-.35,1.36,1.36,0,0,1-.14-.69V28.31H49.1V28l.54-.22.23-.82h.34v.87H51.3v.45H50.21v2.2a.75.75,0,0,0,.16.53A.58.58,0,0,0,50.8,31.21Z" transform="translate(-38.63 -9.49)"/><path d="M52.65,26.29v1.86c0,.1,0,.18,0,.26h0a1.18,1.18,0,0,1,.3-.33,1.32,1.32,0,0,1,.41-.21,1.51,1.51,0,0,1,.48-.07,1.82,1.82,0,0,1,.75.14,1,1,0,0,1,.46.45,1.75,1.75,0,0,1,.15.78v2.44h-.56v-2.4a1,1,0,0,0-.21-.71.88.88,0,0,0-.66-.23,1.15,1.15,0,0,0-.66.16.86.86,0,0,0-.36.47,2.28,2.28,0,0,0-.11.75v2h-.56V26.29Z" transform="translate(-38.63 -9.49)"/><path d="M57.82,27.79a1.46,1.46,0,0,1,.82.22,1.38,1.38,0,0,1,.53.59,2,2,0,0,1,.18.89v.35H56.76a1.51,1.51,0,0,0,.33,1,1.15,1.15,0,0,0,.89.34,2.93,2.93,0,0,0,.63-.06,3.91,3.91,0,0,0,.57-.2v.5a2.65,2.65,0,0,1-.56.19,3.23,3.23,0,0,1-.66.06,2,2,0,0,1-.94-.22,1.58,1.58,0,0,1-.63-.65,2.39,2.39,0,0,1-.22-1,2.62,2.62,0,0,1,.2-1.05A1.62,1.62,0,0,1,57,28,1.58,1.58,0,0,1,57.82,27.79Zm0,.47a.93.93,0,0,0-.73.3,1.34,1.34,0,0,0-.32.83h2a1.73,1.73,0,0,0-.1-.59.84.84,0,0,0-.31-.4A.91.91,0,0,0,57.82,28.26Z" transform="translate(-38.63 -9.49)"/><path d="M63,31.61l-1.42-3.75h.61L63,30.13q.09.23.18.51a3.93,3.93,0,0,1,.12.45h0c0-.11.08-.26.14-.45s.12-.36.18-.51l.82-2.27H65L63.6,31.61Z" transform="translate(-38.63 -9.49)"/><path d="M65.92,26.46a.36.36,0,0,1,.24.09.4.4,0,0,1,.1.28.38.38,0,0,1-.1.28.37.37,0,0,1-.24.1.37.37,0,0,1-.25-.1.38.38,0,0,1-.1-.28.4.4,0,0,1,.1-.28A.37.37,0,0,1,65.92,26.46Zm.27,1.4v3.75h-.56V27.86Z" transform="translate(-38.63 -9.49)"/><path d="M68.83,27.79a1.49,1.49,0,0,1,.83.22,1.36,1.36,0,0,1,.52.59,2,2,0,0,1,.18.89v.35H67.77a1.51,1.51,0,0,0,.33,1,1.15,1.15,0,0,0,.9.34,2.9,2.9,0,0,0,.62-.06,3.23,3.23,0,0,0,.57-.2v.5a2.47,2.47,0,0,1-.56.19,3.23,3.23,0,0,1-.66.06,2,2,0,0,1-.94-.22,1.5,1.5,0,0,1-.62-.65,2.26,2.26,0,0,1-.23-1,2.46,2.46,0,0,1,.21-1.05A1.53,1.53,0,0,1,68,28,1.58,1.58,0,0,1,68.83,27.79Zm0,.47a.93.93,0,0,0-.73.3,1.4,1.4,0,0,0-.32.83h2a1.52,1.52,0,0,0-.1-.59.84.84,0,0,0-.31-.4A.91.91,0,0,0,68.83,28.26Z" transform="translate(-38.63 -9.49)"/><path d="M74.37,31.6l-.66-2.18-.09-.27c0-.09-.05-.18-.07-.26s0-.16-.06-.24,0-.13,0-.18h0c0,.05,0,.11,0,.18s0,.15-.06.24,0,.17-.07.26-.05.19-.08.28l-.7,2.17h-.64l-1-3.74h.58l.55,2.06c0,.14.07.27.1.41s.06.26.08.37a2.37,2.37,0,0,1,.06.31h0c0-.06,0-.13,0-.21s0-.16.06-.25a2.68,2.68,0,0,1,.07-.27c0-.09.05-.17.07-.25l.69-2.17h.62L74.42,30c0,.11.07.23.1.34a2.58,2.58,0,0,1,.09.35,2.15,2.15,0,0,1,.06.29h0c0-.07,0-.17,0-.28s.06-.24.09-.38.07-.28.1-.42l.55-2.06h.58L75,31.6Z" transform="translate(-38.63 -9.49)"/><path d="M78.19,27.79A1.46,1.46,0,0,1,79,28a1.3,1.3,0,0,1,.52.59,2,2,0,0,1,.18.89v.35H77.13a1.41,1.41,0,0,0,.33,1,1.15,1.15,0,0,0,.89.34,2.93,2.93,0,0,0,.63-.06,3.91,3.91,0,0,0,.57-.2v.5a2.54,2.54,0,0,1-.57.19,3.06,3.06,0,0,1-.65.06,2,2,0,0,1-1-.22,1.62,1.62,0,0,1-.62-.65,2.26,2.26,0,0,1-.22-1,2.62,2.62,0,0,1,.2-1.05,1.62,1.62,0,0,1,.58-.68A1.53,1.53,0,0,1,78.19,27.79Zm0,.47a.92.92,0,0,0-.72.3,1.34,1.34,0,0,0-.32.83h2a1.73,1.73,0,0,0-.1-.59.84.84,0,0,0-.31-.4A1,1,0,0,0,78.18,28.26Z" transform="translate(-38.63 -9.49)"/><path d="M82.38,27.79l.24,0a.66.66,0,0,1,.21,0l-.07.52-.2,0-.21,0a1,1,0,0,0-.43.09,1.1,1.1,0,0,0-.35.26,1.38,1.38,0,0,0-.24.41,1.74,1.74,0,0,0-.08.53v2h-.57V27.86h.47l.06.69h0a1.69,1.69,0,0,1,.28-.38,1.23,1.23,0,0,1,.86-.38Z" transform="translate(-38.63 -9.49)"/><path d="M86.76,27.8a1.4,1.4,0,0,1,1,.3,1.24,1.24,0,0,1,.33,1v2.55h-.42l-.1-.56h0a2.25,2.25,0,0,1-.33.35,1.33,1.33,0,0,1-.39.21,2.17,2.17,0,0,1-.55.07,1.48,1.48,0,0,1-.61-.12.89.89,0,0,1-.42-.37,1.13,1.13,0,0,1-.15-.61,1,1,0,0,1,.44-.86,2.63,2.63,0,0,1,1.36-.33l.64,0v-.23a.91.91,0,0,0-.2-.68.84.84,0,0,0-.59-.19,2,2,0,0,0-.56.08,3.89,3.89,0,0,0-.51.21l-.17-.44a3.52,3.52,0,0,1,.58-.22A2.61,2.61,0,0,1,86.76,27.8Zm.76,2-.57,0A1.79,1.79,0,0,0,86,30a.65.65,0,0,0-.29.57.56.56,0,0,0,.2.47.81.81,0,0,0,.51.15,1.21,1.21,0,0,0,.82-.27,1.06,1.06,0,0,0,.32-.83Z" transform="translate(-38.63 -9.49)"/><path d="M90.14,29.69l-1.3-1.83h.65l1,1.44,1-1.44h.64l-1.3,1.83,1.37,1.92h-.65l-1-1.53-1.06,1.53h-.64Z" transform="translate(-38.63 -9.49)"/><path d="M93.2,26.46a.34.34,0,0,1,.24.09.36.36,0,0,1,.1.28.34.34,0,0,1-.1.28.35.35,0,0,1-.24.1.33.33,0,0,1-.24-.1.34.34,0,0,1-.1-.28.36.36,0,0,1,.1-.28A.32.32,0,0,1,93.2,26.46Zm.28,1.4v3.75h-.57V27.86Z" transform="translate(-38.63 -9.49)"/><path d="M97.1,30.58a1,1,0,0,1-.18.61,1.08,1.08,0,0,1-.51.36,2.13,2.13,0,0,1-.8.13,2.79,2.79,0,0,1-.68-.07,1.84,1.84,0,0,1-.5-.17v-.52a3.81,3.81,0,0,0,.55.2,2.37,2.37,0,0,0,.65.09,1.25,1.25,0,0,0,.7-.15.5.5,0,0,0,.22-.43.44.44,0,0,0-.09-.27.72.72,0,0,0-.29-.23,3.36,3.36,0,0,0-.57-.24L95,29.61a1.2,1.2,0,0,1-.4-.33.85.85,0,0,1-.14-.5.83.83,0,0,1,.38-.73,1.82,1.82,0,0,1,1-.26,3.22,3.22,0,0,1,.64.07A2.53,2.53,0,0,1,97,28l-.19.45a3.66,3.66,0,0,0-.5-.16,1.88,1.88,0,0,0-.53-.07,1.13,1.13,0,0,0-.61.13.38.38,0,0,0-.21.35.39.39,0,0,0,.1.29.76.76,0,0,0,.31.21l.57.24a4.47,4.47,0,0,1,.61.26,1.2,1.2,0,0,1,.39.34A.8.8,0,0,1,97.1,30.58Z" transform="translate(-38.63 -9.49)"/><path d="M100.12,26.46a.32.32,0,0,1,.24.09.36.36,0,0,1,.1.28.34.34,0,0,1-.1.28.34.34,0,0,1-.48,0,.34.34,0,0,1-.1-.28.36.36,0,0,1,.1-.28A.32.32,0,0,1,100.12,26.46Zm.28,1.4v3.75h-.57V27.86Z" transform="translate(-38.63 -9.49)"/><path d="M104,30.58a1,1,0,0,1-.18.61,1.08,1.08,0,0,1-.51.36,2.11,2.11,0,0,1-.79.13,2.68,2.68,0,0,1-.68-.07,1.8,1.8,0,0,1-.51-.17v-.52a4.3,4.3,0,0,0,.55.2,2.37,2.37,0,0,0,.65.09,1.25,1.25,0,0,0,.7-.15.52.52,0,0,0,.14-.7.84.84,0,0,0-.3-.23,3.57,3.57,0,0,0-.56-.24c-.24-.1-.45-.19-.62-.28a1.15,1.15,0,0,1-.41-.33.85.85,0,0,1-.14-.5.83.83,0,0,1,.38-.73,1.82,1.82,0,0,1,1-.26,3.22,3.22,0,0,1,.64.07,2.37,2.37,0,0,1,.55.18l-.19.45a3.66,3.66,0,0,0-.5-.16,1.88,1.88,0,0,0-.53-.07,1.15,1.15,0,0,0-.61.13.38.38,0,0,0-.21.35.44.44,0,0,0,.1.29.84.84,0,0,0,.31.21l.57.24a4,4,0,0,1,.61.26,1.2,1.2,0,0,1,.39.34A.8.8,0,0,1,104,30.58Z" transform="translate(-38.63 -9.49)"/><path class="cls-5" d="M106.36,30.16V29.3h1.84v.86Z" transform="translate(-38.63 -9.49)"/><path class="cls-5" d="M110.59,28.67l1-2.06h1.15l-1.66,3.05v1.95h-1.05V29.7l-1.66-3.09h1.15Z" transform="translate(-38.63 -9.49)"/><path d="M167.09,12.26a2.88,2.88,0,0,1-.32,1.41,2,2,0,0,1-.94.85,3.47,3.47,0,0,1-1.47.29h-1.42v-5h1.57a3,3,0,0,1,1.36.28,2,2,0,0,1,.9.82A2.7,2.7,0,0,1,167.09,12.26Zm-1.1,0a2.36,2.36,0,0,0-.16-.91,1.09,1.09,0,0,0-.48-.53,1.67,1.67,0,0,0-.78-.17H164v3.25h.46a1.47,1.47,0,0,0,1.15-.41A1.79,1.79,0,0,0,166,12.29Z" transform="translate(-38.63 -9.49)"/><path d="M170.25,10.62a1.13,1.13,0,0,0-.54.12,1,1,0,0,0-.39.34,1.68,1.68,0,0,0-.25.54,3.18,3.18,0,0,0,.05,1.61,1.17,1.17,0,0,0,.41.57,1.25,1.25,0,0,0,.72.19,3.23,3.23,0,0,0,.61-.06,5.93,5.93,0,0,0,.66-.2v.89a3.44,3.44,0,0,1-.65.2,4,4,0,0,1-.72.06,2.32,2.32,0,0,1-1.27-.32,1.94,1.94,0,0,1-.74-.9,3.45,3.45,0,0,1-.24-1.34,3.11,3.11,0,0,1,.16-1,2.25,2.25,0,0,1,.45-.82,1.94,1.94,0,0,1,.73-.53,2.46,2.46,0,0,1,1-.19,3.12,3.12,0,0,1,.74.09,4.41,4.41,0,0,1,.72.26l-.34.86c-.19-.09-.38-.16-.57-.23A1.56,1.56,0,0,0,170.25,10.62Z" transform="translate(-38.63 -9.49)"/><path d="M174.71,10.62a1.13,1.13,0,0,0-.54.12,1,1,0,0,0-.39.34,1.68,1.68,0,0,0-.25.54,3.18,3.18,0,0,0,.05,1.61,1.17,1.17,0,0,0,.41.57,1.25,1.25,0,0,0,.72.19,3.23,3.23,0,0,0,.61-.06,5.93,5.93,0,0,0,.66-.2v.89a3.44,3.44,0,0,1-.65.2,4,4,0,0,1-.72.06,2.32,2.32,0,0,1-1.27-.32,1.94,1.94,0,0,1-.74-.9,3.45,3.45,0,0,1-.24-1.34,3.11,3.11,0,0,1,.16-1,2.25,2.25,0,0,1,.45-.82,1.94,1.94,0,0,1,.73-.53,2.46,2.46,0,0,1,1-.19,3.12,3.12,0,0,1,.74.09,4.41,4.41,0,0,1,.72.26l-.34.86c-.19-.09-.38-.16-.57-.23A1.52,1.52,0,0,0,174.71,10.62Z" transform="translate(-38.63 -9.49)"/><path d="M180.33,14.88a2,2,0,0,1-1-.21,1.36,1.36,0,0,1-.61-.64,2.56,2.56,0,0,1-.21-1.11,2.42,2.42,0,0,1,.24-1.15,1.43,1.43,0,0,1,.66-.65,2.13,2.13,0,0,1,1-.2,2.77,2.77,0,0,1,.69.07,2.63,2.63,0,0,1,.5.18l-.3.81-.46-.16a1.54,1.54,0,0,0-.43-.06.79.79,0,0,0-.45.12.81.81,0,0,0-.27.39,1.93,1.93,0,0,0-.09.64,1.67,1.67,0,0,0,.1.63.71.71,0,0,0,.27.37.78.78,0,0,0,.44.12,1.72,1.72,0,0,0,.58-.09,1.9,1.9,0,0,0,.5-.24v.89a1.75,1.75,0,0,1-.51.22A2.89,2.89,0,0,1,180.33,14.88Z" transform="translate(-38.63 -9.49)"/><path d="M185.85,12.89a2.49,2.49,0,0,1-.13.85,1.68,1.68,0,0,1-.37.62,1.6,1.6,0,0,1-.59.39,2.26,2.26,0,0,1-.77.13,2.17,2.17,0,0,1-.74-.13,1.65,1.65,0,0,1-.58-.39,1.72,1.72,0,0,1-.39-.62,2.49,2.49,0,0,1-.13-.85,2.39,2.39,0,0,1,.22-1.08,1.61,1.61,0,0,1,.65-.67,2,2,0,0,1,1-.22,1.93,1.93,0,0,1,1,.22,1.7,1.7,0,0,1,.66.67A2.39,2.39,0,0,1,185.85,12.89Zm-2.64,0a2.25,2.25,0,0,0,.08.63.79.79,0,0,0,.26.39A.73.73,0,0,0,184,14a.69.69,0,0,0,.45-.13.79.79,0,0,0,.26-.39,2.52,2.52,0,0,0,0-1.26.76.76,0,0,0-.26-.38.79.79,0,0,0-.45-.12.65.65,0,0,0-.6.28A1.51,1.51,0,0,0,183.21,12.89Z" transform="translate(-38.63 -9.49)"/><path d="M190.19,12.89a2.76,2.76,0,0,1-.13.85,1.83,1.83,0,0,1-.37.62,1.69,1.69,0,0,1-.59.39,2.36,2.36,0,0,1-.78.13,2.21,2.21,0,0,1-.74-.13,1.74,1.74,0,0,1-.58-.39,1.7,1.7,0,0,1-.38-.62,2.48,2.48,0,0,1-.14-.85,2.39,2.39,0,0,1,.23-1.08,1.59,1.59,0,0,1,.64-.67,2.07,2.07,0,0,1,1-.22,2,2,0,0,1,1,.22,1.75,1.75,0,0,1,.65.67A2.27,2.27,0,0,1,190.19,12.89Zm-2.65,0a1.91,1.91,0,0,0,.09.63.78.78,0,0,0,.25.39.74.74,0,0,0,.46.13.73.73,0,0,0,.45-.13.78.78,0,0,0,.25-.39,2.52,2.52,0,0,0,0-1.26.75.75,0,0,0-.25-.38.81.81,0,0,0-.46-.12.66.66,0,0,0-.6.28A1.6,1.6,0,0,0,187.54,12.89Z" transform="translate(-38.63 -9.49)"/><path d="M193.18,10.92h.18l.17,0-.08,1-.14,0h-.16a1.75,1.75,0,0,0-.4,0,.87.87,0,0,0-.33.17.73.73,0,0,0-.24.3,1,1,0,0,0-.09.45v2h-1V11h.79l.15.64h0a1.93,1.93,0,0,1,.28-.36,1.66,1.66,0,0,1,.39-.26A1.23,1.23,0,0,1,193.18,10.92Z" transform="translate(-38.63 -9.49)"/><path d="M195.44,14.88a1.27,1.27,0,0,1-1-.5A2.33,2.33,0,0,1,194,12.9a2.33,2.33,0,0,1,.41-1.48,1.29,1.29,0,0,1,1.06-.5A1.45,1.45,0,0,1,196,11a1.39,1.39,0,0,1,.36.2,1.37,1.37,0,0,1,.25.29h0c0-.08,0-.19,0-.33a3.15,3.15,0,0,1,0-.44V9.49h1v5.32h-.8l-.21-.5h0a1.37,1.37,0,0,1-.25.29,1.19,1.19,0,0,1-.35.2A1.42,1.42,0,0,1,195.44,14.88Zm.36-.83a.69.69,0,0,0,.61-.26,1.5,1.5,0,0,0,.18-.77v-.11a1.66,1.66,0,0,0-.17-.85.65.65,0,0,0-.63-.3.6.6,0,0,0-.54.3,1.56,1.56,0,0,0-.2.86,1.49,1.49,0,0,0,.2.84A.63.63,0,0,0,195.8,14.05Z" transform="translate(-38.63 -9.49)"/><path d="M199.18,9.49a.75.75,0,0,1,.4.11.44.44,0,0,1,.17.4.45.45,0,0,1-.17.4.75.75,0,0,1-.4.11.72.72,0,0,1-.4-.11.45.45,0,0,1-.17-.4.44.44,0,0,1,.17-.4A.72.72,0,0,1,199.18,9.49Zm.52,1.5v3.82h-1V11Z" transform="translate(-38.63 -9.49)"/><path d="M203,10.92a1.44,1.44,0,0,1,1,.33,1.36,1.36,0,0,1,.37,1.07v2.49h-1V12.58a1,1,0,0,0-.15-.62.54.54,0,0,0-.47-.21.68.68,0,0,0-.65.32,2,2,0,0,0-.18.94v1.8h-1V11h.8l.14.49h.06a1.06,1.06,0,0,1,.3-.33,1.38,1.38,0,0,1,.41-.18A1.75,1.75,0,0,1,203,10.92Z" transform="translate(-38.63 -9.49)"/><path d="M207,10.91a1.86,1.86,0,0,1,1.18.33,1.27,1.27,0,0,1,.41,1v2.55h-.73l-.2-.52h0a1.71,1.71,0,0,1-.33.33,1.14,1.14,0,0,1-.4.19,1.69,1.69,0,0,1-.54.07,1.47,1.47,0,0,1-.6-.13,1,1,0,0,1-.43-.4,1.4,1.4,0,0,1-.15-.68,1,1,0,0,1,.43-.9,2.47,2.47,0,0,1,1.28-.32l.66,0v-.17a.57.57,0,0,0-.15-.44.68.68,0,0,0-.44-.14,2,2,0,0,0-.55.08,4.36,4.36,0,0,0-.53.2l-.34-.71a3.2,3.2,0,0,1,.68-.25A3.33,3.33,0,0,1,207,10.91Zm.55,2.13h-.4a1.16,1.16,0,0,0-.7.18.56.56,0,0,0-.2.44.39.39,0,0,0,.14.34.6.6,0,0,0,.37.1.83.83,0,0,0,.56-.19.7.7,0,0,0,.23-.57Z" transform="translate(-38.63 -9.49)"/><path d="M211.23,14.05a1.75,1.75,0,0,0,.33,0l.33-.08v.77a2.35,2.35,0,0,1-.42.13,2.92,2.92,0,0,1-.54.05,1.66,1.66,0,0,1-.61-.11.9.9,0,0,1-.43-.39,1.61,1.61,0,0,1-.16-.77V11.77h-.49v-.44l.57-.35.3-.81h.67V11h1.07v.78h-1.07v1.84a.42.42,0,0,0,.12.33A.49.49,0,0,0,211.23,14.05Z" transform="translate(-38.63 -9.49)"/><path d="M214.24,10.92a1.88,1.88,0,0,1,.91.2,1.4,1.4,0,0,1,.59.59,2,2,0,0,1,.21.94v.51h-2.47a1,1,0,0,0,.27.69.9.9,0,0,0,.69.25,2.87,2.87,0,0,0,.67-.07,3.36,3.36,0,0,0,.62-.23v.81a2.42,2.42,0,0,1-.59.2,3.3,3.3,0,0,1-.75.07,2.25,2.25,0,0,1-1-.22,1.58,1.58,0,0,1-.69-.64,2.16,2.16,0,0,1-.25-1.1,2.34,2.34,0,0,1,.23-1.11,1.52,1.52,0,0,1,.63-.67A1.93,1.93,0,0,1,214.24,10.92Zm0,.74a.68.68,0,0,0-.5.19,1,1,0,0,0-.23.61H215a1.07,1.07,0,0,0-.08-.41.76.76,0,0,0-.24-.29A.73.73,0,0,0,214.24,11.66Z" transform="translate(-38.63 -9.49)"/><path d="M221.28,13.67a1.16,1.16,0,0,1-.18.66,1.12,1.12,0,0,1-.55.41,2.58,2.58,0,0,1-.9.14,4.44,4.44,0,0,1-.69-.05,3.13,3.13,0,0,1-.57-.18v-.86a3.52,3.52,0,0,0,.67.23,2.5,2.5,0,0,0,.62.09.8.8,0,0,0,.44-.09.27.27,0,0,0,.13-.23.35.35,0,0,0-.05-.18.67.67,0,0,0-.23-.17c-.12-.07-.3-.15-.55-.26a4,4,0,0,1-.59-.3,1.06,1.06,0,0,1-.34-.36,1.2,1.2,0,0,1-.11-.54.91.91,0,0,1,.41-.8,2,2,0,0,1,1.11-.26,2.93,2.93,0,0,1,.67.07,2.67,2.67,0,0,1,.67.23l-.32.75a4.36,4.36,0,0,0-.53-.2,1.51,1.51,0,0,0-.51-.08.82.82,0,0,0-.35.06.2.2,0,0,0-.11.19.25.25,0,0,0,.06.16.68.68,0,0,0,.23.16,5,5,0,0,0,.51.22,5.83,5.83,0,0,1,.56.28,1.16,1.16,0,0,1,.37.36A1,1,0,0,1,221.28,13.67Z" transform="translate(-38.63 -9.49)"/><path d="M221.55,11h1.14l.72,2.15.06.21c0,.07,0,.14,0,.21l0,.24h0c0-.12,0-.24.05-.35l.09-.31.71-2.15h1.12l-1.62,4.31a2.12,2.12,0,0,1-.38.66,1.72,1.72,0,0,1-.54.4,1.67,1.67,0,0,1-.67.13l-.31,0-.22,0V15.6a.6.6,0,0,0,.18,0h.23a.72.72,0,0,0,.37-.09.78.78,0,0,0,.26-.25A1.09,1.09,0,0,0,223,15l.06-.19Z" transform="translate(-38.63 -9.49)"/><path d="M228.74,13.67a1.16,1.16,0,0,1-.18.66,1.12,1.12,0,0,1-.55.41,2.58,2.58,0,0,1-.9.14,4.31,4.31,0,0,1-.68-.05,3.22,3.22,0,0,1-.58-.18v-.86a3.52,3.52,0,0,0,.67.23,2.58,2.58,0,0,0,.63.09.79.79,0,0,0,.43-.09.27.27,0,0,0,.13-.23.27.27,0,0,0-.05-.18.67.67,0,0,0-.23-.17,5.72,5.72,0,0,0-.54-.26,3.56,3.56,0,0,1-.59-.3,1,1,0,0,1-.35-.36,1.2,1.2,0,0,1-.11-.54.91.91,0,0,1,.41-.8,2,2,0,0,1,1.11-.26A3.08,3.08,0,0,1,228,11a2.74,2.74,0,0,1,.66.23l-.31.75a5.21,5.21,0,0,0-.54-.2,1.51,1.51,0,0,0-.51-.08.74.74,0,0,0-.34.06.2.2,0,0,0-.12.19.25.25,0,0,0,.06.16.81.81,0,0,0,.23.16l.51.22a5.83,5.83,0,0,1,.56.28,1.07,1.07,0,0,1,.37.36A1,1,0,0,1,228.74,13.67Z" transform="translate(-38.63 -9.49)"/><path d="M231.17,14.05a1.86,1.86,0,0,0,.33,0l.32-.08v.77a2.49,2.49,0,0,1-.41.13,3.12,3.12,0,0,1-.55.05,1.7,1.7,0,0,1-.61-.11,1,1,0,0,1-.43-.39,1.62,1.62,0,0,1-.15-.77V11.77h-.5v-.44l.57-.35.3-.81h.67V11h1.07v.78h-1.07v1.84a.42.42,0,0,0,.12.33A.53.53,0,0,0,231.17,14.05Z" transform="translate(-38.63 -9.49)"/><path d="M234.17,10.92a1.85,1.85,0,0,1,.91.2,1.35,1.35,0,0,1,.59.59,2,2,0,0,1,.21.94v.51h-2.46a1,1,0,0,0,.26.69.93.93,0,0,0,.69.25A2.81,2.81,0,0,0,235,14a3.74,3.74,0,0,0,.63-.23v.81a2.49,2.49,0,0,1-.6.2,3.18,3.18,0,0,1-.75.07,2.18,2.18,0,0,1-1-.22,1.55,1.55,0,0,1-.7-.64,2.26,2.26,0,0,1-.25-1.1,2.46,2.46,0,0,1,.23-1.11,1.52,1.52,0,0,1,.63-.67A1.93,1.93,0,0,1,234.17,10.92Zm0,.74a.7.7,0,0,0-.51.19,1,1,0,0,0-.23.61h1.46a1.07,1.07,0,0,0-.08-.41.62.62,0,0,0-.24-.29A.7.7,0,0,0,234.18,11.66Z" transform="translate(-38.63 -9.49)"/><path d="M241.22,10.92a1.33,1.33,0,0,1,1,.33,1.47,1.47,0,0,1,.33,1.07v2.49h-1V12.58a1.14,1.14,0,0,0-.14-.62.5.5,0,0,0-.44-.21.62.62,0,0,0-.58.29,1.65,1.65,0,0,0-.18.85v1.92h-1V12.58a1.47,1.47,0,0,0-.06-.46.58.58,0,0,0-.19-.28.56.56,0,0,0-.33-.09.69.69,0,0,0-.45.14.85.85,0,0,0-.24.43,2.77,2.77,0,0,0-.07.69v1.8h-1V11h.8l.14.49h.05a1.06,1.06,0,0,1,.3-.33,1.21,1.21,0,0,1,.38-.18,1.58,1.58,0,0,1,.43-.05,1.72,1.72,0,0,1,.72.13,1,1,0,0,1,.45.43h.09a1,1,0,0,1,.48-.43A1.64,1.64,0,0,1,241.22,10.92Z" transform="translate(-38.63 -9.49)"/><path d="M174.8,19.39l.23,0a.73.73,0,0,1,.22,0l-.07.52-.21,0-.21,0a1,1,0,0,0-.42.09,1,1,0,0,0-.35.26,1.38,1.38,0,0,0-.24.41,1.48,1.48,0,0,0-.08.53v2h-.58V19.46h.48l.06.69h0a2.07,2.07,0,0,1,.28-.38,1.26,1.26,0,0,1,.38-.27A1.14,1.14,0,0,1,174.8,19.39Z" transform="translate(-38.63 -9.49)"/><path d="M176.25,18.06a.36.36,0,0,1,.24.09.4.4,0,0,1,.1.28.38.38,0,0,1-.1.28.37.37,0,0,1-.24.1.37.37,0,0,1-.25-.1.38.38,0,0,1-.1-.28.4.4,0,0,1,.1-.28A.37.37,0,0,1,176.25,18.06Zm.27,1.4v3.75H176V19.46Z" transform="translate(-38.63 -9.49)"/><path d="M178.77,24.89a2,2,0,0,1-1.14-.28.94.94,0,0,1-.18-1.37,1.2,1.2,0,0,1,.62-.33.67.67,0,0,1-.25-.2.53.53,0,0,1-.1-.32.61.61,0,0,1,.11-.36,1.55,1.55,0,0,1,.35-.3,1,1,0,0,1-.47-.4,1.17,1.17,0,0,1-.19-.67,1.36,1.36,0,0,1,.17-.69,1,1,0,0,1,.49-.43,1.76,1.76,0,0,1,.77-.15h.2l.19,0,.16,0h1.28v.36l-.69.09a1,1,0,0,1,.17.32,1.07,1.07,0,0,1,.07.41,1.12,1.12,0,0,1-.38.9,1.58,1.58,0,0,1-1,.32,1.77,1.77,0,0,1-.32,0,.76.76,0,0,0-.25.2.41.41,0,0,0-.09.26.23.23,0,0,0,.07.18.37.37,0,0,0,.19.09,1.26,1.26,0,0,0,.3,0h.66a1.5,1.5,0,0,1,.94.26.88.88,0,0,1,.33.74,1.07,1.07,0,0,1-.51,1A2.67,2.67,0,0,1,178.77,24.89Zm0-.44a2.82,2.82,0,0,0,.77-.1.91.91,0,0,0,.45-.27.6.6,0,0,0,.16-.42.5.5,0,0,0-.11-.34.5.5,0,0,0-.3-.15,2.21,2.21,0,0,0-.48,0h-.65a1.15,1.15,0,0,0-.44.08.57.57,0,0,0-.29.23.65.65,0,0,0-.1.38.52.52,0,0,0,.25.47A1.48,1.48,0,0,0,178.79,24.45Zm.14-3a.84.84,0,0,0,.61-.2.81.81,0,0,0,.21-.6.86.86,0,0,0-.21-.63.83.83,0,0,0-.62-.21.8.8,0,0,0-.59.21.9.9,0,0,0-.21.64.8.8,0,0,0,.21.59A.85.85,0,0,0,178.93,21.45Z" transform="translate(-38.63 -9.49)"/><path d="M182.09,17.89v1.59a2.44,2.44,0,0,1,0,.27,2,2,0,0,1,0,.26h0a1,1,0,0,1,.29-.33,1.44,1.44,0,0,1,.41-.21,1.57,1.57,0,0,1,.49-.07,1.82,1.82,0,0,1,.75.14,1.05,1.05,0,0,1,.46.45,1.75,1.75,0,0,1,.15.78v2.44h-.56v-2.4a1,1,0,0,0-.22-.71.86.86,0,0,0-.65-.23,1.21,1.21,0,0,0-.67.16.89.89,0,0,0-.35.47,2.28,2.28,0,0,0-.11.75v2h-.57V17.89Z" transform="translate(-38.63 -9.49)"/><path d="M187,22.81l.28,0,.24-.06v.44a1.1,1.1,0,0,1-.27.08l-.35,0a1.37,1.37,0,0,1-.54-.11.8.8,0,0,1-.38-.35,1.36,1.36,0,0,1-.15-.69V19.91h-.53v-.28l.53-.22.23-.82h.34v.87h1.1v.45h-1.1v2.2a.8.8,0,0,0,.16.53A.6.6,0,0,0,187,22.81Z" transform="translate(-38.63 -9.49)"/><path d="M188,21.58v-.5h1.7v.5Z" transform="translate(-38.63 -9.49)"/><path d="M191.13,17.89v1.59a2.44,2.44,0,0,1,0,.27,2,2,0,0,1,0,.26h0a1,1,0,0,1,.29-.33,1.44,1.44,0,0,1,.41-.21,1.57,1.57,0,0,1,.49-.07,1.82,1.82,0,0,1,.75.14,1.05,1.05,0,0,1,.46.45,1.75,1.75,0,0,1,.15.78v2.44h-.56v-2.4a1,1,0,0,0-.22-.71.86.86,0,0,0-.65-.23,1.21,1.21,0,0,0-.67.16.89.89,0,0,0-.35.47,2.28,2.28,0,0,0-.11.75v2h-.57V17.89Z" transform="translate(-38.63 -9.49)"/><path d="M196.26,19.4a1.41,1.41,0,0,1,1,.3,1.24,1.24,0,0,1,.33,1v2.55h-.42l-.11-.56h0a2.25,2.25,0,0,1-.33.35,1.39,1.39,0,0,1-.4.21,2.11,2.11,0,0,1-.55.07,1.46,1.46,0,0,1-.6-.12.89.89,0,0,1-.42-.37,1.13,1.13,0,0,1-.15-.61,1,1,0,0,1,.44-.86,2.63,2.63,0,0,1,1.36-.33l.64,0v-.23a.91.91,0,0,0-.21-.68.8.8,0,0,0-.58-.19,2,2,0,0,0-.56.08,3.89,3.89,0,0,0-.51.21l-.17-.44a3.2,3.2,0,0,1,.58-.22A2.61,2.61,0,0,1,196.26,19.4Zm.76,2-.57,0a1.79,1.79,0,0,0-1,.23.65.65,0,0,0-.29.57.56.56,0,0,0,.2.47.81.81,0,0,0,.51.15,1.23,1.23,0,0,0,.82-.27,1.06,1.06,0,0,0,.32-.83Z" transform="translate(-38.63 -9.49)"/><path d="M200.52,19.39a1.41,1.41,0,0,1,1,.33,1.4,1.4,0,0,1,.34,1.05v2.44h-.56v-2.4a1,1,0,0,0-.21-.71.88.88,0,0,0-.66-.23,1,1,0,0,0-.87.35,1.76,1.76,0,0,0-.26,1v2h-.56V19.46h.45l.09.54h0a1.18,1.18,0,0,1,.3-.33,1.5,1.5,0,0,1,.42-.21A1.85,1.85,0,0,1,200.52,19.39Z" transform="translate(-38.63 -9.49)"/><path d="M204.37,23.28a1.4,1.4,0,0,1-1.12-.49,2.13,2.13,0,0,1-.42-1.44,2.19,2.19,0,0,1,.42-1.46,1.43,1.43,0,0,1,1.13-.5,1.62,1.62,0,0,1,.52.08,1.07,1.07,0,0,1,.38.21,1.27,1.27,0,0,1,.27.3h0c0-.07,0-.17,0-.29s0-.22,0-.3v-1.5h.57v5.32h-.46l-.08-.54h0a1.3,1.3,0,0,1-.26.31,1.47,1.47,0,0,1-.39.22A1.69,1.69,0,0,1,204.37,23.28Zm.09-.48a1,1,0,0,0,.85-.34,1.67,1.67,0,0,0,.25-1v-.1a2.06,2.06,0,0,0-.24-1.1.91.91,0,0,0-.86-.38.85.85,0,0,0-.78.4,1.91,1.91,0,0,0-.26,1.09,1.82,1.82,0,0,0,.26,1.07A.88.88,0,0,0,204.46,22.8Z" transform="translate(-38.63 -9.49)"/><path d="M208.76,19.39a1.44,1.44,0,0,1,.82.22,1.32,1.32,0,0,1,.53.59,2,2,0,0,1,.18.89v.35H207.7a1.51,1.51,0,0,0,.33,1,1.15,1.15,0,0,0,.89.34,2.93,2.93,0,0,0,.63-.06,3.54,3.54,0,0,0,.57-.2V23a2.65,2.65,0,0,1-.56.19,3.23,3.23,0,0,1-.66.06,2,2,0,0,1-.94-.22,1.58,1.58,0,0,1-.63-.65,2.39,2.39,0,0,1-.22-1.05,2.46,2.46,0,0,1,.21-1.05,1.53,1.53,0,0,1,.57-.68A1.58,1.58,0,0,1,208.76,19.39Zm0,.47a.93.93,0,0,0-.73.3,1.4,1.4,0,0,0-.32.83h2a1.52,1.52,0,0,0-.1-.59.84.84,0,0,0-.31-.4A.91.91,0,0,0,208.76,19.86Z" transform="translate(-38.63 -9.49)"/><path d="M212.58,23.28a1.42,1.42,0,0,1-1.12-.49,2.13,2.13,0,0,1-.42-1.44,2.14,2.14,0,0,1,.43-1.46,1.41,1.41,0,0,1,1.13-.5,1.67,1.67,0,0,1,.52.08,1.28,1.28,0,0,1,.38.21,1.53,1.53,0,0,1,.27.3h0c0-.07,0-.17,0-.29s0-.22,0-.3v-1.5h.56v5.32h-.45l-.09-.54h0a1.14,1.14,0,0,1-.27.31,1.47,1.47,0,0,1-.39.22A1.64,1.64,0,0,1,212.58,23.28Zm.09-.48a1,1,0,0,0,.86-.34,1.75,1.75,0,0,0,.24-1v-.1a2.07,2.07,0,0,0-.23-1.1.93.93,0,0,0-.87-.38.87.87,0,0,0-.78.4,2,2,0,0,0-.26,1.09,1.9,1.9,0,0,0,.26,1.07A.88.88,0,0,0,212.67,22.8Z" transform="translate(-38.63 -9.49)"/><path d="M216.18,22.39l0,.08a4.58,4.58,0,0,1-.16.54c-.06.19-.13.38-.2.57s-.15.36-.23.53h-.42c.05-.18.1-.37.14-.58s.09-.4.13-.59.06-.38.09-.55Z" transform="translate(-38.63 -9.49)"/><path d="M220.53,20.72l1.32-2.51h.63l-1.66,3.06v1.94h-.59V21.3l-1.66-3.09h.63Z" transform="translate(-38.63 -9.49)"/><path d="M228,19.46v3.75h-.46l-.09-.53h0a1.18,1.18,0,0,1-.3.33,1.2,1.2,0,0,1-.41.2,2,2,0,0,1-.49.07,1.67,1.67,0,0,1-.75-.15.92.92,0,0,1-.45-.44,1.73,1.73,0,0,1-.15-.77V19.46h.57v2.42a1,1,0,0,0,.21.69.82.82,0,0,0,.65.23,1.24,1.24,0,0,0,.66-.15.86.86,0,0,0,.36-.47,2.28,2.28,0,0,0,.11-.75v-2Z" transform="translate(-38.63 -9.49)"/><path d="M231,19.39a1.39,1.39,0,0,1,1.12.49,2.13,2.13,0,0,1,.41,1.44,2.64,2.64,0,0,1-.19,1.08,1.3,1.3,0,0,1-.54.65,1.45,1.45,0,0,1-.81.23,1.69,1.69,0,0,1-.53-.08A1.25,1.25,0,0,1,230,23a1.45,1.45,0,0,1-.27-.29h0c0,.08,0,.19,0,.32s0,.23,0,.32v1.54h-.57V19.46h.47l.07.56h0a1.35,1.35,0,0,1,.27-.32,1.09,1.09,0,0,1,.38-.22A1.45,1.45,0,0,1,231,19.39Zm-.1.48a1.18,1.18,0,0,0-.63.15.88.88,0,0,0-.34.45,2,2,0,0,0-.12.75v.11a2.31,2.31,0,0,0,.11.8.87.87,0,0,0,.34.5,1.07,1.07,0,0,0,.65.17.93.93,0,0,0,.58-.18,1.2,1.2,0,0,0,.35-.53,2.55,2.55,0,0,0,.11-.77,1.93,1.93,0,0,0-.26-1.06A.87.87,0,0,0,230.85,19.87Z" transform="translate(-38.63 -9.49)"/><path d="M171.88,31.21l.29,0,.24-.06v.44a1.25,1.25,0,0,1-.27.08l-.35,0a1.33,1.33,0,0,1-.54-.11.87.87,0,0,1-.39-.35,1.48,1.48,0,0,1-.14-.69V28.31h-.53V28l.53-.22L171,27h.34v.87h1.1v.45h-1.1v2.2a.75.75,0,0,0,.16.53A.58.58,0,0,0,171.88,31.21Z" transform="translate(-38.63 -9.49)"/><path d="M173.74,26.29v1.59c0,.09,0,.18,0,.27a2,2,0,0,1,0,.26h0a1.18,1.18,0,0,1,.3-.33,1.32,1.32,0,0,1,.41-.21,1.51,1.51,0,0,1,.48-.07,1.88,1.88,0,0,1,.76.14,1,1,0,0,1,.45.45,1.75,1.75,0,0,1,.15.78v2.44h-.56v-2.4a1,1,0,0,0-.21-.71.87.87,0,0,0-.66-.23,1.2,1.2,0,0,0-.66.16.91.91,0,0,0-.36.47,2.31,2.31,0,0,0-.1.75v2h-.57V26.29Z" transform="translate(-38.63 -9.49)"/><path d="M178.9,27.79a1.44,1.44,0,0,1,.82.22,1.32,1.32,0,0,1,.53.59,2,2,0,0,1,.18.89v.35h-2.59a1.51,1.51,0,0,0,.33,1,1.15,1.15,0,0,0,.9.34,2.9,2.9,0,0,0,.62-.06,3.23,3.23,0,0,0,.57-.2v.5a2.65,2.65,0,0,1-.56.19,3.23,3.23,0,0,1-.66.06,2,2,0,0,1-.94-.22,1.5,1.5,0,0,1-.62-.65,2.26,2.26,0,0,1-.23-1,2.46,2.46,0,0,1,.21-1.05A1.53,1.53,0,0,1,178,28,1.58,1.58,0,0,1,178.9,27.79Zm0,.47a.93.93,0,0,0-.73.3,1.4,1.4,0,0,0-.32.83h2a1.52,1.52,0,0,0-.1-.59.84.84,0,0,0-.31-.4A.91.91,0,0,0,178.9,28.26Z" transform="translate(-38.63 -9.49)"/><path d="M184,31.61l-1.43-3.75h.61l.82,2.27q.09.23.18.51a3.93,3.93,0,0,1,.12.45h0a4.42,4.42,0,0,1,.13-.45c.07-.19.12-.36.18-.51l.82-2.27h.61l-1.43,3.75Z" transform="translate(-38.63 -9.49)"/><path d="M187,26.46a.33.33,0,0,1,.34.37.34.34,0,0,1-.1.28.37.37,0,0,1-.24.1.33.33,0,0,1-.34-.38.39.39,0,0,1,.09-.28A.37.37,0,0,1,187,26.46Zm.28,1.4v3.75h-.57V27.86Z" transform="translate(-38.63 -9.49)"/><path d="M189.92,27.79a1.46,1.46,0,0,1,.82.22,1.3,1.3,0,0,1,.52.59,2,2,0,0,1,.18.89v.35h-2.59a1.51,1.51,0,0,0,.33,1,1.15,1.15,0,0,0,.9.34,3.06,3.06,0,0,0,.63-.06,3.44,3.44,0,0,0,.56-.2v.5a2.47,2.47,0,0,1-.56.19,3.1,3.1,0,0,1-.66.06,2,2,0,0,1-.94-.22,1.56,1.56,0,0,1-.62-.65,2.26,2.26,0,0,1-.22-1,2.46,2.46,0,0,1,.2-1.05A1.67,1.67,0,0,1,189,28,1.59,1.59,0,0,1,189.92,27.79Zm0,.47a.92.92,0,0,0-.72.3,1.4,1.4,0,0,0-.33.83h2a1.72,1.72,0,0,0-.11-.59.82.82,0,0,0-.3-.4A1,1,0,0,0,189.91,28.26Z" transform="translate(-38.63 -9.49)"/><path d="M195.45,31.6l-.66-2.18-.09-.27c0-.09,0-.18-.07-.26s0-.16-.06-.24,0-.13,0-.18h0c0,.05,0,.11,0,.18s0,.15-.06.24l-.07.26c0,.09-.05.19-.08.28l-.7,2.17h-.64l-1-3.74h.59l.54,2.06c0,.14.07.27.1.41s.06.26.09.37,0,.22,0,.31h0c0-.06,0-.13,0-.21s0-.16.06-.25.05-.18.07-.27,0-.17.08-.25l.69-2.17h.61l.67,2.16c0,.11.06.23.1.34l.09.35c0,.11,0,.21.05.29h0c0-.07,0-.17.05-.28s.06-.24.09-.38.07-.28.11-.42l.54-2.06h.58l-1,3.74Z" transform="translate(-38.63 -9.49)"/><path d="M199.27,27.79a1.46,1.46,0,0,1,.82.22,1.32,1.32,0,0,1,.53.59,2,2,0,0,1,.18.89v.35h-2.59a1.51,1.51,0,0,0,.33,1,1.15,1.15,0,0,0,.89.34,2.93,2.93,0,0,0,.63-.06,3.91,3.91,0,0,0,.57-.2v.5a2.65,2.65,0,0,1-.56.19,3.23,3.23,0,0,1-.66.06,2,2,0,0,1-.94-.22,1.58,1.58,0,0,1-.63-.65,2.39,2.39,0,0,1-.22-1,2.62,2.62,0,0,1,.2-1.05,1.62,1.62,0,0,1,.58-.68A1.58,1.58,0,0,1,199.27,27.79Zm0,.47a.93.93,0,0,0-.73.3,1.34,1.34,0,0,0-.32.83h2a1.52,1.52,0,0,0-.1-.59.84.84,0,0,0-.31-.4A.91.91,0,0,0,199.27,28.26Z" transform="translate(-38.63 -9.49)"/><path d="M203.46,27.79l.24,0a.78.78,0,0,1,.22,0l-.07.52-.21,0-.21,0a1.07,1.07,0,0,0-.43.09,1.1,1.1,0,0,0-.35.26,1.18,1.18,0,0,0-.23.41,1.47,1.47,0,0,0-.09.53v2h-.57V27.86h.47l.06.69h0a2.07,2.07,0,0,1,.28-.38,1.15,1.15,0,0,1,.38-.27A1.09,1.09,0,0,1,203.46,27.79Z" transform="translate(-38.63 -9.49)"/><path d="M207.84,27.8a1.44,1.44,0,0,1,1,.3,1.28,1.28,0,0,1,.32,1v2.55h-.41l-.11-.56h0a1.86,1.86,0,0,1-.33.35,1.22,1.22,0,0,1-.39.21,2.17,2.17,0,0,1-.55.07,1.48,1.48,0,0,1-.61-.12.92.92,0,0,1-.41-.37,1,1,0,0,1-.16-.61,1,1,0,0,1,.45-.86,2.56,2.56,0,0,1,1.35-.33l.65,0v-.23a.91.91,0,0,0-.21-.68.84.84,0,0,0-.59-.19,2,2,0,0,0-.56.08,3.89,3.89,0,0,0-.51.21l-.17-.44a3.52,3.52,0,0,1,.58-.22A2.61,2.61,0,0,1,207.84,27.8Zm.76,2-.57,0a1.79,1.79,0,0,0-1,.23.65.65,0,0,0-.29.57.56.56,0,0,0,.2.47.81.81,0,0,0,.51.15,1.21,1.21,0,0,0,.82-.27,1.06,1.06,0,0,0,.32-.83Z" transform="translate(-38.63 -9.49)"/><path d="M211.22,29.69l-1.29-1.83h.65l1,1.44,1-1.44h.64l-1.3,1.83,1.37,1.92h-.65l-1.05-1.53-1.05,1.53h-.65Z" transform="translate(-38.63 -9.49)"/><path d="M214.28,26.46a.37.37,0,0,1,.25.09.4.4,0,0,1,.1.28.38.38,0,0,1-.1.28.37.37,0,0,1-.25.1.35.35,0,0,1-.24-.1.34.34,0,0,1-.1-.28.36.36,0,0,1,.1-.28A.34.34,0,0,1,214.28,26.46Zm.28,1.4v3.75H214V27.86Z" transform="translate(-38.63 -9.49)"/><path d="M218.18,30.58a1,1,0,0,1-.18.61,1.08,1.08,0,0,1-.51.36,2.11,2.11,0,0,1-.79.13,2.68,2.68,0,0,1-.68-.07,1.91,1.91,0,0,1-.51-.17v-.52a4.3,4.3,0,0,0,.55.2,2.37,2.37,0,0,0,.65.09,1.32,1.32,0,0,0,.71-.15.52.52,0,0,0,.21-.43.5.5,0,0,0-.08-.27.84.84,0,0,0-.3-.23,3.57,3.57,0,0,0-.56-.24c-.24-.1-.45-.19-.62-.28a1.15,1.15,0,0,1-.41-.33.85.85,0,0,1-.14-.5.82.82,0,0,1,.39-.73,1.78,1.78,0,0,1,1-.26,3.2,3.2,0,0,1,.63.07,2.37,2.37,0,0,1,.55.18l-.19.45a3.52,3.52,0,0,0-.49-.16,2,2,0,0,0-.54-.07,1.18,1.18,0,0,0-.61.13.38.38,0,0,0-.21.35.44.44,0,0,0,.1.29.84.84,0,0,0,.31.21l.57.24a4,4,0,0,1,.61.26,1.2,1.2,0,0,1,.39.34A.8.8,0,0,1,218.18,30.58Z" transform="translate(-38.63 -9.49)"/><path d="M221.21,26.46a.36.36,0,0,1,.24.09.4.4,0,0,1,.1.28.38.38,0,0,1-.1.28.37.37,0,0,1-.24.1.37.37,0,0,1-.25-.1.38.38,0,0,1-.1-.28.4.4,0,0,1,.1-.28A.37.37,0,0,1,221.21,26.46Zm.27,1.4v3.75h-.56V27.86Z" transform="translate(-38.63 -9.49)"/><path d="M225.11,30.58a1,1,0,0,1-.18.61,1.06,1.06,0,0,1-.52.36,2.08,2.08,0,0,1-.79.13,2.73,2.73,0,0,1-.68-.07,1.73,1.73,0,0,1-.5-.17v-.52a3.65,3.65,0,0,0,.54.2,2.37,2.37,0,0,0,.65.09,1.29,1.29,0,0,0,.71-.15.52.52,0,0,0,.21-.43.43.43,0,0,0-.08-.27.89.89,0,0,0-.29-.23,4.26,4.26,0,0,0-.57-.24c-.24-.1-.45-.19-.62-.28a1.15,1.15,0,0,1-.41-.33.85.85,0,0,1-.14-.5.82.82,0,0,1,.39-.73,1.78,1.78,0,0,1,1-.26,3.2,3.2,0,0,1,.63.07A2.37,2.37,0,0,1,225,28l-.19.45a3.52,3.52,0,0,0-.49-.16,2,2,0,0,0-.54-.07,1.11,1.11,0,0,0-.6.13.38.38,0,0,0-.21.35.44.44,0,0,0,.09.29.81.81,0,0,0,.32.21c.14.07.33.15.56.24a4,4,0,0,1,.61.26,1.36,1.36,0,0,1,.4.34A.87.87,0,0,1,225.11,30.58Z" transform="translate(-38.63 -9.49)"/><path class="cls-3" d="M229.61,28.77h1.32v.75h-1.32v1.31h-.75V29.52h-1.32v-.75h1.32V27.43h.75Z" transform="translate(-38.63 -9.49)"/><path class="cls-3" d="M235.13,31.61h-3.72v-.69l2.39-3.43h-2.33v-.88h3.59v.68l-2.39,3.44h2.46Z" transform="translate(-38.63 -9.49)"/></svg>