<svg id="Layer_1" data-name="Layer 1" xmlns="http://www.w3.org/2000/svg" viewBox="0 0 210.49 110.4"><defs><style>.cls-1,.cls-8{fill:#c83232;}.cls-2,.cls-4,.cls-6{fill:none;stroke-miterlimit:10;stroke-width:3px;}.cls-2{stroke:#c83232;}.cls-3,.cls-7{fill:#3232c8;}.cls-4{stroke:#3232c8;}.cls-5,.cls-9{fill:#32c832;}.cls-6{stroke:#32c832;}.cls-7,.cls-8,.cls-9{isolation:isolate;font-size:7px;font-family:SegoeUI-Bold, Segoe UI;font-weight:700;}.cls-10{fill:#00da00;}.cls-11{fill:#0000da;}</style></defs><polygon class="cls-1" points="79.39 89.42 71.1 84.72 70.08 91.45 79.39 89.42"/><line class="cls-2" x1="73.82" y1="88.48" x2="41.51" y2="83.76"/><polygon class="cls-3" points="42.05 32.64 38.65 44.93 45.45 44.93 42.05 32.64"/><line class="cls-4" x1="41.95" y1="40.44" x2="42.15" y2="85.54"/><polygon class="cls-5" points="16.51 102.61 24.63 100.82 20.59 95.36 16.51 102.61"/><line class="cls-6" x1="20.44" y1="99.82" x2="42.69" y2="83.1"/><circle class="cls-5" cx="42.25" cy="83.1" r="2.5"/><polygon class="cls-1" points="201.29 89.48 193 84.78 191.97 91.5 201.29 89.48"/><line class="cls-2" x1="195.72" y1="88.53" x2="163.41" y2="83.82"/><polygon class="cls-5" points="163.95 32.69 160.55 44.99 167.35 44.99 163.95 32.69"/><line class="cls-6" x1="163.85" y1="40.49" x2="164.05" y2="85.59"/><polygon class="cls-3" points="138.41 102.67 146.53 100.88 142.49 95.42 138.41 102.67"/><line class="cls-4" x1="142.34" y1="99.88" x2="164.59" y2="83.15"/><circle class="cls-3" cx="164.15" cy="83.15" r="2.5"/><text class="cls-7" transform="translate(35.55 30.79)">+Z</text><text class="cls-8" transform="translate(79.25 93.54)">+X</text><text class="cls-9" transform="translate(6.85 107.39)">-Y</text><text class="cls-7" transform="translate(127.45 107.39)">+Z</text><text class="cls-8" transform="translate(200.95 93.54)">+X</text><text class="cls-9" transform="translate(157.65 30.79)">+Y</text><path d="M5,4.5a3.53,3.53,0,0,1-.15,1.06,2.25,2.25,0,0,1-.43.81,2,2,0,0,1-.74.53,2.83,2.83,0,0,1-1.06.18A2.83,2.83,0,0,1,1.52,6.9a1.93,1.93,0,0,1-.74-.53,2.23,2.23,0,0,1-.44-.82,3.76,3.76,0,0,1-.14-1A3.29,3.29,0,0,1,.45,3.15a1.88,1.88,0,0,1,.79-.9,2.58,2.58,0,0,1,1.34-.32,2.56,2.56,0,0,1,1.34.32,1.91,1.91,0,0,1,.78.9A3.32,3.32,0,0,1,5,4.5Zm-3.65,0a2.77,2.77,0,0,0,.13.91A1.25,1.25,0,0,0,1.85,6a1.26,1.26,0,0,0,.73.2A1.26,1.26,0,0,0,3.31,6a1.18,1.18,0,0,0,.41-.58,3.07,3.07,0,0,0,.13-.91,2.19,2.19,0,0,0-.3-1.23,1.07,1.07,0,0,0-1-.45,1.21,1.21,0,0,0-.73.2,1.25,1.25,0,0,0-.41.58A2.67,2.67,0,0,0,1.31,4.5Z" transform="translate(-0.2 -1.69)"/><path d="M8.94,3.13a1.27,1.27,0,0,1-.14.6,1.18,1.18,0,0,1-.39.41,1.7,1.7,0,0,1-.55.24v0a1.59,1.59,0,0,1,.92.37,1,1,0,0,1,.31.78,1.48,1.48,0,0,1-.21.79,1.49,1.49,0,0,1-.66.54,2.89,2.89,0,0,1-1.15.2A3.8,3.8,0,0,1,6.3,7a2.89,2.89,0,0,1-.67-.2v-.9a3.18,3.18,0,0,0,.67.25A3.29,3.29,0,0,0,7,6.24,1.16,1.16,0,0,0,7.75,6,.66.66,0,0,0,8,5.49a.58.58,0,0,0-.1-.35.71.71,0,0,0-.37-.22,2.85,2.85,0,0,0-.73-.07H6.4V4h.39A2.12,2.12,0,0,0,7.49,4a.62.62,0,0,0,.33-.24.78.78,0,0,0,.08-.35A.53.53,0,0,0,7.74,3a.8.8,0,0,0-.55-.15,1.44,1.44,0,0,0-.43.06A1.69,1.69,0,0,0,6.4,3l-.27.16-.49-.73a2.48,2.48,0,0,1,.69-.35,2.86,2.86,0,0,1,.94-.14,2.1,2.1,0,0,1,1.22.31A1,1,0,0,1,8.94,3.13Z" transform="translate(-0.2 -1.69)"/><path d="M14.14,4.46a2.83,2.83,0,0,1-.32,1.41,2.12,2.12,0,0,1-.94.86A3.44,3.44,0,0,1,11.41,7H10V2h1.57a3.22,3.22,0,0,1,1.37.28,2,2,0,0,1,.89.83A2.63,2.63,0,0,1,14.14,4.46Zm-1.1,0a2.18,2.18,0,0,0-.16-.91,1.13,1.13,0,0,0-.48-.53,1.67,1.67,0,0,0-.78-.17h-.57V6.14h.46a1.46,1.46,0,0,0,1.15-.42A1.76,1.76,0,0,0,13,4.49Z" transform="translate(-0.2 -1.69)"/><path d="M18.05,7H15.18V2h2.87v.87H16.24V4h1.69v.87H16.24V6.14h1.81Z" transform="translate(-0.2 -1.69)"/><path d="M22.38,7.08a2,2,0,0,1-1-.21,1.36,1.36,0,0,1-.61-.64,2.56,2.56,0,0,1-.21-1.11A2.35,2.35,0,0,1,20.84,4a1.43,1.43,0,0,1,.66-.65,2.17,2.17,0,0,1,1-.21,2.73,2.73,0,0,1,.68.07,4.23,4.23,0,0,1,.51.19l-.31.8L22.9,4A1.52,1.52,0,0,0,22.48,4a.71.71,0,0,0-.73.51,2,2,0,0,0-.09.64,1.8,1.8,0,0,0,.1.63.72.72,0,0,0,.28.37.76.76,0,0,0,.44.12,1.67,1.67,0,0,0,.57-.08,2.13,2.13,0,0,0,.5-.25v.89a1.47,1.47,0,0,1-.5.22A2.55,2.55,0,0,1,22.38,7.08Z" transform="translate(-0.2 -1.69)"/><path d="M27.9,5.09a2.77,2.77,0,0,1-.12.85,1.62,1.62,0,0,1-.38.62,1.56,1.56,0,0,1-.58.39,2.13,2.13,0,0,1-.78.13A2,2,0,0,1,25.3,7a1.73,1.73,0,0,1-1-1,2.49,2.49,0,0,1-.13-.85A2.2,2.2,0,0,1,24.43,4a1.48,1.48,0,0,1,.64-.67,2,2,0,0,1,1-.23,1.83,1.83,0,0,1,1,.23,1.58,1.58,0,0,1,.66.67A2.2,2.2,0,0,1,27.9,5.09Zm-2.64,0a2.38,2.38,0,0,0,.08.64.76.76,0,0,0,.26.38.74.74,0,0,0,.46.13.73.73,0,0,0,.45-.13.82.82,0,0,0,.25-.38,2.38,2.38,0,0,0,.08-.64,2.25,2.25,0,0,0-.08-.63.76.76,0,0,0-.26-.38A.75.75,0,0,0,26.05,4a.65.65,0,0,0-.6.28A1.51,1.51,0,0,0,25.26,5.09Z" transform="translate(-0.2 -1.69)"/><path d="M32.24,5.09a2.49,2.49,0,0,1-.13.85,1.74,1.74,0,0,1-.37.62,1.6,1.6,0,0,1-.59.39,2.11,2.11,0,0,1-.77.13A2,2,0,0,1,29.64,7a1.69,1.69,0,0,1-.59-.39,1.75,1.75,0,0,1-.38-.62,2.48,2.48,0,0,1-.14-.85A2.32,2.32,0,0,1,28.76,4a1.48,1.48,0,0,1,.64-.67,2,2,0,0,1,1-.23,1.88,1.88,0,0,1,1,.23A1.56,1.56,0,0,1,32,4,2.2,2.2,0,0,1,32.24,5.09Zm-2.64,0a2,2,0,0,0,.08.64.7.7,0,0,0,.26.38.69.69,0,0,0,.45.13.73.73,0,0,0,.45-.13.75.75,0,0,0,.25-.38,2,2,0,0,0,.08-.64,1.93,1.93,0,0,0-.08-.63.75.75,0,0,0-.25-.38A.81.81,0,0,0,30.38,4a.67.67,0,0,0-.6.28A1.6,1.6,0,0,0,29.6,5.09Z" transform="translate(-0.2 -1.69)"/><path d="M35.23,3.12h.19l.16,0-.07,1a.57.57,0,0,0-.15,0H35.2a1.6,1.6,0,0,0-.39,0,1,1,0,0,0-.34.17.73.73,0,0,0-.24.3,1,1,0,0,0-.09.46V7h-1V3.19h.79l.15.64h.05a1.64,1.64,0,0,1,.29-.36,1.7,1.7,0,0,1,.38-.26A1.23,1.23,0,0,1,35.23,3.12Z" transform="translate(-0.2 -1.69)"/><path d="M37.49,7.08a1.28,1.28,0,0,1-1-.5,2.32,2.32,0,0,1-.4-1.47,2.34,2.34,0,0,1,.4-1.49,1.32,1.32,0,0,1,1.07-.5,1.43,1.43,0,0,1,.48.07,1.25,1.25,0,0,1,.36.2,1.42,1.42,0,0,1,.26.29h0c0-.08,0-.18,0-.33a3,3,0,0,1,0-.43V1.69h1V7h-.8l-.2-.5h0a1.13,1.13,0,0,1-.25.29A.92.92,0,0,1,38,7,1.42,1.42,0,0,1,37.49,7.08Zm.36-.83A.69.69,0,0,0,38.46,6a1.31,1.31,0,0,0,.18-.76V5.11a1.66,1.66,0,0,0-.17-.85.65.65,0,0,0-.63-.3.61.61,0,0,0-.54.3,1.58,1.58,0,0,0-.2.86,1.46,1.46,0,0,0,.2.84A.64.64,0,0,0,37.85,6.25Z" transform="translate(-0.2 -1.69)"/><path d="M41.23,1.69a.72.72,0,0,1,.4.11.45.45,0,0,1,.17.4.44.44,0,0,1-.17.4.78.78,0,0,1-.8,0,.44.44,0,0,1-.17-.4.45.45,0,0,1,.17-.4A.72.72,0,0,1,41.23,1.69Zm.52,1.5V7h-1V3.19Z" transform="translate(-0.2 -1.69)"/><path d="M45,3.12a1.43,1.43,0,0,1,1,.33,1.36,1.36,0,0,1,.37,1.07V7h-1V4.78a1,1,0,0,0-.15-.62A.53.53,0,0,0,44.71,4a.68.68,0,0,0-.65.33,2.05,2.05,0,0,0-.17.93V7h-1V3.19h.8l.14.49h.06a1,1,0,0,1,.31-.32,1,1,0,0,1,.4-.18A1.84,1.84,0,0,1,45,3.12Z" transform="translate(-0.2 -1.69)"/><path d="M49,3.11a1.79,1.79,0,0,1,1.18.34,1.23,1.23,0,0,1,.41,1V7h-.73l-.2-.52h0a2.15,2.15,0,0,1-.33.34,1.41,1.41,0,0,1-.39.19,2.12,2.12,0,0,1-.54.06A1.33,1.33,0,0,1,47.77,7a1,1,0,0,1-.42-.4,1.29,1.29,0,0,1-.16-.68,1,1,0,0,1,.43-.9,2.47,2.47,0,0,1,1.28-.32l.66,0V4.46A.59.59,0,0,0,49.41,4,.66.66,0,0,0,49,3.88a2,2,0,0,0-.54.08,3.93,3.93,0,0,0-.54.2l-.34-.7a2.75,2.75,0,0,1,.68-.26A3.33,3.33,0,0,1,49,3.11Zm.55,2.13h-.4a1.16,1.16,0,0,0-.7.18.58.58,0,0,0-.2.45.4.4,0,0,0,.14.34.7.7,0,0,0,.37.1.83.83,0,0,0,.56-.2.69.69,0,0,0,.23-.57Z" transform="translate(-0.2 -1.69)"/><path d="M53.28,6.25a1.27,1.27,0,0,0,.34,0l.32-.08V6.9a1.74,1.74,0,0,1-.42.13,2.92,2.92,0,0,1-.54,0A1.66,1.66,0,0,1,52.37,7a1,1,0,0,1-.43-.39,1.62,1.62,0,0,1-.15-.77V4h-.5V3.53l.57-.35.3-.8h.67v.81H53.9V4H52.83V5.81a.42.42,0,0,0,.12.33A.52.52,0,0,0,53.28,6.25Z" transform="translate(-0.2 -1.69)"/><path d="M56.29,3.12a2,2,0,0,1,.91.2,1.4,1.4,0,0,1,.59.59,2,2,0,0,1,.21.94v.51H55.54a1,1,0,0,0,.26.69.93.93,0,0,0,.69.25,2.81,2.81,0,0,0,.67-.07A3.36,3.36,0,0,0,57.78,6v.81a2.28,2.28,0,0,1-.59.2,3.18,3.18,0,0,1-.75.07,2.38,2.38,0,0,1-1-.21,1.6,1.6,0,0,1-.69-.65,2.12,2.12,0,0,1-.25-1.09A2.48,2.48,0,0,1,54.71,4a1.52,1.52,0,0,1,.63-.67A1.93,1.93,0,0,1,56.29,3.12Zm0,.74a.68.68,0,0,0-.5.19,1,1,0,0,0-.23.62H57a1.08,1.08,0,0,0-.08-.42A.67.67,0,0,0,56.7,4,.73.73,0,0,0,56.29,3.86Z" transform="translate(-0.2 -1.69)"/><path d="M63.33,5.88a1.13,1.13,0,0,1-.18.65,1.07,1.07,0,0,1-.55.41,2.58,2.58,0,0,1-.9.14A4.4,4.4,0,0,1,61,7a3.18,3.18,0,0,1-.58-.17V6a4.39,4.39,0,0,0,.67.23,2.64,2.64,0,0,0,.63.09.79.79,0,0,0,.43-.09A.27.27,0,0,0,62.3,6a.25.25,0,0,0,0-.17A.67.67,0,0,0,62,5.64c-.11-.06-.3-.15-.54-.25a2.91,2.91,0,0,1-.59-.31,1,1,0,0,1-.35-.36,1.2,1.2,0,0,1-.11-.54.87.87,0,0,1,.42-.79A2,2,0,0,1,62,3.12a3.08,3.08,0,0,1,.68.07,3.26,3.26,0,0,1,.66.23L63,4.17a5.21,5.21,0,0,0-.54-.2,1.81,1.81,0,0,0-.51-.08.74.74,0,0,0-.34.06.2.2,0,0,0-.12.19.23.23,0,0,0,.06.16.81.81,0,0,0,.23.16l.51.23a3.67,3.67,0,0,1,.56.27,1,1,0,0,1,.5.92Z" transform="translate(-0.2 -1.69)"/><path d="M63.6,3.19h1.14l.72,2.15.06.21a1.43,1.43,0,0,1,0,.22l0,.23h0a1.72,1.72,0,0,1,.06-.34,1.68,1.68,0,0,1,.09-.32l.7-2.15h1.12L66,7.5a1.94,1.94,0,0,1-.38.66,1.58,1.58,0,0,1-.54.4,1.63,1.63,0,0,1-.67.13,1.47,1.47,0,0,1-.31,0l-.22,0V7.81l.18,0h.23a.72.72,0,0,0,.37-.09.81.81,0,0,0,.27-.25,1.33,1.33,0,0,0,.16-.34L65.12,7Z" transform="translate(-0.2 -1.69)"/><path d="M70.79,5.88a1.13,1.13,0,0,1-.18.65,1.09,1.09,0,0,1-.54.41,2.68,2.68,0,0,1-.91.14,4.4,4.4,0,0,1-.68,0,3.43,3.43,0,0,1-.58-.17V6a4.39,4.39,0,0,0,.67.23,2.64,2.64,0,0,0,.63.09.76.76,0,0,0,.43-.09A.27.27,0,0,0,69.76,6a.25.25,0,0,0-.05-.17.58.58,0,0,0-.23-.18,5.07,5.07,0,0,0-.54-.25,2.91,2.91,0,0,1-.59-.31A.9.9,0,0,1,68,4.72a1.08,1.08,0,0,1-.11-.54.86.86,0,0,1,.41-.79,2,2,0,0,1,1.1-.27,3,3,0,0,1,.68.07,3.26,3.26,0,0,1,.66.23l-.31.75A5.21,5.21,0,0,0,69.9,4a1.7,1.7,0,0,0-.51-.08.74.74,0,0,0-.34.06.2.2,0,0,0-.12.19A.23.23,0,0,0,69,4.3a.81.81,0,0,0,.23.16l.51.23a3.67,3.67,0,0,1,.56.27,1,1,0,0,1,.5.92Z" transform="translate(-0.2 -1.69)"/><path d="M73.22,6.25a1.24,1.24,0,0,0,.33,0l.32-.08V6.9a1.8,1.8,0,0,1-.41.13,3.1,3.1,0,0,1-.54,0A1.71,1.71,0,0,1,72.3,7a.88.88,0,0,1-.42-.39,1.5,1.5,0,0,1-.16-.77V4h-.5V3.53l.57-.35.31-.8h.66v.81h1.07V4H72.76V5.81a.39.39,0,0,0,.13.33A.49.49,0,0,0,73.22,6.25Z" transform="translate(-0.2 -1.69)"/><path d="M76.22,3.12a2,2,0,0,1,.91.2,1.42,1.42,0,0,1,.6.59,2.07,2.07,0,0,1,.2.94v.51H75.47a1,1,0,0,0,.26.69.93.93,0,0,0,.69.25,2.76,2.76,0,0,0,.67-.07A3.45,3.45,0,0,0,77.72,6v.81a2.49,2.49,0,0,1-.6.2,3.15,3.15,0,0,1-.74.07,2.32,2.32,0,0,1-1-.21,1.57,1.57,0,0,1-.7-.65,2.22,2.22,0,0,1-.25-1.09A2.48,2.48,0,0,1,74.64,4a1.52,1.52,0,0,1,.63-.67A2,2,0,0,1,76.22,3.12Zm0,.74a.72.72,0,0,0-.51.19,1,1,0,0,0-.23.62H77a1.08,1.08,0,0,0-.09-.42A.67.67,0,0,0,76.63,4,.7.7,0,0,0,76.23,3.86Z" transform="translate(-0.2 -1.69)"/><path d="M83.27,3.12a1.33,1.33,0,0,1,1,.33,1.47,1.47,0,0,1,.33,1.07V7h-1V4.78a1.14,1.14,0,0,0-.14-.62A.49.49,0,0,0,83,4a.61.61,0,0,0-.58.3,1.61,1.61,0,0,0-.18.84V7h-1V4.78a1.51,1.51,0,0,0-.06-.46A.52.52,0,0,0,80.91,4,.53.53,0,0,0,80.59,4a.65.65,0,0,0-.46.15.82.82,0,0,0-.24.42,3.34,3.34,0,0,0-.07.69V7h-1V3.19h.8l.14.49h.06a.89.89,0,0,1,.29-.32.93.93,0,0,1,.39-.18,1.54,1.54,0,0,1,.43-.06,1.7,1.7,0,0,1,.71.13,1.1,1.1,0,0,1,.45.43h.09a1,1,0,0,1,.48-.43A1.64,1.64,0,0,1,83.27,3.12Z" transform="translate(-0.2 -1.69)"/><path d="M14.52,11.6h.23l.22,0-.07.53-.21,0h-.21a1,1,0,0,0-.42.09.89.89,0,0,0-.35.26,1.07,1.07,0,0,0-.24.4,1.51,1.51,0,0,0-.09.53v2h-.57V11.66h.47l.07.69h0a2.47,2.47,0,0,1,.28-.38A1.46,1.46,0,0,1,14,11.7,1.13,1.13,0,0,1,14.52,11.6Z" transform="translate(-0.2 -1.69)"/><path d="M16,10.26a.37.37,0,0,1,.25.09.4.4,0,0,1,.1.29.41.41,0,0,1-.1.28A.37.37,0,0,1,16,11a.34.34,0,0,1-.24-.09.37.37,0,0,1-.1-.28.37.37,0,0,1,.1-.29A.34.34,0,0,1,16,10.26Zm.28,1.4v3.75h-.57V11.66Z" transform="translate(-0.2 -1.69)"/><path d="M18.49,17.09a2,2,0,0,1-1.14-.27.95.95,0,0,1-.18-1.38,1.2,1.2,0,0,1,.62-.33.6.6,0,0,1-.25-.2.51.51,0,0,1-.1-.32.66.66,0,0,1,.11-.36,1.55,1.55,0,0,1,.35-.3,1,1,0,0,1-.47-.4,1.15,1.15,0,0,1-.19-.67,1.38,1.38,0,0,1,.17-.69,1,1,0,0,1,.49-.43,1.75,1.75,0,0,1,.76-.15h.2l.2,0,.16,0H20.5V12l-.69.09a1,1,0,0,1,.17.32,1.12,1.12,0,0,1,.07.42,1.1,1.1,0,0,1-.38.89,1.53,1.53,0,0,1-1,.33l-.32,0a.94.94,0,0,0-.26.2.5.5,0,0,0-.08.26.24.24,0,0,0,.06.18.46.46,0,0,0,.2.09,1.26,1.26,0,0,0,.3,0h.66a1.5,1.5,0,0,1,.94.26.89.89,0,0,1,.33.75,1.07,1.07,0,0,1-.51,1A2.7,2.7,0,0,1,18.49,17.09Zm0-.44a2.4,2.4,0,0,0,.77-.1.9.9,0,0,0,.46-.27.6.6,0,0,0,.15-.42.49.49,0,0,0-.1-.34.61.61,0,0,0-.3-.15,2.21,2.21,0,0,0-.48,0h-.65a1.15,1.15,0,0,0-.44.08.57.57,0,0,0-.29.23.69.69,0,0,0-.1.39.51.51,0,0,0,.25.46A1.46,1.46,0,0,0,18.5,16.65Zm.15-3a.84.84,0,0,0,.61-.2.81.81,0,0,0,.21-.6.86.86,0,0,0-.21-.63.83.83,0,0,0-.62-.21.78.78,0,0,0-.6.22.86.86,0,0,0-.21.63.76.76,0,0,0,.22.59A.85.85,0,0,0,18.65,13.65Z" transform="translate(-0.2 -1.69)"/><path d="M21.81,10.09v1.59a2.72,2.72,0,0,1,0,.28,2,2,0,0,1,0,.25h0a1,1,0,0,1,.29-.33,1.44,1.44,0,0,1,.41-.21A1.87,1.87,0,0,1,23,11.6a1.67,1.67,0,0,1,.75.15.92.92,0,0,1,.45.44,1.74,1.74,0,0,1,.16.78v2.44h-.56V13a1,1,0,0,0-.22-.7.82.82,0,0,0-.65-.24,1.3,1.3,0,0,0-.67.16.89.89,0,0,0-.35.47,2.08,2.08,0,0,0-.11.75v2h-.57V10.09Z" transform="translate(-0.2 -1.69)"/><path d="M26.74,15A1.42,1.42,0,0,0,27,15l.24-.06v.44a1.1,1.1,0,0,1-.27.08l-.35,0a1.33,1.33,0,0,1-.54-.11.82.82,0,0,1-.39-.35,1.48,1.48,0,0,1-.14-.69V12.11h-.53v-.28l.53-.22.23-.81h.34v.86h1.1v.45h-1.1v2.2a.75.75,0,0,0,.16.53A.54.54,0,0,0,26.74,15Z" transform="translate(-0.2 -1.69)"/><path d="M27.71,13.78v-.5h1.7v.5Z" transform="translate(-0.2 -1.69)"/><path d="M30.85,10.09v1.59a2.72,2.72,0,0,1,0,.28,2,2,0,0,1,0,.25h0a1,1,0,0,1,.29-.33,1.44,1.44,0,0,1,.41-.21,1.93,1.93,0,0,1,.49-.07,1.67,1.67,0,0,1,.75.15.92.92,0,0,1,.45.44,1.61,1.61,0,0,1,.16.78v2.44h-.56V13a1,1,0,0,0-.22-.7.82.82,0,0,0-.65-.24,1.3,1.3,0,0,0-.67.16.89.89,0,0,0-.35.47,2.33,2.33,0,0,0-.11.75v2h-.57V10.09Z" transform="translate(-0.2 -1.69)"/><path d="M36,11.6a1.43,1.43,0,0,1,1,.3,1.24,1.24,0,0,1,.33,1v2.55h-.42l-.11-.55h0a2.69,2.69,0,0,1-.33.34,1.39,1.39,0,0,1-.4.21,1.75,1.75,0,0,1-.55.07,1.43,1.43,0,0,1-.6-.12.93.93,0,0,1-.42-.36,1.19,1.19,0,0,1-.15-.62,1,1,0,0,1,.44-.86,2.63,2.63,0,0,1,1.36-.33l.64,0v-.22a.89.89,0,0,0-.21-.68.82.82,0,0,0-.58-.2,1.69,1.69,0,0,0-.56.09,2.85,2.85,0,0,0-.51.2l-.17-.43a3.18,3.18,0,0,1,.58-.23A2.5,2.5,0,0,1,36,11.6Zm.76,2-.58,0a1.87,1.87,0,0,0-1,.23.65.65,0,0,0-.29.57.56.56,0,0,0,.19.47.79.79,0,0,0,.52.16,1.23,1.23,0,0,0,.82-.28,1,1,0,0,0,.32-.83Z" transform="translate(-0.2 -1.69)"/><path d="M40.24,11.6a1.41,1.41,0,0,1,1,.32A1.4,1.4,0,0,1,41.59,13v2.44H41V13a1,1,0,0,0-.22-.7.82.82,0,0,0-.65-.24,1,1,0,0,0-.87.36,1.7,1.7,0,0,0-.26,1v2h-.57V11.66h.46l.09.54h0a1.18,1.18,0,0,1,.3-.33,1.25,1.25,0,0,1,.42-.2A1.51,1.51,0,0,1,40.24,11.6Z" transform="translate(-0.2 -1.69)"/><path d="M44.09,15.48A1.41,1.41,0,0,1,43,15a2.19,2.19,0,0,1-.41-1.44A2.21,2.21,0,0,1,43,12.09a1.42,1.42,0,0,1,1.13-.49,1.64,1.64,0,0,1,.52.07,1.51,1.51,0,0,1,.38.21,1.27,1.27,0,0,1,.27.3h0c0-.07,0-.16,0-.29s0-.22,0-.3v-1.5h.57v5.32h-.46l-.08-.53h0a1.24,1.24,0,0,1-.65.52A1.69,1.69,0,0,1,44.09,15.48Zm.09-.47a1,1,0,0,0,.85-.34,1.71,1.71,0,0,0,.25-1v-.1a2.09,2.09,0,0,0-.24-1.1.92.92,0,0,0-.86-.38.85.85,0,0,0-.78.4,1.93,1.93,0,0,0-.26,1.09,1.82,1.82,0,0,0,.26,1.07A.88.88,0,0,0,44.18,15Z" transform="translate(-0.2 -1.69)"/><path d="M48.48,11.6a1.51,1.51,0,0,1,.82.21,1.38,1.38,0,0,1,.53.59,2,2,0,0,1,.18.89v.35H47.42a1.51,1.51,0,0,0,.33,1,1.15,1.15,0,0,0,.89.34,2.93,2.93,0,0,0,.63-.06,5.43,5.43,0,0,0,.57-.19v.5a3.3,3.3,0,0,1-.56.18,3.23,3.23,0,0,1-.66.06,1.89,1.89,0,0,1-.94-.22,1.52,1.52,0,0,1-.63-.65,2.33,2.33,0,0,1-.22-1,2.38,2.38,0,0,1,.21-1,1.5,1.5,0,0,1,.57-.69A1.66,1.66,0,0,1,48.48,11.6Zm0,.46a.93.93,0,0,0-.73.3,1.36,1.36,0,0,0-.32.83h2a1.55,1.55,0,0,0-.1-.59.89.89,0,0,0-.31-.4A.91.91,0,0,0,48.48,12.06Z" transform="translate(-0.2 -1.69)"/><path d="M52.3,15.48A1.39,1.39,0,0,1,51.18,15a2.13,2.13,0,0,1-.42-1.44,2.16,2.16,0,0,1,.43-1.46,1.4,1.4,0,0,1,1.12-.49,1.6,1.6,0,0,1,.52.07,1.79,1.79,0,0,1,.39.21,1.93,1.93,0,0,1,.27.3h0c0-.07,0-.16,0-.29s0-.22,0-.3v-1.5h.56v5.32H53.6l-.09-.53h0a1.27,1.27,0,0,1-.27.3,1.47,1.47,0,0,1-.39.22A1.64,1.64,0,0,1,52.3,15.48Zm.09-.47a1,1,0,0,0,.85-.34,1.71,1.71,0,0,0,.25-1v-.1a2.2,2.2,0,0,0-.23-1.1.93.93,0,0,0-.87-.38.85.85,0,0,0-.78.4,2,2,0,0,0-.26,1.09,1.9,1.9,0,0,0,.26,1.07A.88.88,0,0,0,52.39,15Z" transform="translate(-0.2 -1.69)"/><path d="M55.9,14.6l.05.08c0,.16-.1.34-.16.53s-.13.38-.2.57-.15.37-.23.53h-.42c.05-.18.09-.37.14-.57s.09-.4.12-.6.07-.38.09-.54Z" transform="translate(-0.2 -1.69)"/><path d="M62,15.41H58.55V15l2.69-4h-2.6v-.52H62v.44l-2.69,4H62Z" transform="translate(-0.2 -1.69)"/><path d="M67.8,11.66v3.75h-.46l-.09-.53h0a.94.94,0,0,1-.3.33,1.2,1.2,0,0,1-.41.2,1.61,1.61,0,0,1-.49.07,1.67,1.67,0,0,1-.75-.15.92.92,0,0,1-.45-.44,1.73,1.73,0,0,1-.15-.77V11.66h.57v2.42a1,1,0,0,0,.21.7.86.86,0,0,0,.65.23,1.24,1.24,0,0,0,.66-.16.87.87,0,0,0,.36-.46,2.37,2.37,0,0,0,.11-.75v-2Z" transform="translate(-0.2 -1.69)"/><path d="M70.76,11.6a1.41,1.41,0,0,1,1.12.48,2.15,2.15,0,0,1,.42,1.45,2.62,2.62,0,0,1-.2,1.07,1.41,1.41,0,0,1-.53.66,1.59,1.59,0,0,1-.82.22,1.74,1.74,0,0,1-.53-.08,1.17,1.17,0,0,1-.38-.21,1.45,1.45,0,0,1-.27-.29h0c0,.09,0,.19,0,.32s0,.23,0,.33v1.53H69V11.66h.47l.07.56h0a1.14,1.14,0,0,1,.27-.31,1.1,1.1,0,0,1,.38-.23A1.46,1.46,0,0,1,70.76,11.6Zm-.1.47a1.18,1.18,0,0,0-.63.15.88.88,0,0,0-.34.45,2.56,2.56,0,0,0-.12.75v.11a2.69,2.69,0,0,0,.11.81,1,1,0,0,0,.34.5,1.14,1.14,0,0,0,.65.17.92.92,0,0,0,.58-.19,1.2,1.2,0,0,0,.35-.53,2.55,2.55,0,0,0,.11-.77,1.82,1.82,0,0,0-.26-1A.86.86,0,0,0,70.66,12.07Z" transform="translate(-0.2 -1.69)"/><path d="M12.37,23.41a1.32,1.32,0,0,0,.28,0l.24-.06v.44a1,1,0,0,1-.27.08,2.07,2.07,0,0,1-.35,0,1.41,1.41,0,0,1-.54-.11.76.76,0,0,1-.38-.35,1.36,1.36,0,0,1-.15-.69V20.51h-.53v-.28L11.2,20l.23-.81h.34v.86h1.1v.45h-1.1v2.2a.8.8,0,0,0,.16.53A.57.57,0,0,0,12.37,23.41Z" transform="translate(-0.2 -1.69)"/><path d="M14.22,18.49v1.59a2.72,2.72,0,0,1,0,.28,2,2,0,0,1,0,.25h0a1,1,0,0,1,.29-.33,1.44,1.44,0,0,1,.41-.21,1.87,1.87,0,0,1,.49-.07,1.67,1.67,0,0,1,.75.15.92.92,0,0,1,.45.44,1.61,1.61,0,0,1,.16.78v2.44h-.56v-2.4a1,1,0,0,0-.22-.7.82.82,0,0,0-.65-.24,1.3,1.3,0,0,0-.67.16.89.89,0,0,0-.35.47,2.08,2.08,0,0,0-.11.75v2h-.57V18.49Z" transform="translate(-0.2 -1.69)"/><path d="M19.39,20a1.54,1.54,0,0,1,.82.21,1.36,1.36,0,0,1,.52.59,2,2,0,0,1,.18.89V22H18.32a1.51,1.51,0,0,0,.33,1,1.15,1.15,0,0,0,.9.34,3.06,3.06,0,0,0,.63-.06,4.63,4.63,0,0,0,.56-.19v.5a2.81,2.81,0,0,1-.56.18,3.1,3.1,0,0,1-.66.06,1.89,1.89,0,0,1-.94-.22A1.56,1.56,0,0,1,18,23,2.21,2.21,0,0,1,17.74,22a2.38,2.38,0,0,1,.2-1,1.63,1.63,0,0,1,.57-.69A1.67,1.67,0,0,1,19.39,20Zm0,.46a.92.92,0,0,0-.72.3,1.43,1.43,0,0,0-.33.83h2a1.77,1.77,0,0,0-.11-.59.87.87,0,0,0-.3-.4A1,1,0,0,0,19.38,20.46Z" transform="translate(-0.2 -1.69)"/><path d="M24.52,23.81,23.1,20.06h.6l.83,2.27.17.51c.06.19.1.34.13.45h0c0-.11.07-.26.14-.45l.17-.51L26,20.06h.61l-1.42,3.75Z" transform="translate(-0.2 -1.69)"/><path d="M27.48,18.66a.36.36,0,0,1,.24.09.37.37,0,0,1,.1.29.37.37,0,0,1-.1.28.36.36,0,0,1-.24.09.32.32,0,0,1-.24-.09.37.37,0,0,1-.1-.28.37.37,0,0,1,.1-.29A.32.32,0,0,1,27.48,18.66Zm.28,1.4v3.75h-.57V20.06Z" transform="translate(-0.2 -1.69)"/><path d="M30.4,20a1.54,1.54,0,0,1,.82.21,1.36,1.36,0,0,1,.52.59,2,2,0,0,1,.18.89V22H29.34a1.41,1.41,0,0,0,.33,1,1.15,1.15,0,0,0,.89.34,2.93,2.93,0,0,0,.63-.06,5.43,5.43,0,0,0,.57-.19v.5a3.13,3.13,0,0,1-.57.18,3.06,3.06,0,0,1-.65.06,1.93,1.93,0,0,1-.95-.22A1.62,1.62,0,0,1,29,23,2.21,2.21,0,0,1,28.75,22a2.54,2.54,0,0,1,.2-1,1.59,1.59,0,0,1,.58-.69A1.61,1.61,0,0,1,30.4,20Zm0,.46a.92.92,0,0,0-.72.3,1.36,1.36,0,0,0-.32.83h2a1.78,1.78,0,0,0-.1-.59.89.89,0,0,0-.31-.4A1,1,0,0,0,30.39,20.46Z" transform="translate(-0.2 -1.69)"/><path d="M35.94,23.8l-.67-2.18a2.76,2.76,0,0,1-.08-.27c0-.09,0-.18-.07-.26a1.2,1.2,0,0,1-.06-.24c0-.07,0-.13-.05-.18h0s0,.11,0,.18,0,.15-.05.24a2,2,0,0,0-.07.26l-.09.28L34,23.8H33.4l-1-3.74H33l.54,2.06c0,.14.07.28.1.41a3,3,0,0,1,.09.38c0,.11,0,.22.05.3h0c0-.06,0-.12,0-.2s0-.17,0-.26a2.68,2.68,0,0,0,.07-.27c0-.09.05-.17.08-.25l.69-2.17h.61L36,22.22c0,.11.07.23.1.35l.09.34a2,2,0,0,1,.06.3h0a1.18,1.18,0,0,1,0-.29c0-.12,0-.24.08-.38s.07-.27.11-.42l.54-2.06h.58l-1,3.74Z" transform="translate(-0.2 -1.69)"/><path d="M39.75,20a1.57,1.57,0,0,1,.83.21,1.42,1.42,0,0,1,.52.59,2,2,0,0,1,.18.89V22H38.69a1.51,1.51,0,0,0,.33,1,1.15,1.15,0,0,0,.9.34,2.9,2.9,0,0,0,.62-.06,4.23,4.23,0,0,0,.57-.19v.5a3,3,0,0,1-.56.18,3.23,3.23,0,0,1-.66.06,1.89,1.89,0,0,1-.94-.22,1.5,1.5,0,0,1-.62-.65A2.2,2.2,0,0,1,38.1,22a2.38,2.38,0,0,1,.21-1,1.5,1.5,0,0,1,.57-.69A1.66,1.66,0,0,1,39.75,20Zm0,.46a.93.93,0,0,0-.73.3,1.43,1.43,0,0,0-.32.83h2a1.55,1.55,0,0,0-.1-.59.89.89,0,0,0-.31-.4A.91.91,0,0,0,39.75,20.46Z" transform="translate(-0.2 -1.69)"/><path d="M44,20h.23l.22,0-.07.53-.21,0h-.21a1,1,0,0,0-.42.09.89.89,0,0,0-.35.26,1.22,1.22,0,0,0-.24.4,1.51,1.51,0,0,0-.09.53v2h-.57V20.06h.47l.07.69h0a2.47,2.47,0,0,1,.28-.38,1.46,1.46,0,0,1,.38-.27A1.13,1.13,0,0,1,44,20Z" transform="translate(-0.2 -1.69)"/><path d="M48.32,20a1.44,1.44,0,0,1,1,.3,1.28,1.28,0,0,1,.32,1v2.55h-.41l-.11-.55h0a1.78,1.78,0,0,1-.33.34,1.22,1.22,0,0,1-.39.21,2.11,2.11,0,0,1-.55.07,1.48,1.48,0,0,1-.61-.12,1,1,0,0,1-.41-.36,1.19,1.19,0,0,1-.15-.62,1,1,0,0,1,.44-.86,2.62,2.62,0,0,1,1.35-.33l.65,0v-.22a.89.89,0,0,0-.21-.68.83.83,0,0,0-.59-.2,1.77,1.77,0,0,0-.56.09,2.75,2.75,0,0,0-.5.2l-.18-.43a3.5,3.5,0,0,1,.58-.23A2.61,2.61,0,0,1,48.32,20Zm.76,2-.57,0a1.91,1.91,0,0,0-1,.23.64.64,0,0,0-.28.57.56.56,0,0,0,.19.47.77.77,0,0,0,.52.16,1.21,1.21,0,0,0,.81-.28,1,1,0,0,0,.32-.83Z" transform="translate(-0.2 -1.69)"/><path d="M51.7,21.89l-1.29-1.83h.65l1,1.45,1-1.45h.64l-1.29,1.83,1.36,1.92H53.1l-1.05-1.53L51,23.81h-.64Z" transform="translate(-0.2 -1.69)"/><path d="M54.77,18.66a.36.36,0,0,1,.24.09.4.4,0,0,1,.1.29.41.41,0,0,1-.1.28.36.36,0,0,1-.24.09.37.37,0,0,1-.25-.09.41.41,0,0,1-.1-.28.4.4,0,0,1,.1-.29A.37.37,0,0,1,54.77,18.66Zm.27,1.4v3.75h-.56V20.06Z" transform="translate(-0.2 -1.69)"/><path d="M58.67,22.78a1,1,0,0,1-.18.61,1.14,1.14,0,0,1-.52.37,2.3,2.3,0,0,1-.79.12,3.37,3.37,0,0,1-.68-.06,1.73,1.73,0,0,1-.5-.18v-.52a3.65,3.65,0,0,0,.54.2,2.1,2.1,0,0,0,.65.1,1.28,1.28,0,0,0,.71-.16.53.53,0,0,0,.22-.43.44.44,0,0,0-.09-.27,1,1,0,0,0-.29-.23,6.17,6.17,0,0,0-.57-.24,5.43,5.43,0,0,1-.62-.27,1,1,0,0,1-.4-.33.9.9,0,0,1,.24-1.24,1.8,1.8,0,0,1,1-.25,3.13,3.13,0,0,1,.63.06,3.94,3.94,0,0,1,.55.18l-.19.46a2.58,2.58,0,0,0-.49-.17,2,2,0,0,0-.54-.07,1.11,1.11,0,0,0-.6.13.41.41,0,0,0-.21.36.39.39,0,0,0,.1.28.7.7,0,0,0,.31.21c.14.07.33.15.56.24a3.18,3.18,0,0,1,.61.27,1.11,1.11,0,0,1,.4.33A.87.87,0,0,1,58.67,22.78Z" transform="translate(-0.2 -1.69)"/><path d="M61.69,18.66a.36.36,0,0,1,.24.09A.37.37,0,0,1,62,19a.37.37,0,0,1-.1.28.36.36,0,0,1-.24.09.37.37,0,0,1-.25-.09.41.41,0,0,1-.09-.28.4.4,0,0,1,.09-.29A.37.37,0,0,1,61.69,18.66Zm.27,1.4v3.75H61.4V20.06Z" transform="translate(-0.2 -1.69)"/><path d="M65.59,22.78a1,1,0,0,1-.18.61,1.17,1.17,0,0,1-.51.37,2.41,2.41,0,0,1-.8.12,3.37,3.37,0,0,1-.68-.06,1.73,1.73,0,0,1-.5-.18v-.52a3.41,3.41,0,0,0,.55.2,2,2,0,0,0,.64.1,1.28,1.28,0,0,0,.71-.16.53.53,0,0,0,.22-.43.44.44,0,0,0-.09-.27,1,1,0,0,0-.29-.23,6.17,6.17,0,0,0-.57-.24,5.43,5.43,0,0,1-.62-.27,1.11,1.11,0,0,1-.4-.33.93.93,0,0,1,.24-1.24,1.8,1.8,0,0,1,1-.25,3.06,3.06,0,0,1,.63.06,4.59,4.59,0,0,1,.56.18l-.2.46a2.58,2.58,0,0,0-.49-.17,2,2,0,0,0-.54-.07,1.11,1.11,0,0,0-.6.13.41.41,0,0,0-.21.36.39.39,0,0,0,.1.28.76.76,0,0,0,.31.21,6.17,6.17,0,0,0,.57.24,3.37,3.37,0,0,1,.6.27,1,1,0,0,1,.4.33A.87.87,0,0,1,65.59,22.78Z" transform="translate(-0.2 -1.69)"/><path class="cls-10" d="M67.93,22.36v-.85h1.83v.85Z" transform="translate(-0.2 -1.69)"/><path class="cls-10" d="M72.16,20.87l1-2.06h1.14l-1.66,3.06v1.94H71.63V21.9L70,18.81h1.15Z" transform="translate(-0.2 -1.69)"/><path d="M128.55,4.46a2.73,2.73,0,0,1-.32,1.41,2.1,2.1,0,0,1-.93.86,3.49,3.49,0,0,1-1.48.28h-1.41V2H126a3.17,3.17,0,0,1,1.36.28,2.06,2.06,0,0,1,.9.83A2.63,2.63,0,0,1,128.55,4.46Zm-1.1,0a2.18,2.18,0,0,0-.16-.91,1.13,1.13,0,0,0-.48-.53,1.67,1.67,0,0,0-.78-.17h-.56V6.14h.45a1.5,1.5,0,0,0,1.16-.42A1.76,1.76,0,0,0,127.45,4.49Z" transform="translate(-0.2 -1.69)"/><path d="M131.71,2.82a1.19,1.19,0,0,0-.54.12,1.14,1.14,0,0,0-.39.34,1.48,1.48,0,0,0-.24.54,3,3,0,0,0-.08.71,2.67,2.67,0,0,0,.13.9A1.11,1.11,0,0,0,131,6a1.19,1.19,0,0,0,.71.2,3.08,3.08,0,0,0,.61-.07,5.47,5.47,0,0,0,.67-.2v.89a3.32,3.32,0,0,1-.66.2,3.88,3.88,0,0,1-.72.06,2.34,2.34,0,0,1-1.27-.32,1.87,1.87,0,0,1-.73-.9,3.45,3.45,0,0,1-.24-1.34,3.39,3.39,0,0,1,.15-1,2.33,2.33,0,0,1,.45-.82,2,2,0,0,1,.74-.53,2.41,2.41,0,0,1,1-.19,2.76,2.76,0,0,1,.75.1,3.32,3.32,0,0,1,.71.25l-.34.86-.56-.23A1.89,1.89,0,0,0,131.71,2.82Z" transform="translate(-0.2 -1.69)"/><path d="M136.17,2.82a1.19,1.19,0,0,0-.54.12,1.14,1.14,0,0,0-.39.34,1.48,1.48,0,0,0-.24.54,3,3,0,0,0-.08.71,2.67,2.67,0,0,0,.13.9,1.11,1.11,0,0,0,.41.57,1.19,1.19,0,0,0,.71.2,3.08,3.08,0,0,0,.61-.07,5.47,5.47,0,0,0,.67-.2v.89a3.32,3.32,0,0,1-.66.2,3.88,3.88,0,0,1-.72.06,2.34,2.34,0,0,1-1.27-.32,1.87,1.87,0,0,1-.73-.9,3.45,3.45,0,0,1-.24-1.34,3.39,3.39,0,0,1,.15-1,2.33,2.33,0,0,1,.45-.82,2,2,0,0,1,.74-.53,2.41,2.41,0,0,1,1-.19,2.76,2.76,0,0,1,.75.1,3.61,3.61,0,0,1,.72.25l-.35.86-.56-.23A1.89,1.89,0,0,0,136.17,2.82Z" transform="translate(-0.2 -1.69)"/><path d="M141.8,7.08a2.07,2.07,0,0,1-1-.21,1.36,1.36,0,0,1-.61-.64A2.56,2.56,0,0,1,140,5.12,2.35,2.35,0,0,1,140.25,4a1.43,1.43,0,0,1,.66-.65,2.17,2.17,0,0,1,1-.21,2.82,2.82,0,0,1,.69.07,3.51,3.51,0,0,1,.5.19l-.31.8c-.16-.06-.31-.12-.46-.16a1.52,1.52,0,0,0-.42-.06.71.71,0,0,0-.72.51,2,2,0,0,0-.09.64,1.83,1.83,0,0,0,.09.63.71.71,0,0,0,.72.49,1.73,1.73,0,0,0,.58-.08A2.06,2.06,0,0,0,143,5.9v.89a1.47,1.47,0,0,1-.5.22A2.42,2.42,0,0,1,141.8,7.08Z" transform="translate(-0.2 -1.69)"/><path d="M147.32,5.09a2.49,2.49,0,0,1-.13.85,1.74,1.74,0,0,1-.37.62,1.6,1.6,0,0,1-.59.39,2.11,2.11,0,0,1-.77.13,2,2,0,0,1-.74-.13,1.69,1.69,0,0,1-.59-.39,1.75,1.75,0,0,1-.38-.62,2.48,2.48,0,0,1-.14-.85A2.32,2.32,0,0,1,143.84,4a1.48,1.48,0,0,1,.64-.67,2,2,0,0,1,1-.23,1.88,1.88,0,0,1,1,.23,1.56,1.56,0,0,1,.65.67A2.2,2.2,0,0,1,147.32,5.09Zm-2.64,0a2,2,0,0,0,.08.64.75.75,0,0,0,.25.38.74.74,0,0,0,.46.13.73.73,0,0,0,.45-.13.75.75,0,0,0,.25-.38,2,2,0,0,0,.08-.64,1.93,1.93,0,0,0-.08-.63.75.75,0,0,0-.25-.38.81.81,0,0,0-.46-.12.67.67,0,0,0-.6.28A1.6,1.6,0,0,0,144.68,5.09Z" transform="translate(-0.2 -1.69)"/><path d="M151.65,5.09a2.49,2.49,0,0,1-.13.85,1.61,1.61,0,0,1-1,1,2.07,2.07,0,0,1-.77.13,2,2,0,0,1-.74-.13,1.79,1.79,0,0,1-.59-.39,1.75,1.75,0,0,1-.38-.62,2.49,2.49,0,0,1-.13-.85A2.32,2.32,0,0,1,148.17,4a1.51,1.51,0,0,1,.65-.67,1.91,1.91,0,0,1,1-.23,1.83,1.83,0,0,1,.95.23,1.58,1.58,0,0,1,.66.67A2.32,2.32,0,0,1,151.65,5.09Zm-2.64,0a2.38,2.38,0,0,0,.08.64.76.76,0,0,0,.26.38.71.71,0,0,0,.45.13.69.69,0,0,0,.45-.13.76.76,0,0,0,.26-.38,2.38,2.38,0,0,0,.08-.64,2.25,2.25,0,0,0-.08-.63.76.76,0,0,0-.26-.38A.79.79,0,0,0,149.8,4a.65.65,0,0,0-.6.28A1.51,1.51,0,0,0,149,5.09Z" transform="translate(-0.2 -1.69)"/><path d="M154.65,3.12h.18l.17,0-.08,1a.43.43,0,0,0-.15,0h-.16a1.74,1.74,0,0,0-.39,0,1,1,0,0,0-.34.17.73.73,0,0,0-.24.3,1.05,1.05,0,0,0-.08.46V7h-1.05V3.19h.79l.16.64h0a1.59,1.59,0,0,1,.28-.36,1.56,1.56,0,0,1,.39-.26A1.19,1.19,0,0,1,154.65,3.12Z" transform="translate(-0.2 -1.69)"/><path d="M156.9,7.08a1.29,1.29,0,0,1-1-.5,2.32,2.32,0,0,1-.4-1.47,2.34,2.34,0,0,1,.41-1.49,1.3,1.3,0,0,1,1.06-.5,1.43,1.43,0,0,1,.48.07,1.25,1.25,0,0,1,.36.2,1.42,1.42,0,0,1,.26.29h0c0-.08,0-.18-.05-.33s0-.28,0-.43V1.69h1V7h-.8l-.2-.5h0a1.37,1.37,0,0,1-.25.29,1,1,0,0,1-.36.2A1.34,1.34,0,0,1,156.9,7.08Zm.37-.83a.69.69,0,0,0,.6-.26,1.39,1.39,0,0,0,.19-.76V5.11a1.77,1.77,0,0,0-.17-.85.68.68,0,0,0-.64-.3.61.61,0,0,0-.54.3,1.59,1.59,0,0,0-.19.86,1.47,1.47,0,0,0,.19.84A.65.65,0,0,0,157.27,6.25Z" transform="translate(-0.2 -1.69)"/><path d="M160.65,1.69a.71.71,0,0,1,.39.11.43.43,0,0,1,.17.4.42.42,0,0,1-.17.4.64.64,0,0,1-.39.11.68.68,0,0,1-.41-.11.43.43,0,0,1-.16-.4.44.44,0,0,1,.16-.4A.76.76,0,0,1,160.65,1.69Zm.52,1.5V7h-1V3.19Z" transform="translate(-0.2 -1.69)"/><path d="M164.43,3.12a1.4,1.4,0,0,1,1,.33,1.36,1.36,0,0,1,.38,1.07V7h-1V4.78a1,1,0,0,0-.15-.62.51.51,0,0,0-.46-.21.66.66,0,0,0-.65.33,1.91,1.91,0,0,0-.18.93V7h-1V3.19h.79l.15.49h.05a1.05,1.05,0,0,1,.31-.32,1,1,0,0,1,.41-.18A1.76,1.76,0,0,1,164.43,3.12Z" transform="translate(-0.2 -1.69)"/><path d="M168.42,3.11a1.77,1.77,0,0,1,1.18.34,1.2,1.2,0,0,1,.41,1V7h-.72l-.21-.52h0a1.82,1.82,0,0,1-.34.34,1.18,1.18,0,0,1-.39.19,2.12,2.12,0,0,1-.54.06,1.33,1.33,0,0,1-.61-.13,1,1,0,0,1-.42-.4,1.4,1.4,0,0,1-.15-.68A1,1,0,0,1,167,5a2.54,2.54,0,0,1,1.29-.32l.66,0V4.46a.55.55,0,0,0-.16-.44.64.64,0,0,0-.44-.14,2,2,0,0,0-.54.08,3.39,3.39,0,0,0-.53.2l-.35-.7a2.75,2.75,0,0,1,.68-.26A3.46,3.46,0,0,1,168.42,3.11ZM169,5.24h-.4a1.19,1.19,0,0,0-.71.18.57.57,0,0,0-.19.45.38.38,0,0,0,.14.34.64.64,0,0,0,.36.1.86.86,0,0,0,.57-.2.72.72,0,0,0,.23-.57Z" transform="translate(-0.2 -1.69)"/><path d="M172.7,6.25a1.24,1.24,0,0,0,.33,0l.32-.08V6.9a1.8,1.8,0,0,1-.41.13,3.1,3.1,0,0,1-.54,0,1.71,1.71,0,0,1-.62-.11.88.88,0,0,1-.42-.39,1.5,1.5,0,0,1-.16-.77V4h-.5V3.53l.58-.35.3-.8h.66v.81h1.07V4h-1.07V5.81a.39.39,0,0,0,.13.33A.49.49,0,0,0,172.7,6.25Z" transform="translate(-0.2 -1.69)"/><path d="M175.7,3.12a2,2,0,0,1,.91.2,1.42,1.42,0,0,1,.6.59,2.07,2.07,0,0,1,.2.94v.51H175a1,1,0,0,0,.26.69.93.93,0,0,0,.69.25,2.76,2.76,0,0,0,.67-.07A3.45,3.45,0,0,0,177.2,6v.81a2.57,2.57,0,0,1-.59.2,3.3,3.3,0,0,1-.75.07,2.32,2.32,0,0,1-1-.21,1.57,1.57,0,0,1-.7-.65,2.22,2.22,0,0,1-.25-1.09A2.48,2.48,0,0,1,174.12,4a1.52,1.52,0,0,1,.63-.67A2,2,0,0,1,175.7,3.12Zm0,.74a.72.72,0,0,0-.51.19,1,1,0,0,0-.23.62h1.47a1.08,1.08,0,0,0-.09-.42.67.67,0,0,0-.24-.29A.7.7,0,0,0,175.71,3.86Z" transform="translate(-0.2 -1.69)"/><path d="M182.75,5.88a1.13,1.13,0,0,1-.19.65,1.09,1.09,0,0,1-.54.41,2.58,2.58,0,0,1-.9.14,4.44,4.44,0,0,1-.69,0,3.43,3.43,0,0,1-.58-.17V6a4.39,4.39,0,0,0,.67.23,2.64,2.64,0,0,0,.63.09.83.83,0,0,0,.44-.09.29.29,0,0,0,.13-.24.25.25,0,0,0-.06-.17.62.62,0,0,0-.22-.18c-.12-.06-.3-.15-.55-.25a2.91,2.91,0,0,1-.59-.31,1,1,0,0,1-.34-.36,1.08,1.08,0,0,1-.11-.54.86.86,0,0,1,.41-.79,2,2,0,0,1,1.1-.27,3,3,0,0,1,.68.07,3.13,3.13,0,0,1,.67.23l-.32.75c-.19-.08-.37-.15-.53-.2a1.82,1.82,0,0,0-.52-.08A.77.77,0,0,0,181,4a.2.2,0,0,0-.12.19.23.23,0,0,0,.06.16.75.75,0,0,0,.24.16l.5.23a3.81,3.81,0,0,1,.57.27,1.16,1.16,0,0,1,.37.36A1.16,1.16,0,0,1,182.75,5.88Z" transform="translate(-0.2 -1.69)"/><path d="M183,3.19h1.14l.73,2.15a1.6,1.6,0,0,1,.05.21,1.43,1.43,0,0,1,0,.22A.85.85,0,0,1,185,6h0a3,3,0,0,1,.06-.34,1.68,1.68,0,0,1,.09-.32l.71-2.15H187L185.38,7.5a2.33,2.33,0,0,1-.38.66,1.53,1.53,0,0,1-.55.4,1.6,1.6,0,0,1-.67.13,1.47,1.47,0,0,1-.31,0l-.22,0V7.81l.18,0h.23a.76.76,0,0,0,.38-.09.88.88,0,0,0,.26-.25,1.35,1.35,0,0,0,.17-.34l.06-.19Z" transform="translate(-0.2 -1.69)"/><path d="M190.21,5.88a1.06,1.06,0,0,1-.19.65,1.09,1.09,0,0,1-.54.41,2.58,2.58,0,0,1-.9.14,4.44,4.44,0,0,1-.69,0,3.08,3.08,0,0,1-.57-.17V6a4.27,4.27,0,0,0,.66.23,2.64,2.64,0,0,0,.63.09.83.83,0,0,0,.44-.09.29.29,0,0,0,.13-.24.25.25,0,0,0-.06-.17.62.62,0,0,0-.22-.18c-.12-.06-.3-.15-.55-.25a3.21,3.21,0,0,1-.59-.31,1,1,0,0,1-.34-.36,1.2,1.2,0,0,1-.11-.54.88.88,0,0,1,.41-.79,2,2,0,0,1,1.1-.27,3,3,0,0,1,.68.07,3.13,3.13,0,0,1,.67.23l-.32.75c-.19-.08-.37-.15-.53-.2a1.81,1.81,0,0,0-.51-.08.79.79,0,0,0-.35.06.2.2,0,0,0-.12.19.23.23,0,0,0,.06.16.75.75,0,0,0,.24.16l.5.23a3.81,3.81,0,0,1,.57.27,1.16,1.16,0,0,1,.37.36A1.16,1.16,0,0,1,190.21,5.88Z" transform="translate(-0.2 -1.69)"/><path d="M192.63,6.25a1.19,1.19,0,0,0,.33,0l.33-.08V6.9a1.9,1.9,0,0,1-.42.13,2.92,2.92,0,0,1-.54,0,1.66,1.66,0,0,1-.61-.11.9.9,0,0,1-.43-.39,1.61,1.61,0,0,1-.16-.77V4h-.5V3.53l.58-.35.3-.8h.67v.81h1.07V4h-1.07V5.81a.42.42,0,0,0,.12.33A.49.49,0,0,0,192.63,6.25Z" transform="translate(-0.2 -1.69)"/><path d="M195.63,3.12a2,2,0,0,1,.92.2,1.46,1.46,0,0,1,.59.59,2,2,0,0,1,.21.94v.51h-2.47a1,1,0,0,0,.27.69.9.9,0,0,0,.69.25,2.87,2.87,0,0,0,.67-.07,3.36,3.36,0,0,0,.62-.23v.81a2.42,2.42,0,0,1-.59.2,3.3,3.3,0,0,1-.75.07,2.38,2.38,0,0,1-1-.21,1.6,1.6,0,0,1-.69-.65,2.12,2.12,0,0,1-.25-1.09A2.48,2.48,0,0,1,194.05,4a1.6,1.6,0,0,1,.64-.67A1.92,1.92,0,0,1,195.63,3.12Zm0,.74a.68.68,0,0,0-.5.19.91.91,0,0,0-.23.62h1.46a1.08,1.08,0,0,0-.08-.42.85.85,0,0,0-.24-.29A.73.73,0,0,0,195.64,3.86Z" transform="translate(-0.2 -1.69)"/><path d="M202.68,3.12a1.36,1.36,0,0,1,1,.33A1.47,1.47,0,0,1,204,4.52V7H203V4.78a1.05,1.05,0,0,0-.14-.62.48.48,0,0,0-.43-.21.63.63,0,0,0-.59.3,1.62,1.62,0,0,0-.17.84V7h-1.05V4.78a1.51,1.51,0,0,0-.06-.46.52.52,0,0,0-.19-.28A.53.53,0,0,0,200,4a.67.67,0,0,0-.46.15.75.75,0,0,0-.23.42,2.77,2.77,0,0,0-.07.69V7h-1V3.19H199l.14.49h.06a1.08,1.08,0,0,1,.68-.5,1.54,1.54,0,0,1,.43-.06,1.67,1.67,0,0,1,.71.13,1,1,0,0,1,.45.43h.09a1,1,0,0,1,.49-.43A1.59,1.59,0,0,1,202.68,3.12Z" transform="translate(-0.2 -1.69)"/><path d="M136.26,11.6h.24l.22,0-.08.53-.2,0h-.21a1,1,0,0,0-.43.09,1,1,0,0,0-.35.26,1.22,1.22,0,0,0-.24.4,1.78,1.78,0,0,0-.08.53v2h-.57V11.66H135l.06.69h0a2,2,0,0,1,.28-.38,1.31,1.31,0,0,1,.38-.27A1.06,1.06,0,0,1,136.26,11.6Z" transform="translate(-0.2 -1.69)"/><path d="M137.71,10.26a.36.36,0,0,1,.24.09.37.37,0,0,1,.1.29.37.37,0,0,1-.1.28.36.36,0,0,1-.24.09.32.32,0,0,1-.24-.09.37.37,0,0,1-.1-.28.37.37,0,0,1,.1-.29A.32.32,0,0,1,137.71,10.26Zm.28,1.4v3.75h-.57V11.66Z" transform="translate(-0.2 -1.69)"/><path d="M140.23,17.09a2,2,0,0,1-1.14-.27.91.91,0,0,1-.4-.77.89.89,0,0,1,.23-.61,1.16,1.16,0,0,1,.62-.33.6.6,0,0,1-.25-.2.52.52,0,0,1-.11-.32.6.6,0,0,1,.12-.36,1.21,1.21,0,0,1,.35-.3,1,1,0,0,1-.48-.4,1.22,1.22,0,0,1-.18-.67,1.29,1.29,0,0,1,.17-.69,1.06,1.06,0,0,1,.48-.43,1.79,1.79,0,0,1,.77-.15h.2l.19,0,.16,0h1.29V12l-.69.09a1.2,1.2,0,0,1,.17.32,1.12,1.12,0,0,1,.07.42,1.13,1.13,0,0,1-.38.89,1.53,1.53,0,0,1-1,.33,1.84,1.84,0,0,1-.33,0,.88.88,0,0,0-.25.2.43.43,0,0,0-.09.26.25.25,0,0,0,.07.18.42.42,0,0,0,.19.09,1.42,1.42,0,0,0,.31,0h.66a1.52,1.52,0,0,1,.94.26.91.91,0,0,1,.32.75,1.08,1.08,0,0,1-.5,1A2.71,2.71,0,0,1,140.23,17.09Zm0-.44a2.4,2.4,0,0,0,.77-.1.94.94,0,0,0,.46-.27.6.6,0,0,0,.15-.42.49.49,0,0,0-.1-.34.61.61,0,0,0-.3-.15,2.37,2.37,0,0,0-.49,0h-.65a1.19,1.19,0,0,0-.44.08.66.66,0,0,0-.29.23.78.78,0,0,0-.1.39.52.52,0,0,0,.26.46A1.44,1.44,0,0,0,140.25,16.65Zm.15-3a.86.86,0,0,0,.61-.2.81.81,0,0,0,.2-.6.86.86,0,0,0-.21-.63.81.81,0,0,0-.61-.21.78.78,0,0,0-.6.22.86.86,0,0,0-.21.63.79.79,0,0,0,.21.59A.86.86,0,0,0,140.4,13.65Z" transform="translate(-0.2 -1.69)"/><path d="M143.55,10.09V12a1.9,1.9,0,0,1,0,.25h0a1.18,1.18,0,0,1,.3-.33,1.32,1.32,0,0,1,.41-.21,1.85,1.85,0,0,1,.48-.07,1.67,1.67,0,0,1,.75.15.9.9,0,0,1,.46.44,1.75,1.75,0,0,1,.15.78v2.44h-.56V13a1,1,0,0,0-.21-.7.83.83,0,0,0-.66-.24,1.26,1.26,0,0,0-.66.16.86.86,0,0,0-.36.47,2.33,2.33,0,0,0-.11.75v2H143V10.09Z" transform="translate(-0.2 -1.69)"/><path d="M148.49,15a1.46,1.46,0,0,0,.29,0l.24-.06v.44a1.2,1.2,0,0,1-.28.08l-.34,0a1.33,1.33,0,0,1-.54-.11.82.82,0,0,1-.39-.35,1.36,1.36,0,0,1-.14-.69V12.11h-.54v-.28l.54-.22.22-.81h.35v.86H149v.45H147.9v2.2a.75.75,0,0,0,.16.53A.54.54,0,0,0,148.49,15Z" transform="translate(-0.2 -1.69)"/><path d="M149.46,13.78v-.5h1.69v.5Z" transform="translate(-0.2 -1.69)"/><path d="M152.6,10.09v1.59c0,.09,0,.18,0,.28a1.9,1.9,0,0,1,0,.25h0a1.18,1.18,0,0,1,.3-.33,1.32,1.32,0,0,1,.41-.21,1.85,1.85,0,0,1,.48-.07,1.67,1.67,0,0,1,.75.15.9.9,0,0,1,.46.44,1.75,1.75,0,0,1,.15.78v2.44h-.56V13a1,1,0,0,0-.21-.7.83.83,0,0,0-.66-.24,1.26,1.26,0,0,0-.66.16.86.86,0,0,0-.36.47,2.35,2.35,0,0,0-.1.75v2H152V10.09Z" transform="translate(-0.2 -1.69)"/><path d="M157.72,11.6a1.44,1.44,0,0,1,1,.3,1.28,1.28,0,0,1,.32,1v2.55h-.41l-.11-.55h0a1.78,1.78,0,0,1-.33.34,1.22,1.22,0,0,1-.39.21,1.75,1.75,0,0,1-.55.07,1.48,1.48,0,0,1-.61-.12,1,1,0,0,1-.41-.36,1.1,1.1,0,0,1-.16-.62,1,1,0,0,1,.45-.86,2.62,2.62,0,0,1,1.35-.33l.65,0v-.22a.89.89,0,0,0-.21-.68.84.84,0,0,0-.59-.2,1.77,1.77,0,0,0-.56.09,3.17,3.17,0,0,0-.51.2l-.17-.43a3.5,3.5,0,0,1,.58-.23A2.61,2.61,0,0,1,157.72,11.6Zm.76,2-.57,0a1.88,1.88,0,0,0-1,.23.64.64,0,0,0-.28.57.56.56,0,0,0,.19.47.77.77,0,0,0,.52.16,1.21,1.21,0,0,0,.81-.28,1,1,0,0,0,.32-.83Z" transform="translate(-0.2 -1.69)"/><path d="M162,11.6a1.39,1.39,0,0,1,1,.32,1.4,1.4,0,0,1,.34,1.05v2.44h-.56V13a1,1,0,0,0-.21-.7.82.82,0,0,0-.65-.24,1,1,0,0,0-.88.36,1.71,1.71,0,0,0-.25,1v2h-.57V11.66h.46l.08.54h0a1,1,0,0,1,.3-.33,1.2,1.2,0,0,1,.41-.2A1.59,1.59,0,0,1,162,11.6Z" transform="translate(-0.2 -1.69)"/><path d="M165.84,15.48a1.39,1.39,0,0,1-1.13-.49,2.13,2.13,0,0,1-.42-1.44,2.21,2.21,0,0,1,.43-1.46,1.41,1.41,0,0,1,1.13-.49,1.68,1.68,0,0,1,.52.07,2,2,0,0,1,.38.21,1.27,1.27,0,0,1,.27.3h0c0-.07,0-.16,0-.29s0-.22,0-.3v-1.5h.57v5.32h-.46l-.09-.53h0a1.27,1.27,0,0,1-.27.3,1.47,1.47,0,0,1-.39.22A1.58,1.58,0,0,1,165.84,15.48Zm.09-.47a1,1,0,0,0,.85-.34,1.78,1.78,0,0,0,.25-1v-.1a2.09,2.09,0,0,0-.24-1.1.93.93,0,0,0-.86-.38.88.88,0,0,0-.79.4,2,2,0,0,0-.26,1.09,1.9,1.9,0,0,0,.26,1.07A.89.89,0,0,0,165.93,15Z" transform="translate(-0.2 -1.69)"/><path d="M170.23,11.6a1.54,1.54,0,0,1,.82.21,1.36,1.36,0,0,1,.52.59,2,2,0,0,1,.18.89v.35h-2.58a1.46,1.46,0,0,0,.32,1,1.17,1.17,0,0,0,.9.34,2.93,2.93,0,0,0,.63-.06,5.43,5.43,0,0,0,.57-.19v.5a3.13,3.13,0,0,1-.57.18,3.06,3.06,0,0,1-.65.06,1.93,1.93,0,0,1-1-.22,1.56,1.56,0,0,1-.62-.65,2.21,2.21,0,0,1-.22-1,2.54,2.54,0,0,1,.2-1,1.59,1.59,0,0,1,.58-.69A1.61,1.61,0,0,1,170.23,11.6Zm0,.46a.92.92,0,0,0-.72.3,1.36,1.36,0,0,0-.32.83h2a1.55,1.55,0,0,0-.11-.59.87.87,0,0,0-.3-.4A1,1,0,0,0,170.22,12.06Z" transform="translate(-0.2 -1.69)"/><path d="M174.05,15.48a1.41,1.41,0,0,1-1.13-.49,2.19,2.19,0,0,1-.41-1.44,2.21,2.21,0,0,1,.42-1.46,1.41,1.41,0,0,1,1.13-.49,1.64,1.64,0,0,1,.52.07,1.51,1.51,0,0,1,.38.21,1.27,1.27,0,0,1,.27.3h0c0-.07,0-.16,0-.29s0-.22,0-.3v-1.5h.57v5.32h-.46l-.08-.53h0a1.35,1.35,0,0,1-.65.52A1.69,1.69,0,0,1,174.05,15.48Zm.09-.47a1,1,0,0,0,.85-.34,1.71,1.71,0,0,0,.25-1v-.1a2.09,2.09,0,0,0-.24-1.1.92.92,0,0,0-.86-.38.85.85,0,0,0-.78.4,1.93,1.93,0,0,0-.26,1.09,1.9,1.9,0,0,0,.25,1.07A.91.91,0,0,0,174.14,15Z" transform="translate(-0.2 -1.69)"/><path d="M177.65,14.6l0,.08c0,.16-.09.34-.15.53s-.13.38-.21.57-.15.37-.22.53h-.42c0-.18.09-.37.14-.57l.12-.6q.06-.3.09-.54Z" transform="translate(-0.2 -1.69)"/><path d="M182,12.92l1.33-2.51H184l-1.67,3.06v1.94h-.58V13.5L180,10.41h.64Z" transform="translate(-0.2 -1.69)"/><path d="M189.46,11.66v3.75H189l-.08-.53h0a1.18,1.18,0,0,1-.3.33,1.25,1.25,0,0,1-.42.2,1.57,1.57,0,0,1-.49.07,1.62,1.62,0,0,1-.74-.15.9.9,0,0,1-.46-.44,1.73,1.73,0,0,1-.15-.77V11.66h.57v2.42a1,1,0,0,0,.22.7.83.83,0,0,0,.64.23,1.3,1.3,0,0,0,.67-.16.91.91,0,0,0,.35-.46,2.12,2.12,0,0,0,.11-.75v-2Z" transform="translate(-0.2 -1.69)"/><path d="M192.42,11.6a1.4,1.4,0,0,1,1.11.48,2.15,2.15,0,0,1,.42,1.45,2.63,2.63,0,0,1-.19,1.07,1.49,1.49,0,0,1-.54.66,1.54,1.54,0,0,1-.82.22,1.62,1.62,0,0,1-.52-.08,1.22,1.22,0,0,1-.39-.21,1.39,1.39,0,0,1-.26-.29h0c0,.09,0,.19,0,.32s0,.23,0,.33v1.53h-.58V11.66h.47l.08.56h0a1.3,1.3,0,0,1,.26-.31,1.15,1.15,0,0,1,.39-.23A1.46,1.46,0,0,1,192.42,11.6Zm-.1.47a1.18,1.18,0,0,0-.63.15.84.84,0,0,0-.35.45,2.28,2.28,0,0,0-.11.75v.11a2.71,2.71,0,0,0,.1.81,1,1,0,0,0,.34.5,1.16,1.16,0,0,0,.65.17.92.92,0,0,0,.58-.19,1.12,1.12,0,0,0,.35-.53,2.26,2.26,0,0,0,.12-.77,1.9,1.9,0,0,0-.26-1A.88.88,0,0,0,192.32,12.07Z" transform="translate(-0.2 -1.69)"/><path d="M133.35,23.41a1.46,1.46,0,0,0,.29,0l.24-.06v.44a1.2,1.2,0,0,1-.28.08l-.34,0a1.33,1.33,0,0,1-.54-.11.78.78,0,0,1-.39-.35,1.36,1.36,0,0,1-.15-.69V20.51h-.53v-.28l.54-.22.22-.81h.34v.86h1.1v.45h-1.1v2.2a.75.75,0,0,0,.17.53A.53.53,0,0,0,133.35,23.41Z" transform="translate(-0.2 -1.69)"/><path d="M135.2,18.49v1.59a2.72,2.72,0,0,1,0,.28,2,2,0,0,1,0,.25h0a1.15,1.15,0,0,1,.29-.33,1.44,1.44,0,0,1,.41-.21,2,2,0,0,1,.49-.07,1.67,1.67,0,0,1,.75.15,1,1,0,0,1,.46.44,1.75,1.75,0,0,1,.15.78v2.44h-.56v-2.4a1,1,0,0,0-.22-.7.82.82,0,0,0-.65-.24,1.24,1.24,0,0,0-.66.16.86.86,0,0,0-.36.47,2.33,2.33,0,0,0-.11.75v2h-.57V18.49Z" transform="translate(-0.2 -1.69)"/><path d="M140.37,20a1.54,1.54,0,0,1,.82.21,1.36,1.36,0,0,1,.52.59,2,2,0,0,1,.18.89V22h-2.58a1.46,1.46,0,0,0,.32,1,1.17,1.17,0,0,0,.9.34,2.93,2.93,0,0,0,.63-.06,5.43,5.43,0,0,0,.57-.19v.5a3.13,3.13,0,0,1-.57.18,3.06,3.06,0,0,1-.65.06,1.93,1.93,0,0,1-.95-.22,1.62,1.62,0,0,1-.62-.65,2.21,2.21,0,0,1-.22-1.05,2.54,2.54,0,0,1,.2-1,1.59,1.59,0,0,1,.58-.69A1.61,1.61,0,0,1,140.37,20Zm0,.46a.92.92,0,0,0-.72.3,1.36,1.36,0,0,0-.32.83h2a1.78,1.78,0,0,0-.1-.59.89.89,0,0,0-.31-.4A1,1,0,0,0,140.36,20.46Z" transform="translate(-0.2 -1.69)"/><path d="M145.5,23.81l-1.42-3.75h.61l.82,2.27c.06.15.11.33.17.51s.1.34.13.45h0c0-.11.07-.26.14-.45l.17-.51.83-2.27h.6l-1.42,3.75Z" transform="translate(-0.2 -1.69)"/><path d="M148.46,18.66a.32.32,0,0,1,.24.09.37.37,0,0,1,.1.29.37.37,0,0,1-.1.28.32.32,0,0,1-.24.09.34.34,0,0,1-.24-.09.37.37,0,0,1-.1-.28.37.37,0,0,1,.1-.29A.34.34,0,0,1,148.46,18.66Zm.28,1.4v3.75h-.57V20.06Z" transform="translate(-0.2 -1.69)"/><path d="M151.38,20a1.54,1.54,0,0,1,.82.21,1.45,1.45,0,0,1,.53.59,2,2,0,0,1,.18.89V22h-2.59a1.51,1.51,0,0,0,.33,1,1.15,1.15,0,0,0,.89.34,2.93,2.93,0,0,0,.63-.06,5.43,5.43,0,0,0,.57-.19v.5a3.3,3.3,0,0,1-.56.18,3.23,3.23,0,0,1-.66.06,1.87,1.87,0,0,1-.94-.22A1.58,1.58,0,0,1,150,23a2.33,2.33,0,0,1-.22-1.05,2.54,2.54,0,0,1,.2-1,1.59,1.59,0,0,1,.58-.69A1.66,1.66,0,0,1,151.38,20Zm0,.46a.93.93,0,0,0-.73.3,1.36,1.36,0,0,0-.32.83h2a1.78,1.78,0,0,0-.1-.59.89.89,0,0,0-.31-.4A.94.94,0,0,0,151.38,20.46Z" transform="translate(-0.2 -1.69)"/><path d="M156.92,23.8l-.67-2.18c0-.09-.05-.18-.08-.27s0-.18-.07-.26,0-.16-.06-.24,0-.13,0-.18h0s0,.11,0,.18,0,.15-.05.24l-.07.26-.09.28L155,23.8h-.64l-1-3.74h.59l.54,2.06c0,.14.07.28.11.41s.06.26.08.38a2.07,2.07,0,0,1,.05.3h0c0-.06,0-.12.05-.2s0-.17.06-.26a2.68,2.68,0,0,1,.07-.27c0-.09,0-.17.07-.25l.69-2.17h.61l.67,2.16c0,.11.07.23.1.35l.09.34a2,2,0,0,1,.06.3h0a2,2,0,0,1,.05-.29,3.42,3.42,0,0,1,.09-.38c0-.13.06-.27.1-.42l.55-2.06h.57l-1,3.74Z" transform="translate(-0.2 -1.69)"/><path d="M160.74,20a1.54,1.54,0,0,1,.82.21,1.36,1.36,0,0,1,.52.59,2,2,0,0,1,.18.89V22h-2.59a1.51,1.51,0,0,0,.33,1,1.15,1.15,0,0,0,.9.34,3.06,3.06,0,0,0,.63-.06,4.63,4.63,0,0,0,.56-.19v.5a2.81,2.81,0,0,1-.56.18,3.1,3.1,0,0,1-.66.06,1.89,1.89,0,0,1-.94-.22,1.56,1.56,0,0,1-.62-.65,2.21,2.21,0,0,1-.22-1.05,2.38,2.38,0,0,1,.2-1,1.57,1.57,0,0,1,.57-.69A1.67,1.67,0,0,1,160.74,20Zm0,.46a.92.92,0,0,0-.72.3,1.43,1.43,0,0,0-.33.83h2a1.77,1.77,0,0,0-.11-.59.87.87,0,0,0-.3-.4A1,1,0,0,0,160.73,20.46Z" transform="translate(-0.2 -1.69)"/><path d="M164.93,20h.23l.22,0-.07.53-.2,0h-.22a1,1,0,0,0-.42.09.89.89,0,0,0-.35.26,1.22,1.22,0,0,0-.24.4,1.51,1.51,0,0,0-.08.53v2h-.57V20.06h.47l.06.69h0a2.47,2.47,0,0,1,.28-.38,1.46,1.46,0,0,1,.38-.27A1.13,1.13,0,0,1,164.93,20Z" transform="translate(-0.2 -1.69)"/><path d="M169.31,20a1.43,1.43,0,0,1,1,.3,1.24,1.24,0,0,1,.32,1v2.55h-.41l-.11-.55h0a2.69,2.69,0,0,1-.33.34,1.39,1.39,0,0,1-.4.21,2.11,2.11,0,0,1-.55.07,1.43,1.43,0,0,1-.6-.12.93.93,0,0,1-.42-.36,1.19,1.19,0,0,1-.15-.62,1,1,0,0,1,.44-.86,2.63,2.63,0,0,1,1.36-.33l.64,0v-.22a.89.89,0,0,0-.21-.68.82.82,0,0,0-.58-.2,1.79,1.79,0,0,0-.57.09,3.07,3.07,0,0,0-.5.2l-.18-.43a3.63,3.63,0,0,1,.59-.23A2.5,2.5,0,0,1,169.31,20Zm.75,2-.57,0a1.87,1.87,0,0,0-1,.23.63.63,0,0,0-.29.57.56.56,0,0,0,.19.47.79.79,0,0,0,.52.16,1.23,1.23,0,0,0,.82-.28,1,1,0,0,0,.31-.83Z" transform="translate(-0.2 -1.69)"/><path d="M172.69,21.89l-1.3-1.83H172l1,1.45,1-1.45h.65l-1.3,1.83,1.37,1.92h-.65L173,22.28,172,23.81h-.64Z" transform="translate(-0.2 -1.69)"/><path d="M175.75,18.66a.36.36,0,0,1,.24.09.37.37,0,0,1,.1.29.37.37,0,0,1-.1.28.36.36,0,0,1-.24.09.37.37,0,0,1-.25-.09.41.41,0,0,1-.09-.28.4.4,0,0,1,.09-.29A.37.37,0,0,1,175.75,18.66Zm.28,1.4v3.75h-.57V20.06Z" transform="translate(-0.2 -1.69)"/><path d="M179.65,22.78a1,1,0,0,1-.18.61,1.17,1.17,0,0,1-.51.37,2.41,2.41,0,0,1-.8.12,3.37,3.37,0,0,1-.68-.06,1.73,1.73,0,0,1-.5-.18v-.52a3.41,3.41,0,0,0,.55.2,2,2,0,0,0,.65.1,1.27,1.27,0,0,0,.7-.16.5.5,0,0,0,.22-.43.44.44,0,0,0-.09-.27.91.91,0,0,0-.29-.23,6.17,6.17,0,0,0-.57-.24,6.34,6.34,0,0,1-.62-.27,1.11,1.11,0,0,1-.4-.33.93.93,0,0,1,.24-1.24,1.8,1.8,0,0,1,1-.25,3.06,3.06,0,0,1,.63.06,4.09,4.09,0,0,1,.56.18l-.19.46a3,3,0,0,0-.5-.17,2,2,0,0,0-.54-.07,1.11,1.11,0,0,0-.6.13.41.41,0,0,0-.21.36.39.39,0,0,0,.1.28.76.76,0,0,0,.31.21,6.17,6.17,0,0,0,.57.24,3.85,3.85,0,0,1,.61.27,1.07,1.07,0,0,1,.39.33A.87.87,0,0,1,179.65,22.78Z" transform="translate(-0.2 -1.69)"/><path d="M182.67,18.66a.36.36,0,0,1,.24.09.37.37,0,0,1,.1.29.37.37,0,0,1-.1.28.36.36,0,0,1-.24.09.32.32,0,0,1-.24-.09.37.37,0,0,1-.1-.28.37.37,0,0,1,.1-.29A.32.32,0,0,1,182.67,18.66Zm.28,1.4v3.75h-.57V20.06Z" transform="translate(-0.2 -1.69)"/><path d="M186.57,22.78a1,1,0,0,1-.18.61,1.17,1.17,0,0,1-.51.37,2.36,2.36,0,0,1-.8.12,3.37,3.37,0,0,1-.68-.06,1.73,1.73,0,0,1-.5-.18v-.52a3.81,3.81,0,0,0,.55.2,2.05,2.05,0,0,0,.65.1,1.24,1.24,0,0,0,.7-.16.5.5,0,0,0,.22-.43.44.44,0,0,0-.09-.27.81.81,0,0,0-.29-.23,6.17,6.17,0,0,0-.57-.24,6.34,6.34,0,0,1-.62-.27,1.11,1.11,0,0,1-.4-.33.88.88,0,0,1-.14-.51.83.83,0,0,1,.38-.73,1.8,1.8,0,0,1,1-.25,3.24,3.24,0,0,1,.64.06,4.43,4.43,0,0,1,.55.18l-.19.46a2.67,2.67,0,0,0-.5-.17,1.9,1.9,0,0,0-.54-.07,1.11,1.11,0,0,0-.6.13.41.41,0,0,0-.21.36.39.39,0,0,0,.1.28.76.76,0,0,0,.31.21,6.17,6.17,0,0,0,.57.24A3.48,3.48,0,0,1,186,22a1.07,1.07,0,0,1,.39.33A.87.87,0,0,1,186.57,22.78Z" transform="translate(-0.2 -1.69)"/><path class="cls-11" d="M191.08,21h1.32v.75h-1.32V23h-.75V21.72H189V21h1.33V19.64h.75Z" transform="translate(-0.2 -1.69)"/><path class="cls-11" d="M196.59,23.81h-3.72v-.69l2.4-3.43h-2.33v-.88h3.59v.69l-2.4,3.44h2.46Z" transform="translate(-0.2 -1.69)"/></svg>