<?xml version="1.0" encoding="utf-8"?>
<!-- Generator: Adobe Illustrator 26.3.1, SVG Export Plug-In . SVG Version: 6.00 Build 0)  -->
<svg version="1.1" id="Monochrome__Foundation_Logo"
	 xmlns="http://www.w3.org/2000/svg" xmlns:xlink="http://www.w3.org/1999/xlink" x="0px" y="0px" viewBox="0 0 1900 500"
	 style="enable-background:new 0 0 1900 500;" xml:space="preserve">
<style type="text/css">
	.st0{fill:#FFFFFF;}
</style>
<g>
	<g id="Letters_3DF">
		<path class="st0" d="M711.1,125h98.3c78.1,0,132.4,49.7,132.4,124.9s-54.2,124.5-132.4,124.5h-98.3V125z M809,329.5
			c50.5,0,79.9-36.3,79.9-79.5c0-45.1-27.5-79.9-79.9-79.9h-46.2v159.4H809z"/>
		<path class="st0" d="M659.1,260.6c-9.5-8.4-23.1-14.1-40.5-17c14.4-4.3,25.9-11.1,34.4-20.3c10.1-10.8,15.1-24.2,15.1-39.6
			c0-18.6-8.1-33.3-24.1-43.7c-15.7-10.2-37.3-15.4-64.2-15.4c-27.4,0-51.9,5.7-73,16.8c8.3,13.3,15,27.6,20.1,42.7
			c8.6-4.9,16.6-8.5,23.9-10.6c8.5-2.6,17-3.8,25.2-3.8c23.2,0,34.5,8.2,34.5,25.1c0,11.1-4.2,18.6-12.7,23.2
			c-8.9,4.7-23.2,7.1-42.7,7.1h-18.9c1,8.1,1.5,16.4,1.5,24.8c0,6.1-0.3,12.2-0.8,18.1h17.8c21.2,0,36.7,2.3,46.2,6.8
			c9.2,4.4,13.6,11.6,13.6,22.1c0,11.9-3.9,20.3-11.9,25.6c-8.2,5.4-21.2,8.2-38.6,8.2c-11.5,0-23.3-1.5-35-4.4
			c-1.8-0.5-3.6-0.9-5.4-1.4c-5.5,14.1-12.6,27.5-20.9,39.9c19.9,6.8,42.4,10.2,67.2,10.2c33.6,0,59.9-6.6,78.1-19.6
			c18.4-13.2,27.8-31.9,27.8-55.5C675.9,283.6,670.2,270.4,659.1,260.6z"/>
		<path class="st0" d="M977,249.8c0-73.9,55.9-124.4,126.2-124.4c54.8,0,85.4,28.8,102.4,58.8l-44,21.6c-10.1-19.5-31.7-35-58.4-35
			c-41.8,0-73.5,33.5-73.5,78.9s31.7,78.9,73.5,78.9c26.7,0,48.3-15.1,58.4-35l44,21.3c-17.3,29.9-47.6,59.1-102.4,59.1
			C1032.8,374.2,977,323.7,977,249.8z"/>
		<path class="st0" d="M1350,125.5c72.8,0,125.8,51.9,125.8,124.4s-53,124.4-125.8,124.4c-72.4,0-125.4-51.9-125.4-124.4
			C1224.7,177.4,1277.7,125.5,1350,125.5z M1350,170.9c-44.3,0-72.8,33.9-72.8,78.9c0,44.7,28.5,78.9,72.8,78.9s73.2-34.2,73.2-78.9
			C1423.2,204.8,1394.4,170.9,1350,170.9z"/>
		<path class="st0" d="M1564.9,207v167.2h-53V125.3h54.5l115.3,161.2V125.3h53v248.9h-51.1L1564.9,207z"/>
	</g>
	<path id="Gem_O" class="st0" d="M498.5,250c0-5.7-0.3-11.6-0.9-17.4l0,0l0,0c-2.4-23.4-9.6-45.6-21.4-65.9l0,0l0,0
		c-11.6-20.1-27.7-37.9-46.4-51.5l0,0l0,0l0,0l0,0c-19.1-13.9-40.4-23.4-63.3-28.2l0,0l0,0c-22.7-4.8-46.6-4.8-69.3,0l0,0l0,0
		c-23,4.9-44.3,14.4-63.3,28.2l0,0l0,0c-18.7,13.6-34.8,31.5-46.4,51.5l0,0l0,0c-11.8,20.4-19,42.5-21.4,65.9l0,0l0,0l0,0
		c-0.6,5.9-0.9,11.7-0.9,17.4c0,17.6,2.7,34.9,8.1,51.5l0,0l0,0c7.3,22.3,18.9,42.5,34.7,60l0,0l0,0c15.8,17.5,34.6,31.2,56.1,40.8
		l0,0l0,0c21.4,9.6,44.2,14.4,67.8,14.4s46.4-4.8,67.8-14.4l0,0l0,0c21.4-9.6,40.3-23.3,56.1-40.8l0,0l0,0
		c15.8-17.5,27.4-37.7,34.7-60l0,0l0,0C495.7,284.9,498.5,267.6,498.5,250z M492.2,228.8L452,210.9l22-38.1
		C483.5,190.2,489.6,209.1,492.2,228.8z M413.1,250c0,44.9-36.4,81.4-81.4,81.4S250.3,295,250.3,250s36.4-81.4,81.4-81.4
		S413.1,205,413.1,250z M206.2,250c0,2.5,0.1,5,0.2,7.5l-33.3-24.2l37.5-16.7C207.7,227.2,206.2,238.4,206.2,250z M220.3,307.8
		l-40.2-8.5l27.5-30.6C209.6,282.6,214,295.8,220.3,307.8z M455.8,268.7l27.5,30.6l-40.2,8.5C449.4,295.8,453.7,282.6,455.8,268.7z
		 M452.7,216.6l37.5,16.7l-33.3,24.2c0.1-2.5,0.2-5,0.2-7.5C457.2,238.4,455.6,227.2,452.7,216.6z M449.2,205.8
		c-4.9-13-11.9-25-20.6-35.6h19.8h21.4L449.2,205.8z M427.8,145.4l2.5-23.8c15.6,12,29.1,27,39.4,43.8h-44L427.8,145.4z
		 M423.1,142.7l-2,19.2c-9.6-9.8-20.9-18-33.3-24.2l16.2-7.2l21.4-9.5L423.1,142.7z M423.3,116.5l-20.9,9.3l-19.3,8.6l-0.6-1.7
		l-13.1-40.2C388.8,97.2,406.9,105.2,423.3,116.5z M377.5,133.1c-12.5-4.9-26.1-7.9-40.2-8.5L364.8,94L377.5,133.1z M361.1,90.8
		l-29.5,32.7l-29.4-32.7C321.6,87.2,341.8,87.2,361.1,90.8z M298.5,94l27.5,30.6c-14.1,0.6-27.7,3.6-40.2,8.5L298.5,94z M293.9,92.6
		l-13.2,40.7l-0.4,1.2l-0.4-0.2l-39.8-17.7C256.4,105.2,274.5,97.2,293.9,92.6z M261.3,131.4l14.3,6.3
		c-12.4,6.2-23.6,14.4-33.3,24.2l-1.5-14.6l-2.8-26.4L261.3,131.4z M233.1,121.6l4.6,43.8h-44C204,148.6,217.5,133.6,233.1,121.6z
		 M234.7,170.3c-8.7,10.6-15.7,22.6-20.6,35.6l-20.5-35.6H234.7z M189.4,172.8l22,38.1l0,0l-40.2,17.9
		C173.8,209.1,179.9,190.2,189.4,172.8z M169.8,250c0-4.2,0.2-8.4,0.5-12.7l2,1.5l33.6,24.4l-29.5,32.7
		C172,281.1,169.8,265.6,169.8,250z M179.1,304.1l43.1,9.1l-13.6,41.9C195.6,339.9,185.7,322.8,179.1,304.1z M213.2,356.7l12.7-39.1
		c7.4,11.6,16.8,22,27.5,30.5L213.2,356.7z M214.3,361.4l43.1-9.2L262,396C244,387.5,228,375.9,214.3,361.4z M262.5,354.7
		c11.4,7.5,24,13.2,37.5,16.7l-33.2,24.2L262.5,354.7z M269.7,399.6l35.6-25.9l3.6,6.3l18.4,31.9
		C307.4,411.3,288.1,407.2,269.7,399.6z M311.1,373.8c6.7,1.1,13.6,1.7,20.6,1.7s13.9-0.6,20.6-1.7l-20.6,35.6L311.1,373.8z
		 M336,411.8l3.6-6.3l18.4-31.9l35.6,25.9C375.3,407.2,355.9,411.3,336,411.8z M396.5,395.6l-33.2-24.2c13.5-3.5,26.2-9.2,37.5-16.7
		L396.5,395.6z M401.4,396.1l4.6-43.8l43.1,9.2C435.4,375.9,419.4,387.5,401.4,396.1z M409.9,348.1c10.8-8.6,20.1-18.9,27.5-30.5
		l12.7,39.1L409.9,348.1z M454.8,355.1l-13.6-41.9l43.1-9.1C477.7,322.8,467.8,339.9,454.8,355.1z M486.9,295.9l-29.5-32.7
		l35.6-25.9c0.3,4.3,0.5,8.5,0.5,12.7C493.6,265.6,491.3,281.1,486.9,295.9z"/>
</g>
</svg>
