<svg width="228" height="49" viewBox="0 0 228 49" fill="none" xmlns="http://www.w3.org/2000/svg">
<g clip-path="url(#clip0_10_438)">
<path d="M106.824 11.063C103.118 7.71753 98.2548 5.94741 93.2655 6.1281H80.9101C80.4513 6.14218 80.0161 6.33535 79.6979 6.66624C79.3797 6.99713 79.2036 7.43946 79.2075 7.89853V40.3183C79.2033 40.7776 79.3792 41.2202 79.6975 41.5514C80.0157 41.8826 80.451 42.0759 80.9101 42.09H93.2655C98.2477 42.2716 103.106 40.5123 106.817 37.1827C108.553 35.493 109.917 33.4597 110.822 31.2128C111.728 28.9659 112.155 26.5547 112.075 24.1335C112.153 21.7099 111.727 19.2966 110.823 17.0465C109.919 14.7965 108.557 12.7589 106.824 11.063ZM100.857 31.4235C99.8709 32.4306 98.6855 33.2204 97.3764 33.7423C96.0674 34.2641 94.6637 34.5064 93.2555 34.4537H88.0709C87.8931 34.4524 87.723 34.3805 87.5981 34.254C87.4732 34.1274 87.4036 33.9565 87.4046 33.7786V14.4382C87.4036 14.2604 87.4732 14.0894 87.5981 13.9629C87.723 13.8363 87.8931 13.7645 88.0709 13.7631H93.2555C99.6107 13.7631 103.558 17.7381 103.558 24.1373C103.619 26.8217 102.653 29.4282 100.858 31.4248L100.857 31.4235Z" fill="white"/>
<path d="M71.5686 25.2063C70.7133 24.4513 69.7272 23.8589 68.6589 23.4585C68.5848 23.429 68.5205 23.3795 68.473 23.3154C68.4256 23.2513 68.397 23.1753 68.3905 23.0959C68.384 23.0164 68.3998 22.9367 68.4361 22.8658C68.4725 22.7948 68.5279 22.7355 68.5962 22.6943C69.4072 22.207 70.1424 21.6033 70.7782 20.9026C72.2716 19.2336 73.0734 17.0586 73.0204 14.8196C73.0575 13.4873 72.7452 12.1686 72.1145 10.9944C71.4838 9.82026 70.5568 8.83165 69.4256 8.12689C66.6655 6.48854 63.4844 5.69871 60.2786 5.85582C57.0593 5.80965 53.871 6.48985 50.9509 7.84583C50.5991 8.01723 50.3251 8.31515 50.1837 8.67995C50.0422 9.04476 50.0438 9.44953 50.188 9.81325C50.2151 9.8821 50.2474 9.94879 50.2846 10.0127C51.0306 11.3395 51.6684 12.7241 52.1918 14.1534C52.2624 14.3541 52.3755 14.5373 52.5233 14.6904C52.6711 14.8435 52.8502 14.963 53.0484 15.0406C53.2465 15.1183 53.4591 15.1523 53.6716 15.1404C53.8841 15.1284 54.0915 15.0708 54.2797 14.9715C55.0146 14.5762 55.7861 14.2531 56.5834 14.0066C57.6088 13.6744 58.68 13.5051 59.7579 13.5047C63.3828 13.5047 63.847 15.0392 63.847 16.3768C63.9005 16.921 63.7971 17.4693 63.549 17.9566C63.3008 18.444 62.9183 18.8502 62.4467 19.1271C60.6908 19.8562 58.7907 20.1718 56.8933 20.0494H55.2621C55.1429 20.0485 55.024 20.0628 54.9083 20.092C54.5544 20.1853 54.2452 20.4013 54.0358 20.7014C53.8264 21.0016 53.7306 21.3664 53.7653 21.7307C53.8343 22.5387 53.8694 23.3618 53.8694 24.1912C53.8694 24.6931 53.8543 25.2289 53.8242 25.7697C53.8128 25.9773 53.8429 26.185 53.9127 26.3809C53.9825 26.5767 54.0906 26.7567 54.2308 26.9102C54.37 27.0614 54.5389 27.1822 54.727 27.2651C54.915 27.348 55.1181 27.3912 55.3236 27.3921H56.8381C58.8963 27.2693 60.9578 27.5726 62.8934 28.2829C63.3754 28.4911 63.7798 28.8453 64.0499 29.2954C64.32 29.7456 64.4422 30.2692 64.3991 30.7924C64.4614 31.3637 64.3698 31.9413 64.1337 32.4652C63.8977 32.9892 63.5257 33.4405 63.0565 33.7724C61.5402 34.5738 59.8302 34.9358 58.1192 34.8176C56.586 34.8109 55.0598 34.6103 53.577 34.2203C53.4477 34.1834 53.3138 34.1648 53.1793 34.1651C52.8834 34.1667 52.5948 34.2565 52.3503 34.423C52.1057 34.5895 51.9165 34.8252 51.8066 35.0999C51.2565 36.436 50.6064 37.7287 49.8618 38.967C49.7379 39.1706 49.6628 39.4002 49.6423 39.6377C49.6218 39.8752 49.6566 40.1142 49.7438 40.336C49.8311 40.5579 49.9684 40.7565 50.1452 40.9165C50.3219 41.0765 50.5332 41.1934 50.7627 41.2581C53.4176 42.0127 56.1672 42.382 58.9272 42.3547C63.6701 42.3547 67.3967 41.3861 70.0027 39.4751C71.3157 38.5452 72.376 37.3026 73.0878 35.8597C73.7996 34.4168 74.1404 32.8192 74.0794 31.2115C74.124 30.088 73.9223 28.9683 73.4886 27.931C73.0549 26.8937 72.3996 25.9637 71.5686 25.2063Z" fill="white"/>
<path d="M47.5457 24.1084C47.4796 19.421 46.0292 14.8576 43.3769 10.9922C40.7246 7.12673 36.9886 4.13167 32.6388 2.38355C28.289 0.635441 23.5195 0.212308 18.9299 1.16735C14.3403 2.12239 10.1354 4.41297 6.84403 7.75112C3.55261 11.0893 1.32153 15.326 0.431292 19.9286C-0.45895 24.5312 0.031376 29.2943 1.84064 33.619C3.64989 37.9438 6.69733 41.6371 10.5998 44.2347C14.5023 46.8322 19.0856 48.2181 23.7735 48.2181C30.121 48.167 36.189 45.5998 40.6458 41.0797C45.1026 36.5596 47.5841 30.4561 47.5457 24.1084ZM6.18841 25.7596L0.598577 21.6404L6.91365 18.7896L6.93122 18.8185C6.40714 20.5333 6.14156 22.3166 6.14324 24.1097C6.14324 24.6555 6.17085 25.195 6.21978 25.7295L6.18841 25.7596ZM37.041 12.2913H43.9521L40.4916 18.363L40.4539 18.3454C39.7118 16.1436 38.5493 14.1067 37.031 12.3478L37.041 12.2913ZM41.3071 26.2063L45.9271 31.4085L39.1766 32.8602L39.1615 32.8138C40.2868 30.7759 41.0044 28.5385 41.2745 26.2264L41.3071 26.2063ZM7.05293 18.3605L3.59739 12.2913H10.5034V12.3491C8.98548 14.1075 7.82341 16.144 7.08178 18.3454L7.05293 18.3605ZM34.115 24.1084C34.0865 26.1474 33.4559 28.1325 32.3023 29.8141C31.1488 31.4957 29.5238 32.7987 27.6318 33.5593C25.7397 34.32 23.665 34.5042 21.6685 34.0889C19.672 33.6736 17.8429 32.6774 16.411 31.2254C14.9792 29.7734 14.0086 27.9305 13.6213 25.9284C13.2339 23.9263 13.4471 21.8544 14.2341 19.9731C15.0211 18.0919 16.3467 16.4853 18.0443 15.3553C19.7418 14.2254 21.7355 13.6226 23.7747 13.6226C26.5351 13.6458 29.1736 14.7627 31.1118 16.7284C33.0499 18.694 34.1295 21.348 34.1137 24.1084H34.115ZM27.1914 41.6433L27.224 41.6671L23.771 47.73L20.318 41.6659L20.3531 41.6433C22.6103 42.0973 24.9354 42.0973 27.1926 41.6433H27.1914ZM27.6569 41.5743L27.6795 41.5367C29.9256 41.0169 32.0465 40.0569 33.9193 38.7123L33.9682 38.7235L33.2455 45.6936L27.6569 41.5743ZM34.3271 38.4588V38.4136C36.171 37.0077 37.725 35.2577 38.9031 33.2604L38.9482 33.2504L41.0813 39.9168L34.3271 38.4588ZM39.277 33.1814L45.9747 31.7372C44.9838 34.6874 43.4255 37.4154 41.3874 39.7675L39.277 33.1814ZM41.3247 25.7233C41.3724 25.19 41.4012 24.6517 41.4012 24.1059C41.4029 22.3136 41.1373 20.5311 40.6133 18.8172L40.6308 18.7884L46.9446 21.6379L41.3561 25.7559L41.3247 25.7233ZM40.7952 18.496L44.2169 12.4871C45.7313 15.2174 46.6944 18.2187 47.0513 21.3204L40.7952 18.496ZM36.6872 11.9551C35.1298 10.2512 33.2543 8.86804 31.1664 7.88347L31.1513 7.8383L37.4589 4.99006L36.7374 11.9551H36.6872ZM31.0535 7.5196L28.9367 0.914686C31.9477 1.60735 34.7901 2.89436 37.297 4.70021L31.0535 7.5196ZM30.7498 7.65636L30.7122 7.67393C28.5993 6.75344 26.3239 6.26374 24.0194 6.2335L23.9918 6.20213L28.6155 0.994987L30.7498 7.65636ZM23.52 6.2335C21.2142 6.2636 18.9375 6.75375 16.8235 7.67518L16.7859 7.65762L17.6504 4.9612L18.9265 0.989969L23.5527 6.19962L23.52 6.2335ZM16.4885 7.52336L10.2437 4.70398C12.7508 2.89756 15.5937 1.6105 18.6053 0.918448L16.4885 7.52336ZM16.3856 7.84332L16.3718 7.88723C14.2839 8.8718 12.4084 10.2549 10.851 11.9588H10.7958L10.0731 4.99507L16.3856 7.84332ZM6.74677 18.4985L0.490672 21.3229C0.847828 18.2211 1.81133 15.2197 3.32637 12.4896L6.74677 18.4985ZM6.26997 26.2339C6.54004 28.5461 7.25771 30.7835 8.38294 32.8213L8.37039 32.8602L1.61743 31.4047L6.23735 26.2101L6.26997 26.2339ZM8.26625 33.1877L6.15454 39.7775C4.11711 37.4252 2.55921 34.6973 1.56849 31.7472L8.26625 33.1877ZM8.58997 33.2579L8.63766 33.268C9.81552 35.2621 11.3686 37.0091 13.2112 38.4124V38.4588L6.45065 39.9155L8.58997 33.2579ZM13.6227 38.716C15.4968 40.062 17.6194 41.0224 19.8675 41.5417L19.8888 41.5793L14.2977 45.6986L13.575 38.7273L13.6227 38.716ZM20.0532 41.8704L23.4749 47.8818C20.3902 47.8434 17.3447 47.1864 14.5186 45.9496L20.0532 41.8704ZM27.4925 41.8704L33.0309 45.9496C30.2036 47.1867 27.1567 47.8433 24.0709 47.8806L27.4925 41.8704ZM33.578 45.7011L34.2932 38.8001L40.9796 40.2418C38.8946 42.5291 36.3801 44.3841 33.5792 45.7011H33.578ZM46.1604 31.1688L41.5782 26.0081L47.1165 21.9277C47.1805 22.6454 47.2157 23.3731 47.2157 24.1084C47.218 26.5012 46.8627 28.881 46.1617 31.1688H46.1604ZM43.9145 11.9576H37.0749L37.7901 5.06283C40.2613 6.94044 42.3421 9.28251 43.9157 11.9576H43.9145ZM28.3558 0.790466L23.7722 5.95369L19.1887 0.790466C22.214 0.181091 25.3305 0.181091 28.3558 0.790466ZM9.7506 5.06534L10.4645 11.9588H3.62625C5.19962 9.28433 7.27997 6.94271 9.7506 5.06534ZM0.425423 21.9289L5.96507 26.0106L1.38279 31.1713C0.680898 28.8832 0.325225 26.503 0.32756 24.1097C0.33007 23.3731 0.365204 22.6467 0.429195 21.9277L0.425423 21.9289ZM6.56107 40.238L13.2463 38.7963L13.9627 45.6973C11.1625 44.38 8.64874 42.5246 6.56484 40.2368L6.56107 40.238Z" fill="white"/>
<path d="M116.644 24.2389C116.583 21.7679 117.022 19.3101 117.935 17.0131C118.848 14.7162 120.216 12.6277 121.957 10.8731C123.698 9.11846 125.776 7.73405 128.066 6.80306C130.356 5.87207 132.81 5.41373 135.282 5.45559C138.042 5.4079 140.78 5.95006 143.314 7.04583C145.848 8.14159 148.119 9.7657 149.974 11.8096C150.194 12.0597 150.311 12.3834 150.303 12.7161C150.295 13.0489 150.161 13.3663 149.929 13.6051L146.238 17.3693C146.144 17.4662 146.032 17.5433 145.908 17.596C145.784 17.6487 145.651 17.6758 145.516 17.6758C145.381 17.6758 145.248 17.6487 145.124 17.596C145 17.5433 144.887 17.4662 144.794 17.3693C143.65 16.0879 142.254 15.0572 140.692 14.342C139.131 13.6268 137.438 13.2426 135.721 13.2136C134.288 13.2039 132.868 13.483 131.545 14.0344C130.222 14.5857 129.024 15.398 128.022 16.4226C127.021 17.4472 126.236 18.6632 125.714 19.998C125.193 21.3327 124.946 22.7589 124.988 24.1913C124.948 25.6095 125.197 27.021 125.719 28.3404C126.24 29.6598 127.024 30.8597 128.023 31.8676C129.021 32.8754 130.214 33.6703 131.528 34.2041C132.843 34.7379 134.252 34.9995 135.671 34.9732C137.439 34.9445 139.182 34.552 140.792 33.8202C142.402 33.0884 143.844 32.033 145.028 30.7196C145.113 30.6267 145.215 30.5514 145.328 30.4981C145.442 30.4447 145.565 30.4142 145.69 30.4085C145.815 30.4028 145.941 30.4219 146.058 30.4648C146.176 30.5076 146.285 30.5733 146.377 30.6582L150.199 34.2379C150.448 34.4724 150.596 34.7942 150.612 35.1355C150.628 35.4769 150.512 35.8113 150.287 36.0686C148.382 38.1791 146.05 39.8602 143.446 41.0003C140.841 42.1404 138.024 42.7133 135.181 42.681C124.84 42.6785 116.644 35.2655 116.644 24.2389Z" fill="white"/>
<path d="M153.432 24.1887C153.374 20.4497 154.43 16.7778 156.466 13.641C158.501 10.5042 161.425 8.04442 164.864 6.5751C168.302 5.10577 172.101 4.6934 175.775 5.39053C179.449 6.08766 182.832 7.86273 185.493 10.4896C188.155 13.1164 189.974 16.4761 190.719 20.1406C191.465 23.8051 191.102 27.6085 189.678 31.0663C188.254 34.524 185.833 37.4795 182.723 39.5562C179.613 41.633 175.955 42.7369 172.216 42.7274C169.754 42.7865 167.305 42.3492 165.015 41.4416C162.726 40.534 160.642 39.1746 158.89 37.4445C157.137 35.7145 155.75 33.6492 154.813 31.3717C153.875 29.0943 153.406 26.6514 153.432 24.1887ZM182.704 24.1398C182.745 22.7433 182.505 21.3529 181.998 20.0508C181.492 18.7488 180.729 17.5616 179.756 16.5595C178.782 15.5574 177.618 14.7608 176.331 14.2168C175.044 13.6728 173.661 13.3925 172.264 13.3925C170.867 13.3925 169.484 13.6728 168.197 14.2168C166.911 14.7608 165.746 15.5574 164.773 16.5595C163.799 17.5616 163.037 18.7488 162.53 20.0508C162.024 21.3529 161.784 22.7433 161.824 24.1398C161.798 25.5275 162.048 26.9065 162.561 28.1962C163.074 29.4859 163.839 30.6604 164.811 31.6511C165.783 32.6418 166.943 33.4288 168.222 33.966C169.502 34.5032 170.876 34.7799 172.264 34.7799C173.652 34.7799 175.026 34.5032 176.306 33.966C177.586 33.4288 178.745 32.6418 179.717 31.6511C180.689 30.6604 181.454 29.4859 181.967 28.1962C182.48 26.9065 182.73 25.5275 182.704 24.1398Z" fill="white"/>
<path d="M228 7.64507V40.5856C228 40.79 227.96 40.9924 227.881 41.1813C227.803 41.3701 227.688 41.5417 227.544 41.6862C227.399 41.8307 227.228 41.9453 227.039 42.0234C226.85 42.1015 226.647 42.1416 226.443 42.1414H222.903C222.681 42.1415 222.461 42.0931 222.26 41.9994C222.058 41.9058 221.88 41.7693 221.736 41.5994L204.582 21.2602V40.5831C204.582 40.7875 204.541 40.9899 204.463 41.1788C204.385 41.3676 204.27 41.5392 204.125 41.6837C203.981 41.8282 203.809 41.9427 203.62 42.0209C203.431 42.099 203.229 42.1391 203.025 42.1389H198.185C197.772 42.1389 197.377 41.975 197.085 41.6832C196.793 41.3914 196.629 40.9957 196.629 40.5831V7.64507C196.629 7.23243 196.793 6.83669 197.085 6.54491C197.377 6.25313 197.772 6.0892 198.185 6.0892H201.293C201.544 6.08901 201.792 6.14321 202.02 6.24805C202.247 6.35289 202.45 6.50588 202.613 6.6965L220.095 27.1649V7.64507C220.095 7.44065 220.135 7.23823 220.214 7.04938C220.292 6.86053 220.407 6.68896 220.551 6.54446C220.696 6.39997 220.868 6.28539 221.056 6.20728C221.245 6.12916 221.448 6.08904 221.652 6.0892H226.443C226.647 6.08904 226.85 6.12916 227.039 6.20728C227.228 6.28539 227.399 6.39997 227.544 6.54446C227.688 6.68896 227.803 6.86053 227.881 7.04938C227.96 7.23823 228 7.44065 228 7.64507Z" fill="white"/>
</g>
<defs>
<clipPath id="clip0_10_438">
<rect width="228" height="48.2181" fill="white"/>
</clipPath>
</defs>
</svg>