<svg width="1900" height="500" viewBox="0 0 1900 500" fill="none" xmlns="http://www.w3.org/2000/svg">
<path d="M900.094 158.619C874.348 135.352 840.566 123.047 805.908 124.305H720.074C713.442 124.506 708.194 129.982 708.247 136.62V362.072C708.183 368.711 713.442 374.187 720.074 374.387H805.908C840.513 375.645 874.264 363.414 900.041 340.264C924.425 316.5 937.689 283.56 936.569 249.521C937.667 215.45 924.436 182.468 900.094 158.63V158.619ZM858.635 300.209C844.79 314.375 825.613 322.028 805.834 321.278H769.813C767.236 321.257 765.166 319.164 765.187 316.584V182.087C765.177 179.508 767.247 177.415 769.813 177.394H805.834C849.986 177.394 877.4 205.037 877.4 249.531C877.823 268.2 871.117 286.329 858.645 300.209H858.635Z" fill="white"/>
<path d="M655.182 256.974C649.236 251.72 642.393 247.608 634.969 244.817C633.449 244.214 632.699 242.481 633.301 240.948C633.544 240.345 633.977 239.838 634.526 239.499C640.165 236.106 645.266 231.909 649.68 227.036C660.05 215.429 665.626 200.302 665.256 184.73C665.784 165.882 656.269 148.164 640.281 138.185C621.104 126.79 599.012 121.303 576.74 122.392C554.374 122.075 532.229 126.8 511.943 136.23C506.874 138.703 504.561 144.665 506.642 149.909C506.832 150.384 507.053 150.85 507.317 151.294C512.502 160.522 516.927 170.153 520.571 180.089C522.45 185.449 528.332 188.272 533.686 186.39C534.161 186.221 534.626 186.02 535.07 185.787C540.17 183.039 545.535 180.787 551.068 179.075C558.197 176.77 565.631 175.586 573.118 175.586C598.304 175.586 601.525 186.252 601.525 195.555C602.286 203.283 598.484 210.746 591.799 214.678C579.602 219.753 566.402 221.941 553.223 221.095H541.892C541.068 221.095 540.234 221.19 539.431 221.391C534.352 222.734 530.993 227.554 531.49 232.787C531.965 238.411 532.218 244.13 532.218 249.901C532.218 253.39 532.113 257.122 531.902 260.874C531.743 263.792 532.757 266.646 534.721 268.803C536.675 270.928 539.431 272.143 542.314 272.154H552.832C567.131 271.298 581.45 273.412 594.893 278.349C601.757 281.319 605.971 288.338 605.348 295.802C606.224 303.889 602.655 311.827 596.023 316.521C585.495 322.092 573.614 324.608 561.724 323.794C551.068 323.752 540.466 322.356 530.17 319.64C529.272 319.386 528.343 319.259 527.403 319.259C523.2 319.28 519.43 321.849 517.867 325.76C514.044 335.052 509.525 344.038 504.361 352.653C501.277 357.728 502.882 364.334 507.951 367.421C508.785 367.929 509.683 368.32 510.612 368.584C529.05 373.827 548.154 376.396 567.331 376.206C600.279 376.206 626.162 369.472 644.273 356.184C662.806 343.044 673.451 321.437 672.595 298.719C673.218 282.905 666.84 267.619 655.15 256.963L655.182 256.974Z" fill="white"/>
<path d="M488.298 249.341C487.01 158.038 412.032 85.0756 320.834 86.3547C229.626 87.6444 156.728 162.7 158.017 254.003C159.284 344.397 232.857 417 323.158 417C414.968 416.26 488.858 341.247 488.298 249.341V249.341ZM200.997 260.821L162.167 232.174L206.034 212.353L206.161 212.553C202.518 224.478 200.68 236.878 200.691 249.352C200.691 253.147 200.881 256.9 201.219 260.621L200.997 260.832V260.821ZM415.327 167.161H463.334L439.299 209.382L439.035 209.255C433.881 193.948 425.803 179.783 415.253 167.552L415.327 167.161V167.161ZM444.959 263.929L477.052 300.104L430.154 310.199L430.048 309.872C437.863 295.696 442.847 280.146 444.727 264.067L444.949 263.929H444.959ZM207.006 209.372L183.002 167.171H230.977V167.573C220.428 179.804 212.36 193.959 207.206 209.276L207.006 209.382V209.372ZM394.999 249.341C394.45 289.057 361.84 320.802 322.165 320.242C282.49 319.692 250.778 287.049 251.337 247.333C251.887 208.008 283.884 176.421 323.168 176.421C363.096 176.759 395.221 209.372 394.988 249.341H394.999ZM346.897 371.28L347.119 371.449L323.136 413.607L299.154 371.438L299.397 371.28C315.079 374.44 331.226 374.44 346.908 371.28H346.897ZM350.128 370.804L350.287 370.54C365.895 366.924 380.626 360.254 393.636 350.898L393.974 350.972L388.958 399.441L350.139 370.793L350.128 370.804ZM396.467 349.144V348.827C409.276 339.048 420.069 326.881 428.253 312.99L428.57 312.916L443.386 359.271L396.467 349.133V349.144ZM430.851 312.44L477.379 302.398C470.494 322.917 459.67 341.881 445.508 358.245L430.851 312.44ZM445.075 260.578C445.403 256.868 445.603 253.126 445.603 249.331C445.614 236.867 443.766 224.467 440.133 212.553L440.26 212.353L484.116 232.163L445.297 260.8L445.075 260.578V260.578ZM441.4 210.323L465.171 168.535C475.689 187.521 482.385 208.388 484.866 229.964L441.411 210.323H441.4ZM412.867 164.835C402.042 152.985 389.022 143.365 374.512 136.526L374.406 136.208L418.221 116.398L413.205 164.835H412.856H412.867ZM373.73 133.988L359.031 88.0567C379.95 92.8771 399.687 101.82 417.112 114.379L373.741 133.988H373.73ZM371.618 134.94L371.354 135.067C356.676 128.661 340.867 125.257 324.858 125.045L324.668 124.823L356.792 88.617L371.618 134.94ZM321.394 125.045C305.374 125.257 289.555 128.661 274.876 135.067L274.612 134.94L280.621 116.187L289.481 88.5747L321.616 124.802L321.394 125.035V125.045ZM272.542 134.02L229.161 114.411C246.575 101.852 266.322 92.8983 287.242 88.0884L272.542 134.02ZM271.824 136.24L271.729 136.547C257.22 143.397 244.199 153.017 233.375 164.856H232.994L227.978 116.43L271.835 136.24H271.824ZM204.862 210.333L161.417 229.975C163.899 208.41 170.594 187.531 181.112 168.546L204.873 210.333H204.862ZM201.546 264.13C203.426 280.209 208.41 295.77 216.225 309.935L216.14 310.21L169.232 300.093L201.324 263.972L201.546 264.141V264.13ZM215.412 312.483L200.743 358.309C186.593 341.955 175.769 322.98 168.883 302.461L215.412 312.483V312.483ZM217.661 312.969L217.988 313.043C226.172 326.912 236.965 339.059 249.764 348.816V349.144L202.803 359.271L217.661 312.969V312.969ZM252.626 350.92C265.647 360.275 280.389 366.956 296.007 370.571L296.155 370.836L257.315 399.484L252.298 351.004L252.626 350.93V350.92ZM297.296 372.855L321.067 414.653C299.64 414.389 278.477 409.822 258.846 401.217L297.296 372.855V372.855ZM348.977 372.855L387.448 401.217C367.806 409.822 346.643 414.389 325.206 414.643L348.977 372.844V372.855ZM391.25 399.494L396.213 351.501L442.668 361.522C428.179 377.432 410.712 390.329 391.26 399.484L391.25 399.494ZM478.657 298.434L446.828 262.545L485.299 234.171C485.743 239.161 485.986 244.225 485.986 249.341C486.007 265.98 483.536 282.535 478.667 298.444L478.657 298.434ZM463.059 164.835H415.549L420.512 116.884C437.683 129.94 452.13 146.23 463.07 164.835H463.059ZM354.976 87.1793L323.136 123.09L291.297 87.1793C312.312 82.9402 333.961 82.9402 354.976 87.1793V87.1793ZM225.729 116.905L230.692 164.846H183.203C194.133 146.251 208.59 129.961 225.75 116.905H225.729ZM160.963 234.182L199.445 262.566L167.616 298.455C162.737 282.545 160.266 265.991 160.287 249.352C160.308 244.225 160.551 239.182 160.995 234.182H160.974H160.963ZM203.584 361.512L250.028 351.49L255.002 399.484C235.55 390.318 218.083 377.422 203.605 361.512H203.584V361.512Z" fill="white"/>
<path d="M968.313 250.25C966.571 179.867 1022.17 121.387 1092.48 119.654C1094.24 119.612 1096.02 119.601 1097.78 119.633C1136.57 118.967 1173.77 135.067 1199.85 163.82C1203.01 167.425 1202.88 172.859 1199.53 176.305L1173.89 202.479C1171.22 205.249 1166.8 205.333 1164.03 202.648C1163.96 202.595 1163.91 202.532 1163.86 202.479C1147.79 184.466 1124.94 173.99 1100.83 173.577C1059.91 173.303 1026.52 206.274 1026.25 247.237C1026.25 248.125 1026.25 249.024 1026.28 249.912C1025.16 290.188 1056.87 323.752 1097.11 324.872C1098.24 324.904 1099.36 324.904 1100.49 324.883C1125.31 324.481 1148.86 313.762 1165.49 295.304C1167.95 292.598 1172.14 292.397 1174.84 294.85C1174.84 294.85 1174.86 294.861 1174.86 294.871L1201.41 319.766C1205 323.16 1205.26 328.783 1202.02 332.494C1175.25 362.188 1137.03 378.933 1097.08 378.479C1025.24 378.457 968.313 326.912 968.313 250.229V250.25Z" fill="white"/>
<path d="M1223.88 249.901C1222.75 177.573 1280.4 118.026 1352.65 116.895C1424.91 115.764 1484.39 173.472 1485.52 245.8C1486.65 318.128 1429 377.675 1356.75 378.806C1355.96 378.817 1355.17 378.827 1354.37 378.817C1284.01 380.508 1225.61 324.777 1223.92 254.352C1223.89 252.872 1223.88 251.381 1223.89 249.901H1223.88ZM1427.23 249.563C1428.39 209.467 1396.86 176.019 1356.8 174.857C1316.75 173.694 1283.34 205.259 1282.17 245.356C1282.13 246.762 1282.13 248.168 1282.17 249.563C1281.41 289.66 1313.27 322.779 1353.32 323.54C1393.37 324.301 1426.46 292.408 1427.22 252.322C1427.24 251.402 1427.24 250.483 1427.22 249.563H1427.23Z" fill="white"/>
<path d="M1741.88 134.855V363.922C1741.88 369.895 1737.04 374.736 1731.08 374.736H1706.48C1703.36 374.736 1700.39 373.362 1698.37 370.963L1579.2 229.52V363.89C1579.2 369.863 1574.36 374.705 1568.4 374.705H1534.77C1528.81 374.705 1523.97 369.863 1523.97 363.89V134.855C1523.97 128.883 1528.81 124.041 1534.77 124.041H1556.36C1559.89 124.041 1563.23 125.584 1565.53 128.259L1686.97 270.6V134.855C1686.97 128.883 1691.8 124.041 1697.77 124.041H1731.06C1737.02 124.041 1741.87 128.872 1741.87 134.855H1741.88Z" fill="white"/>
</svg>
