<svg id="Layer_1" data-name="Layer 1" xmlns="http://www.w3.org/2000/svg" viewBox="0 0 227.8 117.5"><defs><style>.cls-1{fill:#00a651;}.cls-2,.cls-3,.cls-6{fill:none;stroke-miterlimit:10;stroke-width:3px;}.cls-2{stroke:#00a651;}.cls-3{stroke:#ed1c24;}.cls-4{fill:#ed1c24;}.cls-5{fill:#2e3192;}.cls-6{stroke:#2e3192;}.cls-7{fill:#231f20;}</style></defs><polygon class="cls-1" points="60.1 74.05 46.74 77.82 52.7 82.37 60.1 74.05"/><line class="cls-2" x1="50.13" y1="79.87" x2="24.03" y2="95.3"/><line class="cls-3" x1="207.1" y1="94.4" x2="171.8" y2="87.4"/><polygon class="cls-4" points="213.4 95.9 203.9 90.5 203 97 213.4 95.9"/><path class="cls-5" d="M146.9,119h2v1.2h-2v2h-1.2v-2h-2V119h2v-2h1.2Z" transform="translate(-0.7 -5.9)"/><path class="cls-5" d="M155.4,123.4h-5.7v-1.1l3.7-5.3h-3.6v-1.4h5.5v1.1l-3.7,5.3h3.8Z" transform="translate(-0.7 -5.9)"/><path class="cls-1" d="M169.8,37.4h2v1.2h-2v2h-1.2v-2h-2V37.4h2V35.3h1.2Z" transform="translate(-0.7 -5.9)"/><path class="cls-1" d="M175.6,37.2l1.6-3.2H179l-2.6,4.7v3h-1.6V38.8L172.2,34H174Z" transform="translate(-0.7 -5.9)"/><polygon class="cls-1" points="172.4 37.1 169 49.4 175.8 49.4 172.4 37.1"/><path class="cls-4" d="M218.8,100.7h2v1.2h-2v2h-1.2v-2h-2v-1.2h2V98.6h1.2Z" transform="translate(-0.7 -5.9)"/><path class="cls-4" d="M228.5,105h-1.9l-1.8-2.9L223,105h-1.8l2.6-4-2.4-3.7h1.8l1.7,2.8,1.6-2.8h1.8l-2.4,3.8Z" transform="translate(-0.7 -5.9)"/><polygon class="cls-5" points="151 107.6 160.3 103.7 156.4 97.3 151 107.6"/><line class="cls-2" x1="172.3" y1="44.9" x2="172.5" y2="88.5"/><line class="cls-6" x1="158.2" y1="100.7" x2="173.8" y2="85.99"/><line class="cls-3" x1="57.9" y1="103.4" x2="22.6" y2="96.4"/><polygon class="cls-4" points="64.2 104.9 54.7 99.5 53.8 106 64.2 104.9"/><path class="cls-5" d="M20.6,45.4h2v1.2h-2v2H19.4v-2h-2V45.4h2V43.3h1.2Z" transform="translate(-0.7 -5.9)"/><path class="cls-5" d="M29.1,49.7H23.4V48.6l3.7-5.3H23.5V42H29v1.1l-3.7,5.3h3.8Z" transform="translate(-0.7 -5.9)"/><polygon class="cls-5" points="23.2 45.1 19.8 57.4 26.6 57.4 23.2 45.1"/><path class="cls-4" d="M69.6,110.7h2v1.2h-2v2H68.4v-2h-2v-1.2h2v-2.1h1.2Z" transform="translate(-0.7 -5.9)"/><path class="cls-4" d="M79.3,115H77.4l-1.8-2.9L73.8,115H72l2.6-4-2.4-3.7H74l1.7,2.8,1.6-2.8h1.8l-2.4,3.8Z" transform="translate(-0.7 -5.9)"/><line class="cls-6" x1="23.1" y1="52.9" x2="23.3" y2="98"/><path d="M7.6,8.7a4.1,4.1,0,0,1-.1,1.1c-.2.2-.3.5-.5.7a1.79,1.79,0,0,1-.7.5,3,3,0,0,1-1,.2,3,3,0,0,1-1-.2,1.79,1.79,0,0,1-.7-.5A1.56,1.56,0,0,1,3,9.7a3.08,3.08,0,0,1-.1-1,2.5,2.5,0,0,1,.3-1.3A1.76,1.76,0,0,1,4,6.5a2.5,2.5,0,0,1,1.3-.3,2.5,2.5,0,0,1,1.3.3,2.36,2.36,0,0,1,.8.9A4.44,4.44,0,0,1,7.6,8.7Zm-3.9,0a3,3,0,0,0,.2,1,1,1,0,0,0,.5.6,1.08,1.08,0,0,0,.8.2,1.88,1.88,0,0,0,.8-.2,2.65,2.65,0,0,0,.5-.6,3,3,0,0,0,.2-1,2.9,2.9,0,0,0-.3-1.4,1.25,1.25,0,0,0-1.2-.5,1.88,1.88,0,0,0-.8.2,1.79,1.79,0,0,0-.5.7A3,3,0,0,0,3.7,8.7Z" transform="translate(-0.7 -5.9)"/><path d="M11.5,7.3a1.27,1.27,0,0,1-.1.6.78.78,0,0,1-.4.4c-.2.1-.3.2-.5.2h0a1.88,1.88,0,0,1,.9.4,1.14,1.14,0,0,1,.3.8,2.35,2.35,0,0,1-.2.8,1.47,1.47,0,0,1-.6.5,3.09,3.09,0,0,1-1.1.2,2.2,2.2,0,0,1-.8-.1,1.85,1.85,0,0,1-.7-.2v-.7a1.45,1.45,0,0,0,.7.2c.3,0,.5.1.7.1a2,2,0,0,0,.9-.2.86.86,0,0,0,.3-.6c0-.2,0-.3-.1-.4a1.38,1.38,0,0,0-.4-.3c-.4,0-.6-.1-.9-.1H9V8.3h.4a1.48,1.48,0,0,0,.7-.1,1.38,1.38,0,0,0,.4-.3.6.6,0,0,0,.1-.4.76.76,0,0,0-.2-.5.85.85,0,0,0-.6-.2.9.9,0,0,0-.5.1A.37.37,0,0,0,9,7c-.1,0-.2.1-.3.2l-.4-.6A4.88,4.88,0,0,1,9,6.3a2.77,2.77,0,0,1,.9-.1,2.13,2.13,0,0,1,1.2.3A1.23,1.23,0,0,1,11.5,7.3Z" transform="translate(-0.7 -5.9)"/><path d="M16.7,8.6a2.9,2.9,0,0,1-.3,1.4,2,2,0,0,1-.9.9,3.19,3.19,0,0,1-1.4.3H12.7v-5h1.5a2.5,2.5,0,0,1,1.3.3,2.36,2.36,0,0,1,.9.8A2.5,2.5,0,0,1,16.7,8.6Zm-.9.1a3,3,0,0,0-.2-1,.9.9,0,0,0-.6-.6,2.39,2.39,0,0,0-.9-.2h-.7v3.6H14a2,2,0,0,0,1.4-.5A1.7,1.7,0,0,0,15.8,8.7Z" transform="translate(-0.7 -5.9)"/><path d="M20.6,11.2H17.8v-5h2.8v.7h-2V8.3h1.9V9H18.6v1.6h2Z" transform="translate(-0.7 -5.9)"/><path d="M24.9,11.2A2,2,0,0,1,24,11a1.17,1.17,0,0,1-.6-.6,3.59,3.59,0,0,1-.2-1.1,3.09,3.09,0,0,1,.2-1.1,1.7,1.7,0,0,1,.6-.6,2.39,2.39,0,0,1,.9-.2,1.27,1.27,0,0,1,.6.1c.2,0,.3.1.5.2l-.2.6a.6.6,0,0,0-.4-.1A.4.4,0,0,0,25,8a1.27,1.27,0,0,0-.6.1c-.1.1-.3.2-.3.4a2.2,2.2,0,0,0-.1.8,1.48,1.48,0,0,0,.1.7,1.38,1.38,0,0,0,.3.4.75.75,0,0,0,.5.1,1.27,1.27,0,0,0,.6-.1c.2-.1.3-.1.5-.2V11c-.1.1-.3.1-.5.2Z" transform="translate(-0.7 -5.9)"/><path d="M30.2,9.3a2,2,0,0,1-.1.8c-.1.2-.2.5-.4.6s-.3.3-.6.4a2,2,0,0,1-.7.1,1.48,1.48,0,0,1-.7-.1,1.84,1.84,0,0,1-1-1,2,2,0,0,1-.1-.8,3.59,3.59,0,0,1,.2-1.1c.1-.3.4-.5.6-.7a1.5,1.5,0,0,1,1-.2,2.39,2.39,0,0,1,.9.2,1.41,1.41,0,0,1,.6.7A1.43,1.43,0,0,1,30.2,9.3Zm-2.7,0a1.48,1.48,0,0,0,.1.7,1.38,1.38,0,0,0,.3.4.73.73,0,0,0,1,0c.1-.1.2-.3.3-.4a1.48,1.48,0,0,0,.1-.7,1.48,1.48,0,0,0-.1-.7,1.38,1.38,0,0,0-.3-.4c0-.2-.2-.2-.5-.2a.78.78,0,0,0-.7.3A2.51,2.51,0,0,0,27.5,9.3Z" transform="translate(-0.7 -5.9)"/><path d="M34.5,9.3a2,2,0,0,1-.1.8c-.1.2-.2.5-.4.6s-.3.3-.6.4a2,2,0,0,1-.7.1,1.48,1.48,0,0,1-.7-.1,1.84,1.84,0,0,1-1-1,2,2,0,0,1-.1-.8,3.59,3.59,0,0,1,.2-1.1c.1-.3.4-.5.6-.7a1.5,1.5,0,0,1,1-.2,2.39,2.39,0,0,1,.9.2,1.41,1.41,0,0,1,.6.7A2,2,0,0,1,34.5,9.3Zm-2.7,0a1.48,1.48,0,0,0,.1.7,1.38,1.38,0,0,0,.3.4.72.72,0,0,0,1,0c.1-.1.2-.3.3-.4a1.48,1.48,0,0,0,.1-.7,1.48,1.48,0,0,0-.1-.7,1.38,1.38,0,0,0-.3-.4c-.1-.2-.3-.2-.5-.2a.78.78,0,0,0-.7.3A2.51,2.51,0,0,0,31.8,9.3Z" transform="translate(-0.7 -5.9)"/><path d="M37.3,7.3h.4l-.1.8h-.4a.6.6,0,0,0-.4.1c-.1.1-.2.1-.3.2a.52.52,0,0,0-.2.4c0,.2-.1.2-.1.4v2h-.8V7.4H36l.1.7h0c.1-.1.2-.3.3-.4a1.38,1.38,0,0,1,.4-.3A4.33,4.33,0,0,0,37.3,7.3Z" transform="translate(-0.7 -5.9)"/><path d="M39.7,11.2a1.61,1.61,0,0,1-1.1-.5,2.08,2.08,0,0,1-.4-1.5,2.41,2.41,0,0,1,.4-1.5,1.43,1.43,0,0,1,1.1-.5.75.75,0,0,1,.5.1c.1.1.3.1.4.2l.3.3h0V5.9h.8v5.3H41l-.1-.5h0l-.3.3a.52.52,0,0,1-.4.2Zm.2-.6a.78.78,0,0,0,.7-.3,2,2,0,0,0,.2-.9V9.3a3,3,0,0,0-.2-1c0-.2-.3-.3-.7-.3a.91.91,0,0,0-.7.3,1.5,1.5,0,0,0-.2,1,3,3,0,0,0,.2,1A1.08,1.08,0,0,0,39.9,10.6Z" transform="translate(-0.7 -5.9)"/><path d="M43.2,5.9a.35.35,0,0,1,.4.4c0,.2,0,.3-.1.3a.4.4,0,0,1-.7-.3c0-.2,0-.3.1-.3S43.1,5.9,43.2,5.9Zm.4,1.5v3.8h-.8V7.4Z" transform="translate(-0.7 -5.9)"/><path d="M46.7,7.3a1.49,1.49,0,0,1,1,.3,1.6,1.6,0,0,1,.4,1.1v2.5h-.8V8.9a1.45,1.45,0,0,0-.2-.7.85.85,0,0,0-.6-.2,1,1,0,0,0-.8.3,2.51,2.51,0,0,0-.2,1v1.9h-.8V7.4h.6l.1.5h0l.3-.3c.1-.1.3-.1.4-.2A1.76,1.76,0,0,1,46.7,7.3Z" transform="translate(-0.7 -5.9)"/><path d="M50.7,7.3a1.8,1.8,0,0,1,1.1.3,1.33,1.33,0,0,1,.4,1v2.5h-.6l-.2-.5h0l-.3.3a.52.52,0,0,1-.4.2c-.2,0-.3.1-.5.1a1.27,1.27,0,0,1-.6-.1.78.78,0,0,1-.4-.4,1.42,1.42,0,0,1-.2-.6,1,1,0,0,1,.4-.9,2.27,2.27,0,0,1,1.3-.3h.7V8.7a1.07,1.07,0,0,0-.2-.6c-.2-.1-.3-.2-.5-.2a1.27,1.27,0,0,0-.6.1c-.2.1-.4.1-.5.2l-.3-.6a1.42,1.42,0,0,1,.6-.2C50.2,7.4,50.4,7.3,50.7,7.3Zm.6,2.1h-.5a1.29,1.29,0,0,0-.8.2c-.2.1-.2.3-.2.5a.52.52,0,0,0,.2.4.6.6,0,0,0,.4.1,1.45,1.45,0,0,0,.7-.2.91.91,0,0,0,.3-.7V9.4Z" transform="translate(-0.7 -5.9)"/><path d="M54.7,10.6H55a.37.37,0,0,0,.3-.1v.6c-.1,0-.2.1-.3.1h-.4a1.27,1.27,0,0,1-.6-.1.78.78,0,0,1-.4-.4,1.45,1.45,0,0,1-.2-.7V8h-.5V7.7l.6-.3.3-.8h.5v.8h1.1V8H54.3v2c0,.2,0,.3.1.4S54.5,10.6,54.7,10.6Z" transform="translate(-0.7 -5.9)"/><path d="M57.5,7.3a2.92,2.92,0,0,1,.9.2c.3.1.4.3.6.6a2.92,2.92,0,0,1,.2.9v.4H56.7a1,1,0,0,0,.3.8,1.14,1.14,0,0,0,.8.3,1.7,1.7,0,0,0,.7-.1,1.42,1.42,0,0,0,.6-.2V11a1.42,1.42,0,0,1-.6.2c-.2,0-.4.1-.7.1a3,3,0,0,1-1-.2c-.3-.1-.5-.4-.7-.6s-.2-.6-.2-1.1a3.59,3.59,0,0,1,.2-1.1,1.34,1.34,0,0,1,.6-.7A1.33,1.33,0,0,1,57.5,7.3Zm0,.6a.85.85,0,0,0-.6.2c-.2.2-.2.4-.3.7h1.7a.75.75,0,0,0-.1-.5c-.1-.1-.2-.3-.3-.3A1,1,0,0,0,57.5,7.9Z" transform="translate(-0.7 -5.9)"/><path d="M64.4,10.1a1.12,1.12,0,0,1-.7,1,2,2,0,0,1-.8.1,1.48,1.48,0,0,1-.7-.1.76.76,0,0,1-.5-.2v-.7a1.42,1.42,0,0,0,.6.2,1.27,1.27,0,0,0,.6.1c.3,0,.5,0,.6-.1s.2-.2.2-.3,0-.2-.1-.2-.1-.1-.3-.2a.85.85,0,0,0-.6-.2l-.6-.3-.3-.3a.75.75,0,0,1-.1-.5.91.91,0,0,1,.4-.8,1.8,1.8,0,0,1,1.1-.3,1.7,1.7,0,0,1,.7.1,1.42,1.42,0,0,1,.6.2l-.3.6c-.2-.1-.3-.1-.5-.2s-.3-.1-.5-.1a.75.75,0,0,0-.5.1c-.1.1-.2.2-.2.3s0,.2.1.2.1.1.3.2.3.1.5.2l.6.3a1.38,1.38,0,0,1,.4.3C64.5,9.6,64.4,9.9,64.4,10.1Z" transform="translate(-0.7 -5.9)"/><path d="M64.7,7.4h.9l.8,2.2c0,.1.1.2.1.3s.1.2.1.3a.37.37,0,0,0,.1.3h0c0-.1.1-.3.1-.4s.1-.3.1-.4l.7-2.2h.9l-1.6,4.3a3.33,3.33,0,0,1-.3.6,1,1,0,0,1-.5.4,1.27,1.27,0,0,1-.6.1H65v-.6h.4a.6.6,0,0,0,.4-.1c.1-.1.2-.1.3-.2s.1-.2.2-.4l.1-.4Z" transform="translate(-0.7 -5.9)"/><path d="M71.6,10.1a1.07,1.07,0,0,1-.2.6,2.18,2.18,0,0,1-.5.4,2,2,0,0,1-.8.1,1.48,1.48,0,0,1-.7-.1.76.76,0,0,1-.5-.2v-.7a1.42,1.42,0,0,0,.6.2,1.27,1.27,0,0,0,.6.1c.3,0,.5,0,.6-.1s.2-.2.2-.3,0-.2-.1-.2-.1-.1-.3-.2a.85.85,0,0,0-.6-.2l-.6-.3a1.38,1.38,0,0,1-.4-.3.75.75,0,0,1-.1-.5.91.91,0,0,1,.4-.8,1.8,1.8,0,0,1,1.1-.3,1.7,1.7,0,0,1,.7.1,1.42,1.42,0,0,1,.6.2l-.3.6c-.2-.1-.3-.1-.5-.2s-.3-.1-.5-.1a.75.75,0,0,0-.5.1c-.1.1-.2.2-.2.3s0,.2.1.2.1.1.3.2.3.1.5.2l.6.3a1.38,1.38,0,0,1,.4.3C71.6,9.6,71.6,9.9,71.6,10.1Z" transform="translate(-0.7 -5.9)"/><path d="M73.9,10.6h.3a.37.37,0,0,0,.3-.1v.6c-.1,0-.2.1-.3.1h-.4a1.27,1.27,0,0,1-.6-.1.78.78,0,0,1-.4-.4,1.45,1.45,0,0,1-.2-.7V8H72V7.7l.6-.3.3-.8h.5v.8h1.1V8H73.4v2c0,.2,0,.3.1.4A.52.52,0,0,0,73.9,10.6Z" transform="translate(-0.7 -5.9)"/><path d="M76.7,7.3a2.92,2.92,0,0,1,.9.2c.3.1.4.3.6.6a2.92,2.92,0,0,1,.2.9v.4H75.9a1,1,0,0,0,.3.8,1.14,1.14,0,0,0,.8.3,1.7,1.7,0,0,0,.7-.1,1.42,1.42,0,0,0,.6-.2V11a1.42,1.42,0,0,1-.6.2c-.2,0-.4.1-.7.1a3,3,0,0,1-1-.2c-.3-.1-.5-.4-.7-.6A2.13,2.13,0,0,1,75,9.3a3.59,3.59,0,0,1,.2-1.1,1.34,1.34,0,0,1,.6-.7A1.49,1.49,0,0,1,76.7,7.3Zm0,.6a.85.85,0,0,0-.6.2c-.2.2-.2.4-.3.7h1.7a.75.75,0,0,0-.1-.5c-.1-.1-.2-.3-.3-.3A1,1,0,0,0,76.7,7.9Z" transform="translate(-0.7 -5.9)"/><path d="M83.5,7.3a1.69,1.69,0,0,1,1,.3,1.61,1.61,0,0,1,.3,1.1v2.5H84V8.9a1.45,1.45,0,0,0-.2-.7.59.59,0,0,0-.5-.2.91.91,0,0,0-.7.3,2,2,0,0,0-.2.9v2h-.8V8.9a.75.75,0,0,0-.1-.5c0-.1-.1-.2-.2-.3s-.2-.1-.4-.1a.75.75,0,0,0-.5.1,1.38,1.38,0,0,0-.3.4,1.48,1.48,0,0,0-.1.7v1.9h-.8V7.4h.6l.2.5h0l.3-.3c.1-.1.2-.1.4-.2s.3-.1.4-.1a1.48,1.48,0,0,1,.7.1,1,1,0,0,1,.4.5h.1a1.21,1.21,0,0,1,.5-.5A1.7,1.7,0,0,1,83.5,7.3Z" transform="translate(-0.7 -5.9)"/><path d="M14.6,19.6v-5h.6v4.5h2.2v.5Z" transform="translate(-0.7 -5.9)"/><path d="M19.6,15.8a1.88,1.88,0,0,1,.8.2,1,1,0,0,1,.5.6,2.92,2.92,0,0,1,.2.9v.4H18.5a1.49,1.49,0,0,0,.3,1,1.22,1.22,0,0,0,.9.3,1.27,1.27,0,0,0,.6-.1c.2-.1.4-.1.6-.2v.5c-.2.1-.4.1-.6.2s-.4.1-.7.1a2,2,0,0,1-.9-.2,1.17,1.17,0,0,1-.6-.6,2.6,2.6,0,0,1,0-2,1.34,1.34,0,0,1,.6-.7A.94.94,0,0,1,19.6,15.8Zm0,.4a.91.91,0,0,0-.7.3,1.14,1.14,0,0,0-.3.8h2a1.27,1.27,0,0,0-.1-.6,1.38,1.38,0,0,0-.3-.4C20,16.3,19.8,16.2,19.6,16.2Z" transform="translate(-0.7 -5.9)"/><path d="M23.8,16.3h-.9v3.3h-.6V16.3h-.7V16l.7-.2v-.2a2,2,0,0,1,.1-.8.78.78,0,0,1,.4-.4,1.27,1.27,0,0,1,.6-.1h.4c.1,0,.2.1.3.1l-.1.4a.37.37,0,0,1-.3-.1h-.3a.76.76,0,0,0-.5.2,1.17,1.17,0,0,0-.2.7v.3h.9v.4Z" transform="translate(-0.7 -5.9)"/><path d="M25.7,19.2H26c.1,0,.2,0,.2-.1v.4c-.1,0-.2.1-.3.1h-.3a.75.75,0,0,1-.5-.1.78.78,0,0,1-.4-.4,1.48,1.48,0,0,1-.1-.7V16.2H24V16l.5-.2.2-.8H25v.9h1.1v.4H25v2.2a.76.76,0,0,0,.2.5C25.4,19.1,25.5,19.2,25.7,19.2Z" transform="translate(-0.7 -5.9)"/><path d="M26.7,18v-.5h1.7V18Z" transform="translate(-0.7 -5.9)"/><path d="M29.8,14.3v2.2h0l.3-.3a.76.76,0,0,1,.4-.2c.2,0,.3-.1.5-.1a2,2,0,0,1,.8.1,1,1,0,0,1,.5.4,1.88,1.88,0,0,1,.2.8v2.4h-.6V17.2a1.45,1.45,0,0,0-.2-.7c-.1-.2-.4-.2-.7-.2a1.45,1.45,0,0,0-.7.2,1,1,0,0,0-.4.5,2,2,0,0,0-.1.8v2h-.6V14.5h.6Z" transform="translate(-0.7 -5.9)"/><path d="M34.9,15.8a1.49,1.49,0,0,1,1,.3,1.33,1.33,0,0,1,.3,1v2.5h-.4l-.1-.6h0c-.1.1-.2.3-.3.3a.52.52,0,0,1-.4.2,4.33,4.33,0,0,1-.5.1,1.27,1.27,0,0,1-.6-.1.78.78,0,0,1-.4-.4,1.42,1.42,0,0,1-.2-.6,1,1,0,0,1,.4-.9,2.42,2.42,0,0,1,1.4-.3h.6v-.2a1.17,1.17,0,0,0-.2-.7.85.85,0,0,0-.6-.2,1.27,1.27,0,0,0-.6.1c-.2.1-.3.1-.5.2l-.2-.4a1.42,1.42,0,0,1,.6-.2C34.4,15.9,34.7,15.8,34.9,15.8Zm.8,1.9h-.6a2.15,2.15,0,0,0-1,.2.6.6,0,0,0-.3.6.68.68,0,0,0,.7.7,1,1,0,0,0,1.1-1.1v-.4Z" transform="translate(-0.7 -5.9)"/><path d="M39.2,15.8a1.49,1.49,0,0,1,1,.3,1.49,1.49,0,0,1,.3,1v2.4H40V17.1a1.45,1.45,0,0,0-.2-.7c-.1-.2-.4-.2-.7-.2a1,1,0,0,0-.9.4,1.69,1.69,0,0,0-.3,1v2h-.6V15.9h.5l.1.5h0l.3-.3a.76.76,0,0,1,.4-.2A1.49,1.49,0,0,1,39.2,15.8Z" transform="translate(-0.7 -5.9)"/><path d="M43,19.6a1.43,1.43,0,0,1-1.1-.5,2,2,0,0,1-.4-1.4,2.41,2.41,0,0,1,.4-1.5,1.61,1.61,0,0,1,1.1-.5.75.75,0,0,1,.5.1c.1.1.3.1.4.2l.3.3h0V14.2h.6v5.3h-.5l-.1-.5h0l-.3.3a.52.52,0,0,1-.4.2A.75.75,0,0,1,43,19.6Zm.1-.4a1.22,1.22,0,0,0,.9-.3,1.5,1.5,0,0,0,.2-1v-.1a3.09,3.09,0,0,0-.2-1.1c-.2-.3-.4-.4-.9-.4a.91.91,0,0,0-.8.4,1.8,1.8,0,0,0-.3,1.1,1.8,1.8,0,0,0,.3,1.1A1.91,1.91,0,0,0,43.1,19.2Z" transform="translate(-0.7 -5.9)"/><path d="M47.4,15.8a1.88,1.88,0,0,1,.8.2,1,1,0,0,1,.5.6,2.92,2.92,0,0,1,.2.9v.4H46.3a1.49,1.49,0,0,0,.3,1,1.22,1.22,0,0,0,.9.3,1.27,1.27,0,0,0,.6-.1c.2-.1.4-.1.6-.2v.5c-.2.1-.4.1-.6.2s-.4.1-.7.1a2,2,0,0,1-.9-.2,1.17,1.17,0,0,1-.6-.6,2.6,2.6,0,0,1,0-2,1.34,1.34,0,0,1,.6-.7A.94.94,0,0,1,47.4,15.8Zm0,.4a.91.91,0,0,0-.7.3,1.14,1.14,0,0,0-.3.8h2a1.27,1.27,0,0,0-.1-.6,1.38,1.38,0,0,0-.3-.4C47.8,16.3,47.6,16.2,47.4,16.2Z" transform="translate(-0.7 -5.9)"/><path d="M51.2,19.6a1.43,1.43,0,0,1-1.1-.5,2,2,0,0,1-.4-1.4,2.41,2.41,0,0,1,.4-1.5,1.61,1.61,0,0,1,1.1-.5.75.75,0,0,1,.5.1c.1.1.3.1.4.2l.3.3h0V14.2H53v5.3h-.5V19h0l-.3.3a.52.52,0,0,1-.4.2A1.27,1.27,0,0,1,51.2,19.6Zm.1-.4a1.22,1.22,0,0,0,.9-.3,1.5,1.5,0,0,0,.2-1v-.1a3.09,3.09,0,0,0-.2-1.1c-.2-.3-.4-.4-.9-.4a.91.91,0,0,0-.8.4,1.8,1.8,0,0,0-.3,1.1,1.8,1.8,0,0,0,.3,1.1A1.91,1.91,0,0,0,51.3,19.2Z" transform="translate(-0.7 -5.9)"/><path d="M54.8,18.8h0a1.27,1.27,0,0,1-.1.6c-.1.2-.1.4-.2.6s-.1.4-.2.5h-.4c0-.2.1-.4.1-.6s.1-.4.1-.6a4.33,4.33,0,0,1,.1-.5Z" transform="translate(-0.7 -5.9)"/><path d="M61,19.6H57.5v-.4l2.7-4H57.6v-.5h3.3V15l-2.7,4H61Z" transform="translate(-0.7 -5.9)"/><path d="M61.5,18v-.5h1.7V18Z" transform="translate(-0.7 -5.9)"/><path d="M67.2,15.8v3.7h-.5l-.1-.5h0l-.3.3a.76.76,0,0,1-.4.2c-.2,0-.3.1-.5.1a1.48,1.48,0,0,1-.7-.1,1,1,0,0,1-.5-.4,1.88,1.88,0,0,1-.2-.8V15.8h.6v2.4a1.45,1.45,0,0,0,.2.7c.1.2.4.2.6.2a1.45,1.45,0,0,0,.7-.2,1,1,0,0,0,.4-.5,2,2,0,0,0,.1-.8v-2h.6Z" transform="translate(-0.7 -5.9)"/><path d="M70.1,15.8a1.43,1.43,0,0,1,1.1.5,2,2,0,0,1,.4,1.4,3.59,3.59,0,0,1-.2,1.1,1.79,1.79,0,0,1-.5.7,1.88,1.88,0,0,1-.8.2.75.75,0,0,1-.5-.1c-.1-.1-.3-.1-.4-.2l-.3-.3h0v2.1h-.6V15.8h.5l.1.6h0l.3-.3a.52.52,0,0,1,.4-.2A.9.9,0,0,1,70.1,15.8Zm-.1.4a.85.85,0,0,0-.6.2c-.2.1-.3.2-.3.4s-.1.5-.2.8v.1a2,2,0,0,0,.1.8,2.19,2.19,0,0,0,.3.5,1,1,0,0,0,1.2,0,.55.55,0,0,0,.3-.5,2,2,0,0,0,.1-.8,2,2,0,0,0-.3-1.1C70.7,16.4,70.4,16.2,70,16.2Z" transform="translate(-0.7 -5.9)"/><path d="M4.6,28H3.9L1.2,23.8h0V28H.7V23h.7l2.7,4.2h0V23h.5Z" transform="translate(-0.7 -5.9)"/><path d="M9.1,26.1a2,2,0,0,1-.1.8l-.3.6a1,1,0,0,1-.5.4,2.49,2.49,0,0,1-.8.1,1.48,1.48,0,0,1-.7-.1,1,1,0,0,1-.5-.4,2.09,2.09,0,0,1-.4-.6,2,2,0,0,1-.1-.8,2.51,2.51,0,0,1,.2-1,1.34,1.34,0,0,1,.6-.7,1.49,1.49,0,0,1,.9-.2,2.92,2.92,0,0,1,.9.2,1.34,1.34,0,0,1,.6.7A2.51,2.51,0,0,1,9.1,26.1Zm-2.9,0a2,2,0,0,0,.1.8,1,1,0,0,0,.4.5,1.42,1.42,0,0,0,.6.2.85.85,0,0,0,.6-.2,1,1,0,0,0,.4-.5,2,2,0,0,0,.1-.8,2,2,0,0,0-.1-.8,1,1,0,0,0-.4-.5,1.42,1.42,0,0,0-.6-.2,1,1,0,0,0-.9.4A3.09,3.09,0,0,0,6.2,26.1Z" transform="translate(-0.7 -5.9)"/><path d="M11.3,27.6h.3c.1,0,.2,0,.2-.1v.4c-.1,0-.2.1-.3.1h-.3a.75.75,0,0,1-.5-.1.78.78,0,0,1-.4-.4,1.48,1.48,0,0,1-.1-.7V24.6H9.6v-.3l.5-.2.2-.8h.3v.9h1.1v.4H10.6v2.2a.76.76,0,0,0,.2.5C11,27.5,11.1,27.6,11.3,27.6Z" transform="translate(-0.7 -5.9)"/><path d="M14,24.2a1.88,1.88,0,0,1,.8.2,1,1,0,0,1,.5.6,2.92,2.92,0,0,1,.2.9v.4H13a1.49,1.49,0,0,0,.3,1,1.22,1.22,0,0,0,.9.3,1.27,1.27,0,0,0,.6-.1c.2-.1.4-.1.6-.2v.5a1.42,1.42,0,0,1-.6.2c-.2,0-.4.1-.7.1a2,2,0,0,1-.9-.2,1.17,1.17,0,0,1-.6-.6,2.6,2.6,0,0,1,0-2,1.34,1.34,0,0,1,.6-.7A.74.74,0,0,1,14,24.2Zm0,.4a.91.91,0,0,0-.7.3,1.22,1.22,0,0,0-.3.9h2a1.27,1.27,0,0,0-.1-.6,1.38,1.38,0,0,0-.3-.4A1.42,1.42,0,0,0,14,24.6Z" transform="translate(-0.7 -5.9)"/><path d="M19.5,27.6h.3c.1,0,.2,0,.2-.1v.4c0,.1-.1.1-.2.1h-.3a.75.75,0,0,1-.5-.1.78.78,0,0,1-.4-.4,1.48,1.48,0,0,1-.1-.7V24.6H18v-.3l.5-.2.2-.8H19v.9h1v.4H18.9v2.2a.76.76,0,0,0,.2.5A.54.54,0,0,0,19.5,27.6Z" transform="translate(-0.7 -5.9)"/><path d="M21.4,22.7v2.2h0l.3-.3a.76.76,0,0,1,.4-.2c.2,0,.3-.1.5-.1a2,2,0,0,1,.8.1,1,1,0,0,1,.5.4,1.88,1.88,0,0,1,.2.8V28h-.6V25.6a1.45,1.45,0,0,0-.2-.7c-.1-.2-.4-.2-.7-.2a1.45,1.45,0,0,0-.7.2,1,1,0,0,0-.4.5,2,2,0,0,0-.1.8v2h-.6V22.9h.6Z" transform="translate(-0.7 -5.9)"/><path d="M26.6,24.2a1.88,1.88,0,0,1,.8.2,1,1,0,0,1,.5.6,2.92,2.92,0,0,1,.2.9v.4H25.5a1.49,1.49,0,0,0,.3,1,1.22,1.22,0,0,0,.9.3,1.27,1.27,0,0,0,.6-.1c.2-.1.4-.1.6-.2v.5c-.2.1-.4.1-.6.2s-.4.1-.7.1a2,2,0,0,1-.9-.2,1.17,1.17,0,0,1-.6-.6,2.6,2.6,0,0,1,0-2,1.34,1.34,0,0,1,.6-.7C25.9,24.2,26.2,24.2,26.6,24.2Zm-.1.4a.91.91,0,0,0-.7.3,1.14,1.14,0,0,0-.3.8h2a1.27,1.27,0,0,0-.1-.6,1.38,1.38,0,0,0-.3-.4C26.9,24.7,26.8,24.6,26.5,24.6Z" transform="translate(-0.7 -5.9)"/><path d="M32.5,24.7h-.9V28H31V24.7h-.7v-.3l.7-.2V24a2,2,0,0,1,.1-.8.78.78,0,0,1,.4-.4,1.27,1.27,0,0,1,.6-.1h.4c.1,0,.2.1.3.1l-.1.4a.37.37,0,0,1-.3-.1h-.3a.76.76,0,0,0-.5.2,1.17,1.17,0,0,0-.2.7v.3h.9v.4Z" transform="translate(-0.7 -5.9)"/><path d="M36.4,26.1a2,2,0,0,1-.1.8l-.3.6a1,1,0,0,1-.5.4,2.2,2.2,0,0,1-.8.1,1.48,1.48,0,0,1-.7-.1,1,1,0,0,1-.5-.4,2.09,2.09,0,0,1-.4-.6,2,2,0,0,1-.1-.8,2.51,2.51,0,0,1,.2-1,1.34,1.34,0,0,1,.6-.7,1.49,1.49,0,0,1,.9-.2,2.92,2.92,0,0,1,.9.2,1.34,1.34,0,0,1,.6.7A1.5,1.5,0,0,1,36.4,26.1Zm-2.8,0a2,2,0,0,0,.1.8,1,1,0,0,0,.4.5,1.42,1.42,0,0,0,.6.2.85.85,0,0,0,.6-.2,1,1,0,0,0,.4-.5,2,2,0,0,0,.1-.8,2,2,0,0,0-.1-.8,1,1,0,0,0-.4-.5,1.42,1.42,0,0,0-.6-.2,1,1,0,0,0-.9.4A3.09,3.09,0,0,0,33.6,26.1Z" transform="translate(-0.7 -5.9)"/><path d="M39.1,24.2h.4l-.1.5H39c-.2,0-.3,0-.4.1s-.3.1-.4.3a.52.52,0,0,0-.2.4V28h-.6V24.3h.5l.1.7h0c.1-.1.2-.3.3-.4a1.38,1.38,0,0,1,.4-.3A.6.6,0,0,1,39.1,24.2Z" transform="translate(-0.7 -5.9)"/><path d="M43.3,28l-.7-2.2c0-.1-.1-.2-.1-.3a.37.37,0,0,0-.1-.3c0-.1,0-.2-.1-.2v-.2h0V25c0,.1,0,.1-.1.2a.37.37,0,0,1-.1.3c0,.1-.1.2-.1.3L41.4,28h-.6l-1-3.7h.6l.5,2.1c0,.1.1.3.1.4s.1.3.1.4a.37.37,0,0,0,.1.3h0v-.2a.37.37,0,0,1,.1-.3.37.37,0,0,1,.1-.3c0-.1.1-.2.1-.3l.7-2.2h.6l.7,2.2c0,.1.1.2.1.3s.1.2.1.3a.37.37,0,0,0,.1.3h0a.37.37,0,0,1,.1-.3c.1-.1.1-.2.1-.4s.1-.3.1-.4l.5-2.1H45L44,28Z" transform="translate(-0.7 -5.9)"/><path d="M47.1,24.2a1.49,1.49,0,0,1,1,.3,1.33,1.33,0,0,1,.3,1V28H48l-.1-.6h0c-.1.1-.2.3-.3.3a.52.52,0,0,1-.4.2,1.85,1.85,0,0,1-1.2,0,.78.78,0,0,1-.4-.4,1.42,1.42,0,0,1-.2-.6,1,1,0,0,1,.4-.9,2.42,2.42,0,0,1,1.4-.3h.6v-.2a1.17,1.17,0,0,0-.2-.7.85.85,0,0,0-.6-.2,1.27,1.27,0,0,0-.6.1c-.2.1-.3.1-.5.2l-.2-.4a1.42,1.42,0,0,1,.6-.2C46.5,24.3,46.9,24.2,47.1,24.2Zm.8,1.9h-.6a2.15,2.15,0,0,0-1,.2.78.78,0,0,0-.3.7.68.68,0,0,0,.7.7,1,1,0,0,0,1.1-1.1v-.5Z" transform="translate(-0.7 -5.9)"/><path d="M51.3,24.2h.4l-.1.5h-.4c-.2,0-.3,0-.4.1s-.3.1-.4.3a.52.52,0,0,0-.2.4.9.9,0,0,0-.1.5v2h-.6V24.3H50l.1.7h0c.1-.1.2-.3.3-.4a1.38,1.38,0,0,1,.4-.3A.9.9,0,0,1,51.3,24.2Z" transform="translate(-0.7 -5.9)"/><path d="M53.8,28a1.43,1.43,0,0,1-1.1-.5,2,2,0,0,1-.4-1.4,2.41,2.41,0,0,1,.4-1.5,1.61,1.61,0,0,1,1.1-.5.75.75,0,0,1,.5.1c.1.1.3.1.4.2l.3.3h0V22.6h.6V28h-.5l-.1-.6h0l-.3.3a.52.52,0,0,1-.4.2A.75.75,0,0,1,53.8,28Zm.1-.4a1.22,1.22,0,0,0,.9-.3,1.5,1.5,0,0,0,.2-1v-.1a3.09,3.09,0,0,0-.2-1.1c-.2-.3-.4-.4-.9-.4a.91.91,0,0,0-.8.4,2.17,2.17,0,0,0,0,2.2A1.49,1.49,0,0,0,53.9,27.6Z" transform="translate(-0.7 -5.9)"/><path d="M60,24.2a1.49,1.49,0,0,1,1,.3,1.33,1.33,0,0,1,.3,1V28h-.4l-.1-.6h0c-.1.1-.2.3-.3.3a.52.52,0,0,1-.4.2,4.33,4.33,0,0,1-.5.1,1.27,1.27,0,0,1-.6-.1.78.78,0,0,1-.4-.4,1.42,1.42,0,0,1-.2-.6,1,1,0,0,1,.4-.9,2.42,2.42,0,0,1,1.4-.3h.6v-.2a1.17,1.17,0,0,0-.2-.7.85.85,0,0,0-.6-.2,1.27,1.27,0,0,0-.6.1c-.2.1-.3.1-.5.2l-.2-.4a1.42,1.42,0,0,1,.6-.2C59.5,24.3,59.7,24.2,60,24.2Zm.7,1.9h-.6a2.15,2.15,0,0,0-1,.2.6.6,0,0,0-.3.6.68.68,0,0,0,.7.7,1,1,0,0,0,1.1-1.1v-.4Z" transform="translate(-0.7 -5.9)"/><path d="M63.3,26.1,62,24.2h.6l1,1.4,1-1.4h.6L64,26.1,65.4,28h-.6l-1-1.5L62.6,28H62Z" transform="translate(-0.7 -5.9)"/><path d="M66.4,22.8c.1,0,.2,0,.2.1a.5.5,0,0,1,0,.6c-.1.1-.1.1-.2.1s-.2,0-.2-.1a.5.5,0,0,1,0-.6A.35.35,0,0,1,66.4,22.8Zm.3,1.4V28h-.6V24.3h.6Z" transform="translate(-0.7 -5.9)"/><path d="M70.3,27a1.42,1.42,0,0,1-.2.6,1,1,0,0,1-.5.4h-.8a1.48,1.48,0,0,1-.7-.1c-.2-.1-.4-.1-.5-.2v-.5c.2.1.3.1.5.2a1.27,1.27,0,0,0,.6.1,1.17,1.17,0,0,0,.7-.2.52.52,0,0,0,.2-.4.37.37,0,0,0-.1-.3c-.1-.1-.2-.2-.3-.2a.85.85,0,0,0-.6-.2l-.6-.3a1.38,1.38,0,0,1-.4-.3.75.75,0,0,1-.1-.5.67.67,0,0,1,.4-.7,1.69,1.69,0,0,1,1-.3,1.27,1.27,0,0,1,.6.1,1.42,1.42,0,0,1,.6.2l-.1.5c-.2-.1-.3-.1-.5-.2a1.09,1.09,0,0,0-.5-.1c-.3,0-.5,0-.6.1a.52.52,0,0,0-.2.4.37.37,0,0,0,.1.3c.1.1.2.1.3.2s.3.1.6.2l.6.3a1.38,1.38,0,0,1,.4.3A1.08,1.08,0,0,1,70.3,27Z" transform="translate(-0.7 -5.9)"/><path d="M73.3,22.8c.1,0,.2,0,.2.1a.5.5,0,0,1,0,.6c-.1.1-.1.1-.2.1s-.2,0-.2-.1a.5.5,0,0,1,0-.6A.35.35,0,0,1,73.3,22.8Zm.3,1.4V28H73V24.3h.6Z" transform="translate(-0.7 -5.9)"/><path d="M77.2,27a1.42,1.42,0,0,1-.2.6,1,1,0,0,1-.5.4h-.8a1.48,1.48,0,0,1-.7-.1c-.2-.1-.4-.1-.5-.2v-.5c.2.1.3.1.5.2a1.27,1.27,0,0,0,.6.1,1.17,1.17,0,0,0,.7-.2.52.52,0,0,0,.2-.4.37.37,0,0,0-.1-.3c-.1-.1-.2-.2-.3-.2a.85.85,0,0,0-.6-.2l-.6-.3a1.38,1.38,0,0,1-.4-.3.75.75,0,0,1-.1-.5.67.67,0,0,1,.4-.7,1.69,1.69,0,0,1,1-.3,1.27,1.27,0,0,1,.6.1,1.42,1.42,0,0,1,.6.2v.5c-.2-.1-.3-.1-.5-.2a1.09,1.09,0,0,0-.5-.1c-.3,0-.5,0-.6.1a.52.52,0,0,0-.2.4.37.37,0,0,0,.1.3c.1.1.2.1.3.2s.3.1.6.2l.6.3a1.38,1.38,0,0,1,.4.3Z" transform="translate(-0.7 -5.9)"/><path class="cls-1" d="M79.6,26.5v-.9h1.8v.9Z" transform="translate(-0.7 -5.9)"/><path class="cls-1" d="M83.8,25l1-2.1H86L84.3,26v2H83.2V26.1L81.6,23h1.1Z" transform="translate(-0.7 -5.9)"/><path d="M86.5,27.6c0-.2,0-.3.1-.3a.4.4,0,0,1,.7.3c0,.2,0,.3-.1.3a.5.5,0,0,1-.6,0C86.5,27.9,86.5,27.8,86.5,27.6Z" transform="translate(-0.7 -5.9)"/><path d="M142.7,8.6a2.9,2.9,0,0,1-.3,1.4,2,2,0,0,1-.9.9,3.19,3.19,0,0,1-1.4.3h-1.4v-5h1.5a2.5,2.5,0,0,1,1.3.3,2.36,2.36,0,0,1,.9.8A2.5,2.5,0,0,1,142.7,8.6Zm-.9.1a3,3,0,0,0-.2-1,.9.9,0,0,0-.6-.6,2.39,2.39,0,0,0-.9-.2h-.7v3.6h.6a2,2,0,0,0,1.4-.5A2.23,2.23,0,0,0,141.8,8.7Z" transform="translate(-0.7 -5.9)"/><path d="M145.9,6.8c-.2,0-.5,0-.6.1a1.76,1.76,0,0,0-.5.4c-.2.2-.2.4-.3.6a2,2,0,0,0-.1.8,3,3,0,0,0,.2,1,1,1,0,0,0,.5.6,1.88,1.88,0,0,0,.8.2,1.27,1.27,0,0,0,.6-.1c.2-.1.4-.1.6-.2V11c-.2.1-.4.1-.6.2a1.48,1.48,0,0,1-.7.1,2.77,2.77,0,0,1-1.3-.3,1.76,1.76,0,0,1-.8-.9,3,3,0,0,1-.2-1.4,3,3,0,0,1,.2-1,2.18,2.18,0,0,1,.5-.8,3,3,0,0,1,.7-.5,3,3,0,0,1,1-.2,1.48,1.48,0,0,1,.7.1c.2.1.5.1.7.2l-.3.6c-.2-.1-.4-.1-.5-.2A1.27,1.27,0,0,0,145.9,6.8Z" transform="translate(-0.7 -5.9)"/><path d="M150.3,6.8c-.2,0-.5,0-.6.1a1.76,1.76,0,0,0-.5.4c-.2.2-.2.4-.3.6a2,2,0,0,0-.1.8,3,3,0,0,0,.2,1,1,1,0,0,0,.5.6,1.88,1.88,0,0,0,.8.2,1.27,1.27,0,0,0,.6-.1c.2-.1.4-.1.6-.2V11c-.2.1-.4.1-.6.2a1.48,1.48,0,0,1-.7.1,2.77,2.77,0,0,1-1.3-.3,1.76,1.76,0,0,1-.8-.9,3,3,0,0,1-.2-1.4,3,3,0,0,1,.2-1,2.18,2.18,0,0,1,.5-.8,3,3,0,0,1,.7-.5,3,3,0,0,1,1-.2,1.48,1.48,0,0,1,.7.1c.2.1.5.1.7.2l-.3.7c-.2-.1-.4-.1-.5-.2A.73.73,0,0,0,150.3,6.8Z" transform="translate(-0.7 -5.9)"/><path d="M155.9,11.2a2,2,0,0,1-.9-.2,1.17,1.17,0,0,1-.6-.6,3.59,3.59,0,0,1-.2-1.1,3.09,3.09,0,0,1,.2-1.1,1.7,1.7,0,0,1,.6-.6,2.39,2.39,0,0,1,.9-.2,1.27,1.27,0,0,1,.6.1c.2,0,.3.1.5.2l-.2.6a.6.6,0,0,0-.4-.1c-.1,0-.3-.1-.4-.1a1.27,1.27,0,0,0-.6.1c-.1.1-.3.2-.3.4a1.48,1.48,0,0,0-.1.7,1.48,1.48,0,0,0,.1.7,1.38,1.38,0,0,0,.3.4.75.75,0,0,0,.5.1,1.27,1.27,0,0,0,.6-.1c.2-.1.3-.1.5-.2V11c-.1.1-.3.1-.5.2Z" transform="translate(-0.7 -5.9)"/><path d="M161.2,9.3a2,2,0,0,1-.1.8c-.1.2-.2.5-.4.6a1.27,1.27,0,0,1-.6.4,1.7,1.7,0,0,1-.7.1,1.48,1.48,0,0,1-.7-.1,1.84,1.84,0,0,1-1-1,2,2,0,0,1-.1-.8,3.59,3.59,0,0,1,.2-1.1c.1-.3.4-.5.6-.7a1.5,1.5,0,0,1,1-.2,2.39,2.39,0,0,1,.9.2,1.34,1.34,0,0,1,.6.7A2,2,0,0,1,161.2,9.3Zm-2.8,0a1.48,1.48,0,0,0,.1.7,1.38,1.38,0,0,0,.3.4.73.73,0,0,0,1,0c.1-.1.2-.3.3-.4s.1-.4.1-.7a1.48,1.48,0,0,0-.1-.7,1.38,1.38,0,0,0-.3-.4c0-.2-.2-.2-.4-.2a.78.78,0,0,0-.7.3A2.37,2.37,0,0,0,158.4,9.3Z" transform="translate(-0.7 -5.9)"/><path d="M165.4,9.3a2,2,0,0,1-.1.8c-.1.2-.2.5-.4.6a1.27,1.27,0,0,1-.6.4,1.7,1.7,0,0,1-.7.1,1.48,1.48,0,0,1-.7-.1,1.84,1.84,0,0,1-1-1,2,2,0,0,1-.1-.8,3.59,3.59,0,0,1,.2-1.1c.1-.3.4-.5.6-.7a1.5,1.5,0,0,1,1-.2,2.39,2.39,0,0,1,.9.2,1.34,1.34,0,0,1,.6.7A1.43,1.43,0,0,1,165.4,9.3Zm-2.7,0a1.48,1.48,0,0,0,.1.7,1.38,1.38,0,0,0,.3.4.73.73,0,0,0,1,0c.1-.1.2-.3.3-.4s.1-.4.1-.7a1.48,1.48,0,0,0-.1-.7,1.38,1.38,0,0,0-.3-.4c0-.2-.2-.2-.5-.2a.78.78,0,0,0-.7.3A2.51,2.51,0,0,0,162.7,9.3Z" transform="translate(-0.7 -5.9)"/><path d="M168.3,7.3h.4l-.1.8h-.4a.6.6,0,0,0-.4.1c-.1,0-.2.1-.3.2a.52.52,0,0,0-.2.4.75.75,0,0,0-.1.5v2h-.8V7.4h.6l.1.7h0c.1-.1.2-.3.3-.4a1.38,1.38,0,0,1,.4-.3A4.33,4.33,0,0,1,168.3,7.3Z" transform="translate(-0.7 -5.9)"/><path d="M170.6,11.2a1.61,1.61,0,0,1-1.1-.5,2.08,2.08,0,0,1-.4-1.5,2.41,2.41,0,0,1,.4-1.5,1.43,1.43,0,0,1,1.1-.5.75.75,0,0,1,.5.1c.1.1.3.1.4.2l.3.3h0V5.9h.8v5.3H172l-.1-.5h0l-.3.3a.52.52,0,0,1-.4.2Zm.3-.6a.78.78,0,0,0,.7-.3,2,2,0,0,0,.2-.9V9.3a3,3,0,0,0-.2-1c-.1-.3-.4-.3-.7-.3a.91.91,0,0,0-.7.3,1.5,1.5,0,0,0-.2,1,3,3,0,0,0,.2,1A.91.91,0,0,0,170.9,10.6Z" transform="translate(-0.7 -5.9)"/><path d="M174.1,5.9a.35.35,0,0,1,.4.4c0,.2,0,.3-.1.3s-.2.1-.3.1a.35.35,0,0,1-.4-.4c0-.2,0-.3.1-.3S174,5.9,174.1,5.9Zm.4,1.5v3.8h-.8V7.4Z" transform="translate(-0.7 -5.9)"/><path d="M177.7,7.3a1.49,1.49,0,0,1,1,.3,1.6,1.6,0,0,1,.4,1.1v2.5h-.8V8.9a1.45,1.45,0,0,0-.2-.7.85.85,0,0,0-.6-.2,1,1,0,0,0-.8.3,1.5,1.5,0,0,0-.2,1v1.9h-.8V7.4h.6l.1.5h0l.3-.3c.1-.1.3-.1.4-.2S177.5,7.3,177.7,7.3Z" transform="translate(-0.7 -5.9)"/><path d="M181.6,7.3a1.8,1.8,0,0,1,1.1.3,1.05,1.05,0,0,1,.4,1v2.5h-.6l-.2-.5h0l-.3.3a.52.52,0,0,1-.4.2c-.2,0-.3.1-.5.1a1.27,1.27,0,0,1-.6-.1.78.78,0,0,1-.4-.4,1.42,1.42,0,0,1-.2-.6,1,1,0,0,1,.4-.9,2.27,2.27,0,0,1,1.3-.3h.7V8.7a1.07,1.07,0,0,0-.2-.6.76.76,0,0,0-.5-.2.75.75,0,0,0-.5.1c-.2.1-.4.1-.5.2l-.3-.6a1.42,1.42,0,0,1,.6-.2C181.1,7.4,181.4,7.3,181.6,7.3Zm.7,2.1h-.5a1.29,1.29,0,0,0-.8.2c-.2.1-.2.3-.2.5a.52.52,0,0,0,.2.4.6.6,0,0,0,.4.1,1.45,1.45,0,0,0,.7-.2.91.91,0,0,0,.3-.7V9.4Z" transform="translate(-0.7 -5.9)"/><path d="M185.6,10.6h.3a.37.37,0,0,0,.3-.1v.6c-.1,0-.2.1-.3.1h-.4a1.27,1.27,0,0,1-.6-.1.78.78,0,0,1-.4-.4,1.45,1.45,0,0,1-.2-.7V8h-.5V7.7l.6-.3.3-.8h.5v.8h1.1V8h-1.1v2c0,.2,0,.3.1.4S185.4,10.6,185.6,10.6Z" transform="translate(-0.7 -5.9)"/><path d="M188.5,7.3a2.92,2.92,0,0,1,.9.2,1.7,1.7,0,0,1,.6.6,2.92,2.92,0,0,1,.2.9v.4h-2.5a1,1,0,0,0,.3.8,1.14,1.14,0,0,0,.8.3,1.7,1.7,0,0,0,.7-.1,1.42,1.42,0,0,0,.6-.2V11a1.42,1.42,0,0,1-.6.2c-.2,0-.4.1-.7.1a3,3,0,0,1-1-.2c-.3-.1-.5-.4-.7-.6s-.2-.6-.2-1.1a3.59,3.59,0,0,1,.2-1.1,1.34,1.34,0,0,1,.6-.7A1.14,1.14,0,0,1,188.5,7.3Zm0,.6a.85.85,0,0,0-.6.2,2.39,2.39,0,0,0-.3.7h1.7a.75.75,0,0,0-.1-.5c-.1-.1-.2-.3-.3-.3S188.7,7.9,188.5,7.9Z" transform="translate(-0.7 -5.9)"/><path d="M195.4,10.1a1.07,1.07,0,0,1-.2.6,1,1,0,0,1-.5.4,2,2,0,0,1-.8.1,1.48,1.48,0,0,1-.7-.1.76.76,0,0,1-.5-.2v-.7a1.42,1.42,0,0,0,.6.2c.2,0,.4.1.6.1s.5,0,.6-.1.2-.2.2-.3,0-.2-.1-.2-.1-.1-.3-.2a.85.85,0,0,0-.6-.2l-.6-.3a1.38,1.38,0,0,1-.4-.3.75.75,0,0,1-.1-.5.91.91,0,0,1,.4-.8,1.8,1.8,0,0,1,1.1-.3,1.7,1.7,0,0,1,.7.1,1.42,1.42,0,0,1,.6.2l-.4.6c-.2-.1-.3-.1-.5-.2s-.3-.1-.5-.1a.75.75,0,0,0-.5.1c-.1.1-.2.2-.2.3s0,.2.1.2a.77.77,0,0,0,.3.2c.2.1.3.1.5.2l.6.3a1.38,1.38,0,0,1,.4.3A1.42,1.42,0,0,1,195.4,10.1Z" transform="translate(-0.7 -5.9)"/><path d="M195.7,7.4h.9l.8,2.2c0,.1.1.2.1.3s.1.2.1.3a.37.37,0,0,0,.1.3h0c0-.1.1-.3.1-.4s.1-.3.1-.4l.7-2.2h.9l-1.6,4.3a3.33,3.33,0,0,1-.3.6,1,1,0,0,1-.5.4,1.27,1.27,0,0,1-.6.1H196v-.6h.4a.6.6,0,0,0,.4-.1c.1-.1.2-.1.3-.2s.1-.2.2-.4l.1-.4Z" transform="translate(-0.7 -5.9)"/><path d="M202.5,10.1a1.07,1.07,0,0,1-.2.6,1,1,0,0,1-.5.4,2,2,0,0,1-.8.1,1.48,1.48,0,0,1-.7-.1.76.76,0,0,1-.5-.2v-.7a1.42,1.42,0,0,0,.6.2c.2,0,.4.1.6.1s.5,0,.6-.1.2-.2.2-.3,0-.2-.1-.2-.1-.1-.3-.2a.85.85,0,0,0-.6-.2l-.6-.3a1.38,1.38,0,0,1-.4-.3.75.75,0,0,1-.1-.5.91.91,0,0,1,.4-.8,1.8,1.8,0,0,1,1.1-.3,1.7,1.7,0,0,1,.7.1,1.42,1.42,0,0,1,.6.2l-.3.6c-.2-.1-.3-.1-.5-.2s-.3-.1-.5-.1a.75.75,0,0,0-.5.1c-.1.1-.2.2-.2.3s0,.2.1.2a.77.77,0,0,0,.3.2c.2.1.3.1.5.2l.6.3a1.38,1.38,0,0,1,.4.3A1.27,1.27,0,0,1,202.5,10.1Z" transform="translate(-0.7 -5.9)"/><path d="M204.8,10.6h.3a.37.37,0,0,0,.3-.1v.6c-.1,0-.2.1-.3.1h-.4a1.27,1.27,0,0,1-.6-.1.78.78,0,0,1-.4-.4,1.45,1.45,0,0,1-.2-.7V8H203V7.7l.6-.3.3-.8h.5v.8h1.1V8h-1.1v2c0,.2,0,.3.1.4S204.6,10.6,204.8,10.6Z" transform="translate(-0.7 -5.9)"/><path d="M207.7,7.3a2.92,2.92,0,0,1,.9.2,1.7,1.7,0,0,1,.6.6,2.92,2.92,0,0,1,.2.9v.4h-2.5a1,1,0,0,0,.3.8,1.14,1.14,0,0,0,.8.3,1.7,1.7,0,0,0,.7-.1,1.42,1.42,0,0,0,.6-.2V11a1.42,1.42,0,0,1-.6.2c-.2,0-.4.1-.7.1a3,3,0,0,1-1-.2c-.3-.1-.5-.4-.7-.6s-.2-.6-.2-1.1a3.59,3.59,0,0,1,.2-1.1,1.34,1.34,0,0,1,.6-.7A1.14,1.14,0,0,1,207.7,7.3Zm0,.6a.85.85,0,0,0-.6.2,2.39,2.39,0,0,0-.3.7h1.7a.75.75,0,0,0-.1-.5c-.1-.1-.2-.3-.3-.3S207.8,7.9,207.7,7.9Z" transform="translate(-0.7 -5.9)"/><path d="M214.5,7.3a1.69,1.69,0,0,1,1,.3,1.61,1.61,0,0,1,.3,1.1v2.5H215V8.9a1.45,1.45,0,0,0-.2-.7.76.76,0,0,0-.5-.2.91.91,0,0,0-.7.3,2,2,0,0,0-.2.9v2h-.8V8.9a.75.75,0,0,0-.1-.5c0-.1-.1-.2-.2-.3a.6.6,0,0,0-.4-.1.75.75,0,0,0-.5.1,1.38,1.38,0,0,0-.3.4,2.2,2.2,0,0,0-.1.8v1.9h-.8V7.4h.6l.1.5h0l.3-.3c.1-.1.2-.1.4-.2s.3-.1.4-.1a1.48,1.48,0,0,1,.7.1,1,1,0,0,1,.4.5h.1a1.21,1.21,0,0,1,.5-.5A2,2,0,0,1,214.5,7.3Z" transform="translate(-0.7 -5.9)"/><path d="M148,14.6a2.51,2.51,0,0,1,1,.2,1,1,0,0,1,.6.5,1.88,1.88,0,0,1,.2.8,1.48,1.48,0,0,1-.1.7.78.78,0,0,1-.4.4c-.2.1-.3.2-.5.3l1.4,2.2h-.7l-1.2-2.1h-1v2.1h-.6v-5H148Zm0,.5h-.7V17h.8a2,2,0,0,0,.9-.2.78.78,0,0,0,.3-.7.78.78,0,0,0-.3-.7A2.37,2.37,0,0,0,148,15.1Z" transform="translate(-0.7 -5.9)"/><path d="M151.2,14.4c.1,0,.2,0,.2.1a.5.5,0,0,1,0,.6c-.1.1-.1.1-.2.1s-.2,0-.2-.1a.5.5,0,0,1,0-.6A.35.35,0,0,1,151.2,14.4Zm.3,1.4v3.7h-.6V15.8Z" transform="translate(-0.7 -5.9)"/><path d="M153.7,21.3a1.61,1.61,0,0,1-1.1-.3.81.81,0,0,1-.4-.8,1.42,1.42,0,0,1,.2-.6.71.71,0,0,1,.6-.3c-.1,0-.2-.1-.3-.2a.37.37,0,0,1-.1-.3.6.6,0,0,1,.1-.4,1.38,1.38,0,0,1,.4-.3,1,1,0,0,1-.5-.4,1.32,1.32,0,0,1,0-1.4,1,1,0,0,1,.5-.4,1.88,1.88,0,0,1,.8-.2h1.9v.4l-.7.1c.1.1.1.2.2.3s.1.3.1.4a1,1,0,0,1-.4.9,1.69,1.69,0,0,1-1,.3h-.3c-.1.1-.2.1-.3.2a.37.37,0,0,0-.1.3c0,.1,0,.1.1.2a.35.35,0,0,0,.2.1h1a1.22,1.22,0,0,1,.9.3.91.91,0,0,1,.3.7,1.39,1.39,0,0,1-.5,1A2.93,2.93,0,0,1,153.7,21.3Zm0-.5a2,2,0,0,0,.8-.1,2.19,2.19,0,0,0,.5-.3.76.76,0,0,0,.2-.4c0-.2,0-.3-.1-.3s-.2-.1-.3-.2h-1.1c-.2,0-.3,0-.4.1s-.2.1-.3.2-.1.2-.1.4a.55.55,0,0,0,.3.5C153.2,20.8,153.4,20.8,153.7,20.8Zm.2-3a.8.8,0,1,0-.6-1.4,1.07,1.07,0,0,0-.2.6.71.71,0,0,0,.8.8Z" transform="translate(-0.7 -5.9)"/><path d="M157,14.3v2.2h0l.3-.3a.76.76,0,0,1,.4-.2c.2,0,.3-.1.5-.1a2,2,0,0,1,.8.1,1,1,0,0,1,.5.4,1.88,1.88,0,0,1,.2.8v2.4H159V17.2a1.45,1.45,0,0,0-.2-.7c-.1-.2-.4-.2-.7-.2a1.45,1.45,0,0,0-.7.2,1,1,0,0,0-.4.5,2,2,0,0,0-.1.8v2h-.6V14.5h.7Z" transform="translate(-0.7 -5.9)"/><path d="M162,19.2h.3c.1,0,.2,0,.2-.1v.4c-.1,0-.2.1-.3.1h-.3a.75.75,0,0,1-.5-.1.78.78,0,0,1-.4-.4,1.48,1.48,0,0,1-.1-.7V16.2h-.5V16l.5-.2.1-.8h.3v.9h1.1v.4h-1.1v2.2a.68.68,0,0,0,.7.7Z" transform="translate(-0.7 -5.9)"/><path d="M162.9,18v-.5h1.7V18Z" transform="translate(-0.7 -5.9)"/><path d="M166.1,14.3v2.2h0l.3-.3a.76.76,0,0,1,.4-.2c.2,0,.3-.1.5-.1a2,2,0,0,1,.8.1,1,1,0,0,1,.5.4,1.88,1.88,0,0,1,.2.8v2.4h-.6V17.2a1.45,1.45,0,0,0-.2-.7c-.1-.2-.4-.2-.7-.2a1.45,1.45,0,0,0-.7.2,1,1,0,0,0-.4.5,2,2,0,0,0-.1.8v2h-.6V14.5h.6Z" transform="translate(-0.7 -5.9)"/><path d="M171.2,15.8a1.49,1.49,0,0,1,1,.3,1.33,1.33,0,0,1,.3,1v2.5h-.4L172,19h0c-.1.1-.2.3-.3.3a.52.52,0,0,1-.4.2,4.33,4.33,0,0,1-.5.1,1.27,1.27,0,0,1-.6-.1.78.78,0,0,1-.4-.4,1.42,1.42,0,0,1-.2-.6,1,1,0,0,1,.4-.9,2.42,2.42,0,0,1,1.4-.3h.6v-.2a1.17,1.17,0,0,0-.2-.7.85.85,0,0,0-.6-.2,1.27,1.27,0,0,0-.6.1c-.2.1-.3.1-.5.2l-.2-.4a1.42,1.42,0,0,1,.6-.2C170.7,15.9,171,15.8,171.2,15.8Zm.8,1.9h-.6a2.15,2.15,0,0,0-1,.2.6.6,0,0,0-.3.6.68.68,0,0,0,.7.7,1,1,0,0,0,1.1-1.1v-.4Z" transform="translate(-0.7 -5.9)"/><path d="M175.5,15.8a1.49,1.49,0,0,1,1,.3,1.49,1.49,0,0,1,.3,1v2.4h-.6V17.1a1.45,1.45,0,0,0-.2-.7c-.1-.2-.4-.2-.7-.2a1,1,0,0,0-.9.4,1.49,1.49,0,0,0-.3,1v2h-.6V15.9h.5l.1.5h0l.3-.3a.76.76,0,0,1,.4-.2A2,2,0,0,1,175.5,15.8Z" transform="translate(-0.7 -5.9)"/><path d="M179.3,19.6a1.43,1.43,0,0,1-1.1-.5,2,2,0,0,1-.4-1.4,2.41,2.41,0,0,1,.4-1.5,1.61,1.61,0,0,1,1.1-.5.75.75,0,0,1,.5.1c.1.1.3.1.4.2l.3.3h0V14.2h.6v5.3h-.5l-.1-.5h0l-.3.3a.52.52,0,0,1-.4.2A.75.75,0,0,1,179.3,19.6Zm.1-.4a1.22,1.22,0,0,0,.9-.3,1.5,1.5,0,0,0,.2-1v-.1a3.09,3.09,0,0,0-.2-1.1c-.1-.3-.4-.4-.9-.4a.91.91,0,0,0-.8.4,1.8,1.8,0,0,0-.3,1.1,1.8,1.8,0,0,0,.3,1.1C178.8,19.2,179,19.2,179.4,19.2Z" transform="translate(-0.7 -5.9)"/><path d="M183.7,15.8a1.88,1.88,0,0,1,.8.2,1,1,0,0,1,.5.6,2.92,2.92,0,0,1,.2.9v.4h-2.6a1.49,1.49,0,0,0,.3,1,1.22,1.22,0,0,0,.9.3,1.27,1.27,0,0,0,.6-.1c.2-.1.4-.1.6-.2v.5c-.2.1-.4.1-.6.2a1.48,1.48,0,0,1-.7.1,2,2,0,0,1-.9-.2,1.17,1.17,0,0,1-.6-.6,3,3,0,0,1-.2-1,2.51,2.51,0,0,1,.2-1,1.34,1.34,0,0,1,.6-.7A1.8,1.8,0,0,1,183.7,15.8Zm0,.4a.91.91,0,0,0-.7.3,1.14,1.14,0,0,0-.3.8h2a1.27,1.27,0,0,0-.1-.6,1.38,1.38,0,0,0-.3-.4C184.1,16.3,183.9,16.2,183.7,16.2Z" transform="translate(-0.7 -5.9)"/><path d="M187.5,19.6a1.43,1.43,0,0,1-1.1-.5,2,2,0,0,1-.4-1.4,2.41,2.41,0,0,1,.4-1.5,1.61,1.61,0,0,1,1.1-.5.75.75,0,0,1,.5.1c.1.1.3.1.4.2l.3.3h0V14.2h.6v5.3h-.5l-.1-.5h0l-.3.3a.52.52,0,0,1-.4.2A.75.75,0,0,1,187.5,19.6Zm.1-.4a1.22,1.22,0,0,0,.9-.3,1.5,1.5,0,0,0,.2-1v-.1a3.09,3.09,0,0,0-.2-1.1c-.1-.3-.4-.4-.9-.4a.91.91,0,0,0-.8.4,1.8,1.8,0,0,0-.3,1.1,1.8,1.8,0,0,0,.3,1.1A.83.83,0,0,0,187.6,19.2Z" transform="translate(-0.7 -5.9)"/><path d="M191.1,18.8h0a1.27,1.27,0,0,1-.1.6c-.1.2-.1.4-.2.6s-.1.4-.2.5h-.4c0-.2.1-.4.1-.6s.1-.4.1-.6a4.33,4.33,0,0,1,.1-.5Z" transform="translate(-0.7 -5.9)"/><path d="M195.5,17.1l1.3-2.5h.6l-1.7,3.1v1.9h-.6V17.7l-1.7-3.1h.6Z" transform="translate(-0.7 -5.9)"/><path d="M197.7,18v-.5h1.7V18Z" transform="translate(-0.7 -5.9)"/><path d="M203.4,15.8v3.7h-.5l-.1-.5h0l-.3.3a.76.76,0,0,1-.4.2c-.2,0-.3.1-.5.1a1.48,1.48,0,0,1-.7-.1,1,1,0,0,1-.5-.4,1.88,1.88,0,0,1-.2-.8V15.8h.6v2.4a1.45,1.45,0,0,0,.2.7c.1.2.4.2.6.2a1.45,1.45,0,0,0,.7-.2,1,1,0,0,0,.4-.5,2,2,0,0,0,.1-.8v-2h.6Z" transform="translate(-0.7 -5.9)"/><path d="M206.3,15.8a1.43,1.43,0,0,1,1.1.5,2,2,0,0,1,.4,1.4,3.59,3.59,0,0,1-.2,1.1,1.79,1.79,0,0,1-.5.7,1.08,1.08,0,0,1-.8.2.75.75,0,0,1-.5-.1c-.1-.1-.3-.1-.4-.2l-.3-.3h0v2.1h-.6V15.8h.5l.1.6h0l.3-.3a.52.52,0,0,1,.4-.2A.75.75,0,0,1,206.3,15.8Zm-.1.4a.85.85,0,0,0-.6.2c-.1.1-.3.2-.3.4a1.72,1.72,0,0,0-.1.8v.1a2,2,0,0,0,.1.8,2.19,2.19,0,0,0,.3.5,1,1,0,0,0,1.2,0,.55.55,0,0,0,.3-.5,2,2,0,0,0,.1-.8,2,2,0,0,0-.3-1.1A.72.72,0,0,0,206.2,16.2Z" transform="translate(-0.7 -5.9)"/><path d="M137.1,28h-.7l-2.7-4.2h0V28h-.5V23h.7l2.7,4.2h0V23h.5Z" transform="translate(-0.7 -5.9)"/><path d="M141.6,26.1a2,2,0,0,1-.1.8l-.3.6a1,1,0,0,1-.5.4,1.7,1.7,0,0,1-.7.1,1.48,1.48,0,0,1-.7-.1,1,1,0,0,1-.5-.4c-.1-.2-.3-.4-.4-.6a2,2,0,0,1-.1-.8,2.51,2.51,0,0,1,.2-1,1.34,1.34,0,0,1,.6-.7,1.49,1.49,0,0,1,.9-.2,2.92,2.92,0,0,1,.9.2,1.34,1.34,0,0,1,.6.7C141.5,25.3,141.6,25.7,141.6,26.1Zm-2.9,0a2,2,0,0,0,.1.8,1,1,0,0,0,.4.5,1.42,1.42,0,0,0,.6.2.85.85,0,0,0,.6-.2,1,1,0,0,0,.4-.5,2,2,0,0,0,.1-.8,2,2,0,0,0-.1-.8,1,1,0,0,0-.4-.5,1.42,1.42,0,0,0-.6-.2,1,1,0,0,0-.9.4A3.09,3.09,0,0,0,138.7,26.1Z" transform="translate(-0.7 -5.9)"/><path d="M143.8,27.6h.3c.1,0,.2,0,.2-.1v.4c-.1,0-.2.1-.3.1h-.3a.75.75,0,0,1-.5-.1.78.78,0,0,1-.4-.4,1.48,1.48,0,0,1-.1-.7V24.6h-.5v-.3l.5-.2.2-.8h.3v.9h1.1v.4h-1.1v2.2a.76.76,0,0,0,.2.5C143.5,27.4,143.6,27.6,143.8,27.6Z" transform="translate(-0.7 -5.9)"/><path d="M146.5,24.2a1.88,1.88,0,0,1,.8.2,1,1,0,0,1,.5.6,2.92,2.92,0,0,1,.2.9v.4h-2.6a1.49,1.49,0,0,0,.3,1,1.22,1.22,0,0,0,.9.3,1.27,1.27,0,0,0,.6-.1c.2-.1.4-.1.6-.2v.5c-.2.1-.4.1-.6.2a1.48,1.48,0,0,1-.7.1,2,2,0,0,1-.9-.2,1.17,1.17,0,0,1-.6-.6,3,3,0,0,1-.2-1,2.51,2.51,0,0,1,.2-1,1.34,1.34,0,0,1,.6-.7A1.8,1.8,0,0,1,146.5,24.2Zm0,.4a.91.91,0,0,0-.7.3,1.14,1.14,0,0,0-.3.8h2a1.27,1.27,0,0,0-.1-.6,1.38,1.38,0,0,0-.3-.4C146.9,24.7,146.7,24.6,146.5,24.6Z" transform="translate(-0.7 -5.9)"/><path d="M152,27.6h.3c.1,0,.2,0,.2-.1v.4c-.1,0-.2.1-.3.1h-.3a.75.75,0,0,1-.5-.1.78.78,0,0,1-.4-.4,1.48,1.48,0,0,1-.1-.7V24.6h-.5v-.3l.5-.2.2-.8h.3v.9h1.1v.4h-1.1v2.2a.76.76,0,0,0,.2.5C151.7,27.4,151.8,27.6,152,27.6Z" transform="translate(-0.7 -5.9)"/><path d="M153.9,22.7v2.2h0l.3-.3a.76.76,0,0,1,.4-.2c.2,0,.3-.1.5-.1a2,2,0,0,1,.8.1,1,1,0,0,1,.5.4,1.88,1.88,0,0,1,.2.8V28H156V25.6a1.45,1.45,0,0,0-.2-.7c-.1-.2-.4-.2-.7-.2a1.45,1.45,0,0,0-.7.2,1,1,0,0,0-.4.5,2,2,0,0,0-.1.8v2h-.6V22.9h.6Z" transform="translate(-0.7 -5.9)"/><path d="M159,24.2a1.88,1.88,0,0,1,.8.2,1,1,0,0,1,.5.6,2.92,2.92,0,0,1,.2.9v.4H158a1.49,1.49,0,0,0,.3,1,1.22,1.22,0,0,0,.9.3,1.27,1.27,0,0,0,.6-.1c.2-.1.4-.1.6-.2v.5c-.2.1-.4.1-.6.2a1.48,1.48,0,0,1-.7.1,2,2,0,0,1-.9-.2,1.17,1.17,0,0,1-.6-.6,3,3,0,0,1-.2-1,2.51,2.51,0,0,1,.2-1,1.34,1.34,0,0,1,.6-.7C158.5,24.4,158.7,24.2,159,24.2Zm0,.4a.91.91,0,0,0-.7.3,1.14,1.14,0,0,0-.3.8h2a1.27,1.27,0,0,0-.1-.6,1.38,1.38,0,0,0-.3-.4C159.4,24.7,159.2,24.6,159,24.6Z" transform="translate(-0.7 -5.9)"/><path class="cls-7" d="M165,24.7h-.9V28h-.6V24.7h-.7v-.3l.7-.2V24a2,2,0,0,1,.1-.8.78.78,0,0,1,.4-.4,1.27,1.27,0,0,1,.6-.1h.4c.1,0,.2.1.3.1l-.1.4a.37.37,0,0,1-.3-.1h-.3a.76.76,0,0,0-.5.2,1.17,1.17,0,0,0-.2.7v.3h.9v.4Z" transform="translate(-0.7 -5.9)"/><path class="cls-7" d="M168.9,26.1a2,2,0,0,1-.1.8l-.3.6a1,1,0,0,1-.5.4,1.7,1.7,0,0,1-.7.1,1.48,1.48,0,0,1-.7-.1,1,1,0,0,1-.5-.4c-.1-.2-.3-.4-.4-.6a2,2,0,0,1-.1-.8,2.51,2.51,0,0,1,.2-1,1.34,1.34,0,0,1,.6-.7,1.49,1.49,0,0,1,.9-.2,2.92,2.92,0,0,1,.9.2,1.34,1.34,0,0,1,.6.7A2.79,2.79,0,0,1,168.9,26.1Zm-2.8,0a2,2,0,0,0,.1.8,1,1,0,0,0,.4.5,1.42,1.42,0,0,0,.6.2.85.85,0,0,0,.6-.2,1,1,0,0,0,.4-.5,2,2,0,0,0,.1-.8,2,2,0,0,0-.1-.8,1,1,0,0,0-.4-.5,1.42,1.42,0,0,0-.6-.2,1,1,0,0,0-.9.4A3.09,3.09,0,0,0,166.1,26.1Z" transform="translate(-0.7 -5.9)"/><path class="cls-7" d="M171.6,24.2h.4l-.1.5h-.4c-.2,0-.3,0-.4.1s-.2.1-.4.3a.52.52,0,0,0-.2.4.9.9,0,0,0-.1.5v2h-.6V24.3h.5l.1.7h0c.1-.1.2-.3.3-.4a1.38,1.38,0,0,1,.4-.3A.9.9,0,0,1,171.6,24.2Z" transform="translate(-0.7 -5.9)"/><path class="cls-7" d="M175.8,28l-.7-2.2c0-.1-.1-.2-.1-.3a.37.37,0,0,0-.1-.3c0-.1,0-.2-.1-.2v-.2h0V25c0,.1,0,.1-.1.2s0,.2-.1.3-.1.2-.1.3l-.7,2.2h-.6l-1-3.7h.6l.5,2.1c0,.1.1.3.1.4s.1.3.1.4a.37.37,0,0,0,.1.3h0v-.2a.37.37,0,0,1,.1-.3.37.37,0,0,1,.1-.3.37.37,0,0,1,.1-.3l.7-2.2h.6l.7,2.2c0,.1.1.2.1.3s.1.2.1.3a.37.37,0,0,0,.1.3h0a.37.37,0,0,1,.1-.3c.1-.1.1-.2.1-.4s.1-.3.1-.4l.5-2.1h.6l-1,3.7h-.8Z" transform="translate(-0.7 -5.9)"/><path class="cls-7" d="M179.6,24.2a1.49,1.49,0,0,1,1,.3,1.33,1.33,0,0,1,.3,1V28h-.4l-.1-.6h0c-.1.1-.2.3-.3.3a.52.52,0,0,1-.4.2,4.33,4.33,0,0,1-.5.1,1.27,1.27,0,0,1-.6-.1.78.78,0,0,1-.4-.4,1.42,1.42,0,0,1-.2-.6,1,1,0,0,1,.4-.9,2.42,2.42,0,0,1,1.4-.3h.6v-.2a1.17,1.17,0,0,0-.2-.7.85.85,0,0,0-.6-.2,1.27,1.27,0,0,0-.6.1c-.2.1-.3.1-.5.2l-.2-.4a1.42,1.42,0,0,1,.6-.2C179.1,24.3,179.4,24.2,179.6,24.2Zm.8,1.9h-.6a2.15,2.15,0,0,0-1,.2.6.6,0,0,0-.3.6.68.68,0,0,0,.7.7,1,1,0,0,0,1.1-1.1v-.4Z" transform="translate(-0.7 -5.9)"/><path class="cls-7" d="M183.8,24.2h.4l-.1.5h-.4c-.2,0-.3,0-.4.1s-.2.1-.4.3a.52.52,0,0,0-.2.4.9.9,0,0,0-.1.5v2H182V24.3h.5l.1.7h0c.1-.1.2-.3.3-.4a1.38,1.38,0,0,1,.4-.3A.9.9,0,0,1,183.8,24.2Z" transform="translate(-0.7 -5.9)"/><path class="cls-7" d="M186.3,28a1.43,1.43,0,0,1-1.1-.5,2,2,0,0,1-.4-1.4,2.41,2.41,0,0,1,.4-1.5,1.61,1.61,0,0,1,1.1-.5.75.75,0,0,1,.5.1c.1.1.3.1.4.2l.3.3h0V22.6h.6V28h-.5l-.1-.5h0l-.3.3a.52.52,0,0,1-.4.2Zm.1-.4a1.22,1.22,0,0,0,.9-.3,1.5,1.5,0,0,0,.2-1v-.1a3.09,3.09,0,0,0-.2-1.1c-.1-.3-.4-.4-.9-.4a.91.91,0,0,0-.8.4,2.17,2.17,0,0,0,0,2.2C185.8,27.6,186,27.6,186.4,27.6Z" transform="translate(-0.7 -5.9)"/><path class="cls-7" d="M192.4,24.2a1.49,1.49,0,0,1,1,.3,1.33,1.33,0,0,1,.3,1V28h-.4l-.1-.6h0c-.1.1-.2.3-.3.3a.52.52,0,0,1-.4.2,4.33,4.33,0,0,1-.5.1,1.27,1.27,0,0,1-.6-.1.78.78,0,0,1-.4-.4,1.42,1.42,0,0,1-.2-.6,1,1,0,0,1,.4-.9,2.42,2.42,0,0,1,1.4-.3h.6v-.2a1.17,1.17,0,0,0-.2-.7.85.85,0,0,0-.6-.2,1.27,1.27,0,0,0-.6.1c-.2.1-.3.1-.5.2l-.2-.4a1.42,1.42,0,0,1,.6-.2C191.9,24.3,192.2,24.2,192.4,24.2Zm.8,1.9h-.6a2.15,2.15,0,0,0-1,.2.6.6,0,0,0-.3.6.68.68,0,0,0,.7.7,1,1,0,0,0,1.1-1.1v-.4Z" transform="translate(-0.7 -5.9)"/><path class="cls-7" d="M195.8,26.1l-1.3-1.8h.6l1,1.4,1-1.4h.6l-1.3,1.8,1.4,1.9h-.7l-1-1.5L195,28h-.6Z" transform="translate(-0.7 -5.9)"/><path class="cls-7" d="M198.9,22.8c.1,0,.2,0,.2.1a.5.5,0,0,1,0,.6c-.1.1-.1.1-.2.1s-.2,0-.2-.1a.5.5,0,0,1,0-.6A.35.35,0,0,1,198.9,22.8Zm.3,1.4V28h-.6V24.3h.6Z" transform="translate(-0.7 -5.9)"/><path class="cls-7" d="M202.8,27a1.42,1.42,0,0,1-.2.6,1,1,0,0,1-.5.4,2,2,0,0,1-.8.1,1.48,1.48,0,0,1-.7-.1c-.2-.1-.4-.1-.5-.2v-.5c.2.1.3.1.5.2a1.48,1.48,0,0,0,.7.1,1.17,1.17,0,0,0,.7-.2.52.52,0,0,0,.2-.4.37.37,0,0,0-.1-.3c-.1-.1-.2-.2-.3-.2a.85.85,0,0,0-.6-.2l-.6-.3a1.38,1.38,0,0,1-.4-.3.75.75,0,0,1-.1-.5.67.67,0,0,1,.4-.7,1.69,1.69,0,0,1,1-.3,1.27,1.27,0,0,1,.6.1,1.42,1.42,0,0,1,.6.2l-.2.5c-.2-.1-.3-.1-.5-.2a4.33,4.33,0,0,1-.5-.1c-.3,0-.5,0-.6.1a.52.52,0,0,0-.2.4.37.37,0,0,0,.1.3c.1.1.2.1.3.2s.3.1.6.2l.6.3a1.38,1.38,0,0,1,.4.3A2,2,0,0,1,202.8,27Z" transform="translate(-0.7 -5.9)"/><path class="cls-7" d="M205.8,22.8c.1,0,.2,0,.2.1a.5.5,0,0,1,0,.6c-.1.1-.1.1-.2.1s-.2,0-.2-.1a.5.5,0,0,1,0-.6A.35.35,0,0,1,205.8,22.8Zm.3,1.4V28h-.6V24.3h.6Z" transform="translate(-0.7 -5.9)"/><path class="cls-7" d="M209.7,27a1.42,1.42,0,0,1-.2.6,1,1,0,0,1-.5.4,2,2,0,0,1-.8.1,1.48,1.48,0,0,1-.7-.1c-.2-.1-.4-.1-.5-.2v-.5c.2.1.3.1.5.2a1.48,1.48,0,0,0,.7.1,1.17,1.17,0,0,0,.7-.2.52.52,0,0,0,.2-.4.37.37,0,0,0-.1-.3c-.1-.1-.2-.2-.3-.2a.85.85,0,0,0-.6-.2l-.6-.3a1.38,1.38,0,0,1-.4-.3.75.75,0,0,1-.1-.5.67.67,0,0,1,.4-.7,1.69,1.69,0,0,1,1-.3,1.27,1.27,0,0,1,.6.1,1.42,1.42,0,0,1,.6.2l-.2.5c-.2-.1-.3-.1-.5-.2a4.33,4.33,0,0,1-.5-.1c-.3,0-.5,0-.6.1a.52.52,0,0,0-.2.4.37.37,0,0,0,.1.3c.1.1.2.1.3.2s.3.1.6.2l.6.3a1.38,1.38,0,0,1,.4.3C209.7,26.6,209.7,26.7,209.7,27Z" transform="translate(-0.7 -5.9)"/><path class="cls-5" d="M214.2,25.1h1.3v.7h-1.3v1.3h-.7V25.8h-1.3v-.7h1.3V23.8h.7Z" transform="translate(-0.7 -5.9)"/><path class="cls-5" d="M219.7,28H216v-.7l2.4-3.4h-2.3V23h3.6v.7l-2.4,3.4h2.5V28Z" transform="translate(-0.7 -5.9)"/><path class="cls-7" d="M220.4,27.6c0-.2,0-.3.1-.3a.4.4,0,0,1,.7.3c0,.2,0,.3-.1.3a.5.5,0,0,1-.6,0A.44.44,0,0,1,220.4,27.6Z" transform="translate(-0.7 -5.9)"/><path class="cls-1" d="M59.9,73.6h2v1.2h-2v2H58.7v-2h-2V73.6h2V71.5h1.2Z" transform="translate(-0.7 -5.9)"/><path class="cls-1" d="M65.7,73.4l1.6-3.2h1.8l-2.6,4.7v3H64.9V75l-2.6-4.8h1.8Z" transform="translate(-0.7 -5.9)"/></svg>