<svg xmlns="http://www.w3.org/2000/svg" viewBox="0 0 248.6434 248.6434"><defs><style>.cls-1{fill:#be1414;}.cls-2{fill:none;stroke:#be1414;stroke-miterlimit:10;stroke-width:24px;}</style></defs><g id="Layer_1" data-name="Layer 1"><path class="cls-1" d="M130.1885,162.7861H126.2q-.8349-2.8755-4.4082-16.6533Q118.22,132.3559,116.18,123.45q-.2784-1.3915-2.1348-9.1846t-2.8291-14.38a82.4324,82.4324,0,0,1-.9741-11.9678q0-11.874,4.5923-19.065a15.53,15.53,0,0,1,22.5434-3.9892,20.7586,20.7586,0,0,1,6.3086,9.3237A39.2222,39.2222,0,0,1,145.96,87.9175a112.0846,112.0846,0,0,1-1.6231,18.0444q-1.623,9.88-3.664,17.4878-1.3008,5.5671-5.4278,21.1528T130.1885,162.7861Zm-2.0415,7.0508a14.638,14.638,0,0,1,10.6235,4.3135,15.1193,15.1193,0,0,1,0,21.3379,15.0071,15.0071,0,0,1-21.1528-.0918,14.6816,14.6816,0,0,1,.0469-21.1992A14.6971,14.6971,0,0,1,128.147,169.8369Z" transform="translate(-3.3217 -4.3682)"/></g><g id="Layer_3" data-name="Layer 3"><circle class="cls-2" cx="124.3217" cy="124.3217" r="112.3217"/></g></svg>