<svg xmlns="http://www.w3.org/2000/svg" viewBox="0 0 248.6434 248.6434"><defs><style>.cls-1{fill:none;stroke:#0071bc;stroke-miterlimit:10;stroke-width:24px;}.cls-2{fill:#0071bc;}</style></defs><g id="Layer_3" data-name="Layer 3"><circle class="cls-1" cx="124.3217" cy="124.3217" r="112.3217"/></g><g id="Layer_2" data-name="Layer 2"><path class="cls-2" d="M137.1455,109.4619H140.99v69.9834q0,12.7456,13.7334,14.3916v3.8457H101.33v-3.8457q8.5694-1.6479,11.3706-4.834,2.8023-3.1845,2.8018-11.3154V132.4238q0-7.8-2.9664-10.8769-2.9663-3.0747-12.3046-4.834v-3.8452ZM113.5244,71.4492a13.9824,13.9824,0,0,1,4.34-10.3271,14.382,14.382,0,0,1,10.4917-4.2847,14.171,14.171,0,0,1,10.3266,4.2295,14.0226,14.0226,0,0,1,4.2852,10.3823,14.3791,14.3791,0,0,1-4.2852,10.4917,13.9794,13.9794,0,0,1-10.3266,4.34,14.9113,14.9113,0,0,1-14.8316-14.8316Z" transform="translate(-3.3217 -4.3682)"/></g></svg>