<svg id="Layer_1" data-name="Layer 1" xmlns="http://www.w3.org/2000/svg" viewBox="0 0 243.5823 244.7829"><defs><style>.cls-1{fill:none;stroke:#be1414;stroke-miterlimit:10;stroke-width:20px;}.cls-2{fill:#be1414;}</style></defs><path class="cls-1" d="M123.8285,18.2617,16.5656,234.9053c-1.4091,2.699.78,5.8,4.0935,5.8H235.1849c3.314,0,5.5027-3.1011,4.0936-5.8L132.0156,18.2617A4.7514,4.7514,0,0,0,123.8285,18.2617Z" transform="translate(-6.1309 -5.9225)"/><path class="cls-2" d="M129.8787,183.3908h-3.59q-.7515-2.588-3.9674-14.988-3.2142-12.3992-5.05-20.4148-.25-1.2525-1.9213-8.2661T112.8037,126.78a74.1832,74.1832,0,0,1-.8767-10.771q0-10.6866,4.1331-17.1585a13.977,13.977,0,0,1,20.2891-3.59,18.6834,18.6834,0,0,1,5.6777,8.3913,35.299,35.299,0,0,1,2.0461,12.3575,100.8764,100.8764,0,0,1-1.4607,16.24q-1.4609,8.8923-3.2977,15.739-1.1708,5.01-4.885,19.0375T129.8787,183.3908Zm-1.8374,6.3457a13.1742,13.1742,0,0,1,9.5612,3.8821,13.6075,13.6075,0,0,1,0,19.2041,13.5064,13.5064,0,0,1-19.0376-.0826,13.2136,13.2136,0,0,1,.0422-19.0793A13.2279,13.2279,0,0,1,128.0413,189.7365Z" transform="translate(-6.1309 -5.9225)"/></svg>