<svg width="208" height="48" viewBox="0 0 208 48" fill="none" xmlns="http://www.w3.org/2000/svg">
<path fill-rule="evenodd" clip-rule="evenodd" d="M65.5313 17.1178C65.5313 19.0905 64.9324 20.7682 63.7344 22.1505C62.5367 23.5328 60.8558 24.4831 58.691 25.0017V25.1312C61.2454 25.4481 63.1789 26.2219 64.4923 27.4531C65.8052 28.6843 66.4619 30.3441 66.4619 32.4319C66.4619 35.4709 65.3582 37.8358 63.1504 39.5276C60.9422 41.2197 57.7893 42.0656 53.691 42.0656C50.2566 42.0656 47.2115 41.4968 44.5566 40.359V34.6783C45.7829 35.2978 47.1323 35.8013 48.6043 36.1901C50.0763 36.5792 51.5338 36.7732 52.9766 36.7732C55.1844 36.7732 56.815 36.3996 57.8685 35.6502C58.922 34.9015 59.4489 33.6995 59.4489 32.0431C59.4489 30.5602 58.8428 29.5093 57.6307 28.8894C56.4182 28.2705 54.4843 27.9607 51.8295 27.9607H49.4269V22.8418H51.8728C54.326 22.8418 56.1188 22.5214 57.2518 21.8805C58.3844 21.2397 58.9509 20.1417 58.9509 18.5863C58.9509 16.196 57.45 15.0009 54.4485 15.0009C53.4095 15.0009 52.3522 15.1736 51.2774 15.5191C50.2023 15.8649 49.008 16.4629 47.695 17.3122L44.6 12.7112C47.4858 10.6375 50.9274 9.60071 54.9249 9.60071C58.2006 9.60071 60.787 10.2635 62.6847 11.5882C64.5821 12.9128 65.5313 14.7563 65.5313 17.1178Z" fill="white"/>
<path fill-rule="evenodd" clip-rule="evenodd" d="M90.838 25.6999C90.838 18.7275 87.7522 15.2409 81.581 15.2409H77.9091V36.381H80.8686C87.5147 36.381 90.838 32.821 90.838 25.6999ZM98.0035 25.5223C98.0035 30.8668 96.4792 34.9596 93.4302 37.8022C90.382 40.6444 85.9794 42.0656 80.2233 42.0656H71.0107V9.60071H81.2251C86.5356 9.60071 90.66 10.9999 93.5975 13.7978C96.5349 16.5958 98.0035 20.5037 98.0035 25.5223Z" fill="white"/>
<path fill-rule="evenodd" clip-rule="evenodd" d="M121.313 42.0656H102.576V9.60071H121.313V15.2409H109.474V22.3693H120.489V28.0091H109.474V36.381H121.313V42.0656Z" fill="white"/>
<path fill-rule="evenodd" clip-rule="evenodd" d="M26.0035 9.60071C24.4434 9.60071 22.9366 9.82463 21.508 10.234V16.58C22.8668 15.9216 24.3917 15.5514 26.0035 15.5514C31.6942 15.5514 36.307 20.1548 36.307 25.8331C36.307 31.5115 31.6942 36.1152 26.0035 36.1152C20.3131 36.1152 15.7002 31.5115 15.7002 25.8331C15.7002 24.4814 15.9639 23.1925 16.4392 22.01H10.195C9.898 23.2364 9.73693 24.5157 9.73693 25.8331C9.73693 34.7981 17.0198 42.0656 26.0035 42.0656C34.9875 42.0656 42.2707 34.7981 42.2707 25.8331C42.2707 16.8685 34.9875 9.60071 26.0035 9.60071Z" fill="white"/>
<path fill-rule="evenodd" clip-rule="evenodd" d="M19.2279 18.1845L11.3858 19.8296L9.73727 12.0044L17.579 10.359L19.2279 18.1845Z" fill="white"/>
<path fill-rule="evenodd" clip-rule="evenodd" d="M5.04254 11.1984H8.24808V8H5.04254V11.1984Z" fill="white"/>
<path fill-rule="evenodd" clip-rule="evenodd" d="M6.05955 18.7585L0.979351 17.4558L2.28476 12.3867L7.36496 13.6894L6.05955 18.7585Z" fill="white"/>
<path d="M135.668 33V15.8672H137.66V31.1953H145.219V33H135.668ZM157.688 33H148.137V15.8672H157.688V17.6367H150.129V23.1562H157.231V24.9141H150.129V31.2188H157.688V33ZM172.266 33L170.133 27.5508H163.266L161.156 33H159.141L165.914 15.7969H167.59L174.328 33H172.266ZM169.512 25.7578L167.52 20.4492C167.262 19.7773 166.996 18.9531 166.723 17.9766C166.551 18.7266 166.305 19.5508 165.984 20.4492L163.969 25.7578H169.512ZM178.676 25.875V33H176.684V15.8672H181.383C183.484 15.8672 185.035 16.2695 186.035 17.0742C187.043 17.8789 187.547 19.0898 187.547 20.707C187.547 22.9727 186.399 24.5039 184.102 25.3008L188.754 33H186.399L182.25 25.875H178.676ZM178.676 24.1641H181.406C182.813 24.1641 183.844 23.8867 184.5 23.332C185.156 22.7695 185.484 21.9297 185.484 20.8125C185.484 19.6797 185.149 18.8633 184.477 18.3633C183.813 17.8633 182.742 17.6133 181.266 17.6133H178.676V24.1641ZM204.902 33H202.629L193.266 18.6211H193.172C193.297 20.3086 193.359 21.8555 193.359 23.2617V33H191.52V15.8672H193.77L203.109 30.1875H203.203C203.188 29.9766 203.152 29.3008 203.098 28.1602C203.043 27.0117 203.024 26.1914 203.039 25.6992V15.8672H204.902V33Z" fill="white"/>
</svg>
